%TF.GenerationSoftware,KiCad,Pcbnew,8.0.5*%
%TF.CreationDate,2024-10-28T18:07:43+00:00*%
%TF.ProjectId,WindSensorATMEGA328_PCB,57696e64-5365-46e7-936f-7241544d4547,rev?*%
%TF.SameCoordinates,PX5734380PY7df6180*%
%TF.FileFunction,Copper,L2,Bot*%
%TF.FilePolarity,Positive*%
%FSLAX46Y46*%
G04 Gerber Fmt 4.6, Leading zero omitted, Abs format (unit mm)*
G04 Created by KiCad (PCBNEW 8.0.5) date 2024-10-28 18:07:43*
%MOMM*%
%LPD*%
G01*
G04 APERTURE LIST*
%TA.AperFunction,ComponentPad*%
%ADD10R,2.499360X2.499360*%
%TD*%
%TA.AperFunction,ComponentPad*%
%ADD11C,2.499360*%
%TD*%
%TA.AperFunction,ComponentPad*%
%ADD12R,2.032000X2.032000*%
%TD*%
%TA.AperFunction,ComponentPad*%
%ADD13R,1.500000X1.500000*%
%TD*%
%TA.AperFunction,ComponentPad*%
%ADD14C,2.032000*%
%TD*%
%TA.AperFunction,ComponentPad*%
%ADD15C,1.500000*%
%TD*%
%TA.AperFunction,ComponentPad*%
%ADD16R,2.100580X2.100580*%
%TD*%
%TA.AperFunction,ComponentPad*%
%ADD17C,2.199640*%
%TD*%
%TA.AperFunction,ComponentPad*%
%ADD18C,1.600200*%
%TD*%
%TA.AperFunction,ViaPad*%
%ADD19C,0.600000*%
%TD*%
%TA.AperFunction,Conductor*%
%ADD20C,0.300000*%
%TD*%
%TA.AperFunction,Conductor*%
%ADD21C,0.500000*%
%TD*%
G04 APERTURE END LIST*
D10*
%TO.P,P11,1,Pin_1*%
%TO.N,VCC*%
X44704000Y37338000D03*
D11*
%TO.P,P11,2,Pin_2*%
%TO.N,/Hall_to_Freq/WIND_A_SIG*%
X49784000Y37338000D03*
%TO.P,P11,3,Pin_3*%
%TO.N,GND*%
X54864000Y37338000D03*
%TD*%
D10*
%TO.P,P8,1,Pin_1*%
%TO.N,VCC*%
X59944000Y37338000D03*
D11*
%TO.P,P8,2,Pin_2*%
%TO.N,/Wind_Vane/WIND_V_SIG*%
X65024000Y37338000D03*
%TO.P,P8,3,Pin_3*%
%TO.N,GND*%
X70104000Y37338000D03*
%TD*%
D12*
%TO.P,P2,1,Pin_1*%
%TO.N,/Tx*%
X49530000Y5715000D03*
D13*
X54150000Y7826000D03*
D14*
%TO.P,P2,2,Pin_2*%
%TO.N,/Rx*%
X54610000Y5715000D03*
D15*
X56150000Y7826000D03*
%TO.P,P2,3,Pin_3*%
%TO.N,VCC*%
X58150000Y7826000D03*
D14*
X59690000Y5715000D03*
D15*
%TO.P,P2,4,Pin_4*%
%TO.N,GND*%
X60150000Y7826000D03*
D14*
X64770000Y5715000D03*
%TD*%
D16*
%TO.P,P9,1,Pin_1*%
%TO.N,GND*%
X37084000Y21590000D03*
D17*
%TO.P,P9,2,Pin_2*%
X36830000Y19050000D03*
%TO.P,P9,3,Pin_3*%
%TO.N,VCC*%
X37084000Y16510000D03*
%TO.P,P9,4,Pin_4*%
%TO.N,/Rx*%
X36830000Y13970000D03*
%TO.P,P9,5,Pin_5*%
%TO.N,/Tx*%
X37084000Y11430000D03*
%TO.P,P9,6,Pin_6*%
%TO.N,/ATMega328/DTR*%
X36830000Y8890000D03*
%TD*%
D13*
%TO.P,P10,1,Pin_1*%
%TO.N,/I2C_CLK*%
X37671000Y33099000D03*
D15*
%TO.P,P10,2,Pin_2*%
%TO.N,/I2C_SDA*%
X37671000Y31099000D03*
%TO.P,P10,3,Pin_3*%
%TO.N,VCC*%
X37671000Y29099000D03*
%TO.P,P10,4,Pin_4*%
%TO.N,GND*%
X37671000Y27099000D03*
%TD*%
D18*
%TO.P,P4,1,1*%
%TO.N,/ATMega328/MISO*%
X51435000Y15240000D03*
%TO.P,P4,2,2*%
%TO.N,VCC*%
X51435000Y12700000D03*
%TO.P,P4,3,3*%
%TO.N,/ATMega328/SCLK*%
X48895000Y15240000D03*
%TO.P,P4,4,4*%
%TO.N,/ATMega328/MOSI*%
X48895000Y12700000D03*
%TO.P,P4,5,5*%
%TO.N,/ATMega328/RESET*%
X46355000Y15240000D03*
%TO.P,P4,6,6*%
%TO.N,GND*%
X46355000Y12700000D03*
%TD*%
D19*
%TO.N,GND*%
X56134000Y28067000D03*
X48387000Y34798000D03*
X48735000Y18542000D03*
X75438000Y28956000D03*
X64516000Y28321000D03*
X74803000Y17399000D03*
X77216000Y26289000D03*
X54483000Y19050000D03*
X55240000Y26040000D03*
X61849000Y28934618D03*
%TO.N,VCC*%
X78867000Y36576000D03*
X76835000Y20066000D03*
X78740000Y20066000D03*
X77851000Y28448000D03*
%TO.N,/ATMega328/RESET*%
X62738000Y19050000D03*
X70115792Y27355903D03*
%TO.N,/Rx*%
X69342000Y27559000D03*
%TO.N,/Tx*%
X68453000Y28702000D03*
%TO.N,/I2C_SDA*%
X71628000Y28067000D03*
%TO.N,/I2C_CLK*%
X68453000Y31496000D03*
%TO.N,/ATMega328/A0*%
X76301600Y29108400D03*
X75819000Y25654000D03*
%TO.N,/ATMega328/SCLK*%
X65778899Y15882101D03*
X76581000Y18415000D03*
%TO.N,/ATMega328/MOSI*%
X73660000Y13589000D03*
X55626000Y13208000D03*
%TO.N,/ATMega328/MISO*%
X73406000Y14986000D03*
X66421000Y14986000D03*
%TO.N,/ATMega328/A2*%
X78471000Y30226000D03*
X78486000Y33147000D03*
%TO.N,/WIND_FREQ*%
X67691000Y29591000D03*
X51816000Y25146000D03*
%TO.N,/WIND_VANE*%
X74168000Y27813000D03*
X64262000Y24257000D03*
%TD*%
D20*
%TO.N,GND*%
X64262000Y28067000D02*
X64516000Y28321000D01*
D21*
X45339000Y17780000D02*
X48260000Y17780000D01*
D20*
X61849000Y28067000D02*
X64262000Y28067000D01*
D21*
X49911000Y19050000D02*
X54483000Y19050000D01*
X77101000Y29833000D02*
X77101000Y26404000D01*
X68707000Y34798000D02*
X72136000Y34798000D01*
X49530000Y19050000D02*
X49911000Y19050000D01*
X48260000Y17780000D02*
X49530000Y19050000D01*
D20*
X77216000Y22479000D02*
X77216000Y26289000D01*
D21*
X49911000Y19050000D02*
X50292000Y19050000D01*
X54483000Y34798000D02*
X54864000Y35179000D01*
X52959000Y34798000D02*
X54483000Y34798000D01*
D20*
X74803000Y20066000D02*
X77216000Y22479000D01*
X57267000Y28067000D02*
X61468000Y28067000D01*
D21*
X77101000Y26404000D02*
X77216000Y26289000D01*
D20*
X77216000Y26289000D02*
X77201000Y26304000D01*
X54483000Y19050000D02*
X50292000Y19050000D01*
D21*
X54864000Y35179000D02*
X54864000Y36957000D01*
D20*
X74803000Y17399000D02*
X74803000Y20066000D01*
X56134000Y28067000D02*
X61849000Y28067000D01*
D21*
X70104000Y35433000D02*
X70104000Y36957000D01*
D20*
X61849000Y28067000D02*
X61849000Y28934618D01*
X49243000Y19050000D02*
X48735000Y18542000D01*
D21*
X76136500Y30797500D02*
X77101000Y29833000D01*
D20*
X75438000Y30099000D02*
X76136500Y30797500D01*
D21*
X72136000Y34798000D02*
X76136500Y30797500D01*
X45212000Y12700000D02*
X44323000Y13589000D01*
X44323000Y16764000D02*
X45339000Y17780000D01*
X52959000Y34798000D02*
X68707000Y34798000D01*
D20*
X55240000Y27173000D02*
X56134000Y28067000D01*
D21*
X69469000Y34798000D02*
X70104000Y35433000D01*
D20*
X50292000Y19050000D02*
X49243000Y19050000D01*
D21*
X44323000Y13589000D02*
X44323000Y16764000D01*
D20*
X55240000Y26040000D02*
X55240000Y27173000D01*
D21*
X68707000Y34798000D02*
X69469000Y34798000D01*
X48387000Y34798000D02*
X52959000Y34798000D01*
X46355000Y12700000D02*
X45212000Y12700000D01*
D20*
X75438000Y28956000D02*
X75438000Y30099000D01*
D21*
%TO.N,VCC*%
X78740000Y27559000D02*
X77851000Y28448000D01*
X39481000Y29099000D02*
X37671000Y29099000D01*
X58150000Y6366000D02*
X58150000Y7826000D01*
X43116500Y16510000D02*
X37084000Y16510000D01*
X74422000Y3810000D02*
X78740000Y8128000D01*
X51435000Y12700000D02*
X48514000Y9779000D01*
X44450000Y40005000D02*
X59055000Y40005000D01*
D20*
X78867000Y36576000D02*
X79136000Y36307000D01*
D21*
X44704000Y39751000D02*
X44450000Y40005000D01*
X45593000Y9779000D02*
X43116500Y12255500D01*
X59690000Y5715000D02*
X61595000Y3810000D01*
X48514000Y9779000D02*
X45593000Y9779000D01*
X43116500Y16510000D02*
X43116500Y25463500D01*
D20*
X79136000Y36307000D02*
X79136000Y27955000D01*
D21*
X37671000Y29099000D02*
X36306000Y29099000D01*
X58801000Y5715000D02*
X58150000Y6366000D01*
D20*
X79136000Y27955000D02*
X78740000Y27559000D01*
D21*
X44704000Y36957000D02*
X44704000Y39751000D01*
X36306000Y29099000D02*
X35941000Y29464000D01*
X59944000Y39116000D02*
X59944000Y36957000D01*
X38862000Y35179000D02*
X43688000Y40005000D01*
X35941000Y33679002D02*
X37440998Y35179000D01*
X61595000Y3810000D02*
X74422000Y3810000D01*
X78740000Y8128000D02*
X78740000Y14351000D01*
X43116500Y12255500D02*
X43116500Y16510000D01*
X59690000Y5715000D02*
X58801000Y5715000D01*
X76835000Y20066000D02*
X78740000Y20066000D01*
X43116500Y25463500D02*
X39481000Y29099000D01*
X78740000Y14351000D02*
X78740000Y20447000D01*
X35941000Y29464000D02*
X35941000Y33679002D01*
X43688000Y40005000D02*
X44450000Y40005000D01*
X78740000Y27559000D02*
X78740000Y20447000D01*
X59055000Y40005000D02*
X59944000Y39116000D01*
X78740000Y20066000D02*
X78740000Y20447000D01*
X37440998Y35179000D02*
X38862000Y35179000D01*
D20*
%TO.N,/ATMega328/RESET*%
X70104000Y27358998D02*
X70112697Y27358998D01*
X70112697Y27358998D02*
X70115792Y27355903D01*
X62738000Y19050000D02*
X62738000Y23667239D01*
X65831260Y26760499D02*
X69505501Y26760499D01*
X69505501Y26760499D02*
X70104000Y27358998D01*
X62738000Y23667239D02*
X65831260Y26760499D01*
D21*
%TO.N,/Rx*%
X40005000Y12700000D02*
X38735000Y13970000D01*
X40005000Y8636000D02*
X40005000Y12700000D01*
X51054000Y7747000D02*
X40894000Y7747000D01*
D20*
X54737000Y16373344D02*
X65922655Y27559000D01*
X65922655Y27559000D02*
X69342000Y27559000D01*
X54737000Y10287000D02*
X54737000Y16373344D01*
X56150000Y8874000D02*
X54737000Y10287000D01*
X56150000Y7826000D02*
X56150000Y8874000D01*
D21*
X55499000Y5715000D02*
X56150000Y6366000D01*
X40894000Y7747000D02*
X40005000Y8636000D01*
X54610000Y5715000D02*
X55499000Y5715000D01*
X38735000Y13970000D02*
X36830000Y13970000D01*
X54610000Y5715000D02*
X53086000Y5715000D01*
X53086000Y5715000D02*
X51054000Y7747000D01*
X56150000Y6366000D02*
X56150000Y7826000D01*
%TO.N,/Tx*%
X49530000Y5715000D02*
X40767000Y5715000D01*
X39116000Y9398000D02*
X37084000Y11430000D01*
D20*
X54150000Y7826000D02*
X54150000Y16493452D01*
D21*
X39116000Y7366000D02*
X39116000Y9398000D01*
D20*
X65715548Y28059000D02*
X67818000Y28059000D01*
X54150000Y16493452D02*
X65715548Y28059000D01*
X67818000Y28067000D02*
X68453000Y28702000D01*
X67818000Y28059000D02*
X67818000Y28067000D01*
D21*
X40767000Y5715000D02*
X39116000Y7366000D01*
D20*
%TO.N,/I2C_SDA*%
X39909000Y31099000D02*
X40767000Y30241000D01*
X40767000Y30241000D02*
X69454000Y30241000D01*
X37671000Y31099000D02*
X39909000Y31099000D01*
X69454000Y30241000D02*
X71628000Y28067000D01*
%TO.N,/I2C_CLK*%
X37671000Y33099000D02*
X38862000Y33099000D01*
X67310000Y30861000D02*
X41100000Y30861000D01*
X68453000Y31496000D02*
X67945000Y31496000D01*
X41100000Y30861000D02*
X38862000Y33099000D01*
X67945000Y31496000D02*
X67310000Y30861000D01*
%TO.N,/ATMega328/A0*%
X75819000Y28219400D02*
X76301600Y28702000D01*
X75819000Y25654000D02*
X75819000Y28219400D01*
X76301600Y28702000D02*
X76301600Y29108400D01*
%TO.N,/ATMega328/SCLK*%
X75191101Y15882101D02*
X76581000Y17272000D01*
X65778899Y15882101D02*
X75191101Y15882101D01*
X76581000Y17272000D02*
X76581000Y18415000D01*
%TO.N,/ATMega328/MOSI*%
X55626000Y13208000D02*
X73279000Y13208000D01*
X73279000Y13208000D02*
X73660000Y13589000D01*
%TO.N,/ATMega328/MISO*%
X66421000Y14986000D02*
X73406000Y14986000D01*
%TO.N,/ATMega328/A2*%
X78471000Y33132000D02*
X78486000Y33147000D01*
X78471000Y30226000D02*
X78471000Y33132000D01*
%TO.N,/WIND_FREQ*%
X56007000Y29591000D02*
X67691000Y29591000D01*
X51816000Y25146000D02*
X51816000Y25400000D01*
X51816000Y25400000D02*
X56007000Y29591000D01*
%TO.N,/WIND_VANE*%
X74168000Y25146000D02*
X74168000Y27813000D01*
X64262000Y24257000D02*
X64643000Y23876000D01*
X64643000Y23876000D02*
X72898000Y23876000D01*
X72898000Y23876000D02*
X74168000Y25146000D01*
%TD*%
%TA.AperFunction,Conductor*%
%TO.N,GND*%
G36*
X76434656Y42748588D02*
G01*
X76612904Y42746090D01*
X76625239Y42745311D01*
X76980323Y42705302D01*
X76994225Y42702940D01*
X77341745Y42623621D01*
X77355306Y42619714D01*
X77691744Y42501989D01*
X77704781Y42496589D01*
X78025928Y42341933D01*
X78038283Y42335104D01*
X78340087Y42145468D01*
X78351600Y42137300D01*
X78630284Y41915057D01*
X78640819Y41905641D01*
X78892840Y41653620D01*
X78902256Y41643085D01*
X79124495Y41364407D01*
X79132671Y41352883D01*
X79322300Y41051090D01*
X79329135Y41038723D01*
X79474309Y40737265D01*
X79483784Y40717591D01*
X79489191Y40704537D01*
X79606910Y40368115D01*
X79610822Y40354538D01*
X79690136Y40007042D01*
X79692503Y39993111D01*
X79732509Y39638042D01*
X79733289Y39625701D01*
X79735786Y39447546D01*
X79735798Y39445619D01*
X79732875Y37154809D01*
X79712786Y37086714D01*
X79659071Y37040290D01*
X79588784Y37030275D01*
X79524241Y37059851D01*
X79508353Y37078404D01*
X79507527Y37077745D01*
X79503111Y37083282D01*
X79374281Y37212112D01*
X79374279Y37212113D01*
X79220018Y37309042D01*
X79220015Y37309043D01*
X79048050Y37369216D01*
X79048049Y37369217D01*
X79048047Y37369217D01*
X78867000Y37389616D01*
X78685953Y37369217D01*
X78685950Y37369217D01*
X78685949Y37369216D01*
X78513984Y37309043D01*
X78513981Y37309042D01*
X78359720Y37212113D01*
X78359718Y37212112D01*
X78230888Y37083282D01*
X78230887Y37083280D01*
X78133958Y36929019D01*
X78133957Y36929016D01*
X78095223Y36818318D01*
X78073783Y36757047D01*
X78053384Y36576000D01*
X78073783Y36394953D01*
X78073783Y36394951D01*
X78073784Y36394950D01*
X78133957Y36222985D01*
X78133958Y36222982D01*
X78230887Y36068721D01*
X78230888Y36068719D01*
X78359716Y35939891D01*
X78359718Y35939890D01*
X78359719Y35939889D01*
X78409396Y35908675D01*
X78418535Y35902933D01*
X78465573Y35849754D01*
X78477500Y35796245D01*
X78477500Y34072259D01*
X78457498Y34004138D01*
X78403842Y33957645D01*
X78365612Y33947052D01*
X78304953Y33940217D01*
X78304950Y33940217D01*
X78304949Y33940216D01*
X78132984Y33880043D01*
X78132981Y33880042D01*
X77978720Y33783113D01*
X77978718Y33783112D01*
X77849888Y33654282D01*
X77849887Y33654280D01*
X77752958Y33500019D01*
X77752957Y33500016D01*
X77752957Y33500015D01*
X77692783Y33328047D01*
X77672384Y33147000D01*
X77692783Y32965953D01*
X77692783Y32965951D01*
X77692784Y32965950D01*
X77752956Y32793986D01*
X77752957Y32793985D01*
X77793187Y32729960D01*
X77812500Y32662924D01*
X77812500Y30733950D01*
X77793188Y30666916D01*
X77746500Y30592612D01*
X77737955Y30579012D01*
X77677784Y30407051D01*
X77677783Y30407047D01*
X77657384Y30226000D01*
X77677783Y30044953D01*
X77677783Y30044951D01*
X77677784Y30044950D01*
X77737957Y29872985D01*
X77737958Y29872982D01*
X77834887Y29718721D01*
X77834888Y29718719D01*
X77963718Y29589889D01*
X77963720Y29589888D01*
X78117981Y29492959D01*
X78117982Y29492959D01*
X78117985Y29492957D01*
X78289953Y29432783D01*
X78365610Y29424259D01*
X78431060Y29396757D01*
X78471253Y29338233D01*
X78477500Y29299052D01*
X78477500Y29237182D01*
X78457498Y29169061D01*
X78403842Y29122568D01*
X78333568Y29112464D01*
X78284465Y29130494D01*
X78204015Y29181043D01*
X78032050Y29241216D01*
X78032049Y29241217D01*
X78032047Y29241217D01*
X77851000Y29261616D01*
X77669953Y29241217D01*
X77669950Y29241217D01*
X77669949Y29241216D01*
X77497984Y29181043D01*
X77497981Y29181042D01*
X77343721Y29084114D01*
X77325821Y29066214D01*
X77263508Y29032190D01*
X77192692Y29037256D01*
X77135857Y29079804D01*
X77111520Y29141201D01*
X77094817Y29289447D01*
X77034643Y29461415D01*
X77034641Y29461418D01*
X77034641Y29461419D01*
X76937712Y29615680D01*
X76937711Y29615682D01*
X76808881Y29744512D01*
X76808879Y29744513D01*
X76654618Y29841442D01*
X76654615Y29841443D01*
X76482650Y29901616D01*
X76482649Y29901617D01*
X76482647Y29901617D01*
X76301600Y29922016D01*
X76120553Y29901617D01*
X76120550Y29901617D01*
X76120549Y29901616D01*
X75948584Y29841443D01*
X75948581Y29841442D01*
X75794320Y29744513D01*
X75794318Y29744512D01*
X75665488Y29615682D01*
X75665487Y29615680D01*
X75568558Y29461419D01*
X75568557Y29461416D01*
X75525412Y29338112D01*
X75508383Y29289447D01*
X75496169Y29181043D01*
X75487984Y29108400D01*
X75508383Y28927346D01*
X75509111Y28924158D01*
X75508981Y28922041D01*
X75509175Y28920321D01*
X75508873Y28920288D01*
X75504768Y28853295D01*
X75475366Y28807028D01*
X75307508Y28639169D01*
X75245287Y28546046D01*
X75245285Y28546044D01*
X75235446Y28531320D01*
X75185807Y28411481D01*
X75185806Y28411478D01*
X75160500Y28284261D01*
X75160500Y28166112D01*
X75140498Y28097991D01*
X75086842Y28051498D01*
X75016568Y28041394D01*
X74951988Y28070888D01*
X74915571Y28124497D01*
X74905976Y28151917D01*
X74901043Y28166015D01*
X74901041Y28166018D01*
X74901041Y28166019D01*
X74804112Y28320280D01*
X74804111Y28320282D01*
X74675281Y28449112D01*
X74675279Y28449113D01*
X74521018Y28546042D01*
X74521015Y28546043D01*
X74349050Y28606216D01*
X74349049Y28606217D01*
X74349047Y28606217D01*
X74168000Y28626616D01*
X73986953Y28606217D01*
X73986950Y28606217D01*
X73986949Y28606216D01*
X73814984Y28546043D01*
X73814981Y28546042D01*
X73660720Y28449113D01*
X73660718Y28449112D01*
X73531888Y28320282D01*
X73531887Y28320280D01*
X73434958Y28166019D01*
X73434957Y28166016D01*
X73378597Y28004946D01*
X73374783Y27994047D01*
X73354384Y27813000D01*
X73374783Y27631953D01*
X73374783Y27631951D01*
X73374784Y27631950D01*
X73434956Y27459986D01*
X73444643Y27444570D01*
X73490187Y27372086D01*
X73509500Y27305052D01*
X73509500Y25470950D01*
X73489498Y25402829D01*
X73472595Y25381855D01*
X72662145Y24571405D01*
X72599833Y24537379D01*
X72573050Y24534500D01*
X65110580Y24534500D01*
X65042459Y24554502D01*
X64997056Y24605834D01*
X64995044Y24610011D01*
X64995043Y24610015D01*
X64995039Y24610022D01*
X64900708Y24760150D01*
X64881402Y24828471D01*
X64902098Y24896385D01*
X64918295Y24916276D01*
X66067114Y26065094D01*
X66129426Y26099120D01*
X66156209Y26101999D01*
X69570358Y26101999D01*
X69697578Y26127305D01*
X69817418Y26176944D01*
X69925270Y26249008D01*
X70200421Y26524161D01*
X70262731Y26558184D01*
X70275408Y26560272D01*
X70296839Y26562686D01*
X70468807Y26622860D01*
X70623073Y26719792D01*
X70751903Y26848622D01*
X70848835Y27002888D01*
X70909009Y27174856D01*
X70927495Y27338928D01*
X70954997Y27404377D01*
X71013521Y27444570D01*
X71084485Y27446743D01*
X71119738Y27431504D01*
X71274981Y27333959D01*
X71274982Y27333959D01*
X71274985Y27333957D01*
X71446953Y27273783D01*
X71628000Y27253384D01*
X71809047Y27273783D01*
X71981015Y27333957D01*
X72135281Y27430889D01*
X72264111Y27559719D01*
X72361043Y27713985D01*
X72421217Y27885953D01*
X72441616Y28067000D01*
X72421217Y28248047D01*
X72361043Y28420015D01*
X72361041Y28420018D01*
X72361041Y28420019D01*
X72264112Y28574280D01*
X72264111Y28574282D01*
X72135281Y28703112D01*
X72135279Y28703113D01*
X71981018Y28800042D01*
X71981015Y28800043D01*
X71809049Y28860217D01*
X71809043Y28860218D01*
X71804389Y28860742D01*
X71738937Y28888247D01*
X71729405Y28896854D01*
X70805028Y29821231D01*
X69873769Y30752491D01*
X69765917Y30824555D01*
X69646080Y30874193D01*
X69646077Y30874194D01*
X69518860Y30899500D01*
X69518857Y30899500D01*
X69261031Y30899500D01*
X69192910Y30919502D01*
X69146417Y30973158D01*
X69136313Y31043432D01*
X69154344Y31092537D01*
X69186043Y31142985D01*
X69246217Y31314953D01*
X69266616Y31496000D01*
X69246217Y31677047D01*
X69186043Y31849015D01*
X69186041Y31849018D01*
X69186041Y31849019D01*
X69089112Y32003280D01*
X69089111Y32003282D01*
X68960281Y32132112D01*
X68960279Y32132113D01*
X68806018Y32229042D01*
X68806015Y32229043D01*
X68634050Y32289216D01*
X68634049Y32289217D01*
X68634047Y32289217D01*
X68453000Y32309616D01*
X68271953Y32289217D01*
X68271950Y32289217D01*
X68271949Y32289216D01*
X68099985Y32229044D01*
X68038057Y32190132D01*
X68012086Y32173813D01*
X67945051Y32154500D01*
X67880136Y32154500D01*
X67859036Y32150303D01*
X67859036Y32150302D01*
X67823337Y32143202D01*
X67752916Y32129194D01*
X67633087Y32079558D01*
X67633083Y32079556D01*
X67525232Y32007492D01*
X67525226Y32007487D01*
X67074145Y31556405D01*
X67011833Y31522379D01*
X66985050Y31519500D01*
X41424950Y31519500D01*
X41356829Y31539502D01*
X41335855Y31556405D01*
X39281773Y33610487D01*
X39281769Y33610491D01*
X39173917Y33682555D01*
X39054080Y33732193D01*
X39054072Y33732196D01*
X39030915Y33736802D01*
X38968007Y33769711D01*
X38932876Y33831407D01*
X38929500Y33860380D01*
X38929500Y33897633D01*
X38929499Y33897650D01*
X38922990Y33958197D01*
X38922988Y33958205D01*
X38871889Y34095203D01*
X38871887Y34095208D01*
X38779223Y34218991D01*
X38754412Y34285511D01*
X38769503Y34354885D01*
X38819705Y34405087D01*
X38880091Y34420500D01*
X38936706Y34420500D01*
X39022180Y34437502D01*
X39083247Y34449649D01*
X39221284Y34506826D01*
X39345515Y34589834D01*
X42730725Y37975044D01*
X42793037Y38009070D01*
X42863852Y38004005D01*
X42920688Y37961458D01*
X42945499Y37894938D01*
X42945820Y37885949D01*
X42945820Y36039671D01*
X42952329Y35979124D01*
X42952331Y35979116D01*
X43003430Y35842118D01*
X43003432Y35842113D01*
X43091058Y35725059D01*
X43208112Y35637433D01*
X43208114Y35637432D01*
X43208116Y35637431D01*
X43255965Y35619584D01*
X43345115Y35586332D01*
X43345123Y35586330D01*
X43405670Y35579821D01*
X43405675Y35579821D01*
X43405682Y35579820D01*
X43405688Y35579820D01*
X46002312Y35579820D01*
X46002318Y35579820D01*
X46002325Y35579821D01*
X46002329Y35579821D01*
X46062876Y35586330D01*
X46062879Y35586331D01*
X46062881Y35586331D01*
X46199884Y35637431D01*
X46279144Y35696764D01*
X46316941Y35725059D01*
X46404567Y35842113D01*
X46404567Y35842114D01*
X46404569Y35842116D01*
X46455669Y35979119D01*
X46462180Y36039682D01*
X46462180Y38636318D01*
X46462179Y38636330D01*
X46455670Y38696877D01*
X46455668Y38696885D01*
X46404569Y38833883D01*
X46404567Y38833888D01*
X46316941Y38950942D01*
X46225182Y39019632D01*
X46182635Y39076468D01*
X46177571Y39147284D01*
X46211596Y39209596D01*
X46273908Y39243621D01*
X46300691Y39246500D01*
X49170366Y39246500D01*
X49238487Y39226498D01*
X49284980Y39172842D01*
X49295084Y39102568D01*
X49265590Y39037988D01*
X49207505Y39000098D01*
X49139872Y38979237D01*
X49139859Y38979232D01*
X48902442Y38864897D01*
X48902435Y38864893D01*
X48684725Y38716460D01*
X48684720Y38716456D01*
X48491550Y38537220D01*
X48327247Y38331192D01*
X48195491Y38102983D01*
X48195489Y38102979D01*
X48099219Y37857683D01*
X48040582Y37600782D01*
X48020890Y37338000D01*
X48040582Y37075219D01*
X48073953Y36929015D01*
X48099220Y36818314D01*
X48123264Y36757051D01*
X48195489Y36573022D01*
X48195491Y36573018D01*
X48327247Y36344809D01*
X48327249Y36344806D01*
X48327250Y36344805D01*
X48491549Y36138781D01*
X48684719Y35959545D01*
X48684725Y35959541D01*
X48902435Y35811108D01*
X48902442Y35811104D01*
X48902445Y35811102D01*
X48991611Y35768162D01*
X49139859Y35696769D01*
X49139872Y35696764D01*
X49391660Y35619098D01*
X49391662Y35619098D01*
X49391671Y35619095D01*
X49652243Y35579820D01*
X49652248Y35579820D01*
X49915752Y35579820D01*
X49915757Y35579820D01*
X50176329Y35619095D01*
X50176339Y35619098D01*
X50428127Y35696764D01*
X50428129Y35696766D01*
X50428136Y35696767D01*
X50665555Y35811102D01*
X50666195Y35811538D01*
X50800246Y35902933D01*
X50883281Y35959545D01*
X51076451Y36138781D01*
X51240750Y36344805D01*
X51372507Y36573015D01*
X51468780Y36818314D01*
X51527418Y37075222D01*
X51547110Y37338000D01*
X51527418Y37600778D01*
X51468780Y37857686D01*
X51372591Y38102772D01*
X51372510Y38102979D01*
X51372508Y38102983D01*
X51362531Y38120263D01*
X51251422Y38312711D01*
X51240752Y38331192D01*
X51240750Y38331195D01*
X51076451Y38537219D01*
X50883281Y38716455D01*
X50883274Y38716460D01*
X50665564Y38864893D01*
X50665557Y38864897D01*
X50428140Y38979232D01*
X50428127Y38979237D01*
X50360495Y39000098D01*
X50301296Y39039290D01*
X50272684Y39104266D01*
X50283743Y39174396D01*
X50330961Y39227414D01*
X50397634Y39246500D01*
X54252065Y39246500D01*
X54320186Y39226498D01*
X54366679Y39172842D01*
X54376783Y39102568D01*
X54347289Y39037988D01*
X54289205Y39000098D01*
X54220038Y38978763D01*
X53982701Y38864468D01*
X53982693Y38864463D01*
X53812668Y38748543D01*
X53812668Y38748541D01*
X54738740Y37822469D01*
X54670860Y37804280D01*
X54556759Y37738404D01*
X54463596Y37645241D01*
X54397720Y37531140D01*
X54379531Y37463260D01*
X53453900Y38388891D01*
X53453898Y38388891D01*
X53407661Y38330910D01*
X53275945Y38102772D01*
X53275942Y38102764D01*
X53179700Y37857542D01*
X53179699Y37857540D01*
X53121078Y37600707D01*
X53101391Y37338000D01*
X53121078Y37075294D01*
X53179699Y36818461D01*
X53179700Y36818459D01*
X53275942Y36573237D01*
X53275945Y36573229D01*
X53407661Y36345091D01*
X53453899Y36287111D01*
X53453900Y36287111D01*
X54379531Y37212742D01*
X54397720Y37144860D01*
X54463596Y37030759D01*
X54556759Y36937596D01*
X54670860Y36871720D01*
X54738740Y36853532D01*
X53812668Y35927461D01*
X53812668Y35927459D01*
X53982693Y35811538D01*
X53982701Y35811533D01*
X54220038Y35697238D01*
X54471776Y35619585D01*
X54471784Y35619584D01*
X54732284Y35580320D01*
X54995716Y35580320D01*
X55256215Y35619584D01*
X55256223Y35619585D01*
X55507961Y35697238D01*
X55745299Y35811533D01*
X55745300Y35811534D01*
X55915331Y35927460D01*
X54989259Y36853532D01*
X55057140Y36871720D01*
X55171241Y36937596D01*
X55264404Y37030759D01*
X55330280Y37144860D01*
X55348468Y37212741D01*
X56274099Y36287110D01*
X56274100Y36287111D01*
X56320333Y36345083D01*
X56320338Y36345091D01*
X56452054Y36573229D01*
X56452057Y36573237D01*
X56548299Y36818459D01*
X56548300Y36818461D01*
X56606921Y37075294D01*
X56626608Y37338000D01*
X56606921Y37600707D01*
X56548300Y37857540D01*
X56548299Y37857542D01*
X56452057Y38102764D01*
X56452054Y38102772D01*
X56320338Y38330910D01*
X56320333Y38330918D01*
X56274100Y38388891D01*
X56274098Y38388891D01*
X55348468Y37463261D01*
X55330280Y37531140D01*
X55264404Y37645241D01*
X55171241Y37738404D01*
X55057140Y37804280D01*
X54989259Y37822469D01*
X55915330Y38748541D01*
X55915330Y38748543D01*
X55745307Y38864463D01*
X55745299Y38864468D01*
X55507961Y38978763D01*
X55438795Y39000098D01*
X55379597Y39039291D01*
X55350985Y39104267D01*
X55362044Y39174397D01*
X55409262Y39227415D01*
X55475935Y39246500D01*
X58347309Y39246500D01*
X58415430Y39226498D01*
X58461923Y39172842D01*
X58472027Y39102568D01*
X58442533Y39037988D01*
X58422818Y39019632D01*
X58331058Y38950942D01*
X58243432Y38833888D01*
X58243430Y38833883D01*
X58192331Y38696885D01*
X58192329Y38696877D01*
X58185820Y38636330D01*
X58185820Y36039671D01*
X58192329Y35979124D01*
X58192331Y35979116D01*
X58243430Y35842118D01*
X58243432Y35842113D01*
X58331058Y35725059D01*
X58448112Y35637433D01*
X58448114Y35637432D01*
X58448116Y35637431D01*
X58495965Y35619584D01*
X58585115Y35586332D01*
X58585123Y35586330D01*
X58645670Y35579821D01*
X58645675Y35579821D01*
X58645682Y35579820D01*
X58645688Y35579820D01*
X61242312Y35579820D01*
X61242318Y35579820D01*
X61242325Y35579821D01*
X61242329Y35579821D01*
X61302876Y35586330D01*
X61302879Y35586331D01*
X61302881Y35586331D01*
X61439884Y35637431D01*
X61519144Y35696764D01*
X61556941Y35725059D01*
X61644567Y35842113D01*
X61644567Y35842114D01*
X61644569Y35842116D01*
X61695669Y35979119D01*
X61702180Y36039682D01*
X61702180Y37338000D01*
X63260890Y37338000D01*
X63280582Y37075219D01*
X63313953Y36929015D01*
X63339220Y36818314D01*
X63363264Y36757051D01*
X63435489Y36573022D01*
X63435491Y36573018D01*
X63567247Y36344809D01*
X63567249Y36344806D01*
X63567250Y36344805D01*
X63731549Y36138781D01*
X63924719Y35959545D01*
X63924725Y35959541D01*
X64142435Y35811108D01*
X64142442Y35811104D01*
X64142445Y35811102D01*
X64231611Y35768162D01*
X64379859Y35696769D01*
X64379872Y35696764D01*
X64631660Y35619098D01*
X64631662Y35619098D01*
X64631671Y35619095D01*
X64892243Y35579820D01*
X64892248Y35579820D01*
X65155752Y35579820D01*
X65155757Y35579820D01*
X65416329Y35619095D01*
X65416339Y35619098D01*
X65668127Y35696764D01*
X65668129Y35696766D01*
X65668136Y35696767D01*
X65905555Y35811102D01*
X65906195Y35811538D01*
X66040246Y35902933D01*
X66123281Y35959545D01*
X66316451Y36138781D01*
X66480750Y36344805D01*
X66612507Y36573015D01*
X66708780Y36818314D01*
X66767418Y37075222D01*
X66787110Y37338000D01*
X68341391Y37338000D01*
X68361078Y37075294D01*
X68419699Y36818461D01*
X68419700Y36818459D01*
X68515942Y36573237D01*
X68515945Y36573229D01*
X68647661Y36345091D01*
X68693899Y36287111D01*
X68693900Y36287111D01*
X69619531Y37212742D01*
X69637720Y37144860D01*
X69703596Y37030759D01*
X69796759Y36937596D01*
X69910860Y36871720D01*
X69978740Y36853532D01*
X69052668Y35927461D01*
X69052668Y35927459D01*
X69222693Y35811538D01*
X69222701Y35811533D01*
X69460038Y35697238D01*
X69711776Y35619585D01*
X69711784Y35619584D01*
X69972284Y35580320D01*
X70235716Y35580320D01*
X70496215Y35619584D01*
X70496223Y35619585D01*
X70747961Y35697238D01*
X70985299Y35811533D01*
X70985300Y35811534D01*
X71155331Y35927460D01*
X70229259Y36853532D01*
X70297140Y36871720D01*
X70411241Y36937596D01*
X70504404Y37030759D01*
X70570280Y37144860D01*
X70588468Y37212741D01*
X71514099Y36287110D01*
X71514100Y36287111D01*
X71560333Y36345083D01*
X71560338Y36345091D01*
X71692054Y36573229D01*
X71692057Y36573237D01*
X71788299Y36818459D01*
X71788300Y36818461D01*
X71846921Y37075294D01*
X71866608Y37338000D01*
X71846921Y37600707D01*
X71788300Y37857540D01*
X71788299Y37857542D01*
X71692057Y38102764D01*
X71692054Y38102772D01*
X71560338Y38330910D01*
X71560333Y38330918D01*
X71514100Y38388891D01*
X71514098Y38388891D01*
X70588468Y37463261D01*
X70570280Y37531140D01*
X70504404Y37645241D01*
X70411241Y37738404D01*
X70297140Y37804280D01*
X70229259Y37822469D01*
X71155330Y38748541D01*
X71155330Y38748543D01*
X70985307Y38864463D01*
X70985299Y38864468D01*
X70747961Y38978763D01*
X70496223Y39056416D01*
X70496215Y39056417D01*
X70235716Y39095680D01*
X69972284Y39095680D01*
X69711784Y39056417D01*
X69711776Y39056416D01*
X69460038Y38978763D01*
X69222701Y38864468D01*
X69222693Y38864463D01*
X69052668Y38748543D01*
X69052668Y38748541D01*
X69978740Y37822469D01*
X69910860Y37804280D01*
X69796759Y37738404D01*
X69703596Y37645241D01*
X69637720Y37531140D01*
X69619531Y37463260D01*
X68693900Y38388891D01*
X68693898Y38388891D01*
X68647661Y38330910D01*
X68515945Y38102772D01*
X68515942Y38102764D01*
X68419700Y37857542D01*
X68419699Y37857540D01*
X68361078Y37600707D01*
X68341391Y37338000D01*
X66787110Y37338000D01*
X66767418Y37600778D01*
X66708780Y37857686D01*
X66612591Y38102772D01*
X66612510Y38102979D01*
X66612508Y38102983D01*
X66602531Y38120263D01*
X66491422Y38312711D01*
X66480752Y38331192D01*
X66480750Y38331195D01*
X66316451Y38537219D01*
X66123281Y38716455D01*
X66123274Y38716460D01*
X65905564Y38864893D01*
X65905557Y38864897D01*
X65668140Y38979232D01*
X65668127Y38979237D01*
X65416339Y39056903D01*
X65416331Y39056905D01*
X65416329Y39056905D01*
X65155757Y39096180D01*
X64892243Y39096180D01*
X64631671Y39056905D01*
X64631669Y39056905D01*
X64631660Y39056903D01*
X64379872Y38979237D01*
X64379859Y38979232D01*
X64142442Y38864897D01*
X64142435Y38864893D01*
X63924725Y38716460D01*
X63924720Y38716456D01*
X63731550Y38537220D01*
X63567247Y38331192D01*
X63435491Y38102983D01*
X63435489Y38102979D01*
X63339219Y37857683D01*
X63280582Y37600782D01*
X63260890Y37338000D01*
X61702180Y37338000D01*
X61702180Y38636318D01*
X61702179Y38636330D01*
X61695670Y38696877D01*
X61695668Y38696885D01*
X61644569Y38833883D01*
X61644567Y38833888D01*
X61556941Y38950942D01*
X61439887Y39038568D01*
X61439882Y39038570D01*
X61302884Y39089669D01*
X61302876Y39089671D01*
X61242329Y39096180D01*
X61242318Y39096180D01*
X60824708Y39096180D01*
X60756587Y39116182D01*
X60710094Y39169838D01*
X60701129Y39197598D01*
X60691974Y39243621D01*
X60673351Y39337246D01*
X60662148Y39364291D01*
X74476500Y39364291D01*
X74476500Y39121710D01*
X74508160Y38881218D01*
X74570944Y38646905D01*
X74570945Y38646903D01*
X74570946Y38646900D01*
X74663776Y38422788D01*
X74663777Y38422787D01*
X74663782Y38422776D01*
X74785061Y38212715D01*
X74785063Y38212712D01*
X74785064Y38212711D01*
X74932735Y38020262D01*
X74932739Y38020258D01*
X74932744Y38020252D01*
X75104251Y37848745D01*
X75104256Y37848741D01*
X75104262Y37848735D01*
X75296711Y37701064D01*
X75296714Y37701062D01*
X75506775Y37579783D01*
X75506779Y37579782D01*
X75506788Y37579776D01*
X75730900Y37486946D01*
X75965211Y37424162D01*
X75965215Y37424162D01*
X75965217Y37424161D01*
X76027202Y37416001D01*
X76205712Y37392500D01*
X76205719Y37392500D01*
X76448281Y37392500D01*
X76448288Y37392500D01*
X76665637Y37421115D01*
X76688782Y37424161D01*
X76688782Y37424162D01*
X76688789Y37424162D01*
X76923100Y37486946D01*
X77147212Y37579776D01*
X77357289Y37701064D01*
X77549738Y37848735D01*
X77721265Y38020262D01*
X77868936Y38212711D01*
X77990224Y38422788D01*
X78083054Y38646900D01*
X78145838Y38881211D01*
X78177500Y39121712D01*
X78177500Y39364288D01*
X78153999Y39542798D01*
X78145839Y39604783D01*
X78145838Y39604785D01*
X78145838Y39604789D01*
X78083054Y39839100D01*
X77990224Y40063212D01*
X77990218Y40063221D01*
X77990217Y40063225D01*
X77868938Y40273286D01*
X77868936Y40273289D01*
X77721265Y40465738D01*
X77721259Y40465744D01*
X77721255Y40465749D01*
X77549748Y40637256D01*
X77549742Y40637261D01*
X77549738Y40637265D01*
X77357289Y40784936D01*
X77357288Y40784937D01*
X77357285Y40784939D01*
X77147224Y40906218D01*
X77147216Y40906222D01*
X77147212Y40906224D01*
X76923100Y40999054D01*
X76923097Y40999055D01*
X76923095Y40999056D01*
X76688782Y41061840D01*
X76448290Y41093500D01*
X76448288Y41093500D01*
X76205712Y41093500D01*
X76205709Y41093500D01*
X75965217Y41061840D01*
X75730904Y40999056D01*
X75730900Y40999054D01*
X75506786Y40906223D01*
X75506775Y40906218D01*
X75296714Y40784939D01*
X75104262Y40637265D01*
X75104251Y40637256D01*
X74932744Y40465749D01*
X74932735Y40465738D01*
X74785061Y40273286D01*
X74663782Y40063225D01*
X74663777Y40063214D01*
X74570946Y39839100D01*
X74570944Y39839096D01*
X74508160Y39604783D01*
X74476500Y39364291D01*
X60662148Y39364291D01*
X60657856Y39374653D01*
X60640809Y39415810D01*
X60640797Y39415837D01*
X60628461Y39445619D01*
X60616174Y39475284D01*
X60533166Y39599515D01*
X59538515Y40594166D01*
X59414284Y40677174D01*
X59276247Y40734351D01*
X59202976Y40748926D01*
X59202975Y40748927D01*
X59129711Y40763500D01*
X59129706Y40763500D01*
X44524706Y40763500D01*
X43613294Y40763500D01*
X43613290Y40763500D01*
X43466753Y40734351D01*
X43466750Y40734350D01*
X43328716Y40677174D01*
X43204486Y40594167D01*
X43204480Y40594162D01*
X38584724Y35974405D01*
X38522412Y35940379D01*
X38495629Y35937500D01*
X37366288Y35937500D01*
X37221381Y35908675D01*
X37220824Y35908565D01*
X37219750Y35908351D01*
X37081714Y35851174D01*
X36957484Y35768167D01*
X36957478Y35768162D01*
X35351838Y34162522D01*
X35351833Y34162516D01*
X35268828Y34038290D01*
X35268826Y34038288D01*
X35268826Y34038286D01*
X35228205Y33940217D01*
X35228204Y33940218D01*
X35211650Y33900253D01*
X35211649Y33900248D01*
X35182500Y33753712D01*
X35182500Y29389293D01*
X35192681Y29338112D01*
X35211649Y29242753D01*
X35268826Y29104716D01*
X35351834Y28980485D01*
X35822485Y28509834D01*
X35946716Y28426826D01*
X36084753Y28369649D01*
X36158022Y28355076D01*
X36158023Y28355075D01*
X36172391Y28352217D01*
X36231294Y28340500D01*
X36231295Y28340500D01*
X36380705Y28340500D01*
X36600172Y28340500D01*
X36668293Y28320498D01*
X36699224Y28290768D01*
X36699713Y28291178D01*
X36703254Y28286958D01*
X36858957Y28131255D01*
X36858961Y28131252D01*
X36858962Y28131251D01*
X37039346Y28004944D01*
X37178328Y27940136D01*
X37214172Y27915037D01*
X37630209Y27499000D01*
X37618339Y27499000D01*
X37516606Y27471741D01*
X37425394Y27419080D01*
X37350920Y27344606D01*
X37298259Y27253394D01*
X37271000Y27151661D01*
X37271000Y27139791D01*
X36619801Y27790990D01*
X36577378Y27730402D01*
X36484352Y27530908D01*
X36484350Y27530904D01*
X36427380Y27318288D01*
X36408195Y27099000D01*
X36427380Y26879713D01*
X36484350Y26667097D01*
X36484352Y26667093D01*
X36577379Y26467597D01*
X36619800Y26407013D01*
X37271000Y27058212D01*
X37271000Y27046339D01*
X37298259Y26944606D01*
X37350920Y26853394D01*
X37425394Y26778920D01*
X37516606Y26726259D01*
X37618339Y26699000D01*
X37630210Y26699000D01*
X36979011Y26047803D01*
X36979011Y26047802D01*
X37039597Y26005379D01*
X37239092Y25912353D01*
X37239096Y25912351D01*
X37451712Y25855381D01*
X37671000Y25836196D01*
X37890287Y25855381D01*
X38102903Y25912351D01*
X38102907Y25912353D01*
X38302399Y26005378D01*
X38362987Y26047803D01*
X38362987Y26047804D01*
X37711791Y26699000D01*
X37723661Y26699000D01*
X37825394Y26726259D01*
X37916606Y26778920D01*
X37991080Y26853394D01*
X38043741Y26944606D01*
X38071000Y27046339D01*
X38071000Y27058209D01*
X38722196Y26407013D01*
X38722197Y26407013D01*
X38764622Y26467601D01*
X38857647Y26667093D01*
X38857649Y26667097D01*
X38914619Y26879713D01*
X38933804Y27099000D01*
X38914619Y27318288D01*
X38857649Y27530904D01*
X38857647Y27530908D01*
X38764619Y27730406D01*
X38722199Y27790989D01*
X38722197Y27790989D01*
X38071000Y27139792D01*
X38071000Y27151661D01*
X38043741Y27253394D01*
X37991080Y27344606D01*
X37916606Y27419080D01*
X37825394Y27471741D01*
X37723661Y27499000D01*
X37711790Y27499000D01*
X38127826Y27915038D01*
X38163667Y27940134D01*
X38302654Y28004944D01*
X38483038Y28131251D01*
X38638749Y28286962D01*
X38638752Y28286967D01*
X38642287Y28291178D01*
X38643186Y28290423D01*
X38694065Y28331096D01*
X38741828Y28340500D01*
X39114629Y28340500D01*
X39182750Y28320498D01*
X39203724Y28303595D01*
X42321095Y25186224D01*
X42355121Y25123912D01*
X42358000Y25097129D01*
X42358000Y17394500D01*
X42337998Y17326379D01*
X42284342Y17279886D01*
X42232000Y17268500D01*
X38576036Y17268500D01*
X38507915Y17288502D01*
X38468604Y17328664D01*
X38389181Y17458270D01*
X38389178Y17458274D01*
X38224770Y17650771D01*
X38045695Y17803715D01*
X38006885Y17863165D01*
X38006378Y17934160D01*
X38031714Y17981357D01*
X38134776Y18102027D01*
X38267008Y18317810D01*
X38363856Y18551622D01*
X38422935Y18797705D01*
X38442791Y19050000D01*
X38422935Y19302296D01*
X38363856Y19548379D01*
X38267008Y19782191D01*
X38214838Y19867325D01*
X38196300Y19935859D01*
X38217757Y20003536D01*
X38272396Y20048869D01*
X38278239Y20051216D01*
X38380255Y20089266D01*
X38497194Y20176806D01*
X38584734Y20293745D01*
X38584734Y20293746D01*
X38635784Y20430617D01*
X38642289Y20491113D01*
X38642290Y20491125D01*
X38642290Y21336000D01*
X37514703Y21336000D01*
X37549925Y21397007D01*
X37584000Y21524174D01*
X37584000Y21655826D01*
X37549925Y21782993D01*
X37514703Y21844000D01*
X38642290Y21844000D01*
X38642290Y22688876D01*
X38642289Y22688888D01*
X38635784Y22749384D01*
X38584734Y22886255D01*
X38584734Y22886256D01*
X38497194Y23003195D01*
X38380255Y23090735D01*
X38243383Y23141785D01*
X38182887Y23148290D01*
X37338000Y23148290D01*
X37338000Y22020703D01*
X37276993Y22055925D01*
X37149826Y22090000D01*
X37018174Y22090000D01*
X36891007Y22055925D01*
X36830000Y22020703D01*
X36830000Y23148290D01*
X35985112Y23148290D01*
X35924616Y23141785D01*
X35787745Y23090735D01*
X35787744Y23090735D01*
X35670805Y23003195D01*
X35583265Y22886256D01*
X35583265Y22886255D01*
X35532215Y22749384D01*
X35525710Y22688888D01*
X35525710Y21844000D01*
X36653297Y21844000D01*
X36618075Y21782993D01*
X36584000Y21655826D01*
X36584000Y21524174D01*
X36618075Y21397007D01*
X36653297Y21336000D01*
X35525710Y21336000D01*
X35525710Y20491113D01*
X35532215Y20430617D01*
X35583265Y20293746D01*
X35583265Y20293745D01*
X35613740Y20253036D01*
X35638551Y20186516D01*
X35623460Y20117142D01*
X35608684Y20095698D01*
X35525229Y19997984D01*
X35525227Y19997980D01*
X35392991Y19782191D01*
X35296143Y19548379D01*
X35237064Y19302296D01*
X35217208Y19050000D01*
X35237064Y18797705D01*
X35296143Y18551622D01*
X35392991Y18317810D01*
X35524308Y18103520D01*
X35524309Y18103520D01*
X36345841Y18925053D01*
X36364075Y18857007D01*
X36429901Y18742993D01*
X36522993Y18649901D01*
X36637007Y18584075D01*
X36705050Y18565843D01*
X35883518Y17744311D01*
X35885808Y17724961D01*
X35896999Y17712592D01*
X35908609Y17642551D01*
X35880508Y17577353D01*
X35879346Y17575973D01*
X35778821Y17458274D01*
X35778820Y17458272D01*
X35646544Y17242419D01*
X35549666Y17008534D01*
X35500892Y16805374D01*
X35490569Y16762375D01*
X35470707Y16510000D01*
X35490569Y16257625D01*
X35495972Y16235120D01*
X35549666Y16011467D01*
X35597163Y15896800D01*
X35646545Y15777580D01*
X35778819Y15561730D01*
X35881905Y15441032D01*
X35910936Y15376243D01*
X35900331Y15306043D01*
X35867925Y15263391D01*
X35689227Y15110768D01*
X35524821Y14918274D01*
X35524820Y14918272D01*
X35392544Y14702419D01*
X35295666Y14468534D01*
X35243912Y14252959D01*
X35236569Y14222375D01*
X35216707Y13970000D01*
X35236569Y13717625D01*
X35255239Y13639858D01*
X35295666Y13471467D01*
X35381194Y13264985D01*
X35392545Y13237580D01*
X35488057Y13081719D01*
X35524820Y13021729D01*
X35524821Y13021727D01*
X35689226Y12829233D01*
X35734784Y12790323D01*
X35840538Y12700000D01*
X35867925Y12676610D01*
X35906734Y12617159D01*
X35907240Y12546165D01*
X35881905Y12498969D01*
X35778821Y12378274D01*
X35778820Y12378272D01*
X35646544Y12162419D01*
X35549666Y11928534D01*
X35493295Y11693729D01*
X35490569Y11682375D01*
X35470707Y11430000D01*
X35475882Y11364238D01*
X35490569Y11177626D01*
X35549666Y10931467D01*
X35558015Y10911312D01*
X35646545Y10697580D01*
X35778819Y10481730D01*
X35881905Y10361032D01*
X35910936Y10296243D01*
X35900331Y10226043D01*
X35867925Y10183391D01*
X35689227Y10030768D01*
X35524821Y9838274D01*
X35524820Y9838272D01*
X35392544Y9622419D01*
X35295666Y9388534D01*
X35236570Y9142379D01*
X35236569Y9142375D01*
X35216707Y8890000D01*
X35236536Y8638038D01*
X35236569Y8637626D01*
X35295666Y8391467D01*
X35375496Y8198741D01*
X35392545Y8157580D01*
X35524454Y7942325D01*
X35524820Y7941729D01*
X35524821Y7941727D01*
X35689229Y7749230D01*
X35881726Y7584822D01*
X35881730Y7584819D01*
X36097580Y7452545D01*
X36331465Y7355667D01*
X36577625Y7296569D01*
X36830000Y7276707D01*
X37082375Y7296569D01*
X37328535Y7355667D01*
X37562420Y7452545D01*
X37778270Y7584819D01*
X37970770Y7749230D01*
X38135181Y7941730D01*
X38135181Y7941731D01*
X38135689Y7942325D01*
X38195139Y7981135D01*
X38266134Y7981642D01*
X38326133Y7943685D01*
X38356086Y7879317D01*
X38357500Y7860495D01*
X38357500Y7291293D01*
X38376784Y7194346D01*
X38386649Y7144753D01*
X38443826Y7006716D01*
X38526834Y6882485D01*
X40283485Y5125834D01*
X40407716Y5042826D01*
X40545754Y4985649D01*
X40692294Y4956500D01*
X40692295Y4956500D01*
X40841705Y4956500D01*
X47879500Y4956500D01*
X47947621Y4936498D01*
X47994114Y4882842D01*
X48005500Y4830500D01*
X48005500Y4650351D01*
X48012009Y4589804D01*
X48012011Y4589796D01*
X48063110Y4452798D01*
X48063112Y4452793D01*
X48150738Y4335739D01*
X48267792Y4248113D01*
X48267794Y4248112D01*
X48267796Y4248111D01*
X48325557Y4226567D01*
X48404795Y4197012D01*
X48404803Y4197010D01*
X48465350Y4190501D01*
X48465355Y4190501D01*
X48465362Y4190500D01*
X48465368Y4190500D01*
X50594632Y4190500D01*
X50594638Y4190500D01*
X50594645Y4190501D01*
X50594649Y4190501D01*
X50655196Y4197010D01*
X50655199Y4197011D01*
X50655201Y4197011D01*
X50792204Y4248111D01*
X50909261Y4335739D01*
X50996889Y4452796D01*
X51047989Y4589799D01*
X51054500Y4650362D01*
X51054500Y6369629D01*
X51074502Y6437750D01*
X51128158Y6484243D01*
X51198432Y6494347D01*
X51263012Y6464853D01*
X51269595Y6458724D01*
X52602485Y5125834D01*
X52726716Y5042826D01*
X52864753Y4985649D01*
X52938022Y4971076D01*
X52938023Y4971075D01*
X52952598Y4968176D01*
X53011294Y4956500D01*
X53011295Y4956500D01*
X53160705Y4956500D01*
X53216270Y4956500D01*
X53284391Y4936498D01*
X53323702Y4896335D01*
X53372834Y4816159D01*
X53372836Y4816157D01*
X53372840Y4816151D01*
X53528682Y4633682D01*
X53711151Y4477840D01*
X53915751Y4352460D01*
X54137447Y4260631D01*
X54370778Y4204613D01*
X54610000Y4185786D01*
X54849222Y4204613D01*
X55082553Y4260631D01*
X55304249Y4352460D01*
X55508849Y4477840D01*
X55691318Y4633682D01*
X55847160Y4816151D01*
X55972540Y5020751D01*
X56030200Y5159958D01*
X56057509Y5200830D01*
X56739166Y5882485D01*
X56822174Y6006715D01*
X56879351Y6144753D01*
X56908500Y6291295D01*
X56908500Y6440705D01*
X56908500Y6755173D01*
X56928502Y6823294D01*
X56958238Y6854230D01*
X56957828Y6854719D01*
X56962029Y6858246D01*
X56962038Y6858251D01*
X57010319Y6906532D01*
X57060905Y6957117D01*
X57123217Y6991143D01*
X57194032Y6986078D01*
X57239095Y6957117D01*
X57337954Y6858258D01*
X57342172Y6854719D01*
X57341416Y6853819D01*
X57382094Y6802942D01*
X57391500Y6755173D01*
X57391500Y6291293D01*
X57413383Y6181280D01*
X57420649Y6144753D01*
X57477826Y6006716D01*
X57560834Y5882485D01*
X57560838Y5882481D01*
X58242485Y5200834D01*
X58269799Y5159957D01*
X58327460Y5020751D01*
X58452840Y4816151D01*
X58608682Y4633682D01*
X58791151Y4477840D01*
X58995751Y4352460D01*
X59217447Y4260631D01*
X59450778Y4204613D01*
X59690000Y4185786D01*
X59929222Y4204613D01*
X60020665Y4226567D01*
X60091573Y4223021D01*
X60139175Y4193144D01*
X61111485Y3220834D01*
X61235716Y3137826D01*
X61373753Y3080649D01*
X61447022Y3066076D01*
X61447023Y3066075D01*
X61461598Y3063176D01*
X61520294Y3051500D01*
X61520295Y3051500D01*
X61520299Y3051500D01*
X74496701Y3051500D01*
X74496705Y3051500D01*
X74496706Y3051500D01*
X74569976Y3066075D01*
X74643247Y3080649D01*
X74781284Y3137826D01*
X74905515Y3220834D01*
X79213140Y7528462D01*
X79213145Y7528465D01*
X79223514Y7538835D01*
X79223516Y7538835D01*
X79329165Y7644484D01*
X79412174Y7768716D01*
X79453043Y7867383D01*
X79497590Y7922663D01*
X79564953Y7945084D01*
X79633744Y7927526D01*
X79682123Y7875564D01*
X79695451Y7819003D01*
X79686934Y1142293D01*
X79686922Y1140686D01*
X79684420Y962367D01*
X79683640Y950027D01*
X79643631Y594958D01*
X79641264Y581028D01*
X79561949Y233537D01*
X79558037Y219959D01*
X79440315Y-116463D01*
X79434908Y-129517D01*
X79280256Y-450652D01*
X79273421Y-463019D01*
X79083793Y-764807D01*
X79075617Y-776330D01*
X78853379Y-1055008D01*
X78843963Y-1065543D01*
X78591943Y-1317563D01*
X78581408Y-1326979D01*
X78302730Y-1549217D01*
X78291207Y-1557393D01*
X77989419Y-1747021D01*
X77977052Y-1753856D01*
X77655917Y-1908508D01*
X77642863Y-1913915D01*
X77306441Y-2031637D01*
X77292863Y-2035549D01*
X76945372Y-2114864D01*
X76931442Y-2117231D01*
X76576373Y-2157240D01*
X76564032Y-2158020D01*
X76385807Y-2160520D01*
X76384004Y-2160532D01*
X69803364Y-2158636D01*
X69735249Y-2138614D01*
X69688771Y-2084945D01*
X69677400Y-2032636D01*
X69677400Y1364291D01*
X74476500Y1364291D01*
X74476500Y1121710D01*
X74508160Y881218D01*
X74570944Y646905D01*
X74570945Y646903D01*
X74570946Y646900D01*
X74663776Y422788D01*
X74663777Y422787D01*
X74663782Y422776D01*
X74785061Y212715D01*
X74785063Y212712D01*
X74785064Y212711D01*
X74932735Y20262D01*
X74932739Y20258D01*
X74932744Y20252D01*
X75104251Y-151255D01*
X75104256Y-151259D01*
X75104262Y-151265D01*
X75296711Y-298936D01*
X75296714Y-298938D01*
X75506775Y-420217D01*
X75506779Y-420218D01*
X75506788Y-420224D01*
X75730900Y-513054D01*
X75965211Y-575838D01*
X75965215Y-575838D01*
X75965217Y-575839D01*
X76027202Y-583999D01*
X76205712Y-607500D01*
X76205719Y-607500D01*
X76448281Y-607500D01*
X76448288Y-607500D01*
X76665637Y-578885D01*
X76688782Y-575839D01*
X76688782Y-575838D01*
X76688789Y-575838D01*
X76923100Y-513054D01*
X77147212Y-420224D01*
X77357289Y-298936D01*
X77549738Y-151265D01*
X77721265Y20262D01*
X77868936Y212711D01*
X77990224Y422788D01*
X78083054Y646900D01*
X78145838Y881211D01*
X78177500Y1121712D01*
X78177500Y1364288D01*
X78145838Y1604789D01*
X78083054Y1839100D01*
X77990224Y2063212D01*
X77990218Y2063221D01*
X77990217Y2063225D01*
X77868938Y2273286D01*
X77868936Y2273289D01*
X77721265Y2465738D01*
X77721259Y2465744D01*
X77721255Y2465749D01*
X77549748Y2637256D01*
X77549742Y2637261D01*
X77549738Y2637265D01*
X77357289Y2784936D01*
X77357288Y2784937D01*
X77357285Y2784939D01*
X77147224Y2906218D01*
X77147216Y2906222D01*
X77147212Y2906224D01*
X76923100Y2999054D01*
X76923097Y2999055D01*
X76923095Y2999056D01*
X76688782Y3061840D01*
X76448290Y3093500D01*
X76448288Y3093500D01*
X76205712Y3093500D01*
X76205709Y3093500D01*
X75965217Y3061840D01*
X75730904Y2999056D01*
X75730900Y2999054D01*
X75506786Y2906223D01*
X75506775Y2906218D01*
X75296714Y2784939D01*
X75104262Y2637265D01*
X75104251Y2637256D01*
X74932744Y2465749D01*
X74932735Y2465738D01*
X74785061Y2273286D01*
X74663782Y2063225D01*
X74663777Y2063214D01*
X74570946Y1839100D01*
X74570944Y1839096D01*
X74508160Y1604783D01*
X74476500Y1364291D01*
X69677400Y1364291D01*
X69677400Y2769000D01*
X44836200Y2769000D01*
X44836200Y-2032600D01*
X44816198Y-2100721D01*
X44762542Y-2147214D01*
X44710200Y-2158600D01*
X38131510Y-2158600D01*
X38129744Y-2158588D01*
X37951499Y-2156089D01*
X37939158Y-2155309D01*
X37584089Y-2115303D01*
X37570158Y-2112936D01*
X37222662Y-2033622D01*
X37209085Y-2029710D01*
X36872663Y-1911991D01*
X36859609Y-1906584D01*
X36538477Y-1751935D01*
X36526110Y-1745100D01*
X36224317Y-1555471D01*
X36212793Y-1547295D01*
X35934115Y-1325056D01*
X35923580Y-1315640D01*
X35671559Y-1063619D01*
X35662143Y-1053084D01*
X35439900Y-774400D01*
X35431728Y-762882D01*
X35334095Y-607500D01*
X35242096Y-461083D01*
X35235264Y-448722D01*
X35080611Y-127581D01*
X35075211Y-114544D01*
X34957486Y221894D01*
X34953577Y235463D01*
X34935945Y312715D01*
X34874260Y582975D01*
X34871898Y596877D01*
X34831889Y951961D01*
X34831110Y964300D01*
X34828612Y1142544D01*
X34828600Y1144310D01*
X34828600Y1464291D01*
X36476500Y1464291D01*
X36476500Y1221710D01*
X36508160Y981218D01*
X36570944Y746905D01*
X36570945Y746903D01*
X36570946Y746900D01*
X36663776Y522788D01*
X36663777Y522787D01*
X36663782Y522776D01*
X36785061Y312715D01*
X36785063Y312712D01*
X36785064Y312711D01*
X36932735Y120262D01*
X36932739Y120258D01*
X36932744Y120252D01*
X37104251Y-51255D01*
X37104256Y-51259D01*
X37104262Y-51265D01*
X37234572Y-151255D01*
X37296714Y-198938D01*
X37506775Y-320217D01*
X37506779Y-320218D01*
X37506788Y-320224D01*
X37730900Y-413054D01*
X37965211Y-475838D01*
X37965215Y-475838D01*
X37965217Y-475839D01*
X38027202Y-483999D01*
X38205712Y-507500D01*
X38205719Y-507500D01*
X38448281Y-507500D01*
X38448288Y-507500D01*
X38665637Y-478885D01*
X38688782Y-475839D01*
X38688782Y-475838D01*
X38688789Y-475838D01*
X38923100Y-413054D01*
X39147212Y-320224D01*
X39357289Y-198936D01*
X39549738Y-51265D01*
X39721265Y120262D01*
X39868936Y312711D01*
X39990224Y522788D01*
X40083054Y746900D01*
X40145838Y981211D01*
X40177500Y1221712D01*
X40177500Y1464288D01*
X40145838Y1704789D01*
X40083054Y1939100D01*
X39990224Y2163212D01*
X39990218Y2163221D01*
X39990217Y2163225D01*
X39868938Y2373286D01*
X39868936Y2373289D01*
X39721265Y2565738D01*
X39721259Y2565744D01*
X39721255Y2565749D01*
X39549748Y2737256D01*
X39549742Y2737261D01*
X39549738Y2737265D01*
X39357289Y2884936D01*
X39357288Y2884937D01*
X39357285Y2884939D01*
X39147224Y3006218D01*
X39147216Y3006222D01*
X39147212Y3006224D01*
X38923100Y3099054D01*
X38923097Y3099055D01*
X38923095Y3099056D01*
X38688782Y3161840D01*
X38448290Y3193500D01*
X38448288Y3193500D01*
X38205712Y3193500D01*
X38205709Y3193500D01*
X37965217Y3161840D01*
X37730904Y3099056D01*
X37730900Y3099054D01*
X37641053Y3061838D01*
X37506786Y3006223D01*
X37506775Y3006218D01*
X37296714Y2884939D01*
X37104262Y2737265D01*
X37104251Y2737256D01*
X36932744Y2565749D01*
X36932735Y2565738D01*
X36785061Y2373286D01*
X36663782Y2163225D01*
X36663777Y2163214D01*
X36570946Y1939100D01*
X36570944Y1939096D01*
X36508160Y1704783D01*
X36476500Y1464291D01*
X34828600Y1464291D01*
X34828600Y39445691D01*
X34828612Y39447457D01*
X34828848Y39464291D01*
X36476500Y39464291D01*
X36476500Y39221710D01*
X36508160Y38981218D01*
X36570944Y38746905D01*
X36570945Y38746903D01*
X36570946Y38746900D01*
X36663776Y38522788D01*
X36663777Y38522787D01*
X36663782Y38522776D01*
X36785061Y38312715D01*
X36785063Y38312712D01*
X36785064Y38312711D01*
X36932735Y38120262D01*
X36932739Y38120258D01*
X36932744Y38120252D01*
X37104251Y37948745D01*
X37104256Y37948741D01*
X37104262Y37948735D01*
X37234572Y37848745D01*
X37296714Y37801062D01*
X37506775Y37679783D01*
X37506779Y37679782D01*
X37506788Y37679776D01*
X37730900Y37586946D01*
X37965211Y37524162D01*
X37965215Y37524162D01*
X37965217Y37524161D01*
X38027202Y37516001D01*
X38205712Y37492500D01*
X38205719Y37492500D01*
X38448281Y37492500D01*
X38448288Y37492500D01*
X38665637Y37521115D01*
X38688782Y37524161D01*
X38688782Y37524162D01*
X38688789Y37524162D01*
X38923100Y37586946D01*
X39147212Y37679776D01*
X39357289Y37801064D01*
X39549738Y37948735D01*
X39721265Y38120262D01*
X39868936Y38312711D01*
X39990224Y38522788D01*
X40083054Y38746900D01*
X40145838Y38981211D01*
X40177500Y39221712D01*
X40177500Y39464288D01*
X40145838Y39704789D01*
X40083054Y39939100D01*
X39990224Y40163212D01*
X39990218Y40163221D01*
X39990217Y40163225D01*
X39868938Y40373286D01*
X39868936Y40373289D01*
X39721265Y40565738D01*
X39721259Y40565744D01*
X39721255Y40565749D01*
X39549748Y40737256D01*
X39549742Y40737261D01*
X39549738Y40737265D01*
X39357289Y40884936D01*
X39357288Y40884937D01*
X39357285Y40884939D01*
X39147224Y41006218D01*
X39147216Y41006222D01*
X39147212Y41006224D01*
X38923100Y41099054D01*
X38923097Y41099055D01*
X38923095Y41099056D01*
X38688782Y41161840D01*
X38448290Y41193500D01*
X38448288Y41193500D01*
X38205712Y41193500D01*
X38205709Y41193500D01*
X37965217Y41161840D01*
X37730904Y41099056D01*
X37730900Y41099054D01*
X37615105Y41051090D01*
X37506786Y41006223D01*
X37506775Y41006218D01*
X37296714Y40884939D01*
X37104262Y40737265D01*
X37104251Y40737256D01*
X36932744Y40565749D01*
X36932735Y40565738D01*
X36785061Y40373286D01*
X36663782Y40163225D01*
X36663777Y40163214D01*
X36570946Y39939100D01*
X36570944Y39939096D01*
X36508160Y39704783D01*
X36476500Y39464291D01*
X34828848Y39464291D01*
X34831110Y39625701D01*
X34831890Y39638042D01*
X34839410Y39704783D01*
X34871898Y39993127D01*
X34874259Y40007024D01*
X34953580Y40354551D01*
X34957485Y40368102D01*
X35075213Y40704552D01*
X35080608Y40717576D01*
X35235271Y41038737D01*
X35242091Y41051077D01*
X35431737Y41352897D01*
X35439894Y41364393D01*
X35662151Y41643095D01*
X35671550Y41653611D01*
X35923589Y41905650D01*
X35934105Y41915049D01*
X36212807Y42137306D01*
X36224303Y42145463D01*
X36526123Y42335109D01*
X36538463Y42341929D01*
X36859624Y42496592D01*
X36872648Y42501987D01*
X37209098Y42619715D01*
X37222649Y42623620D01*
X37570176Y42702941D01*
X37584073Y42705302D01*
X37939161Y42745311D01*
X37951493Y42746090D01*
X38129744Y42748588D01*
X38131510Y42748600D01*
X76432890Y42748600D01*
X76434656Y42748588D01*
G37*
%TD.AperFunction*%
%TA.AperFunction,Conductor*%
G36*
X77923621Y19287498D02*
G01*
X77970114Y19233842D01*
X77981500Y19181500D01*
X77981500Y8494371D01*
X77961498Y8426250D01*
X77944595Y8405276D01*
X74144724Y4605405D01*
X74082412Y4571379D01*
X74055629Y4568500D01*
X66068305Y4568500D01*
X66000184Y4588502D01*
X65953691Y4642158D01*
X65943587Y4712432D01*
X65972494Y4776330D01*
X66006752Y4816442D01*
X66006753Y4816444D01*
X66132093Y5020981D01*
X66223892Y5242604D01*
X66279891Y5475857D01*
X66298712Y5715000D01*
X66279891Y5954144D01*
X66223892Y6187397D01*
X66132091Y6409025D01*
X66014737Y6600528D01*
X66014735Y6600528D01*
X65254468Y5840261D01*
X65236280Y5908140D01*
X65170404Y6022241D01*
X65077241Y6115404D01*
X64963140Y6181280D01*
X64895258Y6199469D01*
X65655526Y6959738D01*
X65655526Y6959739D01*
X65464019Y7077094D01*
X65242396Y7168893D01*
X65009142Y7224892D01*
X65009144Y7224892D01*
X64770000Y7243713D01*
X64530856Y7224892D01*
X64297603Y7168893D01*
X64075977Y7077092D01*
X63884472Y6959739D01*
X63884472Y6959737D01*
X64644740Y6199469D01*
X64576860Y6181280D01*
X64462759Y6115404D01*
X64369596Y6022241D01*
X64303720Y5908140D01*
X64285531Y5840259D01*
X63525263Y6600528D01*
X63525261Y6600528D01*
X63407908Y6409023D01*
X63316107Y6187397D01*
X63260108Y5954144D01*
X63241287Y5715000D01*
X63260108Y5475857D01*
X63316107Y5242604D01*
X63407906Y5020981D01*
X63533246Y4816444D01*
X63533247Y4816442D01*
X63567506Y4776330D01*
X63596537Y4711540D01*
X63585932Y4641340D01*
X63539057Y4588018D01*
X63471695Y4568500D01*
X61961371Y4568500D01*
X61893250Y4588502D01*
X61872276Y4605405D01*
X61211856Y5265825D01*
X61177830Y5328137D01*
X61178433Y5384335D01*
X61200385Y5475770D01*
X61200384Y5475770D01*
X61200387Y5475778D01*
X61219214Y5715000D01*
X61200387Y5954222D01*
X61144369Y6187553D01*
X61052540Y6409249D01*
X60927160Y6613849D01*
X60871443Y6679086D01*
X60842412Y6743876D01*
X60841733Y6771898D01*
X60841987Y6774803D01*
X60190789Y7426000D01*
X60202661Y7426000D01*
X60304394Y7453259D01*
X60395606Y7505920D01*
X60470080Y7580394D01*
X60522741Y7671606D01*
X60550000Y7773339D01*
X60550000Y7785209D01*
X61201196Y7134013D01*
X61201197Y7134013D01*
X61243622Y7194601D01*
X61336647Y7394093D01*
X61336649Y7394097D01*
X61393619Y7606713D01*
X61412804Y7826000D01*
X61393619Y8045288D01*
X61336649Y8257904D01*
X61336647Y8257908D01*
X61243619Y8457406D01*
X61201199Y8517989D01*
X61201197Y8517989D01*
X60550000Y7866792D01*
X60550000Y7878661D01*
X60522741Y7980394D01*
X60470080Y8071606D01*
X60395606Y8146080D01*
X60304394Y8198741D01*
X60202661Y8226000D01*
X60190790Y8226000D01*
X60841987Y8877200D01*
X60781403Y8919621D01*
X60581907Y9012648D01*
X60581903Y9012650D01*
X60369287Y9069620D01*
X60150000Y9088805D01*
X59930712Y9069620D01*
X59718096Y9012650D01*
X59718092Y9012648D01*
X59518598Y8919622D01*
X59458010Y8877199D01*
X60109209Y8226000D01*
X60097339Y8226000D01*
X59995606Y8198741D01*
X59904394Y8146080D01*
X59829920Y8071606D01*
X59777259Y7980394D01*
X59750000Y7878661D01*
X59750000Y7866790D01*
X59333963Y8282827D01*
X59308863Y8318673D01*
X59244057Y8457652D01*
X59117751Y8638035D01*
X59117749Y8638038D01*
X58962038Y8793749D01*
X58962035Y8793751D01*
X58858625Y8866160D01*
X58781654Y8920056D01*
X58781650Y8920058D01*
X58582079Y9013119D01*
X58582073Y9013121D01*
X58445746Y9049650D01*
X58369371Y9070115D01*
X58150000Y9089307D01*
X57930629Y9070115D01*
X57717926Y9013121D01*
X57717920Y9013119D01*
X57518346Y8920056D01*
X57337965Y8793752D01*
X57239095Y8694882D01*
X57176783Y8660857D01*
X57105967Y8665923D01*
X57060905Y8694883D01*
X56962044Y8793744D01*
X56962036Y8793751D01*
X56858627Y8866160D01*
X56814299Y8921617D01*
X56807320Y8944790D01*
X56795866Y9002371D01*
X56783194Y9066077D01*
X56733555Y9185917D01*
X56730937Y9189835D01*
X56661491Y9293769D01*
X56661489Y9293771D01*
X56661484Y9293777D01*
X55432405Y10522856D01*
X55398379Y10585168D01*
X55395500Y10611951D01*
X55395500Y12279362D01*
X55415502Y12347483D01*
X55469158Y12393976D01*
X55535603Y12404570D01*
X55626000Y12394384D01*
X55807047Y12414783D01*
X55979015Y12474957D01*
X56066913Y12530188D01*
X56133949Y12549500D01*
X73343857Y12549500D01*
X73471077Y12574806D01*
X73590917Y12624445D01*
X73626703Y12648357D01*
X73698764Y12696505D01*
X73698765Y12696507D01*
X73698769Y12696509D01*
X73761405Y12759147D01*
X73823717Y12793171D01*
X73836398Y12795259D01*
X73838055Y12795447D01*
X73841047Y12795783D01*
X74013015Y12855957D01*
X74167281Y12952889D01*
X74296111Y13081719D01*
X74393043Y13235985D01*
X74453217Y13407953D01*
X74473616Y13589000D01*
X74453217Y13770047D01*
X74393043Y13942015D01*
X74393041Y13942018D01*
X74393041Y13942019D01*
X74296112Y14096280D01*
X74296111Y14096282D01*
X74167281Y14225112D01*
X74167279Y14225113D01*
X74068447Y14287214D01*
X74021409Y14340393D01*
X74010589Y14410560D01*
X74038231Y14472760D01*
X74037698Y14473185D01*
X74039330Y14475233D01*
X74039422Y14475438D01*
X74039959Y14476021D01*
X74042106Y14478715D01*
X74042111Y14478719D01*
X74139043Y14632985D01*
X74199217Y14804953D01*
X74219616Y14986000D01*
X74208631Y15083495D01*
X74220881Y15153426D01*
X74268993Y15205634D01*
X74333839Y15223601D01*
X75255958Y15223601D01*
X75383178Y15248907D01*
X75503018Y15298546D01*
X75610870Y15370610D01*
X77092491Y16852231D01*
X77164555Y16960083D01*
X77214194Y17079923D01*
X77239500Y17207143D01*
X77239500Y17336857D01*
X77239500Y17907052D01*
X77258812Y17974086D01*
X77314043Y18061985D01*
X77374217Y18233953D01*
X77394616Y18415000D01*
X77374217Y18596047D01*
X77314043Y18768015D01*
X77314041Y18768018D01*
X77314041Y18768019D01*
X77217112Y18922280D01*
X77217111Y18922282D01*
X77088282Y19051111D01*
X77057382Y19070527D01*
X77010345Y19123706D01*
X76999525Y19193874D01*
X77028359Y19258752D01*
X77082806Y19296144D01*
X77095065Y19300433D01*
X77136670Y19307500D01*
X77855500Y19307500D01*
X77923621Y19287498D01*
G37*
%TD.AperFunction*%
%TA.AperFunction,Conductor*%
G36*
X39652170Y30420498D02*
G01*
X39673144Y30403596D01*
X40255510Y29821231D01*
X40347231Y29729510D01*
X40455083Y29657445D01*
X40574923Y29607806D01*
X40702143Y29582500D01*
X54763050Y29582500D01*
X54831171Y29562498D01*
X54877664Y29508842D01*
X54887768Y29438568D01*
X54858274Y29373988D01*
X54852145Y29367405D01*
X51304511Y25819772D01*
X51304506Y25819765D01*
X51244231Y25729559D01*
X51244232Y25729558D01*
X51244230Y25729555D01*
X51232445Y25711917D01*
X51232444Y25711915D01*
X51229010Y25706775D01*
X51228287Y25707258D01*
X51212251Y25685645D01*
X51179888Y25653281D01*
X51082958Y25499018D01*
X51082957Y25499016D01*
X51028192Y25342504D01*
X51022783Y25327047D01*
X51002384Y25146000D01*
X51022783Y24964953D01*
X51022783Y24964951D01*
X51022784Y24964950D01*
X51082957Y24792985D01*
X51082958Y24792982D01*
X51179887Y24638721D01*
X51179888Y24638719D01*
X51308718Y24509889D01*
X51308720Y24509888D01*
X51462981Y24412959D01*
X51462982Y24412959D01*
X51462985Y24412957D01*
X51634953Y24352783D01*
X51816000Y24332384D01*
X51997047Y24352783D01*
X52169015Y24412957D01*
X52323281Y24509889D01*
X52452111Y24638719D01*
X52549043Y24792985D01*
X52609217Y24964953D01*
X52629616Y25146000D01*
X52622601Y25208256D01*
X52634850Y25278185D01*
X52658711Y25311453D01*
X56242855Y28895595D01*
X56305167Y28929621D01*
X56331950Y28932500D01*
X65470176Y28932500D01*
X65538297Y28912498D01*
X65584790Y28858842D01*
X65594894Y28788568D01*
X65565400Y28723988D01*
X65518394Y28690091D01*
X65403630Y28642555D01*
X65295780Y28570492D01*
X65295774Y28570487D01*
X53638513Y16913226D01*
X53638508Y16913220D01*
X53597757Y16852231D01*
X53597756Y16852232D01*
X53566447Y16805374D01*
X53566445Y16805370D01*
X53516807Y16685533D01*
X53516806Y16685530D01*
X53491500Y16558313D01*
X53491500Y9210500D01*
X53471498Y9142379D01*
X53417842Y9095886D01*
X53365500Y9084500D01*
X53351350Y9084500D01*
X53290803Y9077991D01*
X53290795Y9077989D01*
X53153797Y9026890D01*
X53153792Y9026888D01*
X53036738Y8939262D01*
X52949112Y8822208D01*
X52949110Y8822203D01*
X52898011Y8685205D01*
X52898009Y8685197D01*
X52891500Y8624650D01*
X52891500Y7286371D01*
X52871498Y7218250D01*
X52817842Y7171757D01*
X52747568Y7161653D01*
X52682988Y7191147D01*
X52676405Y7197276D01*
X51537519Y8336162D01*
X51537515Y8336166D01*
X51413284Y8419174D01*
X51275247Y8476351D01*
X51201976Y8490926D01*
X51201975Y8490927D01*
X51128711Y8505500D01*
X51128706Y8505500D01*
X41260371Y8505500D01*
X41192250Y8525502D01*
X41171276Y8542405D01*
X40800405Y8913276D01*
X40766379Y8975588D01*
X40763500Y9002371D01*
X40763500Y12774705D01*
X40763499Y12774709D01*
X40761881Y12782842D01*
X40745051Y12867455D01*
X40734351Y12921247D01*
X40695931Y13014000D01*
X40695931Y13014001D01*
X40695931Y13014002D01*
X40677174Y13059284D01*
X40662182Y13081721D01*
X40594165Y13183516D01*
X40488516Y13289165D01*
X40488515Y13289166D01*
X39218515Y14559166D01*
X39094284Y14642174D01*
X38956247Y14699351D01*
X38882976Y14713926D01*
X38882975Y14713927D01*
X38809711Y14728500D01*
X38809706Y14728500D01*
X38322036Y14728500D01*
X38253915Y14748502D01*
X38214604Y14788664D01*
X38135181Y14918270D01*
X38032093Y15038971D01*
X38003063Y15103758D01*
X38013668Y15173958D01*
X38046075Y15216610D01*
X38054261Y15223601D01*
X38224770Y15369230D01*
X38389181Y15561730D01*
X38468604Y15691337D01*
X38521251Y15738966D01*
X38576036Y15751500D01*
X42232000Y15751500D01*
X42300121Y15731498D01*
X42346614Y15677842D01*
X42358000Y15625500D01*
X42358000Y12330205D01*
X42358000Y12180795D01*
X42387149Y12034253D01*
X42444326Y11896216D01*
X42527334Y11771985D01*
X45109485Y9189834D01*
X45233716Y9106826D01*
X45371753Y9049649D01*
X45426722Y9038715D01*
X45518294Y9020500D01*
X48588706Y9020500D01*
X48680278Y9038715D01*
X48735247Y9049649D01*
X48873284Y9106826D01*
X48997515Y9189834D01*
X51171919Y11364240D01*
X51234229Y11398263D01*
X51271994Y11400663D01*
X51435000Y11386401D01*
X51663104Y11406358D01*
X51884277Y11465621D01*
X52091800Y11562390D01*
X52279365Y11693725D01*
X52441275Y11855635D01*
X52572610Y12043200D01*
X52669379Y12250723D01*
X52728642Y12471896D01*
X52748599Y12700000D01*
X52728642Y12928104D01*
X52669379Y13149277D01*
X52572610Y13356799D01*
X52441275Y13544365D01*
X52279365Y13706275D01*
X52263156Y13717625D01*
X52091798Y13837612D01*
X52052781Y13855805D01*
X51999495Y13902722D01*
X51980034Y13970999D01*
X52000575Y14038959D01*
X52052781Y14084195D01*
X52091798Y14102389D01*
X52091798Y14102390D01*
X52091800Y14102390D01*
X52279365Y14233725D01*
X52441275Y14395635D01*
X52572610Y14583200D01*
X52669379Y14790723D01*
X52728642Y15011896D01*
X52748599Y15240000D01*
X52728642Y15468104D01*
X52669379Y15689277D01*
X52572610Y15896799D01*
X52441275Y16084365D01*
X52279365Y16246275D01*
X52263154Y16257626D01*
X52091800Y16377610D01*
X51884280Y16474378D01*
X51884275Y16474380D01*
X51751337Y16510000D01*
X51663104Y16533642D01*
X51435000Y16553599D01*
X51206896Y16533642D01*
X51149318Y16518214D01*
X50985724Y16474380D01*
X50985719Y16474378D01*
X50778200Y16377610D01*
X50590638Y16246278D01*
X50590632Y16246273D01*
X50428727Y16084368D01*
X50428722Y16084362D01*
X50297390Y15896800D01*
X50279195Y15857780D01*
X50232277Y15804495D01*
X50164000Y15785034D01*
X50096040Y15805576D01*
X50050805Y15857780D01*
X50039464Y15882101D01*
X50032610Y15896799D01*
X49901275Y16084365D01*
X49739365Y16246275D01*
X49723154Y16257626D01*
X49551800Y16377610D01*
X49344280Y16474378D01*
X49344275Y16474380D01*
X49211337Y16510000D01*
X49123104Y16533642D01*
X48895000Y16553599D01*
X48666896Y16533642D01*
X48609318Y16518214D01*
X48445724Y16474380D01*
X48445719Y16474378D01*
X48238200Y16377610D01*
X48050638Y16246278D01*
X48050632Y16246273D01*
X47888727Y16084368D01*
X47888722Y16084362D01*
X47757390Y15896800D01*
X47739195Y15857780D01*
X47692277Y15804495D01*
X47624000Y15785034D01*
X47556040Y15805576D01*
X47510805Y15857780D01*
X47499464Y15882101D01*
X47492610Y15896799D01*
X47361275Y16084365D01*
X47199365Y16246275D01*
X47183154Y16257626D01*
X47011800Y16377610D01*
X46804280Y16474378D01*
X46804275Y16474380D01*
X46671337Y16510000D01*
X46583104Y16533642D01*
X46355000Y16553599D01*
X46126896Y16533642D01*
X46069318Y16518214D01*
X45905724Y16474380D01*
X45905719Y16474378D01*
X45698200Y16377610D01*
X45510638Y16246278D01*
X45510632Y16246273D01*
X45348727Y16084368D01*
X45348722Y16084362D01*
X45217390Y15896800D01*
X45120622Y15689281D01*
X45120620Y15689276D01*
X45103532Y15625500D01*
X45061358Y15468104D01*
X45041401Y15240000D01*
X45061358Y15011896D01*
X45086445Y14918270D01*
X45120620Y14790725D01*
X45120622Y14790720D01*
X45217390Y14583200D01*
X45348725Y14395635D01*
X45348728Y14395631D01*
X45510630Y14233729D01*
X45510634Y14233726D01*
X45510635Y14233725D01*
X45698200Y14102390D01*
X45727209Y14088863D01*
X45737811Y14083919D01*
X45791096Y14037002D01*
X45810557Y13968724D01*
X45790015Y13900764D01*
X45737812Y13855530D01*
X45698454Y13837177D01*
X45627037Y13787172D01*
X46229740Y13184469D01*
X46161860Y13166280D01*
X46047759Y13100404D01*
X45954596Y13007241D01*
X45888720Y12893140D01*
X45870531Y12825260D01*
X45267828Y13427963D01*
X45217824Y13356548D01*
X45121093Y13149109D01*
X45121091Y13149105D01*
X45061852Y12928021D01*
X45041903Y12700000D01*
X45061852Y12471980D01*
X45121091Y12250896D01*
X45121093Y12250892D01*
X45217826Y12043448D01*
X45267827Y11972040D01*
X45870531Y12574743D01*
X45888720Y12506860D01*
X45954596Y12392759D01*
X46047759Y12299596D01*
X46161860Y12233720D01*
X46229741Y12215532D01*
X45627038Y11612830D01*
X45698455Y11562823D01*
X45905891Y11466094D01*
X45905895Y11466092D01*
X46126979Y11406853D01*
X46355000Y11386904D01*
X46583020Y11406853D01*
X46804104Y11466092D01*
X46804108Y11466094D01*
X47011548Y11562825D01*
X47082960Y11612829D01*
X47082960Y11612831D01*
X46480259Y12215532D01*
X46548140Y12233720D01*
X46662241Y12299596D01*
X46755404Y12392759D01*
X46821280Y12506860D01*
X46839468Y12574741D01*
X47442169Y11972040D01*
X47442171Y11972040D01*
X47492175Y12043453D01*
X47492177Y12043456D01*
X47510529Y12082811D01*
X47557446Y12136097D01*
X47625723Y12155558D01*
X47693683Y12135017D01*
X47738919Y12082811D01*
X47757390Y12043200D01*
X47860309Y11896217D01*
X47888725Y11855635D01*
X47888728Y11855631D01*
X48050630Y11693729D01*
X48050634Y11693726D01*
X48050635Y11693725D01*
X48238200Y11562390D01*
X48445723Y11465621D01*
X48666896Y11406358D01*
X48767176Y11397585D01*
X48833290Y11371723D01*
X48874930Y11314219D01*
X48878871Y11243332D01*
X48845287Y11182970D01*
X48236724Y10574405D01*
X48174411Y10540380D01*
X48147628Y10537500D01*
X45959371Y10537500D01*
X45891250Y10557502D01*
X45870276Y10574405D01*
X43911905Y12532776D01*
X43877879Y12595088D01*
X43875000Y12621871D01*
X43875000Y25538207D01*
X43874999Y25538210D01*
X43845851Y25684746D01*
X43834596Y25711917D01*
X43822167Y25741924D01*
X43788675Y25822782D01*
X43788674Y25822784D01*
X43766893Y25855381D01*
X43705665Y25947016D01*
X43600016Y26052665D01*
X39964515Y29688166D01*
X39840284Y29771174D01*
X39753239Y29807230D01*
X39702250Y29828350D01*
X39702247Y29828351D01*
X39636429Y29841443D01*
X39568852Y29854885D01*
X39555706Y29857500D01*
X39555704Y29857500D01*
X38741828Y29857500D01*
X38673707Y29877502D01*
X38642775Y29907233D01*
X38642287Y29906822D01*
X38638745Y29911043D01*
X38539883Y30009905D01*
X38505857Y30072217D01*
X38510922Y30143032D01*
X38539883Y30188095D01*
X38638745Y30286958D01*
X38638749Y30286962D01*
X38708636Y30386772D01*
X38764093Y30431099D01*
X38811849Y30440500D01*
X39584049Y30440500D01*
X39652170Y30420498D01*
G37*
%TD.AperFunction*%
%TA.AperFunction,Conductor*%
G36*
X47693959Y14674425D02*
G01*
X47739195Y14622219D01*
X47757388Y14583202D01*
X47888725Y14395635D01*
X47888728Y14395631D01*
X48050630Y14233729D01*
X48050634Y14233726D01*
X48050635Y14233725D01*
X48238200Y14102390D01*
X48264854Y14089961D01*
X48277219Y14084195D01*
X48330504Y14037277D01*
X48349965Y13969000D01*
X48329423Y13901040D01*
X48277220Y13855806D01*
X48238202Y13837612D01*
X48050638Y13706278D01*
X48050632Y13706273D01*
X47888727Y13544368D01*
X47888722Y13544362D01*
X47757388Y13356798D01*
X47738918Y13317188D01*
X47692001Y13263903D01*
X47623723Y13244443D01*
X47555763Y13264985D01*
X47510530Y13317188D01*
X47492176Y13356548D01*
X47492173Y13356552D01*
X47442172Y13427962D01*
X47442170Y13427962D01*
X46839468Y12825260D01*
X46821280Y12893140D01*
X46755404Y13007241D01*
X46662241Y13100404D01*
X46548140Y13166280D01*
X46480258Y13184469D01*
X47082960Y13787173D01*
X47082960Y13787174D01*
X47011552Y13837174D01*
X47011547Y13837177D01*
X46972187Y13855531D01*
X46918902Y13902449D01*
X46899442Y13970726D01*
X46919985Y14038686D01*
X46972188Y14083920D01*
X47011800Y14102390D01*
X47199365Y14233725D01*
X47361275Y14395635D01*
X47492610Y14583200D01*
X47510805Y14622219D01*
X47557722Y14675505D01*
X47625999Y14694966D01*
X47693959Y14674425D01*
G37*
%TD.AperFunction*%
%TA.AperFunction,Conductor*%
G36*
X77019327Y28331826D02*
G01*
X77055307Y28273584D01*
X77055446Y28273632D01*
X77055666Y28273004D01*
X77056641Y28271425D01*
X77057714Y28267150D01*
X77117957Y28094985D01*
X77117958Y28094982D01*
X77214887Y27940721D01*
X77214888Y27940719D01*
X77343718Y27811889D01*
X77343720Y27811888D01*
X77473398Y27730406D01*
X77497985Y27714957D01*
X77497989Y27714956D01*
X77504365Y27711885D01*
X77503328Y27709734D01*
X77538899Y27687420D01*
X77944595Y27281724D01*
X77978621Y27219412D01*
X77981500Y27192629D01*
X77981500Y20950500D01*
X77961498Y20882379D01*
X77907842Y20835886D01*
X77855500Y20824500D01*
X77136670Y20824500D01*
X77095055Y20831571D01*
X77082723Y20835886D01*
X77016047Y20859217D01*
X76835000Y20879616D01*
X76653953Y20859217D01*
X76653950Y20859217D01*
X76653949Y20859216D01*
X76481984Y20799043D01*
X76481981Y20799042D01*
X76327720Y20702113D01*
X76327718Y20702112D01*
X76198888Y20573282D01*
X76198887Y20573280D01*
X76101958Y20419019D01*
X76101957Y20419016D01*
X76043879Y20253036D01*
X76041783Y20247047D01*
X76021384Y20066000D01*
X76041783Y19884953D01*
X76041783Y19884951D01*
X76041784Y19884950D01*
X76101957Y19712985D01*
X76101958Y19712982D01*
X76198887Y19558721D01*
X76198888Y19558719D01*
X76327718Y19429889D01*
X76327720Y19429888D01*
X76358616Y19410474D01*
X76405654Y19357295D01*
X76416474Y19287128D01*
X76387641Y19222250D01*
X76333195Y19184858D01*
X76227984Y19148043D01*
X76227981Y19148042D01*
X76073720Y19051113D01*
X76073718Y19051112D01*
X75944888Y18922282D01*
X75944887Y18922280D01*
X75847958Y18768019D01*
X75847957Y18768016D01*
X75823102Y18696982D01*
X75787783Y18596047D01*
X75767384Y18415000D01*
X75787783Y18233953D01*
X75787783Y18233951D01*
X75787784Y18233950D01*
X75847956Y18061986D01*
X75862418Y18038971D01*
X75903187Y17974086D01*
X75922500Y17907052D01*
X75922500Y17596950D01*
X75902498Y17528829D01*
X75885595Y17507855D01*
X74955246Y16577506D01*
X74892934Y16543480D01*
X74866151Y16540601D01*
X66286848Y16540601D01*
X66219812Y16559914D01*
X66131916Y16615143D01*
X66131913Y16615145D01*
X65959949Y16675317D01*
X65959948Y16675318D01*
X65959946Y16675318D01*
X65778899Y16695717D01*
X65597852Y16675318D01*
X65597849Y16675318D01*
X65597848Y16675317D01*
X65425883Y16615144D01*
X65425880Y16615143D01*
X65271619Y16518214D01*
X65271617Y16518213D01*
X65142787Y16389383D01*
X65142786Y16389381D01*
X65045857Y16235120D01*
X65045856Y16235117D01*
X64998782Y16100585D01*
X64985682Y16063148D01*
X64965283Y15882101D01*
X64985682Y15701054D01*
X64985682Y15701052D01*
X64985683Y15701051D01*
X65045856Y15529086D01*
X65045857Y15529083D01*
X65142786Y15374822D01*
X65142787Y15374820D01*
X65271617Y15245990D01*
X65271619Y15245989D01*
X65425880Y15149060D01*
X65425881Y15149060D01*
X65425884Y15149058D01*
X65523331Y15114960D01*
X65581023Y15073582D01*
X65607185Y15007582D01*
X65607039Y14993076D01*
X65607384Y14993076D01*
X65607384Y14986003D01*
X65607384Y14986000D01*
X65627783Y14804953D01*
X65627783Y14804951D01*
X65627784Y14804950D01*
X65687957Y14632985D01*
X65687958Y14632982D01*
X65784887Y14478721D01*
X65784888Y14478719D01*
X65913718Y14349889D01*
X65913720Y14349888D01*
X66067981Y14252959D01*
X66067982Y14252959D01*
X66067985Y14252957D01*
X66239953Y14192783D01*
X66421000Y14172384D01*
X66602047Y14192783D01*
X66774015Y14252957D01*
X66861913Y14308188D01*
X66928949Y14327500D01*
X72898051Y14327500D01*
X72965085Y14308188D01*
X72965087Y14308187D01*
X72997551Y14287789D01*
X73044590Y14234611D01*
X73055411Y14164444D01*
X73027767Y14102240D01*
X73028301Y14101814D01*
X73026668Y14099767D01*
X73026579Y14099566D01*
X73026051Y14098993D01*
X73023888Y14096281D01*
X72926960Y13942022D01*
X72924944Y13937834D01*
X72877368Y13885137D01*
X72811420Y13866500D01*
X56133949Y13866500D01*
X56066913Y13885813D01*
X55989621Y13934379D01*
X55979014Y13941044D01*
X55807050Y14001216D01*
X55807049Y14001217D01*
X55807047Y14001217D01*
X55626000Y14021616D01*
X55625998Y14021616D01*
X55535606Y14011432D01*
X55465674Y14023682D01*
X55413467Y14071795D01*
X55395500Y14136640D01*
X55395500Y16048395D01*
X55415502Y16116516D01*
X55432405Y16137490D01*
X61864405Y22569490D01*
X61926717Y22603516D01*
X61997532Y22598451D01*
X62054368Y22555904D01*
X62079179Y22489384D01*
X62079500Y22480395D01*
X62079500Y19557950D01*
X62060188Y19490916D01*
X62034542Y19450099D01*
X62004955Y19403012D01*
X61954477Y19258752D01*
X61944783Y19231047D01*
X61924384Y19050000D01*
X61944783Y18868953D01*
X61944783Y18868951D01*
X61944784Y18868950D01*
X62004957Y18696985D01*
X62004958Y18696982D01*
X62101887Y18542721D01*
X62101888Y18542719D01*
X62230718Y18413889D01*
X62230720Y18413888D01*
X62384981Y18316959D01*
X62384982Y18316959D01*
X62384985Y18316957D01*
X62556953Y18256783D01*
X62738000Y18236384D01*
X62919047Y18256783D01*
X63091015Y18316957D01*
X63245281Y18413889D01*
X63374111Y18542719D01*
X63471043Y18696985D01*
X63531217Y18868953D01*
X63551616Y19050000D01*
X63531217Y19231047D01*
X63471043Y19403015D01*
X63415811Y19490916D01*
X63396500Y19557950D01*
X63396500Y23342290D01*
X63416502Y23410411D01*
X63433399Y23431380D01*
X63602722Y23600703D01*
X63665030Y23634725D01*
X63735846Y23629661D01*
X63758850Y23618292D01*
X63908981Y23523959D01*
X63908982Y23523959D01*
X63908985Y23523957D01*
X64080953Y23463783D01*
X64080954Y23463783D01*
X64080957Y23463782D01*
X64085601Y23463259D01*
X64151056Y23435759D01*
X64160585Y23427156D01*
X64223231Y23364510D01*
X64331083Y23292445D01*
X64450923Y23242806D01*
X64578143Y23217500D01*
X72962857Y23217500D01*
X73090077Y23242806D01*
X73209917Y23292445D01*
X73317769Y23364509D01*
X74679490Y24726231D01*
X74751555Y24834083D01*
X74801194Y24953923D01*
X74809464Y24995500D01*
X74826500Y25081143D01*
X74826500Y25300889D01*
X74846502Y25369010D01*
X74900158Y25415503D01*
X74970432Y25425607D01*
X75035012Y25396113D01*
X75071429Y25342504D01*
X75085957Y25300985D01*
X75085958Y25300982D01*
X75182887Y25146721D01*
X75182888Y25146719D01*
X75311718Y25017889D01*
X75311720Y25017888D01*
X75465981Y24920959D01*
X75465982Y24920959D01*
X75465985Y24920957D01*
X75637953Y24860783D01*
X75819000Y24840384D01*
X76000047Y24860783D01*
X76172015Y24920957D01*
X76326281Y25017889D01*
X76455111Y25146719D01*
X76552043Y25300985D01*
X76612217Y25472953D01*
X76632616Y25654000D01*
X76612217Y25835047D01*
X76552043Y26007015D01*
X76496811Y26094916D01*
X76477500Y26161950D01*
X76477500Y27894451D01*
X76497502Y27962572D01*
X76514400Y27983542D01*
X76813090Y28282231D01*
X76830367Y28308090D01*
X76884840Y28353615D01*
X76955283Y28362465D01*
X77019327Y28331826D01*
G37*
%TD.AperFunction*%
%TD*%
M02*
