%TF.GenerationSoftware,KiCad,Pcbnew,8.0.5*%
%TF.CreationDate,2024-10-28T18:07:43+00:00*%
%TF.ProjectId,WindSensorATMEGA328_PCB,57696e64-5365-46e7-936f-7241544d4547,rev?*%
%TF.SameCoordinates,PX5734380PY7df6180*%
%TF.FileFunction,Legend,Top*%
%TF.FilePolarity,Positive*%
%FSLAX46Y46*%
G04 Gerber Fmt 4.6, Leading zero omitted, Abs format (unit mm)*
G04 Created by KiCad (PCBNEW 8.0.5) date 2024-10-28 18:07:43*
%MOMM*%
%LPD*%
G01*
G04 APERTURE LIST*
%ADD10C,0.150000*%
%ADD11C,0.200000*%
%ADD12C,0.100000*%
%ADD13C,0.304800*%
%ADD14C,0.250000*%
%ADD15C,0.300000*%
%ADD16C,0.127000*%
%ADD17C,0.066040*%
%ADD18C,0.010000*%
%ADD19C,0.381000*%
%ADD20C,0.152400*%
%ADD21C,0.050800*%
G04 APERTURE END LIST*
D10*
X78168571Y32977896D02*
X78549524Y32977896D01*
X78092381Y32692181D02*
X78359048Y33692181D01*
X78359048Y33692181D02*
X78625714Y32692181D01*
X78854285Y33596943D02*
X78892381Y33644562D01*
X78892381Y33644562D02*
X78968571Y33692181D01*
X78968571Y33692181D02*
X79159047Y33692181D01*
X79159047Y33692181D02*
X79235238Y33644562D01*
X79235238Y33644562D02*
X79273333Y33596943D01*
X79273333Y33596943D02*
X79311428Y33501705D01*
X79311428Y33501705D02*
X79311428Y33406467D01*
X79311428Y33406467D02*
X79273333Y33263610D01*
X79273333Y33263610D02*
X78816190Y32692181D01*
X78816190Y32692181D02*
X79311428Y32692181D01*
D11*
X54660810Y10088781D02*
X54394143Y10564972D01*
X54203667Y10088781D02*
X54203667Y11088781D01*
X54203667Y11088781D02*
X54508429Y11088781D01*
X54508429Y11088781D02*
X54584619Y11041162D01*
X54584619Y11041162D02*
X54622714Y10993543D01*
X54622714Y10993543D02*
X54660810Y10898305D01*
X54660810Y10898305D02*
X54660810Y10755448D01*
X54660810Y10755448D02*
X54622714Y10660210D01*
X54622714Y10660210D02*
X54584619Y10612591D01*
X54584619Y10612591D02*
X54508429Y10564972D01*
X54508429Y10564972D02*
X54203667Y10564972D01*
X54927476Y10088781D02*
X55346524Y10755448D01*
X54927476Y10755448D02*
X55346524Y10088781D01*
X57467571Y10428900D02*
X58610429Y10428900D01*
X58039000Y9857472D02*
X58039000Y11000329D01*
X65666838Y10312477D02*
X65619219Y10236287D01*
X65619219Y10236287D02*
X65619219Y10122001D01*
X65619219Y10122001D02*
X65666838Y10007715D01*
X65666838Y10007715D02*
X65762076Y9931525D01*
X65762076Y9931525D02*
X65857314Y9893430D01*
X65857314Y9893430D02*
X66047790Y9855334D01*
X66047790Y9855334D02*
X66190647Y9855334D01*
X66190647Y9855334D02*
X66381123Y9893430D01*
X66381123Y9893430D02*
X66476361Y9931525D01*
X66476361Y9931525D02*
X66571600Y10007715D01*
X66571600Y10007715D02*
X66619219Y10122001D01*
X66619219Y10122001D02*
X66619219Y10198192D01*
X66619219Y10198192D02*
X66571600Y10312477D01*
X66571600Y10312477D02*
X66523980Y10350573D01*
X66523980Y10350573D02*
X66190647Y10350573D01*
X66190647Y10350573D02*
X66190647Y10198192D01*
X66619219Y10693430D02*
X65619219Y10693430D01*
X65619219Y10693430D02*
X66619219Y11150573D01*
X66619219Y11150573D02*
X65619219Y11150573D01*
X66619219Y11531525D02*
X65619219Y11531525D01*
X65619219Y11531525D02*
X65619219Y11722001D01*
X65619219Y11722001D02*
X65666838Y11836287D01*
X65666838Y11836287D02*
X65762076Y11912477D01*
X65762076Y11912477D02*
X65857314Y11950572D01*
X65857314Y11950572D02*
X66047790Y11988668D01*
X66047790Y11988668D02*
X66190647Y11988668D01*
X66190647Y11988668D02*
X66381123Y11950572D01*
X66381123Y11950572D02*
X66476361Y11912477D01*
X66476361Y11912477D02*
X66571600Y11836287D01*
X66571600Y11836287D02*
X66619219Y11722001D01*
X66619219Y11722001D02*
X66619219Y11531525D01*
D10*
X78168571Y31453896D02*
X78549524Y31453896D01*
X78092381Y31168181D02*
X78359048Y32168181D01*
X78359048Y32168181D02*
X78625714Y31168181D01*
X79311428Y31168181D02*
X78854285Y31168181D01*
X79082857Y31168181D02*
X79082857Y32168181D01*
X79082857Y32168181D02*
X79006666Y32025324D01*
X79006666Y32025324D02*
X78930476Y31930086D01*
X78930476Y31930086D02*
X78854285Y31882467D01*
X78168571Y30056896D02*
X78549524Y30056896D01*
X78092381Y29771181D02*
X78359048Y30771181D01*
X78359048Y30771181D02*
X78625714Y29771181D01*
X79044762Y30771181D02*
X79120952Y30771181D01*
X79120952Y30771181D02*
X79197143Y30723562D01*
X79197143Y30723562D02*
X79235238Y30675943D01*
X79235238Y30675943D02*
X79273333Y30580705D01*
X79273333Y30580705D02*
X79311428Y30390229D01*
X79311428Y30390229D02*
X79311428Y30152134D01*
X79311428Y30152134D02*
X79273333Y29961658D01*
X79273333Y29961658D02*
X79235238Y29866420D01*
X79235238Y29866420D02*
X79197143Y29818800D01*
X79197143Y29818800D02*
X79120952Y29771181D01*
X79120952Y29771181D02*
X79044762Y29771181D01*
X79044762Y29771181D02*
X78968571Y29818800D01*
X78968571Y29818800D02*
X78930476Y29866420D01*
X78930476Y29866420D02*
X78892381Y29961658D01*
X78892381Y29961658D02*
X78854285Y30152134D01*
X78854285Y30152134D02*
X78854285Y30390229D01*
X78854285Y30390229D02*
X78892381Y30580705D01*
X78892381Y30580705D02*
X78930476Y30675943D01*
X78930476Y30675943D02*
X78968571Y30723562D01*
X78968571Y30723562D02*
X79044762Y30771181D01*
D11*
X49104619Y10961781D02*
X49561762Y10961781D01*
X49333190Y9961781D02*
X49333190Y10961781D01*
X49752238Y9961781D02*
X50171286Y10628448D01*
X49752238Y10628448D02*
X50171286Y9961781D01*
X76092143Y12968725D02*
X76092143Y13968725D01*
X76092143Y13968725D02*
X76282619Y13968725D01*
X76282619Y13968725D02*
X76396905Y13921106D01*
X76396905Y13921106D02*
X76473095Y13825868D01*
X76473095Y13825868D02*
X76511190Y13730630D01*
X76511190Y13730630D02*
X76549286Y13540154D01*
X76549286Y13540154D02*
X76549286Y13397297D01*
X76549286Y13397297D02*
X76511190Y13206821D01*
X76511190Y13206821D02*
X76473095Y13111583D01*
X76473095Y13111583D02*
X76396905Y13016344D01*
X76396905Y13016344D02*
X76282619Y12968725D01*
X76282619Y12968725D02*
X76092143Y12968725D01*
X76892143Y12968725D02*
X76892143Y13968725D01*
X77425476Y13444916D02*
X77425476Y12968725D01*
X77158809Y13968725D02*
X77425476Y13444916D01*
X77425476Y13444916D02*
X77692142Y13968725D01*
X75482619Y12358781D02*
X75673095Y11358781D01*
X75673095Y11358781D02*
X75825476Y12073067D01*
X75825476Y12073067D02*
X75977857Y11358781D01*
X75977857Y11358781D02*
X76168334Y12358781D01*
X76473096Y11358781D02*
X76473096Y12358781D01*
X76854048Y11358781D02*
X76854048Y12358781D01*
X76854048Y12358781D02*
X77311191Y11358781D01*
X77311191Y11358781D02*
X77311191Y12358781D01*
X77692143Y11358781D02*
X77692143Y12358781D01*
X77692143Y12358781D02*
X77882619Y12358781D01*
X77882619Y12358781D02*
X77996905Y12311162D01*
X77996905Y12311162D02*
X78073095Y12215924D01*
X78073095Y12215924D02*
X78111190Y12120686D01*
X78111190Y12120686D02*
X78149286Y11930210D01*
X78149286Y11930210D02*
X78149286Y11787353D01*
X78149286Y11787353D02*
X78111190Y11596877D01*
X78111190Y11596877D02*
X78073095Y11501639D01*
X78073095Y11501639D02*
X77996905Y11406400D01*
X77996905Y11406400D02*
X77882619Y11358781D01*
X77882619Y11358781D02*
X77692143Y11358781D01*
X74625475Y9796456D02*
X74739761Y9748837D01*
X74739761Y9748837D02*
X74930237Y9748837D01*
X74930237Y9748837D02*
X75006428Y9796456D01*
X75006428Y9796456D02*
X75044523Y9844076D01*
X75044523Y9844076D02*
X75082618Y9939314D01*
X75082618Y9939314D02*
X75082618Y10034552D01*
X75082618Y10034552D02*
X75044523Y10129790D01*
X75044523Y10129790D02*
X75006428Y10177409D01*
X75006428Y10177409D02*
X74930237Y10225028D01*
X74930237Y10225028D02*
X74777856Y10272647D01*
X74777856Y10272647D02*
X74701666Y10320266D01*
X74701666Y10320266D02*
X74663571Y10367885D01*
X74663571Y10367885D02*
X74625475Y10463123D01*
X74625475Y10463123D02*
X74625475Y10558361D01*
X74625475Y10558361D02*
X74663571Y10653599D01*
X74663571Y10653599D02*
X74701666Y10701218D01*
X74701666Y10701218D02*
X74777856Y10748837D01*
X74777856Y10748837D02*
X74968333Y10748837D01*
X74968333Y10748837D02*
X75082618Y10701218D01*
X75425476Y10272647D02*
X75692142Y10272647D01*
X75806428Y9748837D02*
X75425476Y9748837D01*
X75425476Y9748837D02*
X75425476Y10748837D01*
X75425476Y10748837D02*
X75806428Y10748837D01*
X76149286Y9748837D02*
X76149286Y10748837D01*
X76149286Y10748837D02*
X76606429Y9748837D01*
X76606429Y9748837D02*
X76606429Y10748837D01*
X76949285Y9796456D02*
X77063571Y9748837D01*
X77063571Y9748837D02*
X77254047Y9748837D01*
X77254047Y9748837D02*
X77330238Y9796456D01*
X77330238Y9796456D02*
X77368333Y9844076D01*
X77368333Y9844076D02*
X77406428Y9939314D01*
X77406428Y9939314D02*
X77406428Y10034552D01*
X77406428Y10034552D02*
X77368333Y10129790D01*
X77368333Y10129790D02*
X77330238Y10177409D01*
X77330238Y10177409D02*
X77254047Y10225028D01*
X77254047Y10225028D02*
X77101666Y10272647D01*
X77101666Y10272647D02*
X77025476Y10320266D01*
X77025476Y10320266D02*
X76987381Y10367885D01*
X76987381Y10367885D02*
X76949285Y10463123D01*
X76949285Y10463123D02*
X76949285Y10558361D01*
X76949285Y10558361D02*
X76987381Y10653599D01*
X76987381Y10653599D02*
X77025476Y10701218D01*
X77025476Y10701218D02*
X77101666Y10748837D01*
X77101666Y10748837D02*
X77292143Y10748837D01*
X77292143Y10748837D02*
X77406428Y10701218D01*
X77901667Y10748837D02*
X78054048Y10748837D01*
X78054048Y10748837D02*
X78130238Y10701218D01*
X78130238Y10701218D02*
X78206429Y10605980D01*
X78206429Y10605980D02*
X78244524Y10415504D01*
X78244524Y10415504D02*
X78244524Y10082171D01*
X78244524Y10082171D02*
X78206429Y9891695D01*
X78206429Y9891695D02*
X78130238Y9796456D01*
X78130238Y9796456D02*
X78054048Y9748837D01*
X78054048Y9748837D02*
X77901667Y9748837D01*
X77901667Y9748837D02*
X77825476Y9796456D01*
X77825476Y9796456D02*
X77749286Y9891695D01*
X77749286Y9891695D02*
X77711190Y10082171D01*
X77711190Y10082171D02*
X77711190Y10415504D01*
X77711190Y10415504D02*
X77749286Y10605980D01*
X77749286Y10605980D02*
X77825476Y10701218D01*
X77825476Y10701218D02*
X77901667Y10748837D01*
X79044524Y9748837D02*
X78777857Y10225028D01*
X78587381Y9748837D02*
X78587381Y10748837D01*
X78587381Y10748837D02*
X78892143Y10748837D01*
X78892143Y10748837D02*
X78968333Y10701218D01*
X78968333Y10701218D02*
X79006428Y10653599D01*
X79006428Y10653599D02*
X79044524Y10558361D01*
X79044524Y10558361D02*
X79044524Y10415504D01*
X79044524Y10415504D02*
X79006428Y10320266D01*
X79006428Y10320266D02*
X78968333Y10272647D01*
X78968333Y10272647D02*
X78892143Y10225028D01*
X78892143Y10225028D02*
X78587381Y10225028D01*
D12*
X40966895Y33933001D02*
X41766895Y34075858D01*
X41766895Y34075858D02*
X41195466Y34190144D01*
X41195466Y34190144D02*
X41766895Y34304429D01*
X41766895Y34304429D02*
X40966895Y34447286D01*
X41766895Y34675858D02*
X40966895Y34675858D01*
X41766895Y34961572D02*
X40966895Y34961572D01*
X40966895Y34961572D02*
X41766895Y35304429D01*
X41766895Y35304429D02*
X40966895Y35304429D01*
X41766895Y35590143D02*
X40966895Y35590143D01*
X40966895Y35590143D02*
X40966895Y35733000D01*
X40966895Y35733000D02*
X41004990Y35818714D01*
X41004990Y35818714D02*
X41081180Y35875857D01*
X41081180Y35875857D02*
X41157371Y35904428D01*
X41157371Y35904428D02*
X41309752Y35933000D01*
X41309752Y35933000D02*
X41424038Y35933000D01*
X41424038Y35933000D02*
X41576419Y35904428D01*
X41576419Y35904428D02*
X41652609Y35875857D01*
X41652609Y35875857D02*
X41728800Y35818714D01*
X41728800Y35818714D02*
X41766895Y35733000D01*
X41766895Y35733000D02*
X41766895Y35590143D01*
X41843085Y36047285D02*
X41843085Y36504428D01*
X41538323Y36618714D02*
X41538323Y36904428D01*
X41766895Y36561571D02*
X40966895Y36761571D01*
X40966895Y36761571D02*
X41766895Y36961571D01*
D13*
X44123429Y41801390D02*
X45284572Y41801390D01*
X44704000Y41220819D02*
X44704000Y42381962D01*
D14*
X47284000Y42333381D02*
X47522095Y41333381D01*
X47522095Y41333381D02*
X47712571Y42047667D01*
X47712571Y42047667D02*
X47903047Y41333381D01*
X47903047Y41333381D02*
X48141143Y42333381D01*
X48522095Y41333381D02*
X48522095Y42333381D01*
X48998285Y41333381D02*
X48998285Y42333381D01*
X48998285Y42333381D02*
X49569713Y41333381D01*
X49569713Y41333381D02*
X49569713Y42333381D01*
X50045904Y41333381D02*
X50045904Y42333381D01*
X50045904Y42333381D02*
X50283999Y42333381D01*
X50283999Y42333381D02*
X50426856Y42285762D01*
X50426856Y42285762D02*
X50522094Y42190524D01*
X50522094Y42190524D02*
X50569713Y42095286D01*
X50569713Y42095286D02*
X50617332Y41904810D01*
X50617332Y41904810D02*
X50617332Y41761953D01*
X50617332Y41761953D02*
X50569713Y41571477D01*
X50569713Y41571477D02*
X50522094Y41476239D01*
X50522094Y41476239D02*
X50426856Y41381000D01*
X50426856Y41381000D02*
X50283999Y41333381D01*
X50283999Y41333381D02*
X50045904Y41333381D01*
X50807809Y41238143D02*
X51569713Y41238143D01*
X51760190Y41619096D02*
X52236380Y41619096D01*
X51664952Y41333381D02*
X51998285Y42333381D01*
X51998285Y42333381D02*
X52331618Y41333381D01*
X54102095Y42285762D02*
X54006857Y42333381D01*
X54006857Y42333381D02*
X53864000Y42333381D01*
X53864000Y42333381D02*
X53721143Y42285762D01*
X53721143Y42285762D02*
X53625905Y42190524D01*
X53625905Y42190524D02*
X53578286Y42095286D01*
X53578286Y42095286D02*
X53530667Y41904810D01*
X53530667Y41904810D02*
X53530667Y41761953D01*
X53530667Y41761953D02*
X53578286Y41571477D01*
X53578286Y41571477D02*
X53625905Y41476239D01*
X53625905Y41476239D02*
X53721143Y41381000D01*
X53721143Y41381000D02*
X53864000Y41333381D01*
X53864000Y41333381D02*
X53959238Y41333381D01*
X53959238Y41333381D02*
X54102095Y41381000D01*
X54102095Y41381000D02*
X54149714Y41428620D01*
X54149714Y41428620D02*
X54149714Y41761953D01*
X54149714Y41761953D02*
X53959238Y41761953D01*
X54578286Y41333381D02*
X54578286Y42333381D01*
X54578286Y42333381D02*
X55149714Y41333381D01*
X55149714Y41333381D02*
X55149714Y42333381D01*
X55625905Y41333381D02*
X55625905Y42333381D01*
X55625905Y42333381D02*
X55864000Y42333381D01*
X55864000Y42333381D02*
X56006857Y42285762D01*
X56006857Y42285762D02*
X56102095Y42190524D01*
X56102095Y42190524D02*
X56149714Y42095286D01*
X56149714Y42095286D02*
X56197333Y41904810D01*
X56197333Y41904810D02*
X56197333Y41761953D01*
X56197333Y41761953D02*
X56149714Y41571477D01*
X56149714Y41571477D02*
X56102095Y41476239D01*
X56102095Y41476239D02*
X56006857Y41381000D01*
X56006857Y41381000D02*
X55864000Y41333381D01*
X55864000Y41333381D02*
X55625905Y41333381D01*
D12*
X73097895Y34517143D02*
X73897895Y34717143D01*
X73897895Y34717143D02*
X73097895Y34917143D01*
X73669323Y35088572D02*
X73669323Y35374286D01*
X73897895Y35031429D02*
X73097895Y35231429D01*
X73097895Y35231429D02*
X73897895Y35431429D01*
X73897895Y35631430D02*
X73097895Y35631430D01*
X73097895Y35631430D02*
X73897895Y35974287D01*
X73897895Y35974287D02*
X73097895Y35974287D01*
X73478847Y36260001D02*
X73478847Y36460001D01*
X73897895Y36545715D02*
X73897895Y36260001D01*
X73897895Y36260001D02*
X73097895Y36260001D01*
X73097895Y36260001D02*
X73097895Y36545715D01*
D14*
X63285905Y42333381D02*
X63619238Y41333381D01*
X63619238Y41333381D02*
X63952571Y42333381D01*
X64238286Y41619096D02*
X64714476Y41619096D01*
X64143048Y41333381D02*
X64476381Y42333381D01*
X64476381Y42333381D02*
X64809714Y41333381D01*
X65143048Y41333381D02*
X65143048Y42333381D01*
X65143048Y42333381D02*
X65714476Y41333381D01*
X65714476Y41333381D02*
X65714476Y42333381D01*
X66190667Y41857191D02*
X66524000Y41857191D01*
X66666857Y41333381D02*
X66190667Y41333381D01*
X66190667Y41333381D02*
X66190667Y42333381D01*
X66190667Y42333381D02*
X66666857Y42333381D01*
D13*
X59236429Y41801390D02*
X60397572Y41801390D01*
X59817000Y41220819D02*
X59817000Y42381962D01*
D14*
X69342095Y42285762D02*
X69246857Y42333381D01*
X69246857Y42333381D02*
X69104000Y42333381D01*
X69104000Y42333381D02*
X68961143Y42285762D01*
X68961143Y42285762D02*
X68865905Y42190524D01*
X68865905Y42190524D02*
X68818286Y42095286D01*
X68818286Y42095286D02*
X68770667Y41904810D01*
X68770667Y41904810D02*
X68770667Y41761953D01*
X68770667Y41761953D02*
X68818286Y41571477D01*
X68818286Y41571477D02*
X68865905Y41476239D01*
X68865905Y41476239D02*
X68961143Y41381000D01*
X68961143Y41381000D02*
X69104000Y41333381D01*
X69104000Y41333381D02*
X69199238Y41333381D01*
X69199238Y41333381D02*
X69342095Y41381000D01*
X69342095Y41381000D02*
X69389714Y41428620D01*
X69389714Y41428620D02*
X69389714Y41761953D01*
X69389714Y41761953D02*
X69199238Y41761953D01*
X69818286Y41333381D02*
X69818286Y42333381D01*
X69818286Y42333381D02*
X70389714Y41333381D01*
X70389714Y41333381D02*
X70389714Y42333381D01*
X70865905Y41333381D02*
X70865905Y42333381D01*
X70865905Y42333381D02*
X71104000Y42333381D01*
X71104000Y42333381D02*
X71246857Y42285762D01*
X71246857Y42285762D02*
X71342095Y42190524D01*
X71342095Y42190524D02*
X71389714Y42095286D01*
X71389714Y42095286D02*
X71437333Y41904810D01*
X71437333Y41904810D02*
X71437333Y41761953D01*
X71437333Y41761953D02*
X71389714Y41571477D01*
X71389714Y41571477D02*
X71342095Y41476239D01*
X71342095Y41476239D02*
X71246857Y41381000D01*
X71246857Y41381000D02*
X71104000Y41333381D01*
X71104000Y41333381D02*
X70865905Y41333381D01*
X46459000Y3278477D02*
X46516142Y3421334D01*
X46516142Y3421334D02*
X46516142Y3659429D01*
X46516142Y3659429D02*
X46459000Y3754667D01*
X46459000Y3754667D02*
X46401857Y3802286D01*
X46401857Y3802286D02*
X46287571Y3849905D01*
X46287571Y3849905D02*
X46173285Y3849905D01*
X46173285Y3849905D02*
X46059000Y3802286D01*
X46059000Y3802286D02*
X46001857Y3754667D01*
X46001857Y3754667D02*
X45944714Y3659429D01*
X45944714Y3659429D02*
X45887571Y3468953D01*
X45887571Y3468953D02*
X45830428Y3373715D01*
X45830428Y3373715D02*
X45773285Y3326096D01*
X45773285Y3326096D02*
X45659000Y3278477D01*
X45659000Y3278477D02*
X45544714Y3278477D01*
X45544714Y3278477D02*
X45430428Y3326096D01*
X45430428Y3326096D02*
X45373285Y3373715D01*
X45373285Y3373715D02*
X45316142Y3468953D01*
X45316142Y3468953D02*
X45316142Y3707048D01*
X45316142Y3707048D02*
X45373285Y3849905D01*
X45887571Y4278477D02*
X45887571Y4611810D01*
X46516142Y4754667D02*
X46516142Y4278477D01*
X46516142Y4278477D02*
X45316142Y4278477D01*
X45316142Y4278477D02*
X45316142Y4754667D01*
X46516142Y5754667D02*
X45944714Y5421334D01*
X46516142Y5183239D02*
X45316142Y5183239D01*
X45316142Y5183239D02*
X45316142Y5564191D01*
X45316142Y5564191D02*
X45373285Y5659429D01*
X45373285Y5659429D02*
X45430428Y5707048D01*
X45430428Y5707048D02*
X45544714Y5754667D01*
X45544714Y5754667D02*
X45716142Y5754667D01*
X45716142Y5754667D02*
X45830428Y5707048D01*
X45830428Y5707048D02*
X45887571Y5659429D01*
X45887571Y5659429D02*
X45944714Y5564191D01*
X45944714Y5564191D02*
X45944714Y5183239D01*
X46516142Y6183239D02*
X45316142Y6183239D01*
X46173285Y6611810D02*
X46173285Y7088000D01*
X46516142Y6516572D02*
X45316142Y6849905D01*
X45316142Y6849905D02*
X46516142Y7183238D01*
X46516142Y7992762D02*
X46516142Y7516572D01*
X46516142Y7516572D02*
X45316142Y7516572D01*
D12*
X78266704Y20982001D02*
X78304800Y20953429D01*
X78304800Y20953429D02*
X78342895Y20867715D01*
X78342895Y20867715D02*
X78342895Y20810572D01*
X78342895Y20810572D02*
X78304800Y20724858D01*
X78304800Y20724858D02*
X78228609Y20667715D01*
X78228609Y20667715D02*
X78152419Y20639144D01*
X78152419Y20639144D02*
X78000038Y20610572D01*
X78000038Y20610572D02*
X77885752Y20610572D01*
X77885752Y20610572D02*
X77733371Y20639144D01*
X77733371Y20639144D02*
X77657180Y20667715D01*
X77657180Y20667715D02*
X77580990Y20724858D01*
X77580990Y20724858D02*
X77542895Y20810572D01*
X77542895Y20810572D02*
X77542895Y20867715D01*
X77542895Y20867715D02*
X77580990Y20953429D01*
X77580990Y20953429D02*
X77619085Y20982001D01*
X77542895Y21182001D02*
X77542895Y21582001D01*
X77542895Y21582001D02*
X78342895Y21324858D01*
X43341704Y27001D02*
X43379800Y-1571D01*
X43379800Y-1571D02*
X43417895Y-87285D01*
X43417895Y-87285D02*
X43417895Y-144428D01*
X43417895Y-144428D02*
X43379800Y-230142D01*
X43379800Y-230142D02*
X43303609Y-287285D01*
X43303609Y-287285D02*
X43227419Y-315856D01*
X43227419Y-315856D02*
X43075038Y-344428D01*
X43075038Y-344428D02*
X42960752Y-344428D01*
X42960752Y-344428D02*
X42808371Y-315856D01*
X42808371Y-315856D02*
X42732180Y-287285D01*
X42732180Y-287285D02*
X42655990Y-230142D01*
X42655990Y-230142D02*
X42617895Y-144428D01*
X42617895Y-144428D02*
X42617895Y-87285D01*
X42617895Y-87285D02*
X42655990Y-1571D01*
X42655990Y-1571D02*
X42694085Y27001D01*
X42960752Y369858D02*
X42922657Y312715D01*
X42922657Y312715D02*
X42884561Y284144D01*
X42884561Y284144D02*
X42808371Y255572D01*
X42808371Y255572D02*
X42770276Y255572D01*
X42770276Y255572D02*
X42694085Y284144D01*
X42694085Y284144D02*
X42655990Y312715D01*
X42655990Y312715D02*
X42617895Y369858D01*
X42617895Y369858D02*
X42617895Y484144D01*
X42617895Y484144D02*
X42655990Y541286D01*
X42655990Y541286D02*
X42694085Y569858D01*
X42694085Y569858D02*
X42770276Y598429D01*
X42770276Y598429D02*
X42808371Y598429D01*
X42808371Y598429D02*
X42884561Y569858D01*
X42884561Y569858D02*
X42922657Y541286D01*
X42922657Y541286D02*
X42960752Y484144D01*
X42960752Y484144D02*
X42960752Y369858D01*
X42960752Y369858D02*
X42998847Y312715D01*
X42998847Y312715D02*
X43036942Y284144D01*
X43036942Y284144D02*
X43113133Y255572D01*
X43113133Y255572D02*
X43265514Y255572D01*
X43265514Y255572D02*
X43341704Y284144D01*
X43341704Y284144D02*
X43379800Y312715D01*
X43379800Y312715D02*
X43417895Y369858D01*
X43417895Y369858D02*
X43417895Y484144D01*
X43417895Y484144D02*
X43379800Y541286D01*
X43379800Y541286D02*
X43341704Y569858D01*
X43341704Y569858D02*
X43265514Y598429D01*
X43265514Y598429D02*
X43113133Y598429D01*
X43113133Y598429D02*
X43036942Y569858D01*
X43036942Y569858D02*
X42998847Y541286D01*
X42998847Y541286D02*
X42960752Y484144D01*
X49945704Y18061001D02*
X49983800Y18032429D01*
X49983800Y18032429D02*
X50021895Y17946715D01*
X50021895Y17946715D02*
X50021895Y17889572D01*
X50021895Y17889572D02*
X49983800Y17803858D01*
X49983800Y17803858D02*
X49907609Y17746715D01*
X49907609Y17746715D02*
X49831419Y17718144D01*
X49831419Y17718144D02*
X49679038Y17689572D01*
X49679038Y17689572D02*
X49564752Y17689572D01*
X49564752Y17689572D02*
X49412371Y17718144D01*
X49412371Y17718144D02*
X49336180Y17746715D01*
X49336180Y17746715D02*
X49259990Y17803858D01*
X49259990Y17803858D02*
X49221895Y17889572D01*
X49221895Y17889572D02*
X49221895Y17946715D01*
X49221895Y17946715D02*
X49259990Y18032429D01*
X49259990Y18032429D02*
X49298085Y18061001D01*
X50021895Y18346715D02*
X50021895Y18461001D01*
X50021895Y18461001D02*
X49983800Y18518144D01*
X49983800Y18518144D02*
X49945704Y18546715D01*
X49945704Y18546715D02*
X49831419Y18603858D01*
X49831419Y18603858D02*
X49679038Y18632429D01*
X49679038Y18632429D02*
X49374276Y18632429D01*
X49374276Y18632429D02*
X49298085Y18603858D01*
X49298085Y18603858D02*
X49259990Y18575286D01*
X49259990Y18575286D02*
X49221895Y18518144D01*
X49221895Y18518144D02*
X49221895Y18403858D01*
X49221895Y18403858D02*
X49259990Y18346715D01*
X49259990Y18346715D02*
X49298085Y18318144D01*
X49298085Y18318144D02*
X49374276Y18289572D01*
X49374276Y18289572D02*
X49564752Y18289572D01*
X49564752Y18289572D02*
X49640942Y18318144D01*
X49640942Y18318144D02*
X49679038Y18346715D01*
X49679038Y18346715D02*
X49717133Y18403858D01*
X49717133Y18403858D02*
X49717133Y18518144D01*
X49717133Y18518144D02*
X49679038Y18575286D01*
X49679038Y18575286D02*
X49640942Y18603858D01*
X49640942Y18603858D02*
X49564752Y18632429D01*
X59304285Y18507296D02*
X59275713Y18469200D01*
X59275713Y18469200D02*
X59189999Y18431105D01*
X59189999Y18431105D02*
X59132856Y18431105D01*
X59132856Y18431105D02*
X59047142Y18469200D01*
X59047142Y18469200D02*
X58989999Y18545391D01*
X58989999Y18545391D02*
X58961428Y18621581D01*
X58961428Y18621581D02*
X58932856Y18773962D01*
X58932856Y18773962D02*
X58932856Y18888248D01*
X58932856Y18888248D02*
X58961428Y19040629D01*
X58961428Y19040629D02*
X58989999Y19116820D01*
X58989999Y19116820D02*
X59047142Y19193010D01*
X59047142Y19193010D02*
X59132856Y19231105D01*
X59132856Y19231105D02*
X59189999Y19231105D01*
X59189999Y19231105D02*
X59275713Y19193010D01*
X59275713Y19193010D02*
X59304285Y19154915D01*
X59875713Y18431105D02*
X59532856Y18431105D01*
X59704285Y18431105D02*
X59704285Y19231105D01*
X59704285Y19231105D02*
X59647142Y19116820D01*
X59647142Y19116820D02*
X59589999Y19040629D01*
X59589999Y19040629D02*
X59532856Y19002534D01*
X60247142Y19231105D02*
X60304285Y19231105D01*
X60304285Y19231105D02*
X60361428Y19193010D01*
X60361428Y19193010D02*
X60390000Y19154915D01*
X60390000Y19154915D02*
X60418571Y19078724D01*
X60418571Y19078724D02*
X60447142Y18926343D01*
X60447142Y18926343D02*
X60447142Y18735867D01*
X60447142Y18735867D02*
X60418571Y18583486D01*
X60418571Y18583486D02*
X60390000Y18507296D01*
X60390000Y18507296D02*
X60361428Y18469200D01*
X60361428Y18469200D02*
X60304285Y18431105D01*
X60304285Y18431105D02*
X60247142Y18431105D01*
X60247142Y18431105D02*
X60190000Y18469200D01*
X60190000Y18469200D02*
X60161428Y18507296D01*
X60161428Y18507296D02*
X60132857Y18583486D01*
X60132857Y18583486D02*
X60104285Y18735867D01*
X60104285Y18735867D02*
X60104285Y18926343D01*
X60104285Y18926343D02*
X60132857Y19078724D01*
X60132857Y19078724D02*
X60161428Y19154915D01*
X60161428Y19154915D02*
X60190000Y19193010D01*
X60190000Y19193010D02*
X60247142Y19231105D01*
X35885572Y6493105D02*
X35885572Y7293105D01*
X35885572Y7293105D02*
X36114143Y7293105D01*
X36114143Y7293105D02*
X36171286Y7255010D01*
X36171286Y7255010D02*
X36199857Y7216915D01*
X36199857Y7216915D02*
X36228429Y7140724D01*
X36228429Y7140724D02*
X36228429Y7026439D01*
X36228429Y7026439D02*
X36199857Y6950248D01*
X36199857Y6950248D02*
X36171286Y6912153D01*
X36171286Y6912153D02*
X36114143Y6874058D01*
X36114143Y6874058D02*
X35885572Y6874058D01*
X36828429Y6493105D02*
X36628429Y6874058D01*
X36485572Y6493105D02*
X36485572Y7293105D01*
X36485572Y7293105D02*
X36714143Y7293105D01*
X36714143Y7293105D02*
X36771286Y7255010D01*
X36771286Y7255010D02*
X36799857Y7216915D01*
X36799857Y7216915D02*
X36828429Y7140724D01*
X36828429Y7140724D02*
X36828429Y7026439D01*
X36828429Y7026439D02*
X36799857Y6950248D01*
X36799857Y6950248D02*
X36771286Y6912153D01*
X36771286Y6912153D02*
X36714143Y6874058D01*
X36714143Y6874058D02*
X36485572Y6874058D01*
X37199857Y7293105D02*
X37314143Y7293105D01*
X37314143Y7293105D02*
X37371286Y7255010D01*
X37371286Y7255010D02*
X37428429Y7178820D01*
X37428429Y7178820D02*
X37457000Y7026439D01*
X37457000Y7026439D02*
X37457000Y6759772D01*
X37457000Y6759772D02*
X37428429Y6607391D01*
X37428429Y6607391D02*
X37371286Y6531200D01*
X37371286Y6531200D02*
X37314143Y6493105D01*
X37314143Y6493105D02*
X37199857Y6493105D01*
X37199857Y6493105D02*
X37142715Y6531200D01*
X37142715Y6531200D02*
X37085572Y6607391D01*
X37085572Y6607391D02*
X37057000Y6759772D01*
X37057000Y6759772D02*
X37057000Y7026439D01*
X37057000Y7026439D02*
X37085572Y7178820D01*
X37085572Y7178820D02*
X37142715Y7255010D01*
X37142715Y7255010D02*
X37199857Y7293105D01*
X38028428Y7255010D02*
X37971286Y7293105D01*
X37971286Y7293105D02*
X37885571Y7293105D01*
X37885571Y7293105D02*
X37799857Y7255010D01*
X37799857Y7255010D02*
X37742714Y7178820D01*
X37742714Y7178820D02*
X37714143Y7102629D01*
X37714143Y7102629D02*
X37685571Y6950248D01*
X37685571Y6950248D02*
X37685571Y6835962D01*
X37685571Y6835962D02*
X37714143Y6683581D01*
X37714143Y6683581D02*
X37742714Y6607391D01*
X37742714Y6607391D02*
X37799857Y6531200D01*
X37799857Y6531200D02*
X37885571Y6493105D01*
X37885571Y6493105D02*
X37942714Y6493105D01*
X37942714Y6493105D02*
X38028428Y6531200D01*
X38028428Y6531200D02*
X38057000Y6569296D01*
X38057000Y6569296D02*
X38057000Y6835962D01*
X38057000Y6835962D02*
X37942714Y6835962D01*
X70004000Y27727505D02*
X69804000Y28108458D01*
X69661143Y27727505D02*
X69661143Y28527505D01*
X69661143Y28527505D02*
X69889714Y28527505D01*
X69889714Y28527505D02*
X69946857Y28489410D01*
X69946857Y28489410D02*
X69975428Y28451315D01*
X69975428Y28451315D02*
X70004000Y28375124D01*
X70004000Y28375124D02*
X70004000Y28260839D01*
X70004000Y28260839D02*
X69975428Y28184648D01*
X69975428Y28184648D02*
X69946857Y28146553D01*
X69946857Y28146553D02*
X69889714Y28108458D01*
X69889714Y28108458D02*
X69661143Y28108458D01*
X70204000Y28527505D02*
X70604000Y28527505D01*
X70604000Y28527505D02*
X70346857Y27727505D01*
X40115895Y6656429D02*
X39734942Y6456429D01*
X40115895Y6313572D02*
X39315895Y6313572D01*
X39315895Y6313572D02*
X39315895Y6542143D01*
X39315895Y6542143D02*
X39353990Y6599286D01*
X39353990Y6599286D02*
X39392085Y6627857D01*
X39392085Y6627857D02*
X39468276Y6656429D01*
X39468276Y6656429D02*
X39582561Y6656429D01*
X39582561Y6656429D02*
X39658752Y6627857D01*
X39658752Y6627857D02*
X39696847Y6599286D01*
X39696847Y6599286D02*
X39734942Y6542143D01*
X39734942Y6542143D02*
X39734942Y6313572D01*
X40077800Y6885000D02*
X40115895Y6970714D01*
X40115895Y6970714D02*
X40115895Y7113572D01*
X40115895Y7113572D02*
X40077800Y7170714D01*
X40077800Y7170714D02*
X40039704Y7199286D01*
X40039704Y7199286D02*
X39963514Y7227857D01*
X39963514Y7227857D02*
X39887323Y7227857D01*
X39887323Y7227857D02*
X39811133Y7199286D01*
X39811133Y7199286D02*
X39773038Y7170714D01*
X39773038Y7170714D02*
X39734942Y7113572D01*
X39734942Y7113572D02*
X39696847Y6999286D01*
X39696847Y6999286D02*
X39658752Y6942143D01*
X39658752Y6942143D02*
X39620657Y6913572D01*
X39620657Y6913572D02*
X39544466Y6885000D01*
X39544466Y6885000D02*
X39468276Y6885000D01*
X39468276Y6885000D02*
X39392085Y6913572D01*
X39392085Y6913572D02*
X39353990Y6942143D01*
X39353990Y6942143D02*
X39315895Y6999286D01*
X39315895Y6999286D02*
X39315895Y7142143D01*
X39315895Y7142143D02*
X39353990Y7227857D01*
X39315895Y7399286D02*
X39315895Y7742143D01*
X40115895Y7570715D02*
X39315895Y7570715D01*
X73837857Y26343105D02*
X73837857Y25695486D01*
X73837857Y25695486D02*
X73866428Y25619296D01*
X73866428Y25619296D02*
X73895000Y25581200D01*
X73895000Y25581200D02*
X73952142Y25543105D01*
X73952142Y25543105D02*
X74066428Y25543105D01*
X74066428Y25543105D02*
X74123571Y25581200D01*
X74123571Y25581200D02*
X74152142Y25619296D01*
X74152142Y25619296D02*
X74180714Y25695486D01*
X74180714Y25695486D02*
X74180714Y26343105D01*
X74723571Y26076439D02*
X74723571Y25543105D01*
X74580713Y26381200D02*
X74437856Y25809772D01*
X74437856Y25809772D02*
X74809285Y25809772D01*
X74068000Y14951296D02*
X74039428Y14913200D01*
X74039428Y14913200D02*
X73953714Y14875105D01*
X73953714Y14875105D02*
X73896571Y14875105D01*
X73896571Y14875105D02*
X73810857Y14913200D01*
X73810857Y14913200D02*
X73753714Y14989391D01*
X73753714Y14989391D02*
X73725143Y15065581D01*
X73725143Y15065581D02*
X73696571Y15217962D01*
X73696571Y15217962D02*
X73696571Y15332248D01*
X73696571Y15332248D02*
X73725143Y15484629D01*
X73725143Y15484629D02*
X73753714Y15560820D01*
X73753714Y15560820D02*
X73810857Y15637010D01*
X73810857Y15637010D02*
X73896571Y15675105D01*
X73896571Y15675105D02*
X73953714Y15675105D01*
X73953714Y15675105D02*
X74039428Y15637010D01*
X74039428Y15637010D02*
X74068000Y15598915D01*
X74610857Y15675105D02*
X74325143Y15675105D01*
X74325143Y15675105D02*
X74296571Y15294153D01*
X74296571Y15294153D02*
X74325143Y15332248D01*
X74325143Y15332248D02*
X74382286Y15370343D01*
X74382286Y15370343D02*
X74525143Y15370343D01*
X74525143Y15370343D02*
X74582286Y15332248D01*
X74582286Y15332248D02*
X74610857Y15294153D01*
X74610857Y15294153D02*
X74639428Y15217962D01*
X74639428Y15217962D02*
X74639428Y15027486D01*
X74639428Y15027486D02*
X74610857Y14951296D01*
X74610857Y14951296D02*
X74582286Y14913200D01*
X74582286Y14913200D02*
X74525143Y14875105D01*
X74525143Y14875105D02*
X74382286Y14875105D01*
X74382286Y14875105D02*
X74325143Y14913200D01*
X74325143Y14913200D02*
X74296571Y14951296D01*
X35736286Y35576105D02*
X35736286Y36376105D01*
X35993428Y36299915D02*
X36022000Y36338010D01*
X36022000Y36338010D02*
X36079143Y36376105D01*
X36079143Y36376105D02*
X36222000Y36376105D01*
X36222000Y36376105D02*
X36279143Y36338010D01*
X36279143Y36338010D02*
X36307714Y36299915D01*
X36307714Y36299915D02*
X36336285Y36223724D01*
X36336285Y36223724D02*
X36336285Y36147534D01*
X36336285Y36147534D02*
X36307714Y36033248D01*
X36307714Y36033248D02*
X35964857Y35576105D01*
X35964857Y35576105D02*
X36336285Y35576105D01*
X36936286Y35652296D02*
X36907714Y35614200D01*
X36907714Y35614200D02*
X36822000Y35576105D01*
X36822000Y35576105D02*
X36764857Y35576105D01*
X36764857Y35576105D02*
X36679143Y35614200D01*
X36679143Y35614200D02*
X36622000Y35690391D01*
X36622000Y35690391D02*
X36593429Y35766581D01*
X36593429Y35766581D02*
X36564857Y35918962D01*
X36564857Y35918962D02*
X36564857Y36033248D01*
X36564857Y36033248D02*
X36593429Y36185629D01*
X36593429Y36185629D02*
X36622000Y36261820D01*
X36622000Y36261820D02*
X36679143Y36338010D01*
X36679143Y36338010D02*
X36764857Y36376105D01*
X36764857Y36376105D02*
X36822000Y36376105D01*
X36822000Y36376105D02*
X36907714Y36338010D01*
X36907714Y36338010D02*
X36936286Y36299915D01*
X72544000Y27580105D02*
X72344000Y27961058D01*
X72201143Y27580105D02*
X72201143Y28380105D01*
X72201143Y28380105D02*
X72429714Y28380105D01*
X72429714Y28380105D02*
X72486857Y28342010D01*
X72486857Y28342010D02*
X72515428Y28303915D01*
X72515428Y28303915D02*
X72544000Y28227724D01*
X72544000Y28227724D02*
X72544000Y28113439D01*
X72544000Y28113439D02*
X72515428Y28037248D01*
X72515428Y28037248D02*
X72486857Y27999153D01*
X72486857Y27999153D02*
X72429714Y27961058D01*
X72429714Y27961058D02*
X72201143Y27961058D01*
X73058286Y28380105D02*
X72944000Y28380105D01*
X72944000Y28380105D02*
X72886857Y28342010D01*
X72886857Y28342010D02*
X72858286Y28303915D01*
X72858286Y28303915D02*
X72801143Y28189629D01*
X72801143Y28189629D02*
X72772571Y28037248D01*
X72772571Y28037248D02*
X72772571Y27732486D01*
X72772571Y27732486D02*
X72801143Y27656296D01*
X72801143Y27656296D02*
X72829714Y27618200D01*
X72829714Y27618200D02*
X72886857Y27580105D01*
X72886857Y27580105D02*
X73001143Y27580105D01*
X73001143Y27580105D02*
X73058286Y27618200D01*
X73058286Y27618200D02*
X73086857Y27656296D01*
X73086857Y27656296D02*
X73115428Y27732486D01*
X73115428Y27732486D02*
X73115428Y27922962D01*
X73115428Y27922962D02*
X73086857Y27999153D01*
X73086857Y27999153D02*
X73058286Y28037248D01*
X73058286Y28037248D02*
X73001143Y28075343D01*
X73001143Y28075343D02*
X72886857Y28075343D01*
X72886857Y28075343D02*
X72829714Y28037248D01*
X72829714Y28037248D02*
X72801143Y27999153D01*
X72801143Y27999153D02*
X72772571Y27922962D01*
X69795800Y6975572D02*
X69833895Y7061286D01*
X69833895Y7061286D02*
X69833895Y7204144D01*
X69833895Y7204144D02*
X69795800Y7261286D01*
X69795800Y7261286D02*
X69757704Y7289858D01*
X69757704Y7289858D02*
X69681514Y7318429D01*
X69681514Y7318429D02*
X69605323Y7318429D01*
X69605323Y7318429D02*
X69529133Y7289858D01*
X69529133Y7289858D02*
X69491038Y7261286D01*
X69491038Y7261286D02*
X69452942Y7204144D01*
X69452942Y7204144D02*
X69414847Y7089858D01*
X69414847Y7089858D02*
X69376752Y7032715D01*
X69376752Y7032715D02*
X69338657Y7004144D01*
X69338657Y7004144D02*
X69262466Y6975572D01*
X69262466Y6975572D02*
X69186276Y6975572D01*
X69186276Y6975572D02*
X69110085Y7004144D01*
X69110085Y7004144D02*
X69071990Y7032715D01*
X69071990Y7032715D02*
X69033895Y7089858D01*
X69033895Y7089858D02*
X69033895Y7232715D01*
X69033895Y7232715D02*
X69071990Y7318429D01*
X69033895Y7518430D02*
X69833895Y7661287D01*
X69833895Y7661287D02*
X69262466Y7775573D01*
X69262466Y7775573D02*
X69833895Y7889858D01*
X69833895Y7889858D02*
X69033895Y8032715D01*
X69605323Y8232715D02*
X69605323Y8518429D01*
X69833895Y8175572D02*
X69033895Y8375572D01*
X69033895Y8375572D02*
X69833895Y8575572D01*
X65559000Y16602296D02*
X65530428Y16564200D01*
X65530428Y16564200D02*
X65444714Y16526105D01*
X65444714Y16526105D02*
X65387571Y16526105D01*
X65387571Y16526105D02*
X65301857Y16564200D01*
X65301857Y16564200D02*
X65244714Y16640391D01*
X65244714Y16640391D02*
X65216143Y16716581D01*
X65216143Y16716581D02*
X65187571Y16868962D01*
X65187571Y16868962D02*
X65187571Y16983248D01*
X65187571Y16983248D02*
X65216143Y17135629D01*
X65216143Y17135629D02*
X65244714Y17211820D01*
X65244714Y17211820D02*
X65301857Y17288010D01*
X65301857Y17288010D02*
X65387571Y17326105D01*
X65387571Y17326105D02*
X65444714Y17326105D01*
X65444714Y17326105D02*
X65530428Y17288010D01*
X65530428Y17288010D02*
X65559000Y17249915D01*
X66073286Y17326105D02*
X65959000Y17326105D01*
X65959000Y17326105D02*
X65901857Y17288010D01*
X65901857Y17288010D02*
X65873286Y17249915D01*
X65873286Y17249915D02*
X65816143Y17135629D01*
X65816143Y17135629D02*
X65787571Y16983248D01*
X65787571Y16983248D02*
X65787571Y16678486D01*
X65787571Y16678486D02*
X65816143Y16602296D01*
X65816143Y16602296D02*
X65844714Y16564200D01*
X65844714Y16564200D02*
X65901857Y16526105D01*
X65901857Y16526105D02*
X66016143Y16526105D01*
X66016143Y16526105D02*
X66073286Y16564200D01*
X66073286Y16564200D02*
X66101857Y16602296D01*
X66101857Y16602296D02*
X66130428Y16678486D01*
X66130428Y16678486D02*
X66130428Y16868962D01*
X66130428Y16868962D02*
X66101857Y16945153D01*
X66101857Y16945153D02*
X66073286Y16983248D01*
X66073286Y16983248D02*
X66016143Y17021343D01*
X66016143Y17021343D02*
X65901857Y17021343D01*
X65901857Y17021343D02*
X65844714Y16983248D01*
X65844714Y16983248D02*
X65816143Y16945153D01*
X65816143Y16945153D02*
X65787571Y16868962D01*
X68309895Y14124001D02*
X67928942Y13924001D01*
X68309895Y13781144D02*
X67509895Y13781144D01*
X67509895Y13781144D02*
X67509895Y14009715D01*
X67509895Y14009715D02*
X67547990Y14066858D01*
X67547990Y14066858D02*
X67586085Y14095429D01*
X67586085Y14095429D02*
X67662276Y14124001D01*
X67662276Y14124001D02*
X67776561Y14124001D01*
X67776561Y14124001D02*
X67852752Y14095429D01*
X67852752Y14095429D02*
X67890847Y14066858D01*
X67890847Y14066858D02*
X67928942Y14009715D01*
X67928942Y14009715D02*
X67928942Y13781144D01*
X67776561Y14638286D02*
X68309895Y14638286D01*
X67471800Y14495429D02*
X68043228Y14352572D01*
X68043228Y14352572D02*
X68043228Y14724001D01*
X39778000Y15129105D02*
X39578000Y15510058D01*
X39435143Y15129105D02*
X39435143Y15929105D01*
X39435143Y15929105D02*
X39663714Y15929105D01*
X39663714Y15929105D02*
X39720857Y15891010D01*
X39720857Y15891010D02*
X39749428Y15852915D01*
X39749428Y15852915D02*
X39778000Y15776724D01*
X39778000Y15776724D02*
X39778000Y15662439D01*
X39778000Y15662439D02*
X39749428Y15586248D01*
X39749428Y15586248D02*
X39720857Y15548153D01*
X39720857Y15548153D02*
X39663714Y15510058D01*
X39663714Y15510058D02*
X39435143Y15510058D01*
X40320857Y15929105D02*
X40035143Y15929105D01*
X40035143Y15929105D02*
X40006571Y15548153D01*
X40006571Y15548153D02*
X40035143Y15586248D01*
X40035143Y15586248D02*
X40092286Y15624343D01*
X40092286Y15624343D02*
X40235143Y15624343D01*
X40235143Y15624343D02*
X40292286Y15586248D01*
X40292286Y15586248D02*
X40320857Y15548153D01*
X40320857Y15548153D02*
X40349428Y15471962D01*
X40349428Y15471962D02*
X40349428Y15281486D01*
X40349428Y15281486D02*
X40320857Y15205296D01*
X40320857Y15205296D02*
X40292286Y15167200D01*
X40292286Y15167200D02*
X40235143Y15129105D01*
X40235143Y15129105D02*
X40092286Y15129105D01*
X40092286Y15129105D02*
X40035143Y15167200D01*
X40035143Y15167200D02*
X40006571Y15205296D01*
X56034000Y25974896D02*
X56005428Y25936800D01*
X56005428Y25936800D02*
X55919714Y25898705D01*
X55919714Y25898705D02*
X55862571Y25898705D01*
X55862571Y25898705D02*
X55776857Y25936800D01*
X55776857Y25936800D02*
X55719714Y26012991D01*
X55719714Y26012991D02*
X55691143Y26089181D01*
X55691143Y26089181D02*
X55662571Y26241562D01*
X55662571Y26241562D02*
X55662571Y26355848D01*
X55662571Y26355848D02*
X55691143Y26508229D01*
X55691143Y26508229D02*
X55719714Y26584420D01*
X55719714Y26584420D02*
X55776857Y26660610D01*
X55776857Y26660610D02*
X55862571Y26698705D01*
X55862571Y26698705D02*
X55919714Y26698705D01*
X55919714Y26698705D02*
X56005428Y26660610D01*
X56005428Y26660610D02*
X56034000Y26622515D01*
X56548286Y26432039D02*
X56548286Y25898705D01*
X56405428Y26736800D02*
X56262571Y26165372D01*
X56262571Y26165372D02*
X56634000Y26165372D01*
X76437895Y6948572D02*
X76437895Y6662858D01*
X76437895Y6662858D02*
X75637895Y6662858D01*
X76018847Y7148572D02*
X76018847Y7348572D01*
X76437895Y7434286D02*
X76437895Y7148572D01*
X76437895Y7148572D02*
X75637895Y7148572D01*
X75637895Y7148572D02*
X75637895Y7434286D01*
X76437895Y7691429D02*
X75637895Y7691429D01*
X75637895Y7691429D02*
X75637895Y7834286D01*
X75637895Y7834286D02*
X75675990Y7920000D01*
X75675990Y7920000D02*
X75752180Y7977143D01*
X75752180Y7977143D02*
X75828371Y8005714D01*
X75828371Y8005714D02*
X75980752Y8034286D01*
X75980752Y8034286D02*
X76095038Y8034286D01*
X76095038Y8034286D02*
X76247419Y8005714D01*
X76247419Y8005714D02*
X76323609Y7977143D01*
X76323609Y7977143D02*
X76399800Y7920000D01*
X76399800Y7920000D02*
X76437895Y7834286D01*
X76437895Y7834286D02*
X76437895Y7691429D01*
X75637895Y8405714D02*
X75637895Y8462857D01*
X75637895Y8462857D02*
X75675990Y8520000D01*
X75675990Y8520000D02*
X75714085Y8548571D01*
X75714085Y8548571D02*
X75790276Y8577143D01*
X75790276Y8577143D02*
X75942657Y8605714D01*
X75942657Y8605714D02*
X76133133Y8605714D01*
X76133133Y8605714D02*
X76285514Y8577143D01*
X76285514Y8577143D02*
X76361704Y8548571D01*
X76361704Y8548571D02*
X76399800Y8520000D01*
X76399800Y8520000D02*
X76437895Y8462857D01*
X76437895Y8462857D02*
X76437895Y8405714D01*
X76437895Y8405714D02*
X76399800Y8348571D01*
X76399800Y8348571D02*
X76361704Y8320000D01*
X76361704Y8320000D02*
X76285514Y8291429D01*
X76285514Y8291429D02*
X76133133Y8262857D01*
X76133133Y8262857D02*
X75942657Y8262857D01*
X75942657Y8262857D02*
X75790276Y8291429D01*
X75790276Y8291429D02*
X75714085Y8320000D01*
X75714085Y8320000D02*
X75675990Y8348571D01*
X75675990Y8348571D02*
X75637895Y8405714D01*
X49125200Y28718105D02*
X48925200Y29099058D01*
X48782343Y28718105D02*
X48782343Y29518105D01*
X48782343Y29518105D02*
X49010914Y29518105D01*
X49010914Y29518105D02*
X49068057Y29480010D01*
X49068057Y29480010D02*
X49096628Y29441915D01*
X49096628Y29441915D02*
X49125200Y29365724D01*
X49125200Y29365724D02*
X49125200Y29251439D01*
X49125200Y29251439D02*
X49096628Y29175248D01*
X49096628Y29175248D02*
X49068057Y29137153D01*
X49068057Y29137153D02*
X49010914Y29099058D01*
X49010914Y29099058D02*
X48782343Y29099058D01*
X49353771Y29441915D02*
X49382343Y29480010D01*
X49382343Y29480010D02*
X49439486Y29518105D01*
X49439486Y29518105D02*
X49582343Y29518105D01*
X49582343Y29518105D02*
X49639486Y29480010D01*
X49639486Y29480010D02*
X49668057Y29441915D01*
X49668057Y29441915D02*
X49696628Y29365724D01*
X49696628Y29365724D02*
X49696628Y29289534D01*
X49696628Y29289534D02*
X49668057Y29175248D01*
X49668057Y29175248D02*
X49325200Y28718105D01*
X49325200Y28718105D02*
X49696628Y28718105D01*
X40641600Y28591105D02*
X40441600Y28972058D01*
X40298743Y28591105D02*
X40298743Y29391105D01*
X40298743Y29391105D02*
X40527314Y29391105D01*
X40527314Y29391105D02*
X40584457Y29353010D01*
X40584457Y29353010D02*
X40613028Y29314915D01*
X40613028Y29314915D02*
X40641600Y29238724D01*
X40641600Y29238724D02*
X40641600Y29124439D01*
X40641600Y29124439D02*
X40613028Y29048248D01*
X40613028Y29048248D02*
X40584457Y29010153D01*
X40584457Y29010153D02*
X40527314Y28972058D01*
X40527314Y28972058D02*
X40298743Y28972058D01*
X40841600Y29391105D02*
X41213028Y29391105D01*
X41213028Y29391105D02*
X41013028Y29086343D01*
X41013028Y29086343D02*
X41098743Y29086343D01*
X41098743Y29086343D02*
X41155886Y29048248D01*
X41155886Y29048248D02*
X41184457Y29010153D01*
X41184457Y29010153D02*
X41213028Y28933962D01*
X41213028Y28933962D02*
X41213028Y28743486D01*
X41213028Y28743486D02*
X41184457Y28667296D01*
X41184457Y28667296D02*
X41155886Y28629200D01*
X41155886Y28629200D02*
X41098743Y28591105D01*
X41098743Y28591105D02*
X40927314Y28591105D01*
X40927314Y28591105D02*
X40870171Y28629200D01*
X40870171Y28629200D02*
X40841600Y28667296D01*
X45460000Y27016305D02*
X45260000Y27397258D01*
X45117143Y27016305D02*
X45117143Y27816305D01*
X45117143Y27816305D02*
X45345714Y27816305D01*
X45345714Y27816305D02*
X45402857Y27778210D01*
X45402857Y27778210D02*
X45431428Y27740115D01*
X45431428Y27740115D02*
X45460000Y27663924D01*
X45460000Y27663924D02*
X45460000Y27549639D01*
X45460000Y27549639D02*
X45431428Y27473448D01*
X45431428Y27473448D02*
X45402857Y27435353D01*
X45402857Y27435353D02*
X45345714Y27397258D01*
X45345714Y27397258D02*
X45117143Y27397258D01*
X45802857Y27473448D02*
X45745714Y27511543D01*
X45745714Y27511543D02*
X45717143Y27549639D01*
X45717143Y27549639D02*
X45688571Y27625829D01*
X45688571Y27625829D02*
X45688571Y27663924D01*
X45688571Y27663924D02*
X45717143Y27740115D01*
X45717143Y27740115D02*
X45745714Y27778210D01*
X45745714Y27778210D02*
X45802857Y27816305D01*
X45802857Y27816305D02*
X45917143Y27816305D01*
X45917143Y27816305D02*
X45974286Y27778210D01*
X45974286Y27778210D02*
X46002857Y27740115D01*
X46002857Y27740115D02*
X46031428Y27663924D01*
X46031428Y27663924D02*
X46031428Y27625829D01*
X46031428Y27625829D02*
X46002857Y27549639D01*
X46002857Y27549639D02*
X45974286Y27511543D01*
X45974286Y27511543D02*
X45917143Y27473448D01*
X45917143Y27473448D02*
X45802857Y27473448D01*
X45802857Y27473448D02*
X45745714Y27435353D01*
X45745714Y27435353D02*
X45717143Y27397258D01*
X45717143Y27397258D02*
X45688571Y27321067D01*
X45688571Y27321067D02*
X45688571Y27168686D01*
X45688571Y27168686D02*
X45717143Y27092496D01*
X45717143Y27092496D02*
X45745714Y27054400D01*
X45745714Y27054400D02*
X45802857Y27016305D01*
X45802857Y27016305D02*
X45917143Y27016305D01*
X45917143Y27016305D02*
X45974286Y27054400D01*
X45974286Y27054400D02*
X46002857Y27092496D01*
X46002857Y27092496D02*
X46031428Y27168686D01*
X46031428Y27168686D02*
X46031428Y27321067D01*
X46031428Y27321067D02*
X46002857Y27397258D01*
X46002857Y27397258D02*
X45974286Y27435353D01*
X45974286Y27435353D02*
X45917143Y27473448D01*
X52307895Y32031001D02*
X51926942Y31831001D01*
X52307895Y31688144D02*
X51507895Y31688144D01*
X51507895Y31688144D02*
X51507895Y31916715D01*
X51507895Y31916715D02*
X51545990Y31973858D01*
X51545990Y31973858D02*
X51584085Y32002429D01*
X51584085Y32002429D02*
X51660276Y32031001D01*
X51660276Y32031001D02*
X51774561Y32031001D01*
X51774561Y32031001D02*
X51850752Y32002429D01*
X51850752Y32002429D02*
X51888847Y31973858D01*
X51888847Y31973858D02*
X51926942Y31916715D01*
X51926942Y31916715D02*
X51926942Y31688144D01*
X52307895Y32316715D02*
X52307895Y32431001D01*
X52307895Y32431001D02*
X52269800Y32488144D01*
X52269800Y32488144D02*
X52231704Y32516715D01*
X52231704Y32516715D02*
X52117419Y32573858D01*
X52117419Y32573858D02*
X51965038Y32602429D01*
X51965038Y32602429D02*
X51660276Y32602429D01*
X51660276Y32602429D02*
X51584085Y32573858D01*
X51584085Y32573858D02*
X51545990Y32545286D01*
X51545990Y32545286D02*
X51507895Y32488144D01*
X51507895Y32488144D02*
X51507895Y32373858D01*
X51507895Y32373858D02*
X51545990Y32316715D01*
X51545990Y32316715D02*
X51584085Y32288144D01*
X51584085Y32288144D02*
X51660276Y32259572D01*
X51660276Y32259572D02*
X51850752Y32259572D01*
X51850752Y32259572D02*
X51926942Y32288144D01*
X51926942Y32288144D02*
X51965038Y32316715D01*
X51965038Y32316715D02*
X52003133Y32373858D01*
X52003133Y32373858D02*
X52003133Y32488144D01*
X52003133Y32488144D02*
X51965038Y32545286D01*
X51965038Y32545286D02*
X51926942Y32573858D01*
X51926942Y32573858D02*
X51850752Y32602429D01*
X55482895Y27452686D02*
X55101942Y27252686D01*
X55482895Y27109829D02*
X54682895Y27109829D01*
X54682895Y27109829D02*
X54682895Y27338400D01*
X54682895Y27338400D02*
X54720990Y27395543D01*
X54720990Y27395543D02*
X54759085Y27424114D01*
X54759085Y27424114D02*
X54835276Y27452686D01*
X54835276Y27452686D02*
X54949561Y27452686D01*
X54949561Y27452686D02*
X55025752Y27424114D01*
X55025752Y27424114D02*
X55063847Y27395543D01*
X55063847Y27395543D02*
X55101942Y27338400D01*
X55101942Y27338400D02*
X55101942Y27109829D01*
X55482895Y28024114D02*
X55482895Y27681257D01*
X55482895Y27852686D02*
X54682895Y27852686D01*
X54682895Y27852686D02*
X54797180Y27795543D01*
X54797180Y27795543D02*
X54873371Y27738400D01*
X54873371Y27738400D02*
X54911466Y27681257D01*
X54682895Y28395543D02*
X54682895Y28452686D01*
X54682895Y28452686D02*
X54720990Y28509829D01*
X54720990Y28509829D02*
X54759085Y28538400D01*
X54759085Y28538400D02*
X54835276Y28566972D01*
X54835276Y28566972D02*
X54987657Y28595543D01*
X54987657Y28595543D02*
X55178133Y28595543D01*
X55178133Y28595543D02*
X55330514Y28566972D01*
X55330514Y28566972D02*
X55406704Y28538400D01*
X55406704Y28538400D02*
X55444800Y28509829D01*
X55444800Y28509829D02*
X55482895Y28452686D01*
X55482895Y28452686D02*
X55482895Y28395543D01*
X55482895Y28395543D02*
X55444800Y28338400D01*
X55444800Y28338400D02*
X55406704Y28309829D01*
X55406704Y28309829D02*
X55330514Y28281258D01*
X55330514Y28281258D02*
X55178133Y28252686D01*
X55178133Y28252686D02*
X54987657Y28252686D01*
X54987657Y28252686D02*
X54835276Y28281258D01*
X54835276Y28281258D02*
X54759085Y28309829D01*
X54759085Y28309829D02*
X54720990Y28338400D01*
X54720990Y28338400D02*
X54682895Y28395543D01*
X63063485Y28337105D02*
X62863485Y28718058D01*
X62720628Y28337105D02*
X62720628Y29137105D01*
X62720628Y29137105D02*
X62949199Y29137105D01*
X62949199Y29137105D02*
X63006342Y29099010D01*
X63006342Y29099010D02*
X63034913Y29060915D01*
X63034913Y29060915D02*
X63063485Y28984724D01*
X63063485Y28984724D02*
X63063485Y28870439D01*
X63063485Y28870439D02*
X63034913Y28794248D01*
X63034913Y28794248D02*
X63006342Y28756153D01*
X63006342Y28756153D02*
X62949199Y28718058D01*
X62949199Y28718058D02*
X62720628Y28718058D01*
X63634913Y28337105D02*
X63292056Y28337105D01*
X63463485Y28337105D02*
X63463485Y29137105D01*
X63463485Y29137105D02*
X63406342Y29022820D01*
X63406342Y29022820D02*
X63349199Y28946629D01*
X63349199Y28946629D02*
X63292056Y28908534D01*
X64206342Y28337105D02*
X63863485Y28337105D01*
X64034914Y28337105D02*
X64034914Y29137105D01*
X64034914Y29137105D02*
X63977771Y29022820D01*
X63977771Y29022820D02*
X63920628Y28946629D01*
X63920628Y28946629D02*
X63863485Y28908534D01*
X42038704Y23014001D02*
X42076800Y22985429D01*
X42076800Y22985429D02*
X42114895Y22899715D01*
X42114895Y22899715D02*
X42114895Y22842572D01*
X42114895Y22842572D02*
X42076800Y22756858D01*
X42076800Y22756858D02*
X42000609Y22699715D01*
X42000609Y22699715D02*
X41924419Y22671144D01*
X41924419Y22671144D02*
X41772038Y22642572D01*
X41772038Y22642572D02*
X41657752Y22642572D01*
X41657752Y22642572D02*
X41505371Y22671144D01*
X41505371Y22671144D02*
X41429180Y22699715D01*
X41429180Y22699715D02*
X41352990Y22756858D01*
X41352990Y22756858D02*
X41314895Y22842572D01*
X41314895Y22842572D02*
X41314895Y22899715D01*
X41314895Y22899715D02*
X41352990Y22985429D01*
X41352990Y22985429D02*
X41391085Y23014001D01*
X41391085Y23242572D02*
X41352990Y23271144D01*
X41352990Y23271144D02*
X41314895Y23328286D01*
X41314895Y23328286D02*
X41314895Y23471144D01*
X41314895Y23471144D02*
X41352990Y23528286D01*
X41352990Y23528286D02*
X41391085Y23556858D01*
X41391085Y23556858D02*
X41467276Y23585429D01*
X41467276Y23585429D02*
X41543466Y23585429D01*
X41543466Y23585429D02*
X41657752Y23556858D01*
X41657752Y23556858D02*
X42114895Y23214001D01*
X42114895Y23214001D02*
X42114895Y23585429D01*
X44477000Y17618296D02*
X44448428Y17580200D01*
X44448428Y17580200D02*
X44362714Y17542105D01*
X44362714Y17542105D02*
X44305571Y17542105D01*
X44305571Y17542105D02*
X44219857Y17580200D01*
X44219857Y17580200D02*
X44162714Y17656391D01*
X44162714Y17656391D02*
X44134143Y17732581D01*
X44134143Y17732581D02*
X44105571Y17884962D01*
X44105571Y17884962D02*
X44105571Y17999248D01*
X44105571Y17999248D02*
X44134143Y18151629D01*
X44134143Y18151629D02*
X44162714Y18227820D01*
X44162714Y18227820D02*
X44219857Y18304010D01*
X44219857Y18304010D02*
X44305571Y18342105D01*
X44305571Y18342105D02*
X44362714Y18342105D01*
X44362714Y18342105D02*
X44448428Y18304010D01*
X44448428Y18304010D02*
X44477000Y18265915D01*
X44677000Y18342105D02*
X45048428Y18342105D01*
X45048428Y18342105D02*
X44848428Y18037343D01*
X44848428Y18037343D02*
X44934143Y18037343D01*
X44934143Y18037343D02*
X44991286Y17999248D01*
X44991286Y17999248D02*
X45019857Y17961153D01*
X45019857Y17961153D02*
X45048428Y17884962D01*
X45048428Y17884962D02*
X45048428Y17694486D01*
X45048428Y17694486D02*
X45019857Y17618296D01*
X45019857Y17618296D02*
X44991286Y17580200D01*
X44991286Y17580200D02*
X44934143Y17542105D01*
X44934143Y17542105D02*
X44762714Y17542105D01*
X44762714Y17542105D02*
X44705571Y17580200D01*
X44705571Y17580200D02*
X44677000Y17618296D01*
X59740857Y27054305D02*
X59740857Y26406686D01*
X59740857Y26406686D02*
X59769428Y26330496D01*
X59769428Y26330496D02*
X59798000Y26292400D01*
X59798000Y26292400D02*
X59855142Y26254305D01*
X59855142Y26254305D02*
X59969428Y26254305D01*
X59969428Y26254305D02*
X60026571Y26292400D01*
X60026571Y26292400D02*
X60055142Y26330496D01*
X60055142Y26330496D02*
X60083714Y26406686D01*
X60083714Y26406686D02*
X60083714Y27054305D01*
X60683713Y26254305D02*
X60340856Y26254305D01*
X60512285Y26254305D02*
X60512285Y27054305D01*
X60512285Y27054305D02*
X60455142Y26940020D01*
X60455142Y26940020D02*
X60397999Y26863829D01*
X60397999Y26863829D02*
X60340856Y26825734D01*
X47548857Y27105105D02*
X47548857Y26457486D01*
X47548857Y26457486D02*
X47577428Y26381296D01*
X47577428Y26381296D02*
X47606000Y26343200D01*
X47606000Y26343200D02*
X47663142Y26305105D01*
X47663142Y26305105D02*
X47777428Y26305105D01*
X47777428Y26305105D02*
X47834571Y26343200D01*
X47834571Y26343200D02*
X47863142Y26381296D01*
X47863142Y26381296D02*
X47891714Y26457486D01*
X47891714Y26457486D02*
X47891714Y27105105D01*
X48148856Y27028915D02*
X48177428Y27067010D01*
X48177428Y27067010D02*
X48234571Y27105105D01*
X48234571Y27105105D02*
X48377428Y27105105D01*
X48377428Y27105105D02*
X48434571Y27067010D01*
X48434571Y27067010D02*
X48463142Y27028915D01*
X48463142Y27028915D02*
X48491713Y26952724D01*
X48491713Y26952724D02*
X48491713Y26876534D01*
X48491713Y26876534D02*
X48463142Y26762248D01*
X48463142Y26762248D02*
X48120285Y26305105D01*
X48120285Y26305105D02*
X48491713Y26305105D01*
X62579285Y20336058D02*
X62579285Y19955105D01*
X62379285Y20755105D02*
X62579285Y20336058D01*
X62579285Y20336058D02*
X62779285Y20755105D01*
X63293571Y19955105D02*
X62950714Y19955105D01*
X63122143Y19955105D02*
X63122143Y20755105D01*
X63122143Y20755105D02*
X63065000Y20640820D01*
X63065000Y20640820D02*
X63007857Y20564629D01*
X63007857Y20564629D02*
X62950714Y20526534D01*
X40451143Y26508305D02*
X40451143Y27308305D01*
X40451143Y27308305D02*
X40594000Y27308305D01*
X40594000Y27308305D02*
X40679714Y27270210D01*
X40679714Y27270210D02*
X40736857Y27194020D01*
X40736857Y27194020D02*
X40765428Y27117829D01*
X40765428Y27117829D02*
X40794000Y26965448D01*
X40794000Y26965448D02*
X40794000Y26851162D01*
X40794000Y26851162D02*
X40765428Y26698781D01*
X40765428Y26698781D02*
X40736857Y26622591D01*
X40736857Y26622591D02*
X40679714Y26546400D01*
X40679714Y26546400D02*
X40594000Y26508305D01*
X40594000Y26508305D02*
X40451143Y26508305D01*
X41308286Y27041639D02*
X41308286Y26508305D01*
X41165428Y27346400D02*
X41022571Y26774972D01*
X41022571Y26774972D02*
X41394000Y26774972D01*
X59120143Y31551725D02*
X59120143Y32351725D01*
X59120143Y32351725D02*
X59263000Y32351725D01*
X59263000Y32351725D02*
X59348714Y32313630D01*
X59348714Y32313630D02*
X59405857Y32237440D01*
X59405857Y32237440D02*
X59434428Y32161249D01*
X59434428Y32161249D02*
X59463000Y32008868D01*
X59463000Y32008868D02*
X59463000Y31894582D01*
X59463000Y31894582D02*
X59434428Y31742201D01*
X59434428Y31742201D02*
X59405857Y31666011D01*
X59405857Y31666011D02*
X59348714Y31589820D01*
X59348714Y31589820D02*
X59263000Y31551725D01*
X59263000Y31551725D02*
X59120143Y31551725D01*
X60034428Y31551725D02*
X59691571Y31551725D01*
X59863000Y31551725D02*
X59863000Y32351725D01*
X59863000Y32351725D02*
X59805857Y32237440D01*
X59805857Y32237440D02*
X59748714Y32161249D01*
X59748714Y32161249D02*
X59691571Y32123154D01*
X55051143Y31766105D02*
X55051143Y32566105D01*
X55051143Y32566105D02*
X55194000Y32566105D01*
X55194000Y32566105D02*
X55279714Y32528010D01*
X55279714Y32528010D02*
X55336857Y32451820D01*
X55336857Y32451820D02*
X55365428Y32375629D01*
X55365428Y32375629D02*
X55394000Y32223248D01*
X55394000Y32223248D02*
X55394000Y32108962D01*
X55394000Y32108962D02*
X55365428Y31956581D01*
X55365428Y31956581D02*
X55336857Y31880391D01*
X55336857Y31880391D02*
X55279714Y31804200D01*
X55279714Y31804200D02*
X55194000Y31766105D01*
X55194000Y31766105D02*
X55051143Y31766105D01*
X55594000Y32566105D02*
X55965428Y32566105D01*
X55965428Y32566105D02*
X55765428Y32261343D01*
X55765428Y32261343D02*
X55851143Y32261343D01*
X55851143Y32261343D02*
X55908286Y32223248D01*
X55908286Y32223248D02*
X55936857Y32185153D01*
X55936857Y32185153D02*
X55965428Y32108962D01*
X55965428Y32108962D02*
X55965428Y31918486D01*
X55965428Y31918486D02*
X55936857Y31842296D01*
X55936857Y31842296D02*
X55908286Y31804200D01*
X55908286Y31804200D02*
X55851143Y31766105D01*
X55851143Y31766105D02*
X55679714Y31766105D01*
X55679714Y31766105D02*
X55622571Y31804200D01*
X55622571Y31804200D02*
X55594000Y31842296D01*
D10*
X79194819Y34537715D02*
X78718628Y34271048D01*
X79194819Y34080572D02*
X78194819Y34080572D01*
X78194819Y34080572D02*
X78194819Y34385334D01*
X78194819Y34385334D02*
X78242438Y34461524D01*
X78242438Y34461524D02*
X78290057Y34499619D01*
X78290057Y34499619D02*
X78385295Y34537715D01*
X78385295Y34537715D02*
X78528152Y34537715D01*
X78528152Y34537715D02*
X78623390Y34499619D01*
X78623390Y34499619D02*
X78671009Y34461524D01*
X78671009Y34461524D02*
X78718628Y34385334D01*
X78718628Y34385334D02*
X78718628Y34080572D01*
X79194819Y35299619D02*
X79194819Y34842476D01*
X79194819Y35071048D02*
X78194819Y35071048D01*
X78194819Y35071048D02*
X78337676Y34994857D01*
X78337676Y34994857D02*
X78432914Y34918667D01*
X78432914Y34918667D02*
X78480533Y34842476D01*
X78290057Y35604381D02*
X78242438Y35642477D01*
X78242438Y35642477D02*
X78194819Y35718667D01*
X78194819Y35718667D02*
X78194819Y35909143D01*
X78194819Y35909143D02*
X78242438Y35985334D01*
X78242438Y35985334D02*
X78290057Y36023429D01*
X78290057Y36023429D02*
X78385295Y36061524D01*
X78385295Y36061524D02*
X78480533Y36061524D01*
X78480533Y36061524D02*
X78623390Y36023429D01*
X78623390Y36023429D02*
X79194819Y35566286D01*
X79194819Y35566286D02*
X79194819Y36061524D01*
D12*
X51266495Y30938801D02*
X50885542Y30738801D01*
X51266495Y30595944D02*
X50466495Y30595944D01*
X50466495Y30595944D02*
X50466495Y30824515D01*
X50466495Y30824515D02*
X50504590Y30881658D01*
X50504590Y30881658D02*
X50542685Y30910229D01*
X50542685Y30910229D02*
X50618876Y30938801D01*
X50618876Y30938801D02*
X50733161Y30938801D01*
X50733161Y30938801D02*
X50809352Y30910229D01*
X50809352Y30910229D02*
X50847447Y30881658D01*
X50847447Y30881658D02*
X50885542Y30824515D01*
X50885542Y30824515D02*
X50885542Y30595944D01*
X51266495Y31510229D02*
X51266495Y31167372D01*
X51266495Y31338801D02*
X50466495Y31338801D01*
X50466495Y31338801D02*
X50580780Y31281658D01*
X50580780Y31281658D02*
X50656971Y31224515D01*
X50656971Y31224515D02*
X50695066Y31167372D01*
D10*
X65779714Y27839420D02*
X65741618Y27791800D01*
X65741618Y27791800D02*
X65627333Y27744181D01*
X65627333Y27744181D02*
X65551142Y27744181D01*
X65551142Y27744181D02*
X65436856Y27791800D01*
X65436856Y27791800D02*
X65360666Y27887039D01*
X65360666Y27887039D02*
X65322571Y27982277D01*
X65322571Y27982277D02*
X65284475Y28172753D01*
X65284475Y28172753D02*
X65284475Y28315610D01*
X65284475Y28315610D02*
X65322571Y28506086D01*
X65322571Y28506086D02*
X65360666Y28601324D01*
X65360666Y28601324D02*
X65436856Y28696562D01*
X65436856Y28696562D02*
X65551142Y28744181D01*
X65551142Y28744181D02*
X65627333Y28744181D01*
X65627333Y28744181D02*
X65741618Y28696562D01*
X65741618Y28696562D02*
X65779714Y28648943D01*
X66541618Y27744181D02*
X66084475Y27744181D01*
X66313047Y27744181D02*
X66313047Y28744181D01*
X66313047Y28744181D02*
X66236856Y28601324D01*
X66236856Y28601324D02*
X66160666Y28506086D01*
X66160666Y28506086D02*
X66084475Y28458467D01*
X67303523Y27744181D02*
X66846380Y27744181D01*
X67074952Y27744181D02*
X67074952Y28744181D01*
X67074952Y28744181D02*
X66998761Y28601324D01*
X66998761Y28601324D02*
X66922571Y28506086D01*
X66922571Y28506086D02*
X66846380Y28458467D01*
D12*
X42605104Y31650001D02*
X42643200Y31621429D01*
X42643200Y31621429D02*
X42681295Y31535715D01*
X42681295Y31535715D02*
X42681295Y31478572D01*
X42681295Y31478572D02*
X42643200Y31392858D01*
X42643200Y31392858D02*
X42567009Y31335715D01*
X42567009Y31335715D02*
X42490819Y31307144D01*
X42490819Y31307144D02*
X42338438Y31278572D01*
X42338438Y31278572D02*
X42224152Y31278572D01*
X42224152Y31278572D02*
X42071771Y31307144D01*
X42071771Y31307144D02*
X41995580Y31335715D01*
X41995580Y31335715D02*
X41919390Y31392858D01*
X41919390Y31392858D02*
X41881295Y31478572D01*
X41881295Y31478572D02*
X41881295Y31535715D01*
X41881295Y31535715D02*
X41919390Y31621429D01*
X41919390Y31621429D02*
X41957485Y31650001D01*
X42681295Y32221429D02*
X42681295Y31878572D01*
X42681295Y32050001D02*
X41881295Y32050001D01*
X41881295Y32050001D02*
X41995580Y31992858D01*
X41995580Y31992858D02*
X42071771Y31935715D01*
X42071771Y31935715D02*
X42109866Y31878572D01*
D15*
%TO.C,P11*%
X42164000Y40767000D02*
X52324000Y40767000D01*
X42164000Y33147000D02*
X42164000Y40767000D01*
X42164000Y33147000D02*
X52324000Y33147000D01*
X47244000Y40767000D02*
X47244000Y33147000D01*
X52324000Y40767000D02*
X57404000Y40767000D01*
X52324000Y33147000D02*
X52324000Y40767000D01*
X57404000Y40767000D02*
X57404000Y33147000D01*
X57404000Y33147000D02*
X52324000Y33147000D01*
%TO.C,P8*%
X57404000Y40767000D02*
X67564000Y40767000D01*
X57404000Y33147000D02*
X57404000Y40767000D01*
X57404000Y33147000D02*
X67564000Y33147000D01*
X62484000Y40767000D02*
X62484000Y33147000D01*
X67564000Y40767000D02*
X72644000Y40767000D01*
X67564000Y33147000D02*
X67564000Y40767000D01*
X72644000Y40767000D02*
X72644000Y33147000D01*
X72644000Y33147000D02*
X67564000Y33147000D01*
%TO.C,P2*%
X46990000Y9525000D02*
X67310000Y9525000D01*
X46990000Y3175000D02*
X46990000Y9525000D01*
X52070000Y9525000D02*
X52070000Y3175000D01*
X53975000Y3810000D02*
X60325000Y3810000D01*
X53975000Y3175000D02*
X53975000Y3810000D01*
X57150000Y5715000D02*
X57150000Y3175000D01*
X60325000Y3810000D02*
X60325000Y3175000D01*
X62230000Y9525000D02*
X62230000Y3175000D01*
X67310000Y9525000D02*
X67310000Y3175000D01*
X67310000Y3175000D02*
X46990000Y3175000D01*
X48260000Y9525000D02*
G75*
G02*
X45720000Y9525000I-1270000J0D01*
G01*
X45720000Y9525000D02*
G75*
G02*
X48260000Y9525000I1270000J0D01*
G01*
D10*
%TO.C,C7*%
X77077200Y24122000D02*
X77077200Y23122000D01*
X79132800Y23122000D02*
X79132800Y24122000D01*
%TO.C,C8*%
X42152200Y3349800D02*
X42152200Y2349800D01*
X44207800Y2349800D02*
X44207800Y3349800D01*
%TO.C,C9*%
X51570000Y17387200D02*
X52570000Y17387200D01*
X52570000Y19442800D02*
X51570000Y19442800D01*
%TO.C,C10*%
X56319800Y17387200D02*
X57319800Y17387200D01*
X57319800Y19442800D02*
X56319800Y19442800D01*
D11*
%TO.C,P9*%
X35483800Y7620000D02*
X35483800Y22860000D01*
X38404800Y22860000D02*
X38404800Y7620000D01*
X38430200Y22860000D02*
X35509200Y22860000D01*
X38430200Y20320000D02*
X35560000Y20320000D01*
X38430200Y7620000D02*
X35509200Y7620000D01*
X37211000Y23622000D02*
G75*
G02*
X36703000Y23622000I-254000J0D01*
G01*
X36703000Y23622000D02*
G75*
G02*
X37211000Y23622000I254000J0D01*
G01*
%TO.C,R7*%
X68910200Y30739000D02*
X68910200Y29850000D01*
X71043800Y30688200D02*
X71043800Y29799200D01*
%TO.C,SW2*%
X40614600Y12954000D02*
X40614600Y5842000D01*
X40614600Y5842000D02*
X41249600Y5842000D01*
X41249600Y12954000D02*
X40614600Y12954000D01*
X43789600Y12954000D02*
X44424600Y12954000D01*
X44424600Y12954000D02*
X44424600Y5842000D01*
X44424600Y5842000D02*
X43789600Y5842000D01*
%TO.C,U4*%
X67310000Y24130000D02*
X67310000Y18542000D01*
X67310000Y18542000D02*
X73660000Y18542000D01*
X67818000Y24765000D02*
X67310000Y24130000D01*
X73660000Y24765000D02*
X67818000Y24765000D01*
X73660000Y18542000D02*
X73660000Y24765000D01*
X66869355Y25845600D02*
G75*
G02*
X66148245Y25845600I-360555J0D01*
G01*
X66148245Y25845600D02*
G75*
G02*
X66869355Y25845600I360555J0D01*
G01*
X68323447Y24206200D02*
G75*
G02*
X67820553Y24206200I-251447J0D01*
G01*
X67820553Y24206200D02*
G75*
G02*
X68323447Y24206200I251447J0D01*
G01*
D10*
%TO.C,C5*%
X76335000Y14339200D02*
X77335000Y14339200D01*
X77335000Y16394800D02*
X76335000Y16394800D01*
D15*
%TO.C,P10*%
X35560000Y33274000D02*
X36195000Y33274000D01*
X35560000Y25019000D02*
X35560000Y35179000D01*
X36195000Y33274000D02*
X36195000Y26924000D01*
X36195000Y26924000D02*
X35560000Y26924000D01*
X39370000Y35179000D02*
X35560000Y35179000D01*
X39370000Y35179000D02*
X39370000Y25019000D01*
X39370000Y25019000D02*
X35560000Y25019000D01*
X40005000Y35179000D02*
G75*
G02*
X38735000Y35179000I-635000J0D01*
G01*
X38735000Y35179000D02*
G75*
G02*
X40005000Y35179000I635000J0D01*
G01*
D11*
%TO.C,R6*%
X71450200Y30739000D02*
X71450200Y29850000D01*
X73583800Y30688200D02*
X73583800Y29799200D01*
%TO.C,SW1*%
X70358000Y11938000D02*
X70358000Y4826000D01*
X70358000Y4826000D02*
X70993000Y4826000D01*
X70993000Y11938000D02*
X70358000Y11938000D01*
X73533000Y11938000D02*
X74168000Y11938000D01*
X74168000Y11938000D02*
X74168000Y4826000D01*
X74168000Y4826000D02*
X73533000Y4826000D01*
D16*
%TO.C,C6*%
X58333000Y11277600D02*
X59095000Y10515600D01*
D10*
X58335000Y16647800D02*
X59135000Y17447800D01*
X58335000Y15047800D02*
X58335000Y16647800D01*
X58335000Y11317600D02*
X58335000Y12917600D01*
D16*
X59095000Y17449800D02*
X58333000Y16687800D01*
X59095000Y10515600D02*
X64937000Y10515600D01*
D10*
X59135000Y17447800D02*
X64935000Y17447800D01*
X59135000Y10517600D02*
X58335000Y11317600D01*
X64935000Y17447800D02*
X64935000Y15047800D01*
X64935000Y12917600D02*
X64935000Y10517600D01*
X64935000Y10517600D02*
X59135000Y10517600D01*
D16*
X64937000Y17449800D02*
X59095000Y17449800D01*
D10*
X58635000Y15047800D02*
G75*
G02*
X62535000Y17147800I3000001J-900002D01*
G01*
X60735000Y17147800D02*
G75*
G02*
X64635000Y15047800I899999J-3000002D01*
G01*
X62535000Y10817600D02*
G75*
G02*
X58635000Y12917600I-899999J3000002D01*
G01*
X64635000Y12917600D02*
G75*
G02*
X60735000Y10817600I-3000001J900002D01*
G01*
X65435000Y11717600D02*
G75*
G02*
X64435000Y11717600I-500000J0D01*
G01*
X64435000Y11717600D02*
G75*
G02*
X65435000Y11717600I500000J0D01*
G01*
D11*
%TO.C,R4*%
X66878200Y12324000D02*
X66878200Y11435000D01*
X69011800Y12273200D02*
X69011800Y11384200D01*
%TO.C,R5*%
X42113200Y14427200D02*
X43002200Y14427200D01*
X42164000Y16560800D02*
X43053000Y16560800D01*
D10*
%TO.C,C4*%
X56757200Y27495200D02*
X56757200Y26495200D01*
X58812800Y26495200D02*
X58812800Y27495200D01*
D11*
%TO.C,D2*%
X76924000Y9326020D02*
X78524000Y9326020D01*
X76924000Y9226020D02*
X76924000Y9326020D01*
X76924000Y5726020D02*
X76924000Y9226020D01*
D17*
X77574140Y7526020D02*
X77574140Y7226300D01*
D10*
X77724000Y7226020D02*
X77124000Y7826020D01*
X77724000Y7226020D02*
X78324000Y7826020D01*
D17*
X77873860Y7526020D02*
X77574140Y7526020D01*
X77873860Y7526020D02*
X77873860Y7226300D01*
X77873860Y7226300D02*
X77574140Y7226300D01*
D10*
X78324000Y7826020D02*
X77724000Y7226020D01*
D11*
X78524000Y9326020D02*
X78524000Y5726020D01*
X78524000Y5726020D02*
X76924000Y5726020D01*
D10*
X78765421Y7126020D02*
G75*
G02*
X78482579Y7126020I-141421J0D01*
G01*
X78482579Y7126020D02*
G75*
G02*
X78765421Y7126020I141421J0D01*
G01*
D18*
%TO.C,P6*%
X38603358Y4293942D02*
X38939664Y4236984D01*
X39268564Y4141815D01*
X39586521Y4008449D01*
X39889997Y3836896D01*
X39913490Y3821558D01*
X40200262Y3607566D01*
X40456748Y3364612D01*
X40681691Y3094546D01*
X40873833Y2799216D01*
X41031919Y2480472D01*
X41154692Y2140164D01*
X41215681Y1905036D01*
X41241412Y1748782D01*
X41257701Y1563580D01*
X41264571Y1361745D01*
X41262045Y1155589D01*
X41250147Y957426D01*
X41228899Y779571D01*
X41213391Y695584D01*
X41117617Y347470D01*
X40985487Y19323D01*
X40818972Y-286864D01*
X40620044Y-569097D01*
X40390675Y-825384D01*
X40132837Y-1053731D01*
X39848502Y-1252144D01*
X39539641Y-1418631D01*
X39208227Y-1551199D01*
X38906242Y-1636658D01*
X38794374Y-1656219D01*
X38651514Y-1671686D01*
X38488569Y-1682760D01*
X38316447Y-1689144D01*
X38146055Y-1690540D01*
X37988303Y-1686650D01*
X37854097Y-1677177D01*
X37781666Y-1667360D01*
X37427005Y-1583929D01*
X37091560Y-1463843D01*
X36777347Y-1309034D01*
X36486385Y-1121436D01*
X36220692Y-902980D01*
X35982283Y-655598D01*
X35773178Y-381224D01*
X35595392Y-81788D01*
X35450944Y240775D01*
X35341852Y584535D01*
X35315623Y694667D01*
X35294998Y819291D01*
X35279769Y974029D01*
X35270210Y1146974D01*
X35269642Y1175159D01*
X35435821Y1175159D01*
X35470727Y835193D01*
X35519478Y600827D01*
X35621770Y281469D01*
X35760820Y-20321D01*
X35933821Y-302038D01*
X36137969Y-561179D01*
X36370457Y-795237D01*
X36628480Y-1001708D01*
X36909232Y-1178087D01*
X37209908Y-1321870D01*
X37527703Y-1430552D01*
X37859810Y-1501629D01*
X37877362Y-1504241D01*
X38001888Y-1516772D01*
X38152862Y-1523424D01*
X38314802Y-1524157D01*
X38472228Y-1518928D01*
X38609656Y-1507698D01*
X38622015Y-1506205D01*
X38952487Y-1443956D01*
X39269787Y-1343186D01*
X39571081Y-1206429D01*
X39853533Y-1036217D01*
X40114307Y-835081D01*
X40350566Y-605554D01*
X40559474Y-350168D01*
X40738197Y-71456D01*
X40883897Y228050D01*
X40993739Y545818D01*
X41016198Y631622D01*
X41053726Y816562D01*
X41080996Y1016209D01*
X41096518Y1214806D01*
X41098797Y1396594D01*
X41095266Y1466588D01*
X41048885Y1822253D01*
X40964456Y2159700D01*
X40842210Y2478420D01*
X40682377Y2777904D01*
X40485190Y3057643D01*
X40261005Y3307100D01*
X40004756Y3535653D01*
X39732008Y3726851D01*
X39439403Y3882509D01*
X39123584Y4004440D01*
X38818833Y4086378D01*
X38652543Y4113358D01*
X38458948Y4129077D01*
X38251544Y4133557D01*
X38043828Y4126823D01*
X37849295Y4108895D01*
X37702637Y4084501D01*
X37368197Y3992466D01*
X37051794Y3863892D01*
X36755966Y3701042D01*
X36483254Y3506179D01*
X36236195Y3281565D01*
X36017330Y3029462D01*
X35829198Y2752134D01*
X35674338Y2451842D01*
X35572936Y2186917D01*
X35487108Y1856452D01*
X35441342Y1517389D01*
X35435821Y1175159D01*
X35269642Y1175159D01*
X35266592Y1326217D01*
X35269191Y1499851D01*
X35278278Y1655967D01*
X35291077Y1764547D01*
X35366474Y2109292D01*
X35480035Y2440497D01*
X35629614Y2754845D01*
X35813069Y3049019D01*
X36028254Y3319701D01*
X36273024Y3563576D01*
X36545236Y3777325D01*
X36628083Y3832612D01*
X36934542Y4005164D01*
X37254819Y4139435D01*
X37585377Y4235437D01*
X37922677Y4293180D01*
X38263184Y4312678D01*
X38603358Y4293942D01*
G36*
X38603358Y4293942D02*
G01*
X38939664Y4236984D01*
X39268564Y4141815D01*
X39586521Y4008449D01*
X39889997Y3836896D01*
X39913490Y3821558D01*
X40200262Y3607566D01*
X40456748Y3364612D01*
X40681691Y3094546D01*
X40873833Y2799216D01*
X41031919Y2480472D01*
X41154692Y2140164D01*
X41215681Y1905036D01*
X41241412Y1748782D01*
X41257701Y1563580D01*
X41264571Y1361745D01*
X41262045Y1155589D01*
X41250147Y957426D01*
X41228899Y779571D01*
X41213391Y695584D01*
X41117617Y347470D01*
X40985487Y19323D01*
X40818972Y-286864D01*
X40620044Y-569097D01*
X40390675Y-825384D01*
X40132837Y-1053731D01*
X39848502Y-1252144D01*
X39539641Y-1418631D01*
X39208227Y-1551199D01*
X38906242Y-1636658D01*
X38794374Y-1656219D01*
X38651514Y-1671686D01*
X38488569Y-1682760D01*
X38316447Y-1689144D01*
X38146055Y-1690540D01*
X37988303Y-1686650D01*
X37854097Y-1677177D01*
X37781666Y-1667360D01*
X37427005Y-1583929D01*
X37091560Y-1463843D01*
X36777347Y-1309034D01*
X36486385Y-1121436D01*
X36220692Y-902980D01*
X35982283Y-655598D01*
X35773178Y-381224D01*
X35595392Y-81788D01*
X35450944Y240775D01*
X35341852Y584535D01*
X35315623Y694667D01*
X35294998Y819291D01*
X35279769Y974029D01*
X35270210Y1146974D01*
X35269642Y1175159D01*
X35435821Y1175159D01*
X35470727Y835193D01*
X35519478Y600827D01*
X35621770Y281469D01*
X35760820Y-20321D01*
X35933821Y-302038D01*
X36137969Y-561179D01*
X36370457Y-795237D01*
X36628480Y-1001708D01*
X36909232Y-1178087D01*
X37209908Y-1321870D01*
X37527703Y-1430552D01*
X37859810Y-1501629D01*
X37877362Y-1504241D01*
X38001888Y-1516772D01*
X38152862Y-1523424D01*
X38314802Y-1524157D01*
X38472228Y-1518928D01*
X38609656Y-1507698D01*
X38622015Y-1506205D01*
X38952487Y-1443956D01*
X39269787Y-1343186D01*
X39571081Y-1206429D01*
X39853533Y-1036217D01*
X40114307Y-835081D01*
X40350566Y-605554D01*
X40559474Y-350168D01*
X40738197Y-71456D01*
X40883897Y228050D01*
X40993739Y545818D01*
X41016198Y631622D01*
X41053726Y816562D01*
X41080996Y1016209D01*
X41096518Y1214806D01*
X41098797Y1396594D01*
X41095266Y1466588D01*
X41048885Y1822253D01*
X40964456Y2159700D01*
X40842210Y2478420D01*
X40682377Y2777904D01*
X40485190Y3057643D01*
X40261005Y3307100D01*
X40004756Y3535653D01*
X39732008Y3726851D01*
X39439403Y3882509D01*
X39123584Y4004440D01*
X38818833Y4086378D01*
X38652543Y4113358D01*
X38458948Y4129077D01*
X38251544Y4133557D01*
X38043828Y4126823D01*
X37849295Y4108895D01*
X37702637Y4084501D01*
X37368197Y3992466D01*
X37051794Y3863892D01*
X36755966Y3701042D01*
X36483254Y3506179D01*
X36236195Y3281565D01*
X36017330Y3029462D01*
X35829198Y2752134D01*
X35674338Y2451842D01*
X35572936Y2186917D01*
X35487108Y1856452D01*
X35441342Y1517389D01*
X35435821Y1175159D01*
X35269642Y1175159D01*
X35266592Y1326217D01*
X35269191Y1499851D01*
X35278278Y1655967D01*
X35291077Y1764547D01*
X35366474Y2109292D01*
X35480035Y2440497D01*
X35629614Y2754845D01*
X35813069Y3049019D01*
X36028254Y3319701D01*
X36273024Y3563576D01*
X36545236Y3777325D01*
X36628083Y3832612D01*
X36934542Y4005164D01*
X37254819Y4139435D01*
X37585377Y4235437D01*
X37922677Y4293180D01*
X38263184Y4312678D01*
X38603358Y4293942D01*
G37*
X38574959Y42295036D02*
X38869715Y42254136D01*
X39150561Y42183366D01*
X39427435Y42080546D01*
X39552040Y42023882D01*
X39871178Y41848533D01*
X40161259Y41642821D01*
X40421114Y41408232D01*
X40649574Y41146255D01*
X40845470Y40858375D01*
X41007631Y40546080D01*
X41134890Y40210856D01*
X41214548Y39909905D01*
X41240200Y39751962D01*
X41256773Y39566435D01*
X41264254Y39365627D01*
X41262632Y39161842D01*
X41251895Y38967382D01*
X41232033Y38794551D01*
X41215681Y38706132D01*
X41116254Y38349435D01*
X40980509Y38012572D01*
X40809411Y37697804D01*
X40740380Y37591846D01*
X40663865Y37490871D01*
X40562333Y37373045D01*
X40444298Y37246893D01*
X40318275Y37120943D01*
X40192778Y37003722D01*
X40076321Y36903757D01*
X39983000Y36833345D01*
X39707346Y36667756D01*
X39406471Y36527432D01*
X39092289Y36417317D01*
X38818833Y36350219D01*
X38697483Y36332259D01*
X38547219Y36318596D01*
X38381285Y36309666D01*
X38212924Y36305909D01*
X38055379Y36307762D01*
X37921894Y36315663D01*
X37887530Y36319402D01*
X37545567Y36382844D01*
X37217678Y36484524D01*
X36906377Y36621955D01*
X36614178Y36792650D01*
X36343596Y36994121D01*
X36097145Y37223884D01*
X35877338Y37479449D01*
X35686692Y37758331D01*
X35527719Y38058042D01*
X35402933Y38376097D01*
X35314851Y38710007D01*
X35283578Y38894962D01*
X35270267Y39041965D01*
X35265352Y39218410D01*
X35438506Y39218410D01*
X35438520Y39218000D01*
X35458871Y38935211D01*
X35501644Y38676979D01*
X35570149Y38430089D01*
X35667697Y38181325D01*
X35732735Y38043333D01*
X35901519Y37749757D01*
X36103599Y37480144D01*
X36335750Y37237048D01*
X36594747Y37023027D01*
X36877364Y36840635D01*
X37180374Y36692429D01*
X37500554Y36580964D01*
X37616010Y36551120D01*
X37940751Y36494378D01*
X38270016Y36474900D01*
X38594724Y36492925D01*
X38777213Y36520624D01*
X39103180Y36600584D01*
X39406113Y36713431D01*
X39690050Y36861322D01*
X39959027Y37046414D01*
X40217081Y37270863D01*
X40259598Y37312534D01*
X40486903Y37562848D01*
X40675635Y37824147D01*
X40828493Y38101499D01*
X40948170Y38399976D01*
X41037364Y38724646D01*
X41054708Y38807918D01*
X41075576Y38953720D01*
X41088108Y39126989D01*
X41092301Y39313895D01*
X41088147Y39500606D01*
X41075641Y39673290D01*
X41055121Y39816380D01*
X40967562Y40156148D01*
X40843286Y40476909D01*
X40684423Y40776489D01*
X40493099Y41052711D01*
X40271444Y41303400D01*
X40021585Y41526380D01*
X39745649Y41719476D01*
X39445766Y41880511D01*
X39124063Y42007310D01*
X38834671Y42086630D01*
X38705661Y42108073D01*
X38547678Y42123299D01*
X38373670Y42132000D01*
X38196584Y42133872D01*
X38029364Y42128605D01*
X37884959Y42115895D01*
X37844914Y42110080D01*
X37526971Y42039750D01*
X37217840Y41935901D01*
X36925668Y41801932D01*
X36658605Y41641238D01*
X36573589Y41580076D01*
X36307435Y41353943D01*
X36074263Y41102824D01*
X35875335Y40829343D01*
X35711912Y40536127D01*
X35585256Y40225800D01*
X35496629Y39900988D01*
X35447291Y39564316D01*
X35438506Y39218410D01*
X35265352Y39218410D01*
X35265186Y39224346D01*
X35268467Y39434712D01*
X35288210Y39714632D01*
X35329517Y39971351D01*
X35395426Y40219731D01*
X35473033Y40435323D01*
X35620187Y40747750D01*
X35802883Y41039890D01*
X36018125Y41308977D01*
X36262917Y41552242D01*
X36534264Y41766921D01*
X36829169Y41950245D01*
X37144638Y42099448D01*
X37358333Y42176514D01*
X37600364Y42242516D01*
X37842285Y42284723D01*
X38099044Y42305328D01*
X38256354Y42308249D01*
X38574959Y42295036D01*
G36*
X38574959Y42295036D02*
G01*
X38869715Y42254136D01*
X39150561Y42183366D01*
X39427435Y42080546D01*
X39552040Y42023882D01*
X39871178Y41848533D01*
X40161259Y41642821D01*
X40421114Y41408232D01*
X40649574Y41146255D01*
X40845470Y40858375D01*
X41007631Y40546080D01*
X41134890Y40210856D01*
X41214548Y39909905D01*
X41240200Y39751962D01*
X41256773Y39566435D01*
X41264254Y39365627D01*
X41262632Y39161842D01*
X41251895Y38967382D01*
X41232033Y38794551D01*
X41215681Y38706132D01*
X41116254Y38349435D01*
X40980509Y38012572D01*
X40809411Y37697804D01*
X40740380Y37591846D01*
X40663865Y37490871D01*
X40562333Y37373045D01*
X40444298Y37246893D01*
X40318275Y37120943D01*
X40192778Y37003722D01*
X40076321Y36903757D01*
X39983000Y36833345D01*
X39707346Y36667756D01*
X39406471Y36527432D01*
X39092289Y36417317D01*
X38818833Y36350219D01*
X38697483Y36332259D01*
X38547219Y36318596D01*
X38381285Y36309666D01*
X38212924Y36305909D01*
X38055379Y36307762D01*
X37921894Y36315663D01*
X37887530Y36319402D01*
X37545567Y36382844D01*
X37217678Y36484524D01*
X36906377Y36621955D01*
X36614178Y36792650D01*
X36343596Y36994121D01*
X36097145Y37223884D01*
X35877338Y37479449D01*
X35686692Y37758331D01*
X35527719Y38058042D01*
X35402933Y38376097D01*
X35314851Y38710007D01*
X35283578Y38894962D01*
X35270267Y39041965D01*
X35265352Y39218410D01*
X35438506Y39218410D01*
X35438520Y39218000D01*
X35458871Y38935211D01*
X35501644Y38676979D01*
X35570149Y38430089D01*
X35667697Y38181325D01*
X35732735Y38043333D01*
X35901519Y37749757D01*
X36103599Y37480144D01*
X36335750Y37237048D01*
X36594747Y37023027D01*
X36877364Y36840635D01*
X37180374Y36692429D01*
X37500554Y36580964D01*
X37616010Y36551120D01*
X37940751Y36494378D01*
X38270016Y36474900D01*
X38594724Y36492925D01*
X38777213Y36520624D01*
X39103180Y36600584D01*
X39406113Y36713431D01*
X39690050Y36861322D01*
X39959027Y37046414D01*
X40217081Y37270863D01*
X40259598Y37312534D01*
X40486903Y37562848D01*
X40675635Y37824147D01*
X40828493Y38101499D01*
X40948170Y38399976D01*
X41037364Y38724646D01*
X41054708Y38807918D01*
X41075576Y38953720D01*
X41088108Y39126989D01*
X41092301Y39313895D01*
X41088147Y39500606D01*
X41075641Y39673290D01*
X41055121Y39816380D01*
X40967562Y40156148D01*
X40843286Y40476909D01*
X40684423Y40776489D01*
X40493099Y41052711D01*
X40271444Y41303400D01*
X40021585Y41526380D01*
X39745649Y41719476D01*
X39445766Y41880511D01*
X39124063Y42007310D01*
X38834671Y42086630D01*
X38705661Y42108073D01*
X38547678Y42123299D01*
X38373670Y42132000D01*
X38196584Y42133872D01*
X38029364Y42128605D01*
X37884959Y42115895D01*
X37844914Y42110080D01*
X37526971Y42039750D01*
X37217840Y41935901D01*
X36925668Y41801932D01*
X36658605Y41641238D01*
X36573589Y41580076D01*
X36307435Y41353943D01*
X36074263Y41102824D01*
X35875335Y40829343D01*
X35711912Y40536127D01*
X35585256Y40225800D01*
X35496629Y39900988D01*
X35447291Y39564316D01*
X35438506Y39218410D01*
X35265352Y39218410D01*
X35265186Y39224346D01*
X35268467Y39434712D01*
X35288210Y39714632D01*
X35329517Y39971351D01*
X35395426Y40219731D01*
X35473033Y40435323D01*
X35620187Y40747750D01*
X35802883Y41039890D01*
X36018125Y41308977D01*
X36262917Y41552242D01*
X36534264Y41766921D01*
X36829169Y41950245D01*
X37144638Y42099448D01*
X37358333Y42176514D01*
X37600364Y42242516D01*
X37842285Y42284723D01*
X38099044Y42305328D01*
X38256354Y42308249D01*
X38574959Y42295036D01*
G37*
X76695001Y4283802D02*
X77032331Y4215534D01*
X77363709Y4107639D01*
X77646512Y3980187D01*
X77948944Y3801646D01*
X78225664Y3590822D01*
X78474663Y3350511D01*
X78693930Y3083507D01*
X78881457Y2792605D01*
X79035232Y2480599D01*
X79153246Y2150285D01*
X79233489Y1804455D01*
X79240089Y1764547D01*
X79254819Y1632257D01*
X79262832Y1472479D01*
X79264401Y1297121D01*
X79259798Y1118092D01*
X79249298Y947298D01*
X79233172Y796649D01*
X79215543Y694667D01*
X79118775Y348818D01*
X78985870Y21695D01*
X78818994Y-284355D01*
X78620316Y-566987D01*
X78392004Y-823857D01*
X78136226Y-1052619D01*
X77855150Y-1250929D01*
X77550944Y-1416440D01*
X77225776Y-1546808D01*
X77109964Y-1582962D01*
X76869658Y-1642141D01*
X76630103Y-1678264D01*
X76375342Y-1693394D01*
X76252083Y-1693910D01*
X76138662Y-1692195D01*
X76035489Y-1689661D01*
X75952459Y-1686616D01*
X75899465Y-1683374D01*
X75892250Y-1682593D01*
X75548445Y-1617279D01*
X75216502Y-1513226D01*
X74899765Y-1372711D01*
X74601580Y-1198007D01*
X74325291Y-991390D01*
X74074243Y-755135D01*
X73851782Y-491519D01*
X73661252Y-202815D01*
X73627039Y-141835D01*
X73522205Y73956D01*
X73428191Y312713D01*
X73352092Y555236D01*
X73317961Y694673D01*
X73291517Y856867D01*
X73274452Y1045987D01*
X73266911Y1246523D01*
X73438837Y1246523D01*
X73447370Y1045299D01*
X73466554Y861666D01*
X73485698Y753644D01*
X73581070Y409312D01*
X73711813Y86636D01*
X73876319Y-212588D01*
X74072980Y-486563D01*
X74300189Y-733492D01*
X74556338Y-951577D01*
X74839819Y-1139021D01*
X75149023Y-1294028D01*
X75403973Y-1390261D01*
X75686051Y-1464881D01*
X75983444Y-1511011D01*
X76283007Y-1527425D01*
X76571592Y-1512901D01*
X76635895Y-1504936D01*
X76975329Y-1437149D01*
X77298084Y-1331861D01*
X77601867Y-1191380D01*
X77884388Y-1018018D01*
X78143356Y-814085D01*
X78376479Y-581892D01*
X78581467Y-323748D01*
X78756028Y-41965D01*
X78897872Y261148D01*
X79004707Y583279D01*
X79074242Y922119D01*
X79079376Y959250D01*
X79091338Y1098932D01*
X79095261Y1263571D01*
X79091646Y1439008D01*
X79080995Y1611086D01*
X79063809Y1765649D01*
X79047522Y1858834D01*
X78954005Y2198857D01*
X78824371Y2519326D01*
X78660326Y2817985D01*
X78463578Y3092582D01*
X78235833Y3340861D01*
X77978800Y3560569D01*
X77694185Y3749451D01*
X77560243Y3822424D01*
X77317839Y3936115D01*
X77088140Y4020860D01*
X76859221Y4079491D01*
X76619156Y4114842D01*
X76356022Y4129744D01*
X76262666Y4130658D01*
X76052786Y4126333D01*
X75870296Y4111801D01*
X75700986Y4084710D01*
X75530650Y4042714D01*
X75345079Y3983463D01*
X75320750Y3974954D01*
X75009182Y3843151D01*
X74718357Y3676025D01*
X74450701Y3476415D01*
X74208639Y3247165D01*
X73994598Y2991115D01*
X73811001Y2711105D01*
X73660275Y2409979D01*
X73544846Y2090576D01*
X73478133Y1816500D01*
X73454119Y1646049D01*
X73441053Y1451415D01*
X73438837Y1246523D01*
X73266911Y1246523D01*
X73266790Y1249717D01*
X73268558Y1455744D01*
X73279779Y1651752D01*
X73300479Y1825426D01*
X73315485Y1905036D01*
X73412082Y2256245D01*
X73541285Y2581429D01*
X73704552Y2883226D01*
X73903337Y3164275D01*
X74139098Y3427217D01*
X74174286Y3461907D01*
X74441574Y3693095D01*
X74729055Y3888558D01*
X75033463Y4047809D01*
X75351528Y4170359D01*
X75679983Y4255722D01*
X76015559Y4303408D01*
X76354987Y4312931D01*
X76695001Y4283802D01*
G36*
X76695001Y4283802D02*
G01*
X77032331Y4215534D01*
X77363709Y4107639D01*
X77646512Y3980187D01*
X77948944Y3801646D01*
X78225664Y3590822D01*
X78474663Y3350511D01*
X78693930Y3083507D01*
X78881457Y2792605D01*
X79035232Y2480599D01*
X79153246Y2150285D01*
X79233489Y1804455D01*
X79240089Y1764547D01*
X79254819Y1632257D01*
X79262832Y1472479D01*
X79264401Y1297121D01*
X79259798Y1118092D01*
X79249298Y947298D01*
X79233172Y796649D01*
X79215543Y694667D01*
X79118775Y348818D01*
X78985870Y21695D01*
X78818994Y-284355D01*
X78620316Y-566987D01*
X78392004Y-823857D01*
X78136226Y-1052619D01*
X77855150Y-1250929D01*
X77550944Y-1416440D01*
X77225776Y-1546808D01*
X77109964Y-1582962D01*
X76869658Y-1642141D01*
X76630103Y-1678264D01*
X76375342Y-1693394D01*
X76252083Y-1693910D01*
X76138662Y-1692195D01*
X76035489Y-1689661D01*
X75952459Y-1686616D01*
X75899465Y-1683374D01*
X75892250Y-1682593D01*
X75548445Y-1617279D01*
X75216502Y-1513226D01*
X74899765Y-1372711D01*
X74601580Y-1198007D01*
X74325291Y-991390D01*
X74074243Y-755135D01*
X73851782Y-491519D01*
X73661252Y-202815D01*
X73627039Y-141835D01*
X73522205Y73956D01*
X73428191Y312713D01*
X73352092Y555236D01*
X73317961Y694673D01*
X73291517Y856867D01*
X73274452Y1045987D01*
X73266911Y1246523D01*
X73438837Y1246523D01*
X73447370Y1045299D01*
X73466554Y861666D01*
X73485698Y753644D01*
X73581070Y409312D01*
X73711813Y86636D01*
X73876319Y-212588D01*
X74072980Y-486563D01*
X74300189Y-733492D01*
X74556338Y-951577D01*
X74839819Y-1139021D01*
X75149023Y-1294028D01*
X75403973Y-1390261D01*
X75686051Y-1464881D01*
X75983444Y-1511011D01*
X76283007Y-1527425D01*
X76571592Y-1512901D01*
X76635895Y-1504936D01*
X76975329Y-1437149D01*
X77298084Y-1331861D01*
X77601867Y-1191380D01*
X77884388Y-1018018D01*
X78143356Y-814085D01*
X78376479Y-581892D01*
X78581467Y-323748D01*
X78756028Y-41965D01*
X78897872Y261148D01*
X79004707Y583279D01*
X79074242Y922119D01*
X79079376Y959250D01*
X79091338Y1098932D01*
X79095261Y1263571D01*
X79091646Y1439008D01*
X79080995Y1611086D01*
X79063809Y1765649D01*
X79047522Y1858834D01*
X78954005Y2198857D01*
X78824371Y2519326D01*
X78660326Y2817985D01*
X78463578Y3092582D01*
X78235833Y3340861D01*
X77978800Y3560569D01*
X77694185Y3749451D01*
X77560243Y3822424D01*
X77317839Y3936115D01*
X77088140Y4020860D01*
X76859221Y4079491D01*
X76619156Y4114842D01*
X76356022Y4129744D01*
X76262666Y4130658D01*
X76052786Y4126333D01*
X75870296Y4111801D01*
X75700986Y4084710D01*
X75530650Y4042714D01*
X75345079Y3983463D01*
X75320750Y3974954D01*
X75009182Y3843151D01*
X74718357Y3676025D01*
X74450701Y3476415D01*
X74208639Y3247165D01*
X73994598Y2991115D01*
X73811001Y2711105D01*
X73660275Y2409979D01*
X73544846Y2090576D01*
X73478133Y1816500D01*
X73454119Y1646049D01*
X73441053Y1451415D01*
X73438837Y1246523D01*
X73266911Y1246523D01*
X73266790Y1249717D01*
X73268558Y1455744D01*
X73279779Y1651752D01*
X73300479Y1825426D01*
X73315485Y1905036D01*
X73412082Y2256245D01*
X73541285Y2581429D01*
X73704552Y2883226D01*
X73903337Y3164275D01*
X74139098Y3427217D01*
X74174286Y3461907D01*
X74441574Y3693095D01*
X74729055Y3888558D01*
X75033463Y4047809D01*
X75351528Y4170359D01*
X75679983Y4255722D01*
X76015559Y4303408D01*
X76354987Y4312931D01*
X76695001Y4283802D01*
G37*
X76469473Y42301838D02*
X76630123Y42292170D01*
X76753073Y42277216D01*
X77103451Y42198211D01*
X77435976Y42080938D01*
X77749607Y41925931D01*
X78043304Y41733724D01*
X78316026Y41504850D01*
X78380925Y41441848D01*
X78604120Y41198573D01*
X78790318Y40949412D01*
X78943860Y40686736D01*
X79069084Y40402916D01*
X79170333Y40090324D01*
X79188373Y40022573D01*
X79214413Y39914928D01*
X79233147Y39818302D01*
X79246177Y39720007D01*
X79255109Y39607350D01*
X79261548Y39467640D01*
X79262698Y39434712D01*
X79262093Y39123183D01*
X79236951Y38838010D01*
X79185374Y38569778D01*
X79105461Y38309070D01*
X78995314Y38046470D01*
X78973423Y38000917D01*
X78797189Y37686769D01*
X78589827Y37399727D01*
X78353576Y37141610D01*
X78090678Y36914236D01*
X77803373Y36719426D01*
X77493901Y36558998D01*
X77164504Y36434773D01*
X76982333Y36384166D01*
X76718655Y36333751D01*
X76439288Y36305660D01*
X76160847Y36300881D01*
X75902833Y36320028D01*
X75554857Y36385548D01*
X75214561Y36490726D01*
X74888327Y36633145D01*
X74582537Y36810385D01*
X74548166Y36833438D01*
X74447984Y36909397D01*
X74330777Y37010606D01*
X74205054Y37128546D01*
X74079321Y37254699D01*
X73962084Y37380546D01*
X73861852Y37497570D01*
X73790785Y37591846D01*
X73607373Y37898231D01*
X73458973Y38227513D01*
X73346549Y38577430D01*
X73315485Y38706132D01*
X73290126Y38860023D01*
X73273900Y39042944D01*
X73266796Y39242593D01*
X73267445Y39308700D01*
X73438843Y39308700D01*
X73443360Y39121126D01*
X73456318Y38947450D01*
X73476813Y38806018D01*
X73563011Y38464475D01*
X73683257Y38147245D01*
X73838818Y37851856D01*
X74030964Y37575830D01*
X74217325Y37361562D01*
X74475025Y37120961D01*
X74753958Y36916540D01*
X75052439Y36749152D01*
X75368788Y36619649D01*
X75701321Y36528880D01*
X75941890Y36488961D01*
X76094674Y36477647D01*
X76273195Y36476648D01*
X76462309Y36485288D01*
X76646870Y36502890D01*
X76805394Y36527531D01*
X77137985Y36613187D01*
X77452678Y36735939D01*
X77747211Y36893542D01*
X78019322Y37083755D01*
X78266752Y37304334D01*
X78487237Y37553034D01*
X78678518Y37827614D01*
X78838333Y38125828D01*
X78964421Y38445435D01*
X79047805Y38752334D01*
X79070020Y38889231D01*
X79085287Y39054286D01*
X79093293Y39233846D01*
X79093725Y39414258D01*
X79086272Y39581870D01*
X79070620Y39723029D01*
X79070096Y39726252D01*
X78993087Y40074227D01*
X78879772Y40400504D01*
X78729961Y40705471D01*
X78543465Y40989514D01*
X78323354Y41249601D01*
X78079501Y41481001D01*
X77822075Y41675344D01*
X77545833Y41835702D01*
X77245531Y41965152D01*
X76940152Y42060470D01*
X76851160Y42083231D01*
X76776220Y42099924D01*
X76705776Y42111527D01*
X76630270Y42119018D01*
X76540146Y42123373D01*
X76425847Y42125570D01*
X76294416Y42126510D01*
X76129442Y42126170D01*
X75998263Y42123051D01*
X75892402Y42116632D01*
X75803380Y42106390D01*
X75722721Y42091802D01*
X75719544Y42091120D01*
X75378387Y41996775D01*
X75057576Y41866575D01*
X74759163Y41702601D01*
X74485201Y41506936D01*
X74237743Y41281659D01*
X74018842Y41028854D01*
X73830549Y40750600D01*
X73674919Y40448979D01*
X73554003Y40126073D01*
X73476044Y39816380D01*
X73455175Y39670171D01*
X73442778Y39496329D01*
X73438843Y39308700D01*
X73267445Y39308700D01*
X73268802Y39446667D01*
X73279906Y39642862D01*
X73300097Y39818875D01*
X73316618Y39909905D01*
X73412626Y40258607D01*
X73544986Y40587585D01*
X73711623Y40894752D01*
X73910460Y41178020D01*
X74139422Y41435299D01*
X74396430Y41664503D01*
X74679411Y41863543D01*
X74986287Y42030331D01*
X75314982Y42162778D01*
X75648833Y42255616D01*
X75776062Y42276701D01*
X75933506Y42292095D01*
X76109400Y42301570D01*
X76291977Y42304894D01*
X76469473Y42301838D01*
G36*
X76469473Y42301838D02*
G01*
X76630123Y42292170D01*
X76753073Y42277216D01*
X77103451Y42198211D01*
X77435976Y42080938D01*
X77749607Y41925931D01*
X78043304Y41733724D01*
X78316026Y41504850D01*
X78380925Y41441848D01*
X78604120Y41198573D01*
X78790318Y40949412D01*
X78943860Y40686736D01*
X79069084Y40402916D01*
X79170333Y40090324D01*
X79188373Y40022573D01*
X79214413Y39914928D01*
X79233147Y39818302D01*
X79246177Y39720007D01*
X79255109Y39607350D01*
X79261548Y39467640D01*
X79262698Y39434712D01*
X79262093Y39123183D01*
X79236951Y38838010D01*
X79185374Y38569778D01*
X79105461Y38309070D01*
X78995314Y38046470D01*
X78973423Y38000917D01*
X78797189Y37686769D01*
X78589827Y37399727D01*
X78353576Y37141610D01*
X78090678Y36914236D01*
X77803373Y36719426D01*
X77493901Y36558998D01*
X77164504Y36434773D01*
X76982333Y36384166D01*
X76718655Y36333751D01*
X76439288Y36305660D01*
X76160847Y36300881D01*
X75902833Y36320028D01*
X75554857Y36385548D01*
X75214561Y36490726D01*
X74888327Y36633145D01*
X74582537Y36810385D01*
X74548166Y36833438D01*
X74447984Y36909397D01*
X74330777Y37010606D01*
X74205054Y37128546D01*
X74079321Y37254699D01*
X73962084Y37380546D01*
X73861852Y37497570D01*
X73790785Y37591846D01*
X73607373Y37898231D01*
X73458973Y38227513D01*
X73346549Y38577430D01*
X73315485Y38706132D01*
X73290126Y38860023D01*
X73273900Y39042944D01*
X73266796Y39242593D01*
X73267445Y39308700D01*
X73438843Y39308700D01*
X73443360Y39121126D01*
X73456318Y38947450D01*
X73476813Y38806018D01*
X73563011Y38464475D01*
X73683257Y38147245D01*
X73838818Y37851856D01*
X74030964Y37575830D01*
X74217325Y37361562D01*
X74475025Y37120961D01*
X74753958Y36916540D01*
X75052439Y36749152D01*
X75368788Y36619649D01*
X75701321Y36528880D01*
X75941890Y36488961D01*
X76094674Y36477647D01*
X76273195Y36476648D01*
X76462309Y36485288D01*
X76646870Y36502890D01*
X76805394Y36527531D01*
X77137985Y36613187D01*
X77452678Y36735939D01*
X77747211Y36893542D01*
X78019322Y37083755D01*
X78266752Y37304334D01*
X78487237Y37553034D01*
X78678518Y37827614D01*
X78838333Y38125828D01*
X78964421Y38445435D01*
X79047805Y38752334D01*
X79070020Y38889231D01*
X79085287Y39054286D01*
X79093293Y39233846D01*
X79093725Y39414258D01*
X79086272Y39581870D01*
X79070620Y39723029D01*
X79070096Y39726252D01*
X78993087Y40074227D01*
X78879772Y40400504D01*
X78729961Y40705471D01*
X78543465Y40989514D01*
X78323354Y41249601D01*
X78079501Y41481001D01*
X77822075Y41675344D01*
X77545833Y41835702D01*
X77245531Y41965152D01*
X76940152Y42060470D01*
X76851160Y42083231D01*
X76776220Y42099924D01*
X76705776Y42111527D01*
X76630270Y42119018D01*
X76540146Y42123373D01*
X76425847Y42125570D01*
X76294416Y42126510D01*
X76129442Y42126170D01*
X75998263Y42123051D01*
X75892402Y42116632D01*
X75803380Y42106390D01*
X75722721Y42091802D01*
X75719544Y42091120D01*
X75378387Y41996775D01*
X75057576Y41866575D01*
X74759163Y41702601D01*
X74485201Y41506936D01*
X74237743Y41281659D01*
X74018842Y41028854D01*
X73830549Y40750600D01*
X73674919Y40448979D01*
X73554003Y40126073D01*
X73476044Y39816380D01*
X73455175Y39670171D01*
X73442778Y39496329D01*
X73438843Y39308700D01*
X73267445Y39308700D01*
X73268802Y39446667D01*
X73279906Y39642862D01*
X73300097Y39818875D01*
X73316618Y39909905D01*
X73412626Y40258607D01*
X73544986Y40587585D01*
X73711623Y40894752D01*
X73910460Y41178020D01*
X74139422Y41435299D01*
X74396430Y41664503D01*
X74679411Y41863543D01*
X74986287Y42030331D01*
X75314982Y42162778D01*
X75648833Y42255616D01*
X75776062Y42276701D01*
X75933506Y42292095D01*
X76109400Y42301570D01*
X76291977Y42304894D01*
X76469473Y42301838D01*
G37*
D11*
%TO.C,R2*%
X46431200Y28016200D02*
X47320200Y28016200D01*
X46482000Y30149800D02*
X47371000Y30149800D01*
%TO.C,R3*%
X43515200Y28016200D02*
X42626200Y28016200D01*
X43566000Y30149800D02*
X42677000Y30149800D01*
%TO.C,R8*%
X44493200Y24765000D02*
X44493200Y25654000D01*
X46626800Y24714200D02*
X46626800Y25603200D01*
%TO.C,R9*%
X52273200Y31242000D02*
X52273200Y30353000D01*
X54406800Y31191200D02*
X54406800Y30302200D01*
%TO.C,R10*%
X52273200Y26593800D02*
X52273200Y27482800D01*
X54406800Y26543000D02*
X54406800Y27432000D01*
%TO.C,R11*%
X62814200Y30530800D02*
X62814200Y31419800D01*
X64947800Y30480000D02*
X64947800Y31369000D01*
D10*
%TO.C,C2*%
X40722200Y21150200D02*
X40722200Y20150200D01*
X42777800Y20150200D02*
X42777800Y21150200D01*
%TO.C,C3*%
X45397800Y18530200D02*
X46397800Y18530200D01*
X46397800Y20585800D02*
X45397800Y20585800D01*
D11*
%TO.C,U1*%
X60865000Y28270000D02*
X62065000Y28270000D01*
X60865000Y25070000D02*
X60865000Y28270000D01*
X61265000Y25270000D02*
X61265000Y25070000D01*
X61665000Y25270000D02*
X61265000Y25270000D01*
X61665000Y25070000D02*
X61665000Y25270000D01*
X62065000Y28270000D02*
X62065000Y25070000D01*
X62065000Y25070000D02*
X60865000Y25070000D01*
X62547843Y24870000D02*
G75*
G02*
X61982157Y24870000I-282843J0D01*
G01*
X61982157Y24870000D02*
G75*
G02*
X62547843Y24870000I282843J0D01*
G01*
%TO.C,U2*%
X48800000Y28336000D02*
X50000000Y28336000D01*
X48800000Y25136000D02*
X48800000Y28336000D01*
X49200000Y25336000D02*
X49200000Y25136000D01*
X49600000Y25336000D02*
X49200000Y25336000D01*
X49600000Y25136000D02*
X49600000Y25336000D01*
X50000000Y28336000D02*
X50000000Y25136000D01*
X50000000Y25136000D02*
X48800000Y25136000D01*
X50482843Y24936000D02*
G75*
G02*
X49917157Y24936000I-282843J0D01*
G01*
X49917157Y24936000D02*
G75*
G02*
X50482843Y24936000I282843J0D01*
G01*
D19*
%TO.C,P4*%
X45085000Y16510000D02*
X52705000Y16510000D01*
X45085000Y11430000D02*
X45085000Y16510000D01*
X52705000Y16510000D02*
X52705000Y11430000D01*
X52705000Y11430000D02*
X45085000Y11430000D01*
D15*
X53340000Y16430000D02*
G75*
G02*
X52070000Y16430000I-635000J0D01*
G01*
X52070000Y16430000D02*
G75*
G02*
X53340000Y16430000I635000J0D01*
G01*
D20*
%TO.C,Y1*%
X50546000Y23368000D02*
X50546000Y24384000D01*
X50546000Y20066000D02*
X50546000Y21082000D01*
D21*
X52832000Y24257000D02*
X59690000Y24257000D01*
X52832000Y23495000D02*
X59690000Y23495000D01*
D20*
X55626000Y22860000D02*
X55626000Y22225000D01*
D21*
X55626000Y22225000D02*
X55245000Y22225000D01*
D20*
X55626000Y22225000D02*
X55626000Y21590000D01*
X56007000Y22860000D02*
X56007000Y21590000D01*
X56007000Y21590000D02*
X56515000Y21590000D01*
X56515000Y22860000D02*
X56007000Y22860000D01*
X56515000Y21590000D02*
X56515000Y22860000D01*
X56896000Y22860000D02*
X56896000Y22225000D01*
X56896000Y22225000D02*
X56896000Y21590000D01*
D21*
X56896000Y22225000D02*
X57277000Y22225000D01*
X59690000Y20955000D02*
X52832000Y20955000D01*
X59690000Y20193000D02*
X52832000Y20193000D01*
D20*
X61722000Y24638000D02*
X50800000Y24638000D01*
X61722000Y19812000D02*
X50800000Y19812000D01*
X61976000Y23368000D02*
X61976000Y24384000D01*
X61976000Y20066000D02*
X61976000Y21082000D01*
X50546000Y24384000D02*
G75*
G02*
X50800000Y24638000I254000J0D01*
G01*
X50800000Y19812000D02*
G75*
G02*
X50546000Y20066000I0J254000D01*
G01*
D21*
X51153060Y23368000D02*
G75*
G02*
X52831213Y24258178I1681480J-1143001D01*
G01*
X52280820Y23368000D02*
G75*
G02*
X52833231Y23493955I551180J-1143001D01*
G01*
X52832000Y20955000D02*
G75*
G02*
X52279257Y21081595I-1J1269993D01*
G01*
X52832000Y20193000D02*
G75*
G02*
X51153368Y21079915I-1J2032000D01*
G01*
X59690000Y24257000D02*
G75*
G02*
X61368632Y23370085I0J-2032000D01*
G01*
X59690000Y23495000D02*
G75*
G02*
X60242743Y23368405I0J-1270000D01*
G01*
X60241180Y21082000D02*
G75*
G02*
X59688769Y20956045I-551180J1143000D01*
G01*
X61368940Y21084540D02*
G75*
G02*
X59692886Y20193253I-1681480J1140460D01*
G01*
D20*
X61722000Y24638000D02*
G75*
G02*
X61976000Y24384000I0J-254000D01*
G01*
X61976000Y20066000D02*
G75*
G02*
X61722000Y19812000I-254000J0D01*
G01*
D11*
%TO.C,D4*%
X40883800Y25917400D02*
X40883800Y25765000D01*
X40896500Y25917400D02*
X43500000Y25917400D01*
X43500000Y25917400D02*
X43500000Y25765000D01*
X43500000Y25739600D02*
X40896500Y25739600D01*
X40496407Y25285600D02*
G75*
G02*
X40049193Y25285600I-223607J0D01*
G01*
X40049193Y25285600D02*
G75*
G02*
X40496407Y25285600I223607J0D01*
G01*
%TO.C,D1*%
X59674800Y30960820D02*
X59674800Y30808420D01*
X59687500Y30960820D02*
X62291000Y30960820D01*
X62291000Y30960820D02*
X62291000Y30808420D01*
X62291000Y30783020D02*
X59687500Y30783020D01*
X59287407Y30329020D02*
G75*
G02*
X58840193Y30329020I-223607J0D01*
G01*
X58840193Y30329020D02*
G75*
G02*
X59287407Y30329020I223607J0D01*
G01*
%TO.C,D3*%
X55483800Y30960820D02*
X55483800Y30808420D01*
X55496500Y30960820D02*
X58100000Y30960820D01*
X58100000Y30960820D02*
X58100000Y30808420D01*
X58100000Y30783020D02*
X55496500Y30783020D01*
X55096407Y30329020D02*
G75*
G02*
X54649193Y30329020I-223607J0D01*
G01*
X54649193Y30329020D02*
G75*
G02*
X55096407Y30329020I223607J0D01*
G01*
%TO.C,R12*%
X76535200Y33858200D02*
X75646200Y33858200D01*
X76586000Y35991800D02*
X75697000Y35991800D01*
%TO.C,R1*%
X48255000Y30683200D02*
X49144000Y30683200D01*
X48305800Y32816800D02*
X49194800Y32816800D01*
D10*
%TO.C,C11*%
X65266200Y31416800D02*
X65266200Y30416800D01*
X67321800Y30416800D02*
X67321800Y31416800D01*
%TO.C,C1*%
X44204000Y30722200D02*
X45204000Y30722200D01*
X45204000Y32777800D02*
X44204000Y32777800D01*
%TD*%
M02*
