%TF.GenerationSoftware,KiCad,Pcbnew,(5.1.10)-1*%
%TF.CreationDate,2021-08-07T17:36:11+01:00*%
%TF.ProjectId,WindSensorATMEGA328_PCB,57696e64-5365-46e7-936f-7241544d4547,rev?*%
%TF.SameCoordinates,PX5734380PY7df6180*%
%TF.FileFunction,Copper,L2,Bot*%
%TF.FilePolarity,Positive*%
%FSLAX46Y46*%
G04 Gerber Fmt 4.6, Leading zero omitted, Abs format (unit mm)*
G04 Created by KiCad (PCBNEW (5.1.10)-1) date 2021-08-07 17:36:11*
%MOMM*%
%LPD*%
G01*
G04 APERTURE LIST*
%TA.AperFunction,ComponentPad*%
%ADD10R,2.100580X2.100580*%
%TD*%
%TA.AperFunction,ComponentPad*%
%ADD11C,2.199640*%
%TD*%
%TA.AperFunction,ComponentPad*%
%ADD12C,1.500000*%
%TD*%
%TA.AperFunction,ComponentPad*%
%ADD13R,1.500000X1.500000*%
%TD*%
%TA.AperFunction,ComponentPad*%
%ADD14R,2.032000X2.032000*%
%TD*%
%TA.AperFunction,ComponentPad*%
%ADD15C,2.032000*%
%TD*%
%TA.AperFunction,ComponentPad*%
%ADD16C,2.499360*%
%TD*%
%TA.AperFunction,ComponentPad*%
%ADD17R,2.499360X2.499360*%
%TD*%
%TA.AperFunction,ComponentPad*%
%ADD18C,1.600200*%
%TD*%
%TA.AperFunction,ViaPad*%
%ADD19C,0.600000*%
%TD*%
%TA.AperFunction,Conductor*%
%ADD20C,0.300000*%
%TD*%
%TA.AperFunction,Conductor*%
%ADD21C,0.500000*%
%TD*%
%TA.AperFunction,Conductor*%
%ADD22C,0.254000*%
%TD*%
%TA.AperFunction,Conductor*%
%ADD23C,0.100000*%
%TD*%
G04 APERTURE END LIST*
D10*
%TO.P,P9,1*%
%TO.N,GND*%
X37084000Y21590000D03*
D11*
%TO.P,P9,2*%
X36830000Y19050000D03*
%TO.P,P9,3*%
%TO.N,VCC*%
X37084000Y16510000D03*
%TO.P,P9,4*%
%TO.N,/Rx*%
X36830000Y13970000D03*
%TO.P,P9,5*%
%TO.N,/Tx*%
X37084000Y11430000D03*
%TO.P,P9,6*%
%TO.N,/ATMega328/DTR*%
X36830000Y8890000D03*
%TD*%
D12*
%TO.P,P10,4*%
%TO.N,GND*%
X37671000Y27099000D03*
%TO.P,P10,3*%
%TO.N,VCC*%
X37671000Y29099000D03*
%TO.P,P10,2*%
%TO.N,/I2C_SDA*%
X37671000Y31099000D03*
D13*
%TO.P,P10,1*%
%TO.N,/I2C_CLK*%
X37671000Y33099000D03*
%TD*%
D14*
%TO.P,P2,1*%
%TO.N,/Tx*%
X49530000Y5715000D03*
D15*
%TO.P,P2,2*%
%TO.N,/Rx*%
X54610000Y5715000D03*
%TO.P,P2,3*%
%TO.N,VCC*%
X59690000Y5715000D03*
%TO.P,P2,4*%
%TO.N,GND*%
X64770000Y5715000D03*
D13*
%TO.P,P2,1*%
%TO.N,/Tx*%
X54150000Y7826000D03*
D12*
%TO.P,P2,2*%
%TO.N,/Rx*%
X56150000Y7826000D03*
%TO.P,P2,3*%
%TO.N,VCC*%
X58150000Y7826000D03*
%TO.P,P2,4*%
%TO.N,GND*%
X60150000Y7826000D03*
%TD*%
D16*
%TO.P,P11,2*%
%TO.N,/Hall_to_Freq/WIND_A_SIG*%
X49784000Y36957000D03*
D17*
%TO.P,P11,1*%
%TO.N,VCC*%
X44704000Y36957000D03*
D16*
%TO.P,P11,3*%
%TO.N,GND*%
X54864000Y36957000D03*
%TD*%
%TO.P,P8,3*%
%TO.N,GND*%
X70104000Y36957000D03*
D17*
%TO.P,P8,1*%
%TO.N,VCC*%
X59944000Y36957000D03*
D16*
%TO.P,P8,2*%
%TO.N,/Wind_Vane/WIND_V_SIG*%
X65024000Y36957000D03*
%TD*%
D18*
%TO.P,P4,5*%
%TO.N,/ATMega328/RESET*%
X46355000Y15240000D03*
%TO.P,P4,6*%
%TO.N,GND*%
X46355000Y12700000D03*
%TO.P,P4,3*%
%TO.N,/ATMega328/SCLK*%
X48895000Y15240000D03*
%TO.P,P4,4*%
%TO.N,/ATMega328/MOSI*%
X48895000Y12700000D03*
%TO.P,P4,1*%
%TO.N,/ATMega328/MISO*%
X51435000Y15240000D03*
%TO.P,P4,2*%
%TO.N,VCC*%
X51435000Y12700000D03*
%TD*%
D19*
%TO.N,GND*%
X55240000Y26040000D03*
X57267000Y28067000D03*
X64516000Y28829000D03*
X48387000Y34798000D03*
X74803000Y17907000D03*
X77216000Y26797000D03*
X48895000Y19812000D03*
X54483000Y19050000D03*
%TO.N,VCC*%
X76835000Y20574000D03*
X78740000Y20574000D03*
X77470000Y29337000D03*
%TO.N,/ATMega328/RESET*%
X62738000Y19050000D03*
X70115792Y27863903D03*
%TO.N,/Rx*%
X69342000Y28067000D03*
%TO.N,/Tx*%
X68453000Y29210000D03*
%TO.N,/I2C_SDA*%
X74407000Y29337000D03*
%TO.N,/I2C_CLK*%
X68453000Y32004000D03*
%TO.N,/ATMega328/A0*%
X76962000Y30480000D03*
X75819000Y26162000D03*
%TO.N,/ATMega328/SCLK*%
X76581000Y18923000D03*
X65778899Y16390101D03*
%TO.N,/ATMega328/MOSI*%
X73660000Y14097000D03*
X55626000Y13208000D03*
%TO.N,/ATMega328/MISO*%
X66421000Y15494000D03*
X73406000Y15494000D03*
%TO.N,/ATMega328/A2*%
X78471000Y31623000D03*
X78486000Y34544000D03*
%TO.N,/WIND_FREQ*%
X51689000Y25273000D03*
X67691000Y30099000D03*
%TO.N,/WIND_VANE*%
X74168000Y28321000D03*
X63881000Y24399000D03*
%TD*%
D20*
%TO.N,GND*%
X55240000Y26040000D02*
X57267000Y28067000D01*
X57267000Y28067000D02*
X63754000Y28067000D01*
X63754000Y28067000D02*
X64516000Y28829000D01*
D21*
X54483000Y34798000D02*
X54864000Y35179000D01*
X54864000Y35179000D02*
X54864000Y36957000D01*
X48387000Y34798000D02*
X54483000Y34798000D01*
D20*
X74803000Y17907000D02*
X74803000Y20574000D01*
X74803000Y20574000D02*
X77216000Y22987000D01*
X77216000Y22987000D02*
X77216000Y26797000D01*
X48895000Y19812000D02*
X49657000Y19050000D01*
X49657000Y19050000D02*
X54483000Y19050000D01*
D21*
%TO.N,VCC*%
X76835000Y20574000D02*
X78740000Y20574000D01*
X59690000Y5715000D02*
X61722000Y5715000D01*
X61722000Y5715000D02*
X66802000Y10795000D01*
X66802000Y10795000D02*
X75184000Y10795000D01*
X75184000Y10795000D02*
X78740000Y14351000D01*
X78740000Y14351000D02*
X78740000Y20955000D01*
X78740000Y20574000D02*
X78740000Y20955000D01*
X59690000Y5715000D02*
X58801000Y5715000D01*
X58150000Y6366000D02*
X58150000Y7826000D01*
X58801000Y5715000D02*
X58150000Y6366000D01*
X44704000Y36957000D02*
X44704000Y38735000D01*
X59944000Y39116000D02*
X59944000Y36957000D01*
X59055000Y40005000D02*
X59944000Y39116000D01*
X37671000Y29099000D02*
X36306000Y29099000D01*
X36306000Y29099000D02*
X35941000Y29464000D01*
X35941000Y33679002D02*
X37440998Y35179000D01*
X35941000Y29464000D02*
X35941000Y33679002D01*
X37440998Y35179000D02*
X38862000Y35179000D01*
X38862000Y35179000D02*
X43688000Y40005000D01*
X47625000Y40005000D02*
X59055000Y40005000D01*
X45974000Y40005000D02*
X47625000Y40005000D01*
X44704000Y39751000D02*
X44450000Y40005000D01*
X44704000Y36957000D02*
X44704000Y39751000D01*
X44450000Y40005000D02*
X47625000Y40005000D01*
X43688000Y40005000D02*
X44450000Y40005000D01*
X38862000Y16510000D02*
X39624000Y17272000D01*
X39624000Y28067000D02*
X38592000Y29099000D01*
X38592000Y29099000D02*
X37671000Y29099000D01*
X39624000Y17272000D02*
X39624000Y28067000D01*
X51435000Y12700000D02*
X48514000Y9779000D01*
X45593000Y9779000D02*
X38862000Y16510000D01*
X48514000Y9779000D02*
X45593000Y9779000D01*
X37084000Y16510000D02*
X38862000Y16510000D01*
X78740000Y28067000D02*
X78740000Y27813000D01*
X77470000Y29337000D02*
X78740000Y28067000D01*
X78740000Y20955000D02*
X78740000Y27813000D01*
D20*
%TO.N,/ATMega328/RESET*%
X70112697Y27866998D02*
X70115792Y27863903D01*
X70104000Y27866998D02*
X70112697Y27866998D01*
X69505501Y27268499D02*
X70104000Y27866998D01*
X65622499Y27268499D02*
X69505501Y27268499D01*
X62738000Y24384000D02*
X65622499Y27268499D01*
X62738000Y19050000D02*
X62738000Y24384000D01*
D21*
%TO.N,/Rx*%
X54610000Y5715000D02*
X55499000Y5715000D01*
X56150000Y6366000D02*
X56150000Y7826000D01*
X55499000Y5715000D02*
X56150000Y6366000D01*
X54610000Y5715000D02*
X53086000Y5715000D01*
X53086000Y5715000D02*
X51054000Y7747000D01*
X51054000Y7747000D02*
X40894000Y7747000D01*
X40894000Y7747000D02*
X40005000Y8636000D01*
X40005000Y8636000D02*
X40005000Y12700000D01*
X38735000Y13970000D02*
X36830000Y13970000D01*
X40005000Y12700000D02*
X38735000Y13970000D01*
D20*
X56150000Y7826000D02*
X56150000Y8874000D01*
X56150000Y8874000D02*
X54737000Y10287000D01*
X54737000Y13843000D02*
X54737000Y17199880D01*
X54737000Y10287000D02*
X54737000Y13843000D01*
X54737000Y13843000D02*
X54737000Y14732000D01*
X54737000Y17199880D02*
X65604120Y28067000D01*
X65604120Y28067000D02*
X69342000Y28067000D01*
D21*
%TO.N,/Tx*%
X49530000Y5715000D02*
X40767000Y5715000D01*
X40767000Y5715000D02*
X39116000Y7366000D01*
X39116000Y9398000D02*
X37084000Y11430000D01*
X39116000Y7366000D02*
X39116000Y9398000D01*
D20*
X54150000Y7826000D02*
X54150000Y17320000D01*
X54150000Y17320000D02*
X66040000Y29210000D01*
X66040000Y29210000D02*
X68453000Y29210000D01*
%TO.N,/I2C_SDA*%
X37671000Y31099000D02*
X72660000Y31099000D01*
X74407000Y29352000D02*
X74407000Y29337000D01*
X72660000Y31099000D02*
X74407000Y29352000D01*
%TO.N,/I2C_CLK*%
X37671000Y33099000D02*
X39576000Y33099000D01*
X39576000Y33099000D02*
X40671000Y32004000D01*
X40671000Y32004000D02*
X68453000Y32004000D01*
D21*
%TO.N,/ATMega328/A0*%
X76962000Y30480000D02*
X76073000Y30480000D01*
D20*
X76073000Y30480000D02*
X75057000Y29464000D01*
X75057000Y29464000D02*
X75057000Y26924000D01*
X75057000Y26924000D02*
X75819000Y26162000D01*
%TO.N,/ATMega328/SCLK*%
X76581000Y19050000D02*
X76581000Y18923000D01*
X65778899Y16390101D02*
X75191101Y16390101D01*
X76581000Y17780000D02*
X76581000Y18923000D01*
X75191101Y16390101D02*
X76581000Y17780000D01*
%TO.N,/ATMega328/MOSI*%
X73660000Y14097000D02*
X58674000Y14097000D01*
X57785000Y13208000D02*
X55626000Y13208000D01*
X58674000Y14097000D02*
X57785000Y13208000D01*
%TO.N,/ATMega328/MISO*%
X66421000Y15494000D02*
X73406000Y15494000D01*
D21*
%TO.N,/ATMega328/A2*%
X78471000Y31623000D02*
X78471000Y34529000D01*
X78471000Y34529000D02*
X78486000Y34544000D01*
D20*
%TO.N,/WIND_FREQ*%
X51689000Y25273000D02*
X56515000Y30099000D01*
X56515000Y30099000D02*
X67691000Y30099000D01*
%TO.N,/WIND_VANE*%
X74168000Y25654000D02*
X74168000Y28321000D01*
X72898000Y24384000D02*
X74168000Y25654000D01*
X72898000Y24384000D02*
X63881000Y24384000D01*
X63881000Y24384000D02*
X63881000Y24399000D01*
%TD*%
D22*
%TO.N,GND*%
X78963900Y1035181D02*
X78950388Y766107D01*
X78913502Y522917D01*
X78853529Y288872D01*
X78771834Y64680D01*
X78669557Y-148287D01*
X78547692Y-349291D01*
X78407515Y-536974D01*
X78250082Y-710180D01*
X78076869Y-867619D01*
X77889269Y-1007734D01*
X77688192Y-1129565D01*
X77475131Y-1231966D01*
X77251131Y-1313591D01*
X77016986Y-1373512D01*
X76773783Y-1410477D01*
X76504827Y-1423900D01*
X70334000Y-1423900D01*
X70334000Y1488128D01*
X74036000Y1488128D01*
X74036000Y1047872D01*
X74121890Y616075D01*
X74290369Y209331D01*
X74534962Y-156729D01*
X74846271Y-468038D01*
X75212331Y-712631D01*
X75619075Y-881110D01*
X76050872Y-967000D01*
X76491128Y-967000D01*
X76922925Y-881110D01*
X77329669Y-712631D01*
X77695729Y-468038D01*
X78007038Y-156729D01*
X78251631Y209331D01*
X78420110Y616075D01*
X78506000Y1047872D01*
X78506000Y1488128D01*
X78420110Y1919925D01*
X78251631Y2326669D01*
X78007038Y2692729D01*
X77695729Y3004038D01*
X77329669Y3248631D01*
X76922925Y3417110D01*
X76491128Y3503000D01*
X76050872Y3503000D01*
X75619075Y3417110D01*
X75212331Y3248631D01*
X74846271Y3004038D01*
X74534962Y2692729D01*
X74290369Y2326669D01*
X74121890Y1919925D01*
X74036000Y1488128D01*
X70334000Y1488128D01*
X70334000Y2757353D01*
X70337314Y2791000D01*
X70324088Y2925283D01*
X70284919Y3054406D01*
X70221312Y3173407D01*
X70135711Y3277711D01*
X70031407Y3363312D01*
X69912406Y3426919D01*
X69783283Y3466088D01*
X69682647Y3476000D01*
X69649000Y3479314D01*
X69615353Y3476000D01*
X44782847Y3476000D01*
X44749200Y3479314D01*
X44715553Y3476000D01*
X44614917Y3466088D01*
X44485794Y3426919D01*
X44366793Y3363312D01*
X44262489Y3277711D01*
X44176888Y3173407D01*
X44113281Y3054406D01*
X44074112Y2925283D01*
X44060886Y2791000D01*
X44064201Y2757343D01*
X44064200Y-1423900D01*
X37893273Y-1423900D01*
X37624317Y-1410478D01*
X37381113Y-1373512D01*
X37146971Y-1313592D01*
X36922923Y-1231950D01*
X36709772Y-1129544D01*
X36508671Y-1007697D01*
X36320912Y-867522D01*
X36147731Y-710183D01*
X35990374Y-536973D01*
X35850056Y-349205D01*
X35728194Y-148207D01*
X35625790Y64861D01*
X35544081Y288877D01*
X35484214Y522809D01*
X35447312Y766107D01*
X35433800Y1035182D01*
X35433800Y1588128D01*
X36036000Y1588128D01*
X36036000Y1147872D01*
X36121890Y716075D01*
X36290369Y309331D01*
X36534962Y-56729D01*
X36846271Y-368038D01*
X37212331Y-612631D01*
X37619075Y-781110D01*
X38050872Y-867000D01*
X38491128Y-867000D01*
X38922925Y-781110D01*
X39329669Y-612631D01*
X39695729Y-368038D01*
X40007038Y-56729D01*
X40251631Y309331D01*
X40420110Y716075D01*
X40506000Y1147872D01*
X40506000Y1588128D01*
X40420110Y2019925D01*
X40251631Y2426669D01*
X40007038Y2792729D01*
X39695729Y3104038D01*
X39329669Y3348631D01*
X38922925Y3517110D01*
X38491128Y3603000D01*
X38050872Y3603000D01*
X37619075Y3517110D01*
X37212331Y3348631D01*
X36846271Y3104038D01*
X36534962Y2792729D01*
X36290369Y2426669D01*
X36121890Y2019925D01*
X36036000Y1588128D01*
X35433800Y1588128D01*
X35433800Y7856968D01*
X35482477Y7784117D01*
X35724117Y7542477D01*
X36008255Y7352623D01*
X36323972Y7221848D01*
X36659135Y7155180D01*
X37000865Y7155180D01*
X37336028Y7221848D01*
X37651745Y7352623D01*
X37935883Y7542477D01*
X38177523Y7784117D01*
X38231000Y7864152D01*
X38231000Y7409469D01*
X38226719Y7366000D01*
X38231000Y7322531D01*
X38231000Y7322524D01*
X38239306Y7238195D01*
X38243805Y7192510D01*
X38250592Y7170138D01*
X38294411Y7025688D01*
X38376589Y6871942D01*
X38487183Y6737183D01*
X38520956Y6709466D01*
X40110470Y5119951D01*
X40138183Y5086183D01*
X40171951Y5058470D01*
X40171953Y5058468D01*
X40272941Y4975589D01*
X40426686Y4893411D01*
X40584698Y4845478D01*
X40593510Y4842805D01*
X40723523Y4830000D01*
X40723531Y4830000D01*
X40767000Y4825719D01*
X40810469Y4830000D01*
X47875928Y4830000D01*
X47875928Y4699000D01*
X47888188Y4574518D01*
X47924498Y4454820D01*
X47983463Y4344506D01*
X48062815Y4247815D01*
X48159506Y4168463D01*
X48269820Y4109498D01*
X48389518Y4073188D01*
X48514000Y4060928D01*
X50546000Y4060928D01*
X50670482Y4073188D01*
X50790180Y4109498D01*
X50900494Y4168463D01*
X50997185Y4247815D01*
X51076537Y4344506D01*
X51135502Y4454820D01*
X51171812Y4574518D01*
X51184072Y4699000D01*
X51184072Y6365350D01*
X52429470Y5119951D01*
X52457183Y5086183D01*
X52490951Y5058470D01*
X52490953Y5058468D01*
X52533769Y5023330D01*
X52591941Y4975589D01*
X52745687Y4893411D01*
X52861903Y4858157D01*
X52912509Y4842805D01*
X52927306Y4841348D01*
X53042523Y4830000D01*
X53042531Y4830000D01*
X53086000Y4825719D01*
X53129469Y4830000D01*
X53215698Y4830000D01*
X53327585Y4662549D01*
X53557549Y4432585D01*
X53827958Y4251903D01*
X54128421Y4127447D01*
X54447391Y4064000D01*
X54772609Y4064000D01*
X55091579Y4127447D01*
X55392042Y4251903D01*
X55662451Y4432585D01*
X55892415Y4662549D01*
X56073097Y4932958D01*
X56145480Y5107705D01*
X56155534Y5119956D01*
X56745050Y5709471D01*
X56778817Y5737183D01*
X56806533Y5770954D01*
X56889410Y5871940D01*
X56889411Y5871941D01*
X56971589Y6025687D01*
X57022195Y6192510D01*
X57035000Y6322523D01*
X57035000Y6322533D01*
X57039281Y6365999D01*
X57035000Y6409466D01*
X57035000Y6752315D01*
X57150000Y6867315D01*
X57265000Y6752315D01*
X57265000Y6409470D01*
X57260719Y6366000D01*
X57265000Y6322531D01*
X57265000Y6322524D01*
X57267989Y6292179D01*
X57277805Y6192510D01*
X57293157Y6141904D01*
X57328411Y6025688D01*
X57410589Y5871942D01*
X57521183Y5737183D01*
X57554956Y5709466D01*
X58144470Y5119951D01*
X58154520Y5107705D01*
X58226903Y4932958D01*
X58407585Y4662549D01*
X58637549Y4432585D01*
X58907958Y4251903D01*
X59208421Y4127447D01*
X59527391Y4064000D01*
X59852609Y4064000D01*
X60171579Y4127447D01*
X60472042Y4251903D01*
X60742451Y4432585D01*
X60878043Y4568177D01*
X63802782Y4568177D01*
X63900478Y4302140D01*
X64192821Y4159652D01*
X64507344Y4076936D01*
X64831962Y4057169D01*
X65154198Y4101112D01*
X65461670Y4207076D01*
X65639522Y4302140D01*
X65737218Y4568177D01*
X64770000Y5535395D01*
X63802782Y4568177D01*
X60878043Y4568177D01*
X60972415Y4662549D01*
X61084302Y4830000D01*
X61678531Y4830000D01*
X61722000Y4825719D01*
X61765469Y4830000D01*
X61765477Y4830000D01*
X61895490Y4842805D01*
X62062313Y4893411D01*
X62216059Y4975589D01*
X62350817Y5086183D01*
X62378534Y5119956D01*
X63125173Y5866595D01*
X63112169Y5653038D01*
X63156112Y5330802D01*
X63262076Y5023330D01*
X63357140Y4845478D01*
X63623177Y4747782D01*
X64590395Y5715000D01*
X64949605Y5715000D01*
X65916823Y4747782D01*
X66182860Y4845478D01*
X66325348Y5137821D01*
X66408064Y5452344D01*
X66427831Y5776962D01*
X66383888Y6099198D01*
X66277924Y6406670D01*
X66182860Y6584522D01*
X65916823Y6682218D01*
X64949605Y5715000D01*
X64590395Y5715000D01*
X64576253Y5729142D01*
X64755858Y5908747D01*
X64770000Y5894605D01*
X65737218Y6861823D01*
X65639522Y7127860D01*
X65347179Y7270348D01*
X65032656Y7353064D01*
X64708038Y7372831D01*
X64619310Y7360731D01*
X67168579Y9910000D01*
X75140531Y9910000D01*
X75184000Y9905719D01*
X75227469Y9910000D01*
X75227477Y9910000D01*
X75357490Y9922805D01*
X75524313Y9973411D01*
X75678059Y10055589D01*
X75812817Y10166183D01*
X75840534Y10199956D01*
X78963900Y13323321D01*
X78963900Y1035181D01*
%TA.AperFunction,Conductor*%
D23*
G36*
X78963900Y1035181D02*
G01*
X78950388Y766107D01*
X78913502Y522917D01*
X78853529Y288872D01*
X78771834Y64680D01*
X78669557Y-148287D01*
X78547692Y-349291D01*
X78407515Y-536974D01*
X78250082Y-710180D01*
X78076869Y-867619D01*
X77889269Y-1007734D01*
X77688192Y-1129565D01*
X77475131Y-1231966D01*
X77251131Y-1313591D01*
X77016986Y-1373512D01*
X76773783Y-1410477D01*
X76504827Y-1423900D01*
X70334000Y-1423900D01*
X70334000Y1488128D01*
X74036000Y1488128D01*
X74036000Y1047872D01*
X74121890Y616075D01*
X74290369Y209331D01*
X74534962Y-156729D01*
X74846271Y-468038D01*
X75212331Y-712631D01*
X75619075Y-881110D01*
X76050872Y-967000D01*
X76491128Y-967000D01*
X76922925Y-881110D01*
X77329669Y-712631D01*
X77695729Y-468038D01*
X78007038Y-156729D01*
X78251631Y209331D01*
X78420110Y616075D01*
X78506000Y1047872D01*
X78506000Y1488128D01*
X78420110Y1919925D01*
X78251631Y2326669D01*
X78007038Y2692729D01*
X77695729Y3004038D01*
X77329669Y3248631D01*
X76922925Y3417110D01*
X76491128Y3503000D01*
X76050872Y3503000D01*
X75619075Y3417110D01*
X75212331Y3248631D01*
X74846271Y3004038D01*
X74534962Y2692729D01*
X74290369Y2326669D01*
X74121890Y1919925D01*
X74036000Y1488128D01*
X70334000Y1488128D01*
X70334000Y2757353D01*
X70337314Y2791000D01*
X70324088Y2925283D01*
X70284919Y3054406D01*
X70221312Y3173407D01*
X70135711Y3277711D01*
X70031407Y3363312D01*
X69912406Y3426919D01*
X69783283Y3466088D01*
X69682647Y3476000D01*
X69649000Y3479314D01*
X69615353Y3476000D01*
X44782847Y3476000D01*
X44749200Y3479314D01*
X44715553Y3476000D01*
X44614917Y3466088D01*
X44485794Y3426919D01*
X44366793Y3363312D01*
X44262489Y3277711D01*
X44176888Y3173407D01*
X44113281Y3054406D01*
X44074112Y2925283D01*
X44060886Y2791000D01*
X44064201Y2757343D01*
X44064200Y-1423900D01*
X37893273Y-1423900D01*
X37624317Y-1410478D01*
X37381113Y-1373512D01*
X37146971Y-1313592D01*
X36922923Y-1231950D01*
X36709772Y-1129544D01*
X36508671Y-1007697D01*
X36320912Y-867522D01*
X36147731Y-710183D01*
X35990374Y-536973D01*
X35850056Y-349205D01*
X35728194Y-148207D01*
X35625790Y64861D01*
X35544081Y288877D01*
X35484214Y522809D01*
X35447312Y766107D01*
X35433800Y1035182D01*
X35433800Y1588128D01*
X36036000Y1588128D01*
X36036000Y1147872D01*
X36121890Y716075D01*
X36290369Y309331D01*
X36534962Y-56729D01*
X36846271Y-368038D01*
X37212331Y-612631D01*
X37619075Y-781110D01*
X38050872Y-867000D01*
X38491128Y-867000D01*
X38922925Y-781110D01*
X39329669Y-612631D01*
X39695729Y-368038D01*
X40007038Y-56729D01*
X40251631Y309331D01*
X40420110Y716075D01*
X40506000Y1147872D01*
X40506000Y1588128D01*
X40420110Y2019925D01*
X40251631Y2426669D01*
X40007038Y2792729D01*
X39695729Y3104038D01*
X39329669Y3348631D01*
X38922925Y3517110D01*
X38491128Y3603000D01*
X38050872Y3603000D01*
X37619075Y3517110D01*
X37212331Y3348631D01*
X36846271Y3104038D01*
X36534962Y2792729D01*
X36290369Y2426669D01*
X36121890Y2019925D01*
X36036000Y1588128D01*
X35433800Y1588128D01*
X35433800Y7856968D01*
X35482477Y7784117D01*
X35724117Y7542477D01*
X36008255Y7352623D01*
X36323972Y7221848D01*
X36659135Y7155180D01*
X37000865Y7155180D01*
X37336028Y7221848D01*
X37651745Y7352623D01*
X37935883Y7542477D01*
X38177523Y7784117D01*
X38231000Y7864152D01*
X38231000Y7409469D01*
X38226719Y7366000D01*
X38231000Y7322531D01*
X38231000Y7322524D01*
X38239306Y7238195D01*
X38243805Y7192510D01*
X38250592Y7170138D01*
X38294411Y7025688D01*
X38376589Y6871942D01*
X38487183Y6737183D01*
X38520956Y6709466D01*
X40110470Y5119951D01*
X40138183Y5086183D01*
X40171951Y5058470D01*
X40171953Y5058468D01*
X40272941Y4975589D01*
X40426686Y4893411D01*
X40584698Y4845478D01*
X40593510Y4842805D01*
X40723523Y4830000D01*
X40723531Y4830000D01*
X40767000Y4825719D01*
X40810469Y4830000D01*
X47875928Y4830000D01*
X47875928Y4699000D01*
X47888188Y4574518D01*
X47924498Y4454820D01*
X47983463Y4344506D01*
X48062815Y4247815D01*
X48159506Y4168463D01*
X48269820Y4109498D01*
X48389518Y4073188D01*
X48514000Y4060928D01*
X50546000Y4060928D01*
X50670482Y4073188D01*
X50790180Y4109498D01*
X50900494Y4168463D01*
X50997185Y4247815D01*
X51076537Y4344506D01*
X51135502Y4454820D01*
X51171812Y4574518D01*
X51184072Y4699000D01*
X51184072Y6365350D01*
X52429470Y5119951D01*
X52457183Y5086183D01*
X52490951Y5058470D01*
X52490953Y5058468D01*
X52533769Y5023330D01*
X52591941Y4975589D01*
X52745687Y4893411D01*
X52861903Y4858157D01*
X52912509Y4842805D01*
X52927306Y4841348D01*
X53042523Y4830000D01*
X53042531Y4830000D01*
X53086000Y4825719D01*
X53129469Y4830000D01*
X53215698Y4830000D01*
X53327585Y4662549D01*
X53557549Y4432585D01*
X53827958Y4251903D01*
X54128421Y4127447D01*
X54447391Y4064000D01*
X54772609Y4064000D01*
X55091579Y4127447D01*
X55392042Y4251903D01*
X55662451Y4432585D01*
X55892415Y4662549D01*
X56073097Y4932958D01*
X56145480Y5107705D01*
X56155534Y5119956D01*
X56745050Y5709471D01*
X56778817Y5737183D01*
X56806533Y5770954D01*
X56889410Y5871940D01*
X56889411Y5871941D01*
X56971589Y6025687D01*
X57022195Y6192510D01*
X57035000Y6322523D01*
X57035000Y6322533D01*
X57039281Y6365999D01*
X57035000Y6409466D01*
X57035000Y6752315D01*
X57150000Y6867315D01*
X57265000Y6752315D01*
X57265000Y6409470D01*
X57260719Y6366000D01*
X57265000Y6322531D01*
X57265000Y6322524D01*
X57267989Y6292179D01*
X57277805Y6192510D01*
X57293157Y6141904D01*
X57328411Y6025688D01*
X57410589Y5871942D01*
X57521183Y5737183D01*
X57554956Y5709466D01*
X58144470Y5119951D01*
X58154520Y5107705D01*
X58226903Y4932958D01*
X58407585Y4662549D01*
X58637549Y4432585D01*
X58907958Y4251903D01*
X59208421Y4127447D01*
X59527391Y4064000D01*
X59852609Y4064000D01*
X60171579Y4127447D01*
X60472042Y4251903D01*
X60742451Y4432585D01*
X60878043Y4568177D01*
X63802782Y4568177D01*
X63900478Y4302140D01*
X64192821Y4159652D01*
X64507344Y4076936D01*
X64831962Y4057169D01*
X65154198Y4101112D01*
X65461670Y4207076D01*
X65639522Y4302140D01*
X65737218Y4568177D01*
X64770000Y5535395D01*
X63802782Y4568177D01*
X60878043Y4568177D01*
X60972415Y4662549D01*
X61084302Y4830000D01*
X61678531Y4830000D01*
X61722000Y4825719D01*
X61765469Y4830000D01*
X61765477Y4830000D01*
X61895490Y4842805D01*
X62062313Y4893411D01*
X62216059Y4975589D01*
X62350817Y5086183D01*
X62378534Y5119956D01*
X63125173Y5866595D01*
X63112169Y5653038D01*
X63156112Y5330802D01*
X63262076Y5023330D01*
X63357140Y4845478D01*
X63623177Y4747782D01*
X64590395Y5715000D01*
X64949605Y5715000D01*
X65916823Y4747782D01*
X66182860Y4845478D01*
X66325348Y5137821D01*
X66408064Y5452344D01*
X66427831Y5776962D01*
X66383888Y6099198D01*
X66277924Y6406670D01*
X66182860Y6584522D01*
X65916823Y6682218D01*
X64949605Y5715000D01*
X64590395Y5715000D01*
X64576253Y5729142D01*
X64755858Y5908747D01*
X64770000Y5894605D01*
X65737218Y6861823D01*
X65639522Y7127860D01*
X65347179Y7270348D01*
X65032656Y7353064D01*
X64708038Y7372831D01*
X64619310Y7360731D01*
X67168579Y9910000D01*
X75140531Y9910000D01*
X75184000Y9905719D01*
X75227469Y9910000D01*
X75227477Y9910000D01*
X75357490Y9922805D01*
X75524313Y9973411D01*
X75678059Y10055589D01*
X75812817Y10166183D01*
X75840534Y10199956D01*
X78963900Y13323321D01*
X78963900Y1035181D01*
G37*
%TD.AperFunction*%
D22*
X77855000Y14717579D02*
X74817422Y11680000D01*
X66845469Y11680000D01*
X66802000Y11684281D01*
X66758531Y11680000D01*
X66758523Y11680000D01*
X66628510Y11667195D01*
X66461687Y11616589D01*
X66403121Y11585285D01*
X66307941Y11534411D01*
X66206953Y11451532D01*
X66206951Y11451530D01*
X66173183Y11423817D01*
X66145470Y11390049D01*
X61355422Y6600000D01*
X61084302Y6600000D01*
X60972415Y6767451D01*
X60915219Y6824647D01*
X60927388Y6869007D01*
X60150000Y7646395D01*
X60135858Y7632252D01*
X59956253Y7811857D01*
X59970395Y7826000D01*
X60329605Y7826000D01*
X61106993Y7048612D01*
X61345860Y7114137D01*
X61461760Y7361116D01*
X61527250Y7625960D01*
X61539812Y7898492D01*
X61498965Y8168238D01*
X61406277Y8424832D01*
X61345860Y8537863D01*
X61106993Y8603388D01*
X60329605Y7826000D01*
X59970395Y7826000D01*
X59421932Y8374463D01*
X59377371Y8482043D01*
X59225799Y8708886D01*
X59151692Y8782993D01*
X59372612Y8782993D01*
X60150000Y8005605D01*
X60927388Y8782993D01*
X60861863Y9021860D01*
X60614884Y9137760D01*
X60350040Y9203250D01*
X60077508Y9215812D01*
X59807762Y9174965D01*
X59551168Y9082277D01*
X59438137Y9021860D01*
X59372612Y8782993D01*
X59151692Y8782993D01*
X59032886Y8901799D01*
X58806043Y9053371D01*
X58553989Y9157775D01*
X58286411Y9211000D01*
X58013589Y9211000D01*
X57746011Y9157775D01*
X57493957Y9053371D01*
X57267114Y8901799D01*
X57150000Y8784685D01*
X57032886Y8901799D01*
X56929239Y8971054D01*
X56928721Y8976313D01*
X56923642Y9027887D01*
X56878754Y9175860D01*
X56805862Y9312233D01*
X56707764Y9431764D01*
X56677810Y9456347D01*
X55522000Y10612157D01*
X55522000Y12275369D01*
X55533911Y12273000D01*
X55718089Y12273000D01*
X55898729Y12308932D01*
X56068889Y12379414D01*
X56134120Y12423000D01*
X57746447Y12423000D01*
X57785000Y12419203D01*
X57823553Y12423000D01*
X57823561Y12423000D01*
X57938887Y12434359D01*
X58086860Y12479246D01*
X58223233Y12552138D01*
X58342764Y12650236D01*
X58367347Y12680190D01*
X58999157Y13312000D01*
X73151880Y13312000D01*
X73217111Y13268414D01*
X73387271Y13197932D01*
X73567911Y13162000D01*
X73752089Y13162000D01*
X73932729Y13197932D01*
X74102889Y13268414D01*
X74256028Y13370738D01*
X74386262Y13500972D01*
X74488586Y13654111D01*
X74559068Y13824271D01*
X74595000Y14004911D01*
X74595000Y14189089D01*
X74559068Y14369729D01*
X74488586Y14539889D01*
X74386262Y14693028D01*
X74256028Y14823262D01*
X74135952Y14903494D01*
X74234586Y15051111D01*
X74305068Y15221271D01*
X74341000Y15401911D01*
X74341000Y15586089D01*
X74337218Y15605101D01*
X75152548Y15605101D01*
X75191101Y15601304D01*
X75229654Y15605101D01*
X75229662Y15605101D01*
X75344988Y15616460D01*
X75492961Y15661347D01*
X75629334Y15734239D01*
X75748865Y15832337D01*
X75773448Y15862291D01*
X77108817Y17197659D01*
X77138764Y17222236D01*
X77236862Y17341767D01*
X77309754Y17478140D01*
X77354641Y17626113D01*
X77366000Y17741439D01*
X77366000Y17741446D01*
X77369797Y17779999D01*
X77366000Y17818552D01*
X77366000Y18414880D01*
X77409586Y18480111D01*
X77480068Y18650271D01*
X77516000Y18830911D01*
X77516000Y19015089D01*
X77480068Y19195729D01*
X77409586Y19365889D01*
X77307262Y19519028D01*
X77177028Y19649262D01*
X77126792Y19682828D01*
X77141692Y19689000D01*
X77855001Y19689000D01*
X77855000Y14717579D01*
%TA.AperFunction,Conductor*%
D23*
G36*
X77855000Y14717579D02*
G01*
X74817422Y11680000D01*
X66845469Y11680000D01*
X66802000Y11684281D01*
X66758531Y11680000D01*
X66758523Y11680000D01*
X66628510Y11667195D01*
X66461687Y11616589D01*
X66403121Y11585285D01*
X66307941Y11534411D01*
X66206953Y11451532D01*
X66206951Y11451530D01*
X66173183Y11423817D01*
X66145470Y11390049D01*
X61355422Y6600000D01*
X61084302Y6600000D01*
X60972415Y6767451D01*
X60915219Y6824647D01*
X60927388Y6869007D01*
X60150000Y7646395D01*
X60135858Y7632252D01*
X59956253Y7811857D01*
X59970395Y7826000D01*
X60329605Y7826000D01*
X61106993Y7048612D01*
X61345860Y7114137D01*
X61461760Y7361116D01*
X61527250Y7625960D01*
X61539812Y7898492D01*
X61498965Y8168238D01*
X61406277Y8424832D01*
X61345860Y8537863D01*
X61106993Y8603388D01*
X60329605Y7826000D01*
X59970395Y7826000D01*
X59421932Y8374463D01*
X59377371Y8482043D01*
X59225799Y8708886D01*
X59151692Y8782993D01*
X59372612Y8782993D01*
X60150000Y8005605D01*
X60927388Y8782993D01*
X60861863Y9021860D01*
X60614884Y9137760D01*
X60350040Y9203250D01*
X60077508Y9215812D01*
X59807762Y9174965D01*
X59551168Y9082277D01*
X59438137Y9021860D01*
X59372612Y8782993D01*
X59151692Y8782993D01*
X59032886Y8901799D01*
X58806043Y9053371D01*
X58553989Y9157775D01*
X58286411Y9211000D01*
X58013589Y9211000D01*
X57746011Y9157775D01*
X57493957Y9053371D01*
X57267114Y8901799D01*
X57150000Y8784685D01*
X57032886Y8901799D01*
X56929239Y8971054D01*
X56928721Y8976313D01*
X56923642Y9027887D01*
X56878754Y9175860D01*
X56805862Y9312233D01*
X56707764Y9431764D01*
X56677810Y9456347D01*
X55522000Y10612157D01*
X55522000Y12275369D01*
X55533911Y12273000D01*
X55718089Y12273000D01*
X55898729Y12308932D01*
X56068889Y12379414D01*
X56134120Y12423000D01*
X57746447Y12423000D01*
X57785000Y12419203D01*
X57823553Y12423000D01*
X57823561Y12423000D01*
X57938887Y12434359D01*
X58086860Y12479246D01*
X58223233Y12552138D01*
X58342764Y12650236D01*
X58367347Y12680190D01*
X58999157Y13312000D01*
X73151880Y13312000D01*
X73217111Y13268414D01*
X73387271Y13197932D01*
X73567911Y13162000D01*
X73752089Y13162000D01*
X73932729Y13197932D01*
X74102889Y13268414D01*
X74256028Y13370738D01*
X74386262Y13500972D01*
X74488586Y13654111D01*
X74559068Y13824271D01*
X74595000Y14004911D01*
X74595000Y14189089D01*
X74559068Y14369729D01*
X74488586Y14539889D01*
X74386262Y14693028D01*
X74256028Y14823262D01*
X74135952Y14903494D01*
X74234586Y15051111D01*
X74305068Y15221271D01*
X74341000Y15401911D01*
X74341000Y15586089D01*
X74337218Y15605101D01*
X75152548Y15605101D01*
X75191101Y15601304D01*
X75229654Y15605101D01*
X75229662Y15605101D01*
X75344988Y15616460D01*
X75492961Y15661347D01*
X75629334Y15734239D01*
X75748865Y15832337D01*
X75773448Y15862291D01*
X77108817Y17197659D01*
X77138764Y17222236D01*
X77236862Y17341767D01*
X77309754Y17478140D01*
X77354641Y17626113D01*
X77366000Y17741439D01*
X77366000Y17741446D01*
X77369797Y17779999D01*
X77366000Y17818552D01*
X77366000Y18414880D01*
X77409586Y18480111D01*
X77480068Y18650271D01*
X77516000Y18830911D01*
X77516000Y19015089D01*
X77480068Y19195729D01*
X77409586Y19365889D01*
X77307262Y19519028D01*
X77177028Y19649262D01*
X77126792Y19682828D01*
X77141692Y19689000D01*
X77855001Y19689000D01*
X77855000Y14717579D01*
G37*
%TD.AperFunction*%
D22*
X51493217Y26187374D02*
X51416271Y26172068D01*
X51246111Y26101586D01*
X51092972Y25999262D01*
X50962738Y25869028D01*
X50860414Y25715889D01*
X50789932Y25545729D01*
X50754000Y25365089D01*
X50754000Y25180911D01*
X50789932Y25000271D01*
X50860414Y24830111D01*
X50962738Y24676972D01*
X51092972Y24546738D01*
X51246111Y24444414D01*
X51416271Y24373932D01*
X51596911Y24338000D01*
X51781089Y24338000D01*
X51961729Y24373932D01*
X52131889Y24444414D01*
X52285028Y24546738D01*
X52415262Y24676972D01*
X52517586Y24830111D01*
X52588068Y25000271D01*
X52603374Y25077217D01*
X56840157Y29314000D01*
X65033842Y29314000D01*
X53622185Y17902342D01*
X53592237Y17877764D01*
X53567659Y17847816D01*
X53567655Y17847812D01*
X53534690Y17807644D01*
X53494139Y17758233D01*
X53485163Y17741440D01*
X53421246Y17621859D01*
X53376359Y17473886D01*
X53361203Y17320000D01*
X53365001Y17281437D01*
X53365000Y9210625D01*
X53275518Y9201812D01*
X53155820Y9165502D01*
X53045506Y9106537D01*
X52948815Y9027185D01*
X52869463Y8930494D01*
X52810498Y8820180D01*
X52774188Y8700482D01*
X52761928Y8576000D01*
X52761928Y7290651D01*
X51710534Y8342044D01*
X51682817Y8375817D01*
X51548059Y8486411D01*
X51394313Y8568589D01*
X51227490Y8619195D01*
X51097477Y8632000D01*
X51097469Y8632000D01*
X51054000Y8636281D01*
X51010531Y8632000D01*
X41260579Y8632000D01*
X40890000Y9002578D01*
X40890000Y12656535D01*
X40894281Y12700001D01*
X40890000Y12743467D01*
X40890000Y12743477D01*
X40877195Y12873490D01*
X40826589Y13040313D01*
X40744411Y13194059D01*
X40683389Y13268414D01*
X40661532Y13295047D01*
X40661530Y13295049D01*
X40633817Y13328817D01*
X40600049Y13356530D01*
X39391534Y14565044D01*
X39363817Y14598817D01*
X39229059Y14709411D01*
X39075313Y14791589D01*
X38908490Y14842195D01*
X38778477Y14855000D01*
X38778469Y14855000D01*
X38735000Y14859281D01*
X38691531Y14855000D01*
X38325112Y14855000D01*
X38177523Y15075883D01*
X38130564Y15122842D01*
X38189883Y15162477D01*
X38431523Y15404117D01*
X38545590Y15574832D01*
X44936470Y9183951D01*
X44964183Y9150183D01*
X44997951Y9122470D01*
X44997953Y9122468D01*
X45017365Y9106537D01*
X45098941Y9039589D01*
X45252687Y8957411D01*
X45419510Y8906805D01*
X45549523Y8894000D01*
X45549533Y8894000D01*
X45592999Y8889719D01*
X45636465Y8894000D01*
X48470531Y8894000D01*
X48514000Y8889719D01*
X48557469Y8894000D01*
X48557477Y8894000D01*
X48687490Y8906805D01*
X48854313Y8957411D01*
X49008059Y9039589D01*
X49142817Y9150183D01*
X49170534Y9183956D01*
X51258476Y11271897D01*
X51293655Y11264900D01*
X51576345Y11264900D01*
X51853603Y11320050D01*
X52114775Y11428231D01*
X52349823Y11585285D01*
X52549715Y11785177D01*
X52706769Y12020225D01*
X52814950Y12281397D01*
X52870100Y12558655D01*
X52870100Y12841345D01*
X52814950Y13118603D01*
X52706769Y13379775D01*
X52549715Y13614823D01*
X52349823Y13814715D01*
X52117422Y13970000D01*
X52349823Y14125285D01*
X52549715Y14325177D01*
X52706769Y14560225D01*
X52814950Y14821397D01*
X52870100Y15098655D01*
X52870100Y15381345D01*
X52814950Y15658603D01*
X52706769Y15919775D01*
X52549715Y16154823D01*
X52349823Y16354715D01*
X52114775Y16511769D01*
X51853603Y16619950D01*
X51576345Y16675100D01*
X51293655Y16675100D01*
X51016397Y16619950D01*
X50755225Y16511769D01*
X50520177Y16354715D01*
X50320285Y16154823D01*
X50165000Y15922422D01*
X50009715Y16154823D01*
X49809823Y16354715D01*
X49574775Y16511769D01*
X49313603Y16619950D01*
X49036345Y16675100D01*
X48753655Y16675100D01*
X48476397Y16619950D01*
X48215225Y16511769D01*
X47980177Y16354715D01*
X47780285Y16154823D01*
X47625000Y15922422D01*
X47469715Y16154823D01*
X47269823Y16354715D01*
X47034775Y16511769D01*
X46773603Y16619950D01*
X46496345Y16675100D01*
X46213655Y16675100D01*
X45936397Y16619950D01*
X45675225Y16511769D01*
X45440177Y16354715D01*
X45240285Y16154823D01*
X45083231Y15919775D01*
X44975050Y15658603D01*
X44919900Y15381345D01*
X44919900Y15098655D01*
X44975050Y14821397D01*
X45083231Y14560225D01*
X45240285Y14325177D01*
X45440177Y14125285D01*
X45673932Y13969095D01*
X45613426Y13936754D01*
X45541831Y13692774D01*
X46355000Y12879605D01*
X47168169Y13692774D01*
X47096574Y13936754D01*
X47032256Y13967188D01*
X47034775Y13968231D01*
X47269823Y14125285D01*
X47469715Y14325177D01*
X47625000Y14557578D01*
X47780285Y14325177D01*
X47980177Y14125285D01*
X48212578Y13970000D01*
X47980177Y13814715D01*
X47780285Y13614823D01*
X47624095Y13381068D01*
X47591754Y13441574D01*
X47347774Y13513169D01*
X46534605Y12700000D01*
X47347774Y11886831D01*
X47591754Y11958426D01*
X47622188Y12022744D01*
X47623231Y12020225D01*
X47780285Y11785177D01*
X47980177Y11585285D01*
X48215225Y11428231D01*
X48476397Y11320050D01*
X48749207Y11265785D01*
X48147422Y10664000D01*
X45959579Y10664000D01*
X44916353Y11707226D01*
X45541831Y11707226D01*
X45613426Y11463246D01*
X45868954Y11342336D01*
X46143161Y11273600D01*
X46425508Y11259680D01*
X46705147Y11301111D01*
X46971328Y11396300D01*
X47096574Y11463246D01*
X47168169Y11707226D01*
X46355000Y12520395D01*
X45541831Y11707226D01*
X44916353Y11707226D01*
X43994087Y12629492D01*
X44914680Y12629492D01*
X44956111Y12349853D01*
X45051300Y12083672D01*
X45118246Y11958426D01*
X45362226Y11886831D01*
X46175395Y12700000D01*
X45362226Y13513169D01*
X45118246Y13441574D01*
X44997336Y13186046D01*
X44928600Y12911839D01*
X44914680Y12629492D01*
X43994087Y12629492D01*
X40113578Y16510000D01*
X40219050Y16615471D01*
X40252817Y16643183D01*
X40283743Y16680865D01*
X40363411Y16777941D01*
X40427594Y16898021D01*
X40445589Y16931687D01*
X40496195Y17098510D01*
X40509000Y17228523D01*
X40509000Y17228531D01*
X40513281Y17272000D01*
X40509000Y17315469D01*
X40509000Y28023535D01*
X40513281Y28067001D01*
X40509000Y28110467D01*
X40509000Y28110477D01*
X40496195Y28240490D01*
X40445589Y28407313D01*
X40363411Y28561059D01*
X40288779Y28651998D01*
X40280532Y28662047D01*
X40280530Y28662049D01*
X40252817Y28695817D01*
X40219049Y28723530D01*
X39248532Y29694046D01*
X39220817Y29727817D01*
X39086059Y29838411D01*
X38932313Y29920589D01*
X38765490Y29971195D01*
X38753129Y29972412D01*
X38746799Y29981886D01*
X38629685Y30099000D01*
X38746799Y30216114D01*
X38812204Y30314000D01*
X55619843Y30314000D01*
X51493217Y26187374D01*
%TA.AperFunction,Conductor*%
D23*
G36*
X51493217Y26187374D02*
G01*
X51416271Y26172068D01*
X51246111Y26101586D01*
X51092972Y25999262D01*
X50962738Y25869028D01*
X50860414Y25715889D01*
X50789932Y25545729D01*
X50754000Y25365089D01*
X50754000Y25180911D01*
X50789932Y25000271D01*
X50860414Y24830111D01*
X50962738Y24676972D01*
X51092972Y24546738D01*
X51246111Y24444414D01*
X51416271Y24373932D01*
X51596911Y24338000D01*
X51781089Y24338000D01*
X51961729Y24373932D01*
X52131889Y24444414D01*
X52285028Y24546738D01*
X52415262Y24676972D01*
X52517586Y24830111D01*
X52588068Y25000271D01*
X52603374Y25077217D01*
X56840157Y29314000D01*
X65033842Y29314000D01*
X53622185Y17902342D01*
X53592237Y17877764D01*
X53567659Y17847816D01*
X53567655Y17847812D01*
X53534690Y17807644D01*
X53494139Y17758233D01*
X53485163Y17741440D01*
X53421246Y17621859D01*
X53376359Y17473886D01*
X53361203Y17320000D01*
X53365001Y17281437D01*
X53365000Y9210625D01*
X53275518Y9201812D01*
X53155820Y9165502D01*
X53045506Y9106537D01*
X52948815Y9027185D01*
X52869463Y8930494D01*
X52810498Y8820180D01*
X52774188Y8700482D01*
X52761928Y8576000D01*
X52761928Y7290651D01*
X51710534Y8342044D01*
X51682817Y8375817D01*
X51548059Y8486411D01*
X51394313Y8568589D01*
X51227490Y8619195D01*
X51097477Y8632000D01*
X51097469Y8632000D01*
X51054000Y8636281D01*
X51010531Y8632000D01*
X41260579Y8632000D01*
X40890000Y9002578D01*
X40890000Y12656535D01*
X40894281Y12700001D01*
X40890000Y12743467D01*
X40890000Y12743477D01*
X40877195Y12873490D01*
X40826589Y13040313D01*
X40744411Y13194059D01*
X40683389Y13268414D01*
X40661532Y13295047D01*
X40661530Y13295049D01*
X40633817Y13328817D01*
X40600049Y13356530D01*
X39391534Y14565044D01*
X39363817Y14598817D01*
X39229059Y14709411D01*
X39075313Y14791589D01*
X38908490Y14842195D01*
X38778477Y14855000D01*
X38778469Y14855000D01*
X38735000Y14859281D01*
X38691531Y14855000D01*
X38325112Y14855000D01*
X38177523Y15075883D01*
X38130564Y15122842D01*
X38189883Y15162477D01*
X38431523Y15404117D01*
X38545590Y15574832D01*
X44936470Y9183951D01*
X44964183Y9150183D01*
X44997951Y9122470D01*
X44997953Y9122468D01*
X45017365Y9106537D01*
X45098941Y9039589D01*
X45252687Y8957411D01*
X45419510Y8906805D01*
X45549523Y8894000D01*
X45549533Y8894000D01*
X45592999Y8889719D01*
X45636465Y8894000D01*
X48470531Y8894000D01*
X48514000Y8889719D01*
X48557469Y8894000D01*
X48557477Y8894000D01*
X48687490Y8906805D01*
X48854313Y8957411D01*
X49008059Y9039589D01*
X49142817Y9150183D01*
X49170534Y9183956D01*
X51258476Y11271897D01*
X51293655Y11264900D01*
X51576345Y11264900D01*
X51853603Y11320050D01*
X52114775Y11428231D01*
X52349823Y11585285D01*
X52549715Y11785177D01*
X52706769Y12020225D01*
X52814950Y12281397D01*
X52870100Y12558655D01*
X52870100Y12841345D01*
X52814950Y13118603D01*
X52706769Y13379775D01*
X52549715Y13614823D01*
X52349823Y13814715D01*
X52117422Y13970000D01*
X52349823Y14125285D01*
X52549715Y14325177D01*
X52706769Y14560225D01*
X52814950Y14821397D01*
X52870100Y15098655D01*
X52870100Y15381345D01*
X52814950Y15658603D01*
X52706769Y15919775D01*
X52549715Y16154823D01*
X52349823Y16354715D01*
X52114775Y16511769D01*
X51853603Y16619950D01*
X51576345Y16675100D01*
X51293655Y16675100D01*
X51016397Y16619950D01*
X50755225Y16511769D01*
X50520177Y16354715D01*
X50320285Y16154823D01*
X50165000Y15922422D01*
X50009715Y16154823D01*
X49809823Y16354715D01*
X49574775Y16511769D01*
X49313603Y16619950D01*
X49036345Y16675100D01*
X48753655Y16675100D01*
X48476397Y16619950D01*
X48215225Y16511769D01*
X47980177Y16354715D01*
X47780285Y16154823D01*
X47625000Y15922422D01*
X47469715Y16154823D01*
X47269823Y16354715D01*
X47034775Y16511769D01*
X46773603Y16619950D01*
X46496345Y16675100D01*
X46213655Y16675100D01*
X45936397Y16619950D01*
X45675225Y16511769D01*
X45440177Y16354715D01*
X45240285Y16154823D01*
X45083231Y15919775D01*
X44975050Y15658603D01*
X44919900Y15381345D01*
X44919900Y15098655D01*
X44975050Y14821397D01*
X45083231Y14560225D01*
X45240285Y14325177D01*
X45440177Y14125285D01*
X45673932Y13969095D01*
X45613426Y13936754D01*
X45541831Y13692774D01*
X46355000Y12879605D01*
X47168169Y13692774D01*
X47096574Y13936754D01*
X47032256Y13967188D01*
X47034775Y13968231D01*
X47269823Y14125285D01*
X47469715Y14325177D01*
X47625000Y14557578D01*
X47780285Y14325177D01*
X47980177Y14125285D01*
X48212578Y13970000D01*
X47980177Y13814715D01*
X47780285Y13614823D01*
X47624095Y13381068D01*
X47591754Y13441574D01*
X47347774Y13513169D01*
X46534605Y12700000D01*
X47347774Y11886831D01*
X47591754Y11958426D01*
X47622188Y12022744D01*
X47623231Y12020225D01*
X47780285Y11785177D01*
X47980177Y11585285D01*
X48215225Y11428231D01*
X48476397Y11320050D01*
X48749207Y11265785D01*
X48147422Y10664000D01*
X45959579Y10664000D01*
X44916353Y11707226D01*
X45541831Y11707226D01*
X45613426Y11463246D01*
X45868954Y11342336D01*
X46143161Y11273600D01*
X46425508Y11259680D01*
X46705147Y11301111D01*
X46971328Y11396300D01*
X47096574Y11463246D01*
X47168169Y11707226D01*
X46355000Y12520395D01*
X45541831Y11707226D01*
X44916353Y11707226D01*
X43994087Y12629492D01*
X44914680Y12629492D01*
X44956111Y12349853D01*
X45051300Y12083672D01*
X45118246Y11958426D01*
X45362226Y11886831D01*
X46175395Y12700000D01*
X45362226Y13513169D01*
X45118246Y13441574D01*
X44997336Y13186046D01*
X44928600Y12911839D01*
X44914680Y12629492D01*
X43994087Y12629492D01*
X40113578Y16510000D01*
X40219050Y16615471D01*
X40252817Y16643183D01*
X40283743Y16680865D01*
X40363411Y16777941D01*
X40427594Y16898021D01*
X40445589Y16931687D01*
X40496195Y17098510D01*
X40509000Y17228523D01*
X40509000Y17228531D01*
X40513281Y17272000D01*
X40509000Y17315469D01*
X40509000Y28023535D01*
X40513281Y28067001D01*
X40509000Y28110467D01*
X40509000Y28110477D01*
X40496195Y28240490D01*
X40445589Y28407313D01*
X40363411Y28561059D01*
X40288779Y28651998D01*
X40280532Y28662047D01*
X40280530Y28662049D01*
X40252817Y28695817D01*
X40219049Y28723530D01*
X39248532Y29694046D01*
X39220817Y29727817D01*
X39086059Y29838411D01*
X38932313Y29920589D01*
X38765490Y29971195D01*
X38753129Y29972412D01*
X38746799Y29981886D01*
X38629685Y30099000D01*
X38746799Y30216114D01*
X38812204Y30314000D01*
X55619843Y30314000D01*
X51493217Y26187374D01*
G37*
%TD.AperFunction*%
D22*
X76535000Y29429089D02*
X76535000Y29244911D01*
X76570932Y29064271D01*
X76641414Y28894111D01*
X76743738Y28740972D01*
X76873972Y28610738D01*
X77027111Y28508414D01*
X77061077Y28494345D01*
X77855001Y27700420D01*
X77855000Y21459000D01*
X77141692Y21459000D01*
X77107729Y21473068D01*
X76927089Y21509000D01*
X76742911Y21509000D01*
X76562271Y21473068D01*
X76392111Y21402586D01*
X76238972Y21300262D01*
X76108738Y21170028D01*
X76006414Y21016889D01*
X75935932Y20846729D01*
X75900000Y20666089D01*
X75900000Y20481911D01*
X75935932Y20301271D01*
X76006414Y20131111D01*
X76108738Y19977972D01*
X76238972Y19847738D01*
X76289208Y19814172D01*
X76138111Y19751586D01*
X75984972Y19649262D01*
X75854738Y19519028D01*
X75752414Y19365889D01*
X75681932Y19195729D01*
X75646000Y19015089D01*
X75646000Y18830911D01*
X75681932Y18650271D01*
X75752414Y18480111D01*
X75796001Y18414879D01*
X75796000Y18105158D01*
X74865944Y17175101D01*
X66287019Y17175101D01*
X66221788Y17218687D01*
X66051628Y17289169D01*
X65870988Y17325101D01*
X65686810Y17325101D01*
X65506170Y17289169D01*
X65336010Y17218687D01*
X65182871Y17116363D01*
X65052637Y16986129D01*
X64950313Y16832990D01*
X64879831Y16662830D01*
X64843899Y16482190D01*
X64843899Y16298012D01*
X64879831Y16117372D01*
X64950313Y15947212D01*
X65052637Y15794073D01*
X65182871Y15663839D01*
X65336010Y15561515D01*
X65486000Y15499388D01*
X65486000Y15401911D01*
X65521932Y15221271D01*
X65592414Y15051111D01*
X65694738Y14897972D01*
X65710710Y14882000D01*
X58712556Y14882000D01*
X58674000Y14885797D01*
X58635444Y14882000D01*
X58635439Y14882000D01*
X58595026Y14878020D01*
X58520113Y14870642D01*
X58372140Y14825754D01*
X58235767Y14752862D01*
X58116236Y14654764D01*
X58091653Y14624810D01*
X57459843Y13993000D01*
X56134120Y13993000D01*
X56068889Y14036586D01*
X55898729Y14107068D01*
X55718089Y14143000D01*
X55533911Y14143000D01*
X55522000Y14140631D01*
X55522000Y16874723D01*
X61953001Y23305723D01*
X61953000Y19558120D01*
X61909414Y19492889D01*
X61838932Y19322729D01*
X61803000Y19142089D01*
X61803000Y18957911D01*
X61838932Y18777271D01*
X61909414Y18607111D01*
X62011738Y18453972D01*
X62141972Y18323738D01*
X62295111Y18221414D01*
X62465271Y18150932D01*
X62645911Y18115000D01*
X62830089Y18115000D01*
X63010729Y18150932D01*
X63180889Y18221414D01*
X63334028Y18323738D01*
X63464262Y18453972D01*
X63566586Y18607111D01*
X63637068Y18777271D01*
X63673000Y18957911D01*
X63673000Y19142089D01*
X63637068Y19322729D01*
X63566586Y19492889D01*
X63523000Y19558120D01*
X63523000Y23535252D01*
X63608271Y23499932D01*
X63788911Y23464000D01*
X63973089Y23464000D01*
X64153729Y23499932D01*
X64323889Y23570414D01*
X64366671Y23599000D01*
X72859447Y23599000D01*
X72898000Y23595203D01*
X72936553Y23599000D01*
X72936561Y23599000D01*
X73051887Y23610359D01*
X73199860Y23655246D01*
X73336233Y23728138D01*
X73455764Y23826236D01*
X73480347Y23856190D01*
X74695817Y25071659D01*
X74725764Y25096236D01*
X74823862Y25215767D01*
X74896754Y25352140D01*
X74941641Y25500113D01*
X74953000Y25615439D01*
X74953000Y25615446D01*
X74956797Y25653999D01*
X74953000Y25692552D01*
X74953000Y25809437D01*
X74990414Y25719111D01*
X75092738Y25565972D01*
X75222972Y25435738D01*
X75376111Y25333414D01*
X75546271Y25262932D01*
X75726911Y25227000D01*
X75911089Y25227000D01*
X76091729Y25262932D01*
X76261889Y25333414D01*
X76415028Y25435738D01*
X76545262Y25565972D01*
X76647586Y25719111D01*
X76718068Y25889271D01*
X76754000Y26069911D01*
X76754000Y26254089D01*
X76718068Y26434729D01*
X76647586Y26604889D01*
X76545262Y26758028D01*
X76415028Y26888262D01*
X76261889Y26990586D01*
X76091729Y27061068D01*
X76014783Y27076374D01*
X75842000Y27249157D01*
X75842000Y29138843D01*
X76298158Y29595000D01*
X76568002Y29595000D01*
X76535000Y29429089D01*
%TA.AperFunction,Conductor*%
D23*
G36*
X76535000Y29429089D02*
G01*
X76535000Y29244911D01*
X76570932Y29064271D01*
X76641414Y28894111D01*
X76743738Y28740972D01*
X76873972Y28610738D01*
X77027111Y28508414D01*
X77061077Y28494345D01*
X77855001Y27700420D01*
X77855000Y21459000D01*
X77141692Y21459000D01*
X77107729Y21473068D01*
X76927089Y21509000D01*
X76742911Y21509000D01*
X76562271Y21473068D01*
X76392111Y21402586D01*
X76238972Y21300262D01*
X76108738Y21170028D01*
X76006414Y21016889D01*
X75935932Y20846729D01*
X75900000Y20666089D01*
X75900000Y20481911D01*
X75935932Y20301271D01*
X76006414Y20131111D01*
X76108738Y19977972D01*
X76238972Y19847738D01*
X76289208Y19814172D01*
X76138111Y19751586D01*
X75984972Y19649262D01*
X75854738Y19519028D01*
X75752414Y19365889D01*
X75681932Y19195729D01*
X75646000Y19015089D01*
X75646000Y18830911D01*
X75681932Y18650271D01*
X75752414Y18480111D01*
X75796001Y18414879D01*
X75796000Y18105158D01*
X74865944Y17175101D01*
X66287019Y17175101D01*
X66221788Y17218687D01*
X66051628Y17289169D01*
X65870988Y17325101D01*
X65686810Y17325101D01*
X65506170Y17289169D01*
X65336010Y17218687D01*
X65182871Y17116363D01*
X65052637Y16986129D01*
X64950313Y16832990D01*
X64879831Y16662830D01*
X64843899Y16482190D01*
X64843899Y16298012D01*
X64879831Y16117372D01*
X64950313Y15947212D01*
X65052637Y15794073D01*
X65182871Y15663839D01*
X65336010Y15561515D01*
X65486000Y15499388D01*
X65486000Y15401911D01*
X65521932Y15221271D01*
X65592414Y15051111D01*
X65694738Y14897972D01*
X65710710Y14882000D01*
X58712556Y14882000D01*
X58674000Y14885797D01*
X58635444Y14882000D01*
X58635439Y14882000D01*
X58595026Y14878020D01*
X58520113Y14870642D01*
X58372140Y14825754D01*
X58235767Y14752862D01*
X58116236Y14654764D01*
X58091653Y14624810D01*
X57459843Y13993000D01*
X56134120Y13993000D01*
X56068889Y14036586D01*
X55898729Y14107068D01*
X55718089Y14143000D01*
X55533911Y14143000D01*
X55522000Y14140631D01*
X55522000Y16874723D01*
X61953001Y23305723D01*
X61953000Y19558120D01*
X61909414Y19492889D01*
X61838932Y19322729D01*
X61803000Y19142089D01*
X61803000Y18957911D01*
X61838932Y18777271D01*
X61909414Y18607111D01*
X62011738Y18453972D01*
X62141972Y18323738D01*
X62295111Y18221414D01*
X62465271Y18150932D01*
X62645911Y18115000D01*
X62830089Y18115000D01*
X63010729Y18150932D01*
X63180889Y18221414D01*
X63334028Y18323738D01*
X63464262Y18453972D01*
X63566586Y18607111D01*
X63637068Y18777271D01*
X63673000Y18957911D01*
X63673000Y19142089D01*
X63637068Y19322729D01*
X63566586Y19492889D01*
X63523000Y19558120D01*
X63523000Y23535252D01*
X63608271Y23499932D01*
X63788911Y23464000D01*
X63973089Y23464000D01*
X64153729Y23499932D01*
X64323889Y23570414D01*
X64366671Y23599000D01*
X72859447Y23599000D01*
X72898000Y23595203D01*
X72936553Y23599000D01*
X72936561Y23599000D01*
X73051887Y23610359D01*
X73199860Y23655246D01*
X73336233Y23728138D01*
X73455764Y23826236D01*
X73480347Y23856190D01*
X74695817Y25071659D01*
X74725764Y25096236D01*
X74823862Y25215767D01*
X74896754Y25352140D01*
X74941641Y25500113D01*
X74953000Y25615439D01*
X74953000Y25615446D01*
X74956797Y25653999D01*
X74953000Y25692552D01*
X74953000Y25809437D01*
X74990414Y25719111D01*
X75092738Y25565972D01*
X75222972Y25435738D01*
X75376111Y25333414D01*
X75546271Y25262932D01*
X75726911Y25227000D01*
X75911089Y25227000D01*
X76091729Y25262932D01*
X76261889Y25333414D01*
X76415028Y25435738D01*
X76545262Y25565972D01*
X76647586Y25719111D01*
X76718068Y25889271D01*
X76754000Y26069911D01*
X76754000Y26254089D01*
X76718068Y26434729D01*
X76647586Y26604889D01*
X76545262Y26758028D01*
X76415028Y26888262D01*
X76261889Y26990586D01*
X76091729Y27061068D01*
X76014783Y27076374D01*
X75842000Y27249157D01*
X75842000Y29138843D01*
X76298158Y29595000D01*
X76568002Y29595000D01*
X76535000Y29429089D01*
G37*
%TD.AperFunction*%
D22*
X37023748Y19064142D02*
X37009605Y19050000D01*
X37023748Y19035857D01*
X36844143Y18856252D01*
X36830000Y18870395D01*
X35803022Y17843417D01*
X35848408Y17727814D01*
X35736477Y17615883D01*
X35546623Y17331745D01*
X35433800Y17059368D01*
X35433800Y18097466D01*
X35623417Y18023022D01*
X36650395Y19050000D01*
X36636253Y19064142D01*
X36815858Y19243747D01*
X36830000Y19229605D01*
X36844143Y19243747D01*
X37023748Y19064142D01*
%TA.AperFunction,Conductor*%
D23*
G36*
X37023748Y19064142D02*
G01*
X37009605Y19050000D01*
X37023748Y19035857D01*
X36844143Y18856252D01*
X36830000Y18870395D01*
X35803022Y17843417D01*
X35848408Y17727814D01*
X35736477Y17615883D01*
X35546623Y17331745D01*
X35433800Y17059368D01*
X35433800Y18097466D01*
X35623417Y18023022D01*
X36650395Y19050000D01*
X36636253Y19064142D01*
X36815858Y19243747D01*
X36830000Y19229605D01*
X36844143Y19243747D01*
X37023748Y19064142D01*
G37*
%TD.AperFunction*%
D22*
X35649466Y28503956D02*
X35677183Y28470183D01*
X35811941Y28359589D01*
X35965687Y28277411D01*
X36081903Y28242157D01*
X36132509Y28226805D01*
X36147306Y28225348D01*
X36262523Y28214000D01*
X36262531Y28214000D01*
X36306000Y28209719D01*
X36349469Y28214000D01*
X36597315Y28214000D01*
X36788114Y28023201D01*
X37014957Y27871629D01*
X37122537Y27827068D01*
X37671000Y27278605D01*
X37685143Y27292747D01*
X37864748Y27113142D01*
X37850605Y27099000D01*
X38627993Y26321612D01*
X38739001Y26352063D01*
X38739001Y22834334D01*
X38723792Y22884470D01*
X38664827Y22994784D01*
X38585475Y23091475D01*
X38488784Y23170827D01*
X38378470Y23229792D01*
X38258772Y23266102D01*
X38134290Y23278362D01*
X37369750Y23275290D01*
X37211000Y23116540D01*
X37211000Y21717000D01*
X37231000Y21717000D01*
X37231000Y21463000D01*
X37211000Y21463000D01*
X37211000Y21443000D01*
X36957000Y21443000D01*
X36957000Y21463000D01*
X36937000Y21463000D01*
X36937000Y21717000D01*
X36957000Y21717000D01*
X36957000Y23116540D01*
X36798250Y23275290D01*
X36033710Y23278362D01*
X35909228Y23266102D01*
X35789530Y23229792D01*
X35679216Y23170827D01*
X35582525Y23091475D01*
X35503173Y22994784D01*
X35444208Y22884470D01*
X35433800Y22850159D01*
X35433800Y26142007D01*
X36893612Y26142007D01*
X36959137Y25903140D01*
X37206116Y25787240D01*
X37470960Y25721750D01*
X37743492Y25709188D01*
X38013238Y25750035D01*
X38269832Y25842723D01*
X38382863Y25903140D01*
X38448388Y26142007D01*
X37671000Y26919395D01*
X36893612Y26142007D01*
X35433800Y26142007D01*
X35433800Y27026508D01*
X36281188Y27026508D01*
X36322035Y26756762D01*
X36414723Y26500168D01*
X36475140Y26387137D01*
X36714007Y26321612D01*
X37491395Y27099000D01*
X36714007Y27876388D01*
X36475140Y27810863D01*
X36359240Y27563884D01*
X36293750Y27299040D01*
X36281188Y27026508D01*
X35433800Y27026508D01*
X35433800Y28719622D01*
X35649466Y28503956D01*
%TA.AperFunction,Conductor*%
D23*
G36*
X35649466Y28503956D02*
G01*
X35677183Y28470183D01*
X35811941Y28359589D01*
X35965687Y28277411D01*
X36081903Y28242157D01*
X36132509Y28226805D01*
X36147306Y28225348D01*
X36262523Y28214000D01*
X36262531Y28214000D01*
X36306000Y28209719D01*
X36349469Y28214000D01*
X36597315Y28214000D01*
X36788114Y28023201D01*
X37014957Y27871629D01*
X37122537Y27827068D01*
X37671000Y27278605D01*
X37685143Y27292747D01*
X37864748Y27113142D01*
X37850605Y27099000D01*
X38627993Y26321612D01*
X38739001Y26352063D01*
X38739001Y22834334D01*
X38723792Y22884470D01*
X38664827Y22994784D01*
X38585475Y23091475D01*
X38488784Y23170827D01*
X38378470Y23229792D01*
X38258772Y23266102D01*
X38134290Y23278362D01*
X37369750Y23275290D01*
X37211000Y23116540D01*
X37211000Y21717000D01*
X37231000Y21717000D01*
X37231000Y21463000D01*
X37211000Y21463000D01*
X37211000Y21443000D01*
X36957000Y21443000D01*
X36957000Y21463000D01*
X36937000Y21463000D01*
X36937000Y21717000D01*
X36957000Y21717000D01*
X36957000Y23116540D01*
X36798250Y23275290D01*
X36033710Y23278362D01*
X35909228Y23266102D01*
X35789530Y23229792D01*
X35679216Y23170827D01*
X35582525Y23091475D01*
X35503173Y22994784D01*
X35444208Y22884470D01*
X35433800Y22850159D01*
X35433800Y26142007D01*
X36893612Y26142007D01*
X36959137Y25903140D01*
X37206116Y25787240D01*
X37470960Y25721750D01*
X37743492Y25709188D01*
X38013238Y25750035D01*
X38269832Y25842723D01*
X38382863Y25903140D01*
X38448388Y26142007D01*
X37671000Y26919395D01*
X36893612Y26142007D01*
X35433800Y26142007D01*
X35433800Y27026508D01*
X36281188Y27026508D01*
X36322035Y26756762D01*
X36414723Y26500168D01*
X36475140Y26387137D01*
X36714007Y26321612D01*
X37491395Y27099000D01*
X36714007Y27876388D01*
X36475140Y27810863D01*
X36359240Y27563884D01*
X36293750Y27299040D01*
X36281188Y27026508D01*
X35433800Y27026508D01*
X35433800Y28719622D01*
X35649466Y28503956D01*
G37*
%TD.AperFunction*%
D22*
X76773679Y42092693D02*
X77016986Y42055712D01*
X77251023Y41995819D01*
X77475039Y41914110D01*
X77688107Y41811706D01*
X77889187Y41689795D01*
X78076869Y41549619D01*
X78250025Y41392232D01*
X78407468Y41218937D01*
X78547658Y41031236D01*
X78669506Y40830183D01*
X78771816Y40617070D01*
X78853529Y40392828D01*
X78913502Y40158783D01*
X78950388Y39915593D01*
X78963901Y39646499D01*
X78963901Y35349192D01*
X78928889Y35372586D01*
X78758729Y35443068D01*
X78578089Y35479000D01*
X78393911Y35479000D01*
X78213271Y35443068D01*
X78043111Y35372586D01*
X77889972Y35270262D01*
X77759738Y35140028D01*
X77657414Y34986889D01*
X77586932Y34816729D01*
X77551000Y34636089D01*
X77551000Y34451911D01*
X77586001Y34275952D01*
X77586000Y31929693D01*
X77571932Y31895729D01*
X77536000Y31715089D01*
X77536000Y31530911D01*
X77571932Y31350271D01*
X77642414Y31180111D01*
X77744738Y31026972D01*
X77874972Y30896738D01*
X78028111Y30794414D01*
X78198271Y30723932D01*
X78378911Y30688000D01*
X78563089Y30688000D01*
X78743729Y30723932D01*
X78913889Y30794414D01*
X78963901Y30827831D01*
X78963901Y29094678D01*
X78312655Y29745923D01*
X78298586Y29779889D01*
X78196262Y29933028D01*
X78066028Y30063262D01*
X77912889Y30165586D01*
X77853919Y30190012D01*
X77861068Y30207271D01*
X77897000Y30387911D01*
X77897000Y30572089D01*
X77861068Y30752729D01*
X77790586Y30922889D01*
X77688262Y31076028D01*
X77558028Y31206262D01*
X77404889Y31308586D01*
X77234729Y31379068D01*
X77054089Y31415000D01*
X76869911Y31415000D01*
X76689271Y31379068D01*
X76655308Y31365000D01*
X76029523Y31365000D01*
X75899510Y31352195D01*
X75732687Y31301589D01*
X75578941Y31219411D01*
X75444183Y31108817D01*
X75333589Y30974059D01*
X75251411Y30820313D01*
X75228879Y30746037D01*
X74707435Y30224592D01*
X74679729Y30236068D01*
X74621509Y30247649D01*
X73242347Y31626810D01*
X73217764Y31656764D01*
X73098233Y31754862D01*
X72961860Y31827754D01*
X72813887Y31872641D01*
X72698561Y31884000D01*
X72698553Y31884000D01*
X72660000Y31887797D01*
X72621447Y31884000D01*
X69382448Y31884000D01*
X69388000Y31911911D01*
X69388000Y32096089D01*
X69352068Y32276729D01*
X69281586Y32446889D01*
X69179262Y32600028D01*
X69049028Y32730262D01*
X68895889Y32832586D01*
X68725729Y32903068D01*
X68545089Y32939000D01*
X68360911Y32939000D01*
X68180271Y32903068D01*
X68010111Y32832586D01*
X67944880Y32789000D01*
X40996157Y32789000D01*
X40158347Y33626810D01*
X40133764Y33656764D01*
X40014233Y33754862D01*
X39877860Y33827754D01*
X39729887Y33872641D01*
X39614561Y33884000D01*
X39614553Y33884000D01*
X39576000Y33887797D01*
X39537447Y33884000D01*
X39055625Y33884000D01*
X39046812Y33973482D01*
X39010502Y34093180D01*
X38951537Y34203494D01*
X38879370Y34291430D01*
X38905469Y34294000D01*
X38905477Y34294000D01*
X39035490Y34306805D01*
X39202313Y34357411D01*
X39356059Y34439589D01*
X39490817Y34550183D01*
X39518534Y34583956D01*
X42816248Y37881669D01*
X42816248Y35707320D01*
X42828508Y35582838D01*
X42864818Y35463140D01*
X42923783Y35352826D01*
X43003135Y35256135D01*
X43099826Y35176783D01*
X43210140Y35117818D01*
X43329838Y35081508D01*
X43454320Y35069248D01*
X45953680Y35069248D01*
X46078162Y35081508D01*
X46197860Y35117818D01*
X46308174Y35176783D01*
X46404865Y35256135D01*
X46484217Y35352826D01*
X46543182Y35463140D01*
X46579492Y35582838D01*
X46591752Y35707320D01*
X46591752Y37142625D01*
X47899320Y37142625D01*
X47899320Y36771375D01*
X47971747Y36407259D01*
X48113818Y36064269D01*
X48320074Y35755587D01*
X48582587Y35493074D01*
X48891269Y35286818D01*
X49234259Y35144747D01*
X49598375Y35072320D01*
X49969625Y35072320D01*
X50333741Y35144747D01*
X50676731Y35286818D01*
X50985413Y35493074D01*
X51135962Y35643623D01*
X53730229Y35643623D01*
X53856104Y35353685D01*
X54188262Y35187861D01*
X54546387Y35090025D01*
X54916719Y35063935D01*
X55285025Y35110595D01*
X55637151Y35228211D01*
X55871896Y35353685D01*
X55997771Y35643623D01*
X54864000Y36777395D01*
X53730229Y35643623D01*
X51135962Y35643623D01*
X51247926Y35755587D01*
X51454182Y36064269D01*
X51596253Y36407259D01*
X51668680Y36771375D01*
X51668680Y36904281D01*
X52970935Y36904281D01*
X53017595Y36535975D01*
X53135211Y36183849D01*
X53260685Y35949104D01*
X53550623Y35823229D01*
X54684395Y36957000D01*
X55043605Y36957000D01*
X56177377Y35823229D01*
X56467315Y35949104D01*
X56633139Y36281262D01*
X56730975Y36639387D01*
X56757065Y37009719D01*
X56710405Y37378025D01*
X56592789Y37730151D01*
X56467315Y37964896D01*
X56177377Y38090771D01*
X55043605Y36957000D01*
X54684395Y36957000D01*
X53550623Y38090771D01*
X53260685Y37964896D01*
X53094861Y37632738D01*
X52997025Y37274613D01*
X52970935Y36904281D01*
X51668680Y36904281D01*
X51668680Y37142625D01*
X51596253Y37506741D01*
X51454182Y37849731D01*
X51247926Y38158413D01*
X51135962Y38270377D01*
X53730229Y38270377D01*
X54864000Y37136605D01*
X55997771Y38270377D01*
X55871896Y38560315D01*
X55539738Y38726139D01*
X55181613Y38823975D01*
X54811281Y38850065D01*
X54442975Y38803405D01*
X54090849Y38685789D01*
X53856104Y38560315D01*
X53730229Y38270377D01*
X51135962Y38270377D01*
X50985413Y38420926D01*
X50676731Y38627182D01*
X50333741Y38769253D01*
X49969625Y38841680D01*
X49598375Y38841680D01*
X49234259Y38769253D01*
X48891269Y38627182D01*
X48582587Y38420926D01*
X48320074Y38158413D01*
X48113818Y37849731D01*
X47971747Y37506741D01*
X47899320Y37142625D01*
X46591752Y37142625D01*
X46591752Y38206680D01*
X46579492Y38331162D01*
X46543182Y38450860D01*
X46484217Y38561174D01*
X46404865Y38657865D01*
X46308174Y38737217D01*
X46197860Y38796182D01*
X46078162Y38832492D01*
X45953680Y38844752D01*
X45589000Y38844752D01*
X45589000Y39120000D01*
X58688422Y39120000D01*
X58963669Y38844752D01*
X58694320Y38844752D01*
X58569838Y38832492D01*
X58450140Y38796182D01*
X58339826Y38737217D01*
X58243135Y38657865D01*
X58163783Y38561174D01*
X58104818Y38450860D01*
X58068508Y38331162D01*
X58056248Y38206680D01*
X58056248Y35707320D01*
X58068508Y35582838D01*
X58104818Y35463140D01*
X58163783Y35352826D01*
X58243135Y35256135D01*
X58339826Y35176783D01*
X58450140Y35117818D01*
X58569838Y35081508D01*
X58694320Y35069248D01*
X61193680Y35069248D01*
X61318162Y35081508D01*
X61437860Y35117818D01*
X61548174Y35176783D01*
X61644865Y35256135D01*
X61724217Y35352826D01*
X61783182Y35463140D01*
X61819492Y35582838D01*
X61831752Y35707320D01*
X61831752Y37142625D01*
X63139320Y37142625D01*
X63139320Y36771375D01*
X63211747Y36407259D01*
X63353818Y36064269D01*
X63560074Y35755587D01*
X63822587Y35493074D01*
X64131269Y35286818D01*
X64474259Y35144747D01*
X64838375Y35072320D01*
X65209625Y35072320D01*
X65573741Y35144747D01*
X65916731Y35286818D01*
X66225413Y35493074D01*
X66375962Y35643623D01*
X68970229Y35643623D01*
X69096104Y35353685D01*
X69428262Y35187861D01*
X69786387Y35090025D01*
X70156719Y35063935D01*
X70525025Y35110595D01*
X70877151Y35228211D01*
X71111896Y35353685D01*
X71237771Y35643623D01*
X70104000Y36777395D01*
X68970229Y35643623D01*
X66375962Y35643623D01*
X66487926Y35755587D01*
X66694182Y36064269D01*
X66836253Y36407259D01*
X66908680Y36771375D01*
X66908680Y36904281D01*
X68210935Y36904281D01*
X68257595Y36535975D01*
X68375211Y36183849D01*
X68500685Y35949104D01*
X68790623Y35823229D01*
X69924395Y36957000D01*
X70283605Y36957000D01*
X71417377Y35823229D01*
X71707315Y35949104D01*
X71873139Y36281262D01*
X71970975Y36639387D01*
X71997065Y37009719D01*
X71950405Y37378025D01*
X71832789Y37730151D01*
X71707315Y37964896D01*
X71417377Y38090771D01*
X70283605Y36957000D01*
X69924395Y36957000D01*
X68790623Y38090771D01*
X68500685Y37964896D01*
X68334861Y37632738D01*
X68237025Y37274613D01*
X68210935Y36904281D01*
X66908680Y36904281D01*
X66908680Y37142625D01*
X66836253Y37506741D01*
X66694182Y37849731D01*
X66487926Y38158413D01*
X66375962Y38270377D01*
X68970229Y38270377D01*
X70104000Y37136605D01*
X71237771Y38270377D01*
X71111896Y38560315D01*
X70779738Y38726139D01*
X70421613Y38823975D01*
X70051281Y38850065D01*
X69682975Y38803405D01*
X69330849Y38685789D01*
X69096104Y38560315D01*
X68970229Y38270377D01*
X66375962Y38270377D01*
X66225413Y38420926D01*
X65916731Y38627182D01*
X65573741Y38769253D01*
X65209625Y38841680D01*
X64838375Y38841680D01*
X64474259Y38769253D01*
X64131269Y38627182D01*
X63822587Y38420926D01*
X63560074Y38158413D01*
X63353818Y37849731D01*
X63211747Y37506741D01*
X63139320Y37142625D01*
X61831752Y37142625D01*
X61831752Y38206680D01*
X61819492Y38331162D01*
X61783182Y38450860D01*
X61724217Y38561174D01*
X61644865Y38657865D01*
X61548174Y38737217D01*
X61437860Y38796182D01*
X61318162Y38832492D01*
X61193680Y38844752D01*
X60829000Y38844752D01*
X60829000Y39072531D01*
X60833281Y39116000D01*
X60829000Y39159469D01*
X60829000Y39159477D01*
X60816195Y39289490D01*
X60765589Y39456313D01*
X60748584Y39488128D01*
X74036000Y39488128D01*
X74036000Y39047872D01*
X74121890Y38616075D01*
X74290369Y38209331D01*
X74534962Y37843271D01*
X74846271Y37531962D01*
X75212331Y37287369D01*
X75619075Y37118890D01*
X76050872Y37033000D01*
X76491128Y37033000D01*
X76922925Y37118890D01*
X77329669Y37287369D01*
X77695729Y37531962D01*
X78007038Y37843271D01*
X78251631Y38209331D01*
X78420110Y38616075D01*
X78506000Y39047872D01*
X78506000Y39488128D01*
X78420110Y39919925D01*
X78251631Y40326669D01*
X78007038Y40692729D01*
X77695729Y41004038D01*
X77329669Y41248631D01*
X76922925Y41417110D01*
X76491128Y41503000D01*
X76050872Y41503000D01*
X75619075Y41417110D01*
X75212331Y41248631D01*
X74846271Y41004038D01*
X74534962Y40692729D01*
X74290369Y40326669D01*
X74121890Y39919925D01*
X74036000Y39488128D01*
X60748584Y39488128D01*
X60683411Y39610059D01*
X60668088Y39628730D01*
X60600532Y39711047D01*
X60600530Y39711049D01*
X60572817Y39744817D01*
X60539050Y39772529D01*
X59711534Y40600044D01*
X59683817Y40633817D01*
X59549059Y40744411D01*
X59395313Y40826589D01*
X59228490Y40877195D01*
X59098477Y40890000D01*
X59098469Y40890000D01*
X59055000Y40894281D01*
X59011531Y40890000D01*
X44493469Y40890000D01*
X44450000Y40894281D01*
X44406531Y40890000D01*
X43731469Y40890000D01*
X43688000Y40894281D01*
X43644531Y40890000D01*
X43644523Y40890000D01*
X43514510Y40877195D01*
X43347686Y40826589D01*
X43193941Y40744411D01*
X43092953Y40661532D01*
X43092951Y40661530D01*
X43059183Y40633817D01*
X43031470Y40600049D01*
X38495422Y36064000D01*
X37484467Y36064000D01*
X37440998Y36068281D01*
X37397529Y36064000D01*
X37397521Y36064000D01*
X37267508Y36051195D01*
X37100684Y36000589D01*
X36946939Y35918411D01*
X36845951Y35835532D01*
X36845949Y35835530D01*
X36812181Y35807817D01*
X36784468Y35774049D01*
X35433800Y34423380D01*
X35433800Y39588128D01*
X36036000Y39588128D01*
X36036000Y39147872D01*
X36121890Y38716075D01*
X36290369Y38309331D01*
X36534962Y37943271D01*
X36846271Y37631962D01*
X37212331Y37387369D01*
X37619075Y37218890D01*
X38050872Y37133000D01*
X38491128Y37133000D01*
X38922925Y37218890D01*
X39329669Y37387369D01*
X39695729Y37631962D01*
X40007038Y37943271D01*
X40251631Y38309331D01*
X40420110Y38716075D01*
X40506000Y39147872D01*
X40506000Y39588128D01*
X40420110Y40019925D01*
X40251631Y40426669D01*
X40007038Y40792729D01*
X39695729Y41104038D01*
X39329669Y41348631D01*
X38922925Y41517110D01*
X38491128Y41603000D01*
X38050872Y41603000D01*
X37619075Y41517110D01*
X37212331Y41348631D01*
X36846271Y41104038D01*
X36534962Y40792729D01*
X36290369Y40426669D01*
X36121890Y40019925D01*
X36036000Y39588128D01*
X35433800Y39588128D01*
X35433800Y39646518D01*
X35447312Y39915593D01*
X35484214Y40158891D01*
X35544081Y40392823D01*
X35625806Y40616884D01*
X35728244Y40830101D01*
X35850092Y41031154D01*
X35990424Y41218940D01*
X36147787Y41392234D01*
X36320912Y41549522D01*
X36508752Y41689757D01*
X36709858Y41811685D01*
X36923016Y41914094D01*
X37147074Y41995818D01*
X37381113Y42055712D01*
X37624421Y42092693D01*
X37893381Y42106200D01*
X76504718Y42106200D01*
X76773679Y42092693D01*
%TA.AperFunction,Conductor*%
D23*
G36*
X76773679Y42092693D02*
G01*
X77016986Y42055712D01*
X77251023Y41995819D01*
X77475039Y41914110D01*
X77688107Y41811706D01*
X77889187Y41689795D01*
X78076869Y41549619D01*
X78250025Y41392232D01*
X78407468Y41218937D01*
X78547658Y41031236D01*
X78669506Y40830183D01*
X78771816Y40617070D01*
X78853529Y40392828D01*
X78913502Y40158783D01*
X78950388Y39915593D01*
X78963901Y39646499D01*
X78963901Y35349192D01*
X78928889Y35372586D01*
X78758729Y35443068D01*
X78578089Y35479000D01*
X78393911Y35479000D01*
X78213271Y35443068D01*
X78043111Y35372586D01*
X77889972Y35270262D01*
X77759738Y35140028D01*
X77657414Y34986889D01*
X77586932Y34816729D01*
X77551000Y34636089D01*
X77551000Y34451911D01*
X77586001Y34275952D01*
X77586000Y31929693D01*
X77571932Y31895729D01*
X77536000Y31715089D01*
X77536000Y31530911D01*
X77571932Y31350271D01*
X77642414Y31180111D01*
X77744738Y31026972D01*
X77874972Y30896738D01*
X78028111Y30794414D01*
X78198271Y30723932D01*
X78378911Y30688000D01*
X78563089Y30688000D01*
X78743729Y30723932D01*
X78913889Y30794414D01*
X78963901Y30827831D01*
X78963901Y29094678D01*
X78312655Y29745923D01*
X78298586Y29779889D01*
X78196262Y29933028D01*
X78066028Y30063262D01*
X77912889Y30165586D01*
X77853919Y30190012D01*
X77861068Y30207271D01*
X77897000Y30387911D01*
X77897000Y30572089D01*
X77861068Y30752729D01*
X77790586Y30922889D01*
X77688262Y31076028D01*
X77558028Y31206262D01*
X77404889Y31308586D01*
X77234729Y31379068D01*
X77054089Y31415000D01*
X76869911Y31415000D01*
X76689271Y31379068D01*
X76655308Y31365000D01*
X76029523Y31365000D01*
X75899510Y31352195D01*
X75732687Y31301589D01*
X75578941Y31219411D01*
X75444183Y31108817D01*
X75333589Y30974059D01*
X75251411Y30820313D01*
X75228879Y30746037D01*
X74707435Y30224592D01*
X74679729Y30236068D01*
X74621509Y30247649D01*
X73242347Y31626810D01*
X73217764Y31656764D01*
X73098233Y31754862D01*
X72961860Y31827754D01*
X72813887Y31872641D01*
X72698561Y31884000D01*
X72698553Y31884000D01*
X72660000Y31887797D01*
X72621447Y31884000D01*
X69382448Y31884000D01*
X69388000Y31911911D01*
X69388000Y32096089D01*
X69352068Y32276729D01*
X69281586Y32446889D01*
X69179262Y32600028D01*
X69049028Y32730262D01*
X68895889Y32832586D01*
X68725729Y32903068D01*
X68545089Y32939000D01*
X68360911Y32939000D01*
X68180271Y32903068D01*
X68010111Y32832586D01*
X67944880Y32789000D01*
X40996157Y32789000D01*
X40158347Y33626810D01*
X40133764Y33656764D01*
X40014233Y33754862D01*
X39877860Y33827754D01*
X39729887Y33872641D01*
X39614561Y33884000D01*
X39614553Y33884000D01*
X39576000Y33887797D01*
X39537447Y33884000D01*
X39055625Y33884000D01*
X39046812Y33973482D01*
X39010502Y34093180D01*
X38951537Y34203494D01*
X38879370Y34291430D01*
X38905469Y34294000D01*
X38905477Y34294000D01*
X39035490Y34306805D01*
X39202313Y34357411D01*
X39356059Y34439589D01*
X39490817Y34550183D01*
X39518534Y34583956D01*
X42816248Y37881669D01*
X42816248Y35707320D01*
X42828508Y35582838D01*
X42864818Y35463140D01*
X42923783Y35352826D01*
X43003135Y35256135D01*
X43099826Y35176783D01*
X43210140Y35117818D01*
X43329838Y35081508D01*
X43454320Y35069248D01*
X45953680Y35069248D01*
X46078162Y35081508D01*
X46197860Y35117818D01*
X46308174Y35176783D01*
X46404865Y35256135D01*
X46484217Y35352826D01*
X46543182Y35463140D01*
X46579492Y35582838D01*
X46591752Y35707320D01*
X46591752Y37142625D01*
X47899320Y37142625D01*
X47899320Y36771375D01*
X47971747Y36407259D01*
X48113818Y36064269D01*
X48320074Y35755587D01*
X48582587Y35493074D01*
X48891269Y35286818D01*
X49234259Y35144747D01*
X49598375Y35072320D01*
X49969625Y35072320D01*
X50333741Y35144747D01*
X50676731Y35286818D01*
X50985413Y35493074D01*
X51135962Y35643623D01*
X53730229Y35643623D01*
X53856104Y35353685D01*
X54188262Y35187861D01*
X54546387Y35090025D01*
X54916719Y35063935D01*
X55285025Y35110595D01*
X55637151Y35228211D01*
X55871896Y35353685D01*
X55997771Y35643623D01*
X54864000Y36777395D01*
X53730229Y35643623D01*
X51135962Y35643623D01*
X51247926Y35755587D01*
X51454182Y36064269D01*
X51596253Y36407259D01*
X51668680Y36771375D01*
X51668680Y36904281D01*
X52970935Y36904281D01*
X53017595Y36535975D01*
X53135211Y36183849D01*
X53260685Y35949104D01*
X53550623Y35823229D01*
X54684395Y36957000D01*
X55043605Y36957000D01*
X56177377Y35823229D01*
X56467315Y35949104D01*
X56633139Y36281262D01*
X56730975Y36639387D01*
X56757065Y37009719D01*
X56710405Y37378025D01*
X56592789Y37730151D01*
X56467315Y37964896D01*
X56177377Y38090771D01*
X55043605Y36957000D01*
X54684395Y36957000D01*
X53550623Y38090771D01*
X53260685Y37964896D01*
X53094861Y37632738D01*
X52997025Y37274613D01*
X52970935Y36904281D01*
X51668680Y36904281D01*
X51668680Y37142625D01*
X51596253Y37506741D01*
X51454182Y37849731D01*
X51247926Y38158413D01*
X51135962Y38270377D01*
X53730229Y38270377D01*
X54864000Y37136605D01*
X55997771Y38270377D01*
X55871896Y38560315D01*
X55539738Y38726139D01*
X55181613Y38823975D01*
X54811281Y38850065D01*
X54442975Y38803405D01*
X54090849Y38685789D01*
X53856104Y38560315D01*
X53730229Y38270377D01*
X51135962Y38270377D01*
X50985413Y38420926D01*
X50676731Y38627182D01*
X50333741Y38769253D01*
X49969625Y38841680D01*
X49598375Y38841680D01*
X49234259Y38769253D01*
X48891269Y38627182D01*
X48582587Y38420926D01*
X48320074Y38158413D01*
X48113818Y37849731D01*
X47971747Y37506741D01*
X47899320Y37142625D01*
X46591752Y37142625D01*
X46591752Y38206680D01*
X46579492Y38331162D01*
X46543182Y38450860D01*
X46484217Y38561174D01*
X46404865Y38657865D01*
X46308174Y38737217D01*
X46197860Y38796182D01*
X46078162Y38832492D01*
X45953680Y38844752D01*
X45589000Y38844752D01*
X45589000Y39120000D01*
X58688422Y39120000D01*
X58963669Y38844752D01*
X58694320Y38844752D01*
X58569838Y38832492D01*
X58450140Y38796182D01*
X58339826Y38737217D01*
X58243135Y38657865D01*
X58163783Y38561174D01*
X58104818Y38450860D01*
X58068508Y38331162D01*
X58056248Y38206680D01*
X58056248Y35707320D01*
X58068508Y35582838D01*
X58104818Y35463140D01*
X58163783Y35352826D01*
X58243135Y35256135D01*
X58339826Y35176783D01*
X58450140Y35117818D01*
X58569838Y35081508D01*
X58694320Y35069248D01*
X61193680Y35069248D01*
X61318162Y35081508D01*
X61437860Y35117818D01*
X61548174Y35176783D01*
X61644865Y35256135D01*
X61724217Y35352826D01*
X61783182Y35463140D01*
X61819492Y35582838D01*
X61831752Y35707320D01*
X61831752Y37142625D01*
X63139320Y37142625D01*
X63139320Y36771375D01*
X63211747Y36407259D01*
X63353818Y36064269D01*
X63560074Y35755587D01*
X63822587Y35493074D01*
X64131269Y35286818D01*
X64474259Y35144747D01*
X64838375Y35072320D01*
X65209625Y35072320D01*
X65573741Y35144747D01*
X65916731Y35286818D01*
X66225413Y35493074D01*
X66375962Y35643623D01*
X68970229Y35643623D01*
X69096104Y35353685D01*
X69428262Y35187861D01*
X69786387Y35090025D01*
X70156719Y35063935D01*
X70525025Y35110595D01*
X70877151Y35228211D01*
X71111896Y35353685D01*
X71237771Y35643623D01*
X70104000Y36777395D01*
X68970229Y35643623D01*
X66375962Y35643623D01*
X66487926Y35755587D01*
X66694182Y36064269D01*
X66836253Y36407259D01*
X66908680Y36771375D01*
X66908680Y36904281D01*
X68210935Y36904281D01*
X68257595Y36535975D01*
X68375211Y36183849D01*
X68500685Y35949104D01*
X68790623Y35823229D01*
X69924395Y36957000D01*
X70283605Y36957000D01*
X71417377Y35823229D01*
X71707315Y35949104D01*
X71873139Y36281262D01*
X71970975Y36639387D01*
X71997065Y37009719D01*
X71950405Y37378025D01*
X71832789Y37730151D01*
X71707315Y37964896D01*
X71417377Y38090771D01*
X70283605Y36957000D01*
X69924395Y36957000D01*
X68790623Y38090771D01*
X68500685Y37964896D01*
X68334861Y37632738D01*
X68237025Y37274613D01*
X68210935Y36904281D01*
X66908680Y36904281D01*
X66908680Y37142625D01*
X66836253Y37506741D01*
X66694182Y37849731D01*
X66487926Y38158413D01*
X66375962Y38270377D01*
X68970229Y38270377D01*
X70104000Y37136605D01*
X71237771Y38270377D01*
X71111896Y38560315D01*
X70779738Y38726139D01*
X70421613Y38823975D01*
X70051281Y38850065D01*
X69682975Y38803405D01*
X69330849Y38685789D01*
X69096104Y38560315D01*
X68970229Y38270377D01*
X66375962Y38270377D01*
X66225413Y38420926D01*
X65916731Y38627182D01*
X65573741Y38769253D01*
X65209625Y38841680D01*
X64838375Y38841680D01*
X64474259Y38769253D01*
X64131269Y38627182D01*
X63822587Y38420926D01*
X63560074Y38158413D01*
X63353818Y37849731D01*
X63211747Y37506741D01*
X63139320Y37142625D01*
X61831752Y37142625D01*
X61831752Y38206680D01*
X61819492Y38331162D01*
X61783182Y38450860D01*
X61724217Y38561174D01*
X61644865Y38657865D01*
X61548174Y38737217D01*
X61437860Y38796182D01*
X61318162Y38832492D01*
X61193680Y38844752D01*
X60829000Y38844752D01*
X60829000Y39072531D01*
X60833281Y39116000D01*
X60829000Y39159469D01*
X60829000Y39159477D01*
X60816195Y39289490D01*
X60765589Y39456313D01*
X60748584Y39488128D01*
X74036000Y39488128D01*
X74036000Y39047872D01*
X74121890Y38616075D01*
X74290369Y38209331D01*
X74534962Y37843271D01*
X74846271Y37531962D01*
X75212331Y37287369D01*
X75619075Y37118890D01*
X76050872Y37033000D01*
X76491128Y37033000D01*
X76922925Y37118890D01*
X77329669Y37287369D01*
X77695729Y37531962D01*
X78007038Y37843271D01*
X78251631Y38209331D01*
X78420110Y38616075D01*
X78506000Y39047872D01*
X78506000Y39488128D01*
X78420110Y39919925D01*
X78251631Y40326669D01*
X78007038Y40692729D01*
X77695729Y41004038D01*
X77329669Y41248631D01*
X76922925Y41417110D01*
X76491128Y41503000D01*
X76050872Y41503000D01*
X75619075Y41417110D01*
X75212331Y41248631D01*
X74846271Y41004038D01*
X74534962Y40692729D01*
X74290369Y40326669D01*
X74121890Y39919925D01*
X74036000Y39488128D01*
X60748584Y39488128D01*
X60683411Y39610059D01*
X60668088Y39628730D01*
X60600532Y39711047D01*
X60600530Y39711049D01*
X60572817Y39744817D01*
X60539050Y39772529D01*
X59711534Y40600044D01*
X59683817Y40633817D01*
X59549059Y40744411D01*
X59395313Y40826589D01*
X59228490Y40877195D01*
X59098477Y40890000D01*
X59098469Y40890000D01*
X59055000Y40894281D01*
X59011531Y40890000D01*
X44493469Y40890000D01*
X44450000Y40894281D01*
X44406531Y40890000D01*
X43731469Y40890000D01*
X43688000Y40894281D01*
X43644531Y40890000D01*
X43644523Y40890000D01*
X43514510Y40877195D01*
X43347686Y40826589D01*
X43193941Y40744411D01*
X43092953Y40661532D01*
X43092951Y40661530D01*
X43059183Y40633817D01*
X43031470Y40600049D01*
X38495422Y36064000D01*
X37484467Y36064000D01*
X37440998Y36068281D01*
X37397529Y36064000D01*
X37397521Y36064000D01*
X37267508Y36051195D01*
X37100684Y36000589D01*
X36946939Y35918411D01*
X36845951Y35835532D01*
X36845949Y35835530D01*
X36812181Y35807817D01*
X36784468Y35774049D01*
X35433800Y34423380D01*
X35433800Y39588128D01*
X36036000Y39588128D01*
X36036000Y39147872D01*
X36121890Y38716075D01*
X36290369Y38309331D01*
X36534962Y37943271D01*
X36846271Y37631962D01*
X37212331Y37387369D01*
X37619075Y37218890D01*
X38050872Y37133000D01*
X38491128Y37133000D01*
X38922925Y37218890D01*
X39329669Y37387369D01*
X39695729Y37631962D01*
X40007038Y37943271D01*
X40251631Y38309331D01*
X40420110Y38716075D01*
X40506000Y39147872D01*
X40506000Y39588128D01*
X40420110Y40019925D01*
X40251631Y40426669D01*
X40007038Y40792729D01*
X39695729Y41104038D01*
X39329669Y41348631D01*
X38922925Y41517110D01*
X38491128Y41603000D01*
X38050872Y41603000D01*
X37619075Y41517110D01*
X37212331Y41348631D01*
X36846271Y41104038D01*
X36534962Y40792729D01*
X36290369Y40426669D01*
X36121890Y40019925D01*
X36036000Y39588128D01*
X35433800Y39588128D01*
X35433800Y39646518D01*
X35447312Y39915593D01*
X35484214Y40158891D01*
X35544081Y40392823D01*
X35625806Y40616884D01*
X35728244Y40830101D01*
X35850092Y41031154D01*
X35990424Y41218940D01*
X36147787Y41392234D01*
X36320912Y41549522D01*
X36508752Y41689757D01*
X36709858Y41811685D01*
X36923016Y41914094D01*
X37147074Y41995818D01*
X37381113Y42055712D01*
X37624421Y42092693D01*
X37893381Y42106200D01*
X76504718Y42106200D01*
X76773679Y42092693D01*
G37*
%TD.AperFunction*%
%TD*%
M02*
