M48
; DRILL file {KiCad 8.0.5} date 2024-10-28T18:07:47+0000
; FORMAT={-:-/ absolute / inch / decimal}
; #@! TF.CreationDate,2024-10-28T18:07:47+00:00
; #@! TF.GenerationSoftware,Kicad,Pcbnew,8.0.5
; #@! TF.FileFunction,MixedPlating,1,2
FMAT,2
INCH
; #@! TA.AperFunction,Plated,PTH,ViaDrill
T1C0.0157
; #@! TA.AperFunction,Plated,PTH,ComponentDrill
T2C0.0315
; #@! TA.AperFunction,Plated,PTH,ComponentDrill
T3C0.0394
; #@! TA.AperFunction,Plated,PTH,ComponentDrill
T4C0.0394
; #@! TA.AperFunction,NonPlated,NPTH,ComponentDrill
T5C0.1260
%
G90
G05
T1
X1.905Y1.37
X1.9187Y0.73
X2.04Y0.99
X2.145Y0.75
X2.1748Y1.0252
X2.19Y0.52
X2.21Y1.105
X2.435Y1.1392
X2.47Y0.75
X2.53Y0.955
X2.54Y1.115
X2.5897Y0.6253
X2.615Y0.59
X2.665Y1.165
X2.695Y1.24
X2.695Y1.13
X2.73Y1.085
X2.7605Y1.077
X2.82Y1.105
X2.89Y0.59
X2.9Y0.535
X2.92Y1.095
X2.945Y0.685
X2.97Y1.14
X2.985Y1.01
X3.004Y1.146
X3.015Y0.725
X3.025Y0.79
X3.04Y1.035
X3.065Y1.12
X3.0894Y1.19
X3.09Y1.305
X3.1Y0.79
X3.105Y1.44
T2
X1.4831Y1.3031
X1.4831Y1.2244
X1.4831Y1.1456
X1.4831Y1.0669
X2.1319Y0.3081
X2.2106Y0.3081
X2.2894Y0.3081
X2.3681Y0.3081
T3
X1.45Y0.75
X1.45Y0.55
X1.45Y0.35
X1.46Y0.85
X1.46Y0.65
X1.46Y0.45
T4
X1.76Y1.47
X1.825Y0.6
X1.825Y0.5
X1.925Y0.6
X1.925Y0.5
X1.95Y0.225
X1.96Y1.47
X2.025Y0.6
X2.025Y0.5
X2.15Y0.225
X2.16Y1.47
X2.35Y0.225
X2.36Y1.47
X2.55Y0.225
X2.56Y1.47
X2.76Y1.47
T5
X1.5089Y1.5489
X1.5089Y0.0529
X3.005Y1.545
X3.005Y0.0489
M30
