%TF.GenerationSoftware,KiCad,Pcbnew,(5.1.10)-1*%
%TF.CreationDate,2021-08-07T17:36:10+01:00*%
%TF.ProjectId,WindSensorATMEGA328_PCB,57696e64-5365-46e7-936f-7241544d4547,rev?*%
%TF.SameCoordinates,PX5734380PY7df6180*%
%TF.FileFunction,Copper,L1,Top*%
%TF.FilePolarity,Positive*%
%FSLAX46Y46*%
G04 Gerber Fmt 4.6, Leading zero omitted, Abs format (unit mm)*
G04 Created by KiCad (PCBNEW (5.1.10)-1) date 2021-08-07 17:36:10*
%MOMM*%
%LPD*%
G01*
G04 APERTURE LIST*
%TA.AperFunction,ComponentPad*%
%ADD10R,2.100580X2.100580*%
%TD*%
%TA.AperFunction,ComponentPad*%
%ADD11C,2.199640*%
%TD*%
%TA.AperFunction,ComponentPad*%
%ADD12C,1.500000*%
%TD*%
%TA.AperFunction,ComponentPad*%
%ADD13R,1.500000X1.500000*%
%TD*%
%TA.AperFunction,SMDPad,CuDef*%
%ADD14R,1.500000X1.000000*%
%TD*%
%TA.AperFunction,SMDPad,CuDef*%
%ADD15R,0.558800X1.270000*%
%TD*%
%TA.AperFunction,SMDPad,CuDef*%
%ADD16R,1.270000X0.558800*%
%TD*%
%TA.AperFunction,SMDPad,CuDef*%
%ADD17R,1.500000X1.300000*%
%TD*%
%TA.AperFunction,SMDPad,CuDef*%
%ADD18R,1.300000X1.500000*%
%TD*%
%TA.AperFunction,ComponentPad*%
%ADD19R,2.032000X2.032000*%
%TD*%
%TA.AperFunction,ComponentPad*%
%ADD20C,2.032000*%
%TD*%
%TA.AperFunction,SMDPad,CuDef*%
%ADD21R,2.397760X3.000000*%
%TD*%
%TA.AperFunction,SMDPad,CuDef*%
%ADD22R,5.334000X1.930400*%
%TD*%
%TA.AperFunction,SMDPad,CuDef*%
%ADD23R,3.200000X1.600000*%
%TD*%
%TA.AperFunction,SMDPad,CuDef*%
%ADD24R,1.198880X1.198880*%
%TD*%
%TA.AperFunction,ComponentPad*%
%ADD25C,2.499360*%
%TD*%
%TA.AperFunction,ComponentPad*%
%ADD26R,2.499360X2.499360*%
%TD*%
%TA.AperFunction,SMDPad,CuDef*%
%ADD27R,1.000000X0.550000*%
%TD*%
%TA.AperFunction,ComponentPad*%
%ADD28C,1.600200*%
%TD*%
%TA.AperFunction,SMDPad,CuDef*%
%ADD29R,0.800100X1.000760*%
%TD*%
%TA.AperFunction,SMDPad,CuDef*%
%ADD30R,0.800100X0.900000*%
%TD*%
%TA.AperFunction,ViaPad*%
%ADD31C,0.600000*%
%TD*%
%TA.AperFunction,Conductor*%
%ADD32C,0.500000*%
%TD*%
%TA.AperFunction,Conductor*%
%ADD33C,0.300000*%
%TD*%
%TA.AperFunction,Conductor*%
%ADD34C,0.200000*%
%TD*%
%TA.AperFunction,Conductor*%
%ADD35C,0.254000*%
%TD*%
%TA.AperFunction,Conductor*%
%ADD36C,0.100000*%
%TD*%
G04 APERTURE END LIST*
D10*
%TO.P,P9,1*%
%TO.N,GND*%
X37084000Y21590000D03*
D11*
%TO.P,P9,2*%
X36830000Y19050000D03*
%TO.P,P9,3*%
%TO.N,VCC*%
X37084000Y16510000D03*
%TO.P,P9,4*%
%TO.N,/Rx*%
X36830000Y13970000D03*
%TO.P,P9,5*%
%TO.N,/Tx*%
X37084000Y11430000D03*
%TO.P,P9,6*%
%TO.N,/ATMega328/DTR*%
X36830000Y8890000D03*
%TD*%
D12*
%TO.P,P10,4*%
%TO.N,GND*%
X37671000Y27099000D03*
%TO.P,P10,3*%
%TO.N,VCC*%
X37671000Y29099000D03*
%TO.P,P10,2*%
%TO.N,/I2C_SDA*%
X37671000Y31099000D03*
D13*
%TO.P,P10,1*%
%TO.N,/I2C_CLK*%
X37671000Y33099000D03*
%TD*%
D14*
%TO.P,P3,6*%
%TO.N,GND*%
X75211000Y34544000D03*
%TO.P,P3,5*%
%TO.N,/ATMega328/A2*%
X76962000Y34544000D03*
%TO.P,P3,4*%
%TO.N,GND*%
X75211000Y33147000D03*
%TO.P,P3,3*%
%TO.N,/ATMega328/A1*%
X76962000Y33147000D03*
%TO.P,P3,2*%
%TO.N,GND*%
X75211000Y31750000D03*
%TO.P,P3,1*%
%TO.N,/ATMega328/A0*%
X76962000Y31750000D03*
%TD*%
D15*
%TO.P,U4,32*%
%TO.N,/WIND_FREQ*%
X67685920Y26517600D03*
%TO.P,U4,31*%
%TO.N,/Tx*%
X68486020Y26517600D03*
%TO.P,U4,30*%
%TO.N,/Rx*%
X69286120Y26517600D03*
%TO.P,U4,29*%
%TO.N,/ATMega328/RESET*%
X70086220Y26517600D03*
%TO.P,U4,28*%
%TO.N,/I2C_CLK*%
X70883780Y26517600D03*
%TO.P,U4,27*%
%TO.N,/I2C_SDA*%
X71683880Y26517600D03*
%TO.P,U4,26*%
%TO.N,/WIND_VANE*%
X72483980Y26517600D03*
%TO.P,U4,25*%
%TO.N,/ATMega328/A2*%
X73284080Y26517600D03*
D16*
%TO.P,U4,24*%
%TO.N,/ATMega328/A1*%
X74777600Y25024080D03*
%TO.P,U4,23*%
%TO.N,/ATMega328/A0*%
X74777600Y24223980D03*
%TO.P,U4,22*%
%TO.N,/ATMega328/A7*%
X74777600Y23423880D03*
%TO.P,U4,21*%
%TO.N,GND*%
X74777600Y22623780D03*
%TO.P,U4,20*%
%TO.N,Net-(C5-Pad2)*%
X74777600Y21826220D03*
%TO.P,U4,19*%
%TO.N,/ATMega328/A6*%
X74777600Y21026120D03*
%TO.P,U4,18*%
%TO.N,VCC*%
X74777600Y20226020D03*
%TO.P,U4,17*%
%TO.N,/ATMega328/SCLK*%
X74777600Y19425920D03*
D15*
%TO.P,U4,16*%
%TO.N,/ATMega328/MISO*%
X73284080Y17932400D03*
%TO.P,U4,15*%
%TO.N,/ATMega328/MOSI*%
X72483980Y17932400D03*
%TO.P,U4,14*%
%TO.N,/ATMega328/D10*%
X71683880Y17932400D03*
%TO.P,U4,13*%
%TO.N,/ATMega328/D9*%
X70883780Y17932400D03*
%TO.P,U4,12*%
%TO.N,/ATMega328/D8_SWA*%
X70086220Y17932400D03*
%TO.P,U4,11*%
%TO.N,/ATMega328/D7_LED0*%
X69286120Y17932400D03*
%TO.P,U4,10*%
%TO.N,/ATMega328/D6*%
X68486020Y17932400D03*
%TO.P,U4,9*%
%TO.N,/ATMega328/D5*%
X67685920Y17932400D03*
D16*
%TO.P,U4,8*%
%TO.N,Net-(C10-Pad2)*%
X66192400Y19425920D03*
%TO.P,U4,7*%
%TO.N,Net-(C9-Pad2)*%
X66192400Y20226020D03*
%TO.P,U4,6*%
%TO.N,VCC*%
X66192400Y21026120D03*
%TO.P,U4,5*%
%TO.N,GND*%
X66192400Y21826220D03*
%TO.P,U4,4*%
%TO.N,VCC*%
X66192400Y22623780D03*
%TO.P,U4,3*%
%TO.N,GND*%
X66192400Y23423880D03*
%TO.P,U4,2*%
%TO.N,/ATMega328/D4*%
X66192400Y24223980D03*
%TO.P,U4,1*%
%TO.N,/ATMega328/D3*%
X66192400Y25024080D03*
%TD*%
D17*
%TO.P,C7,2*%
%TO.N,VCC*%
X78105000Y23169800D03*
%TO.P,C7,1*%
%TO.N,GND*%
X78105000Y25069800D03*
%TD*%
%TO.P,C8,1*%
%TO.N,/ATMega328/DTR*%
X43180000Y1910000D03*
%TO.P,C8,2*%
%TO.N,/ATMega328/RESET*%
X43180000Y3810000D03*
%TD*%
D18*
%TO.P,C9,2*%
%TO.N,Net-(C9-Pad2)*%
X51109800Y18415000D03*
%TO.P,C9,1*%
%TO.N,GND*%
X53009800Y18415000D03*
%TD*%
%TO.P,C10,1*%
%TO.N,GND*%
X55880000Y18415000D03*
%TO.P,C10,2*%
%TO.N,Net-(C10-Pad2)*%
X57780000Y18415000D03*
%TD*%
D19*
%TO.P,P2,1*%
%TO.N,/Tx*%
X49530000Y5715000D03*
D20*
%TO.P,P2,2*%
%TO.N,/Rx*%
X54610000Y5715000D03*
%TO.P,P2,3*%
%TO.N,VCC*%
X59690000Y5715000D03*
%TO.P,P2,4*%
%TO.N,GND*%
X64770000Y5715000D03*
D13*
%TO.P,P2,1*%
%TO.N,/Tx*%
X54150000Y7826000D03*
D12*
%TO.P,P2,2*%
%TO.N,/Rx*%
X56150000Y7826000D03*
%TO.P,P2,3*%
%TO.N,VCC*%
X58150000Y7826000D03*
%TO.P,P2,4*%
%TO.N,GND*%
X60150000Y7826000D03*
%TD*%
D17*
%TO.P,R7,2*%
%TO.N,/I2C_CLK*%
X70485000Y29845000D03*
%TO.P,R7,1*%
%TO.N,VCC*%
X70485000Y31745000D03*
%TD*%
D21*
%TO.P,SW2,1*%
%TO.N,/ATMega328/RESET*%
X42545000Y11811000D03*
%TO.P,SW2,2*%
%TO.N,GND*%
X42519600Y6985000D03*
%TD*%
D22*
%TO.P,Y1,1*%
%TO.N,Net-(C9-Pad2)*%
X51435000Y22225000D03*
%TO.P,Y1,2*%
%TO.N,Net-(C10-Pad2)*%
X61087000Y22225000D03*
%TD*%
D17*
%TO.P,C4,2*%
%TO.N,VCC*%
X59055000Y26035000D03*
%TO.P,C4,1*%
%TO.N,GND*%
X59055000Y27935000D03*
%TD*%
D18*
%TO.P,C5,1*%
%TO.N,GND*%
X75895200Y15875000D03*
%TO.P,C5,2*%
%TO.N,Net-(C5-Pad2)*%
X77795200Y15875000D03*
%TD*%
D23*
%TO.P,C6,1*%
%TO.N,VCC*%
X59135000Y13970000D03*
%TO.P,C6,2*%
%TO.N,GND*%
X64135000Y13970000D03*
%TD*%
D24*
%TO.P,D2,2*%
%TO.N,Net-(D2-Pad2)*%
X77724000Y9083040D03*
%TO.P,D2,1*%
%TO.N,GND*%
X77724000Y6985000D03*
%TD*%
D17*
%TO.P,R4,2*%
%TO.N,Net-(D2-Pad2)*%
X67945000Y11435000D03*
%TO.P,R4,1*%
%TO.N,/ATMega328/D7_LED0*%
X67945000Y13335000D03*
%TD*%
D18*
%TO.P,R5,1*%
%TO.N,VCC*%
X41610200Y15494000D03*
%TO.P,R5,2*%
%TO.N,/ATMega328/RESET*%
X43510200Y15494000D03*
%TD*%
D17*
%TO.P,R6,1*%
%TO.N,VCC*%
X73025000Y31745000D03*
%TO.P,R6,2*%
%TO.N,/I2C_SDA*%
X73025000Y29845000D03*
%TD*%
D21*
%TO.P,SW1,2*%
%TO.N,GND*%
X72263000Y6477000D03*
%TO.P,SW1,1*%
%TO.N,/ATMega328/D8_SWA*%
X72288400Y11303000D03*
%TD*%
D25*
%TO.P,P11,2*%
%TO.N,/Hall_to_Freq/WIND_A_SIG*%
X49784000Y36957000D03*
D26*
%TO.P,P11,1*%
%TO.N,VCC*%
X44704000Y36957000D03*
D25*
%TO.P,P11,3*%
%TO.N,GND*%
X54864000Y36957000D03*
%TD*%
D18*
%TO.P,R2,1*%
%TO.N,Net-(D4-Pad2)*%
X47630000Y31750000D03*
%TO.P,R2,2*%
%TO.N,/Hall_to_Freq/WIND_A_SIG*%
X49530000Y31750000D03*
%TD*%
%TO.P,R3,2*%
%TO.N,Net-(D4-Pad2)*%
X45720000Y31750000D03*
%TO.P,R3,1*%
%TO.N,Net-(C2-Pad1)*%
X43820000Y31750000D03*
%TD*%
D17*
%TO.P,R8,2*%
%TO.N,Net-(C2-Pad1)*%
X45720000Y28575000D03*
%TO.P,R8,1*%
%TO.N,VCC*%
X45720000Y26675000D03*
%TD*%
%TO.P,R9,1*%
%TO.N,VCC*%
X53340000Y31745000D03*
%TO.P,R9,2*%
%TO.N,Net-(R10-Pad2)*%
X53340000Y29845000D03*
%TD*%
%TO.P,R10,1*%
%TO.N,GND*%
X53340000Y26040000D03*
%TO.P,R10,2*%
%TO.N,Net-(R10-Pad2)*%
X53340000Y27940000D03*
%TD*%
D18*
%TO.P,R11,2*%
%TO.N,/WIND_FREQ*%
X46985000Y23495000D03*
%TO.P,R11,1*%
%TO.N,Net-(R10-Pad2)*%
X45085000Y23495000D03*
%TD*%
D17*
%TO.P,C2,1*%
%TO.N,Net-(C2-Pad1)*%
X41910000Y22860000D03*
%TO.P,C2,2*%
%TO.N,GND*%
X41910000Y20960000D03*
%TD*%
D18*
%TO.P,C3,2*%
%TO.N,GND*%
X46985000Y20955000D03*
%TO.P,C3,1*%
%TO.N,VCC*%
X45085000Y20955000D03*
%TD*%
D25*
%TO.P,P8,3*%
%TO.N,GND*%
X70104000Y36957000D03*
D26*
%TO.P,P8,1*%
%TO.N,VCC*%
X59944000Y36957000D03*
D25*
%TO.P,P8,2*%
%TO.N,/Wind_Vane/WIND_V_SIG*%
X65024000Y36957000D03*
%TD*%
D27*
%TO.P,U1,3*%
%TO.N,/Wind_Vane/WIND_V_SIG*%
X64135000Y27620000D03*
%TO.P,U1,2*%
%TO.N,GND*%
X64135000Y26670000D03*
%TO.P,U1,1*%
%TO.N,/WIND_VANE*%
X64135000Y25720000D03*
%TO.P,U1,4*%
X61435000Y27620000D03*
%TO.P,U1,5*%
%TO.N,VCC*%
X61435000Y25720000D03*
%TD*%
%TO.P,U2,5*%
%TO.N,VCC*%
X48260000Y26675000D03*
%TO.P,U2,4*%
%TO.N,Net-(C2-Pad1)*%
X48260000Y28575000D03*
%TO.P,U2,1*%
%TO.N,/WIND_FREQ*%
X50960000Y26675000D03*
%TO.P,U2,2*%
%TO.N,GND*%
X50960000Y27625000D03*
%TO.P,U2,3*%
%TO.N,Net-(R10-Pad2)*%
X50960000Y28575000D03*
%TD*%
D28*
%TO.P,P4,5*%
%TO.N,/ATMega328/RESET*%
X46355000Y15240000D03*
%TO.P,P4,6*%
%TO.N,GND*%
X46355000Y12700000D03*
%TO.P,P4,3*%
%TO.N,/ATMega328/SCLK*%
X48895000Y15240000D03*
%TO.P,P4,4*%
%TO.N,/ATMega328/MOSI*%
X48895000Y12700000D03*
%TO.P,P4,1*%
%TO.N,/ATMega328/MISO*%
X51435000Y15240000D03*
%TO.P,P4,2*%
%TO.N,VCC*%
X51435000Y12700000D03*
%TD*%
D29*
%TO.P,D4,2*%
%TO.N,Net-(D4-Pad2)*%
X42230000Y28670000D03*
D30*
%TO.P,D4,3*%
%TO.N,N/C*%
X43180000Y26670000D03*
%TO.P,D4,1*%
%TO.N,GND*%
X41280000Y26670000D03*
%TD*%
D29*
%TO.P,D1,2*%
%TO.N,/Wind_Vane/WIND_V_SIG*%
X63180000Y31884620D03*
D30*
%TO.P,D1,3*%
%TO.N,N/C*%
X64130000Y29884620D03*
%TO.P,D1,1*%
%TO.N,GND*%
X62230000Y29884620D03*
%TD*%
%TO.P,D3,1*%
%TO.N,GND*%
X57150000Y29884620D03*
%TO.P,D3,3*%
%TO.N,N/C*%
X59050000Y29884620D03*
D29*
%TO.P,D3,2*%
%TO.N,/WIND_VANE*%
X58100000Y31884620D03*
%TD*%
D31*
%TO.N,GND*%
X55240000Y26040000D03*
X57267000Y28067000D03*
X64516000Y28829000D03*
X48387000Y34798000D03*
X74803000Y17907000D03*
X77216000Y26797000D03*
X48895000Y19812000D03*
X54483000Y19050000D03*
%TO.N,VCC*%
X76835000Y20574000D03*
X78740000Y20574000D03*
X77470000Y29337000D03*
%TO.N,/ATMega328/RESET*%
X62738000Y19050000D03*
X70115792Y27863903D03*
%TO.N,/Rx*%
X69342000Y28067000D03*
%TO.N,/Tx*%
X68453000Y29210000D03*
%TO.N,/I2C_SDA*%
X74407000Y29337000D03*
%TO.N,/I2C_CLK*%
X68453000Y32004000D03*
%TO.N,/ATMega328/A0*%
X76962000Y30480000D03*
X75819000Y26162000D03*
%TO.N,/ATMega328/SCLK*%
X76581000Y18923000D03*
X65778899Y16390101D03*
%TO.N,/ATMega328/MOSI*%
X73660000Y14097000D03*
X55626000Y13208000D03*
%TO.N,/ATMega328/MISO*%
X66421000Y15494000D03*
X73406000Y15494000D03*
%TO.N,/ATMega328/A2*%
X78471000Y31623000D03*
X78486000Y34544000D03*
%TO.N,/WIND_FREQ*%
X51689000Y25273000D03*
X67691000Y30099000D03*
%TO.N,/WIND_VANE*%
X74168000Y28321000D03*
X63881000Y24399000D03*
%TD*%
D32*
%TO.N,GND*%
X75701902Y22623780D02*
X76708000Y23629878D01*
X74777600Y22623780D02*
X75701902Y22623780D01*
X77794998Y25069800D02*
X78105000Y25069800D01*
X76708000Y23982802D02*
X77794998Y25069800D01*
X76708000Y23629878D02*
X76708000Y23982802D01*
X75311000Y34544000D02*
X75311000Y31750000D01*
X71010780Y22623780D02*
X70213220Y21826220D01*
X74777600Y22623780D02*
X71010780Y22623780D01*
X70213220Y21826220D02*
X66192400Y21826220D01*
X70210680Y23423880D02*
X71010780Y22623780D01*
X36830000Y21336000D02*
X37084000Y21590000D01*
X36830000Y19050000D02*
X36830000Y21336000D01*
X77724000Y6985000D02*
X78105000Y6985000D01*
X78105000Y6985000D02*
X79121000Y8001000D01*
X79121000Y8001000D02*
X79121000Y10922000D01*
X75895200Y14147800D02*
X75895200Y15875000D01*
X79121000Y10922000D02*
X75895200Y14147800D01*
X66192400Y23423880D02*
X70210680Y23423880D01*
X75438000Y31623000D02*
X75311000Y31750000D01*
X62659000Y7826000D02*
X64770000Y5715000D01*
X60150000Y7826000D02*
X62659000Y7826000D01*
X62738000Y3683000D02*
X64770000Y5715000D01*
X47752000Y3683000D02*
X62738000Y3683000D01*
X44450000Y6985000D02*
X47752000Y3683000D01*
X71501000Y5715000D02*
X72263000Y6477000D01*
X64770000Y5715000D02*
X71501000Y5715000D01*
X77216000Y6477000D02*
X77724000Y6985000D01*
X72263000Y6477000D02*
X77216000Y6477000D01*
X62659000Y10716000D02*
X64135000Y12192000D01*
X62659000Y7826000D02*
X62659000Y10716000D01*
X64135000Y12192000D02*
X64135000Y13970000D01*
X54864000Y36957000D02*
X54864000Y40259000D01*
X54864000Y40259000D02*
X55880000Y41275000D01*
X55880000Y41275000D02*
X69215000Y41275000D01*
X70104000Y40386000D02*
X70104000Y36957000D01*
X69215000Y41275000D02*
X70104000Y40386000D01*
D33*
X70104000Y36957000D02*
X73787000Y36957000D01*
X75211000Y35533000D02*
X75211000Y34544000D01*
X73787000Y36957000D02*
X75211000Y35533000D01*
X37671000Y27099000D02*
X38941000Y27099000D01*
X39370000Y26670000D02*
X41280000Y26670000D01*
X38941000Y27099000D02*
X39370000Y26670000D01*
X51760000Y27625000D02*
X51943000Y27442000D01*
X50960000Y27625000D02*
X51760000Y27625000D01*
X51943000Y27437000D02*
X53340000Y26040000D01*
X51943000Y27442000D02*
X51943000Y27437000D01*
X37084000Y21590000D02*
X39370000Y21590000D01*
X40000000Y20960000D02*
X41910000Y20960000D01*
X39370000Y21590000D02*
X40000000Y20960000D01*
X37084000Y26512000D02*
X37671000Y27099000D01*
X37084000Y21590000D02*
X37084000Y26512000D01*
X41910000Y20960000D02*
X41910000Y19939000D01*
X41910000Y19939000D02*
X42291000Y19558000D01*
X42291000Y19558000D02*
X46609000Y19558000D01*
X46985000Y19934000D02*
X46985000Y20955000D01*
X46609000Y19558000D02*
X46985000Y19934000D01*
X53340000Y18415000D02*
X53340000Y17780000D01*
D32*
X46355000Y9271000D02*
X44069000Y6985000D01*
X46355000Y12700000D02*
X46355000Y9271000D01*
X44069000Y6985000D02*
X44450000Y6985000D01*
X42519600Y6985000D02*
X44069000Y6985000D01*
D33*
X65151000Y26670000D02*
X64135000Y26670000D01*
X65405000Y26924000D02*
X65151000Y26670000D01*
X65405000Y32258000D02*
X70104000Y36957000D01*
X65405000Y29845000D02*
X65405000Y32258000D01*
X65405000Y28829000D02*
X65405000Y29845000D01*
X53340000Y26040000D02*
X55240000Y26040000D01*
X58923000Y28067000D02*
X59055000Y27935000D01*
X57267000Y28067000D02*
X58923000Y28067000D01*
D32*
X37671000Y27099000D02*
X39037000Y27099000D01*
X43053000Y34798000D02*
X48387000Y34798000D01*
X40767000Y32512000D02*
X43053000Y34798000D01*
X40767000Y28829000D02*
X40767000Y32512000D01*
X39037000Y27099000D02*
X40767000Y28829000D01*
D33*
X75895200Y15875000D02*
X75895200Y16814800D01*
X75895200Y16814800D02*
X74803000Y17907000D01*
X77216000Y26797000D02*
X77851000Y26797000D01*
X78105000Y26543000D02*
X78105000Y25069800D01*
X77851000Y26797000D02*
X78105000Y26543000D01*
X66192400Y23423880D02*
X65476120Y23423880D01*
X65476120Y23423880D02*
X65024000Y23876000D01*
X65024000Y23876000D02*
X65024000Y25654000D01*
X65024000Y25654000D02*
X65405000Y26035000D01*
X65405000Y27051000D02*
X65405000Y26924000D01*
X65405000Y28829000D02*
X65405000Y27051000D01*
X64135000Y26670000D02*
X65405000Y26670000D01*
X65405000Y26670000D02*
X65405000Y27051000D01*
X65405000Y26035000D02*
X65405000Y26670000D01*
X46985000Y20955000D02*
X47752000Y20955000D01*
X47752000Y20955000D02*
X48895000Y19812000D01*
X54483000Y19050000D02*
X54483000Y18415000D01*
X54483000Y18415000D02*
X55250000Y18415000D01*
X53340000Y18415000D02*
X54483000Y18415000D01*
D32*
%TO.N,VCC*%
X66184780Y22623780D02*
X66116621Y22555621D01*
X66192400Y22623780D02*
X66184780Y22623780D01*
X71556880Y21026120D02*
X72356980Y20226020D01*
X66192400Y21026120D02*
X71556880Y21026120D01*
X72356980Y20226020D02*
X74777600Y20226020D01*
X65257400Y21026120D02*
X64947520Y21336000D01*
X66192400Y21026120D02*
X65257400Y21026120D01*
X64947520Y21336000D02*
X64947520Y22148520D01*
X65422780Y22623780D02*
X64947520Y22148520D01*
X66192400Y22623780D02*
X65422780Y22623780D01*
X74777600Y20226020D02*
X76487020Y20226020D01*
X76487020Y20226020D02*
X76835000Y20574000D01*
X78740000Y22534800D02*
X78105000Y23169800D01*
X78740000Y20574000D02*
X78740000Y22534800D01*
X64947520Y21336000D02*
X64947520Y21259520D01*
D33*
X73284000Y31672880D02*
X76000880Y28956000D01*
D32*
X76000880Y28956000D02*
X77089000Y28956000D01*
X77089000Y28956000D02*
X77470000Y29337000D01*
X37084000Y16510000D02*
X36270358Y16510000D01*
D33*
X70485000Y31745000D02*
X73025000Y31745000D01*
X59370000Y25720000D02*
X59055000Y26035000D01*
X61435000Y25720000D02*
X59370000Y25720000D01*
X48260000Y26675000D02*
X45720000Y26675000D01*
X53340000Y31745000D02*
X54742000Y31745000D01*
X54742000Y31745000D02*
X55880000Y30607000D01*
X55880000Y30607000D02*
X55880000Y27432000D01*
X57277000Y26035000D02*
X59055000Y26035000D01*
X55880000Y27432000D02*
X57277000Y26035000D01*
X48260000Y26675000D02*
X48900000Y26675000D01*
X48900000Y26675000D02*
X49276000Y27051000D01*
X49276000Y27051000D02*
X49276000Y28956000D01*
X52065000Y31745000D02*
X53340000Y31745000D01*
X49276000Y28956000D02*
X52065000Y31745000D01*
D32*
X59135000Y11002000D02*
X59135000Y13970000D01*
X58150000Y10017000D02*
X59135000Y11002000D01*
D33*
X45720000Y26675000D02*
X45720000Y26670000D01*
X45720000Y26670000D02*
X43688000Y24638000D01*
X43688000Y24638000D02*
X43688000Y21590000D01*
X44323000Y20955000D02*
X45085000Y20955000D01*
X43688000Y21590000D02*
X44323000Y20955000D01*
D32*
X58150000Y9636000D02*
X58150000Y10017000D01*
X58150000Y7826000D02*
X58150000Y9636000D01*
D33*
X37084000Y16510000D02*
X38989000Y16510000D01*
X40005000Y15494000D02*
X41610200Y15494000D01*
X38989000Y16510000D02*
X40005000Y15494000D01*
X54742000Y31745000D02*
X55113000Y31745000D01*
X55113000Y31745000D02*
X57658000Y34290000D01*
X57658000Y34290000D02*
X58801000Y34290000D01*
X59944000Y35433000D02*
X59944000Y36957000D01*
X58801000Y34290000D02*
X59944000Y35433000D01*
D32*
X58150000Y9636000D02*
X52340000Y9636000D01*
X51435000Y10541000D02*
X51435000Y12700000D01*
X52340000Y9636000D02*
X51435000Y10541000D01*
%TO.N,Net-(C5-Pad2)*%
X77795200Y21264800D02*
X77233780Y21826220D01*
X77795200Y15875000D02*
X77795200Y21264800D01*
X77233780Y21826220D02*
X74777600Y21826220D01*
D33*
%TO.N,/ATMega328/DTR*%
X41905000Y1910000D02*
X43180000Y1910000D01*
X41656000Y2159000D02*
X41905000Y1910000D01*
X36830000Y8890000D02*
X36830000Y6858000D01*
X36830000Y6858000D02*
X38862000Y4826000D01*
X39751000Y4826000D02*
X41656000Y2921000D01*
X38862000Y4826000D02*
X39751000Y4826000D01*
X41656000Y2921000D02*
X41656000Y2159000D01*
%TO.N,/ATMega328/RESET*%
X43180000Y3810000D02*
X41529000Y3810000D01*
X41529000Y3810000D02*
X39116000Y6223000D01*
D32*
X39116000Y6223000D02*
X39116000Y10287000D01*
X40640000Y11811000D02*
X42545000Y11811000D01*
X39116000Y10287000D02*
X40640000Y11811000D01*
X43510200Y12776200D02*
X42545000Y11811000D01*
X43510200Y15494000D02*
X43510200Y12776200D01*
X70104000Y26535380D02*
X70086220Y26517600D01*
D33*
X70115792Y26547172D02*
X70086220Y26517600D01*
X70115792Y27863903D02*
X70115792Y26547172D01*
X52451889Y16890111D02*
X52839990Y16502010D01*
X46355889Y16890111D02*
X52451889Y16890111D01*
X52839990Y16502010D02*
X62222010Y16502010D01*
X62738000Y17018000D02*
X62738000Y19050000D01*
X62222010Y16502010D02*
X62738000Y17018000D01*
X43510200Y15494000D02*
X43510200Y15697200D01*
X43510200Y15697200D02*
X44703111Y16890111D01*
X46355000Y16889222D02*
X46355889Y16890111D01*
X46355000Y15240000D02*
X46355000Y16889222D01*
X44703111Y16890111D02*
X46355889Y16890111D01*
%TO.N,Net-(C9-Pad2)*%
X51440000Y22093000D02*
X51308000Y22225000D01*
X51440000Y18415000D02*
X51440000Y22093000D01*
X66192400Y20226020D02*
X64990980Y20226020D01*
X64990980Y20226020D02*
X64262000Y20955000D01*
X64262000Y20955000D02*
X64262000Y23368000D01*
X64262000Y23368000D02*
X63881000Y23749000D01*
X63881000Y23749000D02*
X56896000Y23749000D01*
X55372000Y22225000D02*
X51435000Y22225000D01*
X56896000Y23749000D02*
X55372000Y22225000D01*
%TO.N,Net-(C10-Pad2)*%
X57780000Y18415000D02*
X59055000Y18415000D01*
X57780000Y18415000D02*
X59563000Y18415000D01*
X59563000Y18415000D02*
X61087000Y19939000D01*
X61087000Y19939000D02*
X64135000Y19939000D01*
X64648080Y19425920D02*
X66192400Y19425920D01*
X64135000Y19939000D02*
X64648080Y19425920D01*
X61087000Y19939000D02*
X61087000Y22225000D01*
D32*
%TO.N,Net-(D2-Pad2)*%
X67945000Y11435000D02*
X67945000Y10160000D01*
X67945000Y10160000D02*
X69215000Y8890000D01*
X69215000Y8890000D02*
X75819000Y8890000D01*
X76012040Y9083040D02*
X77724000Y9083040D01*
X75819000Y8890000D02*
X76012040Y9083040D01*
D33*
%TO.N,/Rx*%
X69342000Y26573480D02*
X69286120Y26517600D01*
X69342000Y28067000D02*
X69342000Y26573480D01*
D32*
%TO.N,/Tx*%
X49530000Y5715000D02*
X49530000Y6604000D01*
X50752000Y7826000D02*
X54150000Y7826000D01*
X49530000Y6604000D02*
X50752000Y7826000D01*
D33*
X68453000Y26550620D02*
X68486020Y26517600D01*
X68453000Y29210000D02*
X68453000Y26550620D01*
D32*
%TO.N,/I2C_SDA*%
X72953880Y29773880D02*
X73025000Y29845000D01*
X71683880Y26517600D02*
X71683880Y27487880D01*
X73025000Y28829000D02*
X73025000Y29845000D01*
X71683880Y27487880D02*
X73025000Y28829000D01*
D33*
X74407000Y29337000D02*
X74026000Y29718000D01*
X73152000Y29718000D02*
X73025000Y29845000D01*
X74026000Y29718000D02*
X73152000Y29718000D01*
D32*
%TO.N,/I2C_CLK*%
X70485000Y29464000D02*
X70485000Y29845000D01*
X70883780Y29446220D02*
X70485000Y29845000D01*
X70883780Y26517600D02*
X70883780Y29446220D01*
D33*
X68453000Y32004000D02*
X68453000Y30988000D01*
X69596000Y29845000D02*
X70485000Y29845000D01*
X68453000Y30988000D02*
X69596000Y29845000D01*
D32*
%TO.N,/ATMega328/A0*%
X76962000Y30480000D02*
X76962000Y31750000D01*
D33*
X75819000Y24630899D02*
X75762601Y24574500D01*
X75819000Y26162000D02*
X75819000Y24630899D01*
X75412081Y24223980D02*
X75819000Y24630899D01*
D32*
X74777600Y24223980D02*
X75412081Y24223980D01*
D33*
%TO.N,/ATMega328/A1*%
X74777600Y25024080D02*
X74777600Y26390600D01*
X75834001Y27447001D02*
X78089999Y27447001D01*
X74777600Y26390600D02*
X75834001Y27447001D01*
X79121001Y28478003D02*
X79121001Y32765999D01*
X78089999Y27447001D02*
X79121001Y28478003D01*
X78740000Y33147000D02*
X76962000Y33147000D01*
X79121001Y32765999D02*
X78740000Y33147000D01*
D32*
%TO.N,/ATMega328/SCLK*%
X76581000Y18923000D02*
X76073000Y19431000D01*
X74782680Y19431000D02*
X74777600Y19425920D01*
X76073000Y19431000D02*
X74782680Y19431000D01*
D33*
X65390798Y16002000D02*
X65778899Y16390101D01*
X52578000Y16002000D02*
X65390798Y16002000D01*
X52189899Y16390101D02*
X52578000Y16002000D01*
X50045101Y16390101D02*
X52189899Y16390101D01*
X48895000Y15240000D02*
X50045101Y16390101D01*
D32*
%TO.N,/ATMega328/MOSI*%
X72517000Y17899380D02*
X72483980Y17932400D01*
D33*
X72483980Y17932400D02*
X72483980Y15273020D01*
X72483980Y15273020D02*
X73660000Y14097000D01*
X55626000Y13208000D02*
X53721000Y13208000D01*
X53721000Y13208000D02*
X52959000Y13970000D01*
X50165000Y13970000D02*
X48895000Y12700000D01*
X52959000Y13970000D02*
X50165000Y13970000D01*
D32*
%TO.N,/ATMega328/MISO*%
X73279000Y17927320D02*
X73284080Y17932400D01*
D33*
X73406000Y17810480D02*
X73284080Y17932400D01*
X73406000Y15494000D02*
X73406000Y17810480D01*
X57404000Y15240000D02*
X57658000Y15494000D01*
X51435000Y15240000D02*
X57404000Y15240000D01*
X57658000Y15494000D02*
X66421000Y15494000D01*
D32*
%TO.N,/ATMega328/D7_LED0*%
X67945000Y13335000D02*
X67945000Y14605000D01*
X69286120Y15946120D02*
X69286120Y17932400D01*
X67945000Y14605000D02*
X69286120Y15946120D01*
%TO.N,/ATMega328/D8_SWA*%
X70086220Y17932400D02*
X70086220Y16273780D01*
X72288400Y14071600D02*
X72288400Y11303000D01*
X70086220Y16273780D02*
X72288400Y14071600D01*
%TO.N,/ATMega328/A2*%
X78486000Y34544000D02*
X76962000Y34544000D01*
D33*
X77851000Y28067000D02*
X78486000Y28702000D01*
X73888600Y26517600D02*
X75438000Y28067000D01*
D32*
X73284080Y26517600D02*
X73888600Y26517600D01*
D33*
X75438000Y28067000D02*
X77851000Y28067000D01*
X78486000Y31608000D02*
X78471000Y31623000D01*
X78486000Y28702000D02*
X78486000Y31608000D01*
%TO.N,Net-(C2-Pad1)*%
X43820000Y31750000D02*
X43820000Y29459000D01*
X44704000Y28575000D02*
X45720000Y28575000D01*
X43820000Y29459000D02*
X44704000Y28575000D01*
X45720000Y28575000D02*
X48260000Y28575000D01*
X44323000Y28194000D02*
X44704000Y28575000D01*
X44323000Y26332948D02*
X44323000Y28194000D01*
X43644052Y25654000D02*
X44323000Y26332948D01*
X43307000Y25654000D02*
X43644052Y25654000D01*
X41910000Y24257000D02*
X43307000Y25654000D01*
X41910000Y22860000D02*
X41910000Y24257000D01*
%TO.N,/WIND_FREQ*%
X46985000Y23495000D02*
X47752000Y23495000D01*
X47752000Y23495000D02*
X48895000Y24638000D01*
X48895000Y24638000D02*
X50165000Y24638000D01*
X50960000Y25433000D02*
X50960000Y26675000D01*
X50165000Y24638000D02*
X50960000Y25433000D01*
X51529000Y25433000D02*
X51689000Y25273000D01*
X50960000Y25433000D02*
X51529000Y25433000D01*
X67691000Y26522680D02*
X67685920Y26517600D01*
X67691000Y30099000D02*
X67691000Y26522680D01*
%TO.N,/Wind_Vane/WIND_V_SIG*%
X61600000Y33533000D02*
X65024000Y36957000D01*
X61600000Y31872000D02*
X61600000Y33533000D01*
D34*
X61587380Y31884620D02*
X61600000Y31872000D01*
D33*
%TO.N,/WIND_VANE*%
X61435000Y27620000D02*
X61534000Y27620000D01*
X63434000Y25720000D02*
X64135000Y25720000D01*
X61534000Y27620000D02*
X63434000Y25720000D01*
%TO.N,GND*%
X57155000Y29845000D02*
X57155000Y29850000D01*
X57267000Y29767620D02*
X57150000Y29884620D01*
X57267000Y28067000D02*
X57267000Y29767620D01*
X62230000Y29884620D02*
X62317380Y29884620D01*
X63373000Y28829000D02*
X64897000Y28829000D01*
X62317380Y29884620D02*
X63373000Y28829000D01*
X64897000Y28829000D02*
X65405000Y28829000D01*
X64516000Y28829000D02*
X64897000Y28829000D01*
%TO.N,/Wind_Vane/WIND_V_SIG*%
X64135000Y27620000D02*
X63566000Y27620000D01*
X63566000Y27620000D02*
X62484000Y28702000D01*
X62484000Y28702000D02*
X61341000Y28702000D01*
X61341000Y28702000D02*
X61087000Y28956000D01*
X61087000Y31232000D02*
X61600000Y31745000D01*
X61087000Y28956000D02*
X61087000Y31232000D01*
X61600000Y31745000D02*
X61600000Y31872000D01*
X61739620Y31884620D02*
X61600000Y31745000D01*
X63180000Y31884620D02*
X61739620Y31884620D01*
%TO.N,/WIND_VANE*%
X60772000Y27620000D02*
X61435000Y27620000D01*
X60325000Y28067000D02*
X60772000Y27620000D01*
X74168000Y28321000D02*
X73406000Y28321000D01*
X72483980Y27398980D02*
X72483980Y26517600D01*
X73406000Y28321000D02*
X72483980Y27398980D01*
X63881000Y24892000D02*
X64135000Y25146000D01*
X63881000Y24399000D02*
X63881000Y24892000D01*
X64135000Y25720000D02*
X64135000Y25146000D01*
X60325000Y29210000D02*
X60325000Y28067000D01*
X59555380Y31884620D02*
X60325000Y31115000D01*
X58100000Y31884620D02*
X59555380Y31884620D01*
X60325000Y29210000D02*
X60325000Y31115000D01*
%TO.N,Net-(D4-Pad2)*%
X47630000Y31750000D02*
X45720000Y31750000D01*
X43053000Y33274000D02*
X45339000Y33274000D01*
X45339000Y33274000D02*
X45720000Y32893000D01*
X45720000Y32893000D02*
X45720000Y31750000D01*
X42230000Y32451000D02*
X43053000Y33274000D01*
X42230000Y28670000D02*
X42230000Y32451000D01*
%TO.N,/Hall_to_Freq/WIND_A_SIG*%
X49530000Y36703000D02*
X49784000Y36957000D01*
X49530000Y31750000D02*
X49530000Y36703000D01*
%TO.N,Net-(R10-Pad2)*%
X53340000Y27940000D02*
X53340000Y29845000D01*
X52705000Y28575000D02*
X53340000Y27940000D01*
X50960000Y28575000D02*
X52705000Y28575000D01*
X50292000Y28575000D02*
X50960000Y28575000D01*
X49911000Y28194000D02*
X50292000Y28575000D01*
X49911000Y25908000D02*
X49911000Y28194000D01*
X49403000Y25400000D02*
X49911000Y25908000D01*
X46355000Y25400000D02*
X49403000Y25400000D01*
X45085000Y24130000D02*
X46355000Y25400000D01*
X45085000Y23495000D02*
X45085000Y24130000D01*
%TD*%
D35*
%TO.N,GND*%
X75738345Y18514077D02*
X75752414Y18480111D01*
X75854738Y18326972D01*
X75984972Y18196738D01*
X76138111Y18094414D01*
X76308271Y18023932D01*
X76488911Y17988000D01*
X76673089Y17988000D01*
X76853729Y18023932D01*
X76910200Y18047323D01*
X76910200Y17217287D01*
X76901020Y17214502D01*
X76845200Y17184665D01*
X76789380Y17214502D01*
X76669682Y17250812D01*
X76545200Y17263072D01*
X76180950Y17260000D01*
X76022200Y17101250D01*
X76022200Y16002000D01*
X76042200Y16002000D01*
X76042200Y15748000D01*
X76022200Y15748000D01*
X76022200Y14648750D01*
X76180950Y14490000D01*
X76545200Y14486928D01*
X76669682Y14499188D01*
X76789380Y14535498D01*
X76845200Y14565335D01*
X76901020Y14535498D01*
X77020718Y14499188D01*
X77145200Y14486928D01*
X78445200Y14486928D01*
X78569682Y14499188D01*
X78689380Y14535498D01*
X78799694Y14594463D01*
X78896385Y14673815D01*
X78963900Y14756083D01*
X78963900Y1035181D01*
X78950388Y766107D01*
X78913502Y522917D01*
X78853529Y288872D01*
X78771834Y64680D01*
X78669557Y-148287D01*
X78547692Y-349291D01*
X78407515Y-536974D01*
X78250082Y-710180D01*
X78076869Y-867619D01*
X77889269Y-1007734D01*
X77688192Y-1129565D01*
X77475131Y-1231966D01*
X77251131Y-1313591D01*
X77016986Y-1373512D01*
X76773783Y-1410477D01*
X76504827Y-1423900D01*
X70334000Y-1423900D01*
X70334000Y1488128D01*
X74036000Y1488128D01*
X74036000Y1047872D01*
X74121890Y616075D01*
X74290369Y209331D01*
X74534962Y-156729D01*
X74846271Y-468038D01*
X75212331Y-712631D01*
X75619075Y-881110D01*
X76050872Y-967000D01*
X76491128Y-967000D01*
X76922925Y-881110D01*
X77329669Y-712631D01*
X77695729Y-468038D01*
X78007038Y-156729D01*
X78251631Y209331D01*
X78420110Y616075D01*
X78506000Y1047872D01*
X78506000Y1488128D01*
X78420110Y1919925D01*
X78251631Y2326669D01*
X78007038Y2692729D01*
X77695729Y3004038D01*
X77329669Y3248631D01*
X76922925Y3417110D01*
X76491128Y3503000D01*
X76050872Y3503000D01*
X75619075Y3417110D01*
X75212331Y3248631D01*
X74846271Y3004038D01*
X74534962Y2692729D01*
X74290369Y2326669D01*
X74121890Y1919925D01*
X74036000Y1488128D01*
X70334000Y1488128D01*
X70334000Y2757353D01*
X70337314Y2791000D01*
X70324088Y2925283D01*
X70284919Y3054406D01*
X70221312Y3173407D01*
X70135711Y3277711D01*
X70031407Y3363312D01*
X69912406Y3426919D01*
X69783283Y3466088D01*
X69682647Y3476000D01*
X69649000Y3479314D01*
X69615353Y3476000D01*
X44782847Y3476000D01*
X44749200Y3479314D01*
X44715553Y3476000D01*
X44614917Y3466088D01*
X44568072Y3451878D01*
X44568072Y4460000D01*
X44555812Y4584482D01*
X44519502Y4704180D01*
X44460537Y4814494D01*
X44381185Y4911185D01*
X44284494Y4990537D01*
X44179990Y5046396D01*
X44249017Y5130506D01*
X44307982Y5240820D01*
X44344292Y5360518D01*
X44356552Y5485000D01*
X44353480Y6699250D01*
X44194730Y6858000D01*
X42646600Y6858000D01*
X42646600Y6838000D01*
X42392600Y6838000D01*
X42392600Y6858000D01*
X40844470Y6858000D01*
X40685720Y6699250D01*
X40683358Y5765799D01*
X40001000Y6448157D01*
X40001000Y8485000D01*
X40682648Y8485000D01*
X40685720Y7270750D01*
X40844470Y7112000D01*
X42392600Y7112000D01*
X42392600Y8961250D01*
X42646600Y8961250D01*
X42646600Y7112000D01*
X44194730Y7112000D01*
X44353480Y7270750D01*
X44356552Y8485000D01*
X44344292Y8609482D01*
X44307982Y8729180D01*
X44249017Y8839494D01*
X44169665Y8936185D01*
X44072974Y9015537D01*
X43962660Y9074502D01*
X43842962Y9110812D01*
X43718480Y9123072D01*
X42805350Y9120000D01*
X42646600Y8961250D01*
X42392600Y8961250D01*
X42233850Y9120000D01*
X41320720Y9123072D01*
X41196238Y9110812D01*
X41076540Y9074502D01*
X40966226Y9015537D01*
X40869535Y8936185D01*
X40790183Y8839494D01*
X40731218Y8729180D01*
X40694908Y8609482D01*
X40682648Y8485000D01*
X40001000Y8485000D01*
X40001000Y9920422D01*
X40708048Y10627469D01*
X40708048Y10311000D01*
X40720308Y10186518D01*
X40756618Y10066820D01*
X40815583Y9956506D01*
X40894935Y9859815D01*
X40991626Y9780463D01*
X41101940Y9721498D01*
X41221638Y9685188D01*
X41346120Y9672928D01*
X43743880Y9672928D01*
X43868362Y9685188D01*
X43988060Y9721498D01*
X44098374Y9780463D01*
X44195065Y9859815D01*
X44274417Y9956506D01*
X44333382Y10066820D01*
X44369692Y10186518D01*
X44381952Y10311000D01*
X44381952Y11707226D01*
X45541831Y11707226D01*
X45613426Y11463246D01*
X45868954Y11342336D01*
X46143161Y11273600D01*
X46425508Y11259680D01*
X46705147Y11301111D01*
X46971328Y11396300D01*
X47096574Y11463246D01*
X47168169Y11707226D01*
X46355000Y12520395D01*
X45541831Y11707226D01*
X44381952Y11707226D01*
X44381952Y12601250D01*
X44382395Y12602710D01*
X44385032Y12629492D01*
X44914680Y12629492D01*
X44956111Y12349853D01*
X45051300Y12083672D01*
X45118246Y11958426D01*
X45362226Y11886831D01*
X46175395Y12700000D01*
X45362226Y13513169D01*
X45118246Y13441574D01*
X44997336Y13186046D01*
X44928600Y12911839D01*
X44914680Y12629492D01*
X44385032Y12629492D01*
X44395200Y12732723D01*
X44395200Y12732731D01*
X44399481Y12776200D01*
X44395200Y12819669D01*
X44395200Y14151713D01*
X44404380Y14154498D01*
X44514694Y14213463D01*
X44611385Y14292815D01*
X44690737Y14389506D01*
X44749702Y14499820D01*
X44786012Y14619518D01*
X44798272Y14744000D01*
X44798272Y15875114D01*
X45028269Y16105111D01*
X45207069Y16105111D01*
X45083231Y15919775D01*
X44975050Y15658603D01*
X44919900Y15381345D01*
X44919900Y15098655D01*
X44975050Y14821397D01*
X45083231Y14560225D01*
X45240285Y14325177D01*
X45440177Y14125285D01*
X45673932Y13969095D01*
X45613426Y13936754D01*
X45541831Y13692774D01*
X46355000Y12879605D01*
X47168169Y13692774D01*
X47096574Y13936754D01*
X47032256Y13967188D01*
X47034775Y13968231D01*
X47269823Y14125285D01*
X47469715Y14325177D01*
X47625000Y14557578D01*
X47780285Y14325177D01*
X47980177Y14125285D01*
X48212578Y13970000D01*
X47980177Y13814715D01*
X47780285Y13614823D01*
X47624095Y13381068D01*
X47591754Y13441574D01*
X47347774Y13513169D01*
X46534605Y12700000D01*
X47347774Y11886831D01*
X47591754Y11958426D01*
X47622188Y12022744D01*
X47623231Y12020225D01*
X47780285Y11785177D01*
X47980177Y11585285D01*
X48215225Y11428231D01*
X48476397Y11320050D01*
X48753655Y11264900D01*
X49036345Y11264900D01*
X49313603Y11320050D01*
X49574775Y11428231D01*
X49809823Y11585285D01*
X50009715Y11785177D01*
X50165000Y12017578D01*
X50320285Y11785177D01*
X50520177Y11585285D01*
X50550000Y11565358D01*
X50550000Y10584469D01*
X50545719Y10541000D01*
X50550000Y10497531D01*
X50550000Y10497524D01*
X50556571Y10430805D01*
X50562805Y10367510D01*
X50573027Y10333815D01*
X50613411Y10200688D01*
X50695589Y10046942D01*
X50806183Y9912183D01*
X50839956Y9884466D01*
X51683470Y9040951D01*
X51711183Y9007183D01*
X51744951Y8979470D01*
X51744953Y8979468D01*
X51816452Y8920790D01*
X51845941Y8896589D01*
X51999687Y8814411D01*
X52166510Y8763805D01*
X52296523Y8751000D01*
X52296533Y8751000D01*
X52339999Y8746719D01*
X52383465Y8751000D01*
X52789512Y8751000D01*
X52777379Y8711000D01*
X50795469Y8711000D01*
X50752000Y8715281D01*
X50708531Y8711000D01*
X50708523Y8711000D01*
X50601731Y8700482D01*
X50578509Y8698195D01*
X50527903Y8682843D01*
X50411687Y8647589D01*
X50257941Y8565411D01*
X50257939Y8565410D01*
X50257940Y8565410D01*
X50156953Y8482532D01*
X50156951Y8482530D01*
X50123183Y8454817D01*
X50095470Y8421049D01*
X49043494Y7369072D01*
X48514000Y7369072D01*
X48389518Y7356812D01*
X48269820Y7320502D01*
X48159506Y7261537D01*
X48062815Y7182185D01*
X47983463Y7085494D01*
X47924498Y6975180D01*
X47888188Y6855482D01*
X47875928Y6731000D01*
X47875928Y4699000D01*
X47888188Y4574518D01*
X47924498Y4454820D01*
X47983463Y4344506D01*
X48062815Y4247815D01*
X48159506Y4168463D01*
X48269820Y4109498D01*
X48389518Y4073188D01*
X48514000Y4060928D01*
X50546000Y4060928D01*
X50670482Y4073188D01*
X50790180Y4109498D01*
X50900494Y4168463D01*
X50997185Y4247815D01*
X51076537Y4344506D01*
X51135502Y4454820D01*
X51171812Y4574518D01*
X51184072Y4699000D01*
X51184072Y6731000D01*
X51171812Y6855482D01*
X51145870Y6941000D01*
X52777379Y6941000D01*
X52810498Y6831820D01*
X52869463Y6721506D01*
X52948815Y6624815D01*
X53045506Y6545463D01*
X53144944Y6492312D01*
X53022447Y6196579D01*
X52959000Y5877609D01*
X52959000Y5552391D01*
X53022447Y5233421D01*
X53146903Y4932958D01*
X53327585Y4662549D01*
X53557549Y4432585D01*
X53827958Y4251903D01*
X54128421Y4127447D01*
X54447391Y4064000D01*
X54772609Y4064000D01*
X55091579Y4127447D01*
X55392042Y4251903D01*
X55662451Y4432585D01*
X55892415Y4662549D01*
X56073097Y4932958D01*
X56197553Y5233421D01*
X56261000Y5552391D01*
X56261000Y5877609D01*
X56197553Y6196579D01*
X56096310Y6441000D01*
X56286411Y6441000D01*
X56553989Y6494225D01*
X56806043Y6598629D01*
X57032886Y6750201D01*
X57150000Y6867315D01*
X57267114Y6750201D01*
X57493957Y6598629D01*
X57746011Y6494225D01*
X58013589Y6441000D01*
X58203690Y6441000D01*
X58102447Y6196579D01*
X58039000Y5877609D01*
X58039000Y5552391D01*
X58102447Y5233421D01*
X58226903Y4932958D01*
X58407585Y4662549D01*
X58637549Y4432585D01*
X58907958Y4251903D01*
X59208421Y4127447D01*
X59527391Y4064000D01*
X59852609Y4064000D01*
X60171579Y4127447D01*
X60472042Y4251903D01*
X60742451Y4432585D01*
X60878043Y4568177D01*
X63802782Y4568177D01*
X63900478Y4302140D01*
X64192821Y4159652D01*
X64507344Y4076936D01*
X64831962Y4057169D01*
X65154198Y4101112D01*
X65461670Y4207076D01*
X65639522Y4302140D01*
X65737218Y4568177D01*
X64770000Y5535395D01*
X63802782Y4568177D01*
X60878043Y4568177D01*
X60972415Y4662549D01*
X61153097Y4932958D01*
X61277553Y5233421D01*
X61341000Y5552391D01*
X61341000Y5653038D01*
X63112169Y5653038D01*
X63156112Y5330802D01*
X63262076Y5023330D01*
X63357140Y4845478D01*
X63623177Y4747782D01*
X64590395Y5715000D01*
X64949605Y5715000D01*
X65916823Y4747782D01*
X66182860Y4845478D01*
X66246963Y4977000D01*
X70426048Y4977000D01*
X70438308Y4852518D01*
X70474618Y4732820D01*
X70533583Y4622506D01*
X70612935Y4525815D01*
X70709626Y4446463D01*
X70819940Y4387498D01*
X70939638Y4351188D01*
X71064120Y4338928D01*
X71977250Y4342000D01*
X72136000Y4500750D01*
X72136000Y6350000D01*
X72390000Y6350000D01*
X72390000Y4500750D01*
X72548750Y4342000D01*
X73461880Y4338928D01*
X73586362Y4351188D01*
X73706060Y4387498D01*
X73816374Y4446463D01*
X73913065Y4525815D01*
X73992417Y4622506D01*
X74051382Y4732820D01*
X74087692Y4852518D01*
X74099952Y4977000D01*
X74096880Y6191250D01*
X73938130Y6350000D01*
X72390000Y6350000D01*
X72136000Y6350000D01*
X70587870Y6350000D01*
X70429120Y6191250D01*
X70426048Y4977000D01*
X66246963Y4977000D01*
X66325348Y5137821D01*
X66408064Y5452344D01*
X66427831Y5776962D01*
X66383888Y6099198D01*
X66285200Y6385560D01*
X76486488Y6385560D01*
X76498748Y6261078D01*
X76535058Y6141380D01*
X76594023Y6031066D01*
X76673375Y5934375D01*
X76770066Y5855023D01*
X76880380Y5796058D01*
X77000078Y5759748D01*
X77124560Y5747488D01*
X77438250Y5750560D01*
X77597000Y5909310D01*
X77597000Y6858000D01*
X77851000Y6858000D01*
X77851000Y5909310D01*
X78009750Y5750560D01*
X78323440Y5747488D01*
X78447922Y5759748D01*
X78567620Y5796058D01*
X78677934Y5855023D01*
X78774625Y5934375D01*
X78853977Y6031066D01*
X78912942Y6141380D01*
X78949252Y6261078D01*
X78961512Y6385560D01*
X78958440Y6699250D01*
X78799690Y6858000D01*
X77851000Y6858000D01*
X77597000Y6858000D01*
X76648310Y6858000D01*
X76489560Y6699250D01*
X76486488Y6385560D01*
X66285200Y6385560D01*
X66277924Y6406670D01*
X66182860Y6584522D01*
X65916823Y6682218D01*
X64949605Y5715000D01*
X64590395Y5715000D01*
X63623177Y6682218D01*
X63357140Y6584522D01*
X63214652Y6292179D01*
X63131936Y5977656D01*
X63112169Y5653038D01*
X61341000Y5653038D01*
X61341000Y5877609D01*
X61277553Y6196579D01*
X61153097Y6497042D01*
X60972415Y6767451D01*
X60915219Y6824647D01*
X60925417Y6861823D01*
X63802782Y6861823D01*
X64770000Y5894605D01*
X65737218Y6861823D01*
X65639522Y7127860D01*
X65347179Y7270348D01*
X65032656Y7353064D01*
X64708038Y7372831D01*
X64385802Y7328888D01*
X64078330Y7222924D01*
X63900478Y7127860D01*
X63802782Y6861823D01*
X60925417Y6861823D01*
X60927388Y6869007D01*
X60150000Y7646395D01*
X60135858Y7632252D01*
X59956253Y7811857D01*
X59970395Y7826000D01*
X60329605Y7826000D01*
X61106993Y7048612D01*
X61345860Y7114137D01*
X61461760Y7361116D01*
X61527250Y7625960D01*
X61539812Y7898492D01*
X61498965Y8168238D01*
X61406277Y8424832D01*
X61345860Y8537863D01*
X61106993Y8603388D01*
X60329605Y7826000D01*
X59970395Y7826000D01*
X59421932Y8374463D01*
X59377371Y8482043D01*
X59225799Y8708886D01*
X59151692Y8782993D01*
X59372612Y8782993D01*
X60150000Y8005605D01*
X60927388Y8782993D01*
X60861863Y9021860D01*
X60614884Y9137760D01*
X60350040Y9203250D01*
X60077508Y9215812D01*
X59807762Y9174965D01*
X59551168Y9082277D01*
X59438137Y9021860D01*
X59372612Y8782993D01*
X59151692Y8782993D01*
X59035000Y8899685D01*
X59035000Y9592524D01*
X59039282Y9636000D01*
X59037605Y9653027D01*
X59730050Y10345471D01*
X59763817Y10373183D01*
X59808294Y10427377D01*
X59874410Y10507940D01*
X59874411Y10507941D01*
X59956589Y10661687D01*
X60007195Y10828510D01*
X60020000Y10958523D01*
X60020000Y10958533D01*
X60024281Y11001999D01*
X60020000Y11045465D01*
X60020000Y12531928D01*
X60735000Y12531928D01*
X60859482Y12544188D01*
X60979180Y12580498D01*
X61089494Y12639463D01*
X61186185Y12718815D01*
X61265537Y12815506D01*
X61324502Y12925820D01*
X61360812Y13045518D01*
X61373072Y13170000D01*
X61896928Y13170000D01*
X61909188Y13045518D01*
X61945498Y12925820D01*
X62004463Y12815506D01*
X62083815Y12718815D01*
X62180506Y12639463D01*
X62290820Y12580498D01*
X62410518Y12544188D01*
X62535000Y12531928D01*
X63849250Y12535000D01*
X64008000Y12693750D01*
X64008000Y13843000D01*
X64262000Y13843000D01*
X64262000Y12693750D01*
X64420750Y12535000D01*
X65735000Y12531928D01*
X65859482Y12544188D01*
X65979180Y12580498D01*
X66089494Y12639463D01*
X66186185Y12718815D01*
X66265537Y12815506D01*
X66324502Y12925820D01*
X66360812Y13045518D01*
X66373072Y13170000D01*
X66370000Y13684250D01*
X66211250Y13843000D01*
X64262000Y13843000D01*
X64008000Y13843000D01*
X62058750Y13843000D01*
X61900000Y13684250D01*
X61896928Y13170000D01*
X61373072Y13170000D01*
X61373072Y14709000D01*
X61897292Y14709000D01*
X61900000Y14255750D01*
X62058750Y14097000D01*
X64008000Y14097000D01*
X64008000Y14117000D01*
X64262000Y14117000D01*
X64262000Y14097000D01*
X66211250Y14097000D01*
X66370000Y14255750D01*
X66371812Y14559000D01*
X66513089Y14559000D01*
X66693729Y14594932D01*
X66863889Y14665414D01*
X67017028Y14767738D01*
X67092411Y14843121D01*
X67072805Y14778490D01*
X67055853Y14606364D01*
X66950820Y14574502D01*
X66840506Y14515537D01*
X66743815Y14436185D01*
X66664463Y14339494D01*
X66605498Y14229180D01*
X66569188Y14109482D01*
X66556928Y13985000D01*
X66556928Y12685000D01*
X66569188Y12560518D01*
X66605498Y12440820D01*
X66635335Y12385000D01*
X66605498Y12329180D01*
X66569188Y12209482D01*
X66556928Y12085000D01*
X66556928Y10785000D01*
X66569188Y10660518D01*
X66605498Y10540820D01*
X66664463Y10430506D01*
X66743815Y10333815D01*
X66840506Y10254463D01*
X66950820Y10195498D01*
X67056071Y10163571D01*
X67055719Y10160000D01*
X67072805Y9986510D01*
X67123412Y9819687D01*
X67205590Y9665941D01*
X67288468Y9564954D01*
X67288471Y9564951D01*
X67316184Y9531183D01*
X67349951Y9503471D01*
X68558470Y8294951D01*
X68586183Y8261183D01*
X68619951Y8233470D01*
X68619953Y8233468D01*
X68647519Y8210845D01*
X68720941Y8150589D01*
X68874687Y8068411D01*
X69041510Y8017805D01*
X69171523Y8005000D01*
X69171533Y8005000D01*
X69214999Y8000719D01*
X69258465Y8005000D01*
X70428806Y8005000D01*
X70426048Y7977000D01*
X70429120Y6762750D01*
X70587870Y6604000D01*
X72136000Y6604000D01*
X72136000Y6624000D01*
X72390000Y6624000D01*
X72390000Y6604000D01*
X73938130Y6604000D01*
X74096880Y6762750D01*
X74099952Y7977000D01*
X74097194Y8005000D01*
X75775531Y8005000D01*
X75819000Y8000719D01*
X75862469Y8005000D01*
X75862477Y8005000D01*
X75992490Y8017805D01*
X76159313Y8068411D01*
X76313059Y8150589D01*
X76370878Y8198040D01*
X76557176Y8198040D01*
X76594023Y8129106D01*
X76672058Y8034020D01*
X76594023Y7938934D01*
X76535058Y7828620D01*
X76498748Y7708922D01*
X76486488Y7584440D01*
X76489560Y7270750D01*
X76648310Y7112000D01*
X77597000Y7112000D01*
X77597000Y7132000D01*
X77851000Y7132000D01*
X77851000Y7112000D01*
X78799690Y7112000D01*
X78958440Y7270750D01*
X78961512Y7584440D01*
X78949252Y7708922D01*
X78912942Y7828620D01*
X78853977Y7938934D01*
X78775942Y8034020D01*
X78853977Y8129106D01*
X78912942Y8239420D01*
X78949252Y8359118D01*
X78961512Y8483600D01*
X78961512Y9682480D01*
X78949252Y9806962D01*
X78912942Y9926660D01*
X78853977Y10036974D01*
X78774625Y10133665D01*
X78677934Y10213017D01*
X78567620Y10271982D01*
X78447922Y10308292D01*
X78323440Y10320552D01*
X77124560Y10320552D01*
X77000078Y10308292D01*
X76880380Y10271982D01*
X76770066Y10213017D01*
X76673375Y10133665D01*
X76594023Y10036974D01*
X76557176Y9968040D01*
X76055509Y9968040D01*
X76012040Y9972321D01*
X75968571Y9968040D01*
X75968563Y9968040D01*
X75838550Y9955235D01*
X75671727Y9904629D01*
X75517981Y9822451D01*
X75460162Y9775000D01*
X74122594Y9775000D01*
X74125352Y9803000D01*
X74125352Y12803000D01*
X74113092Y12927482D01*
X74076782Y13047180D01*
X74017817Y13157494D01*
X73971463Y13213976D01*
X74102889Y13268414D01*
X74256028Y13370738D01*
X74386262Y13500972D01*
X74488586Y13654111D01*
X74559068Y13824271D01*
X74595000Y14004911D01*
X74595000Y14189089D01*
X74559068Y14369729D01*
X74488586Y14539889D01*
X74386262Y14693028D01*
X74256028Y14823262D01*
X74135952Y14903494D01*
X74234586Y15051111D01*
X74265191Y15125000D01*
X74607128Y15125000D01*
X74619388Y15000518D01*
X74655698Y14880820D01*
X74714663Y14770506D01*
X74794015Y14673815D01*
X74890706Y14594463D01*
X75001020Y14535498D01*
X75120718Y14499188D01*
X75245200Y14486928D01*
X75609450Y14490000D01*
X75768200Y14648750D01*
X75768200Y15748000D01*
X74768950Y15748000D01*
X74610200Y15589250D01*
X74607128Y15125000D01*
X74265191Y15125000D01*
X74305068Y15221271D01*
X74341000Y15401911D01*
X74341000Y15586089D01*
X74305068Y15766729D01*
X74234586Y15936889D01*
X74191000Y16002120D01*
X74191000Y16625000D01*
X74607128Y16625000D01*
X74610200Y16160750D01*
X74768950Y16002000D01*
X75768200Y16002000D01*
X75768200Y17101250D01*
X75609450Y17260000D01*
X75245200Y17263072D01*
X75120718Y17250812D01*
X75001020Y17214502D01*
X74890706Y17155537D01*
X74794015Y17076185D01*
X74714663Y16979494D01*
X74655698Y16869180D01*
X74619388Y16749482D01*
X74607128Y16625000D01*
X74191000Y16625000D01*
X74191000Y17190260D01*
X74201552Y17297400D01*
X74201552Y18508448D01*
X75412600Y18508448D01*
X75537082Y18520708D01*
X75620459Y18546000D01*
X75706422Y18546000D01*
X75738345Y18514077D01*
%TA.AperFunction,Conductor*%
D36*
G36*
X75738345Y18514077D02*
G01*
X75752414Y18480111D01*
X75854738Y18326972D01*
X75984972Y18196738D01*
X76138111Y18094414D01*
X76308271Y18023932D01*
X76488911Y17988000D01*
X76673089Y17988000D01*
X76853729Y18023932D01*
X76910200Y18047323D01*
X76910200Y17217287D01*
X76901020Y17214502D01*
X76845200Y17184665D01*
X76789380Y17214502D01*
X76669682Y17250812D01*
X76545200Y17263072D01*
X76180950Y17260000D01*
X76022200Y17101250D01*
X76022200Y16002000D01*
X76042200Y16002000D01*
X76042200Y15748000D01*
X76022200Y15748000D01*
X76022200Y14648750D01*
X76180950Y14490000D01*
X76545200Y14486928D01*
X76669682Y14499188D01*
X76789380Y14535498D01*
X76845200Y14565335D01*
X76901020Y14535498D01*
X77020718Y14499188D01*
X77145200Y14486928D01*
X78445200Y14486928D01*
X78569682Y14499188D01*
X78689380Y14535498D01*
X78799694Y14594463D01*
X78896385Y14673815D01*
X78963900Y14756083D01*
X78963900Y1035181D01*
X78950388Y766107D01*
X78913502Y522917D01*
X78853529Y288872D01*
X78771834Y64680D01*
X78669557Y-148287D01*
X78547692Y-349291D01*
X78407515Y-536974D01*
X78250082Y-710180D01*
X78076869Y-867619D01*
X77889269Y-1007734D01*
X77688192Y-1129565D01*
X77475131Y-1231966D01*
X77251131Y-1313591D01*
X77016986Y-1373512D01*
X76773783Y-1410477D01*
X76504827Y-1423900D01*
X70334000Y-1423900D01*
X70334000Y1488128D01*
X74036000Y1488128D01*
X74036000Y1047872D01*
X74121890Y616075D01*
X74290369Y209331D01*
X74534962Y-156729D01*
X74846271Y-468038D01*
X75212331Y-712631D01*
X75619075Y-881110D01*
X76050872Y-967000D01*
X76491128Y-967000D01*
X76922925Y-881110D01*
X77329669Y-712631D01*
X77695729Y-468038D01*
X78007038Y-156729D01*
X78251631Y209331D01*
X78420110Y616075D01*
X78506000Y1047872D01*
X78506000Y1488128D01*
X78420110Y1919925D01*
X78251631Y2326669D01*
X78007038Y2692729D01*
X77695729Y3004038D01*
X77329669Y3248631D01*
X76922925Y3417110D01*
X76491128Y3503000D01*
X76050872Y3503000D01*
X75619075Y3417110D01*
X75212331Y3248631D01*
X74846271Y3004038D01*
X74534962Y2692729D01*
X74290369Y2326669D01*
X74121890Y1919925D01*
X74036000Y1488128D01*
X70334000Y1488128D01*
X70334000Y2757353D01*
X70337314Y2791000D01*
X70324088Y2925283D01*
X70284919Y3054406D01*
X70221312Y3173407D01*
X70135711Y3277711D01*
X70031407Y3363312D01*
X69912406Y3426919D01*
X69783283Y3466088D01*
X69682647Y3476000D01*
X69649000Y3479314D01*
X69615353Y3476000D01*
X44782847Y3476000D01*
X44749200Y3479314D01*
X44715553Y3476000D01*
X44614917Y3466088D01*
X44568072Y3451878D01*
X44568072Y4460000D01*
X44555812Y4584482D01*
X44519502Y4704180D01*
X44460537Y4814494D01*
X44381185Y4911185D01*
X44284494Y4990537D01*
X44179990Y5046396D01*
X44249017Y5130506D01*
X44307982Y5240820D01*
X44344292Y5360518D01*
X44356552Y5485000D01*
X44353480Y6699250D01*
X44194730Y6858000D01*
X42646600Y6858000D01*
X42646600Y6838000D01*
X42392600Y6838000D01*
X42392600Y6858000D01*
X40844470Y6858000D01*
X40685720Y6699250D01*
X40683358Y5765799D01*
X40001000Y6448157D01*
X40001000Y8485000D01*
X40682648Y8485000D01*
X40685720Y7270750D01*
X40844470Y7112000D01*
X42392600Y7112000D01*
X42392600Y8961250D01*
X42646600Y8961250D01*
X42646600Y7112000D01*
X44194730Y7112000D01*
X44353480Y7270750D01*
X44356552Y8485000D01*
X44344292Y8609482D01*
X44307982Y8729180D01*
X44249017Y8839494D01*
X44169665Y8936185D01*
X44072974Y9015537D01*
X43962660Y9074502D01*
X43842962Y9110812D01*
X43718480Y9123072D01*
X42805350Y9120000D01*
X42646600Y8961250D01*
X42392600Y8961250D01*
X42233850Y9120000D01*
X41320720Y9123072D01*
X41196238Y9110812D01*
X41076540Y9074502D01*
X40966226Y9015537D01*
X40869535Y8936185D01*
X40790183Y8839494D01*
X40731218Y8729180D01*
X40694908Y8609482D01*
X40682648Y8485000D01*
X40001000Y8485000D01*
X40001000Y9920422D01*
X40708048Y10627469D01*
X40708048Y10311000D01*
X40720308Y10186518D01*
X40756618Y10066820D01*
X40815583Y9956506D01*
X40894935Y9859815D01*
X40991626Y9780463D01*
X41101940Y9721498D01*
X41221638Y9685188D01*
X41346120Y9672928D01*
X43743880Y9672928D01*
X43868362Y9685188D01*
X43988060Y9721498D01*
X44098374Y9780463D01*
X44195065Y9859815D01*
X44274417Y9956506D01*
X44333382Y10066820D01*
X44369692Y10186518D01*
X44381952Y10311000D01*
X44381952Y11707226D01*
X45541831Y11707226D01*
X45613426Y11463246D01*
X45868954Y11342336D01*
X46143161Y11273600D01*
X46425508Y11259680D01*
X46705147Y11301111D01*
X46971328Y11396300D01*
X47096574Y11463246D01*
X47168169Y11707226D01*
X46355000Y12520395D01*
X45541831Y11707226D01*
X44381952Y11707226D01*
X44381952Y12601250D01*
X44382395Y12602710D01*
X44385032Y12629492D01*
X44914680Y12629492D01*
X44956111Y12349853D01*
X45051300Y12083672D01*
X45118246Y11958426D01*
X45362226Y11886831D01*
X46175395Y12700000D01*
X45362226Y13513169D01*
X45118246Y13441574D01*
X44997336Y13186046D01*
X44928600Y12911839D01*
X44914680Y12629492D01*
X44385032Y12629492D01*
X44395200Y12732723D01*
X44395200Y12732731D01*
X44399481Y12776200D01*
X44395200Y12819669D01*
X44395200Y14151713D01*
X44404380Y14154498D01*
X44514694Y14213463D01*
X44611385Y14292815D01*
X44690737Y14389506D01*
X44749702Y14499820D01*
X44786012Y14619518D01*
X44798272Y14744000D01*
X44798272Y15875114D01*
X45028269Y16105111D01*
X45207069Y16105111D01*
X45083231Y15919775D01*
X44975050Y15658603D01*
X44919900Y15381345D01*
X44919900Y15098655D01*
X44975050Y14821397D01*
X45083231Y14560225D01*
X45240285Y14325177D01*
X45440177Y14125285D01*
X45673932Y13969095D01*
X45613426Y13936754D01*
X45541831Y13692774D01*
X46355000Y12879605D01*
X47168169Y13692774D01*
X47096574Y13936754D01*
X47032256Y13967188D01*
X47034775Y13968231D01*
X47269823Y14125285D01*
X47469715Y14325177D01*
X47625000Y14557578D01*
X47780285Y14325177D01*
X47980177Y14125285D01*
X48212578Y13970000D01*
X47980177Y13814715D01*
X47780285Y13614823D01*
X47624095Y13381068D01*
X47591754Y13441574D01*
X47347774Y13513169D01*
X46534605Y12700000D01*
X47347774Y11886831D01*
X47591754Y11958426D01*
X47622188Y12022744D01*
X47623231Y12020225D01*
X47780285Y11785177D01*
X47980177Y11585285D01*
X48215225Y11428231D01*
X48476397Y11320050D01*
X48753655Y11264900D01*
X49036345Y11264900D01*
X49313603Y11320050D01*
X49574775Y11428231D01*
X49809823Y11585285D01*
X50009715Y11785177D01*
X50165000Y12017578D01*
X50320285Y11785177D01*
X50520177Y11585285D01*
X50550000Y11565358D01*
X50550000Y10584469D01*
X50545719Y10541000D01*
X50550000Y10497531D01*
X50550000Y10497524D01*
X50556571Y10430805D01*
X50562805Y10367510D01*
X50573027Y10333815D01*
X50613411Y10200688D01*
X50695589Y10046942D01*
X50806183Y9912183D01*
X50839956Y9884466D01*
X51683470Y9040951D01*
X51711183Y9007183D01*
X51744951Y8979470D01*
X51744953Y8979468D01*
X51816452Y8920790D01*
X51845941Y8896589D01*
X51999687Y8814411D01*
X52166510Y8763805D01*
X52296523Y8751000D01*
X52296533Y8751000D01*
X52339999Y8746719D01*
X52383465Y8751000D01*
X52789512Y8751000D01*
X52777379Y8711000D01*
X50795469Y8711000D01*
X50752000Y8715281D01*
X50708531Y8711000D01*
X50708523Y8711000D01*
X50601731Y8700482D01*
X50578509Y8698195D01*
X50527903Y8682843D01*
X50411687Y8647589D01*
X50257941Y8565411D01*
X50257939Y8565410D01*
X50257940Y8565410D01*
X50156953Y8482532D01*
X50156951Y8482530D01*
X50123183Y8454817D01*
X50095470Y8421049D01*
X49043494Y7369072D01*
X48514000Y7369072D01*
X48389518Y7356812D01*
X48269820Y7320502D01*
X48159506Y7261537D01*
X48062815Y7182185D01*
X47983463Y7085494D01*
X47924498Y6975180D01*
X47888188Y6855482D01*
X47875928Y6731000D01*
X47875928Y4699000D01*
X47888188Y4574518D01*
X47924498Y4454820D01*
X47983463Y4344506D01*
X48062815Y4247815D01*
X48159506Y4168463D01*
X48269820Y4109498D01*
X48389518Y4073188D01*
X48514000Y4060928D01*
X50546000Y4060928D01*
X50670482Y4073188D01*
X50790180Y4109498D01*
X50900494Y4168463D01*
X50997185Y4247815D01*
X51076537Y4344506D01*
X51135502Y4454820D01*
X51171812Y4574518D01*
X51184072Y4699000D01*
X51184072Y6731000D01*
X51171812Y6855482D01*
X51145870Y6941000D01*
X52777379Y6941000D01*
X52810498Y6831820D01*
X52869463Y6721506D01*
X52948815Y6624815D01*
X53045506Y6545463D01*
X53144944Y6492312D01*
X53022447Y6196579D01*
X52959000Y5877609D01*
X52959000Y5552391D01*
X53022447Y5233421D01*
X53146903Y4932958D01*
X53327585Y4662549D01*
X53557549Y4432585D01*
X53827958Y4251903D01*
X54128421Y4127447D01*
X54447391Y4064000D01*
X54772609Y4064000D01*
X55091579Y4127447D01*
X55392042Y4251903D01*
X55662451Y4432585D01*
X55892415Y4662549D01*
X56073097Y4932958D01*
X56197553Y5233421D01*
X56261000Y5552391D01*
X56261000Y5877609D01*
X56197553Y6196579D01*
X56096310Y6441000D01*
X56286411Y6441000D01*
X56553989Y6494225D01*
X56806043Y6598629D01*
X57032886Y6750201D01*
X57150000Y6867315D01*
X57267114Y6750201D01*
X57493957Y6598629D01*
X57746011Y6494225D01*
X58013589Y6441000D01*
X58203690Y6441000D01*
X58102447Y6196579D01*
X58039000Y5877609D01*
X58039000Y5552391D01*
X58102447Y5233421D01*
X58226903Y4932958D01*
X58407585Y4662549D01*
X58637549Y4432585D01*
X58907958Y4251903D01*
X59208421Y4127447D01*
X59527391Y4064000D01*
X59852609Y4064000D01*
X60171579Y4127447D01*
X60472042Y4251903D01*
X60742451Y4432585D01*
X60878043Y4568177D01*
X63802782Y4568177D01*
X63900478Y4302140D01*
X64192821Y4159652D01*
X64507344Y4076936D01*
X64831962Y4057169D01*
X65154198Y4101112D01*
X65461670Y4207076D01*
X65639522Y4302140D01*
X65737218Y4568177D01*
X64770000Y5535395D01*
X63802782Y4568177D01*
X60878043Y4568177D01*
X60972415Y4662549D01*
X61153097Y4932958D01*
X61277553Y5233421D01*
X61341000Y5552391D01*
X61341000Y5653038D01*
X63112169Y5653038D01*
X63156112Y5330802D01*
X63262076Y5023330D01*
X63357140Y4845478D01*
X63623177Y4747782D01*
X64590395Y5715000D01*
X64949605Y5715000D01*
X65916823Y4747782D01*
X66182860Y4845478D01*
X66246963Y4977000D01*
X70426048Y4977000D01*
X70438308Y4852518D01*
X70474618Y4732820D01*
X70533583Y4622506D01*
X70612935Y4525815D01*
X70709626Y4446463D01*
X70819940Y4387498D01*
X70939638Y4351188D01*
X71064120Y4338928D01*
X71977250Y4342000D01*
X72136000Y4500750D01*
X72136000Y6350000D01*
X72390000Y6350000D01*
X72390000Y4500750D01*
X72548750Y4342000D01*
X73461880Y4338928D01*
X73586362Y4351188D01*
X73706060Y4387498D01*
X73816374Y4446463D01*
X73913065Y4525815D01*
X73992417Y4622506D01*
X74051382Y4732820D01*
X74087692Y4852518D01*
X74099952Y4977000D01*
X74096880Y6191250D01*
X73938130Y6350000D01*
X72390000Y6350000D01*
X72136000Y6350000D01*
X70587870Y6350000D01*
X70429120Y6191250D01*
X70426048Y4977000D01*
X66246963Y4977000D01*
X66325348Y5137821D01*
X66408064Y5452344D01*
X66427831Y5776962D01*
X66383888Y6099198D01*
X66285200Y6385560D01*
X76486488Y6385560D01*
X76498748Y6261078D01*
X76535058Y6141380D01*
X76594023Y6031066D01*
X76673375Y5934375D01*
X76770066Y5855023D01*
X76880380Y5796058D01*
X77000078Y5759748D01*
X77124560Y5747488D01*
X77438250Y5750560D01*
X77597000Y5909310D01*
X77597000Y6858000D01*
X77851000Y6858000D01*
X77851000Y5909310D01*
X78009750Y5750560D01*
X78323440Y5747488D01*
X78447922Y5759748D01*
X78567620Y5796058D01*
X78677934Y5855023D01*
X78774625Y5934375D01*
X78853977Y6031066D01*
X78912942Y6141380D01*
X78949252Y6261078D01*
X78961512Y6385560D01*
X78958440Y6699250D01*
X78799690Y6858000D01*
X77851000Y6858000D01*
X77597000Y6858000D01*
X76648310Y6858000D01*
X76489560Y6699250D01*
X76486488Y6385560D01*
X66285200Y6385560D01*
X66277924Y6406670D01*
X66182860Y6584522D01*
X65916823Y6682218D01*
X64949605Y5715000D01*
X64590395Y5715000D01*
X63623177Y6682218D01*
X63357140Y6584522D01*
X63214652Y6292179D01*
X63131936Y5977656D01*
X63112169Y5653038D01*
X61341000Y5653038D01*
X61341000Y5877609D01*
X61277553Y6196579D01*
X61153097Y6497042D01*
X60972415Y6767451D01*
X60915219Y6824647D01*
X60925417Y6861823D01*
X63802782Y6861823D01*
X64770000Y5894605D01*
X65737218Y6861823D01*
X65639522Y7127860D01*
X65347179Y7270348D01*
X65032656Y7353064D01*
X64708038Y7372831D01*
X64385802Y7328888D01*
X64078330Y7222924D01*
X63900478Y7127860D01*
X63802782Y6861823D01*
X60925417Y6861823D01*
X60927388Y6869007D01*
X60150000Y7646395D01*
X60135858Y7632252D01*
X59956253Y7811857D01*
X59970395Y7826000D01*
X60329605Y7826000D01*
X61106993Y7048612D01*
X61345860Y7114137D01*
X61461760Y7361116D01*
X61527250Y7625960D01*
X61539812Y7898492D01*
X61498965Y8168238D01*
X61406277Y8424832D01*
X61345860Y8537863D01*
X61106993Y8603388D01*
X60329605Y7826000D01*
X59970395Y7826000D01*
X59421932Y8374463D01*
X59377371Y8482043D01*
X59225799Y8708886D01*
X59151692Y8782993D01*
X59372612Y8782993D01*
X60150000Y8005605D01*
X60927388Y8782993D01*
X60861863Y9021860D01*
X60614884Y9137760D01*
X60350040Y9203250D01*
X60077508Y9215812D01*
X59807762Y9174965D01*
X59551168Y9082277D01*
X59438137Y9021860D01*
X59372612Y8782993D01*
X59151692Y8782993D01*
X59035000Y8899685D01*
X59035000Y9592524D01*
X59039282Y9636000D01*
X59037605Y9653027D01*
X59730050Y10345471D01*
X59763817Y10373183D01*
X59808294Y10427377D01*
X59874410Y10507940D01*
X59874411Y10507941D01*
X59956589Y10661687D01*
X60007195Y10828510D01*
X60020000Y10958523D01*
X60020000Y10958533D01*
X60024281Y11001999D01*
X60020000Y11045465D01*
X60020000Y12531928D01*
X60735000Y12531928D01*
X60859482Y12544188D01*
X60979180Y12580498D01*
X61089494Y12639463D01*
X61186185Y12718815D01*
X61265537Y12815506D01*
X61324502Y12925820D01*
X61360812Y13045518D01*
X61373072Y13170000D01*
X61896928Y13170000D01*
X61909188Y13045518D01*
X61945498Y12925820D01*
X62004463Y12815506D01*
X62083815Y12718815D01*
X62180506Y12639463D01*
X62290820Y12580498D01*
X62410518Y12544188D01*
X62535000Y12531928D01*
X63849250Y12535000D01*
X64008000Y12693750D01*
X64008000Y13843000D01*
X64262000Y13843000D01*
X64262000Y12693750D01*
X64420750Y12535000D01*
X65735000Y12531928D01*
X65859482Y12544188D01*
X65979180Y12580498D01*
X66089494Y12639463D01*
X66186185Y12718815D01*
X66265537Y12815506D01*
X66324502Y12925820D01*
X66360812Y13045518D01*
X66373072Y13170000D01*
X66370000Y13684250D01*
X66211250Y13843000D01*
X64262000Y13843000D01*
X64008000Y13843000D01*
X62058750Y13843000D01*
X61900000Y13684250D01*
X61896928Y13170000D01*
X61373072Y13170000D01*
X61373072Y14709000D01*
X61897292Y14709000D01*
X61900000Y14255750D01*
X62058750Y14097000D01*
X64008000Y14097000D01*
X64008000Y14117000D01*
X64262000Y14117000D01*
X64262000Y14097000D01*
X66211250Y14097000D01*
X66370000Y14255750D01*
X66371812Y14559000D01*
X66513089Y14559000D01*
X66693729Y14594932D01*
X66863889Y14665414D01*
X67017028Y14767738D01*
X67092411Y14843121D01*
X67072805Y14778490D01*
X67055853Y14606364D01*
X66950820Y14574502D01*
X66840506Y14515537D01*
X66743815Y14436185D01*
X66664463Y14339494D01*
X66605498Y14229180D01*
X66569188Y14109482D01*
X66556928Y13985000D01*
X66556928Y12685000D01*
X66569188Y12560518D01*
X66605498Y12440820D01*
X66635335Y12385000D01*
X66605498Y12329180D01*
X66569188Y12209482D01*
X66556928Y12085000D01*
X66556928Y10785000D01*
X66569188Y10660518D01*
X66605498Y10540820D01*
X66664463Y10430506D01*
X66743815Y10333815D01*
X66840506Y10254463D01*
X66950820Y10195498D01*
X67056071Y10163571D01*
X67055719Y10160000D01*
X67072805Y9986510D01*
X67123412Y9819687D01*
X67205590Y9665941D01*
X67288468Y9564954D01*
X67288471Y9564951D01*
X67316184Y9531183D01*
X67349951Y9503471D01*
X68558470Y8294951D01*
X68586183Y8261183D01*
X68619951Y8233470D01*
X68619953Y8233468D01*
X68647519Y8210845D01*
X68720941Y8150589D01*
X68874687Y8068411D01*
X69041510Y8017805D01*
X69171523Y8005000D01*
X69171533Y8005000D01*
X69214999Y8000719D01*
X69258465Y8005000D01*
X70428806Y8005000D01*
X70426048Y7977000D01*
X70429120Y6762750D01*
X70587870Y6604000D01*
X72136000Y6604000D01*
X72136000Y6624000D01*
X72390000Y6624000D01*
X72390000Y6604000D01*
X73938130Y6604000D01*
X74096880Y6762750D01*
X74099952Y7977000D01*
X74097194Y8005000D01*
X75775531Y8005000D01*
X75819000Y8000719D01*
X75862469Y8005000D01*
X75862477Y8005000D01*
X75992490Y8017805D01*
X76159313Y8068411D01*
X76313059Y8150589D01*
X76370878Y8198040D01*
X76557176Y8198040D01*
X76594023Y8129106D01*
X76672058Y8034020D01*
X76594023Y7938934D01*
X76535058Y7828620D01*
X76498748Y7708922D01*
X76486488Y7584440D01*
X76489560Y7270750D01*
X76648310Y7112000D01*
X77597000Y7112000D01*
X77597000Y7132000D01*
X77851000Y7132000D01*
X77851000Y7112000D01*
X78799690Y7112000D01*
X78958440Y7270750D01*
X78961512Y7584440D01*
X78949252Y7708922D01*
X78912942Y7828620D01*
X78853977Y7938934D01*
X78775942Y8034020D01*
X78853977Y8129106D01*
X78912942Y8239420D01*
X78949252Y8359118D01*
X78961512Y8483600D01*
X78961512Y9682480D01*
X78949252Y9806962D01*
X78912942Y9926660D01*
X78853977Y10036974D01*
X78774625Y10133665D01*
X78677934Y10213017D01*
X78567620Y10271982D01*
X78447922Y10308292D01*
X78323440Y10320552D01*
X77124560Y10320552D01*
X77000078Y10308292D01*
X76880380Y10271982D01*
X76770066Y10213017D01*
X76673375Y10133665D01*
X76594023Y10036974D01*
X76557176Y9968040D01*
X76055509Y9968040D01*
X76012040Y9972321D01*
X75968571Y9968040D01*
X75968563Y9968040D01*
X75838550Y9955235D01*
X75671727Y9904629D01*
X75517981Y9822451D01*
X75460162Y9775000D01*
X74122594Y9775000D01*
X74125352Y9803000D01*
X74125352Y12803000D01*
X74113092Y12927482D01*
X74076782Y13047180D01*
X74017817Y13157494D01*
X73971463Y13213976D01*
X74102889Y13268414D01*
X74256028Y13370738D01*
X74386262Y13500972D01*
X74488586Y13654111D01*
X74559068Y13824271D01*
X74595000Y14004911D01*
X74595000Y14189089D01*
X74559068Y14369729D01*
X74488586Y14539889D01*
X74386262Y14693028D01*
X74256028Y14823262D01*
X74135952Y14903494D01*
X74234586Y15051111D01*
X74265191Y15125000D01*
X74607128Y15125000D01*
X74619388Y15000518D01*
X74655698Y14880820D01*
X74714663Y14770506D01*
X74794015Y14673815D01*
X74890706Y14594463D01*
X75001020Y14535498D01*
X75120718Y14499188D01*
X75245200Y14486928D01*
X75609450Y14490000D01*
X75768200Y14648750D01*
X75768200Y15748000D01*
X74768950Y15748000D01*
X74610200Y15589250D01*
X74607128Y15125000D01*
X74265191Y15125000D01*
X74305068Y15221271D01*
X74341000Y15401911D01*
X74341000Y15586089D01*
X74305068Y15766729D01*
X74234586Y15936889D01*
X74191000Y16002120D01*
X74191000Y16625000D01*
X74607128Y16625000D01*
X74610200Y16160750D01*
X74768950Y16002000D01*
X75768200Y16002000D01*
X75768200Y17101250D01*
X75609450Y17260000D01*
X75245200Y17263072D01*
X75120718Y17250812D01*
X75001020Y17214502D01*
X74890706Y17155537D01*
X74794015Y17076185D01*
X74714663Y16979494D01*
X74655698Y16869180D01*
X74619388Y16749482D01*
X74607128Y16625000D01*
X74191000Y16625000D01*
X74191000Y17190260D01*
X74201552Y17297400D01*
X74201552Y18508448D01*
X75412600Y18508448D01*
X75537082Y18520708D01*
X75620459Y18546000D01*
X75706422Y18546000D01*
X75738345Y18514077D01*
G37*
%TD.AperFunction*%
D35*
X76773679Y42092693D02*
X77016986Y42055712D01*
X77251023Y41995819D01*
X77475039Y41914110D01*
X77688107Y41811706D01*
X77889187Y41689795D01*
X78076869Y41549619D01*
X78250025Y41392232D01*
X78407468Y41218937D01*
X78547658Y41031236D01*
X78669506Y40830183D01*
X78771816Y40617070D01*
X78853529Y40392828D01*
X78913502Y40158783D01*
X78950388Y39915593D01*
X78963901Y39646499D01*
X78963901Y35349192D01*
X78928889Y35372586D01*
X78758729Y35443068D01*
X78578089Y35479000D01*
X78393911Y35479000D01*
X78213271Y35443068D01*
X78207812Y35440807D01*
X78163185Y35495185D01*
X78066494Y35574537D01*
X77956180Y35633502D01*
X77836482Y35669812D01*
X77712000Y35682072D01*
X76212000Y35682072D01*
X76087518Y35669812D01*
X76086500Y35669503D01*
X76085482Y35669812D01*
X75961000Y35682072D01*
X75496750Y35679000D01*
X75338000Y35520250D01*
X75338000Y34671000D01*
X75358000Y34671000D01*
X75358000Y34417000D01*
X75338000Y34417000D01*
X75338000Y33274000D01*
X75358000Y33274000D01*
X75358000Y33020000D01*
X75338000Y33020000D01*
X75338000Y31877000D01*
X75358000Y31877000D01*
X75358000Y31623000D01*
X75338000Y31623000D01*
X75338000Y31603000D01*
X75084000Y31603000D01*
X75084000Y31623000D01*
X75064000Y31623000D01*
X75064000Y31877000D01*
X75084000Y31877000D01*
X75084000Y33020000D01*
X73984750Y33020000D01*
X73965527Y33000777D01*
X73899482Y33020812D01*
X73775000Y33033072D01*
X72275000Y33033072D01*
X72150518Y33020812D01*
X72030820Y32984502D01*
X71920506Y32925537D01*
X71823815Y32846185D01*
X71755000Y32762333D01*
X71686185Y32846185D01*
X71589494Y32925537D01*
X71479180Y32984502D01*
X71359482Y33020812D01*
X71235000Y33033072D01*
X69735000Y33033072D01*
X69610518Y33020812D01*
X69490820Y32984502D01*
X69380506Y32925537D01*
X69283815Y32846185D01*
X69204463Y32749494D01*
X69145498Y32639180D01*
X69144244Y32635046D01*
X69049028Y32730262D01*
X68895889Y32832586D01*
X68725729Y32903068D01*
X68545089Y32939000D01*
X68360911Y32939000D01*
X68180271Y32903068D01*
X68010111Y32832586D01*
X67856972Y32730262D01*
X67726738Y32600028D01*
X67624414Y32446889D01*
X67553932Y32276729D01*
X67518000Y32096089D01*
X67518000Y31911911D01*
X67553932Y31731271D01*
X67624414Y31561111D01*
X67668001Y31495879D01*
X67668001Y31034000D01*
X67598911Y31034000D01*
X67418271Y30998068D01*
X67248111Y30927586D01*
X67094972Y30825262D01*
X66964738Y30695028D01*
X66862414Y30541889D01*
X66791932Y30371729D01*
X66756000Y30191089D01*
X66756000Y30006911D01*
X66791932Y29826271D01*
X66862414Y29656111D01*
X66906000Y29590880D01*
X66906001Y27543671D01*
X66875983Y27507094D01*
X66817018Y27396780D01*
X66780708Y27277082D01*
X66768448Y27152600D01*
X66768448Y25941552D01*
X65557400Y25941552D01*
X65432918Y25929292D01*
X65313220Y25892982D01*
X65273072Y25871522D01*
X65273072Y25995000D01*
X65260812Y26119482D01*
X65237855Y26195161D01*
X65259980Y26266406D01*
X65270000Y26384250D01*
X65111250Y26543000D01*
X64956824Y26543000D01*
X64879180Y26584502D01*
X64759482Y26620812D01*
X64635000Y26633072D01*
X63988000Y26633072D01*
X63988000Y26706928D01*
X64635000Y26706928D01*
X64759482Y26719188D01*
X64879180Y26755498D01*
X64956824Y26797000D01*
X65111250Y26797000D01*
X65270000Y26955750D01*
X65259980Y27073594D01*
X65237855Y27144839D01*
X65260812Y27220518D01*
X65273072Y27345000D01*
X65273072Y27895000D01*
X65260812Y28019482D01*
X65224502Y28139180D01*
X65165537Y28249494D01*
X65086185Y28346185D01*
X64989494Y28425537D01*
X64879180Y28484502D01*
X64759482Y28520812D01*
X64635000Y28533072D01*
X63763086Y28533072D01*
X63411158Y28885000D01*
X63485770Y28845118D01*
X63605468Y28808808D01*
X63729950Y28796548D01*
X64530050Y28796548D01*
X64654532Y28808808D01*
X64774230Y28845118D01*
X64884544Y28904083D01*
X64981235Y28983435D01*
X65060587Y29080126D01*
X65119552Y29190440D01*
X65155862Y29310138D01*
X65168122Y29434620D01*
X65168122Y30334620D01*
X65155862Y30459102D01*
X65119552Y30578800D01*
X65060587Y30689114D01*
X64981235Y30785805D01*
X64884544Y30865157D01*
X64774230Y30924122D01*
X64654532Y30960432D01*
X64530050Y30972692D01*
X64063764Y30972692D01*
X64110587Y31029746D01*
X64169552Y31140060D01*
X64205862Y31259758D01*
X64218122Y31384240D01*
X64218122Y32385000D01*
X64205862Y32509482D01*
X64169552Y32629180D01*
X64110587Y32739494D01*
X64031235Y32836185D01*
X63934544Y32915537D01*
X63824230Y32974502D01*
X63704532Y33010812D01*
X63580050Y33023072D01*
X62779950Y33023072D01*
X62655468Y33010812D01*
X62535770Y32974502D01*
X62425456Y32915537D01*
X62385000Y32882336D01*
X62385000Y33207843D01*
X63221157Y34044000D01*
X73822928Y34044000D01*
X73835188Y33919518D01*
X73857641Y33845500D01*
X73835188Y33771482D01*
X73822928Y33647000D01*
X73826000Y33432750D01*
X73984750Y33274000D01*
X75084000Y33274000D01*
X75084000Y34417000D01*
X73984750Y34417000D01*
X73826000Y34258250D01*
X73822928Y34044000D01*
X63221157Y34044000D01*
X64221157Y35044000D01*
X73822928Y35044000D01*
X73826000Y34829750D01*
X73984750Y34671000D01*
X75084000Y34671000D01*
X75084000Y35520250D01*
X74925250Y35679000D01*
X74461000Y35682072D01*
X74336518Y35669812D01*
X74216820Y35633502D01*
X74106506Y35574537D01*
X74009815Y35495185D01*
X73930463Y35398494D01*
X73871498Y35288180D01*
X73835188Y35168482D01*
X73822928Y35044000D01*
X64221157Y35044000D01*
X64366528Y35189371D01*
X64474259Y35144747D01*
X64838375Y35072320D01*
X65209625Y35072320D01*
X65573741Y35144747D01*
X65916731Y35286818D01*
X66225413Y35493074D01*
X66375962Y35643623D01*
X68970229Y35643623D01*
X69096104Y35353685D01*
X69428262Y35187861D01*
X69786387Y35090025D01*
X70156719Y35063935D01*
X70525025Y35110595D01*
X70877151Y35228211D01*
X71111896Y35353685D01*
X71237771Y35643623D01*
X70104000Y36777395D01*
X68970229Y35643623D01*
X66375962Y35643623D01*
X66487926Y35755587D01*
X66694182Y36064269D01*
X66836253Y36407259D01*
X66908680Y36771375D01*
X66908680Y36904281D01*
X68210935Y36904281D01*
X68257595Y36535975D01*
X68375211Y36183849D01*
X68500685Y35949104D01*
X68790623Y35823229D01*
X69924395Y36957000D01*
X70283605Y36957000D01*
X71417377Y35823229D01*
X71707315Y35949104D01*
X71873139Y36281262D01*
X71970975Y36639387D01*
X71997065Y37009719D01*
X71950405Y37378025D01*
X71832789Y37730151D01*
X71707315Y37964896D01*
X71417377Y38090771D01*
X70283605Y36957000D01*
X69924395Y36957000D01*
X68790623Y38090771D01*
X68500685Y37964896D01*
X68334861Y37632738D01*
X68237025Y37274613D01*
X68210935Y36904281D01*
X66908680Y36904281D01*
X66908680Y37142625D01*
X66836253Y37506741D01*
X66694182Y37849731D01*
X66487926Y38158413D01*
X66375962Y38270377D01*
X68970229Y38270377D01*
X70104000Y37136605D01*
X71237771Y38270377D01*
X71111896Y38560315D01*
X70779738Y38726139D01*
X70421613Y38823975D01*
X70051281Y38850065D01*
X69682975Y38803405D01*
X69330849Y38685789D01*
X69096104Y38560315D01*
X68970229Y38270377D01*
X66375962Y38270377D01*
X66225413Y38420926D01*
X65916731Y38627182D01*
X65573741Y38769253D01*
X65209625Y38841680D01*
X64838375Y38841680D01*
X64474259Y38769253D01*
X64131269Y38627182D01*
X63822587Y38420926D01*
X63560074Y38158413D01*
X63353818Y37849731D01*
X63211747Y37506741D01*
X63139320Y37142625D01*
X63139320Y36771375D01*
X63211747Y36407259D01*
X63256371Y36299528D01*
X61072185Y34115342D01*
X61042237Y34090764D01*
X61017659Y34060816D01*
X61017655Y34060812D01*
X61006847Y34047642D01*
X60944139Y33971233D01*
X60916497Y33919518D01*
X60871246Y33834859D01*
X60826359Y33686886D01*
X60811203Y33533000D01*
X60815001Y33494438D01*
X60815000Y32070157D01*
X60647500Y31902657D01*
X60137727Y32412431D01*
X60113144Y32442384D01*
X59993613Y32540482D01*
X59857240Y32613374D01*
X59709267Y32658261D01*
X59593941Y32669620D01*
X59593933Y32669620D01*
X59555380Y32673417D01*
X59516827Y32669620D01*
X59067936Y32669620D01*
X59030587Y32739494D01*
X58951235Y32836185D01*
X58854544Y32915537D01*
X58744230Y32974502D01*
X58624532Y33010812D01*
X58500050Y33023072D01*
X57699950Y33023072D01*
X57575468Y33010812D01*
X57455770Y32974502D01*
X57449087Y32970930D01*
X57983157Y33505000D01*
X58762447Y33505000D01*
X58801000Y33501203D01*
X58839553Y33505000D01*
X58839561Y33505000D01*
X58954887Y33516359D01*
X59102860Y33561246D01*
X59239233Y33634138D01*
X59358764Y33732236D01*
X59383347Y33762190D01*
X60471817Y34850659D01*
X60501764Y34875236D01*
X60599862Y34994767D01*
X60639672Y35069248D01*
X61193680Y35069248D01*
X61318162Y35081508D01*
X61437860Y35117818D01*
X61548174Y35176783D01*
X61644865Y35256135D01*
X61724217Y35352826D01*
X61783182Y35463140D01*
X61819492Y35582838D01*
X61831752Y35707320D01*
X61831752Y38206680D01*
X61819492Y38331162D01*
X61783182Y38450860D01*
X61724217Y38561174D01*
X61644865Y38657865D01*
X61548174Y38737217D01*
X61437860Y38796182D01*
X61318162Y38832492D01*
X61193680Y38844752D01*
X58694320Y38844752D01*
X58569838Y38832492D01*
X58450140Y38796182D01*
X58339826Y38737217D01*
X58243135Y38657865D01*
X58163783Y38561174D01*
X58104818Y38450860D01*
X58068508Y38331162D01*
X58056248Y38206680D01*
X58056248Y35707320D01*
X58068508Y35582838D01*
X58104818Y35463140D01*
X58163783Y35352826D01*
X58243135Y35256135D01*
X58339826Y35176783D01*
X58450140Y35117818D01*
X58502713Y35101870D01*
X58475843Y35075000D01*
X57696556Y35075000D01*
X57658000Y35078797D01*
X57619444Y35075000D01*
X57619439Y35075000D01*
X57579026Y35071020D01*
X57504113Y35063642D01*
X57356140Y35018754D01*
X57219767Y34945862D01*
X57100236Y34847764D01*
X57075655Y34817812D01*
X54787843Y32530000D01*
X54780553Y32530000D01*
X54742000Y32533797D01*
X54712355Y32530877D01*
X54679502Y32639180D01*
X54620537Y32749494D01*
X54541185Y32846185D01*
X54444494Y32925537D01*
X54334180Y32984502D01*
X54214482Y33020812D01*
X54090000Y33033072D01*
X52590000Y33033072D01*
X52465518Y33020812D01*
X52345820Y32984502D01*
X52235506Y32925537D01*
X52138815Y32846185D01*
X52059463Y32749494D01*
X52000498Y32639180D01*
X51965560Y32524004D01*
X51911113Y32518642D01*
X51763140Y32473754D01*
X51626767Y32400862D01*
X51507236Y32302764D01*
X51482655Y32272812D01*
X50818072Y31608229D01*
X50818072Y32500000D01*
X50805812Y32624482D01*
X50769502Y32744180D01*
X50710537Y32854494D01*
X50631185Y32951185D01*
X50534494Y33030537D01*
X50424180Y33089502D01*
X50315000Y33122621D01*
X50315000Y35141019D01*
X50333741Y35144747D01*
X50676731Y35286818D01*
X50985413Y35493074D01*
X51135962Y35643623D01*
X53730229Y35643623D01*
X53856104Y35353685D01*
X54188262Y35187861D01*
X54546387Y35090025D01*
X54916719Y35063935D01*
X55285025Y35110595D01*
X55637151Y35228211D01*
X55871896Y35353685D01*
X55997771Y35643623D01*
X54864000Y36777395D01*
X53730229Y35643623D01*
X51135962Y35643623D01*
X51247926Y35755587D01*
X51454182Y36064269D01*
X51596253Y36407259D01*
X51668680Y36771375D01*
X51668680Y36904281D01*
X52970935Y36904281D01*
X53017595Y36535975D01*
X53135211Y36183849D01*
X53260685Y35949104D01*
X53550623Y35823229D01*
X54684395Y36957000D01*
X55043605Y36957000D01*
X56177377Y35823229D01*
X56467315Y35949104D01*
X56633139Y36281262D01*
X56730975Y36639387D01*
X56757065Y37009719D01*
X56710405Y37378025D01*
X56592789Y37730151D01*
X56467315Y37964896D01*
X56177377Y38090771D01*
X55043605Y36957000D01*
X54684395Y36957000D01*
X53550623Y38090771D01*
X53260685Y37964896D01*
X53094861Y37632738D01*
X52997025Y37274613D01*
X52970935Y36904281D01*
X51668680Y36904281D01*
X51668680Y37142625D01*
X51596253Y37506741D01*
X51454182Y37849731D01*
X51247926Y38158413D01*
X51135962Y38270377D01*
X53730229Y38270377D01*
X54864000Y37136605D01*
X55997771Y38270377D01*
X55871896Y38560315D01*
X55539738Y38726139D01*
X55181613Y38823975D01*
X54811281Y38850065D01*
X54442975Y38803405D01*
X54090849Y38685789D01*
X53856104Y38560315D01*
X53730229Y38270377D01*
X51135962Y38270377D01*
X50985413Y38420926D01*
X50676731Y38627182D01*
X50333741Y38769253D01*
X49969625Y38841680D01*
X49598375Y38841680D01*
X49234259Y38769253D01*
X48891269Y38627182D01*
X48582587Y38420926D01*
X48320074Y38158413D01*
X48113818Y37849731D01*
X47971747Y37506741D01*
X47899320Y37142625D01*
X47899320Y36771375D01*
X47971747Y36407259D01*
X48113818Y36064269D01*
X48320074Y35755587D01*
X48582587Y35493074D01*
X48745001Y35384552D01*
X48745000Y33122621D01*
X48635820Y33089502D01*
X48580000Y33059665D01*
X48524180Y33089502D01*
X48404482Y33125812D01*
X48280000Y33138072D01*
X46980000Y33138072D01*
X46855518Y33125812D01*
X46735820Y33089502D01*
X46675000Y33056993D01*
X46614180Y33089502D01*
X46494482Y33125812D01*
X46468936Y33128328D01*
X46448754Y33194860D01*
X46375862Y33331233D01*
X46277764Y33450764D01*
X46247811Y33475346D01*
X45921347Y33801810D01*
X45896764Y33831764D01*
X45777233Y33929862D01*
X45640860Y34002754D01*
X45492887Y34047641D01*
X45377561Y34059000D01*
X45377553Y34059000D01*
X45339000Y34062797D01*
X45300447Y34059000D01*
X43091556Y34059000D01*
X43053000Y34062797D01*
X43014444Y34059000D01*
X43014439Y34059000D01*
X42974026Y34055020D01*
X42899113Y34047642D01*
X42751140Y34002754D01*
X42614767Y33929862D01*
X42495236Y33831764D01*
X42470653Y33801810D01*
X41702185Y33033342D01*
X41672237Y33008764D01*
X41647659Y32978816D01*
X41647655Y32978812D01*
X41624982Y32951185D01*
X41574139Y32889233D01*
X41559182Y32861250D01*
X41501246Y32752859D01*
X41456359Y32604886D01*
X41441203Y32451000D01*
X41445001Y32412437D01*
X41445000Y29675923D01*
X41378765Y29621565D01*
X41299413Y29524874D01*
X41240448Y29414560D01*
X41204138Y29294862D01*
X41191878Y29170380D01*
X41191878Y28169620D01*
X41204138Y28045138D01*
X41240448Y27925440D01*
X41299413Y27815126D01*
X41378765Y27718435D01*
X41461383Y27650633D01*
X41407000Y27596250D01*
X41407000Y26797000D01*
X41427000Y26797000D01*
X41427000Y26543000D01*
X41407000Y26543000D01*
X41407000Y25743750D01*
X41565750Y25585000D01*
X41680050Y25581928D01*
X41804532Y25594188D01*
X41924230Y25630498D01*
X42034544Y25689463D01*
X42131235Y25768815D01*
X42210587Y25865506D01*
X42230000Y25901825D01*
X42249413Y25865506D01*
X42321054Y25778211D01*
X41382185Y24839342D01*
X41352237Y24814764D01*
X41327659Y24784816D01*
X41327655Y24784812D01*
X41306626Y24759188D01*
X41254139Y24695233D01*
X41228893Y24648000D01*
X41181246Y24558859D01*
X41136359Y24410886D01*
X41121203Y24257000D01*
X41125001Y24218438D01*
X41125001Y24144625D01*
X41035518Y24135812D01*
X40915820Y24099502D01*
X40805506Y24040537D01*
X40708815Y23961185D01*
X40629463Y23864494D01*
X40570498Y23754180D01*
X40534188Y23634482D01*
X40521928Y23510000D01*
X40521928Y22210000D01*
X40534188Y22085518D01*
X40570498Y21965820D01*
X40600335Y21910000D01*
X40570498Y21854180D01*
X40534188Y21734482D01*
X40521928Y21610000D01*
X40525000Y21245750D01*
X40683750Y21087000D01*
X41783000Y21087000D01*
X41783000Y21107000D01*
X42037000Y21107000D01*
X42037000Y21087000D01*
X42057000Y21087000D01*
X42057000Y20833000D01*
X42037000Y20833000D01*
X42037000Y19833750D01*
X42195750Y19675000D01*
X42660000Y19671928D01*
X42784482Y19684188D01*
X42904180Y19720498D01*
X43014494Y19779463D01*
X43111185Y19858815D01*
X43190537Y19955506D01*
X43249502Y20065820D01*
X43285812Y20185518D01*
X43298072Y20310000D01*
X43295000Y20674250D01*
X43136252Y20832998D01*
X43295000Y20832998D01*
X43295000Y20872843D01*
X43740653Y20427190D01*
X43765236Y20397236D01*
X43796928Y20371227D01*
X43796928Y20205000D01*
X43809188Y20080518D01*
X43845498Y19960820D01*
X43904463Y19850506D01*
X43983815Y19753815D01*
X44080506Y19674463D01*
X44190820Y19615498D01*
X44310518Y19579188D01*
X44435000Y19566928D01*
X45735000Y19566928D01*
X45859482Y19579188D01*
X45979180Y19615498D01*
X46035000Y19645335D01*
X46090820Y19615498D01*
X46210518Y19579188D01*
X46335000Y19566928D01*
X46699250Y19570000D01*
X46858000Y19728750D01*
X46858000Y20828000D01*
X46838000Y20828000D01*
X46838000Y21082000D01*
X46858000Y21082000D01*
X46858000Y21102000D01*
X47112000Y21102000D01*
X47112000Y21082000D01*
X47132000Y21082000D01*
X47132000Y20828000D01*
X47112000Y20828000D01*
X47112000Y19728750D01*
X47270750Y19570000D01*
X47635000Y19566928D01*
X47759482Y19579188D01*
X47879180Y19615498D01*
X47989494Y19674463D01*
X48086185Y19753815D01*
X48165537Y19850506D01*
X48224502Y19960820D01*
X48260812Y20080518D01*
X48273072Y20205000D01*
X48270000Y20669250D01*
X48111252Y20827998D01*
X48270000Y20827998D01*
X48270000Y20865659D01*
X48316815Y20808615D01*
X48413506Y20729263D01*
X48523820Y20670298D01*
X48643518Y20633988D01*
X48768000Y20621728D01*
X50655001Y20621728D01*
X50655000Y19803072D01*
X50459800Y19803072D01*
X50335318Y19790812D01*
X50215620Y19754502D01*
X50105306Y19695537D01*
X50008615Y19616185D01*
X49929263Y19519494D01*
X49870298Y19409180D01*
X49833988Y19289482D01*
X49821728Y19165000D01*
X49821728Y17675111D01*
X46394441Y17675111D01*
X46355888Y17678908D01*
X46317335Y17675111D01*
X44741667Y17675111D01*
X44703111Y17678908D01*
X44664555Y17675111D01*
X44664550Y17675111D01*
X44624137Y17671131D01*
X44549224Y17663753D01*
X44401251Y17618865D01*
X44264878Y17545973D01*
X44219365Y17508621D01*
X44175298Y17472456D01*
X44175295Y17472453D01*
X44145347Y17447875D01*
X44120769Y17417926D01*
X43584914Y16882072D01*
X42860200Y16882072D01*
X42735718Y16869812D01*
X42616020Y16833502D01*
X42560200Y16803665D01*
X42504380Y16833502D01*
X42384682Y16869812D01*
X42260200Y16882072D01*
X40960200Y16882072D01*
X40835718Y16869812D01*
X40716020Y16833502D01*
X40605706Y16774537D01*
X40509015Y16695185D01*
X40429663Y16598494D01*
X40370698Y16488180D01*
X40334388Y16368482D01*
X40325986Y16283172D01*
X39571347Y17037810D01*
X39546764Y17067764D01*
X39427233Y17165862D01*
X39290860Y17238754D01*
X39142887Y17283641D01*
X39027561Y17295000D01*
X39027553Y17295000D01*
X38989000Y17298797D01*
X38950447Y17295000D01*
X38636597Y17295000D01*
X38621377Y17331745D01*
X38431523Y17615883D01*
X38189883Y17857523D01*
X38137160Y17892752D01*
X38152008Y17907600D01*
X38036585Y18023023D01*
X38311191Y18130833D01*
X38462052Y18437460D01*
X38550194Y18767628D01*
X38572228Y19108647D01*
X38527310Y19447412D01*
X38417166Y19770905D01*
X38329298Y19935292D01*
X38378470Y19950208D01*
X38488784Y20009173D01*
X38585475Y20088525D01*
X38664827Y20185216D01*
X38723792Y20295530D01*
X38728181Y20310000D01*
X40521928Y20310000D01*
X40534188Y20185518D01*
X40570498Y20065820D01*
X40629463Y19955506D01*
X40708815Y19858815D01*
X40805506Y19779463D01*
X40915820Y19720498D01*
X41035518Y19684188D01*
X41160000Y19671928D01*
X41624250Y19675000D01*
X41783000Y19833750D01*
X41783000Y20833000D01*
X40683750Y20833000D01*
X40525000Y20674250D01*
X40521928Y20310000D01*
X38728181Y20310000D01*
X38760102Y20415228D01*
X38772362Y20539710D01*
X38769290Y21304250D01*
X38610540Y21463000D01*
X37211000Y21463000D01*
X37211000Y21443000D01*
X36957000Y21443000D01*
X36957000Y21463000D01*
X36937000Y21463000D01*
X36937000Y21717000D01*
X36957000Y21717000D01*
X36957000Y23116540D01*
X37211000Y23116540D01*
X37211000Y21717000D01*
X38610540Y21717000D01*
X38769290Y21875750D01*
X38772362Y22640290D01*
X38760102Y22764772D01*
X38723792Y22884470D01*
X38664827Y22994784D01*
X38585475Y23091475D01*
X38488784Y23170827D01*
X38378470Y23229792D01*
X38258772Y23266102D01*
X38134290Y23278362D01*
X37369750Y23275290D01*
X37211000Y23116540D01*
X36957000Y23116540D01*
X36798250Y23275290D01*
X36033710Y23278362D01*
X35909228Y23266102D01*
X35789530Y23229792D01*
X35679216Y23170827D01*
X35582525Y23091475D01*
X35503173Y22994784D01*
X35444208Y22884470D01*
X35433800Y22850159D01*
X35433800Y26142007D01*
X36893612Y26142007D01*
X36959137Y25903140D01*
X37206116Y25787240D01*
X37470960Y25721750D01*
X37743492Y25709188D01*
X38013238Y25750035D01*
X38269832Y25842723D01*
X38382863Y25903140D01*
X38448388Y26142007D01*
X38370395Y26220000D01*
X40241878Y26220000D01*
X40254138Y26095518D01*
X40290448Y25975820D01*
X40349413Y25865506D01*
X40428765Y25768815D01*
X40525456Y25689463D01*
X40635770Y25630498D01*
X40755468Y25594188D01*
X40879950Y25581928D01*
X40994250Y25585000D01*
X41153000Y25743750D01*
X41153000Y26543000D01*
X40403700Y26543000D01*
X40244950Y26384250D01*
X40241878Y26220000D01*
X38370395Y26220000D01*
X37671000Y26919395D01*
X36893612Y26142007D01*
X35433800Y26142007D01*
X35433800Y27026508D01*
X36281188Y27026508D01*
X36322035Y26756762D01*
X36414723Y26500168D01*
X36475140Y26387137D01*
X36714007Y26321612D01*
X37491395Y27099000D01*
X37850605Y27099000D01*
X38627993Y26321612D01*
X38866860Y26387137D01*
X38982760Y26634116D01*
X39048250Y26898960D01*
X39058438Y27120000D01*
X40241878Y27120000D01*
X40244950Y26955750D01*
X40403700Y26797000D01*
X41153000Y26797000D01*
X41153000Y27596250D01*
X40994250Y27755000D01*
X40879950Y27758072D01*
X40755468Y27745812D01*
X40635770Y27709502D01*
X40525456Y27650537D01*
X40428765Y27571185D01*
X40349413Y27474494D01*
X40290448Y27364180D01*
X40254138Y27244482D01*
X40241878Y27120000D01*
X39058438Y27120000D01*
X39060812Y27171492D01*
X39019965Y27441238D01*
X38927277Y27697832D01*
X38866860Y27810863D01*
X38627993Y27876388D01*
X37850605Y27099000D01*
X37491395Y27099000D01*
X36714007Y27876388D01*
X36475140Y27810863D01*
X36359240Y27563884D01*
X36293750Y27299040D01*
X36281188Y27026508D01*
X35433800Y27026508D01*
X35433800Y33849000D01*
X36282928Y33849000D01*
X36282928Y32349000D01*
X36295188Y32224518D01*
X36331498Y32104820D01*
X36390463Y31994506D01*
X36469815Y31897815D01*
X36514515Y31861131D01*
X36443629Y31755043D01*
X36339225Y31502989D01*
X36286000Y31235411D01*
X36286000Y30962589D01*
X36339225Y30695011D01*
X36443629Y30442957D01*
X36595201Y30216114D01*
X36712315Y30099000D01*
X36595201Y29981886D01*
X36443629Y29755043D01*
X36339225Y29502989D01*
X36286000Y29235411D01*
X36286000Y28962589D01*
X36339225Y28695011D01*
X36443629Y28442957D01*
X36595201Y28216114D01*
X36788114Y28023201D01*
X37014957Y27871629D01*
X37122537Y27827068D01*
X37671000Y27278605D01*
X38219463Y27827068D01*
X38327043Y27871629D01*
X38553886Y28023201D01*
X38746799Y28216114D01*
X38898371Y28442957D01*
X39002775Y28695011D01*
X39056000Y28962589D01*
X39056000Y29235411D01*
X39002775Y29502989D01*
X38898371Y29755043D01*
X38746799Y29981886D01*
X38629685Y30099000D01*
X38746799Y30216114D01*
X38898371Y30442957D01*
X39002775Y30695011D01*
X39056000Y30962589D01*
X39056000Y31235411D01*
X39002775Y31502989D01*
X38898371Y31755043D01*
X38827485Y31861131D01*
X38872185Y31897815D01*
X38951537Y31994506D01*
X39010502Y32104820D01*
X39046812Y32224518D01*
X39059072Y32349000D01*
X39059072Y33849000D01*
X39046812Y33973482D01*
X39010502Y34093180D01*
X38951537Y34203494D01*
X38872185Y34300185D01*
X38775494Y34379537D01*
X38665180Y34438502D01*
X38545482Y34474812D01*
X38421000Y34487072D01*
X36921000Y34487072D01*
X36796518Y34474812D01*
X36676820Y34438502D01*
X36566506Y34379537D01*
X36469815Y34300185D01*
X36390463Y34203494D01*
X36331498Y34093180D01*
X36295188Y33973482D01*
X36282928Y33849000D01*
X35433800Y33849000D01*
X35433800Y39588128D01*
X36036000Y39588128D01*
X36036000Y39147872D01*
X36121890Y38716075D01*
X36290369Y38309331D01*
X36534962Y37943271D01*
X36846271Y37631962D01*
X37212331Y37387369D01*
X37619075Y37218890D01*
X38050872Y37133000D01*
X38491128Y37133000D01*
X38922925Y37218890D01*
X39329669Y37387369D01*
X39695729Y37631962D01*
X40007038Y37943271D01*
X40183041Y38206680D01*
X42816248Y38206680D01*
X42816248Y35707320D01*
X42828508Y35582838D01*
X42864818Y35463140D01*
X42923783Y35352826D01*
X43003135Y35256135D01*
X43099826Y35176783D01*
X43210140Y35117818D01*
X43329838Y35081508D01*
X43454320Y35069248D01*
X45953680Y35069248D01*
X46078162Y35081508D01*
X46197860Y35117818D01*
X46308174Y35176783D01*
X46404865Y35256135D01*
X46484217Y35352826D01*
X46543182Y35463140D01*
X46579492Y35582838D01*
X46591752Y35707320D01*
X46591752Y38206680D01*
X46579492Y38331162D01*
X46543182Y38450860D01*
X46484217Y38561174D01*
X46404865Y38657865D01*
X46308174Y38737217D01*
X46197860Y38796182D01*
X46078162Y38832492D01*
X45953680Y38844752D01*
X43454320Y38844752D01*
X43329838Y38832492D01*
X43210140Y38796182D01*
X43099826Y38737217D01*
X43003135Y38657865D01*
X42923783Y38561174D01*
X42864818Y38450860D01*
X42828508Y38331162D01*
X42816248Y38206680D01*
X40183041Y38206680D01*
X40251631Y38309331D01*
X40420110Y38716075D01*
X40506000Y39147872D01*
X40506000Y39488128D01*
X74036000Y39488128D01*
X74036000Y39047872D01*
X74121890Y38616075D01*
X74290369Y38209331D01*
X74534962Y37843271D01*
X74846271Y37531962D01*
X75212331Y37287369D01*
X75619075Y37118890D01*
X76050872Y37033000D01*
X76491128Y37033000D01*
X76922925Y37118890D01*
X77329669Y37287369D01*
X77695729Y37531962D01*
X78007038Y37843271D01*
X78251631Y38209331D01*
X78420110Y38616075D01*
X78506000Y39047872D01*
X78506000Y39488128D01*
X78420110Y39919925D01*
X78251631Y40326669D01*
X78007038Y40692729D01*
X77695729Y41004038D01*
X77329669Y41248631D01*
X76922925Y41417110D01*
X76491128Y41503000D01*
X76050872Y41503000D01*
X75619075Y41417110D01*
X75212331Y41248631D01*
X74846271Y41004038D01*
X74534962Y40692729D01*
X74290369Y40326669D01*
X74121890Y39919925D01*
X74036000Y39488128D01*
X40506000Y39488128D01*
X40506000Y39588128D01*
X40420110Y40019925D01*
X40251631Y40426669D01*
X40007038Y40792729D01*
X39695729Y41104038D01*
X39329669Y41348631D01*
X38922925Y41517110D01*
X38491128Y41603000D01*
X38050872Y41603000D01*
X37619075Y41517110D01*
X37212331Y41348631D01*
X36846271Y41104038D01*
X36534962Y40792729D01*
X36290369Y40426669D01*
X36121890Y40019925D01*
X36036000Y39588128D01*
X35433800Y39588128D01*
X35433800Y39646518D01*
X35447312Y39915593D01*
X35484214Y40158891D01*
X35544081Y40392823D01*
X35625806Y40616884D01*
X35728244Y40830101D01*
X35850092Y41031154D01*
X35990424Y41218940D01*
X36147787Y41392234D01*
X36320912Y41549522D01*
X36508752Y41689757D01*
X36709858Y41811685D01*
X36923016Y41914094D01*
X37147074Y41995818D01*
X37381113Y42055712D01*
X37624421Y42092693D01*
X37893381Y42106200D01*
X76504718Y42106200D01*
X76773679Y42092693D01*
%TA.AperFunction,Conductor*%
D36*
G36*
X76773679Y42092693D02*
G01*
X77016986Y42055712D01*
X77251023Y41995819D01*
X77475039Y41914110D01*
X77688107Y41811706D01*
X77889187Y41689795D01*
X78076869Y41549619D01*
X78250025Y41392232D01*
X78407468Y41218937D01*
X78547658Y41031236D01*
X78669506Y40830183D01*
X78771816Y40617070D01*
X78853529Y40392828D01*
X78913502Y40158783D01*
X78950388Y39915593D01*
X78963901Y39646499D01*
X78963901Y35349192D01*
X78928889Y35372586D01*
X78758729Y35443068D01*
X78578089Y35479000D01*
X78393911Y35479000D01*
X78213271Y35443068D01*
X78207812Y35440807D01*
X78163185Y35495185D01*
X78066494Y35574537D01*
X77956180Y35633502D01*
X77836482Y35669812D01*
X77712000Y35682072D01*
X76212000Y35682072D01*
X76087518Y35669812D01*
X76086500Y35669503D01*
X76085482Y35669812D01*
X75961000Y35682072D01*
X75496750Y35679000D01*
X75338000Y35520250D01*
X75338000Y34671000D01*
X75358000Y34671000D01*
X75358000Y34417000D01*
X75338000Y34417000D01*
X75338000Y33274000D01*
X75358000Y33274000D01*
X75358000Y33020000D01*
X75338000Y33020000D01*
X75338000Y31877000D01*
X75358000Y31877000D01*
X75358000Y31623000D01*
X75338000Y31623000D01*
X75338000Y31603000D01*
X75084000Y31603000D01*
X75084000Y31623000D01*
X75064000Y31623000D01*
X75064000Y31877000D01*
X75084000Y31877000D01*
X75084000Y33020000D01*
X73984750Y33020000D01*
X73965527Y33000777D01*
X73899482Y33020812D01*
X73775000Y33033072D01*
X72275000Y33033072D01*
X72150518Y33020812D01*
X72030820Y32984502D01*
X71920506Y32925537D01*
X71823815Y32846185D01*
X71755000Y32762333D01*
X71686185Y32846185D01*
X71589494Y32925537D01*
X71479180Y32984502D01*
X71359482Y33020812D01*
X71235000Y33033072D01*
X69735000Y33033072D01*
X69610518Y33020812D01*
X69490820Y32984502D01*
X69380506Y32925537D01*
X69283815Y32846185D01*
X69204463Y32749494D01*
X69145498Y32639180D01*
X69144244Y32635046D01*
X69049028Y32730262D01*
X68895889Y32832586D01*
X68725729Y32903068D01*
X68545089Y32939000D01*
X68360911Y32939000D01*
X68180271Y32903068D01*
X68010111Y32832586D01*
X67856972Y32730262D01*
X67726738Y32600028D01*
X67624414Y32446889D01*
X67553932Y32276729D01*
X67518000Y32096089D01*
X67518000Y31911911D01*
X67553932Y31731271D01*
X67624414Y31561111D01*
X67668001Y31495879D01*
X67668001Y31034000D01*
X67598911Y31034000D01*
X67418271Y30998068D01*
X67248111Y30927586D01*
X67094972Y30825262D01*
X66964738Y30695028D01*
X66862414Y30541889D01*
X66791932Y30371729D01*
X66756000Y30191089D01*
X66756000Y30006911D01*
X66791932Y29826271D01*
X66862414Y29656111D01*
X66906000Y29590880D01*
X66906001Y27543671D01*
X66875983Y27507094D01*
X66817018Y27396780D01*
X66780708Y27277082D01*
X66768448Y27152600D01*
X66768448Y25941552D01*
X65557400Y25941552D01*
X65432918Y25929292D01*
X65313220Y25892982D01*
X65273072Y25871522D01*
X65273072Y25995000D01*
X65260812Y26119482D01*
X65237855Y26195161D01*
X65259980Y26266406D01*
X65270000Y26384250D01*
X65111250Y26543000D01*
X64956824Y26543000D01*
X64879180Y26584502D01*
X64759482Y26620812D01*
X64635000Y26633072D01*
X63988000Y26633072D01*
X63988000Y26706928D01*
X64635000Y26706928D01*
X64759482Y26719188D01*
X64879180Y26755498D01*
X64956824Y26797000D01*
X65111250Y26797000D01*
X65270000Y26955750D01*
X65259980Y27073594D01*
X65237855Y27144839D01*
X65260812Y27220518D01*
X65273072Y27345000D01*
X65273072Y27895000D01*
X65260812Y28019482D01*
X65224502Y28139180D01*
X65165537Y28249494D01*
X65086185Y28346185D01*
X64989494Y28425537D01*
X64879180Y28484502D01*
X64759482Y28520812D01*
X64635000Y28533072D01*
X63763086Y28533072D01*
X63411158Y28885000D01*
X63485770Y28845118D01*
X63605468Y28808808D01*
X63729950Y28796548D01*
X64530050Y28796548D01*
X64654532Y28808808D01*
X64774230Y28845118D01*
X64884544Y28904083D01*
X64981235Y28983435D01*
X65060587Y29080126D01*
X65119552Y29190440D01*
X65155862Y29310138D01*
X65168122Y29434620D01*
X65168122Y30334620D01*
X65155862Y30459102D01*
X65119552Y30578800D01*
X65060587Y30689114D01*
X64981235Y30785805D01*
X64884544Y30865157D01*
X64774230Y30924122D01*
X64654532Y30960432D01*
X64530050Y30972692D01*
X64063764Y30972692D01*
X64110587Y31029746D01*
X64169552Y31140060D01*
X64205862Y31259758D01*
X64218122Y31384240D01*
X64218122Y32385000D01*
X64205862Y32509482D01*
X64169552Y32629180D01*
X64110587Y32739494D01*
X64031235Y32836185D01*
X63934544Y32915537D01*
X63824230Y32974502D01*
X63704532Y33010812D01*
X63580050Y33023072D01*
X62779950Y33023072D01*
X62655468Y33010812D01*
X62535770Y32974502D01*
X62425456Y32915537D01*
X62385000Y32882336D01*
X62385000Y33207843D01*
X63221157Y34044000D01*
X73822928Y34044000D01*
X73835188Y33919518D01*
X73857641Y33845500D01*
X73835188Y33771482D01*
X73822928Y33647000D01*
X73826000Y33432750D01*
X73984750Y33274000D01*
X75084000Y33274000D01*
X75084000Y34417000D01*
X73984750Y34417000D01*
X73826000Y34258250D01*
X73822928Y34044000D01*
X63221157Y34044000D01*
X64221157Y35044000D01*
X73822928Y35044000D01*
X73826000Y34829750D01*
X73984750Y34671000D01*
X75084000Y34671000D01*
X75084000Y35520250D01*
X74925250Y35679000D01*
X74461000Y35682072D01*
X74336518Y35669812D01*
X74216820Y35633502D01*
X74106506Y35574537D01*
X74009815Y35495185D01*
X73930463Y35398494D01*
X73871498Y35288180D01*
X73835188Y35168482D01*
X73822928Y35044000D01*
X64221157Y35044000D01*
X64366528Y35189371D01*
X64474259Y35144747D01*
X64838375Y35072320D01*
X65209625Y35072320D01*
X65573741Y35144747D01*
X65916731Y35286818D01*
X66225413Y35493074D01*
X66375962Y35643623D01*
X68970229Y35643623D01*
X69096104Y35353685D01*
X69428262Y35187861D01*
X69786387Y35090025D01*
X70156719Y35063935D01*
X70525025Y35110595D01*
X70877151Y35228211D01*
X71111896Y35353685D01*
X71237771Y35643623D01*
X70104000Y36777395D01*
X68970229Y35643623D01*
X66375962Y35643623D01*
X66487926Y35755587D01*
X66694182Y36064269D01*
X66836253Y36407259D01*
X66908680Y36771375D01*
X66908680Y36904281D01*
X68210935Y36904281D01*
X68257595Y36535975D01*
X68375211Y36183849D01*
X68500685Y35949104D01*
X68790623Y35823229D01*
X69924395Y36957000D01*
X70283605Y36957000D01*
X71417377Y35823229D01*
X71707315Y35949104D01*
X71873139Y36281262D01*
X71970975Y36639387D01*
X71997065Y37009719D01*
X71950405Y37378025D01*
X71832789Y37730151D01*
X71707315Y37964896D01*
X71417377Y38090771D01*
X70283605Y36957000D01*
X69924395Y36957000D01*
X68790623Y38090771D01*
X68500685Y37964896D01*
X68334861Y37632738D01*
X68237025Y37274613D01*
X68210935Y36904281D01*
X66908680Y36904281D01*
X66908680Y37142625D01*
X66836253Y37506741D01*
X66694182Y37849731D01*
X66487926Y38158413D01*
X66375962Y38270377D01*
X68970229Y38270377D01*
X70104000Y37136605D01*
X71237771Y38270377D01*
X71111896Y38560315D01*
X70779738Y38726139D01*
X70421613Y38823975D01*
X70051281Y38850065D01*
X69682975Y38803405D01*
X69330849Y38685789D01*
X69096104Y38560315D01*
X68970229Y38270377D01*
X66375962Y38270377D01*
X66225413Y38420926D01*
X65916731Y38627182D01*
X65573741Y38769253D01*
X65209625Y38841680D01*
X64838375Y38841680D01*
X64474259Y38769253D01*
X64131269Y38627182D01*
X63822587Y38420926D01*
X63560074Y38158413D01*
X63353818Y37849731D01*
X63211747Y37506741D01*
X63139320Y37142625D01*
X63139320Y36771375D01*
X63211747Y36407259D01*
X63256371Y36299528D01*
X61072185Y34115342D01*
X61042237Y34090764D01*
X61017659Y34060816D01*
X61017655Y34060812D01*
X61006847Y34047642D01*
X60944139Y33971233D01*
X60916497Y33919518D01*
X60871246Y33834859D01*
X60826359Y33686886D01*
X60811203Y33533000D01*
X60815001Y33494438D01*
X60815000Y32070157D01*
X60647500Y31902657D01*
X60137727Y32412431D01*
X60113144Y32442384D01*
X59993613Y32540482D01*
X59857240Y32613374D01*
X59709267Y32658261D01*
X59593941Y32669620D01*
X59593933Y32669620D01*
X59555380Y32673417D01*
X59516827Y32669620D01*
X59067936Y32669620D01*
X59030587Y32739494D01*
X58951235Y32836185D01*
X58854544Y32915537D01*
X58744230Y32974502D01*
X58624532Y33010812D01*
X58500050Y33023072D01*
X57699950Y33023072D01*
X57575468Y33010812D01*
X57455770Y32974502D01*
X57449087Y32970930D01*
X57983157Y33505000D01*
X58762447Y33505000D01*
X58801000Y33501203D01*
X58839553Y33505000D01*
X58839561Y33505000D01*
X58954887Y33516359D01*
X59102860Y33561246D01*
X59239233Y33634138D01*
X59358764Y33732236D01*
X59383347Y33762190D01*
X60471817Y34850659D01*
X60501764Y34875236D01*
X60599862Y34994767D01*
X60639672Y35069248D01*
X61193680Y35069248D01*
X61318162Y35081508D01*
X61437860Y35117818D01*
X61548174Y35176783D01*
X61644865Y35256135D01*
X61724217Y35352826D01*
X61783182Y35463140D01*
X61819492Y35582838D01*
X61831752Y35707320D01*
X61831752Y38206680D01*
X61819492Y38331162D01*
X61783182Y38450860D01*
X61724217Y38561174D01*
X61644865Y38657865D01*
X61548174Y38737217D01*
X61437860Y38796182D01*
X61318162Y38832492D01*
X61193680Y38844752D01*
X58694320Y38844752D01*
X58569838Y38832492D01*
X58450140Y38796182D01*
X58339826Y38737217D01*
X58243135Y38657865D01*
X58163783Y38561174D01*
X58104818Y38450860D01*
X58068508Y38331162D01*
X58056248Y38206680D01*
X58056248Y35707320D01*
X58068508Y35582838D01*
X58104818Y35463140D01*
X58163783Y35352826D01*
X58243135Y35256135D01*
X58339826Y35176783D01*
X58450140Y35117818D01*
X58502713Y35101870D01*
X58475843Y35075000D01*
X57696556Y35075000D01*
X57658000Y35078797D01*
X57619444Y35075000D01*
X57619439Y35075000D01*
X57579026Y35071020D01*
X57504113Y35063642D01*
X57356140Y35018754D01*
X57219767Y34945862D01*
X57100236Y34847764D01*
X57075655Y34817812D01*
X54787843Y32530000D01*
X54780553Y32530000D01*
X54742000Y32533797D01*
X54712355Y32530877D01*
X54679502Y32639180D01*
X54620537Y32749494D01*
X54541185Y32846185D01*
X54444494Y32925537D01*
X54334180Y32984502D01*
X54214482Y33020812D01*
X54090000Y33033072D01*
X52590000Y33033072D01*
X52465518Y33020812D01*
X52345820Y32984502D01*
X52235506Y32925537D01*
X52138815Y32846185D01*
X52059463Y32749494D01*
X52000498Y32639180D01*
X51965560Y32524004D01*
X51911113Y32518642D01*
X51763140Y32473754D01*
X51626767Y32400862D01*
X51507236Y32302764D01*
X51482655Y32272812D01*
X50818072Y31608229D01*
X50818072Y32500000D01*
X50805812Y32624482D01*
X50769502Y32744180D01*
X50710537Y32854494D01*
X50631185Y32951185D01*
X50534494Y33030537D01*
X50424180Y33089502D01*
X50315000Y33122621D01*
X50315000Y35141019D01*
X50333741Y35144747D01*
X50676731Y35286818D01*
X50985413Y35493074D01*
X51135962Y35643623D01*
X53730229Y35643623D01*
X53856104Y35353685D01*
X54188262Y35187861D01*
X54546387Y35090025D01*
X54916719Y35063935D01*
X55285025Y35110595D01*
X55637151Y35228211D01*
X55871896Y35353685D01*
X55997771Y35643623D01*
X54864000Y36777395D01*
X53730229Y35643623D01*
X51135962Y35643623D01*
X51247926Y35755587D01*
X51454182Y36064269D01*
X51596253Y36407259D01*
X51668680Y36771375D01*
X51668680Y36904281D01*
X52970935Y36904281D01*
X53017595Y36535975D01*
X53135211Y36183849D01*
X53260685Y35949104D01*
X53550623Y35823229D01*
X54684395Y36957000D01*
X55043605Y36957000D01*
X56177377Y35823229D01*
X56467315Y35949104D01*
X56633139Y36281262D01*
X56730975Y36639387D01*
X56757065Y37009719D01*
X56710405Y37378025D01*
X56592789Y37730151D01*
X56467315Y37964896D01*
X56177377Y38090771D01*
X55043605Y36957000D01*
X54684395Y36957000D01*
X53550623Y38090771D01*
X53260685Y37964896D01*
X53094861Y37632738D01*
X52997025Y37274613D01*
X52970935Y36904281D01*
X51668680Y36904281D01*
X51668680Y37142625D01*
X51596253Y37506741D01*
X51454182Y37849731D01*
X51247926Y38158413D01*
X51135962Y38270377D01*
X53730229Y38270377D01*
X54864000Y37136605D01*
X55997771Y38270377D01*
X55871896Y38560315D01*
X55539738Y38726139D01*
X55181613Y38823975D01*
X54811281Y38850065D01*
X54442975Y38803405D01*
X54090849Y38685789D01*
X53856104Y38560315D01*
X53730229Y38270377D01*
X51135962Y38270377D01*
X50985413Y38420926D01*
X50676731Y38627182D01*
X50333741Y38769253D01*
X49969625Y38841680D01*
X49598375Y38841680D01*
X49234259Y38769253D01*
X48891269Y38627182D01*
X48582587Y38420926D01*
X48320074Y38158413D01*
X48113818Y37849731D01*
X47971747Y37506741D01*
X47899320Y37142625D01*
X47899320Y36771375D01*
X47971747Y36407259D01*
X48113818Y36064269D01*
X48320074Y35755587D01*
X48582587Y35493074D01*
X48745001Y35384552D01*
X48745000Y33122621D01*
X48635820Y33089502D01*
X48580000Y33059665D01*
X48524180Y33089502D01*
X48404482Y33125812D01*
X48280000Y33138072D01*
X46980000Y33138072D01*
X46855518Y33125812D01*
X46735820Y33089502D01*
X46675000Y33056993D01*
X46614180Y33089502D01*
X46494482Y33125812D01*
X46468936Y33128328D01*
X46448754Y33194860D01*
X46375862Y33331233D01*
X46277764Y33450764D01*
X46247811Y33475346D01*
X45921347Y33801810D01*
X45896764Y33831764D01*
X45777233Y33929862D01*
X45640860Y34002754D01*
X45492887Y34047641D01*
X45377561Y34059000D01*
X45377553Y34059000D01*
X45339000Y34062797D01*
X45300447Y34059000D01*
X43091556Y34059000D01*
X43053000Y34062797D01*
X43014444Y34059000D01*
X43014439Y34059000D01*
X42974026Y34055020D01*
X42899113Y34047642D01*
X42751140Y34002754D01*
X42614767Y33929862D01*
X42495236Y33831764D01*
X42470653Y33801810D01*
X41702185Y33033342D01*
X41672237Y33008764D01*
X41647659Y32978816D01*
X41647655Y32978812D01*
X41624982Y32951185D01*
X41574139Y32889233D01*
X41559182Y32861250D01*
X41501246Y32752859D01*
X41456359Y32604886D01*
X41441203Y32451000D01*
X41445001Y32412437D01*
X41445000Y29675923D01*
X41378765Y29621565D01*
X41299413Y29524874D01*
X41240448Y29414560D01*
X41204138Y29294862D01*
X41191878Y29170380D01*
X41191878Y28169620D01*
X41204138Y28045138D01*
X41240448Y27925440D01*
X41299413Y27815126D01*
X41378765Y27718435D01*
X41461383Y27650633D01*
X41407000Y27596250D01*
X41407000Y26797000D01*
X41427000Y26797000D01*
X41427000Y26543000D01*
X41407000Y26543000D01*
X41407000Y25743750D01*
X41565750Y25585000D01*
X41680050Y25581928D01*
X41804532Y25594188D01*
X41924230Y25630498D01*
X42034544Y25689463D01*
X42131235Y25768815D01*
X42210587Y25865506D01*
X42230000Y25901825D01*
X42249413Y25865506D01*
X42321054Y25778211D01*
X41382185Y24839342D01*
X41352237Y24814764D01*
X41327659Y24784816D01*
X41327655Y24784812D01*
X41306626Y24759188D01*
X41254139Y24695233D01*
X41228893Y24648000D01*
X41181246Y24558859D01*
X41136359Y24410886D01*
X41121203Y24257000D01*
X41125001Y24218438D01*
X41125001Y24144625D01*
X41035518Y24135812D01*
X40915820Y24099502D01*
X40805506Y24040537D01*
X40708815Y23961185D01*
X40629463Y23864494D01*
X40570498Y23754180D01*
X40534188Y23634482D01*
X40521928Y23510000D01*
X40521928Y22210000D01*
X40534188Y22085518D01*
X40570498Y21965820D01*
X40600335Y21910000D01*
X40570498Y21854180D01*
X40534188Y21734482D01*
X40521928Y21610000D01*
X40525000Y21245750D01*
X40683750Y21087000D01*
X41783000Y21087000D01*
X41783000Y21107000D01*
X42037000Y21107000D01*
X42037000Y21087000D01*
X42057000Y21087000D01*
X42057000Y20833000D01*
X42037000Y20833000D01*
X42037000Y19833750D01*
X42195750Y19675000D01*
X42660000Y19671928D01*
X42784482Y19684188D01*
X42904180Y19720498D01*
X43014494Y19779463D01*
X43111185Y19858815D01*
X43190537Y19955506D01*
X43249502Y20065820D01*
X43285812Y20185518D01*
X43298072Y20310000D01*
X43295000Y20674250D01*
X43136252Y20832998D01*
X43295000Y20832998D01*
X43295000Y20872843D01*
X43740653Y20427190D01*
X43765236Y20397236D01*
X43796928Y20371227D01*
X43796928Y20205000D01*
X43809188Y20080518D01*
X43845498Y19960820D01*
X43904463Y19850506D01*
X43983815Y19753815D01*
X44080506Y19674463D01*
X44190820Y19615498D01*
X44310518Y19579188D01*
X44435000Y19566928D01*
X45735000Y19566928D01*
X45859482Y19579188D01*
X45979180Y19615498D01*
X46035000Y19645335D01*
X46090820Y19615498D01*
X46210518Y19579188D01*
X46335000Y19566928D01*
X46699250Y19570000D01*
X46858000Y19728750D01*
X46858000Y20828000D01*
X46838000Y20828000D01*
X46838000Y21082000D01*
X46858000Y21082000D01*
X46858000Y21102000D01*
X47112000Y21102000D01*
X47112000Y21082000D01*
X47132000Y21082000D01*
X47132000Y20828000D01*
X47112000Y20828000D01*
X47112000Y19728750D01*
X47270750Y19570000D01*
X47635000Y19566928D01*
X47759482Y19579188D01*
X47879180Y19615498D01*
X47989494Y19674463D01*
X48086185Y19753815D01*
X48165537Y19850506D01*
X48224502Y19960820D01*
X48260812Y20080518D01*
X48273072Y20205000D01*
X48270000Y20669250D01*
X48111252Y20827998D01*
X48270000Y20827998D01*
X48270000Y20865659D01*
X48316815Y20808615D01*
X48413506Y20729263D01*
X48523820Y20670298D01*
X48643518Y20633988D01*
X48768000Y20621728D01*
X50655001Y20621728D01*
X50655000Y19803072D01*
X50459800Y19803072D01*
X50335318Y19790812D01*
X50215620Y19754502D01*
X50105306Y19695537D01*
X50008615Y19616185D01*
X49929263Y19519494D01*
X49870298Y19409180D01*
X49833988Y19289482D01*
X49821728Y19165000D01*
X49821728Y17675111D01*
X46394441Y17675111D01*
X46355888Y17678908D01*
X46317335Y17675111D01*
X44741667Y17675111D01*
X44703111Y17678908D01*
X44664555Y17675111D01*
X44664550Y17675111D01*
X44624137Y17671131D01*
X44549224Y17663753D01*
X44401251Y17618865D01*
X44264878Y17545973D01*
X44219365Y17508621D01*
X44175298Y17472456D01*
X44175295Y17472453D01*
X44145347Y17447875D01*
X44120769Y17417926D01*
X43584914Y16882072D01*
X42860200Y16882072D01*
X42735718Y16869812D01*
X42616020Y16833502D01*
X42560200Y16803665D01*
X42504380Y16833502D01*
X42384682Y16869812D01*
X42260200Y16882072D01*
X40960200Y16882072D01*
X40835718Y16869812D01*
X40716020Y16833502D01*
X40605706Y16774537D01*
X40509015Y16695185D01*
X40429663Y16598494D01*
X40370698Y16488180D01*
X40334388Y16368482D01*
X40325986Y16283172D01*
X39571347Y17037810D01*
X39546764Y17067764D01*
X39427233Y17165862D01*
X39290860Y17238754D01*
X39142887Y17283641D01*
X39027561Y17295000D01*
X39027553Y17295000D01*
X38989000Y17298797D01*
X38950447Y17295000D01*
X38636597Y17295000D01*
X38621377Y17331745D01*
X38431523Y17615883D01*
X38189883Y17857523D01*
X38137160Y17892752D01*
X38152008Y17907600D01*
X38036585Y18023023D01*
X38311191Y18130833D01*
X38462052Y18437460D01*
X38550194Y18767628D01*
X38572228Y19108647D01*
X38527310Y19447412D01*
X38417166Y19770905D01*
X38329298Y19935292D01*
X38378470Y19950208D01*
X38488784Y20009173D01*
X38585475Y20088525D01*
X38664827Y20185216D01*
X38723792Y20295530D01*
X38728181Y20310000D01*
X40521928Y20310000D01*
X40534188Y20185518D01*
X40570498Y20065820D01*
X40629463Y19955506D01*
X40708815Y19858815D01*
X40805506Y19779463D01*
X40915820Y19720498D01*
X41035518Y19684188D01*
X41160000Y19671928D01*
X41624250Y19675000D01*
X41783000Y19833750D01*
X41783000Y20833000D01*
X40683750Y20833000D01*
X40525000Y20674250D01*
X40521928Y20310000D01*
X38728181Y20310000D01*
X38760102Y20415228D01*
X38772362Y20539710D01*
X38769290Y21304250D01*
X38610540Y21463000D01*
X37211000Y21463000D01*
X37211000Y21443000D01*
X36957000Y21443000D01*
X36957000Y21463000D01*
X36937000Y21463000D01*
X36937000Y21717000D01*
X36957000Y21717000D01*
X36957000Y23116540D01*
X37211000Y23116540D01*
X37211000Y21717000D01*
X38610540Y21717000D01*
X38769290Y21875750D01*
X38772362Y22640290D01*
X38760102Y22764772D01*
X38723792Y22884470D01*
X38664827Y22994784D01*
X38585475Y23091475D01*
X38488784Y23170827D01*
X38378470Y23229792D01*
X38258772Y23266102D01*
X38134290Y23278362D01*
X37369750Y23275290D01*
X37211000Y23116540D01*
X36957000Y23116540D01*
X36798250Y23275290D01*
X36033710Y23278362D01*
X35909228Y23266102D01*
X35789530Y23229792D01*
X35679216Y23170827D01*
X35582525Y23091475D01*
X35503173Y22994784D01*
X35444208Y22884470D01*
X35433800Y22850159D01*
X35433800Y26142007D01*
X36893612Y26142007D01*
X36959137Y25903140D01*
X37206116Y25787240D01*
X37470960Y25721750D01*
X37743492Y25709188D01*
X38013238Y25750035D01*
X38269832Y25842723D01*
X38382863Y25903140D01*
X38448388Y26142007D01*
X38370395Y26220000D01*
X40241878Y26220000D01*
X40254138Y26095518D01*
X40290448Y25975820D01*
X40349413Y25865506D01*
X40428765Y25768815D01*
X40525456Y25689463D01*
X40635770Y25630498D01*
X40755468Y25594188D01*
X40879950Y25581928D01*
X40994250Y25585000D01*
X41153000Y25743750D01*
X41153000Y26543000D01*
X40403700Y26543000D01*
X40244950Y26384250D01*
X40241878Y26220000D01*
X38370395Y26220000D01*
X37671000Y26919395D01*
X36893612Y26142007D01*
X35433800Y26142007D01*
X35433800Y27026508D01*
X36281188Y27026508D01*
X36322035Y26756762D01*
X36414723Y26500168D01*
X36475140Y26387137D01*
X36714007Y26321612D01*
X37491395Y27099000D01*
X37850605Y27099000D01*
X38627993Y26321612D01*
X38866860Y26387137D01*
X38982760Y26634116D01*
X39048250Y26898960D01*
X39058438Y27120000D01*
X40241878Y27120000D01*
X40244950Y26955750D01*
X40403700Y26797000D01*
X41153000Y26797000D01*
X41153000Y27596250D01*
X40994250Y27755000D01*
X40879950Y27758072D01*
X40755468Y27745812D01*
X40635770Y27709502D01*
X40525456Y27650537D01*
X40428765Y27571185D01*
X40349413Y27474494D01*
X40290448Y27364180D01*
X40254138Y27244482D01*
X40241878Y27120000D01*
X39058438Y27120000D01*
X39060812Y27171492D01*
X39019965Y27441238D01*
X38927277Y27697832D01*
X38866860Y27810863D01*
X38627993Y27876388D01*
X37850605Y27099000D01*
X37491395Y27099000D01*
X36714007Y27876388D01*
X36475140Y27810863D01*
X36359240Y27563884D01*
X36293750Y27299040D01*
X36281188Y27026508D01*
X35433800Y27026508D01*
X35433800Y33849000D01*
X36282928Y33849000D01*
X36282928Y32349000D01*
X36295188Y32224518D01*
X36331498Y32104820D01*
X36390463Y31994506D01*
X36469815Y31897815D01*
X36514515Y31861131D01*
X36443629Y31755043D01*
X36339225Y31502989D01*
X36286000Y31235411D01*
X36286000Y30962589D01*
X36339225Y30695011D01*
X36443629Y30442957D01*
X36595201Y30216114D01*
X36712315Y30099000D01*
X36595201Y29981886D01*
X36443629Y29755043D01*
X36339225Y29502989D01*
X36286000Y29235411D01*
X36286000Y28962589D01*
X36339225Y28695011D01*
X36443629Y28442957D01*
X36595201Y28216114D01*
X36788114Y28023201D01*
X37014957Y27871629D01*
X37122537Y27827068D01*
X37671000Y27278605D01*
X38219463Y27827068D01*
X38327043Y27871629D01*
X38553886Y28023201D01*
X38746799Y28216114D01*
X38898371Y28442957D01*
X39002775Y28695011D01*
X39056000Y28962589D01*
X39056000Y29235411D01*
X39002775Y29502989D01*
X38898371Y29755043D01*
X38746799Y29981886D01*
X38629685Y30099000D01*
X38746799Y30216114D01*
X38898371Y30442957D01*
X39002775Y30695011D01*
X39056000Y30962589D01*
X39056000Y31235411D01*
X39002775Y31502989D01*
X38898371Y31755043D01*
X38827485Y31861131D01*
X38872185Y31897815D01*
X38951537Y31994506D01*
X39010502Y32104820D01*
X39046812Y32224518D01*
X39059072Y32349000D01*
X39059072Y33849000D01*
X39046812Y33973482D01*
X39010502Y34093180D01*
X38951537Y34203494D01*
X38872185Y34300185D01*
X38775494Y34379537D01*
X38665180Y34438502D01*
X38545482Y34474812D01*
X38421000Y34487072D01*
X36921000Y34487072D01*
X36796518Y34474812D01*
X36676820Y34438502D01*
X36566506Y34379537D01*
X36469815Y34300185D01*
X36390463Y34203494D01*
X36331498Y34093180D01*
X36295188Y33973482D01*
X36282928Y33849000D01*
X35433800Y33849000D01*
X35433800Y39588128D01*
X36036000Y39588128D01*
X36036000Y39147872D01*
X36121890Y38716075D01*
X36290369Y38309331D01*
X36534962Y37943271D01*
X36846271Y37631962D01*
X37212331Y37387369D01*
X37619075Y37218890D01*
X38050872Y37133000D01*
X38491128Y37133000D01*
X38922925Y37218890D01*
X39329669Y37387369D01*
X39695729Y37631962D01*
X40007038Y37943271D01*
X40183041Y38206680D01*
X42816248Y38206680D01*
X42816248Y35707320D01*
X42828508Y35582838D01*
X42864818Y35463140D01*
X42923783Y35352826D01*
X43003135Y35256135D01*
X43099826Y35176783D01*
X43210140Y35117818D01*
X43329838Y35081508D01*
X43454320Y35069248D01*
X45953680Y35069248D01*
X46078162Y35081508D01*
X46197860Y35117818D01*
X46308174Y35176783D01*
X46404865Y35256135D01*
X46484217Y35352826D01*
X46543182Y35463140D01*
X46579492Y35582838D01*
X46591752Y35707320D01*
X46591752Y38206680D01*
X46579492Y38331162D01*
X46543182Y38450860D01*
X46484217Y38561174D01*
X46404865Y38657865D01*
X46308174Y38737217D01*
X46197860Y38796182D01*
X46078162Y38832492D01*
X45953680Y38844752D01*
X43454320Y38844752D01*
X43329838Y38832492D01*
X43210140Y38796182D01*
X43099826Y38737217D01*
X43003135Y38657865D01*
X42923783Y38561174D01*
X42864818Y38450860D01*
X42828508Y38331162D01*
X42816248Y38206680D01*
X40183041Y38206680D01*
X40251631Y38309331D01*
X40420110Y38716075D01*
X40506000Y39147872D01*
X40506000Y39488128D01*
X74036000Y39488128D01*
X74036000Y39047872D01*
X74121890Y38616075D01*
X74290369Y38209331D01*
X74534962Y37843271D01*
X74846271Y37531962D01*
X75212331Y37287369D01*
X75619075Y37118890D01*
X76050872Y37033000D01*
X76491128Y37033000D01*
X76922925Y37118890D01*
X77329669Y37287369D01*
X77695729Y37531962D01*
X78007038Y37843271D01*
X78251631Y38209331D01*
X78420110Y38616075D01*
X78506000Y39047872D01*
X78506000Y39488128D01*
X78420110Y39919925D01*
X78251631Y40326669D01*
X78007038Y40692729D01*
X77695729Y41004038D01*
X77329669Y41248631D01*
X76922925Y41417110D01*
X76491128Y41503000D01*
X76050872Y41503000D01*
X75619075Y41417110D01*
X75212331Y41248631D01*
X74846271Y41004038D01*
X74534962Y40692729D01*
X74290369Y40326669D01*
X74121890Y39919925D01*
X74036000Y39488128D01*
X40506000Y39488128D01*
X40506000Y39588128D01*
X40420110Y40019925D01*
X40251631Y40426669D01*
X40007038Y40792729D01*
X39695729Y41104038D01*
X39329669Y41348631D01*
X38922925Y41517110D01*
X38491128Y41603000D01*
X38050872Y41603000D01*
X37619075Y41517110D01*
X37212331Y41348631D01*
X36846271Y41104038D01*
X36534962Y40792729D01*
X36290369Y40426669D01*
X36121890Y40019925D01*
X36036000Y39588128D01*
X35433800Y39588128D01*
X35433800Y39646518D01*
X35447312Y39915593D01*
X35484214Y40158891D01*
X35544081Y40392823D01*
X35625806Y40616884D01*
X35728244Y40830101D01*
X35850092Y41031154D01*
X35990424Y41218940D01*
X36147787Y41392234D01*
X36320912Y41549522D01*
X36508752Y41689757D01*
X36709858Y41811685D01*
X36923016Y41914094D01*
X37147074Y41995818D01*
X37381113Y42055712D01*
X37624421Y42092693D01*
X37893381Y42106200D01*
X76504718Y42106200D01*
X76773679Y42092693D01*
G37*
%TD.AperFunction*%
D35*
X37023748Y19064142D02*
X37009605Y19050000D01*
X37023748Y19035857D01*
X36844143Y18856252D01*
X36830000Y18870395D01*
X35803022Y17843417D01*
X35848408Y17727814D01*
X35736477Y17615883D01*
X35546623Y17331745D01*
X35433800Y17059368D01*
X35433800Y18097466D01*
X35623417Y18023022D01*
X36650395Y19050000D01*
X36636253Y19064142D01*
X36815858Y19243747D01*
X36830000Y19229605D01*
X36844143Y19243747D01*
X37023748Y19064142D01*
%TA.AperFunction,Conductor*%
D36*
G36*
X37023748Y19064142D02*
G01*
X37009605Y19050000D01*
X37023748Y19035857D01*
X36844143Y18856252D01*
X36830000Y18870395D01*
X35803022Y17843417D01*
X35848408Y17727814D01*
X35736477Y17615883D01*
X35546623Y17331745D01*
X35433800Y17059368D01*
X35433800Y18097466D01*
X35623417Y18023022D01*
X36650395Y19050000D01*
X36636253Y19064142D01*
X36815858Y19243747D01*
X36830000Y19229605D01*
X36844143Y19243747D01*
X37023748Y19064142D01*
G37*
%TD.AperFunction*%
D35*
X57781928Y21259800D02*
X57794188Y21135318D01*
X57830498Y21015620D01*
X57889463Y20905306D01*
X57968815Y20808615D01*
X58065506Y20729263D01*
X58175820Y20670298D01*
X58295518Y20633988D01*
X58420000Y20621728D01*
X60302000Y20621728D01*
X60302000Y20264158D01*
X59237843Y19200000D01*
X59064625Y19200000D01*
X59055812Y19289482D01*
X59019502Y19409180D01*
X58960537Y19519494D01*
X58881185Y19616185D01*
X58784494Y19695537D01*
X58674180Y19754502D01*
X58554482Y19790812D01*
X58430000Y19803072D01*
X57130000Y19803072D01*
X57005518Y19790812D01*
X56885820Y19754502D01*
X56830000Y19724665D01*
X56774180Y19754502D01*
X56654482Y19790812D01*
X56530000Y19803072D01*
X56165750Y19800000D01*
X56007000Y19641250D01*
X56007000Y18542000D01*
X56027000Y18542000D01*
X56027000Y18288000D01*
X56007000Y18288000D01*
X56007000Y18268000D01*
X55753000Y18268000D01*
X55753000Y18288000D01*
X54753750Y18288000D01*
X54595000Y18129250D01*
X54591928Y17665000D01*
X54604188Y17540518D01*
X54640498Y17420820D01*
X54699463Y17310506D01*
X54718746Y17287010D01*
X54171054Y17287010D01*
X54190337Y17310506D01*
X54249302Y17420820D01*
X54285612Y17540518D01*
X54297872Y17665000D01*
X54294800Y18129250D01*
X54136050Y18288000D01*
X53136800Y18288000D01*
X53136800Y18268000D01*
X52882800Y18268000D01*
X52882800Y18288000D01*
X52862800Y18288000D01*
X52862800Y18542000D01*
X52882800Y18542000D01*
X52882800Y19641250D01*
X53136800Y19641250D01*
X53136800Y18542000D01*
X54136050Y18542000D01*
X54294800Y18700750D01*
X54297872Y19165000D01*
X54591928Y19165000D01*
X54595000Y18700750D01*
X54753750Y18542000D01*
X55753000Y18542000D01*
X55753000Y19641250D01*
X55594250Y19800000D01*
X55230000Y19803072D01*
X55105518Y19790812D01*
X54985820Y19754502D01*
X54875506Y19695537D01*
X54778815Y19616185D01*
X54699463Y19519494D01*
X54640498Y19409180D01*
X54604188Y19289482D01*
X54591928Y19165000D01*
X54297872Y19165000D01*
X54285612Y19289482D01*
X54249302Y19409180D01*
X54190337Y19519494D01*
X54110985Y19616185D01*
X54014294Y19695537D01*
X53903980Y19754502D01*
X53784282Y19790812D01*
X53659800Y19803072D01*
X53295550Y19800000D01*
X53136800Y19641250D01*
X52882800Y19641250D01*
X52724050Y19800000D01*
X52359800Y19803072D01*
X52235318Y19790812D01*
X52225000Y19787682D01*
X52225000Y20621728D01*
X54102000Y20621728D01*
X54226482Y20633988D01*
X54346180Y20670298D01*
X54456494Y20729263D01*
X54553185Y20808615D01*
X54632537Y20905306D01*
X54691502Y21015620D01*
X54727812Y21135318D01*
X54740072Y21259800D01*
X54740072Y21440000D01*
X55333447Y21440000D01*
X55372000Y21436203D01*
X55410553Y21440000D01*
X55410561Y21440000D01*
X55525887Y21451359D01*
X55673860Y21496246D01*
X55810233Y21569138D01*
X55929764Y21667236D01*
X55954347Y21697190D01*
X57221158Y22964000D01*
X57781928Y22964000D01*
X57781928Y21259800D01*
%TA.AperFunction,Conductor*%
D36*
G36*
X57781928Y21259800D02*
G01*
X57794188Y21135318D01*
X57830498Y21015620D01*
X57889463Y20905306D01*
X57968815Y20808615D01*
X58065506Y20729263D01*
X58175820Y20670298D01*
X58295518Y20633988D01*
X58420000Y20621728D01*
X60302000Y20621728D01*
X60302000Y20264158D01*
X59237843Y19200000D01*
X59064625Y19200000D01*
X59055812Y19289482D01*
X59019502Y19409180D01*
X58960537Y19519494D01*
X58881185Y19616185D01*
X58784494Y19695537D01*
X58674180Y19754502D01*
X58554482Y19790812D01*
X58430000Y19803072D01*
X57130000Y19803072D01*
X57005518Y19790812D01*
X56885820Y19754502D01*
X56830000Y19724665D01*
X56774180Y19754502D01*
X56654482Y19790812D01*
X56530000Y19803072D01*
X56165750Y19800000D01*
X56007000Y19641250D01*
X56007000Y18542000D01*
X56027000Y18542000D01*
X56027000Y18288000D01*
X56007000Y18288000D01*
X56007000Y18268000D01*
X55753000Y18268000D01*
X55753000Y18288000D01*
X54753750Y18288000D01*
X54595000Y18129250D01*
X54591928Y17665000D01*
X54604188Y17540518D01*
X54640498Y17420820D01*
X54699463Y17310506D01*
X54718746Y17287010D01*
X54171054Y17287010D01*
X54190337Y17310506D01*
X54249302Y17420820D01*
X54285612Y17540518D01*
X54297872Y17665000D01*
X54294800Y18129250D01*
X54136050Y18288000D01*
X53136800Y18288000D01*
X53136800Y18268000D01*
X52882800Y18268000D01*
X52882800Y18288000D01*
X52862800Y18288000D01*
X52862800Y18542000D01*
X52882800Y18542000D01*
X52882800Y19641250D01*
X53136800Y19641250D01*
X53136800Y18542000D01*
X54136050Y18542000D01*
X54294800Y18700750D01*
X54297872Y19165000D01*
X54591928Y19165000D01*
X54595000Y18700750D01*
X54753750Y18542000D01*
X55753000Y18542000D01*
X55753000Y19641250D01*
X55594250Y19800000D01*
X55230000Y19803072D01*
X55105518Y19790812D01*
X54985820Y19754502D01*
X54875506Y19695537D01*
X54778815Y19616185D01*
X54699463Y19519494D01*
X54640498Y19409180D01*
X54604188Y19289482D01*
X54591928Y19165000D01*
X54297872Y19165000D01*
X54285612Y19289482D01*
X54249302Y19409180D01*
X54190337Y19519494D01*
X54110985Y19616185D01*
X54014294Y19695537D01*
X53903980Y19754502D01*
X53784282Y19790812D01*
X53659800Y19803072D01*
X53295550Y19800000D01*
X53136800Y19641250D01*
X52882800Y19641250D01*
X52724050Y19800000D01*
X52359800Y19803072D01*
X52235318Y19790812D01*
X52225000Y19787682D01*
X52225000Y20621728D01*
X54102000Y20621728D01*
X54226482Y20633988D01*
X54346180Y20670298D01*
X54456494Y20729263D01*
X54553185Y20808615D01*
X54632537Y20905306D01*
X54691502Y21015620D01*
X54727812Y21135318D01*
X54740072Y21259800D01*
X54740072Y21440000D01*
X55333447Y21440000D01*
X55372000Y21436203D01*
X55410553Y21440000D01*
X55410561Y21440000D01*
X55525887Y21451359D01*
X55673860Y21496246D01*
X55810233Y21569138D01*
X55929764Y21667236D01*
X55954347Y21697190D01*
X57221158Y22964000D01*
X57781928Y22964000D01*
X57781928Y21259800D01*
G37*
%TD.AperFunction*%
D35*
X73004680Y25244528D02*
X73504528Y25244528D01*
X73504528Y24744680D01*
X73516411Y24624030D01*
X73504528Y24503380D01*
X73504528Y23944580D01*
X73516411Y23823930D01*
X73504528Y23703280D01*
X73504528Y23144480D01*
X73516589Y23022016D01*
X73507600Y22909530D01*
X73594745Y22822385D01*
X73612063Y22789986D01*
X73691415Y22693295D01*
X73774572Y22625050D01*
X73691415Y22556805D01*
X73612063Y22460114D01*
X73591828Y22422258D01*
X73507600Y22338030D01*
X73516477Y22226946D01*
X73504528Y22105620D01*
X73504528Y21546820D01*
X73516411Y21426170D01*
X73504528Y21305520D01*
X73504528Y21111020D01*
X72723559Y21111020D01*
X72213412Y21621166D01*
X72185697Y21654937D01*
X72050939Y21765531D01*
X71897193Y21847709D01*
X71730370Y21898315D01*
X71600357Y21911120D01*
X71600349Y21911120D01*
X71556880Y21915401D01*
X71513411Y21911120D01*
X67462400Y21911120D01*
X67462400Y21953222D01*
X67327848Y21953222D01*
X67357937Y21989886D01*
X67378172Y22027742D01*
X67462400Y22111970D01*
X67453523Y22223054D01*
X67465472Y22344380D01*
X67465472Y22903180D01*
X67453411Y23025644D01*
X67462400Y23138130D01*
X67375255Y23225275D01*
X67357937Y23257674D01*
X67278585Y23354365D01*
X67193880Y23423880D01*
X67278585Y23493395D01*
X67357937Y23590086D01*
X67375255Y23622485D01*
X67462400Y23709630D01*
X67453411Y23822116D01*
X67465472Y23944580D01*
X67465472Y24503380D01*
X67453589Y24624030D01*
X67465472Y24744680D01*
X67465472Y25244528D01*
X67965320Y25244528D01*
X68085970Y25256411D01*
X68206620Y25244528D01*
X68765420Y25244528D01*
X68886070Y25256411D01*
X69006720Y25244528D01*
X69565520Y25244528D01*
X69686170Y25256411D01*
X69806820Y25244528D01*
X70365620Y25244528D01*
X70485000Y25256286D01*
X70604380Y25244528D01*
X71163180Y25244528D01*
X71283830Y25256411D01*
X71404480Y25244528D01*
X71963280Y25244528D01*
X72083930Y25256411D01*
X72204580Y25244528D01*
X72763380Y25244528D01*
X72884030Y25256411D01*
X73004680Y25244528D01*
%TA.AperFunction,Conductor*%
D36*
G36*
X73004680Y25244528D02*
G01*
X73504528Y25244528D01*
X73504528Y24744680D01*
X73516411Y24624030D01*
X73504528Y24503380D01*
X73504528Y23944580D01*
X73516411Y23823930D01*
X73504528Y23703280D01*
X73504528Y23144480D01*
X73516589Y23022016D01*
X73507600Y22909530D01*
X73594745Y22822385D01*
X73612063Y22789986D01*
X73691415Y22693295D01*
X73774572Y22625050D01*
X73691415Y22556805D01*
X73612063Y22460114D01*
X73591828Y22422258D01*
X73507600Y22338030D01*
X73516477Y22226946D01*
X73504528Y22105620D01*
X73504528Y21546820D01*
X73516411Y21426170D01*
X73504528Y21305520D01*
X73504528Y21111020D01*
X72723559Y21111020D01*
X72213412Y21621166D01*
X72185697Y21654937D01*
X72050939Y21765531D01*
X71897193Y21847709D01*
X71730370Y21898315D01*
X71600357Y21911120D01*
X71600349Y21911120D01*
X71556880Y21915401D01*
X71513411Y21911120D01*
X67462400Y21911120D01*
X67462400Y21953222D01*
X67327848Y21953222D01*
X67357937Y21989886D01*
X67378172Y22027742D01*
X67462400Y22111970D01*
X67453523Y22223054D01*
X67465472Y22344380D01*
X67465472Y22903180D01*
X67453411Y23025644D01*
X67462400Y23138130D01*
X67375255Y23225275D01*
X67357937Y23257674D01*
X67278585Y23354365D01*
X67193880Y23423880D01*
X67278585Y23493395D01*
X67357937Y23590086D01*
X67375255Y23622485D01*
X67462400Y23709630D01*
X67453411Y23822116D01*
X67465472Y23944580D01*
X67465472Y24503380D01*
X67453589Y24624030D01*
X67465472Y24744680D01*
X67465472Y25244528D01*
X67965320Y25244528D01*
X68085970Y25256411D01*
X68206620Y25244528D01*
X68765420Y25244528D01*
X68886070Y25256411D01*
X69006720Y25244528D01*
X69565520Y25244528D01*
X69686170Y25256411D01*
X69806820Y25244528D01*
X70365620Y25244528D01*
X70485000Y25256286D01*
X70604380Y25244528D01*
X71163180Y25244528D01*
X71283830Y25256411D01*
X71404480Y25244528D01*
X71963280Y25244528D01*
X72083930Y25256411D01*
X72204580Y25244528D01*
X72763380Y25244528D01*
X72884030Y25256411D01*
X73004680Y25244528D01*
G37*
%TD.AperFunction*%
D35*
X78963901Y26347147D02*
X78855000Y26357872D01*
X78390750Y26354800D01*
X78232000Y26196050D01*
X78232000Y25196800D01*
X78252000Y25196800D01*
X78252000Y24942800D01*
X78232000Y24942800D01*
X78232000Y24922800D01*
X77978000Y24922800D01*
X77978000Y24942800D01*
X76878750Y24942800D01*
X76720000Y24784050D01*
X76716928Y24419800D01*
X76729188Y24295318D01*
X76765498Y24175620D01*
X76795335Y24119800D01*
X76765498Y24063980D01*
X76729188Y23944282D01*
X76716928Y23819800D01*
X76716928Y22711220D01*
X76047600Y22711220D01*
X76047600Y22750782D01*
X75910963Y22750782D01*
X75943137Y22789986D01*
X75960455Y22822385D01*
X76047600Y22909530D01*
X76038611Y23022016D01*
X76050672Y23144480D01*
X76050672Y23607073D01*
X76151492Y23729921D01*
X76233670Y23883667D01*
X76256202Y23957944D01*
X76346810Y24048552D01*
X76376764Y24073135D01*
X76474862Y24192666D01*
X76547754Y24329039D01*
X76586835Y24457872D01*
X76592641Y24477011D01*
X76599263Y24544246D01*
X76604000Y24592338D01*
X76604000Y24592345D01*
X76607797Y24630898D01*
X76604000Y24669451D01*
X76604000Y25653880D01*
X76647586Y25719111D01*
X76647871Y25719800D01*
X76716928Y25719800D01*
X76720000Y25355550D01*
X76878750Y25196800D01*
X77978000Y25196800D01*
X77978000Y26196050D01*
X77819250Y26354800D01*
X77355000Y26357872D01*
X77230518Y26345612D01*
X77110820Y26309302D01*
X77000506Y26250337D01*
X76903815Y26170985D01*
X76824463Y26074294D01*
X76765498Y25963980D01*
X76729188Y25844282D01*
X76716928Y25719800D01*
X76647871Y25719800D01*
X76718068Y25889271D01*
X76754000Y26069911D01*
X76754000Y26254089D01*
X76718068Y26434729D01*
X76647586Y26604889D01*
X76609425Y26662001D01*
X78051446Y26662001D01*
X78089999Y26658204D01*
X78128552Y26662001D01*
X78128560Y26662001D01*
X78243886Y26673360D01*
X78391859Y26718247D01*
X78528232Y26791139D01*
X78647763Y26889237D01*
X78672346Y26919191D01*
X78963901Y27210745D01*
X78963901Y26347147D01*
%TA.AperFunction,Conductor*%
D36*
G36*
X78963901Y26347147D02*
G01*
X78855000Y26357872D01*
X78390750Y26354800D01*
X78232000Y26196050D01*
X78232000Y25196800D01*
X78252000Y25196800D01*
X78252000Y24942800D01*
X78232000Y24942800D01*
X78232000Y24922800D01*
X77978000Y24922800D01*
X77978000Y24942800D01*
X76878750Y24942800D01*
X76720000Y24784050D01*
X76716928Y24419800D01*
X76729188Y24295318D01*
X76765498Y24175620D01*
X76795335Y24119800D01*
X76765498Y24063980D01*
X76729188Y23944282D01*
X76716928Y23819800D01*
X76716928Y22711220D01*
X76047600Y22711220D01*
X76047600Y22750782D01*
X75910963Y22750782D01*
X75943137Y22789986D01*
X75960455Y22822385D01*
X76047600Y22909530D01*
X76038611Y23022016D01*
X76050672Y23144480D01*
X76050672Y23607073D01*
X76151492Y23729921D01*
X76233670Y23883667D01*
X76256202Y23957944D01*
X76346810Y24048552D01*
X76376764Y24073135D01*
X76474862Y24192666D01*
X76547754Y24329039D01*
X76586835Y24457872D01*
X76592641Y24477011D01*
X76599263Y24544246D01*
X76604000Y24592338D01*
X76604000Y24592345D01*
X76607797Y24630898D01*
X76604000Y24669451D01*
X76604000Y25653880D01*
X76647586Y25719111D01*
X76647871Y25719800D01*
X76716928Y25719800D01*
X76720000Y25355550D01*
X76878750Y25196800D01*
X77978000Y25196800D01*
X77978000Y26196050D01*
X77819250Y26354800D01*
X77355000Y26357872D01*
X77230518Y26345612D01*
X77110820Y26309302D01*
X77000506Y26250337D01*
X76903815Y26170985D01*
X76824463Y26074294D01*
X76765498Y25963980D01*
X76729188Y25844282D01*
X76716928Y25719800D01*
X76647871Y25719800D01*
X76718068Y25889271D01*
X76754000Y26069911D01*
X76754000Y26254089D01*
X76718068Y26434729D01*
X76647586Y26604889D01*
X76609425Y26662001D01*
X78051446Y26662001D01*
X78089999Y26658204D01*
X78128552Y26662001D01*
X78128560Y26662001D01*
X78243886Y26673360D01*
X78391859Y26718247D01*
X78528232Y26791139D01*
X78647763Y26889237D01*
X78672346Y26919191D01*
X78963901Y27210745D01*
X78963901Y26347147D01*
G37*
%TD.AperFunction*%
D35*
X55095000Y30281842D02*
X55095001Y27470563D01*
X55091203Y27432000D01*
X55106359Y27278114D01*
X55151246Y27130141D01*
X55177810Y27080444D01*
X55224139Y26993767D01*
X55255272Y26955832D01*
X55297655Y26904188D01*
X55297659Y26904184D01*
X55322237Y26874236D01*
X55352185Y26849658D01*
X56694658Y25507184D01*
X56719236Y25477236D01*
X56749184Y25452658D01*
X56749187Y25452655D01*
X56752710Y25449764D01*
X56838767Y25379138D01*
X56975140Y25306246D01*
X57064586Y25279113D01*
X57123112Y25261359D01*
X57137490Y25259943D01*
X57238439Y25250000D01*
X57238446Y25250000D01*
X57276999Y25246203D01*
X57315552Y25250000D01*
X57682379Y25250000D01*
X57715498Y25140820D01*
X57774463Y25030506D01*
X57853815Y24933815D01*
X57950506Y24854463D01*
X58060820Y24795498D01*
X58180518Y24759188D01*
X58305000Y24746928D01*
X59805000Y24746928D01*
X59929482Y24759188D01*
X60049180Y24795498D01*
X60159494Y24854463D01*
X60256185Y24933815D01*
X60257158Y24935000D01*
X60555482Y24935000D01*
X60580506Y24914463D01*
X60690820Y24855498D01*
X60810518Y24819188D01*
X60935000Y24806928D01*
X61935000Y24806928D01*
X62059482Y24819188D01*
X62179180Y24855498D01*
X62289494Y24914463D01*
X62386185Y24993815D01*
X62465537Y25090506D01*
X62524502Y25200820D01*
X62560812Y25320518D01*
X62573072Y25445000D01*
X62573072Y25470771D01*
X62851653Y25192190D01*
X62876236Y25162236D01*
X62995767Y25064138D01*
X63103486Y25006562D01*
X63096000Y24930561D01*
X63096000Y24930553D01*
X63093293Y24903069D01*
X63052414Y24841889D01*
X62981932Y24671729D01*
X62954536Y24534000D01*
X56934552Y24534000D01*
X56895999Y24537797D01*
X56857446Y24534000D01*
X56857439Y24534000D01*
X56756490Y24524057D01*
X56742112Y24522641D01*
X56707672Y24512194D01*
X56594140Y24477754D01*
X56457767Y24404862D01*
X56403638Y24360439D01*
X56368187Y24331345D01*
X56368184Y24331342D01*
X56338236Y24306764D01*
X56313658Y24276816D01*
X55046843Y23010000D01*
X54740072Y23010000D01*
X54740072Y23190200D01*
X54727812Y23314682D01*
X54691502Y23434380D01*
X54632537Y23544694D01*
X54553185Y23641385D01*
X54456494Y23720737D01*
X54346180Y23779702D01*
X54226482Y23816012D01*
X54102000Y23828272D01*
X49195430Y23828272D01*
X49220158Y23853000D01*
X50126447Y23853000D01*
X50165000Y23849203D01*
X50203553Y23853000D01*
X50203561Y23853000D01*
X50318887Y23864359D01*
X50466860Y23909246D01*
X50603233Y23982138D01*
X50722764Y24080236D01*
X50747347Y24110190D01*
X51147476Y24510319D01*
X51246111Y24444414D01*
X51416271Y24373932D01*
X51596911Y24338000D01*
X51781089Y24338000D01*
X51961729Y24373932D01*
X52131889Y24444414D01*
X52285028Y24546738D01*
X52415262Y24676972D01*
X52473043Y24763447D01*
X52590000Y24751928D01*
X53054250Y24755000D01*
X53213000Y24913750D01*
X53213000Y25913000D01*
X53467000Y25913000D01*
X53467000Y24913750D01*
X53625750Y24755000D01*
X54090000Y24751928D01*
X54214482Y24764188D01*
X54334180Y24800498D01*
X54444494Y24859463D01*
X54541185Y24938815D01*
X54620537Y25035506D01*
X54679502Y25145820D01*
X54715812Y25265518D01*
X54728072Y25390000D01*
X54725000Y25754250D01*
X54566250Y25913000D01*
X53467000Y25913000D01*
X53213000Y25913000D01*
X53193000Y25913000D01*
X53193000Y26167000D01*
X53213000Y26167000D01*
X53213000Y26187000D01*
X53467000Y26187000D01*
X53467000Y26167000D01*
X54566250Y26167000D01*
X54725000Y26325750D01*
X54728072Y26690000D01*
X54715812Y26814482D01*
X54679502Y26934180D01*
X54649665Y26990000D01*
X54679502Y27045820D01*
X54715812Y27165518D01*
X54728072Y27290000D01*
X54728072Y28590000D01*
X54715812Y28714482D01*
X54679502Y28834180D01*
X54648329Y28892500D01*
X54679502Y28950820D01*
X54715812Y29070518D01*
X54728072Y29195000D01*
X54728072Y30495000D01*
X54715812Y30619482D01*
X54697720Y30679122D01*
X55095000Y30281842D01*
%TA.AperFunction,Conductor*%
D36*
G36*
X55095000Y30281842D02*
G01*
X55095001Y27470563D01*
X55091203Y27432000D01*
X55106359Y27278114D01*
X55151246Y27130141D01*
X55177810Y27080444D01*
X55224139Y26993767D01*
X55255272Y26955832D01*
X55297655Y26904188D01*
X55297659Y26904184D01*
X55322237Y26874236D01*
X55352185Y26849658D01*
X56694658Y25507184D01*
X56719236Y25477236D01*
X56749184Y25452658D01*
X56749187Y25452655D01*
X56752710Y25449764D01*
X56838767Y25379138D01*
X56975140Y25306246D01*
X57064586Y25279113D01*
X57123112Y25261359D01*
X57137490Y25259943D01*
X57238439Y25250000D01*
X57238446Y25250000D01*
X57276999Y25246203D01*
X57315552Y25250000D01*
X57682379Y25250000D01*
X57715498Y25140820D01*
X57774463Y25030506D01*
X57853815Y24933815D01*
X57950506Y24854463D01*
X58060820Y24795498D01*
X58180518Y24759188D01*
X58305000Y24746928D01*
X59805000Y24746928D01*
X59929482Y24759188D01*
X60049180Y24795498D01*
X60159494Y24854463D01*
X60256185Y24933815D01*
X60257158Y24935000D01*
X60555482Y24935000D01*
X60580506Y24914463D01*
X60690820Y24855498D01*
X60810518Y24819188D01*
X60935000Y24806928D01*
X61935000Y24806928D01*
X62059482Y24819188D01*
X62179180Y24855498D01*
X62289494Y24914463D01*
X62386185Y24993815D01*
X62465537Y25090506D01*
X62524502Y25200820D01*
X62560812Y25320518D01*
X62573072Y25445000D01*
X62573072Y25470771D01*
X62851653Y25192190D01*
X62876236Y25162236D01*
X62995767Y25064138D01*
X63103486Y25006562D01*
X63096000Y24930561D01*
X63096000Y24930553D01*
X63093293Y24903069D01*
X63052414Y24841889D01*
X62981932Y24671729D01*
X62954536Y24534000D01*
X56934552Y24534000D01*
X56895999Y24537797D01*
X56857446Y24534000D01*
X56857439Y24534000D01*
X56756490Y24524057D01*
X56742112Y24522641D01*
X56707672Y24512194D01*
X56594140Y24477754D01*
X56457767Y24404862D01*
X56403638Y24360439D01*
X56368187Y24331345D01*
X56368184Y24331342D01*
X56338236Y24306764D01*
X56313658Y24276816D01*
X55046843Y23010000D01*
X54740072Y23010000D01*
X54740072Y23190200D01*
X54727812Y23314682D01*
X54691502Y23434380D01*
X54632537Y23544694D01*
X54553185Y23641385D01*
X54456494Y23720737D01*
X54346180Y23779702D01*
X54226482Y23816012D01*
X54102000Y23828272D01*
X49195430Y23828272D01*
X49220158Y23853000D01*
X50126447Y23853000D01*
X50165000Y23849203D01*
X50203553Y23853000D01*
X50203561Y23853000D01*
X50318887Y23864359D01*
X50466860Y23909246D01*
X50603233Y23982138D01*
X50722764Y24080236D01*
X50747347Y24110190D01*
X51147476Y24510319D01*
X51246111Y24444414D01*
X51416271Y24373932D01*
X51596911Y24338000D01*
X51781089Y24338000D01*
X51961729Y24373932D01*
X52131889Y24444414D01*
X52285028Y24546738D01*
X52415262Y24676972D01*
X52473043Y24763447D01*
X52590000Y24751928D01*
X53054250Y24755000D01*
X53213000Y24913750D01*
X53213000Y25913000D01*
X53467000Y25913000D01*
X53467000Y24913750D01*
X53625750Y24755000D01*
X54090000Y24751928D01*
X54214482Y24764188D01*
X54334180Y24800498D01*
X54444494Y24859463D01*
X54541185Y24938815D01*
X54620537Y25035506D01*
X54679502Y25145820D01*
X54715812Y25265518D01*
X54728072Y25390000D01*
X54725000Y25754250D01*
X54566250Y25913000D01*
X53467000Y25913000D01*
X53213000Y25913000D01*
X53193000Y25913000D01*
X53193000Y26167000D01*
X53213000Y26167000D01*
X53213000Y26187000D01*
X53467000Y26187000D01*
X53467000Y26167000D01*
X54566250Y26167000D01*
X54725000Y26325750D01*
X54728072Y26690000D01*
X54715812Y26814482D01*
X54679502Y26934180D01*
X54649665Y26990000D01*
X54679502Y27045820D01*
X54715812Y27165518D01*
X54728072Y27290000D01*
X54728072Y28590000D01*
X54715812Y28714482D01*
X54679502Y28834180D01*
X54648329Y28892500D01*
X54679502Y28950820D01*
X54715812Y29070518D01*
X54728072Y29195000D01*
X54728072Y30495000D01*
X54715812Y30619482D01*
X54697720Y30679122D01*
X55095000Y30281842D01*
G37*
%TD.AperFunction*%
D35*
X64919328Y24744680D02*
X64931211Y24624030D01*
X64919328Y24503380D01*
X64919328Y23944580D01*
X64931389Y23822116D01*
X64928526Y23786283D01*
X64917862Y23806233D01*
X64819764Y23925764D01*
X64789810Y23950347D01*
X64731395Y24008762D01*
X64780068Y24126271D01*
X64816000Y24306911D01*
X64816000Y24491089D01*
X64780068Y24671729D01*
X64773768Y24686938D01*
X64790862Y24707767D01*
X64863754Y24844140D01*
X64865985Y24851495D01*
X64879180Y24855498D01*
X64919328Y24876958D01*
X64919328Y24744680D01*
%TA.AperFunction,Conductor*%
D36*
G36*
X64919328Y24744680D02*
G01*
X64931211Y24624030D01*
X64919328Y24503380D01*
X64919328Y23944580D01*
X64931389Y23822116D01*
X64928526Y23786283D01*
X64917862Y23806233D01*
X64819764Y23925764D01*
X64789810Y23950347D01*
X64731395Y24008762D01*
X64780068Y24126271D01*
X64816000Y24306911D01*
X64816000Y24491089D01*
X64780068Y24671729D01*
X64773768Y24686938D01*
X64790862Y24707767D01*
X64863754Y24844140D01*
X64865985Y24851495D01*
X64879180Y24855498D01*
X64919328Y24876958D01*
X64919328Y24744680D01*
G37*
%TD.AperFunction*%
D35*
X57110448Y32629180D02*
X57074138Y32509482D01*
X57061878Y32385000D01*
X57061878Y31384240D01*
X57074138Y31259758D01*
X57110448Y31140060D01*
X57169413Y31029746D01*
X57248765Y30933055D01*
X57331383Y30865253D01*
X57277000Y30810870D01*
X57277000Y30011620D01*
X57297000Y30011620D01*
X57297000Y29757620D01*
X57277000Y29757620D01*
X57277000Y28958370D01*
X57435750Y28799620D01*
X57550050Y28796548D01*
X57674532Y28808808D01*
X57712844Y28820430D01*
X57679188Y28709482D01*
X57666928Y28585000D01*
X57670000Y28220750D01*
X57828750Y28062000D01*
X58928000Y28062000D01*
X58928000Y28082000D01*
X59182000Y28082000D01*
X59182000Y28062000D01*
X59202000Y28062000D01*
X59202000Y27808000D01*
X59182000Y27808000D01*
X59182000Y27788000D01*
X58928000Y27788000D01*
X58928000Y27808000D01*
X57828750Y27808000D01*
X57670000Y27649250D01*
X57666928Y27285000D01*
X57679188Y27160518D01*
X57715498Y27040820D01*
X57745335Y26985000D01*
X57715498Y26929180D01*
X57682379Y26820000D01*
X57602158Y26820000D01*
X56665000Y27757157D01*
X56665000Y28804915D01*
X56749950Y28796548D01*
X56864250Y28799620D01*
X57023000Y28958370D01*
X57023000Y29757620D01*
X57003000Y29757620D01*
X57003000Y30011620D01*
X57023000Y30011620D01*
X57023000Y30810870D01*
X56864250Y30969620D01*
X56749950Y30972692D01*
X56625468Y30960432D01*
X56587366Y30948874D01*
X56535862Y31045233D01*
X56469973Y31125518D01*
X56462345Y31134813D01*
X56462342Y31134816D01*
X56437764Y31164764D01*
X56407817Y31189341D01*
X56037657Y31559500D01*
X57114020Y32635863D01*
X57110448Y32629180D01*
%TA.AperFunction,Conductor*%
D36*
G36*
X57110448Y32629180D02*
G01*
X57074138Y32509482D01*
X57061878Y32385000D01*
X57061878Y31384240D01*
X57074138Y31259758D01*
X57110448Y31140060D01*
X57169413Y31029746D01*
X57248765Y30933055D01*
X57331383Y30865253D01*
X57277000Y30810870D01*
X57277000Y30011620D01*
X57297000Y30011620D01*
X57297000Y29757620D01*
X57277000Y29757620D01*
X57277000Y28958370D01*
X57435750Y28799620D01*
X57550050Y28796548D01*
X57674532Y28808808D01*
X57712844Y28820430D01*
X57679188Y28709482D01*
X57666928Y28585000D01*
X57670000Y28220750D01*
X57828750Y28062000D01*
X58928000Y28062000D01*
X58928000Y28082000D01*
X59182000Y28082000D01*
X59182000Y28062000D01*
X59202000Y28062000D01*
X59202000Y27808000D01*
X59182000Y27808000D01*
X59182000Y27788000D01*
X58928000Y27788000D01*
X58928000Y27808000D01*
X57828750Y27808000D01*
X57670000Y27649250D01*
X57666928Y27285000D01*
X57679188Y27160518D01*
X57715498Y27040820D01*
X57745335Y26985000D01*
X57715498Y26929180D01*
X57682379Y26820000D01*
X57602158Y26820000D01*
X56665000Y27757157D01*
X56665000Y28804915D01*
X56749950Y28796548D01*
X56864250Y28799620D01*
X57023000Y28958370D01*
X57023000Y29757620D01*
X57003000Y29757620D01*
X57003000Y30011620D01*
X57023000Y30011620D01*
X57023000Y30810870D01*
X56864250Y30969620D01*
X56749950Y30972692D01*
X56625468Y30960432D01*
X56587366Y30948874D01*
X56535862Y31045233D01*
X56469973Y31125518D01*
X56462345Y31134813D01*
X56462342Y31134816D01*
X56437764Y31164764D01*
X56407817Y31189341D01*
X56037657Y31559500D01*
X57114020Y32635863D01*
X57110448Y32629180D01*
G37*
%TD.AperFunction*%
D35*
X51951928Y27482322D02*
X51936252Y27497998D01*
X51951928Y27497998D01*
X51951928Y27482322D01*
%TA.AperFunction,Conductor*%
D36*
G36*
X51951928Y27482322D02*
G01*
X51936252Y27497998D01*
X51951928Y27497998D01*
X51951928Y27482322D01*
G37*
%TD.AperFunction*%
D35*
X51107000Y27588072D02*
X50813000Y27588072D01*
X50813000Y27661928D01*
X51107000Y27661928D01*
X51107000Y27588072D01*
%TA.AperFunction,Conductor*%
D36*
G36*
X51107000Y27588072D02*
G01*
X50813000Y27588072D01*
X50813000Y27661928D01*
X51107000Y27661928D01*
X51107000Y27588072D01*
G37*
%TD.AperFunction*%
D35*
X62249413Y31029746D02*
X62328765Y30933055D01*
X62411383Y30865253D01*
X62357000Y30810870D01*
X62357000Y30011620D01*
X62377000Y30011620D01*
X62377000Y29757620D01*
X62357000Y29757620D01*
X62357000Y29737620D01*
X62103000Y29737620D01*
X62103000Y29757620D01*
X62083000Y29757620D01*
X62083000Y30011620D01*
X62103000Y30011620D01*
X62103000Y30810870D01*
X61944250Y30969620D01*
X61935024Y30969868D01*
X62064776Y31099620D01*
X62212064Y31099620D01*
X62249413Y31029746D01*
%TA.AperFunction,Conductor*%
D36*
G36*
X62249413Y31029746D02*
G01*
X62328765Y30933055D01*
X62411383Y30865253D01*
X62357000Y30810870D01*
X62357000Y30011620D01*
X62377000Y30011620D01*
X62377000Y29757620D01*
X62357000Y29757620D01*
X62357000Y29737620D01*
X62103000Y29737620D01*
X62103000Y29757620D01*
X62083000Y29757620D01*
X62083000Y30011620D01*
X62103000Y30011620D01*
X62103000Y30810870D01*
X61944250Y30969620D01*
X61935024Y30969868D01*
X62064776Y31099620D01*
X62212064Y31099620D01*
X62249413Y31029746D01*
G37*
%TD.AperFunction*%
%TD*%
M02*
