%TF.GenerationSoftware,KiCad,Pcbnew,(5.1.10)-1*%
%TF.CreationDate,2021-08-07T17:36:12+01:00*%
%TF.ProjectId,WindSensorATMEGA328_PCB,57696e64-5365-46e7-936f-7241544d4547,rev?*%
%TF.SameCoordinates,PX5734380PY7df6180*%
%TF.FileFunction,Legend,Top*%
%TF.FilePolarity,Positive*%
%FSLAX46Y46*%
G04 Gerber Fmt 4.6, Leading zero omitted, Abs format (unit mm)*
G04 Created by KiCad (PCBNEW (5.1.10)-1) date 2021-08-07 17:36:12*
%MOMM*%
%LPD*%
G01*
G04 APERTURE LIST*
%ADD10C,0.150000*%
%ADD11C,0.200000*%
%ADD12C,0.010000*%
%ADD13C,0.300000*%
%ADD14C,0.050800*%
%ADD15C,0.152400*%
%ADD16C,0.127000*%
%ADD17C,0.066040*%
%ADD18C,0.381000*%
%ADD19C,0.100000*%
%ADD20C,0.250000*%
%ADD21C,0.304800*%
G04 APERTURE END LIST*
D10*
X78041571Y34377334D02*
X78422523Y34377334D01*
X77965380Y34091620D02*
X78232047Y35091620D01*
X78498714Y34091620D01*
X78727285Y34996381D02*
X78765380Y35044000D01*
X78841571Y35091620D01*
X79032047Y35091620D01*
X79108238Y35044000D01*
X79146333Y34996381D01*
X79184428Y34901143D01*
X79184428Y34805905D01*
X79146333Y34663048D01*
X78689190Y34091620D01*
X79184428Y34091620D01*
X78041571Y32853334D02*
X78422523Y32853334D01*
X77965380Y32567620D02*
X78232047Y33567620D01*
X78498714Y32567620D01*
X79184428Y32567620D02*
X78727285Y32567620D01*
X78955857Y32567620D02*
X78955857Y33567620D01*
X78879666Y33424762D01*
X78803476Y33329524D01*
X78727285Y33281905D01*
X78041571Y31456334D02*
X78422523Y31456334D01*
X77965380Y31170620D02*
X78232047Y32170620D01*
X78498714Y31170620D01*
X78917761Y32170620D02*
X78993952Y32170620D01*
X79070142Y32123000D01*
X79108238Y32075381D01*
X79146333Y31980143D01*
X79184428Y31789667D01*
X79184428Y31551572D01*
X79146333Y31361096D01*
X79108238Y31265858D01*
X79070142Y31218239D01*
X78993952Y31170620D01*
X78917761Y31170620D01*
X78841571Y31218239D01*
X78803476Y31265858D01*
X78765380Y31361096D01*
X78727285Y31551572D01*
X78727285Y31789667D01*
X78765380Y31980143D01*
X78803476Y32075381D01*
X78841571Y32123000D01*
X78917761Y32170620D01*
D11*
X76092142Y13566620D02*
X76092142Y14566620D01*
X76282619Y14566620D01*
X76396904Y14519000D01*
X76473095Y14423762D01*
X76511190Y14328524D01*
X76549285Y14138048D01*
X76549285Y13995191D01*
X76511190Y13804715D01*
X76473095Y13709477D01*
X76396904Y13614239D01*
X76282619Y13566620D01*
X76092142Y13566620D01*
X76892142Y13566620D02*
X76892142Y14566620D01*
X77425476Y14042810D02*
X77425476Y13566620D01*
X77158809Y14566620D02*
X77425476Y14042810D01*
X77692142Y14566620D01*
X75482619Y12866620D02*
X75673095Y11866620D01*
X75825476Y12580905D01*
X75977857Y11866620D01*
X76168333Y12866620D01*
X76473095Y11866620D02*
X76473095Y12866620D01*
X76854047Y11866620D02*
X76854047Y12866620D01*
X77311190Y11866620D01*
X77311190Y12866620D01*
X77692142Y11866620D02*
X77692142Y12866620D01*
X77882619Y12866620D01*
X77996904Y12819000D01*
X78073095Y12723762D01*
X78111190Y12628524D01*
X78149285Y12438048D01*
X78149285Y12295191D01*
X78111190Y12104715D01*
X78073095Y12009477D01*
X77996904Y11914239D01*
X77882619Y11866620D01*
X77692142Y11866620D01*
X74625476Y10214239D02*
X74739761Y10166620D01*
X74930238Y10166620D01*
X75006428Y10214239D01*
X75044523Y10261858D01*
X75082619Y10357096D01*
X75082619Y10452334D01*
X75044523Y10547572D01*
X75006428Y10595191D01*
X74930238Y10642810D01*
X74777857Y10690429D01*
X74701666Y10738048D01*
X74663571Y10785667D01*
X74625476Y10880905D01*
X74625476Y10976143D01*
X74663571Y11071381D01*
X74701666Y11119000D01*
X74777857Y11166620D01*
X74968333Y11166620D01*
X75082619Y11119000D01*
X75425476Y10690429D02*
X75692142Y10690429D01*
X75806428Y10166620D02*
X75425476Y10166620D01*
X75425476Y11166620D01*
X75806428Y11166620D01*
X76149285Y10166620D02*
X76149285Y11166620D01*
X76606428Y10166620D01*
X76606428Y11166620D01*
X76949285Y10214239D02*
X77063571Y10166620D01*
X77254047Y10166620D01*
X77330238Y10214239D01*
X77368333Y10261858D01*
X77406428Y10357096D01*
X77406428Y10452334D01*
X77368333Y10547572D01*
X77330238Y10595191D01*
X77254047Y10642810D01*
X77101666Y10690429D01*
X77025476Y10738048D01*
X76987380Y10785667D01*
X76949285Y10880905D01*
X76949285Y10976143D01*
X76987380Y11071381D01*
X77025476Y11119000D01*
X77101666Y11166620D01*
X77292142Y11166620D01*
X77406428Y11119000D01*
X77901666Y11166620D02*
X78054047Y11166620D01*
X78130238Y11119000D01*
X78206428Y11023762D01*
X78244523Y10833286D01*
X78244523Y10499953D01*
X78206428Y10309477D01*
X78130238Y10214239D01*
X78054047Y10166620D01*
X77901666Y10166620D01*
X77825476Y10214239D01*
X77749285Y10309477D01*
X77711190Y10499953D01*
X77711190Y10833286D01*
X77749285Y11023762D01*
X77825476Y11119000D01*
X77901666Y11166620D01*
X79044523Y10166620D02*
X78777857Y10642810D01*
X78587380Y10166620D02*
X78587380Y11166620D01*
X78892142Y11166620D01*
X78968333Y11119000D01*
X79006428Y11071381D01*
X79044523Y10976143D01*
X79044523Y10833286D01*
X79006428Y10738048D01*
X78968333Y10690429D01*
X78892142Y10642810D01*
X78587380Y10642810D01*
X65667000Y10312477D02*
X65619380Y10236286D01*
X65619380Y10122000D01*
X65667000Y10007715D01*
X65762238Y9931524D01*
X65857476Y9893429D01*
X66047952Y9855334D01*
X66190809Y9855334D01*
X66381285Y9893429D01*
X66476523Y9931524D01*
X66571761Y10007715D01*
X66619380Y10122000D01*
X66619380Y10198191D01*
X66571761Y10312477D01*
X66524142Y10350572D01*
X66190809Y10350572D01*
X66190809Y10198191D01*
X66619380Y10693429D02*
X65619380Y10693429D01*
X66619380Y11150572D01*
X65619380Y11150572D01*
X66619380Y11531524D02*
X65619380Y11531524D01*
X65619380Y11722000D01*
X65667000Y11836286D01*
X65762238Y11912477D01*
X65857476Y11950572D01*
X66047952Y11988667D01*
X66190809Y11988667D01*
X66381285Y11950572D01*
X66476523Y11912477D01*
X66571761Y11836286D01*
X66619380Y11722000D01*
X66619380Y11531524D01*
X57467571Y10433858D02*
X58610428Y10433858D01*
X58039000Y9862429D02*
X58039000Y11005286D01*
X54660809Y10088620D02*
X54394142Y10564810D01*
X54203666Y10088620D02*
X54203666Y11088620D01*
X54508428Y11088620D01*
X54584619Y11041000D01*
X54622714Y10993381D01*
X54660809Y10898143D01*
X54660809Y10755286D01*
X54622714Y10660048D01*
X54584619Y10612429D01*
X54508428Y10564810D01*
X54203666Y10564810D01*
X54927476Y10088620D02*
X55346523Y10755286D01*
X54927476Y10755286D02*
X55346523Y10088620D01*
X49104619Y10961620D02*
X49561761Y10961620D01*
X49333190Y9961620D02*
X49333190Y10961620D01*
X49752238Y9961620D02*
X50171285Y10628286D01*
X49752238Y10628286D02*
X50171285Y9961620D01*
%TO.C,P9*%
X38430200Y7620000D02*
X35509200Y7620000D01*
X38430200Y20320000D02*
X35560000Y20320000D01*
X38430200Y22860000D02*
X35509200Y22860000D01*
X37211000Y23622000D02*
G75*
G03*
X37211000Y23622000I-254000J0D01*
G01*
X38404800Y22860000D02*
X38404800Y7620000D01*
X35483800Y7620000D02*
X35483800Y22860000D01*
D12*
%TO.C,P6*%
G36*
X38547358Y4318942D02*
G01*
X38883664Y4261984D01*
X39212564Y4166815D01*
X39530521Y4033449D01*
X39833997Y3861896D01*
X39857490Y3846558D01*
X40144262Y3632566D01*
X40400748Y3389612D01*
X40625691Y3119546D01*
X40817833Y2824216D01*
X40975919Y2505472D01*
X41098692Y2165164D01*
X41159681Y1930036D01*
X41185412Y1773782D01*
X41201701Y1588580D01*
X41208571Y1386745D01*
X41206045Y1180589D01*
X41194147Y982426D01*
X41172899Y804571D01*
X41157391Y720584D01*
X41061617Y372470D01*
X40929487Y44323D01*
X40762972Y-261864D01*
X40564044Y-544097D01*
X40334675Y-800384D01*
X40076837Y-1028731D01*
X39792502Y-1227144D01*
X39483641Y-1393631D01*
X39152227Y-1526199D01*
X38850242Y-1611658D01*
X38738374Y-1631219D01*
X38595514Y-1646686D01*
X38432569Y-1657760D01*
X38260447Y-1664144D01*
X38090055Y-1665540D01*
X37932303Y-1661650D01*
X37798097Y-1652177D01*
X37725666Y-1642360D01*
X37371005Y-1558929D01*
X37035560Y-1438843D01*
X36721347Y-1284034D01*
X36430385Y-1096436D01*
X36164692Y-877980D01*
X35926283Y-630598D01*
X35717178Y-356224D01*
X35539392Y-56788D01*
X35394944Y265775D01*
X35285852Y609535D01*
X35259623Y719667D01*
X35238998Y844291D01*
X35223769Y999029D01*
X35214210Y1171974D01*
X35213642Y1200159D01*
X35379821Y1200159D01*
X35414727Y860193D01*
X35463478Y625827D01*
X35565770Y306469D01*
X35704820Y4679D01*
X35877821Y-277038D01*
X36081969Y-536179D01*
X36314457Y-770237D01*
X36572480Y-976708D01*
X36853232Y-1153087D01*
X37153908Y-1296870D01*
X37471703Y-1405552D01*
X37803810Y-1476629D01*
X37821362Y-1479241D01*
X37945888Y-1491772D01*
X38096862Y-1498424D01*
X38258802Y-1499157D01*
X38416228Y-1493928D01*
X38553656Y-1482698D01*
X38566015Y-1481205D01*
X38896487Y-1418956D01*
X39213787Y-1318186D01*
X39515081Y-1181429D01*
X39797533Y-1011217D01*
X40058307Y-810081D01*
X40294566Y-580554D01*
X40503474Y-325168D01*
X40682197Y-46456D01*
X40827897Y253050D01*
X40937739Y570818D01*
X40960198Y656622D01*
X40997726Y841562D01*
X41024996Y1041209D01*
X41040518Y1239806D01*
X41042797Y1421594D01*
X41039266Y1491588D01*
X40992885Y1847253D01*
X40908456Y2184700D01*
X40786210Y2503420D01*
X40626377Y2802904D01*
X40429190Y3082643D01*
X40205005Y3332100D01*
X39948756Y3560653D01*
X39676008Y3751851D01*
X39383403Y3907509D01*
X39067584Y4029440D01*
X38762833Y4111378D01*
X38596543Y4138358D01*
X38402948Y4154077D01*
X38195544Y4158557D01*
X37987828Y4151823D01*
X37793295Y4133895D01*
X37646637Y4109501D01*
X37312197Y4017466D01*
X36995794Y3888892D01*
X36699966Y3726042D01*
X36427254Y3531179D01*
X36180195Y3306565D01*
X35961330Y3054462D01*
X35773198Y2777134D01*
X35618338Y2476842D01*
X35516936Y2211917D01*
X35431108Y1881452D01*
X35385342Y1542389D01*
X35379821Y1200159D01*
X35213642Y1200159D01*
X35210592Y1351217D01*
X35213191Y1524851D01*
X35222278Y1680967D01*
X35235077Y1789547D01*
X35310474Y2134292D01*
X35424035Y2465497D01*
X35573614Y2779845D01*
X35757069Y3074019D01*
X35972254Y3344701D01*
X36217024Y3588576D01*
X36489236Y3802325D01*
X36572083Y3857612D01*
X36878542Y4030164D01*
X37198819Y4164435D01*
X37529377Y4260437D01*
X37866677Y4318180D01*
X38207184Y4337678D01*
X38547358Y4318942D01*
G37*
X38547358Y4318942D02*
X38883664Y4261984D01*
X39212564Y4166815D01*
X39530521Y4033449D01*
X39833997Y3861896D01*
X39857490Y3846558D01*
X40144262Y3632566D01*
X40400748Y3389612D01*
X40625691Y3119546D01*
X40817833Y2824216D01*
X40975919Y2505472D01*
X41098692Y2165164D01*
X41159681Y1930036D01*
X41185412Y1773782D01*
X41201701Y1588580D01*
X41208571Y1386745D01*
X41206045Y1180589D01*
X41194147Y982426D01*
X41172899Y804571D01*
X41157391Y720584D01*
X41061617Y372470D01*
X40929487Y44323D01*
X40762972Y-261864D01*
X40564044Y-544097D01*
X40334675Y-800384D01*
X40076837Y-1028731D01*
X39792502Y-1227144D01*
X39483641Y-1393631D01*
X39152227Y-1526199D01*
X38850242Y-1611658D01*
X38738374Y-1631219D01*
X38595514Y-1646686D01*
X38432569Y-1657760D01*
X38260447Y-1664144D01*
X38090055Y-1665540D01*
X37932303Y-1661650D01*
X37798097Y-1652177D01*
X37725666Y-1642360D01*
X37371005Y-1558929D01*
X37035560Y-1438843D01*
X36721347Y-1284034D01*
X36430385Y-1096436D01*
X36164692Y-877980D01*
X35926283Y-630598D01*
X35717178Y-356224D01*
X35539392Y-56788D01*
X35394944Y265775D01*
X35285852Y609535D01*
X35259623Y719667D01*
X35238998Y844291D01*
X35223769Y999029D01*
X35214210Y1171974D01*
X35213642Y1200159D01*
X35379821Y1200159D01*
X35414727Y860193D01*
X35463478Y625827D01*
X35565770Y306469D01*
X35704820Y4679D01*
X35877821Y-277038D01*
X36081969Y-536179D01*
X36314457Y-770237D01*
X36572480Y-976708D01*
X36853232Y-1153087D01*
X37153908Y-1296870D01*
X37471703Y-1405552D01*
X37803810Y-1476629D01*
X37821362Y-1479241D01*
X37945888Y-1491772D01*
X38096862Y-1498424D01*
X38258802Y-1499157D01*
X38416228Y-1493928D01*
X38553656Y-1482698D01*
X38566015Y-1481205D01*
X38896487Y-1418956D01*
X39213787Y-1318186D01*
X39515081Y-1181429D01*
X39797533Y-1011217D01*
X40058307Y-810081D01*
X40294566Y-580554D01*
X40503474Y-325168D01*
X40682197Y-46456D01*
X40827897Y253050D01*
X40937739Y570818D01*
X40960198Y656622D01*
X40997726Y841562D01*
X41024996Y1041209D01*
X41040518Y1239806D01*
X41042797Y1421594D01*
X41039266Y1491588D01*
X40992885Y1847253D01*
X40908456Y2184700D01*
X40786210Y2503420D01*
X40626377Y2802904D01*
X40429190Y3082643D01*
X40205005Y3332100D01*
X39948756Y3560653D01*
X39676008Y3751851D01*
X39383403Y3907509D01*
X39067584Y4029440D01*
X38762833Y4111378D01*
X38596543Y4138358D01*
X38402948Y4154077D01*
X38195544Y4158557D01*
X37987828Y4151823D01*
X37793295Y4133895D01*
X37646637Y4109501D01*
X37312197Y4017466D01*
X36995794Y3888892D01*
X36699966Y3726042D01*
X36427254Y3531179D01*
X36180195Y3306565D01*
X35961330Y3054462D01*
X35773198Y2777134D01*
X35618338Y2476842D01*
X35516936Y2211917D01*
X35431108Y1881452D01*
X35385342Y1542389D01*
X35379821Y1200159D01*
X35213642Y1200159D01*
X35210592Y1351217D01*
X35213191Y1524851D01*
X35222278Y1680967D01*
X35235077Y1789547D01*
X35310474Y2134292D01*
X35424035Y2465497D01*
X35573614Y2779845D01*
X35757069Y3074019D01*
X35972254Y3344701D01*
X36217024Y3588576D01*
X36489236Y3802325D01*
X36572083Y3857612D01*
X36878542Y4030164D01*
X37198819Y4164435D01*
X37529377Y4260437D01*
X37866677Y4318180D01*
X38207184Y4337678D01*
X38547358Y4318942D01*
G36*
X76639001Y4308802D02*
G01*
X76976331Y4240534D01*
X77307709Y4132639D01*
X77590512Y4005187D01*
X77892944Y3826646D01*
X78169664Y3615822D01*
X78418663Y3375511D01*
X78637930Y3108507D01*
X78825457Y2817605D01*
X78979232Y2505599D01*
X79097246Y2175285D01*
X79177489Y1829455D01*
X79184089Y1789547D01*
X79198819Y1657257D01*
X79206832Y1497479D01*
X79208401Y1322121D01*
X79203798Y1143092D01*
X79193298Y972298D01*
X79177172Y821649D01*
X79159543Y719667D01*
X79062775Y373818D01*
X78929870Y46695D01*
X78762994Y-259355D01*
X78564316Y-541987D01*
X78336004Y-798857D01*
X78080226Y-1027619D01*
X77799150Y-1225929D01*
X77494944Y-1391440D01*
X77169776Y-1521808D01*
X77053964Y-1557962D01*
X76813658Y-1617141D01*
X76574103Y-1653264D01*
X76319342Y-1668394D01*
X76196083Y-1668910D01*
X76082662Y-1667195D01*
X75979489Y-1664661D01*
X75896459Y-1661616D01*
X75843465Y-1658374D01*
X75836250Y-1657593D01*
X75492445Y-1592279D01*
X75160502Y-1488226D01*
X74843765Y-1347711D01*
X74545580Y-1173007D01*
X74269291Y-966390D01*
X74018243Y-730135D01*
X73795782Y-466519D01*
X73605252Y-177815D01*
X73571039Y-116835D01*
X73466205Y98956D01*
X73372191Y337713D01*
X73296092Y580236D01*
X73261961Y719673D01*
X73235517Y881867D01*
X73218452Y1070987D01*
X73210911Y1271523D01*
X73382837Y1271523D01*
X73391370Y1070299D01*
X73410554Y886666D01*
X73429698Y778644D01*
X73525070Y434312D01*
X73655813Y111636D01*
X73820319Y-187588D01*
X74016980Y-461563D01*
X74244189Y-708492D01*
X74500338Y-926577D01*
X74783819Y-1114021D01*
X75093023Y-1269028D01*
X75347973Y-1365261D01*
X75630051Y-1439881D01*
X75927444Y-1486011D01*
X76227007Y-1502425D01*
X76515592Y-1487901D01*
X76579895Y-1479936D01*
X76919329Y-1412149D01*
X77242084Y-1306861D01*
X77545867Y-1166380D01*
X77828388Y-993018D01*
X78087356Y-789085D01*
X78320479Y-556892D01*
X78525467Y-298748D01*
X78700028Y-16965D01*
X78841872Y286148D01*
X78948707Y608279D01*
X79018242Y947119D01*
X79023376Y984250D01*
X79035338Y1123932D01*
X79039261Y1288571D01*
X79035646Y1464008D01*
X79024995Y1636086D01*
X79007809Y1790649D01*
X78991522Y1883834D01*
X78898005Y2223857D01*
X78768371Y2544326D01*
X78604326Y2842985D01*
X78407578Y3117582D01*
X78179833Y3365861D01*
X77922800Y3585569D01*
X77638185Y3774451D01*
X77504243Y3847424D01*
X77261839Y3961115D01*
X77032140Y4045860D01*
X76803221Y4104491D01*
X76563156Y4139842D01*
X76300022Y4154744D01*
X76206666Y4155658D01*
X75996786Y4151333D01*
X75814296Y4136801D01*
X75644986Y4109710D01*
X75474650Y4067714D01*
X75289079Y4008463D01*
X75264750Y3999954D01*
X74953182Y3868151D01*
X74662357Y3701025D01*
X74394701Y3501415D01*
X74152639Y3272165D01*
X73938598Y3016115D01*
X73755001Y2736105D01*
X73604275Y2434979D01*
X73488846Y2115576D01*
X73422133Y1841500D01*
X73398119Y1671049D01*
X73385053Y1476415D01*
X73382837Y1271523D01*
X73210911Y1271523D01*
X73210790Y1274717D01*
X73212558Y1480744D01*
X73223779Y1676752D01*
X73244479Y1850426D01*
X73259485Y1930036D01*
X73356082Y2281245D01*
X73485285Y2606429D01*
X73648552Y2908226D01*
X73847337Y3189275D01*
X74083098Y3452217D01*
X74118286Y3486907D01*
X74385574Y3718095D01*
X74673055Y3913558D01*
X74977463Y4072809D01*
X75295528Y4195359D01*
X75623983Y4280722D01*
X75959559Y4328408D01*
X76298987Y4337931D01*
X76639001Y4308802D01*
G37*
X76639001Y4308802D02*
X76976331Y4240534D01*
X77307709Y4132639D01*
X77590512Y4005187D01*
X77892944Y3826646D01*
X78169664Y3615822D01*
X78418663Y3375511D01*
X78637930Y3108507D01*
X78825457Y2817605D01*
X78979232Y2505599D01*
X79097246Y2175285D01*
X79177489Y1829455D01*
X79184089Y1789547D01*
X79198819Y1657257D01*
X79206832Y1497479D01*
X79208401Y1322121D01*
X79203798Y1143092D01*
X79193298Y972298D01*
X79177172Y821649D01*
X79159543Y719667D01*
X79062775Y373818D01*
X78929870Y46695D01*
X78762994Y-259355D01*
X78564316Y-541987D01*
X78336004Y-798857D01*
X78080226Y-1027619D01*
X77799150Y-1225929D01*
X77494944Y-1391440D01*
X77169776Y-1521808D01*
X77053964Y-1557962D01*
X76813658Y-1617141D01*
X76574103Y-1653264D01*
X76319342Y-1668394D01*
X76196083Y-1668910D01*
X76082662Y-1667195D01*
X75979489Y-1664661D01*
X75896459Y-1661616D01*
X75843465Y-1658374D01*
X75836250Y-1657593D01*
X75492445Y-1592279D01*
X75160502Y-1488226D01*
X74843765Y-1347711D01*
X74545580Y-1173007D01*
X74269291Y-966390D01*
X74018243Y-730135D01*
X73795782Y-466519D01*
X73605252Y-177815D01*
X73571039Y-116835D01*
X73466205Y98956D01*
X73372191Y337713D01*
X73296092Y580236D01*
X73261961Y719673D01*
X73235517Y881867D01*
X73218452Y1070987D01*
X73210911Y1271523D01*
X73382837Y1271523D01*
X73391370Y1070299D01*
X73410554Y886666D01*
X73429698Y778644D01*
X73525070Y434312D01*
X73655813Y111636D01*
X73820319Y-187588D01*
X74016980Y-461563D01*
X74244189Y-708492D01*
X74500338Y-926577D01*
X74783819Y-1114021D01*
X75093023Y-1269028D01*
X75347973Y-1365261D01*
X75630051Y-1439881D01*
X75927444Y-1486011D01*
X76227007Y-1502425D01*
X76515592Y-1487901D01*
X76579895Y-1479936D01*
X76919329Y-1412149D01*
X77242084Y-1306861D01*
X77545867Y-1166380D01*
X77828388Y-993018D01*
X78087356Y-789085D01*
X78320479Y-556892D01*
X78525467Y-298748D01*
X78700028Y-16965D01*
X78841872Y286148D01*
X78948707Y608279D01*
X79018242Y947119D01*
X79023376Y984250D01*
X79035338Y1123932D01*
X79039261Y1288571D01*
X79035646Y1464008D01*
X79024995Y1636086D01*
X79007809Y1790649D01*
X78991522Y1883834D01*
X78898005Y2223857D01*
X78768371Y2544326D01*
X78604326Y2842985D01*
X78407578Y3117582D01*
X78179833Y3365861D01*
X77922800Y3585569D01*
X77638185Y3774451D01*
X77504243Y3847424D01*
X77261839Y3961115D01*
X77032140Y4045860D01*
X76803221Y4104491D01*
X76563156Y4139842D01*
X76300022Y4154744D01*
X76206666Y4155658D01*
X75996786Y4151333D01*
X75814296Y4136801D01*
X75644986Y4109710D01*
X75474650Y4067714D01*
X75289079Y4008463D01*
X75264750Y3999954D01*
X74953182Y3868151D01*
X74662357Y3701025D01*
X74394701Y3501415D01*
X74152639Y3272165D01*
X73938598Y3016115D01*
X73755001Y2736105D01*
X73604275Y2434979D01*
X73488846Y2115576D01*
X73422133Y1841500D01*
X73398119Y1671049D01*
X73385053Y1476415D01*
X73382837Y1271523D01*
X73210911Y1271523D01*
X73210790Y1274717D01*
X73212558Y1480744D01*
X73223779Y1676752D01*
X73244479Y1850426D01*
X73259485Y1930036D01*
X73356082Y2281245D01*
X73485285Y2606429D01*
X73648552Y2908226D01*
X73847337Y3189275D01*
X74083098Y3452217D01*
X74118286Y3486907D01*
X74385574Y3718095D01*
X74673055Y3913558D01*
X74977463Y4072809D01*
X75295528Y4195359D01*
X75623983Y4280722D01*
X75959559Y4328408D01*
X76298987Y4337931D01*
X76639001Y4308802D01*
G36*
X38518959Y42320036D02*
G01*
X38813715Y42279136D01*
X39094561Y42208366D01*
X39371435Y42105546D01*
X39496040Y42048882D01*
X39815178Y41873533D01*
X40105259Y41667821D01*
X40365114Y41433232D01*
X40593574Y41171255D01*
X40789470Y40883375D01*
X40951631Y40571080D01*
X41078890Y40235856D01*
X41158548Y39934905D01*
X41184200Y39776962D01*
X41200773Y39591435D01*
X41208254Y39390627D01*
X41206632Y39186842D01*
X41195895Y38992382D01*
X41176033Y38819551D01*
X41159681Y38731132D01*
X41060254Y38374435D01*
X40924509Y38037572D01*
X40753411Y37722804D01*
X40684380Y37616846D01*
X40607865Y37515871D01*
X40506333Y37398045D01*
X40388298Y37271893D01*
X40262275Y37145943D01*
X40136778Y37028722D01*
X40020321Y36928757D01*
X39927000Y36858345D01*
X39651346Y36692756D01*
X39350471Y36552432D01*
X39036289Y36442317D01*
X38762833Y36375219D01*
X38641483Y36357259D01*
X38491219Y36343596D01*
X38325285Y36334666D01*
X38156924Y36330909D01*
X37999379Y36332762D01*
X37865894Y36340663D01*
X37831530Y36344402D01*
X37489567Y36407844D01*
X37161678Y36509524D01*
X36850377Y36646955D01*
X36558178Y36817650D01*
X36287596Y37019121D01*
X36041145Y37248884D01*
X35821338Y37504449D01*
X35630692Y37783331D01*
X35471719Y38083042D01*
X35346933Y38401097D01*
X35258851Y38735007D01*
X35227578Y38919962D01*
X35214267Y39066965D01*
X35209352Y39243410D01*
X35382506Y39243410D01*
X35382520Y39243000D01*
X35402871Y38960211D01*
X35445644Y38701979D01*
X35514149Y38455089D01*
X35611697Y38206325D01*
X35676735Y38068333D01*
X35845519Y37774757D01*
X36047599Y37505144D01*
X36279750Y37262048D01*
X36538747Y37048027D01*
X36821364Y36865635D01*
X37124374Y36717429D01*
X37444554Y36605964D01*
X37560010Y36576120D01*
X37884751Y36519378D01*
X38214016Y36499900D01*
X38538724Y36517925D01*
X38721213Y36545624D01*
X39047180Y36625584D01*
X39350113Y36738431D01*
X39634050Y36886322D01*
X39903027Y37071414D01*
X40161081Y37295863D01*
X40203598Y37337534D01*
X40430903Y37587848D01*
X40619635Y37849147D01*
X40772493Y38126499D01*
X40892170Y38424976D01*
X40981364Y38749646D01*
X40998708Y38832918D01*
X41019576Y38978720D01*
X41032108Y39151989D01*
X41036301Y39338895D01*
X41032147Y39525606D01*
X41019641Y39698290D01*
X40999121Y39841380D01*
X40911562Y40181148D01*
X40787286Y40501909D01*
X40628423Y40801489D01*
X40437099Y41077711D01*
X40215444Y41328400D01*
X39965585Y41551380D01*
X39689649Y41744476D01*
X39389766Y41905511D01*
X39068063Y42032310D01*
X38778671Y42111630D01*
X38649661Y42133073D01*
X38491678Y42148299D01*
X38317670Y42157000D01*
X38140584Y42158872D01*
X37973364Y42153605D01*
X37828959Y42140895D01*
X37788914Y42135080D01*
X37470971Y42064750D01*
X37161840Y41960901D01*
X36869668Y41826932D01*
X36602605Y41666238D01*
X36517589Y41605076D01*
X36251435Y41378943D01*
X36018263Y41127824D01*
X35819335Y40854343D01*
X35655912Y40561127D01*
X35529256Y40250800D01*
X35440629Y39925988D01*
X35391291Y39589316D01*
X35382506Y39243410D01*
X35209352Y39243410D01*
X35209186Y39249346D01*
X35212467Y39459712D01*
X35232210Y39739632D01*
X35273517Y39996351D01*
X35339426Y40244731D01*
X35417033Y40460323D01*
X35564187Y40772750D01*
X35746883Y41064890D01*
X35962125Y41333977D01*
X36206917Y41577242D01*
X36478264Y41791921D01*
X36773169Y41975245D01*
X37088638Y42124448D01*
X37302333Y42201514D01*
X37544364Y42267516D01*
X37786285Y42309723D01*
X38043044Y42330328D01*
X38200354Y42333249D01*
X38518959Y42320036D01*
G37*
X38518959Y42320036D02*
X38813715Y42279136D01*
X39094561Y42208366D01*
X39371435Y42105546D01*
X39496040Y42048882D01*
X39815178Y41873533D01*
X40105259Y41667821D01*
X40365114Y41433232D01*
X40593574Y41171255D01*
X40789470Y40883375D01*
X40951631Y40571080D01*
X41078890Y40235856D01*
X41158548Y39934905D01*
X41184200Y39776962D01*
X41200773Y39591435D01*
X41208254Y39390627D01*
X41206632Y39186842D01*
X41195895Y38992382D01*
X41176033Y38819551D01*
X41159681Y38731132D01*
X41060254Y38374435D01*
X40924509Y38037572D01*
X40753411Y37722804D01*
X40684380Y37616846D01*
X40607865Y37515871D01*
X40506333Y37398045D01*
X40388298Y37271893D01*
X40262275Y37145943D01*
X40136778Y37028722D01*
X40020321Y36928757D01*
X39927000Y36858345D01*
X39651346Y36692756D01*
X39350471Y36552432D01*
X39036289Y36442317D01*
X38762833Y36375219D01*
X38641483Y36357259D01*
X38491219Y36343596D01*
X38325285Y36334666D01*
X38156924Y36330909D01*
X37999379Y36332762D01*
X37865894Y36340663D01*
X37831530Y36344402D01*
X37489567Y36407844D01*
X37161678Y36509524D01*
X36850377Y36646955D01*
X36558178Y36817650D01*
X36287596Y37019121D01*
X36041145Y37248884D01*
X35821338Y37504449D01*
X35630692Y37783331D01*
X35471719Y38083042D01*
X35346933Y38401097D01*
X35258851Y38735007D01*
X35227578Y38919962D01*
X35214267Y39066965D01*
X35209352Y39243410D01*
X35382506Y39243410D01*
X35382520Y39243000D01*
X35402871Y38960211D01*
X35445644Y38701979D01*
X35514149Y38455089D01*
X35611697Y38206325D01*
X35676735Y38068333D01*
X35845519Y37774757D01*
X36047599Y37505144D01*
X36279750Y37262048D01*
X36538747Y37048027D01*
X36821364Y36865635D01*
X37124374Y36717429D01*
X37444554Y36605964D01*
X37560010Y36576120D01*
X37884751Y36519378D01*
X38214016Y36499900D01*
X38538724Y36517925D01*
X38721213Y36545624D01*
X39047180Y36625584D01*
X39350113Y36738431D01*
X39634050Y36886322D01*
X39903027Y37071414D01*
X40161081Y37295863D01*
X40203598Y37337534D01*
X40430903Y37587848D01*
X40619635Y37849147D01*
X40772493Y38126499D01*
X40892170Y38424976D01*
X40981364Y38749646D01*
X40998708Y38832918D01*
X41019576Y38978720D01*
X41032108Y39151989D01*
X41036301Y39338895D01*
X41032147Y39525606D01*
X41019641Y39698290D01*
X40999121Y39841380D01*
X40911562Y40181148D01*
X40787286Y40501909D01*
X40628423Y40801489D01*
X40437099Y41077711D01*
X40215444Y41328400D01*
X39965585Y41551380D01*
X39689649Y41744476D01*
X39389766Y41905511D01*
X39068063Y42032310D01*
X38778671Y42111630D01*
X38649661Y42133073D01*
X38491678Y42148299D01*
X38317670Y42157000D01*
X38140584Y42158872D01*
X37973364Y42153605D01*
X37828959Y42140895D01*
X37788914Y42135080D01*
X37470971Y42064750D01*
X37161840Y41960901D01*
X36869668Y41826932D01*
X36602605Y41666238D01*
X36517589Y41605076D01*
X36251435Y41378943D01*
X36018263Y41127824D01*
X35819335Y40854343D01*
X35655912Y40561127D01*
X35529256Y40250800D01*
X35440629Y39925988D01*
X35391291Y39589316D01*
X35382506Y39243410D01*
X35209352Y39243410D01*
X35209186Y39249346D01*
X35212467Y39459712D01*
X35232210Y39739632D01*
X35273517Y39996351D01*
X35339426Y40244731D01*
X35417033Y40460323D01*
X35564187Y40772750D01*
X35746883Y41064890D01*
X35962125Y41333977D01*
X36206917Y41577242D01*
X36478264Y41791921D01*
X36773169Y41975245D01*
X37088638Y42124448D01*
X37302333Y42201514D01*
X37544364Y42267516D01*
X37786285Y42309723D01*
X38043044Y42330328D01*
X38200354Y42333249D01*
X38518959Y42320036D01*
G36*
X76413473Y42326838D02*
G01*
X76574123Y42317170D01*
X76697073Y42302216D01*
X77047451Y42223211D01*
X77379976Y42105938D01*
X77693607Y41950931D01*
X77987304Y41758724D01*
X78260026Y41529850D01*
X78324925Y41466848D01*
X78548120Y41223573D01*
X78734318Y40974412D01*
X78887860Y40711736D01*
X79013084Y40427916D01*
X79114333Y40115324D01*
X79132373Y40047573D01*
X79158413Y39939928D01*
X79177147Y39843302D01*
X79190177Y39745007D01*
X79199109Y39632350D01*
X79205548Y39492640D01*
X79206698Y39459712D01*
X79206093Y39148183D01*
X79180951Y38863010D01*
X79129374Y38594778D01*
X79049461Y38334070D01*
X78939314Y38071470D01*
X78917423Y38025917D01*
X78741189Y37711769D01*
X78533827Y37424727D01*
X78297576Y37166610D01*
X78034678Y36939236D01*
X77747373Y36744426D01*
X77437901Y36583998D01*
X77108504Y36459773D01*
X76926333Y36409166D01*
X76662655Y36358751D01*
X76383288Y36330660D01*
X76104847Y36325881D01*
X75846833Y36345028D01*
X75498857Y36410548D01*
X75158561Y36515726D01*
X74832327Y36658145D01*
X74526537Y36835385D01*
X74492166Y36858438D01*
X74391984Y36934397D01*
X74274777Y37035606D01*
X74149054Y37153546D01*
X74023321Y37279699D01*
X73906084Y37405546D01*
X73805852Y37522570D01*
X73734785Y37616846D01*
X73551373Y37923231D01*
X73402973Y38252513D01*
X73290549Y38602430D01*
X73259485Y38731132D01*
X73234126Y38885023D01*
X73217900Y39067944D01*
X73210796Y39267593D01*
X73211445Y39333700D01*
X73382843Y39333700D01*
X73387360Y39146126D01*
X73400318Y38972450D01*
X73420813Y38831018D01*
X73507011Y38489475D01*
X73627257Y38172245D01*
X73782818Y37876856D01*
X73974964Y37600830D01*
X74161325Y37386562D01*
X74419025Y37145961D01*
X74697958Y36941540D01*
X74996439Y36774152D01*
X75312788Y36644649D01*
X75645321Y36553880D01*
X75885890Y36513961D01*
X76038674Y36502647D01*
X76217195Y36501648D01*
X76406309Y36510288D01*
X76590870Y36527890D01*
X76749394Y36552531D01*
X77081985Y36638187D01*
X77396678Y36760939D01*
X77691211Y36918542D01*
X77963322Y37108755D01*
X78210752Y37329334D01*
X78431237Y37578034D01*
X78622518Y37852614D01*
X78782333Y38150828D01*
X78908421Y38470435D01*
X78991805Y38777334D01*
X79014020Y38914231D01*
X79029287Y39079286D01*
X79037293Y39258846D01*
X79037725Y39439258D01*
X79030272Y39606870D01*
X79014620Y39748029D01*
X79014096Y39751252D01*
X78937087Y40099227D01*
X78823772Y40425504D01*
X78673961Y40730471D01*
X78487465Y41014514D01*
X78267354Y41274601D01*
X78023501Y41506001D01*
X77766075Y41700344D01*
X77489833Y41860702D01*
X77189531Y41990152D01*
X76884152Y42085470D01*
X76795160Y42108231D01*
X76720220Y42124924D01*
X76649776Y42136527D01*
X76574270Y42144018D01*
X76484146Y42148373D01*
X76369847Y42150570D01*
X76238416Y42151510D01*
X76073442Y42151170D01*
X75942263Y42148051D01*
X75836402Y42141632D01*
X75747380Y42131390D01*
X75666721Y42116802D01*
X75663544Y42116120D01*
X75322387Y42021775D01*
X75001576Y41891575D01*
X74703163Y41727601D01*
X74429201Y41531936D01*
X74181743Y41306659D01*
X73962842Y41053854D01*
X73774549Y40775600D01*
X73618919Y40473979D01*
X73498003Y40151073D01*
X73420044Y39841380D01*
X73399175Y39695171D01*
X73386778Y39521329D01*
X73382843Y39333700D01*
X73211445Y39333700D01*
X73212802Y39471667D01*
X73223906Y39667862D01*
X73244097Y39843875D01*
X73260618Y39934905D01*
X73356626Y40283607D01*
X73488986Y40612585D01*
X73655623Y40919752D01*
X73854460Y41203020D01*
X74083422Y41460299D01*
X74340430Y41689503D01*
X74623411Y41888543D01*
X74930287Y42055331D01*
X75258982Y42187778D01*
X75592833Y42280616D01*
X75720062Y42301701D01*
X75877506Y42317095D01*
X76053400Y42326570D01*
X76235977Y42329894D01*
X76413473Y42326838D01*
G37*
X76413473Y42326838D02*
X76574123Y42317170D01*
X76697073Y42302216D01*
X77047451Y42223211D01*
X77379976Y42105938D01*
X77693607Y41950931D01*
X77987304Y41758724D01*
X78260026Y41529850D01*
X78324925Y41466848D01*
X78548120Y41223573D01*
X78734318Y40974412D01*
X78887860Y40711736D01*
X79013084Y40427916D01*
X79114333Y40115324D01*
X79132373Y40047573D01*
X79158413Y39939928D01*
X79177147Y39843302D01*
X79190177Y39745007D01*
X79199109Y39632350D01*
X79205548Y39492640D01*
X79206698Y39459712D01*
X79206093Y39148183D01*
X79180951Y38863010D01*
X79129374Y38594778D01*
X79049461Y38334070D01*
X78939314Y38071470D01*
X78917423Y38025917D01*
X78741189Y37711769D01*
X78533827Y37424727D01*
X78297576Y37166610D01*
X78034678Y36939236D01*
X77747373Y36744426D01*
X77437901Y36583998D01*
X77108504Y36459773D01*
X76926333Y36409166D01*
X76662655Y36358751D01*
X76383288Y36330660D01*
X76104847Y36325881D01*
X75846833Y36345028D01*
X75498857Y36410548D01*
X75158561Y36515726D01*
X74832327Y36658145D01*
X74526537Y36835385D01*
X74492166Y36858438D01*
X74391984Y36934397D01*
X74274777Y37035606D01*
X74149054Y37153546D01*
X74023321Y37279699D01*
X73906084Y37405546D01*
X73805852Y37522570D01*
X73734785Y37616846D01*
X73551373Y37923231D01*
X73402973Y38252513D01*
X73290549Y38602430D01*
X73259485Y38731132D01*
X73234126Y38885023D01*
X73217900Y39067944D01*
X73210796Y39267593D01*
X73211445Y39333700D01*
X73382843Y39333700D01*
X73387360Y39146126D01*
X73400318Y38972450D01*
X73420813Y38831018D01*
X73507011Y38489475D01*
X73627257Y38172245D01*
X73782818Y37876856D01*
X73974964Y37600830D01*
X74161325Y37386562D01*
X74419025Y37145961D01*
X74697958Y36941540D01*
X74996439Y36774152D01*
X75312788Y36644649D01*
X75645321Y36553880D01*
X75885890Y36513961D01*
X76038674Y36502647D01*
X76217195Y36501648D01*
X76406309Y36510288D01*
X76590870Y36527890D01*
X76749394Y36552531D01*
X77081985Y36638187D01*
X77396678Y36760939D01*
X77691211Y36918542D01*
X77963322Y37108755D01*
X78210752Y37329334D01*
X78431237Y37578034D01*
X78622518Y37852614D01*
X78782333Y38150828D01*
X78908421Y38470435D01*
X78991805Y38777334D01*
X79014020Y38914231D01*
X79029287Y39079286D01*
X79037293Y39258846D01*
X79037725Y39439258D01*
X79030272Y39606870D01*
X79014620Y39748029D01*
X79014096Y39751252D01*
X78937087Y40099227D01*
X78823772Y40425504D01*
X78673961Y40730471D01*
X78487465Y41014514D01*
X78267354Y41274601D01*
X78023501Y41506001D01*
X77766075Y41700344D01*
X77489833Y41860702D01*
X77189531Y41990152D01*
X76884152Y42085470D01*
X76795160Y42108231D01*
X76720220Y42124924D01*
X76649776Y42136527D01*
X76574270Y42144018D01*
X76484146Y42148373D01*
X76369847Y42150570D01*
X76238416Y42151510D01*
X76073442Y42151170D01*
X75942263Y42148051D01*
X75836402Y42141632D01*
X75747380Y42131390D01*
X75666721Y42116802D01*
X75663544Y42116120D01*
X75322387Y42021775D01*
X75001576Y41891575D01*
X74703163Y41727601D01*
X74429201Y41531936D01*
X74181743Y41306659D01*
X73962842Y41053854D01*
X73774549Y40775600D01*
X73618919Y40473979D01*
X73498003Y40151073D01*
X73420044Y39841380D01*
X73399175Y39695171D01*
X73386778Y39521329D01*
X73382843Y39333700D01*
X73211445Y39333700D01*
X73212802Y39471667D01*
X73223906Y39667862D01*
X73244097Y39843875D01*
X73260618Y39934905D01*
X73356626Y40283607D01*
X73488986Y40612585D01*
X73655623Y40919752D01*
X73854460Y41203020D01*
X74083422Y41460299D01*
X74340430Y41689503D01*
X74623411Y41888543D01*
X74930287Y42055331D01*
X75258982Y42187778D01*
X75592833Y42280616D01*
X75720062Y42301701D01*
X75877506Y42317095D01*
X76053400Y42326570D01*
X76235977Y42329894D01*
X76413473Y42326838D01*
D13*
%TO.C,P10*%
X35560000Y33274000D02*
X36195000Y33274000D01*
X36195000Y33274000D02*
X36195000Y26924000D01*
X36195000Y26924000D02*
X35560000Y26924000D01*
X40005000Y35179000D02*
G75*
G03*
X40005000Y35179000I-635000J0D01*
G01*
X39370000Y25019000D02*
X35560000Y25019000D01*
X39370000Y35179000D02*
X35560000Y35179000D01*
X39370000Y35179000D02*
X39370000Y25019000D01*
X35560000Y25019000D02*
X35560000Y35179000D01*
D11*
%TO.C,U4*%
X68323447Y24714200D02*
G75*
G03*
X68323447Y24714200I-251447J0D01*
G01*
X66869355Y26353600D02*
G75*
G03*
X66869355Y26353600I-360555J0D01*
G01*
X67310000Y19050000D02*
X73660000Y19050000D01*
X67310000Y24638000D02*
X67310000Y19050000D01*
X67818000Y25273000D02*
X67310000Y24638000D01*
X73660000Y25273000D02*
X67818000Y25273000D01*
X73660000Y19050000D02*
X73660000Y25273000D01*
D10*
%TO.C,C7*%
X79132800Y23630000D02*
X79132800Y24630000D01*
X77077200Y24630000D02*
X77077200Y23630000D01*
%TO.C,C8*%
X44207800Y2349800D02*
X44207800Y3349800D01*
X42152200Y3349800D02*
X42152200Y2349800D01*
%TO.C,C9*%
X51570000Y17387200D02*
X52570000Y17387200D01*
X52570000Y19442800D02*
X51570000Y19442800D01*
%TO.C,C10*%
X56319800Y17387200D02*
X57319800Y17387200D01*
X57319800Y19442800D02*
X56319800Y19442800D01*
D13*
%TO.C,P2*%
X46990000Y3175000D02*
X46990000Y9525000D01*
X67310000Y3175000D02*
X46990000Y3175000D01*
X67310000Y9525000D02*
X67310000Y3175000D01*
X46990000Y9525000D02*
X67310000Y9525000D01*
X52070000Y9525000D02*
X52070000Y3175000D01*
X57150000Y5715000D02*
X57150000Y3175000D01*
X62230000Y9525000D02*
X62230000Y3175000D01*
X48260000Y9525000D02*
G75*
G03*
X48260000Y9525000I-1270000J0D01*
G01*
X60325000Y3810000D02*
X60325000Y3175000D01*
X53975000Y3810000D02*
X60325000Y3810000D01*
X53975000Y3175000D02*
X53975000Y3810000D01*
D11*
%TO.C,R7*%
X69418200Y31242000D02*
X69418200Y30353000D01*
X71551800Y31191200D02*
X71551800Y30302200D01*
%TO.C,SW2*%
X44424600Y5842000D02*
X43789600Y5842000D01*
X44424600Y12954000D02*
X44424600Y5842000D01*
X43789600Y12954000D02*
X44424600Y12954000D01*
X40614600Y5842000D02*
X41249600Y5842000D01*
X40614600Y12954000D02*
X40614600Y5842000D01*
X41249600Y12954000D02*
X40614600Y12954000D01*
D14*
%TO.C,Y1*%
X56896000Y22225000D02*
X57277000Y22225000D01*
D15*
X56896000Y22225000D02*
X56896000Y21590000D01*
X56896000Y22860000D02*
X56896000Y22225000D01*
D14*
X55626000Y22225000D02*
X55245000Y22225000D01*
D15*
X55626000Y22225000D02*
X55626000Y21590000D01*
X55626000Y22860000D02*
X55626000Y22225000D01*
X56515000Y22860000D02*
X56007000Y22860000D01*
X56515000Y21590000D02*
X56515000Y22860000D01*
X56007000Y21590000D02*
X56515000Y21590000D01*
X56007000Y22860000D02*
X56007000Y21590000D01*
X61722000Y24638000D02*
X50800000Y24638000D01*
D14*
X52832000Y24257000D02*
X59690000Y24257000D01*
D15*
X50546000Y20066000D02*
X50546000Y21082000D01*
X61976000Y20066000D02*
X61976000Y21082000D01*
X61722000Y19812000D02*
X50800000Y19812000D01*
D14*
X52832000Y23495000D02*
X59690000Y23495000D01*
X59690000Y20193000D02*
X52832000Y20193000D01*
X59690000Y20955000D02*
X52832000Y20955000D01*
D15*
X61976000Y23368000D02*
X61976000Y24384000D01*
X50546000Y23368000D02*
X50546000Y24384000D01*
D14*
X52831213Y24258178D02*
G75*
G03*
X51153060Y23368000I3327J-2033178D01*
G01*
X61368632Y23370085D02*
G75*
G03*
X59690000Y24257000I-1678632J-1145085D01*
G01*
D15*
X61722000Y19812000D02*
G75*
G03*
X61976000Y20066000I0J254000D01*
G01*
D14*
X59688769Y20956045D02*
G75*
G03*
X60241180Y21082000I1231J1268955D01*
G01*
X60242743Y23368405D02*
G75*
G03*
X59690000Y23495000I-552743J-1143405D01*
G01*
X59692886Y20193253D02*
G75*
G03*
X61368940Y21084540I-5426J2031747D01*
G01*
X51153368Y21079915D02*
G75*
G03*
X52832000Y20193000I1678632J1145085D01*
G01*
X52279257Y21081595D02*
G75*
G03*
X52832000Y20955000I552743J1143405D01*
G01*
X52833231Y23493955D02*
G75*
G03*
X52280820Y23368000I-1231J-1268955D01*
G01*
D15*
X50546000Y20066000D02*
G75*
G03*
X50800000Y19812000I254000J0D01*
G01*
X61976000Y24384000D02*
G75*
G03*
X61722000Y24638000I-254000J0D01*
G01*
X50800000Y24638000D02*
G75*
G03*
X50546000Y24384000I0J-254000D01*
G01*
D10*
%TO.C,C4*%
X60082800Y26495200D02*
X60082800Y27495200D01*
X58027200Y27495200D02*
X58027200Y26495200D01*
%TO.C,C5*%
X76335000Y14847200D02*
X77335000Y14847200D01*
X77335000Y16902800D02*
X76335000Y16902800D01*
D16*
%TO.C,C6*%
X59095000Y10515600D02*
X64937000Y10515600D01*
X58333000Y11277600D02*
X59095000Y10515600D01*
X59095000Y17449800D02*
X58333000Y16687800D01*
X64937000Y17449800D02*
X59095000Y17449800D01*
D10*
X58335000Y11317600D02*
X58335000Y12917600D01*
X59135000Y10517600D02*
X58335000Y11317600D01*
X64935000Y10517600D02*
X59135000Y10517600D01*
X64935000Y12917600D02*
X64935000Y10517600D01*
X58335000Y15047800D02*
X58335000Y16647800D01*
X64935000Y17447800D02*
X64935000Y15047800D01*
X59135000Y17447800D02*
X64935000Y17447800D01*
X58335000Y16647800D02*
X59135000Y17447800D01*
X65435000Y11717600D02*
G75*
G03*
X65435000Y11717600I-500000J0D01*
G01*
X64635000Y15047800D02*
G75*
G03*
X60735000Y17147800I-3000000J-900000D01*
G01*
X62535000Y17147800D02*
G75*
G03*
X58635000Y15047800I-900000J-3000000D01*
G01*
X58635000Y12917600D02*
G75*
G03*
X62535000Y10817600I3000000J900000D01*
G01*
X60735000Y10817600D02*
G75*
G03*
X64635000Y12917600I900000J3000000D01*
G01*
D17*
%TO.C,D2*%
X77873860Y8034020D02*
X77873860Y7734300D01*
X77873860Y7734300D02*
X77574140Y7734300D01*
X77574140Y8034020D02*
X77574140Y7734300D01*
X77873860Y8034020D02*
X77574140Y8034020D01*
D10*
X77724000Y7734020D02*
X77124000Y8334020D01*
X78324000Y8334020D02*
X77724000Y7734020D01*
X77724000Y7734020D02*
X78324000Y8334020D01*
X78765421Y7634020D02*
G75*
G03*
X78765421Y7634020I-141421J0D01*
G01*
D11*
X78524000Y9834020D02*
X78524000Y6234020D01*
X76924000Y9834020D02*
X78524000Y9834020D01*
X76924000Y9734020D02*
X76924000Y9834020D01*
X76924000Y6234020D02*
X76924000Y9734020D01*
X78524000Y6234020D02*
X76924000Y6234020D01*
%TO.C,R4*%
X66878200Y12832000D02*
X66878200Y11943000D01*
X69011800Y12781200D02*
X69011800Y11892200D01*
%TO.C,R5*%
X42164000Y16560800D02*
X43053000Y16560800D01*
X42113200Y14427200D02*
X43002200Y14427200D01*
%TO.C,R6*%
X74091800Y31191200D02*
X74091800Y30302200D01*
X71958200Y31242000D02*
X71958200Y30353000D01*
%TO.C,SW1*%
X70993000Y12446000D02*
X70358000Y12446000D01*
X70358000Y12446000D02*
X70358000Y5334000D01*
X70358000Y5334000D02*
X70993000Y5334000D01*
X73533000Y12446000D02*
X74168000Y12446000D01*
X74168000Y12446000D02*
X74168000Y5334000D01*
X74168000Y5334000D02*
X73533000Y5334000D01*
D13*
%TO.C,P11*%
X42164000Y33147000D02*
X42164000Y40767000D01*
X47244000Y40767000D02*
X47244000Y33147000D01*
X52324000Y33147000D02*
X52324000Y40767000D01*
X42164000Y40767000D02*
X52324000Y40767000D01*
X42164000Y33147000D02*
X52324000Y33147000D01*
X57404000Y33147000D02*
X52324000Y33147000D01*
X57404000Y40767000D02*
X57404000Y33147000D01*
X52324000Y40767000D02*
X57404000Y40767000D01*
D11*
%TO.C,R2*%
X48133000Y30683200D02*
X49022000Y30683200D01*
X48183800Y32816800D02*
X49072800Y32816800D01*
%TO.C,R3*%
X44373800Y32816800D02*
X45262800Y32816800D01*
X44323000Y30683200D02*
X45212000Y30683200D01*
%TO.C,R8*%
X44653200Y27228800D02*
X44653200Y28117800D01*
X46786800Y27178000D02*
X46786800Y28067000D01*
%TO.C,R9*%
X52273200Y31242000D02*
X52273200Y30353000D01*
X54406800Y31191200D02*
X54406800Y30302200D01*
%TO.C,R10*%
X54406800Y26543000D02*
X54406800Y27432000D01*
X52273200Y26593800D02*
X52273200Y27482800D01*
%TO.C,R11*%
X45638800Y24561800D02*
X46527800Y24561800D01*
X45588000Y22428200D02*
X46477000Y22428200D01*
D10*
%TO.C,C2*%
X42937800Y21420200D02*
X42937800Y22420200D01*
X40882200Y22420200D02*
X40882200Y21420200D01*
%TO.C,C3*%
X45524800Y19927200D02*
X46524800Y19927200D01*
X46524800Y21982800D02*
X45524800Y21982800D01*
D13*
%TO.C,P8*%
X67564000Y40767000D02*
X72644000Y40767000D01*
X72644000Y40767000D02*
X72644000Y33147000D01*
X72644000Y33147000D02*
X67564000Y33147000D01*
X57404000Y33147000D02*
X67564000Y33147000D01*
X57404000Y40767000D02*
X67564000Y40767000D01*
X67564000Y33147000D02*
X67564000Y40767000D01*
X62484000Y40767000D02*
X62484000Y33147000D01*
X57404000Y33147000D02*
X57404000Y40767000D01*
D11*
%TO.C,U1*%
X63335000Y25070000D02*
X62135000Y25070000D01*
X63335000Y28270000D02*
X63335000Y25070000D01*
X62135000Y28270000D02*
X63335000Y28270000D01*
X62135000Y25070000D02*
X62135000Y28270000D01*
X63817843Y24870000D02*
G75*
G03*
X63817843Y24870000I-282843J0D01*
G01*
X62535000Y25270000D02*
X62535000Y25070000D01*
X62935000Y25270000D02*
X62535000Y25270000D01*
X62935000Y25070000D02*
X62935000Y25270000D01*
%TO.C,U2*%
X49760000Y26025000D02*
X49760000Y26225000D01*
X49760000Y26225000D02*
X49360000Y26225000D01*
X49360000Y26225000D02*
X49360000Y26025000D01*
X50642843Y25825000D02*
G75*
G03*
X50642843Y25825000I-282843J0D01*
G01*
X48960000Y26025000D02*
X48960000Y29225000D01*
X48960000Y29225000D02*
X50160000Y29225000D01*
X50160000Y29225000D02*
X50160000Y26025000D01*
X50160000Y26025000D02*
X48960000Y26025000D01*
D18*
%TO.C,P4*%
X52705000Y16510000D02*
X52705000Y11430000D01*
X45085000Y16510000D02*
X52705000Y16510000D01*
X45085000Y11430000D02*
X45085000Y16510000D01*
X52705000Y11430000D02*
X45085000Y11430000D01*
D13*
X53340000Y16430000D02*
G75*
G03*
X53340000Y16430000I-635000J0D01*
G01*
D11*
%TO.C,D4*%
X40896500Y27746200D02*
X43500000Y27746200D01*
X43500000Y27568400D02*
X40896500Y27568400D01*
X40496407Y27114400D02*
G75*
G03*
X40496407Y27114400I-223607J0D01*
G01*
X43500000Y27746200D02*
X43500000Y27593800D01*
X40883800Y27746200D02*
X40883800Y27593800D01*
%TO.C,D1*%
X61846500Y30960820D02*
X64450000Y30960820D01*
X64450000Y30783020D02*
X61846500Y30783020D01*
X61446407Y30329020D02*
G75*
G03*
X61446407Y30329020I-223607J0D01*
G01*
X64450000Y30960820D02*
X64450000Y30808420D01*
X61833800Y30960820D02*
X61833800Y30808420D01*
%TO.C,D3*%
X56753800Y30960820D02*
X56753800Y30808420D01*
X59370000Y30960820D02*
X59370000Y30808420D01*
X56366407Y30329020D02*
G75*
G03*
X56366407Y30329020I-223607J0D01*
G01*
X59370000Y30783020D02*
X56766500Y30783020D01*
X56766500Y30960820D02*
X59370000Y30960820D01*
%TO.C,P9*%
D19*
X35885571Y6496096D02*
X35885571Y7296096D01*
X36114142Y7296096D01*
X36171285Y7258000D01*
X36199857Y7219905D01*
X36228428Y7143715D01*
X36228428Y7029429D01*
X36199857Y6953239D01*
X36171285Y6915143D01*
X36114142Y6877048D01*
X35885571Y6877048D01*
X36828428Y6496096D02*
X36628428Y6877048D01*
X36485571Y6496096D02*
X36485571Y7296096D01*
X36714142Y7296096D01*
X36771285Y7258000D01*
X36799857Y7219905D01*
X36828428Y7143715D01*
X36828428Y7029429D01*
X36799857Y6953239D01*
X36771285Y6915143D01*
X36714142Y6877048D01*
X36485571Y6877048D01*
X37199857Y7296096D02*
X37314142Y7296096D01*
X37371285Y7258000D01*
X37428428Y7181810D01*
X37457000Y7029429D01*
X37457000Y6762762D01*
X37428428Y6610381D01*
X37371285Y6534191D01*
X37314142Y6496096D01*
X37199857Y6496096D01*
X37142714Y6534191D01*
X37085571Y6610381D01*
X37057000Y6762762D01*
X37057000Y7029429D01*
X37085571Y7181810D01*
X37142714Y7258000D01*
X37199857Y7296096D01*
X38028428Y7258000D02*
X37971285Y7296096D01*
X37885571Y7296096D01*
X37799857Y7258000D01*
X37742714Y7181810D01*
X37714142Y7105620D01*
X37685571Y6953239D01*
X37685571Y6838953D01*
X37714142Y6686572D01*
X37742714Y6610381D01*
X37799857Y6534191D01*
X37885571Y6496096D01*
X37942714Y6496096D01*
X38028428Y6534191D01*
X38057000Y6572286D01*
X38057000Y6838953D01*
X37942714Y6838953D01*
%TO.C,P10*%
X35736285Y35579096D02*
X35736285Y36379096D01*
X35993428Y36302905D02*
X36022000Y36341000D01*
X36079142Y36379096D01*
X36222000Y36379096D01*
X36279142Y36341000D01*
X36307714Y36302905D01*
X36336285Y36226715D01*
X36336285Y36150524D01*
X36307714Y36036239D01*
X35964857Y35579096D01*
X36336285Y35579096D01*
X36936285Y35655286D02*
X36907714Y35617191D01*
X36822000Y35579096D01*
X36764857Y35579096D01*
X36679142Y35617191D01*
X36622000Y35693381D01*
X36593428Y35769572D01*
X36564857Y35921953D01*
X36564857Y36036239D01*
X36593428Y36188620D01*
X36622000Y36264810D01*
X36679142Y36341000D01*
X36764857Y36379096D01*
X36822000Y36379096D01*
X36907714Y36341000D01*
X36936285Y36302905D01*
%TO.C,P3*%
X75545904Y30053000D02*
X74745904Y30053000D01*
X75545904Y30338715D02*
X74745904Y30338715D01*
X74745904Y30481572D01*
X74784000Y30567286D01*
X74860190Y30624429D01*
X74936380Y30653000D01*
X75088761Y30681572D01*
X75203047Y30681572D01*
X75355428Y30653000D01*
X75431619Y30624429D01*
X75507809Y30567286D01*
X75545904Y30481572D01*
X75545904Y30338715D01*
%TO.C,U4*%
X73837857Y26854096D02*
X73837857Y26206477D01*
X73866428Y26130286D01*
X73895000Y26092191D01*
X73952142Y26054096D01*
X74066428Y26054096D01*
X74123571Y26092191D01*
X74152142Y26130286D01*
X74180714Y26206477D01*
X74180714Y26854096D01*
X74723571Y26587429D02*
X74723571Y26054096D01*
X74580714Y26892191D02*
X74437857Y26320762D01*
X74809285Y26320762D01*
%TO.C,C7*%
X78263714Y21490000D02*
X78301809Y21461429D01*
X78339904Y21375715D01*
X78339904Y21318572D01*
X78301809Y21232858D01*
X78225619Y21175715D01*
X78149428Y21147143D01*
X77997047Y21118572D01*
X77882761Y21118572D01*
X77730380Y21147143D01*
X77654190Y21175715D01*
X77578000Y21232858D01*
X77539904Y21318572D01*
X77539904Y21375715D01*
X77578000Y21461429D01*
X77616095Y21490000D01*
X77539904Y21690000D02*
X77539904Y22090000D01*
X78339904Y21832858D01*
%TO.C,C8*%
X43338714Y27000D02*
X43376809Y-1571D01*
X43414904Y-87285D01*
X43414904Y-144428D01*
X43376809Y-230142D01*
X43300619Y-287285D01*
X43224428Y-315857D01*
X43072047Y-344428D01*
X42957761Y-344428D01*
X42805380Y-315857D01*
X42729190Y-287285D01*
X42653000Y-230142D01*
X42614904Y-144428D01*
X42614904Y-87285D01*
X42653000Y-1571D01*
X42691095Y27000D01*
X42957761Y369858D02*
X42919666Y312715D01*
X42881571Y284143D01*
X42805380Y255572D01*
X42767285Y255572D01*
X42691095Y284143D01*
X42653000Y312715D01*
X42614904Y369858D01*
X42614904Y484143D01*
X42653000Y541286D01*
X42691095Y569858D01*
X42767285Y598429D01*
X42805380Y598429D01*
X42881571Y569858D01*
X42919666Y541286D01*
X42957761Y484143D01*
X42957761Y369858D01*
X42995857Y312715D01*
X43033952Y284143D01*
X43110142Y255572D01*
X43262523Y255572D01*
X43338714Y284143D01*
X43376809Y312715D01*
X43414904Y369858D01*
X43414904Y484143D01*
X43376809Y541286D01*
X43338714Y569858D01*
X43262523Y598429D01*
X43110142Y598429D01*
X43033952Y569858D01*
X42995857Y541286D01*
X42957761Y484143D01*
%TO.C,C9*%
X49942714Y18061000D02*
X49980809Y18032429D01*
X50018904Y17946715D01*
X50018904Y17889572D01*
X49980809Y17803858D01*
X49904619Y17746715D01*
X49828428Y17718143D01*
X49676047Y17689572D01*
X49561761Y17689572D01*
X49409380Y17718143D01*
X49333190Y17746715D01*
X49257000Y17803858D01*
X49218904Y17889572D01*
X49218904Y17946715D01*
X49257000Y18032429D01*
X49295095Y18061000D01*
X50018904Y18346715D02*
X50018904Y18461000D01*
X49980809Y18518143D01*
X49942714Y18546715D01*
X49828428Y18603858D01*
X49676047Y18632429D01*
X49371285Y18632429D01*
X49295095Y18603858D01*
X49257000Y18575286D01*
X49218904Y18518143D01*
X49218904Y18403858D01*
X49257000Y18346715D01*
X49295095Y18318143D01*
X49371285Y18289572D01*
X49561761Y18289572D01*
X49637952Y18318143D01*
X49676047Y18346715D01*
X49714142Y18403858D01*
X49714142Y18518143D01*
X49676047Y18575286D01*
X49637952Y18603858D01*
X49561761Y18632429D01*
%TO.C,C10*%
X59304285Y18510286D02*
X59275714Y18472191D01*
X59190000Y18434096D01*
X59132857Y18434096D01*
X59047142Y18472191D01*
X58990000Y18548381D01*
X58961428Y18624572D01*
X58932857Y18776953D01*
X58932857Y18891239D01*
X58961428Y19043620D01*
X58990000Y19119810D01*
X59047142Y19196000D01*
X59132857Y19234096D01*
X59190000Y19234096D01*
X59275714Y19196000D01*
X59304285Y19157905D01*
X59875714Y18434096D02*
X59532857Y18434096D01*
X59704285Y18434096D02*
X59704285Y19234096D01*
X59647142Y19119810D01*
X59590000Y19043620D01*
X59532857Y19005524D01*
X60247142Y19234096D02*
X60304285Y19234096D01*
X60361428Y19196000D01*
X60390000Y19157905D01*
X60418571Y19081715D01*
X60447142Y18929334D01*
X60447142Y18738858D01*
X60418571Y18586477D01*
X60390000Y18510286D01*
X60361428Y18472191D01*
X60304285Y18434096D01*
X60247142Y18434096D01*
X60190000Y18472191D01*
X60161428Y18510286D01*
X60132857Y18586477D01*
X60104285Y18738858D01*
X60104285Y18929334D01*
X60132857Y19081715D01*
X60161428Y19157905D01*
X60190000Y19196000D01*
X60247142Y19234096D01*
%TO.C,P2*%
D20*
X46459714Y3278477D02*
X46516857Y3421334D01*
X46516857Y3659429D01*
X46459714Y3754667D01*
X46402571Y3802286D01*
X46288285Y3849905D01*
X46174000Y3849905D01*
X46059714Y3802286D01*
X46002571Y3754667D01*
X45945428Y3659429D01*
X45888285Y3468953D01*
X45831142Y3373715D01*
X45774000Y3326096D01*
X45659714Y3278477D01*
X45545428Y3278477D01*
X45431142Y3326096D01*
X45374000Y3373715D01*
X45316857Y3468953D01*
X45316857Y3707048D01*
X45374000Y3849905D01*
X45888285Y4278477D02*
X45888285Y4611810D01*
X46516857Y4754667D02*
X46516857Y4278477D01*
X45316857Y4278477D01*
X45316857Y4754667D01*
X46516857Y5754667D02*
X45945428Y5421334D01*
X46516857Y5183239D02*
X45316857Y5183239D01*
X45316857Y5564191D01*
X45374000Y5659429D01*
X45431142Y5707048D01*
X45545428Y5754667D01*
X45716857Y5754667D01*
X45831142Y5707048D01*
X45888285Y5659429D01*
X45945428Y5564191D01*
X45945428Y5183239D01*
X46516857Y6183239D02*
X45316857Y6183239D01*
X46174000Y6611810D02*
X46174000Y7088000D01*
X46516857Y6516572D02*
X45316857Y6849905D01*
X46516857Y7183239D01*
X46516857Y7992762D02*
X46516857Y7516572D01*
X45316857Y7516572D01*
%TO.C,R7*%
D19*
X68607000Y30372096D02*
X68407000Y30753048D01*
X68264142Y30372096D02*
X68264142Y31172096D01*
X68492714Y31172096D01*
X68549857Y31134000D01*
X68578428Y31095905D01*
X68607000Y31019715D01*
X68607000Y30905429D01*
X68578428Y30829239D01*
X68549857Y30791143D01*
X68492714Y30753048D01*
X68264142Y30753048D01*
X68807000Y31172096D02*
X69207000Y31172096D01*
X68949857Y30372096D01*
%TO.C,SW2*%
X40112904Y6656429D02*
X39731952Y6456429D01*
X40112904Y6313572D02*
X39312904Y6313572D01*
X39312904Y6542143D01*
X39351000Y6599286D01*
X39389095Y6627858D01*
X39465285Y6656429D01*
X39579571Y6656429D01*
X39655761Y6627858D01*
X39693857Y6599286D01*
X39731952Y6542143D01*
X39731952Y6313572D01*
X40074809Y6885000D02*
X40112904Y6970715D01*
X40112904Y7113572D01*
X40074809Y7170715D01*
X40036714Y7199286D01*
X39960523Y7227858D01*
X39884333Y7227858D01*
X39808142Y7199286D01*
X39770047Y7170715D01*
X39731952Y7113572D01*
X39693857Y6999286D01*
X39655761Y6942143D01*
X39617666Y6913572D01*
X39541476Y6885000D01*
X39465285Y6885000D01*
X39389095Y6913572D01*
X39351000Y6942143D01*
X39312904Y6999286D01*
X39312904Y7142143D01*
X39351000Y7227858D01*
X39312904Y7399286D02*
X39312904Y7742143D01*
X40112904Y7570715D02*
X39312904Y7570715D01*
%TO.C,Y1*%
X62579285Y20339048D02*
X62579285Y19958096D01*
X62379285Y20758096D02*
X62579285Y20339048D01*
X62779285Y20758096D01*
X63293571Y19958096D02*
X62950714Y19958096D01*
X63122142Y19958096D02*
X63122142Y20758096D01*
X63065000Y20643810D01*
X63007857Y20567620D01*
X62950714Y20529524D01*
%TO.C,C4*%
X57177000Y26638286D02*
X57148428Y26600191D01*
X57062714Y26562096D01*
X57005571Y26562096D01*
X56919857Y26600191D01*
X56862714Y26676381D01*
X56834142Y26752572D01*
X56805571Y26904953D01*
X56805571Y27019239D01*
X56834142Y27171620D01*
X56862714Y27247810D01*
X56919857Y27324000D01*
X57005571Y27362096D01*
X57062714Y27362096D01*
X57148428Y27324000D01*
X57177000Y27285905D01*
X57691285Y27095429D02*
X57691285Y26562096D01*
X57548428Y27400191D02*
X57405571Y26828762D01*
X57777000Y26828762D01*
%TO.C,C5*%
X74068000Y15462286D02*
X74039428Y15424191D01*
X73953714Y15386096D01*
X73896571Y15386096D01*
X73810857Y15424191D01*
X73753714Y15500381D01*
X73725142Y15576572D01*
X73696571Y15728953D01*
X73696571Y15843239D01*
X73725142Y15995620D01*
X73753714Y16071810D01*
X73810857Y16148000D01*
X73896571Y16186096D01*
X73953714Y16186096D01*
X74039428Y16148000D01*
X74068000Y16109905D01*
X74610857Y16186096D02*
X74325142Y16186096D01*
X74296571Y15805143D01*
X74325142Y15843239D01*
X74382285Y15881334D01*
X74525142Y15881334D01*
X74582285Y15843239D01*
X74610857Y15805143D01*
X74639428Y15728953D01*
X74639428Y15538477D01*
X74610857Y15462286D01*
X74582285Y15424191D01*
X74525142Y15386096D01*
X74382285Y15386096D01*
X74325142Y15424191D01*
X74296571Y15462286D01*
%TO.C,C6*%
X65559000Y17113286D02*
X65530428Y17075191D01*
X65444714Y17037096D01*
X65387571Y17037096D01*
X65301857Y17075191D01*
X65244714Y17151381D01*
X65216142Y17227572D01*
X65187571Y17379953D01*
X65187571Y17494239D01*
X65216142Y17646620D01*
X65244714Y17722810D01*
X65301857Y17799000D01*
X65387571Y17837096D01*
X65444714Y17837096D01*
X65530428Y17799000D01*
X65559000Y17760905D01*
X66073285Y17837096D02*
X65959000Y17837096D01*
X65901857Y17799000D01*
X65873285Y17760905D01*
X65816142Y17646620D01*
X65787571Y17494239D01*
X65787571Y17189477D01*
X65816142Y17113286D01*
X65844714Y17075191D01*
X65901857Y17037096D01*
X66016142Y17037096D01*
X66073285Y17075191D01*
X66101857Y17113286D01*
X66130428Y17189477D01*
X66130428Y17379953D01*
X66101857Y17456143D01*
X66073285Y17494239D01*
X66016142Y17532334D01*
X65901857Y17532334D01*
X65844714Y17494239D01*
X65816142Y17456143D01*
X65787571Y17379953D01*
%TO.C,D2*%
X76434904Y7456572D02*
X76434904Y7170858D01*
X75634904Y7170858D01*
X76015857Y7656572D02*
X76015857Y7856572D01*
X76434904Y7942286D02*
X76434904Y7656572D01*
X75634904Y7656572D01*
X75634904Y7942286D01*
X76434904Y8199429D02*
X75634904Y8199429D01*
X75634904Y8342286D01*
X75673000Y8428000D01*
X75749190Y8485143D01*
X75825380Y8513715D01*
X75977761Y8542286D01*
X76092047Y8542286D01*
X76244428Y8513715D01*
X76320619Y8485143D01*
X76396809Y8428000D01*
X76434904Y8342286D01*
X76434904Y8199429D01*
X75634904Y8913715D02*
X75634904Y8970858D01*
X75673000Y9028000D01*
X75711095Y9056572D01*
X75787285Y9085143D01*
X75939666Y9113715D01*
X76130142Y9113715D01*
X76282523Y9085143D01*
X76358714Y9056572D01*
X76396809Y9028000D01*
X76434904Y8970858D01*
X76434904Y8913715D01*
X76396809Y8856572D01*
X76358714Y8828000D01*
X76282523Y8799429D01*
X76130142Y8770858D01*
X75939666Y8770858D01*
X75787285Y8799429D01*
X75711095Y8828000D01*
X75673000Y8856572D01*
X75634904Y8913715D01*
%TO.C,R4*%
X68306904Y14632000D02*
X67925952Y14432000D01*
X68306904Y14289143D02*
X67506904Y14289143D01*
X67506904Y14517715D01*
X67545000Y14574858D01*
X67583095Y14603429D01*
X67659285Y14632000D01*
X67773571Y14632000D01*
X67849761Y14603429D01*
X67887857Y14574858D01*
X67925952Y14517715D01*
X67925952Y14289143D01*
X67773571Y15146286D02*
X68306904Y15146286D01*
X67468809Y15003429D02*
X68040238Y14860572D01*
X68040238Y15232000D01*
%TO.C,R5*%
X39778000Y15132096D02*
X39578000Y15513048D01*
X39435142Y15132096D02*
X39435142Y15932096D01*
X39663714Y15932096D01*
X39720857Y15894000D01*
X39749428Y15855905D01*
X39778000Y15779715D01*
X39778000Y15665429D01*
X39749428Y15589239D01*
X39720857Y15551143D01*
X39663714Y15513048D01*
X39435142Y15513048D01*
X40320857Y15932096D02*
X40035142Y15932096D01*
X40006571Y15551143D01*
X40035142Y15589239D01*
X40092285Y15627334D01*
X40235142Y15627334D01*
X40292285Y15589239D01*
X40320857Y15551143D01*
X40349428Y15474953D01*
X40349428Y15284477D01*
X40320857Y15208286D01*
X40292285Y15170191D01*
X40235142Y15132096D01*
X40092285Y15132096D01*
X40035142Y15170191D01*
X40006571Y15208286D01*
%TO.C,R6*%
X73052000Y28086096D02*
X72852000Y28467048D01*
X72709142Y28086096D02*
X72709142Y28886096D01*
X72937714Y28886096D01*
X72994857Y28848000D01*
X73023428Y28809905D01*
X73052000Y28733715D01*
X73052000Y28619429D01*
X73023428Y28543239D01*
X72994857Y28505143D01*
X72937714Y28467048D01*
X72709142Y28467048D01*
X73566285Y28886096D02*
X73452000Y28886096D01*
X73394857Y28848000D01*
X73366285Y28809905D01*
X73309142Y28695620D01*
X73280571Y28543239D01*
X73280571Y28238477D01*
X73309142Y28162286D01*
X73337714Y28124191D01*
X73394857Y28086096D01*
X73509142Y28086096D01*
X73566285Y28124191D01*
X73594857Y28162286D01*
X73623428Y28238477D01*
X73623428Y28428953D01*
X73594857Y28505143D01*
X73566285Y28543239D01*
X73509142Y28581334D01*
X73394857Y28581334D01*
X73337714Y28543239D01*
X73309142Y28505143D01*
X73280571Y28428953D01*
%TO.C,SW1*%
X69792809Y7483572D02*
X69830904Y7569286D01*
X69830904Y7712143D01*
X69792809Y7769286D01*
X69754714Y7797858D01*
X69678523Y7826429D01*
X69602333Y7826429D01*
X69526142Y7797858D01*
X69488047Y7769286D01*
X69449952Y7712143D01*
X69411857Y7597858D01*
X69373761Y7540715D01*
X69335666Y7512143D01*
X69259476Y7483572D01*
X69183285Y7483572D01*
X69107095Y7512143D01*
X69069000Y7540715D01*
X69030904Y7597858D01*
X69030904Y7740715D01*
X69069000Y7826429D01*
X69030904Y8026429D02*
X69830904Y8169286D01*
X69259476Y8283572D01*
X69830904Y8397858D01*
X69030904Y8540715D01*
X69602333Y8740715D02*
X69602333Y9026429D01*
X69830904Y8683572D02*
X69030904Y8883572D01*
X69830904Y9083572D01*
%TO.C,P11*%
X40963904Y33933000D02*
X41763904Y34075858D01*
X41192476Y34190143D01*
X41763904Y34304429D01*
X40963904Y34447286D01*
X41763904Y34675858D02*
X40963904Y34675858D01*
X41763904Y34961572D02*
X40963904Y34961572D01*
X41763904Y35304429D01*
X40963904Y35304429D01*
X41763904Y35590143D02*
X40963904Y35590143D01*
X40963904Y35733000D01*
X41002000Y35818715D01*
X41078190Y35875858D01*
X41154380Y35904429D01*
X41306761Y35933000D01*
X41421047Y35933000D01*
X41573428Y35904429D01*
X41649619Y35875858D01*
X41725809Y35818715D01*
X41763904Y35733000D01*
X41763904Y35590143D01*
X41840095Y36047286D02*
X41840095Y36504429D01*
X41535333Y36618715D02*
X41535333Y36904429D01*
X41763904Y36561572D02*
X40963904Y36761572D01*
X41763904Y36961572D01*
D21*
X44123428Y41801143D02*
X45284571Y41801143D01*
X44704000Y41220572D02*
X44704000Y42381715D01*
D20*
X54102095Y42283000D02*
X54006857Y42330620D01*
X53864000Y42330620D01*
X53721142Y42283000D01*
X53625904Y42187762D01*
X53578285Y42092524D01*
X53530666Y41902048D01*
X53530666Y41759191D01*
X53578285Y41568715D01*
X53625904Y41473477D01*
X53721142Y41378239D01*
X53864000Y41330620D01*
X53959238Y41330620D01*
X54102095Y41378239D01*
X54149714Y41425858D01*
X54149714Y41759191D01*
X53959238Y41759191D01*
X54578285Y41330620D02*
X54578285Y42330620D01*
X55149714Y41330620D01*
X55149714Y42330620D01*
X55625904Y41330620D02*
X55625904Y42330620D01*
X55864000Y42330620D01*
X56006857Y42283000D01*
X56102095Y42187762D01*
X56149714Y42092524D01*
X56197333Y41902048D01*
X56197333Y41759191D01*
X56149714Y41568715D01*
X56102095Y41473477D01*
X56006857Y41378239D01*
X55864000Y41330620D01*
X55625904Y41330620D01*
X47284000Y42457620D02*
X47522095Y41457620D01*
X47712571Y42171905D01*
X47903047Y41457620D01*
X48141142Y42457620D01*
X48522095Y41457620D02*
X48522095Y42457620D01*
X48998285Y41457620D02*
X48998285Y42457620D01*
X49569714Y41457620D01*
X49569714Y42457620D01*
X50045904Y41457620D02*
X50045904Y42457620D01*
X50284000Y42457620D01*
X50426857Y42410000D01*
X50522095Y42314762D01*
X50569714Y42219524D01*
X50617333Y42029048D01*
X50617333Y41886191D01*
X50569714Y41695715D01*
X50522095Y41600477D01*
X50426857Y41505239D01*
X50284000Y41457620D01*
X50045904Y41457620D01*
X50807809Y41362381D02*
X51569714Y41362381D01*
X51760190Y41743334D02*
X52236380Y41743334D01*
X51664952Y41457620D02*
X51998285Y42457620D01*
X52331619Y41457620D01*
%TO.C,R2*%
D19*
X50827000Y31388096D02*
X50627000Y31769048D01*
X50484142Y31388096D02*
X50484142Y32188096D01*
X50712714Y32188096D01*
X50769857Y32150000D01*
X50798428Y32111905D01*
X50827000Y32035715D01*
X50827000Y31921429D01*
X50798428Y31845239D01*
X50769857Y31807143D01*
X50712714Y31769048D01*
X50484142Y31769048D01*
X51055571Y32111905D02*
X51084142Y32150000D01*
X51141285Y32188096D01*
X51284142Y32188096D01*
X51341285Y32150000D01*
X51369857Y32111905D01*
X51398428Y32035715D01*
X51398428Y31959524D01*
X51369857Y31845239D01*
X51027000Y31388096D01*
X51398428Y31388096D01*
%TO.C,R3*%
X42191000Y31261096D02*
X41991000Y31642048D01*
X41848142Y31261096D02*
X41848142Y32061096D01*
X42076714Y32061096D01*
X42133857Y32023000D01*
X42162428Y31984905D01*
X42191000Y31908715D01*
X42191000Y31794429D01*
X42162428Y31718239D01*
X42133857Y31680143D01*
X42076714Y31642048D01*
X41848142Y31642048D01*
X42391000Y32061096D02*
X42762428Y32061096D01*
X42562428Y31756334D01*
X42648142Y31756334D01*
X42705285Y31718239D01*
X42733857Y31680143D01*
X42762428Y31603953D01*
X42762428Y31413477D01*
X42733857Y31337286D01*
X42705285Y31299191D01*
X42648142Y31261096D01*
X42476714Y31261096D01*
X42419571Y31299191D01*
X42391000Y31337286D01*
%TO.C,R8*%
X45620000Y29483096D02*
X45420000Y29864048D01*
X45277142Y29483096D02*
X45277142Y30283096D01*
X45505714Y30283096D01*
X45562857Y30245000D01*
X45591428Y30206905D01*
X45620000Y30130715D01*
X45620000Y30016429D01*
X45591428Y29940239D01*
X45562857Y29902143D01*
X45505714Y29864048D01*
X45277142Y29864048D01*
X45962857Y29940239D02*
X45905714Y29978334D01*
X45877142Y30016429D01*
X45848571Y30092620D01*
X45848571Y30130715D01*
X45877142Y30206905D01*
X45905714Y30245000D01*
X45962857Y30283096D01*
X46077142Y30283096D01*
X46134285Y30245000D01*
X46162857Y30206905D01*
X46191428Y30130715D01*
X46191428Y30092620D01*
X46162857Y30016429D01*
X46134285Y29978334D01*
X46077142Y29940239D01*
X45962857Y29940239D01*
X45905714Y29902143D01*
X45877142Y29864048D01*
X45848571Y29787858D01*
X45848571Y29635477D01*
X45877142Y29559286D01*
X45905714Y29521191D01*
X45962857Y29483096D01*
X46077142Y29483096D01*
X46134285Y29521191D01*
X46162857Y29559286D01*
X46191428Y29635477D01*
X46191428Y29787858D01*
X46162857Y29864048D01*
X46134285Y29902143D01*
X46077142Y29940239D01*
%TO.C,R9*%
X55479904Y31269000D02*
X55098952Y31069000D01*
X55479904Y30926143D02*
X54679904Y30926143D01*
X54679904Y31154715D01*
X54718000Y31211858D01*
X54756095Y31240429D01*
X54832285Y31269000D01*
X54946571Y31269000D01*
X55022761Y31240429D01*
X55060857Y31211858D01*
X55098952Y31154715D01*
X55098952Y30926143D01*
X55479904Y31554715D02*
X55479904Y31669000D01*
X55441809Y31726143D01*
X55403714Y31754715D01*
X55289428Y31811858D01*
X55137047Y31840429D01*
X54832285Y31840429D01*
X54756095Y31811858D01*
X54718000Y31783286D01*
X54679904Y31726143D01*
X54679904Y31611858D01*
X54718000Y31554715D01*
X54756095Y31526143D01*
X54832285Y31497572D01*
X55022761Y31497572D01*
X55098952Y31526143D01*
X55137047Y31554715D01*
X55175142Y31611858D01*
X55175142Y31726143D01*
X55137047Y31783286D01*
X55098952Y31811858D01*
X55022761Y31840429D01*
%TO.C,R10*%
X55479904Y27173286D02*
X55098952Y26973286D01*
X55479904Y26830429D02*
X54679904Y26830429D01*
X54679904Y27059000D01*
X54718000Y27116143D01*
X54756095Y27144715D01*
X54832285Y27173286D01*
X54946571Y27173286D01*
X55022761Y27144715D01*
X55060857Y27116143D01*
X55098952Y27059000D01*
X55098952Y26830429D01*
X55479904Y27744715D02*
X55479904Y27401858D01*
X55479904Y27573286D02*
X54679904Y27573286D01*
X54794190Y27516143D01*
X54870380Y27459000D01*
X54908476Y27401858D01*
X54679904Y28116143D02*
X54679904Y28173286D01*
X54718000Y28230429D01*
X54756095Y28259000D01*
X54832285Y28287572D01*
X54984666Y28316143D01*
X55175142Y28316143D01*
X55327523Y28287572D01*
X55403714Y28259000D01*
X55441809Y28230429D01*
X55479904Y28173286D01*
X55479904Y28116143D01*
X55441809Y28059000D01*
X55403714Y28030429D01*
X55327523Y28001858D01*
X55175142Y27973286D01*
X54984666Y27973286D01*
X54832285Y28001858D01*
X54756095Y28030429D01*
X54718000Y28059000D01*
X54679904Y28116143D01*
%TO.C,R11*%
X45588285Y24911096D02*
X45388285Y25292048D01*
X45245428Y24911096D02*
X45245428Y25711096D01*
X45474000Y25711096D01*
X45531142Y25673000D01*
X45559714Y25634905D01*
X45588285Y25558715D01*
X45588285Y25444429D01*
X45559714Y25368239D01*
X45531142Y25330143D01*
X45474000Y25292048D01*
X45245428Y25292048D01*
X46159714Y24911096D02*
X45816857Y24911096D01*
X45988285Y24911096D02*
X45988285Y25711096D01*
X45931142Y25596810D01*
X45874000Y25520620D01*
X45816857Y25482524D01*
X46731142Y24911096D02*
X46388285Y24911096D01*
X46559714Y24911096D02*
X46559714Y25711096D01*
X46502571Y25596810D01*
X46445428Y25520620D01*
X46388285Y25482524D01*
%TO.C,C2*%
X42195714Y24284000D02*
X42233809Y24255429D01*
X42271904Y24169715D01*
X42271904Y24112572D01*
X42233809Y24026858D01*
X42157619Y23969715D01*
X42081428Y23941143D01*
X41929047Y23912572D01*
X41814761Y23912572D01*
X41662380Y23941143D01*
X41586190Y23969715D01*
X41510000Y24026858D01*
X41471904Y24112572D01*
X41471904Y24169715D01*
X41510000Y24255429D01*
X41548095Y24284000D01*
X41548095Y24512572D02*
X41510000Y24541143D01*
X41471904Y24598286D01*
X41471904Y24741143D01*
X41510000Y24798286D01*
X41548095Y24826858D01*
X41624285Y24855429D01*
X41700476Y24855429D01*
X41814761Y24826858D01*
X42271904Y24484000D01*
X42271904Y24855429D01*
%TO.C,C3*%
X44604000Y19018286D02*
X44575428Y18980191D01*
X44489714Y18942096D01*
X44432571Y18942096D01*
X44346857Y18980191D01*
X44289714Y19056381D01*
X44261142Y19132572D01*
X44232571Y19284953D01*
X44232571Y19399239D01*
X44261142Y19551620D01*
X44289714Y19627810D01*
X44346857Y19704000D01*
X44432571Y19742096D01*
X44489714Y19742096D01*
X44575428Y19704000D01*
X44604000Y19665905D01*
X44804000Y19742096D02*
X45175428Y19742096D01*
X44975428Y19437334D01*
X45061142Y19437334D01*
X45118285Y19399239D01*
X45146857Y19361143D01*
X45175428Y19284953D01*
X45175428Y19094477D01*
X45146857Y19018286D01*
X45118285Y18980191D01*
X45061142Y18942096D01*
X44889714Y18942096D01*
X44832571Y18980191D01*
X44804000Y19018286D01*
%TO.C,P8*%
X73094904Y34517143D02*
X73894904Y34717143D01*
X73094904Y34917143D01*
X73666333Y35088572D02*
X73666333Y35374286D01*
X73894904Y35031429D02*
X73094904Y35231429D01*
X73894904Y35431429D01*
X73894904Y35631429D02*
X73094904Y35631429D01*
X73894904Y35974286D01*
X73094904Y35974286D01*
X73475857Y36260000D02*
X73475857Y36460000D01*
X73894904Y36545715D02*
X73894904Y36260000D01*
X73094904Y36260000D01*
X73094904Y36545715D01*
D20*
X63285904Y42330620D02*
X63619238Y41330620D01*
X63952571Y42330620D01*
X64238285Y41616334D02*
X64714476Y41616334D01*
X64143047Y41330620D02*
X64476380Y42330620D01*
X64809714Y41330620D01*
X65143047Y41330620D02*
X65143047Y42330620D01*
X65714476Y41330620D01*
X65714476Y42330620D01*
X66190666Y41854429D02*
X66524000Y41854429D01*
X66666857Y41330620D02*
X66190666Y41330620D01*
X66190666Y42330620D01*
X66666857Y42330620D01*
X69342095Y42283000D02*
X69246857Y42330620D01*
X69104000Y42330620D01*
X68961142Y42283000D01*
X68865904Y42187762D01*
X68818285Y42092524D01*
X68770666Y41902048D01*
X68770666Y41759191D01*
X68818285Y41568715D01*
X68865904Y41473477D01*
X68961142Y41378239D01*
X69104000Y41330620D01*
X69199238Y41330620D01*
X69342095Y41378239D01*
X69389714Y41425858D01*
X69389714Y41759191D01*
X69199238Y41759191D01*
X69818285Y41330620D02*
X69818285Y42330620D01*
X70389714Y41330620D01*
X70389714Y42330620D01*
X70865904Y41330620D02*
X70865904Y42330620D01*
X71104000Y42330620D01*
X71246857Y42283000D01*
X71342095Y42187762D01*
X71389714Y42092524D01*
X71437333Y41902048D01*
X71437333Y41759191D01*
X71389714Y41568715D01*
X71342095Y41473477D01*
X71246857Y41378239D01*
X71104000Y41330620D01*
X70865904Y41330620D01*
D21*
X59236428Y41801143D02*
X60397571Y41801143D01*
X59817000Y41220572D02*
X59817000Y42381715D01*
%TO.C,U1*%
D19*
X62407857Y24695096D02*
X62407857Y24047477D01*
X62436428Y23971286D01*
X62465000Y23933191D01*
X62522142Y23895096D01*
X62636428Y23895096D01*
X62693571Y23933191D01*
X62722142Y23971286D01*
X62750714Y24047477D01*
X62750714Y24695096D01*
X63350714Y23895096D02*
X63007857Y23895096D01*
X63179285Y23895096D02*
X63179285Y24695096D01*
X63122142Y24580810D01*
X63065000Y24504620D01*
X63007857Y24466524D01*
%TO.C,U2*%
X49105857Y25711096D02*
X49105857Y25063477D01*
X49134428Y24987286D01*
X49163000Y24949191D01*
X49220142Y24911096D01*
X49334428Y24911096D01*
X49391571Y24949191D01*
X49420142Y24987286D01*
X49448714Y25063477D01*
X49448714Y25711096D01*
X49705857Y25634905D02*
X49734428Y25673000D01*
X49791571Y25711096D01*
X49934428Y25711096D01*
X49991571Y25673000D01*
X50020142Y25634905D01*
X50048714Y25558715D01*
X50048714Y25482524D01*
X50020142Y25368239D01*
X49677285Y24911096D01*
X50048714Y24911096D01*
%TO.C,D4*%
X40451142Y28340096D02*
X40451142Y29140096D01*
X40594000Y29140096D01*
X40679714Y29102000D01*
X40736857Y29025810D01*
X40765428Y28949620D01*
X40794000Y28797239D01*
X40794000Y28682953D01*
X40765428Y28530572D01*
X40736857Y28454381D01*
X40679714Y28378191D01*
X40594000Y28340096D01*
X40451142Y28340096D01*
X41308285Y28873429D02*
X41308285Y28340096D01*
X41165428Y29178191D02*
X41022571Y28606762D01*
X41394000Y28606762D01*
%TO.C,D1*%
X61401142Y31554716D02*
X61401142Y32354716D01*
X61544000Y32354716D01*
X61629714Y32316620D01*
X61686857Y32240430D01*
X61715428Y32164240D01*
X61744000Y32011859D01*
X61744000Y31897573D01*
X61715428Y31745192D01*
X61686857Y31669001D01*
X61629714Y31592811D01*
X61544000Y31554716D01*
X61401142Y31554716D01*
X62315428Y31554716D02*
X61972571Y31554716D01*
X62144000Y31554716D02*
X62144000Y32354716D01*
X62086857Y32240430D01*
X62029714Y32164240D01*
X61972571Y32126144D01*
%TO.C,D3*%
X56321142Y31554716D02*
X56321142Y32354716D01*
X56464000Y32354716D01*
X56549714Y32316620D01*
X56606857Y32240430D01*
X56635428Y32164240D01*
X56664000Y32011859D01*
X56664000Y31897573D01*
X56635428Y31745192D01*
X56606857Y31669001D01*
X56549714Y31592811D01*
X56464000Y31554716D01*
X56321142Y31554716D01*
X56864000Y32354716D02*
X57235428Y32354716D01*
X57035428Y32049954D01*
X57121142Y32049954D01*
X57178285Y32011859D01*
X57206857Y31973763D01*
X57235428Y31897573D01*
X57235428Y31707097D01*
X57206857Y31630906D01*
X57178285Y31592811D01*
X57121142Y31554716D01*
X56949714Y31554716D01*
X56892571Y31592811D01*
X56864000Y31630906D01*
%TD*%
M02*
