%TF.GenerationSoftware,KiCad,Pcbnew,(5.1.10)-1*%
%TF.CreationDate,2021-07-19T16:15:12+01:00*%
%TF.ProjectId,WindSensorATMEGA328_PCB,57696e64-5365-46e7-936f-7241544d4547,rev?*%
%TF.SameCoordinates,PX5734380PY7df6180*%
%TF.FileFunction,Soldermask,Bot*%
%TF.FilePolarity,Negative*%
%FSLAX46Y46*%
G04 Gerber Fmt 4.6, Leading zero omitted, Abs format (unit mm)*
G04 Created by KiCad (PCBNEW (5.1.10)-1) date 2021-07-19 16:15:12*
%MOMM*%
%LPD*%
G01*
G04 APERTURE LIST*
%ADD10C,2.399640*%
%ADD11C,3.400000*%
%ADD12C,1.700000*%
%ADD13C,2.232000*%
%ADD14C,2.699360*%
%ADD15C,1.800200*%
G04 APERTURE END LIST*
%TO.C,P9*%
G36*
G01*
X36033710Y22740290D02*
X38134290Y22740290D01*
G75*
G02*
X38234290Y22640290I0J-100000D01*
G01*
X38234290Y20539710D01*
G75*
G02*
X38134290Y20439710I-100000J0D01*
G01*
X36033710Y20439710D01*
G75*
G02*
X35933710Y20539710I0J100000D01*
G01*
X35933710Y22640290D01*
G75*
G02*
X36033710Y22740290I100000J0D01*
G01*
G37*
D10*
X36830000Y19050000D03*
X37084000Y16510000D03*
X36830000Y13970000D03*
X37084000Y11430000D03*
X36830000Y8890000D03*
%TD*%
D11*
%TO.C,P6*%
X38271000Y39368000D03*
X76271000Y39268000D03*
X76271000Y1268000D03*
X38271000Y1368000D03*
%TD*%
D12*
%TO.C,P10*%
X37671000Y27099000D03*
X37671000Y29099000D03*
X37671000Y31099000D03*
G36*
G01*
X36921000Y33949000D02*
X38421000Y33949000D01*
G75*
G02*
X38521000Y33849000I0J-100000D01*
G01*
X38521000Y32349000D01*
G75*
G02*
X38421000Y32249000I-100000J0D01*
G01*
X36921000Y32249000D01*
G75*
G02*
X36821000Y32349000I0J100000D01*
G01*
X36821000Y33849000D01*
G75*
G02*
X36921000Y33949000I100000J0D01*
G01*
G37*
%TD*%
%TO.C,P2*%
G36*
G01*
X48414000Y4699000D02*
X48414000Y6731000D01*
G75*
G02*
X48514000Y6831000I100000J0D01*
G01*
X50546000Y6831000D01*
G75*
G02*
X50646000Y6731000I0J-100000D01*
G01*
X50646000Y4699000D01*
G75*
G02*
X50546000Y4599000I-100000J0D01*
G01*
X48514000Y4599000D01*
G75*
G02*
X48414000Y4699000I0J100000D01*
G01*
G37*
D13*
X54610000Y5715000D03*
X59690000Y5715000D03*
X64770000Y5715000D03*
G36*
G01*
X53300000Y7076000D02*
X53300000Y8576000D01*
G75*
G02*
X53400000Y8676000I100000J0D01*
G01*
X54900000Y8676000D01*
G75*
G02*
X55000000Y8576000I0J-100000D01*
G01*
X55000000Y7076000D01*
G75*
G02*
X54900000Y6976000I-100000J0D01*
G01*
X53400000Y6976000D01*
G75*
G02*
X53300000Y7076000I0J100000D01*
G01*
G37*
D12*
X56150000Y7826000D03*
X58150000Y7826000D03*
X60150000Y7826000D03*
%TD*%
D14*
%TO.C,P11*%
X49784000Y36957000D03*
G36*
G01*
X43354320Y35707320D02*
X43354320Y38206680D01*
G75*
G02*
X43454320Y38306680I100000J0D01*
G01*
X45953680Y38306680D01*
G75*
G02*
X46053680Y38206680I0J-100000D01*
G01*
X46053680Y35707320D01*
G75*
G02*
X45953680Y35607320I-100000J0D01*
G01*
X43454320Y35607320D01*
G75*
G02*
X43354320Y35707320I0J100000D01*
G01*
G37*
X54864000Y36957000D03*
%TD*%
%TO.C,P8*%
X70104000Y36957000D03*
G36*
G01*
X58594320Y35707320D02*
X58594320Y38206680D01*
G75*
G02*
X58694320Y38306680I100000J0D01*
G01*
X61193680Y38306680D01*
G75*
G02*
X61293680Y38206680I0J-100000D01*
G01*
X61293680Y35707320D01*
G75*
G02*
X61193680Y35607320I-100000J0D01*
G01*
X58694320Y35607320D01*
G75*
G02*
X58594320Y35707320I0J100000D01*
G01*
G37*
X65024000Y36957000D03*
%TD*%
D15*
%TO.C,P4*%
X46355000Y15240000D03*
X46355000Y12700000D03*
X48895000Y15240000D03*
X48895000Y12700000D03*
X51435000Y15240000D03*
X51435000Y12700000D03*
%TD*%
M02*
