%TF.GenerationSoftware,KiCad,Pcbnew,8.0.5*%
%TF.CreationDate,2024-10-28T18:07:43+00:00*%
%TF.ProjectId,WindSensorATMEGA328_PCB,57696e64-5365-46e7-936f-7241544d4547,rev?*%
%TF.SameCoordinates,PX5734380PY7df6180*%
%TF.FileFunction,Paste,Top*%
%TF.FilePolarity,Positive*%
%FSLAX46Y46*%
G04 Gerber Fmt 4.6, Leading zero omitted, Abs format (unit mm)*
G04 Created by KiCad (PCBNEW 8.0.5) date 2024-10-28 18:07:43*
%MOMM*%
%LPD*%
G01*
G04 APERTURE LIST*
%ADD10R,1.500000X1.300000*%
%ADD11R,1.300000X1.500000*%
%ADD12R,1.500000X1.000000*%
%ADD13R,2.397760X3.000000*%
%ADD14R,1.270000X0.558800*%
%ADD15R,0.558800X1.270000*%
%ADD16R,3.200000X1.600000*%
%ADD17R,1.198880X1.198880*%
%ADD18R,0.847600X0.397600*%
%ADD19R,5.334000X1.930400*%
%ADD20R,0.800100X0.900000*%
%ADD21R,0.800100X1.000760*%
G04 APERTURE END LIST*
D10*
%TO.C,C7*%
X78105000Y24561800D03*
X78105000Y22661800D03*
%TD*%
%TO.C,C8*%
X43180000Y1910000D03*
X43180000Y3810000D03*
%TD*%
D11*
%TO.C,C9*%
X53009800Y18415000D03*
X51109800Y18415000D03*
%TD*%
%TO.C,C10*%
X55880000Y18415000D03*
X57780000Y18415000D03*
%TD*%
D12*
%TO.C,P3*%
X77062000Y30353000D03*
X75311000Y30353000D03*
X77062000Y31750000D03*
X75311000Y31750000D03*
X77062000Y33147000D03*
X75311000Y33147000D03*
%TD*%
D10*
%TO.C,R7*%
X69977000Y31242000D03*
X69977000Y29342000D03*
%TD*%
D13*
%TO.C,SW2*%
X42545000Y11811000D03*
X42519600Y6985000D03*
%TD*%
D14*
%TO.C,U4*%
X66192400Y24516080D03*
X66192400Y23715980D03*
X66192400Y22915880D03*
X66192400Y22115780D03*
X66192400Y21318220D03*
X66192400Y20518120D03*
X66192400Y19718020D03*
X66192400Y18917920D03*
D15*
X67685920Y17424400D03*
X68486020Y17424400D03*
X69286120Y17424400D03*
X70086220Y17424400D03*
X70883780Y17424400D03*
X71683880Y17424400D03*
X72483980Y17424400D03*
X73284080Y17424400D03*
D14*
X74777600Y18917920D03*
X74777600Y19718020D03*
X74777600Y20518120D03*
X74777600Y21318220D03*
X74777600Y22115780D03*
X74777600Y22915880D03*
X74777600Y23715980D03*
X74777600Y24516080D03*
D15*
X73284080Y26009600D03*
X72483980Y26009600D03*
X71683880Y26009600D03*
X70883780Y26009600D03*
X70086220Y26009600D03*
X69286120Y26009600D03*
X68486020Y26009600D03*
X67685920Y26009600D03*
%TD*%
D11*
%TO.C,C5*%
X75895200Y15367000D03*
X77795200Y15367000D03*
%TD*%
D10*
%TO.C,R6*%
X72517000Y31242000D03*
X72517000Y29342000D03*
%TD*%
D13*
%TO.C,SW1*%
X72288400Y10795000D03*
X72263000Y5969000D03*
%TD*%
D16*
%TO.C,C6*%
X59135000Y13970000D03*
X64135000Y13970000D03*
%TD*%
D10*
%TO.C,R4*%
X67945000Y12827000D03*
X67945000Y10927000D03*
%TD*%
D11*
%TO.C,R5*%
X41610200Y15494000D03*
X43510200Y15494000D03*
%TD*%
D10*
%TO.C,C4*%
X57785000Y27935000D03*
X57785000Y26035000D03*
%TD*%
D17*
%TO.C,D2*%
X77724000Y6477000D03*
X77724000Y8575040D03*
%TD*%
D11*
%TO.C,R2*%
X45928200Y29083000D03*
X47828200Y29083000D03*
%TD*%
%TO.C,R3*%
X44069000Y29083000D03*
X42169000Y29083000D03*
%TD*%
D10*
%TO.C,R8*%
X45560000Y24211200D03*
X45560000Y26111200D03*
%TD*%
%TO.C,R9*%
X53340000Y31745000D03*
X53340000Y29845000D03*
%TD*%
%TO.C,R10*%
X53340000Y26040000D03*
X53340000Y27940000D03*
%TD*%
%TO.C,R11*%
X63881000Y29977000D03*
X63881000Y31877000D03*
%TD*%
%TO.C,C2*%
X41750000Y21590000D03*
X41750000Y19690000D03*
%TD*%
D11*
%TO.C,C3*%
X44958000Y19558000D03*
X46858000Y19558000D03*
%TD*%
D18*
%TO.C,U1*%
X62865000Y25720000D03*
X62865000Y26670000D03*
X62865000Y27620000D03*
X60165000Y27620000D03*
X60165000Y25720000D03*
%TD*%
%TO.C,U2*%
X50800000Y25786000D03*
X50800000Y26736000D03*
X50800000Y27686000D03*
X48100000Y27686000D03*
X48100000Y25786000D03*
%TD*%
D19*
%TO.C,Y1*%
X51435000Y22225000D03*
X61087000Y22225000D03*
%TD*%
D20*
%TO.C,D4*%
X41280000Y24841200D03*
D21*
X42230000Y26841200D03*
D20*
X43180000Y24841200D03*
%TD*%
%TO.C,D1*%
X60071000Y29884620D03*
D21*
X61021000Y31884620D03*
D20*
X61971000Y29884620D03*
%TD*%
%TO.C,D3*%
X55880000Y29884620D03*
D21*
X56830000Y31884620D03*
D20*
X57780000Y29884620D03*
%TD*%
D11*
%TO.C,R12*%
X77089000Y34925000D03*
X75189000Y34925000D03*
%TD*%
%TO.C,R1*%
X47752000Y31750000D03*
X49652000Y31750000D03*
%TD*%
D10*
%TO.C,C11*%
X66294000Y29977000D03*
X66294000Y31877000D03*
%TD*%
D11*
%TO.C,C1*%
X43764200Y31750000D03*
X45664200Y31750000D03*
%TD*%
M02*
