%TF.GenerationSoftware,KiCad,Pcbnew,(5.1.10)-1*%
%TF.CreationDate,2021-07-19T16:15:12+01:00*%
%TF.ProjectId,WindSensorATMEGA328_PCB,57696e64-5365-46e7-936f-7241544d4547,rev?*%
%TF.SameCoordinates,PX5734380PY7df6180*%
%TF.FileFunction,Soldermask,Top*%
%TF.FilePolarity,Negative*%
%FSLAX46Y46*%
G04 Gerber Fmt 4.6, Leading zero omitted, Abs format (unit mm)*
G04 Created by KiCad (PCBNEW (5.1.10)-1) date 2021-07-19 16:15:12*
%MOMM*%
%LPD*%
G01*
G04 APERTURE LIST*
%ADD10C,2.399640*%
%ADD11C,3.400000*%
%ADD12C,1.700000*%
%ADD13C,2.232000*%
%ADD14C,2.699360*%
%ADD15C,1.800200*%
G04 APERTURE END LIST*
%TO.C,P9*%
G36*
G01*
X36033710Y22740290D02*
X38134290Y22740290D01*
G75*
G02*
X38234290Y22640290I0J-100000D01*
G01*
X38234290Y20539710D01*
G75*
G02*
X38134290Y20439710I-100000J0D01*
G01*
X36033710Y20439710D01*
G75*
G02*
X35933710Y20539710I0J100000D01*
G01*
X35933710Y22640290D01*
G75*
G02*
X36033710Y22740290I100000J0D01*
G01*
G37*
D10*
X36830000Y19050000D03*
X37084000Y16510000D03*
X36830000Y13970000D03*
X37084000Y11430000D03*
X36830000Y8890000D03*
%TD*%
D11*
%TO.C,P6*%
X38271000Y39368000D03*
X76271000Y39268000D03*
X76271000Y1268000D03*
X38271000Y1368000D03*
%TD*%
D12*
%TO.C,P10*%
X37671000Y27099000D03*
X37671000Y29099000D03*
X37671000Y31099000D03*
G36*
G01*
X36921000Y33949000D02*
X38421000Y33949000D01*
G75*
G02*
X38521000Y33849000I0J-100000D01*
G01*
X38521000Y32349000D01*
G75*
G02*
X38421000Y32249000I-100000J0D01*
G01*
X36921000Y32249000D01*
G75*
G02*
X36821000Y32349000I0J100000D01*
G01*
X36821000Y33849000D01*
G75*
G02*
X36921000Y33949000I100000J0D01*
G01*
G37*
%TD*%
%TO.C,P3*%
G36*
G01*
X75961000Y33944000D02*
X74461000Y33944000D01*
G75*
G02*
X74361000Y34044000I0J100000D01*
G01*
X74361000Y35044000D01*
G75*
G02*
X74461000Y35144000I100000J0D01*
G01*
X75961000Y35144000D01*
G75*
G02*
X76061000Y35044000I0J-100000D01*
G01*
X76061000Y34044000D01*
G75*
G02*
X75961000Y33944000I-100000J0D01*
G01*
G37*
G36*
G01*
X77712000Y33944000D02*
X76212000Y33944000D01*
G75*
G02*
X76112000Y34044000I0J100000D01*
G01*
X76112000Y35044000D01*
G75*
G02*
X76212000Y35144000I100000J0D01*
G01*
X77712000Y35144000D01*
G75*
G02*
X77812000Y35044000I0J-100000D01*
G01*
X77812000Y34044000D01*
G75*
G02*
X77712000Y33944000I-100000J0D01*
G01*
G37*
G36*
G01*
X75961000Y32547000D02*
X74461000Y32547000D01*
G75*
G02*
X74361000Y32647000I0J100000D01*
G01*
X74361000Y33647000D01*
G75*
G02*
X74461000Y33747000I100000J0D01*
G01*
X75961000Y33747000D01*
G75*
G02*
X76061000Y33647000I0J-100000D01*
G01*
X76061000Y32647000D01*
G75*
G02*
X75961000Y32547000I-100000J0D01*
G01*
G37*
G36*
G01*
X77712000Y32547000D02*
X76212000Y32547000D01*
G75*
G02*
X76112000Y32647000I0J100000D01*
G01*
X76112000Y33647000D01*
G75*
G02*
X76212000Y33747000I100000J0D01*
G01*
X77712000Y33747000D01*
G75*
G02*
X77812000Y33647000I0J-100000D01*
G01*
X77812000Y32647000D01*
G75*
G02*
X77712000Y32547000I-100000J0D01*
G01*
G37*
G36*
G01*
X75961000Y31150000D02*
X74461000Y31150000D01*
G75*
G02*
X74361000Y31250000I0J100000D01*
G01*
X74361000Y32250000D01*
G75*
G02*
X74461000Y32350000I100000J0D01*
G01*
X75961000Y32350000D01*
G75*
G02*
X76061000Y32250000I0J-100000D01*
G01*
X76061000Y31250000D01*
G75*
G02*
X75961000Y31150000I-100000J0D01*
G01*
G37*
G36*
G01*
X77712000Y31150000D02*
X76212000Y31150000D01*
G75*
G02*
X76112000Y31250000I0J100000D01*
G01*
X76112000Y32250000D01*
G75*
G02*
X76212000Y32350000I100000J0D01*
G01*
X77712000Y32350000D01*
G75*
G02*
X77812000Y32250000I0J-100000D01*
G01*
X77812000Y31250000D01*
G75*
G02*
X77712000Y31150000I-100000J0D01*
G01*
G37*
%TD*%
%TO.C,U4*%
G36*
G01*
X67965320Y25782600D02*
X67406520Y25782600D01*
G75*
G02*
X67306520Y25882600I0J100000D01*
G01*
X67306520Y27152600D01*
G75*
G02*
X67406520Y27252600I100000J0D01*
G01*
X67965320Y27252600D01*
G75*
G02*
X68065320Y27152600I0J-100000D01*
G01*
X68065320Y25882600D01*
G75*
G02*
X67965320Y25782600I-100000J0D01*
G01*
G37*
G36*
G01*
X68765420Y25782600D02*
X68206620Y25782600D01*
G75*
G02*
X68106620Y25882600I0J100000D01*
G01*
X68106620Y27152600D01*
G75*
G02*
X68206620Y27252600I100000J0D01*
G01*
X68765420Y27252600D01*
G75*
G02*
X68865420Y27152600I0J-100000D01*
G01*
X68865420Y25882600D01*
G75*
G02*
X68765420Y25782600I-100000J0D01*
G01*
G37*
G36*
G01*
X69565520Y25782600D02*
X69006720Y25782600D01*
G75*
G02*
X68906720Y25882600I0J100000D01*
G01*
X68906720Y27152600D01*
G75*
G02*
X69006720Y27252600I100000J0D01*
G01*
X69565520Y27252600D01*
G75*
G02*
X69665520Y27152600I0J-100000D01*
G01*
X69665520Y25882600D01*
G75*
G02*
X69565520Y25782600I-100000J0D01*
G01*
G37*
G36*
G01*
X70365620Y25782600D02*
X69806820Y25782600D01*
G75*
G02*
X69706820Y25882600I0J100000D01*
G01*
X69706820Y27152600D01*
G75*
G02*
X69806820Y27252600I100000J0D01*
G01*
X70365620Y27252600D01*
G75*
G02*
X70465620Y27152600I0J-100000D01*
G01*
X70465620Y25882600D01*
G75*
G02*
X70365620Y25782600I-100000J0D01*
G01*
G37*
G36*
G01*
X71163180Y25782600D02*
X70604380Y25782600D01*
G75*
G02*
X70504380Y25882600I0J100000D01*
G01*
X70504380Y27152600D01*
G75*
G02*
X70604380Y27252600I100000J0D01*
G01*
X71163180Y27252600D01*
G75*
G02*
X71263180Y27152600I0J-100000D01*
G01*
X71263180Y25882600D01*
G75*
G02*
X71163180Y25782600I-100000J0D01*
G01*
G37*
G36*
G01*
X71963280Y25782600D02*
X71404480Y25782600D01*
G75*
G02*
X71304480Y25882600I0J100000D01*
G01*
X71304480Y27152600D01*
G75*
G02*
X71404480Y27252600I100000J0D01*
G01*
X71963280Y27252600D01*
G75*
G02*
X72063280Y27152600I0J-100000D01*
G01*
X72063280Y25882600D01*
G75*
G02*
X71963280Y25782600I-100000J0D01*
G01*
G37*
G36*
G01*
X72763380Y25782600D02*
X72204580Y25782600D01*
G75*
G02*
X72104580Y25882600I0J100000D01*
G01*
X72104580Y27152600D01*
G75*
G02*
X72204580Y27252600I100000J0D01*
G01*
X72763380Y27252600D01*
G75*
G02*
X72863380Y27152600I0J-100000D01*
G01*
X72863380Y25882600D01*
G75*
G02*
X72763380Y25782600I-100000J0D01*
G01*
G37*
G36*
G01*
X73563480Y25782600D02*
X73004680Y25782600D01*
G75*
G02*
X72904680Y25882600I0J100000D01*
G01*
X72904680Y27152600D01*
G75*
G02*
X73004680Y27252600I100000J0D01*
G01*
X73563480Y27252600D01*
G75*
G02*
X73663480Y27152600I0J-100000D01*
G01*
X73663480Y25882600D01*
G75*
G02*
X73563480Y25782600I-100000J0D01*
G01*
G37*
G36*
G01*
X74042600Y24744680D02*
X74042600Y25303480D01*
G75*
G02*
X74142600Y25403480I100000J0D01*
G01*
X75412600Y25403480D01*
G75*
G02*
X75512600Y25303480I0J-100000D01*
G01*
X75512600Y24744680D01*
G75*
G02*
X75412600Y24644680I-100000J0D01*
G01*
X74142600Y24644680D01*
G75*
G02*
X74042600Y24744680I0J100000D01*
G01*
G37*
G36*
G01*
X74042600Y23944580D02*
X74042600Y24503380D01*
G75*
G02*
X74142600Y24603380I100000J0D01*
G01*
X75412600Y24603380D01*
G75*
G02*
X75512600Y24503380I0J-100000D01*
G01*
X75512600Y23944580D01*
G75*
G02*
X75412600Y23844580I-100000J0D01*
G01*
X74142600Y23844580D01*
G75*
G02*
X74042600Y23944580I0J100000D01*
G01*
G37*
G36*
G01*
X74042600Y23144480D02*
X74042600Y23703280D01*
G75*
G02*
X74142600Y23803280I100000J0D01*
G01*
X75412600Y23803280D01*
G75*
G02*
X75512600Y23703280I0J-100000D01*
G01*
X75512600Y23144480D01*
G75*
G02*
X75412600Y23044480I-100000J0D01*
G01*
X74142600Y23044480D01*
G75*
G02*
X74042600Y23144480I0J100000D01*
G01*
G37*
G36*
G01*
X74042600Y22344380D02*
X74042600Y22903180D01*
G75*
G02*
X74142600Y23003180I100000J0D01*
G01*
X75412600Y23003180D01*
G75*
G02*
X75512600Y22903180I0J-100000D01*
G01*
X75512600Y22344380D01*
G75*
G02*
X75412600Y22244380I-100000J0D01*
G01*
X74142600Y22244380D01*
G75*
G02*
X74042600Y22344380I0J100000D01*
G01*
G37*
G36*
G01*
X74042600Y21546820D02*
X74042600Y22105620D01*
G75*
G02*
X74142600Y22205620I100000J0D01*
G01*
X75412600Y22205620D01*
G75*
G02*
X75512600Y22105620I0J-100000D01*
G01*
X75512600Y21546820D01*
G75*
G02*
X75412600Y21446820I-100000J0D01*
G01*
X74142600Y21446820D01*
G75*
G02*
X74042600Y21546820I0J100000D01*
G01*
G37*
G36*
G01*
X74042600Y20746720D02*
X74042600Y21305520D01*
G75*
G02*
X74142600Y21405520I100000J0D01*
G01*
X75412600Y21405520D01*
G75*
G02*
X75512600Y21305520I0J-100000D01*
G01*
X75512600Y20746720D01*
G75*
G02*
X75412600Y20646720I-100000J0D01*
G01*
X74142600Y20646720D01*
G75*
G02*
X74042600Y20746720I0J100000D01*
G01*
G37*
G36*
G01*
X74042600Y19946620D02*
X74042600Y20505420D01*
G75*
G02*
X74142600Y20605420I100000J0D01*
G01*
X75412600Y20605420D01*
G75*
G02*
X75512600Y20505420I0J-100000D01*
G01*
X75512600Y19946620D01*
G75*
G02*
X75412600Y19846620I-100000J0D01*
G01*
X74142600Y19846620D01*
G75*
G02*
X74042600Y19946620I0J100000D01*
G01*
G37*
G36*
G01*
X74042600Y19146520D02*
X74042600Y19705320D01*
G75*
G02*
X74142600Y19805320I100000J0D01*
G01*
X75412600Y19805320D01*
G75*
G02*
X75512600Y19705320I0J-100000D01*
G01*
X75512600Y19146520D01*
G75*
G02*
X75412600Y19046520I-100000J0D01*
G01*
X74142600Y19046520D01*
G75*
G02*
X74042600Y19146520I0J100000D01*
G01*
G37*
G36*
G01*
X73563480Y17197400D02*
X73004680Y17197400D01*
G75*
G02*
X72904680Y17297400I0J100000D01*
G01*
X72904680Y18567400D01*
G75*
G02*
X73004680Y18667400I100000J0D01*
G01*
X73563480Y18667400D01*
G75*
G02*
X73663480Y18567400I0J-100000D01*
G01*
X73663480Y17297400D01*
G75*
G02*
X73563480Y17197400I-100000J0D01*
G01*
G37*
G36*
G01*
X72763380Y17197400D02*
X72204580Y17197400D01*
G75*
G02*
X72104580Y17297400I0J100000D01*
G01*
X72104580Y18567400D01*
G75*
G02*
X72204580Y18667400I100000J0D01*
G01*
X72763380Y18667400D01*
G75*
G02*
X72863380Y18567400I0J-100000D01*
G01*
X72863380Y17297400D01*
G75*
G02*
X72763380Y17197400I-100000J0D01*
G01*
G37*
G36*
G01*
X71963280Y17197400D02*
X71404480Y17197400D01*
G75*
G02*
X71304480Y17297400I0J100000D01*
G01*
X71304480Y18567400D01*
G75*
G02*
X71404480Y18667400I100000J0D01*
G01*
X71963280Y18667400D01*
G75*
G02*
X72063280Y18567400I0J-100000D01*
G01*
X72063280Y17297400D01*
G75*
G02*
X71963280Y17197400I-100000J0D01*
G01*
G37*
G36*
G01*
X71163180Y17197400D02*
X70604380Y17197400D01*
G75*
G02*
X70504380Y17297400I0J100000D01*
G01*
X70504380Y18567400D01*
G75*
G02*
X70604380Y18667400I100000J0D01*
G01*
X71163180Y18667400D01*
G75*
G02*
X71263180Y18567400I0J-100000D01*
G01*
X71263180Y17297400D01*
G75*
G02*
X71163180Y17197400I-100000J0D01*
G01*
G37*
G36*
G01*
X70365620Y17197400D02*
X69806820Y17197400D01*
G75*
G02*
X69706820Y17297400I0J100000D01*
G01*
X69706820Y18567400D01*
G75*
G02*
X69806820Y18667400I100000J0D01*
G01*
X70365620Y18667400D01*
G75*
G02*
X70465620Y18567400I0J-100000D01*
G01*
X70465620Y17297400D01*
G75*
G02*
X70365620Y17197400I-100000J0D01*
G01*
G37*
G36*
G01*
X69565520Y17197400D02*
X69006720Y17197400D01*
G75*
G02*
X68906720Y17297400I0J100000D01*
G01*
X68906720Y18567400D01*
G75*
G02*
X69006720Y18667400I100000J0D01*
G01*
X69565520Y18667400D01*
G75*
G02*
X69665520Y18567400I0J-100000D01*
G01*
X69665520Y17297400D01*
G75*
G02*
X69565520Y17197400I-100000J0D01*
G01*
G37*
G36*
G01*
X68765420Y17197400D02*
X68206620Y17197400D01*
G75*
G02*
X68106620Y17297400I0J100000D01*
G01*
X68106620Y18567400D01*
G75*
G02*
X68206620Y18667400I100000J0D01*
G01*
X68765420Y18667400D01*
G75*
G02*
X68865420Y18567400I0J-100000D01*
G01*
X68865420Y17297400D01*
G75*
G02*
X68765420Y17197400I-100000J0D01*
G01*
G37*
G36*
G01*
X67965320Y17197400D02*
X67406520Y17197400D01*
G75*
G02*
X67306520Y17297400I0J100000D01*
G01*
X67306520Y18567400D01*
G75*
G02*
X67406520Y18667400I100000J0D01*
G01*
X67965320Y18667400D01*
G75*
G02*
X68065320Y18567400I0J-100000D01*
G01*
X68065320Y17297400D01*
G75*
G02*
X67965320Y17197400I-100000J0D01*
G01*
G37*
G36*
G01*
X65457400Y19146520D02*
X65457400Y19705320D01*
G75*
G02*
X65557400Y19805320I100000J0D01*
G01*
X66827400Y19805320D01*
G75*
G02*
X66927400Y19705320I0J-100000D01*
G01*
X66927400Y19146520D01*
G75*
G02*
X66827400Y19046520I-100000J0D01*
G01*
X65557400Y19046520D01*
G75*
G02*
X65457400Y19146520I0J100000D01*
G01*
G37*
G36*
G01*
X65457400Y19946620D02*
X65457400Y20505420D01*
G75*
G02*
X65557400Y20605420I100000J0D01*
G01*
X66827400Y20605420D01*
G75*
G02*
X66927400Y20505420I0J-100000D01*
G01*
X66927400Y19946620D01*
G75*
G02*
X66827400Y19846620I-100000J0D01*
G01*
X65557400Y19846620D01*
G75*
G02*
X65457400Y19946620I0J100000D01*
G01*
G37*
G36*
G01*
X65457400Y20746720D02*
X65457400Y21305520D01*
G75*
G02*
X65557400Y21405520I100000J0D01*
G01*
X66827400Y21405520D01*
G75*
G02*
X66927400Y21305520I0J-100000D01*
G01*
X66927400Y20746720D01*
G75*
G02*
X66827400Y20646720I-100000J0D01*
G01*
X65557400Y20646720D01*
G75*
G02*
X65457400Y20746720I0J100000D01*
G01*
G37*
G36*
G01*
X65457400Y21546820D02*
X65457400Y22105620D01*
G75*
G02*
X65557400Y22205620I100000J0D01*
G01*
X66827400Y22205620D01*
G75*
G02*
X66927400Y22105620I0J-100000D01*
G01*
X66927400Y21546820D01*
G75*
G02*
X66827400Y21446820I-100000J0D01*
G01*
X65557400Y21446820D01*
G75*
G02*
X65457400Y21546820I0J100000D01*
G01*
G37*
G36*
G01*
X65457400Y22344380D02*
X65457400Y22903180D01*
G75*
G02*
X65557400Y23003180I100000J0D01*
G01*
X66827400Y23003180D01*
G75*
G02*
X66927400Y22903180I0J-100000D01*
G01*
X66927400Y22344380D01*
G75*
G02*
X66827400Y22244380I-100000J0D01*
G01*
X65557400Y22244380D01*
G75*
G02*
X65457400Y22344380I0J100000D01*
G01*
G37*
G36*
G01*
X65457400Y23144480D02*
X65457400Y23703280D01*
G75*
G02*
X65557400Y23803280I100000J0D01*
G01*
X66827400Y23803280D01*
G75*
G02*
X66927400Y23703280I0J-100000D01*
G01*
X66927400Y23144480D01*
G75*
G02*
X66827400Y23044480I-100000J0D01*
G01*
X65557400Y23044480D01*
G75*
G02*
X65457400Y23144480I0J100000D01*
G01*
G37*
G36*
G01*
X65457400Y23944580D02*
X65457400Y24503380D01*
G75*
G02*
X65557400Y24603380I100000J0D01*
G01*
X66827400Y24603380D01*
G75*
G02*
X66927400Y24503380I0J-100000D01*
G01*
X66927400Y23944580D01*
G75*
G02*
X66827400Y23844580I-100000J0D01*
G01*
X65557400Y23844580D01*
G75*
G02*
X65457400Y23944580I0J100000D01*
G01*
G37*
G36*
G01*
X65457400Y24744680D02*
X65457400Y25303480D01*
G75*
G02*
X65557400Y25403480I100000J0D01*
G01*
X66827400Y25403480D01*
G75*
G02*
X66927400Y25303480I0J-100000D01*
G01*
X66927400Y24744680D01*
G75*
G02*
X66827400Y24644680I-100000J0D01*
G01*
X65557400Y24644680D01*
G75*
G02*
X65457400Y24744680I0J100000D01*
G01*
G37*
%TD*%
%TO.C,C7*%
G36*
G01*
X77355000Y23919800D02*
X78855000Y23919800D01*
G75*
G02*
X78955000Y23819800I0J-100000D01*
G01*
X78955000Y22519800D01*
G75*
G02*
X78855000Y22419800I-100000J0D01*
G01*
X77355000Y22419800D01*
G75*
G02*
X77255000Y22519800I0J100000D01*
G01*
X77255000Y23819800D01*
G75*
G02*
X77355000Y23919800I100000J0D01*
G01*
G37*
G36*
G01*
X77355000Y25819800D02*
X78855000Y25819800D01*
G75*
G02*
X78955000Y25719800I0J-100000D01*
G01*
X78955000Y24419800D01*
G75*
G02*
X78855000Y24319800I-100000J0D01*
G01*
X77355000Y24319800D01*
G75*
G02*
X77255000Y24419800I0J100000D01*
G01*
X77255000Y25719800D01*
G75*
G02*
X77355000Y25819800I100000J0D01*
G01*
G37*
%TD*%
%TO.C,C8*%
G36*
G01*
X43930000Y1160000D02*
X42430000Y1160000D01*
G75*
G02*
X42330000Y1260000I0J100000D01*
G01*
X42330000Y2560000D01*
G75*
G02*
X42430000Y2660000I100000J0D01*
G01*
X43930000Y2660000D01*
G75*
G02*
X44030000Y2560000I0J-100000D01*
G01*
X44030000Y1260000D01*
G75*
G02*
X43930000Y1160000I-100000J0D01*
G01*
G37*
G36*
G01*
X43930000Y3060000D02*
X42430000Y3060000D01*
G75*
G02*
X42330000Y3160000I0J100000D01*
G01*
X42330000Y4460000D01*
G75*
G02*
X42430000Y4560000I100000J0D01*
G01*
X43930000Y4560000D01*
G75*
G02*
X44030000Y4460000I0J-100000D01*
G01*
X44030000Y3160000D01*
G75*
G02*
X43930000Y3060000I-100000J0D01*
G01*
G37*
%TD*%
%TO.C,C9*%
G36*
G01*
X51859800Y19165000D02*
X51859800Y17665000D01*
G75*
G02*
X51759800Y17565000I-100000J0D01*
G01*
X50459800Y17565000D01*
G75*
G02*
X50359800Y17665000I0J100000D01*
G01*
X50359800Y19165000D01*
G75*
G02*
X50459800Y19265000I100000J0D01*
G01*
X51759800Y19265000D01*
G75*
G02*
X51859800Y19165000I0J-100000D01*
G01*
G37*
G36*
G01*
X53759800Y19165000D02*
X53759800Y17665000D01*
G75*
G02*
X53659800Y17565000I-100000J0D01*
G01*
X52359800Y17565000D01*
G75*
G02*
X52259800Y17665000I0J100000D01*
G01*
X52259800Y19165000D01*
G75*
G02*
X52359800Y19265000I100000J0D01*
G01*
X53659800Y19265000D01*
G75*
G02*
X53759800Y19165000I0J-100000D01*
G01*
G37*
%TD*%
%TO.C,C10*%
G36*
G01*
X55130000Y17665000D02*
X55130000Y19165000D01*
G75*
G02*
X55230000Y19265000I100000J0D01*
G01*
X56530000Y19265000D01*
G75*
G02*
X56630000Y19165000I0J-100000D01*
G01*
X56630000Y17665000D01*
G75*
G02*
X56530000Y17565000I-100000J0D01*
G01*
X55230000Y17565000D01*
G75*
G02*
X55130000Y17665000I0J100000D01*
G01*
G37*
G36*
G01*
X57030000Y17665000D02*
X57030000Y19165000D01*
G75*
G02*
X57130000Y19265000I100000J0D01*
G01*
X58430000Y19265000D01*
G75*
G02*
X58530000Y19165000I0J-100000D01*
G01*
X58530000Y17665000D01*
G75*
G02*
X58430000Y17565000I-100000J0D01*
G01*
X57130000Y17565000D01*
G75*
G02*
X57030000Y17665000I0J100000D01*
G01*
G37*
%TD*%
%TO.C,P2*%
G36*
G01*
X48414000Y4699000D02*
X48414000Y6731000D01*
G75*
G02*
X48514000Y6831000I100000J0D01*
G01*
X50546000Y6831000D01*
G75*
G02*
X50646000Y6731000I0J-100000D01*
G01*
X50646000Y4699000D01*
G75*
G02*
X50546000Y4599000I-100000J0D01*
G01*
X48514000Y4599000D01*
G75*
G02*
X48414000Y4699000I0J100000D01*
G01*
G37*
D13*
X54610000Y5715000D03*
X59690000Y5715000D03*
X64770000Y5715000D03*
G36*
G01*
X53300000Y7076000D02*
X53300000Y8576000D01*
G75*
G02*
X53400000Y8676000I100000J0D01*
G01*
X54900000Y8676000D01*
G75*
G02*
X55000000Y8576000I0J-100000D01*
G01*
X55000000Y7076000D01*
G75*
G02*
X54900000Y6976000I-100000J0D01*
G01*
X53400000Y6976000D01*
G75*
G02*
X53300000Y7076000I0J100000D01*
G01*
G37*
D12*
X56150000Y7826000D03*
X58150000Y7826000D03*
X60150000Y7826000D03*
%TD*%
%TO.C,R7*%
G36*
G01*
X69635000Y29195000D02*
X69635000Y30495000D01*
G75*
G02*
X69735000Y30595000I100000J0D01*
G01*
X71235000Y30595000D01*
G75*
G02*
X71335000Y30495000I0J-100000D01*
G01*
X71335000Y29195000D01*
G75*
G02*
X71235000Y29095000I-100000J0D01*
G01*
X69735000Y29095000D01*
G75*
G02*
X69635000Y29195000I0J100000D01*
G01*
G37*
G36*
G01*
X69635000Y31095000D02*
X69635000Y32395000D01*
G75*
G02*
X69735000Y32495000I100000J0D01*
G01*
X71235000Y32495000D01*
G75*
G02*
X71335000Y32395000I0J-100000D01*
G01*
X71335000Y31095000D01*
G75*
G02*
X71235000Y30995000I-100000J0D01*
G01*
X69735000Y30995000D01*
G75*
G02*
X69635000Y31095000I0J100000D01*
G01*
G37*
%TD*%
%TO.C,SW2*%
G36*
G01*
X41346120Y13411000D02*
X43743880Y13411000D01*
G75*
G02*
X43843880Y13311000I0J-100000D01*
G01*
X43843880Y10311000D01*
G75*
G02*
X43743880Y10211000I-100000J0D01*
G01*
X41346120Y10211000D01*
G75*
G02*
X41246120Y10311000I0J100000D01*
G01*
X41246120Y13311000D01*
G75*
G02*
X41346120Y13411000I100000J0D01*
G01*
G37*
G36*
G01*
X41320720Y8585000D02*
X43718480Y8585000D01*
G75*
G02*
X43818480Y8485000I0J-100000D01*
G01*
X43818480Y5485000D01*
G75*
G02*
X43718480Y5385000I-100000J0D01*
G01*
X41320720Y5385000D01*
G75*
G02*
X41220720Y5485000I0J100000D01*
G01*
X41220720Y8485000D01*
G75*
G02*
X41320720Y8585000I100000J0D01*
G01*
G37*
%TD*%
%TO.C,Y1*%
G36*
G01*
X48668000Y21259800D02*
X48668000Y23190200D01*
G75*
G02*
X48768000Y23290200I100000J0D01*
G01*
X54102000Y23290200D01*
G75*
G02*
X54202000Y23190200I0J-100000D01*
G01*
X54202000Y21259800D01*
G75*
G02*
X54102000Y21159800I-100000J0D01*
G01*
X48768000Y21159800D01*
G75*
G02*
X48668000Y21259800I0J100000D01*
G01*
G37*
G36*
G01*
X58320000Y21259800D02*
X58320000Y23190200D01*
G75*
G02*
X58420000Y23290200I100000J0D01*
G01*
X63754000Y23290200D01*
G75*
G02*
X63854000Y23190200I0J-100000D01*
G01*
X63854000Y21259800D01*
G75*
G02*
X63754000Y21159800I-100000J0D01*
G01*
X58420000Y21159800D01*
G75*
G02*
X58320000Y21259800I0J100000D01*
G01*
G37*
%TD*%
%TO.C,C4*%
G36*
G01*
X58305000Y26785000D02*
X59805000Y26785000D01*
G75*
G02*
X59905000Y26685000I0J-100000D01*
G01*
X59905000Y25385000D01*
G75*
G02*
X59805000Y25285000I-100000J0D01*
G01*
X58305000Y25285000D01*
G75*
G02*
X58205000Y25385000I0J100000D01*
G01*
X58205000Y26685000D01*
G75*
G02*
X58305000Y26785000I100000J0D01*
G01*
G37*
G36*
G01*
X58305000Y28685000D02*
X59805000Y28685000D01*
G75*
G02*
X59905000Y28585000I0J-100000D01*
G01*
X59905000Y27285000D01*
G75*
G02*
X59805000Y27185000I-100000J0D01*
G01*
X58305000Y27185000D01*
G75*
G02*
X58205000Y27285000I0J100000D01*
G01*
X58205000Y28585000D01*
G75*
G02*
X58305000Y28685000I100000J0D01*
G01*
G37*
%TD*%
%TO.C,C5*%
G36*
G01*
X75145200Y15125000D02*
X75145200Y16625000D01*
G75*
G02*
X75245200Y16725000I100000J0D01*
G01*
X76545200Y16725000D01*
G75*
G02*
X76645200Y16625000I0J-100000D01*
G01*
X76645200Y15125000D01*
G75*
G02*
X76545200Y15025000I-100000J0D01*
G01*
X75245200Y15025000D01*
G75*
G02*
X75145200Y15125000I0J100000D01*
G01*
G37*
G36*
G01*
X77045200Y15125000D02*
X77045200Y16625000D01*
G75*
G02*
X77145200Y16725000I100000J0D01*
G01*
X78445200Y16725000D01*
G75*
G02*
X78545200Y16625000I0J-100000D01*
G01*
X78545200Y15125000D01*
G75*
G02*
X78445200Y15025000I-100000J0D01*
G01*
X77145200Y15025000D01*
G75*
G02*
X77045200Y15125000I0J100000D01*
G01*
G37*
%TD*%
%TO.C,C6*%
G36*
G01*
X60835000Y14770000D02*
X60835000Y13170000D01*
G75*
G02*
X60735000Y13070000I-100000J0D01*
G01*
X57535000Y13070000D01*
G75*
G02*
X57435000Y13170000I0J100000D01*
G01*
X57435000Y14770000D01*
G75*
G02*
X57535000Y14870000I100000J0D01*
G01*
X60735000Y14870000D01*
G75*
G02*
X60835000Y14770000I0J-100000D01*
G01*
G37*
G36*
G01*
X65835000Y14770000D02*
X65835000Y13170000D01*
G75*
G02*
X65735000Y13070000I-100000J0D01*
G01*
X62535000Y13070000D01*
G75*
G02*
X62435000Y13170000I0J100000D01*
G01*
X62435000Y14770000D01*
G75*
G02*
X62535000Y14870000I100000J0D01*
G01*
X65735000Y14870000D01*
G75*
G02*
X65835000Y14770000I0J-100000D01*
G01*
G37*
%TD*%
%TO.C,D2*%
G36*
G01*
X78423440Y9682480D02*
X78423440Y8483600D01*
G75*
G02*
X78323440Y8383600I-100000J0D01*
G01*
X77124560Y8383600D01*
G75*
G02*
X77024560Y8483600I0J100000D01*
G01*
X77024560Y9682480D01*
G75*
G02*
X77124560Y9782480I100000J0D01*
G01*
X78323440Y9782480D01*
G75*
G02*
X78423440Y9682480I0J-100000D01*
G01*
G37*
G36*
G01*
X78423440Y7584440D02*
X78423440Y6385560D01*
G75*
G02*
X78323440Y6285560I-100000J0D01*
G01*
X77124560Y6285560D01*
G75*
G02*
X77024560Y6385560I0J100000D01*
G01*
X77024560Y7584440D01*
G75*
G02*
X77124560Y7684440I100000J0D01*
G01*
X78323440Y7684440D01*
G75*
G02*
X78423440Y7584440I0J-100000D01*
G01*
G37*
%TD*%
%TO.C,R4*%
G36*
G01*
X67095000Y10785000D02*
X67095000Y12085000D01*
G75*
G02*
X67195000Y12185000I100000J0D01*
G01*
X68695000Y12185000D01*
G75*
G02*
X68795000Y12085000I0J-100000D01*
G01*
X68795000Y10785000D01*
G75*
G02*
X68695000Y10685000I-100000J0D01*
G01*
X67195000Y10685000D01*
G75*
G02*
X67095000Y10785000I0J100000D01*
G01*
G37*
G36*
G01*
X67095000Y12685000D02*
X67095000Y13985000D01*
G75*
G02*
X67195000Y14085000I100000J0D01*
G01*
X68695000Y14085000D01*
G75*
G02*
X68795000Y13985000I0J-100000D01*
G01*
X68795000Y12685000D01*
G75*
G02*
X68695000Y12585000I-100000J0D01*
G01*
X67195000Y12585000D01*
G75*
G02*
X67095000Y12685000I0J100000D01*
G01*
G37*
%TD*%
%TO.C,R5*%
G36*
G01*
X42260200Y14644000D02*
X40960200Y14644000D01*
G75*
G02*
X40860200Y14744000I0J100000D01*
G01*
X40860200Y16244000D01*
G75*
G02*
X40960200Y16344000I100000J0D01*
G01*
X42260200Y16344000D01*
G75*
G02*
X42360200Y16244000I0J-100000D01*
G01*
X42360200Y14744000D01*
G75*
G02*
X42260200Y14644000I-100000J0D01*
G01*
G37*
G36*
G01*
X44160200Y14644000D02*
X42860200Y14644000D01*
G75*
G02*
X42760200Y14744000I0J100000D01*
G01*
X42760200Y16244000D01*
G75*
G02*
X42860200Y16344000I100000J0D01*
G01*
X44160200Y16344000D01*
G75*
G02*
X44260200Y16244000I0J-100000D01*
G01*
X44260200Y14744000D01*
G75*
G02*
X44160200Y14644000I-100000J0D01*
G01*
G37*
%TD*%
%TO.C,R6*%
G36*
G01*
X72175000Y31095000D02*
X72175000Y32395000D01*
G75*
G02*
X72275000Y32495000I100000J0D01*
G01*
X73775000Y32495000D01*
G75*
G02*
X73875000Y32395000I0J-100000D01*
G01*
X73875000Y31095000D01*
G75*
G02*
X73775000Y30995000I-100000J0D01*
G01*
X72275000Y30995000D01*
G75*
G02*
X72175000Y31095000I0J100000D01*
G01*
G37*
G36*
G01*
X72175000Y29195000D02*
X72175000Y30495000D01*
G75*
G02*
X72275000Y30595000I100000J0D01*
G01*
X73775000Y30595000D01*
G75*
G02*
X73875000Y30495000I0J-100000D01*
G01*
X73875000Y29195000D01*
G75*
G02*
X73775000Y29095000I-100000J0D01*
G01*
X72275000Y29095000D01*
G75*
G02*
X72175000Y29195000I0J100000D01*
G01*
G37*
%TD*%
%TO.C,SW1*%
G36*
G01*
X71064120Y8077000D02*
X73461880Y8077000D01*
G75*
G02*
X73561880Y7977000I0J-100000D01*
G01*
X73561880Y4977000D01*
G75*
G02*
X73461880Y4877000I-100000J0D01*
G01*
X71064120Y4877000D01*
G75*
G02*
X70964120Y4977000I0J100000D01*
G01*
X70964120Y7977000D01*
G75*
G02*
X71064120Y8077000I100000J0D01*
G01*
G37*
G36*
G01*
X71089520Y12903000D02*
X73487280Y12903000D01*
G75*
G02*
X73587280Y12803000I0J-100000D01*
G01*
X73587280Y9803000D01*
G75*
G02*
X73487280Y9703000I-100000J0D01*
G01*
X71089520Y9703000D01*
G75*
G02*
X70989520Y9803000I0J100000D01*
G01*
X70989520Y12803000D01*
G75*
G02*
X71089520Y12903000I100000J0D01*
G01*
G37*
%TD*%
%TO.C,D3*%
G36*
G01*
X57604950Y31344620D02*
X57604950Y32345380D01*
G75*
G02*
X57704950Y32445380I100000J0D01*
G01*
X58505050Y32445380D01*
G75*
G02*
X58605050Y32345380I0J-100000D01*
G01*
X58605050Y31344620D01*
G75*
G02*
X58505050Y31244620I-100000J0D01*
G01*
X57704950Y31244620D01*
G75*
G02*
X57604950Y31344620I0J100000D01*
G01*
G37*
G36*
G01*
X58554950Y29395000D02*
X58554950Y30295000D01*
G75*
G02*
X58654950Y30395000I100000J0D01*
G01*
X59455050Y30395000D01*
G75*
G02*
X59555050Y30295000I0J-100000D01*
G01*
X59555050Y29395000D01*
G75*
G02*
X59455050Y29295000I-100000J0D01*
G01*
X58654950Y29295000D01*
G75*
G02*
X58554950Y29395000I0J100000D01*
G01*
G37*
G36*
G01*
X56654950Y29395000D02*
X56654950Y30295000D01*
G75*
G02*
X56754950Y30395000I100000J0D01*
G01*
X57555050Y30395000D01*
G75*
G02*
X57655050Y30295000I0J-100000D01*
G01*
X57655050Y29395000D01*
G75*
G02*
X57555050Y29295000I-100000J0D01*
G01*
X56754950Y29295000D01*
G75*
G02*
X56654950Y29395000I0J100000D01*
G01*
G37*
%TD*%
%TO.C,D4*%
G36*
G01*
X41729950Y28169620D02*
X41729950Y29170380D01*
G75*
G02*
X41829950Y29270380I100000J0D01*
G01*
X42630050Y29270380D01*
G75*
G02*
X42730050Y29170380I0J-100000D01*
G01*
X42730050Y28169620D01*
G75*
G02*
X42630050Y28069620I-100000J0D01*
G01*
X41829950Y28069620D01*
G75*
G02*
X41729950Y28169620I0J100000D01*
G01*
G37*
G36*
G01*
X42679950Y26220000D02*
X42679950Y27120000D01*
G75*
G02*
X42779950Y27220000I100000J0D01*
G01*
X43580050Y27220000D01*
G75*
G02*
X43680050Y27120000I0J-100000D01*
G01*
X43680050Y26220000D01*
G75*
G02*
X43580050Y26120000I-100000J0D01*
G01*
X42779950Y26120000D01*
G75*
G02*
X42679950Y26220000I0J100000D01*
G01*
G37*
G36*
G01*
X40779950Y26220000D02*
X40779950Y27120000D01*
G75*
G02*
X40879950Y27220000I100000J0D01*
G01*
X41680050Y27220000D01*
G75*
G02*
X41780050Y27120000I0J-100000D01*
G01*
X41780050Y26220000D01*
G75*
G02*
X41680050Y26120000I-100000J0D01*
G01*
X40879950Y26120000D01*
G75*
G02*
X40779950Y26220000I0J100000D01*
G01*
G37*
%TD*%
D14*
%TO.C,P11*%
X49784000Y36957000D03*
G36*
G01*
X43354320Y35707320D02*
X43354320Y38206680D01*
G75*
G02*
X43454320Y38306680I100000J0D01*
G01*
X45953680Y38306680D01*
G75*
G02*
X46053680Y38206680I0J-100000D01*
G01*
X46053680Y35707320D01*
G75*
G02*
X45953680Y35607320I-100000J0D01*
G01*
X43454320Y35607320D01*
G75*
G02*
X43354320Y35707320I0J100000D01*
G01*
G37*
X54864000Y36957000D03*
%TD*%
%TO.C,R2*%
G36*
G01*
X48280000Y30900000D02*
X46980000Y30900000D01*
G75*
G02*
X46880000Y31000000I0J100000D01*
G01*
X46880000Y32500000D01*
G75*
G02*
X46980000Y32600000I100000J0D01*
G01*
X48280000Y32600000D01*
G75*
G02*
X48380000Y32500000I0J-100000D01*
G01*
X48380000Y31000000D01*
G75*
G02*
X48280000Y30900000I-100000J0D01*
G01*
G37*
G36*
G01*
X50180000Y30900000D02*
X48880000Y30900000D01*
G75*
G02*
X48780000Y31000000I0J100000D01*
G01*
X48780000Y32500000D01*
G75*
G02*
X48880000Y32600000I100000J0D01*
G01*
X50180000Y32600000D01*
G75*
G02*
X50280000Y32500000I0J-100000D01*
G01*
X50280000Y31000000D01*
G75*
G02*
X50180000Y30900000I-100000J0D01*
G01*
G37*
%TD*%
%TO.C,R3*%
G36*
G01*
X46370000Y30900000D02*
X45070000Y30900000D01*
G75*
G02*
X44970000Y31000000I0J100000D01*
G01*
X44970000Y32500000D01*
G75*
G02*
X45070000Y32600000I100000J0D01*
G01*
X46370000Y32600000D01*
G75*
G02*
X46470000Y32500000I0J-100000D01*
G01*
X46470000Y31000000D01*
G75*
G02*
X46370000Y30900000I-100000J0D01*
G01*
G37*
G36*
G01*
X44470000Y30900000D02*
X43170000Y30900000D01*
G75*
G02*
X43070000Y31000000I0J100000D01*
G01*
X43070000Y32500000D01*
G75*
G02*
X43170000Y32600000I100000J0D01*
G01*
X44470000Y32600000D01*
G75*
G02*
X44570000Y32500000I0J-100000D01*
G01*
X44570000Y31000000D01*
G75*
G02*
X44470000Y30900000I-100000J0D01*
G01*
G37*
%TD*%
%TO.C,R8*%
G36*
G01*
X46570000Y29225000D02*
X46570000Y27925000D01*
G75*
G02*
X46470000Y27825000I-100000J0D01*
G01*
X44970000Y27825000D01*
G75*
G02*
X44870000Y27925000I0J100000D01*
G01*
X44870000Y29225000D01*
G75*
G02*
X44970000Y29325000I100000J0D01*
G01*
X46470000Y29325000D01*
G75*
G02*
X46570000Y29225000I0J-100000D01*
G01*
G37*
G36*
G01*
X46570000Y27325000D02*
X46570000Y26025000D01*
G75*
G02*
X46470000Y25925000I-100000J0D01*
G01*
X44970000Y25925000D01*
G75*
G02*
X44870000Y26025000I0J100000D01*
G01*
X44870000Y27325000D01*
G75*
G02*
X44970000Y27425000I100000J0D01*
G01*
X46470000Y27425000D01*
G75*
G02*
X46570000Y27325000I0J-100000D01*
G01*
G37*
%TD*%
%TO.C,R9*%
G36*
G01*
X52490000Y31095000D02*
X52490000Y32395000D01*
G75*
G02*
X52590000Y32495000I100000J0D01*
G01*
X54090000Y32495000D01*
G75*
G02*
X54190000Y32395000I0J-100000D01*
G01*
X54190000Y31095000D01*
G75*
G02*
X54090000Y30995000I-100000J0D01*
G01*
X52590000Y30995000D01*
G75*
G02*
X52490000Y31095000I0J100000D01*
G01*
G37*
G36*
G01*
X52490000Y29195000D02*
X52490000Y30495000D01*
G75*
G02*
X52590000Y30595000I100000J0D01*
G01*
X54090000Y30595000D01*
G75*
G02*
X54190000Y30495000I0J-100000D01*
G01*
X54190000Y29195000D01*
G75*
G02*
X54090000Y29095000I-100000J0D01*
G01*
X52590000Y29095000D01*
G75*
G02*
X52490000Y29195000I0J100000D01*
G01*
G37*
%TD*%
%TO.C,R10*%
G36*
G01*
X54190000Y26690000D02*
X54190000Y25390000D01*
G75*
G02*
X54090000Y25290000I-100000J0D01*
G01*
X52590000Y25290000D01*
G75*
G02*
X52490000Y25390000I0J100000D01*
G01*
X52490000Y26690000D01*
G75*
G02*
X52590000Y26790000I100000J0D01*
G01*
X54090000Y26790000D01*
G75*
G02*
X54190000Y26690000I0J-100000D01*
G01*
G37*
G36*
G01*
X54190000Y28590000D02*
X54190000Y27290000D01*
G75*
G02*
X54090000Y27190000I-100000J0D01*
G01*
X52590000Y27190000D01*
G75*
G02*
X52490000Y27290000I0J100000D01*
G01*
X52490000Y28590000D01*
G75*
G02*
X52590000Y28690000I100000J0D01*
G01*
X54090000Y28690000D01*
G75*
G02*
X54190000Y28590000I0J-100000D01*
G01*
G37*
%TD*%
%TO.C,R11*%
G36*
G01*
X47635000Y22645000D02*
X46335000Y22645000D01*
G75*
G02*
X46235000Y22745000I0J100000D01*
G01*
X46235000Y24245000D01*
G75*
G02*
X46335000Y24345000I100000J0D01*
G01*
X47635000Y24345000D01*
G75*
G02*
X47735000Y24245000I0J-100000D01*
G01*
X47735000Y22745000D01*
G75*
G02*
X47635000Y22645000I-100000J0D01*
G01*
G37*
G36*
G01*
X45735000Y22645000D02*
X44435000Y22645000D01*
G75*
G02*
X44335000Y22745000I0J100000D01*
G01*
X44335000Y24245000D01*
G75*
G02*
X44435000Y24345000I100000J0D01*
G01*
X45735000Y24345000D01*
G75*
G02*
X45835000Y24245000I0J-100000D01*
G01*
X45835000Y22745000D01*
G75*
G02*
X45735000Y22645000I-100000J0D01*
G01*
G37*
%TD*%
%TO.C,C2*%
G36*
G01*
X41160000Y23610000D02*
X42660000Y23610000D01*
G75*
G02*
X42760000Y23510000I0J-100000D01*
G01*
X42760000Y22210000D01*
G75*
G02*
X42660000Y22110000I-100000J0D01*
G01*
X41160000Y22110000D01*
G75*
G02*
X41060000Y22210000I0J100000D01*
G01*
X41060000Y23510000D01*
G75*
G02*
X41160000Y23610000I100000J0D01*
G01*
G37*
G36*
G01*
X41160000Y21710000D02*
X42660000Y21710000D01*
G75*
G02*
X42760000Y21610000I0J-100000D01*
G01*
X42760000Y20310000D01*
G75*
G02*
X42660000Y20210000I-100000J0D01*
G01*
X41160000Y20210000D01*
G75*
G02*
X41060000Y20310000I0J100000D01*
G01*
X41060000Y21610000D01*
G75*
G02*
X41160000Y21710000I100000J0D01*
G01*
G37*
%TD*%
%TO.C,C3*%
G36*
G01*
X46235000Y20205000D02*
X46235000Y21705000D01*
G75*
G02*
X46335000Y21805000I100000J0D01*
G01*
X47635000Y21805000D01*
G75*
G02*
X47735000Y21705000I0J-100000D01*
G01*
X47735000Y20205000D01*
G75*
G02*
X47635000Y20105000I-100000J0D01*
G01*
X46335000Y20105000D01*
G75*
G02*
X46235000Y20205000I0J100000D01*
G01*
G37*
G36*
G01*
X44335000Y20205000D02*
X44335000Y21705000D01*
G75*
G02*
X44435000Y21805000I100000J0D01*
G01*
X45735000Y21805000D01*
G75*
G02*
X45835000Y21705000I0J-100000D01*
G01*
X45835000Y20205000D01*
G75*
G02*
X45735000Y20105000I-100000J0D01*
G01*
X44435000Y20105000D01*
G75*
G02*
X44335000Y20205000I0J100000D01*
G01*
G37*
%TD*%
%TO.C,D1*%
G36*
G01*
X62049950Y31344620D02*
X62049950Y32345380D01*
G75*
G02*
X62149950Y32445380I100000J0D01*
G01*
X62950050Y32445380D01*
G75*
G02*
X63050050Y32345380I0J-100000D01*
G01*
X63050050Y31344620D01*
G75*
G02*
X62950050Y31244620I-100000J0D01*
G01*
X62149950Y31244620D01*
G75*
G02*
X62049950Y31344620I0J100000D01*
G01*
G37*
G36*
G01*
X62999950Y29395000D02*
X62999950Y30295000D01*
G75*
G02*
X63099950Y30395000I100000J0D01*
G01*
X63900050Y30395000D01*
G75*
G02*
X64000050Y30295000I0J-100000D01*
G01*
X64000050Y29395000D01*
G75*
G02*
X63900050Y29295000I-100000J0D01*
G01*
X63099950Y29295000D01*
G75*
G02*
X62999950Y29395000I0J100000D01*
G01*
G37*
G36*
G01*
X61099950Y29395000D02*
X61099950Y30295000D01*
G75*
G02*
X61199950Y30395000I100000J0D01*
G01*
X62000050Y30395000D01*
G75*
G02*
X62100050Y30295000I0J-100000D01*
G01*
X62100050Y29395000D01*
G75*
G02*
X62000050Y29295000I-100000J0D01*
G01*
X61199950Y29295000D01*
G75*
G02*
X61099950Y29395000I0J100000D01*
G01*
G37*
%TD*%
%TO.C,P8*%
X70104000Y36957000D03*
G36*
G01*
X58594320Y35707320D02*
X58594320Y38206680D01*
G75*
G02*
X58694320Y38306680I100000J0D01*
G01*
X61193680Y38306680D01*
G75*
G02*
X61293680Y38206680I0J-100000D01*
G01*
X61293680Y35707320D01*
G75*
G02*
X61193680Y35607320I-100000J0D01*
G01*
X58694320Y35607320D01*
G75*
G02*
X58594320Y35707320I0J100000D01*
G01*
G37*
X65024000Y36957000D03*
%TD*%
%TO.C,U1*%
G36*
G01*
X64635000Y27245000D02*
X63635000Y27245000D01*
G75*
G02*
X63535000Y27345000I0J100000D01*
G01*
X63535000Y27895000D01*
G75*
G02*
X63635000Y27995000I100000J0D01*
G01*
X64635000Y27995000D01*
G75*
G02*
X64735000Y27895000I0J-100000D01*
G01*
X64735000Y27345000D01*
G75*
G02*
X64635000Y27245000I-100000J0D01*
G01*
G37*
G36*
G01*
X64635000Y26295000D02*
X63635000Y26295000D01*
G75*
G02*
X63535000Y26395000I0J100000D01*
G01*
X63535000Y26945000D01*
G75*
G02*
X63635000Y27045000I100000J0D01*
G01*
X64635000Y27045000D01*
G75*
G02*
X64735000Y26945000I0J-100000D01*
G01*
X64735000Y26395000D01*
G75*
G02*
X64635000Y26295000I-100000J0D01*
G01*
G37*
G36*
G01*
X64635000Y25345000D02*
X63635000Y25345000D01*
G75*
G02*
X63535000Y25445000I0J100000D01*
G01*
X63535000Y25995000D01*
G75*
G02*
X63635000Y26095000I100000J0D01*
G01*
X64635000Y26095000D01*
G75*
G02*
X64735000Y25995000I0J-100000D01*
G01*
X64735000Y25445000D01*
G75*
G02*
X64635000Y25345000I-100000J0D01*
G01*
G37*
G36*
G01*
X61935000Y27245000D02*
X60935000Y27245000D01*
G75*
G02*
X60835000Y27345000I0J100000D01*
G01*
X60835000Y27895000D01*
G75*
G02*
X60935000Y27995000I100000J0D01*
G01*
X61935000Y27995000D01*
G75*
G02*
X62035000Y27895000I0J-100000D01*
G01*
X62035000Y27345000D01*
G75*
G02*
X61935000Y27245000I-100000J0D01*
G01*
G37*
G36*
G01*
X61935000Y25345000D02*
X60935000Y25345000D01*
G75*
G02*
X60835000Y25445000I0J100000D01*
G01*
X60835000Y25995000D01*
G75*
G02*
X60935000Y26095000I100000J0D01*
G01*
X61935000Y26095000D01*
G75*
G02*
X62035000Y25995000I0J-100000D01*
G01*
X62035000Y25445000D01*
G75*
G02*
X61935000Y25345000I-100000J0D01*
G01*
G37*
%TD*%
%TO.C,U2*%
G36*
G01*
X48760000Y26300000D02*
X47760000Y26300000D01*
G75*
G02*
X47660000Y26400000I0J100000D01*
G01*
X47660000Y26950000D01*
G75*
G02*
X47760000Y27050000I100000J0D01*
G01*
X48760000Y27050000D01*
G75*
G02*
X48860000Y26950000I0J-100000D01*
G01*
X48860000Y26400000D01*
G75*
G02*
X48760000Y26300000I-100000J0D01*
G01*
G37*
G36*
G01*
X48760000Y28200000D02*
X47760000Y28200000D01*
G75*
G02*
X47660000Y28300000I0J100000D01*
G01*
X47660000Y28850000D01*
G75*
G02*
X47760000Y28950000I100000J0D01*
G01*
X48760000Y28950000D01*
G75*
G02*
X48860000Y28850000I0J-100000D01*
G01*
X48860000Y28300000D01*
G75*
G02*
X48760000Y28200000I-100000J0D01*
G01*
G37*
G36*
G01*
X51460000Y26300000D02*
X50460000Y26300000D01*
G75*
G02*
X50360000Y26400000I0J100000D01*
G01*
X50360000Y26950000D01*
G75*
G02*
X50460000Y27050000I100000J0D01*
G01*
X51460000Y27050000D01*
G75*
G02*
X51560000Y26950000I0J-100000D01*
G01*
X51560000Y26400000D01*
G75*
G02*
X51460000Y26300000I-100000J0D01*
G01*
G37*
G36*
G01*
X51460000Y27250000D02*
X50460000Y27250000D01*
G75*
G02*
X50360000Y27350000I0J100000D01*
G01*
X50360000Y27900000D01*
G75*
G02*
X50460000Y28000000I100000J0D01*
G01*
X51460000Y28000000D01*
G75*
G02*
X51560000Y27900000I0J-100000D01*
G01*
X51560000Y27350000D01*
G75*
G02*
X51460000Y27250000I-100000J0D01*
G01*
G37*
G36*
G01*
X51460000Y28200000D02*
X50460000Y28200000D01*
G75*
G02*
X50360000Y28300000I0J100000D01*
G01*
X50360000Y28850000D01*
G75*
G02*
X50460000Y28950000I100000J0D01*
G01*
X51460000Y28950000D01*
G75*
G02*
X51560000Y28850000I0J-100000D01*
G01*
X51560000Y28300000D01*
G75*
G02*
X51460000Y28200000I-100000J0D01*
G01*
G37*
%TD*%
D15*
%TO.C,P4*%
X46355000Y15240000D03*
X46355000Y12700000D03*
X48895000Y15240000D03*
X48895000Y12700000D03*
X51435000Y15240000D03*
X51435000Y12700000D03*
%TD*%
M02*
