M48
; DRILL file {KiCad (5.1.10)-1} date 07/19/21 16:15:14
; FORMAT={-:-/ absolute / inch / decimal}
; #@! TF.CreationDate,2021-07-19T16:15:14+01:00
; #@! TF.GenerationSoftware,Kicad,Pcbnew,(5.1.10)-1
FMAT,2
INCH
T1C0.0157
T2C0.0315
T3C0.0394
T4C0.0394
T5C0.1260
%
G90
G05
T1
X1.905Y1.37
X1.925Y0.78
X2.035Y0.995
X2.145Y0.75
X2.1748Y1.0252
X2.19Y0.52
X2.2546Y1.105
X2.47Y0.75
X2.515Y0.9606
X2.54Y1.135
X2.5897Y0.6453
X2.615Y0.61
X2.665Y1.185
X2.695Y1.26
X2.695Y1.15
X2.73Y1.105
X2.7605Y1.097
X2.89Y0.61
X2.9Y0.555
X2.92Y1.115
X2.9294Y1.155
X2.945Y0.705
X2.985Y1.03
X3.015Y0.745
X3.025Y0.81
X3.03Y1.2
X3.04Y1.055
X3.05Y1.155
X3.0894Y1.245
X3.09Y1.36
X3.1Y0.81
T2
X1.4831Y1.3031
X1.4831Y1.2244
X1.4831Y1.1456
X1.4831Y1.0669
X2.1319Y0.3081
X2.2106Y0.3081
X2.2894Y0.3081
X2.3681Y0.3081
T3
X1.45Y0.75
X1.45Y0.55
X1.45Y0.35
X1.46Y0.85
X1.46Y0.65
X1.46Y0.45
T4
X1.76Y1.455
X1.825Y0.6
X1.825Y0.5
X1.925Y0.6
X1.925Y0.5
X1.95Y0.225
X1.96Y1.455
X2.025Y0.6
X2.025Y0.5
X2.15Y0.225
X2.16Y1.455
X2.35Y0.225
X2.36Y1.455
X2.55Y0.225
X2.56Y1.455
X2.76Y1.455
T5
X1.5067Y1.5499
X1.5067Y0.0539
X3.0028Y1.546
X3.0028Y0.0499
T0
M30
