%TF.GenerationSoftware,KiCad,Pcbnew,(5.1.10)-1*%
%TF.CreationDate,2021-08-07T17:36:13+01:00*%
%TF.ProjectId,WindSensorATMEGA328_PCB,57696e64-5365-46e7-936f-7241544d4547,rev?*%
%TF.SameCoordinates,PX5734380PY7df6180*%
%TF.FileFunction,Soldermask,Top*%
%TF.FilePolarity,Negative*%
%FSLAX46Y46*%
G04 Gerber Fmt 4.6, Leading zero omitted, Abs format (unit mm)*
G04 Created by KiCad (PCBNEW (5.1.10)-1) date 2021-08-07 17:36:14*
%MOMM*%
%LPD*%
G01*
G04 APERTURE LIST*
%ADD10R,2.100580X2.100580*%
%ADD11C,2.199640*%
%ADD12C,3.200000*%
%ADD13C,1.500000*%
%ADD14R,1.500000X1.500000*%
%ADD15R,1.500000X1.000000*%
%ADD16R,0.558800X1.270000*%
%ADD17R,1.270000X0.558800*%
%ADD18R,1.500000X1.300000*%
%ADD19R,1.300000X1.500000*%
%ADD20R,2.032000X2.032000*%
%ADD21C,2.032000*%
%ADD22R,2.397760X3.000000*%
%ADD23R,5.334000X1.930400*%
%ADD24R,3.200000X1.600000*%
%ADD25R,1.198880X1.198880*%
%ADD26C,2.499360*%
%ADD27R,2.499360X2.499360*%
%ADD28R,1.000000X0.550000*%
%ADD29C,1.600200*%
%ADD30R,0.800100X1.000760*%
%ADD31R,0.800100X0.900000*%
G04 APERTURE END LIST*
D10*
%TO.C,P9*%
X37084000Y21590000D03*
D11*
X36830000Y19050000D03*
X37084000Y16510000D03*
X36830000Y13970000D03*
X37084000Y11430000D03*
X36830000Y8890000D03*
%TD*%
D12*
%TO.C,P6*%
X38271000Y39368000D03*
X76271000Y39268000D03*
X76271000Y1268000D03*
X38271000Y1368000D03*
%TD*%
D13*
%TO.C,P10*%
X37671000Y27099000D03*
X37671000Y29099000D03*
X37671000Y31099000D03*
D14*
X37671000Y33099000D03*
%TD*%
D15*
%TO.C,P3*%
X75211000Y34544000D03*
X76962000Y34544000D03*
X75211000Y33147000D03*
X76962000Y33147000D03*
X75211000Y31750000D03*
X76962000Y31750000D03*
%TD*%
D16*
%TO.C,U4*%
X67685920Y26517600D03*
X68486020Y26517600D03*
X69286120Y26517600D03*
X70086220Y26517600D03*
X70883780Y26517600D03*
X71683880Y26517600D03*
X72483980Y26517600D03*
X73284080Y26517600D03*
D17*
X74777600Y25024080D03*
X74777600Y24223980D03*
X74777600Y23423880D03*
X74777600Y22623780D03*
X74777600Y21826220D03*
X74777600Y21026120D03*
X74777600Y20226020D03*
X74777600Y19425920D03*
D16*
X73284080Y17932400D03*
X72483980Y17932400D03*
X71683880Y17932400D03*
X70883780Y17932400D03*
X70086220Y17932400D03*
X69286120Y17932400D03*
X68486020Y17932400D03*
X67685920Y17932400D03*
D17*
X66192400Y19425920D03*
X66192400Y20226020D03*
X66192400Y21026120D03*
X66192400Y21826220D03*
X66192400Y22623780D03*
X66192400Y23423880D03*
X66192400Y24223980D03*
X66192400Y25024080D03*
%TD*%
D18*
%TO.C,C7*%
X78105000Y23169800D03*
X78105000Y25069800D03*
%TD*%
%TO.C,C8*%
X43180000Y1910000D03*
X43180000Y3810000D03*
%TD*%
D19*
%TO.C,C9*%
X51109800Y18415000D03*
X53009800Y18415000D03*
%TD*%
%TO.C,C10*%
X55880000Y18415000D03*
X57780000Y18415000D03*
%TD*%
D20*
%TO.C,P2*%
X49530000Y5715000D03*
D21*
X54610000Y5715000D03*
X59690000Y5715000D03*
X64770000Y5715000D03*
D14*
X54150000Y7826000D03*
D13*
X56150000Y7826000D03*
X58150000Y7826000D03*
X60150000Y7826000D03*
%TD*%
D18*
%TO.C,R7*%
X70485000Y29845000D03*
X70485000Y31745000D03*
%TD*%
D22*
%TO.C,SW2*%
X42545000Y11811000D03*
X42519600Y6985000D03*
%TD*%
D23*
%TO.C,Y1*%
X51435000Y22225000D03*
X61087000Y22225000D03*
%TD*%
D18*
%TO.C,C4*%
X59055000Y26035000D03*
X59055000Y27935000D03*
%TD*%
D19*
%TO.C,C5*%
X75895200Y15875000D03*
X77795200Y15875000D03*
%TD*%
D24*
%TO.C,C6*%
X59135000Y13970000D03*
X64135000Y13970000D03*
%TD*%
D25*
%TO.C,D2*%
X77724000Y9083040D03*
X77724000Y6985000D03*
%TD*%
D18*
%TO.C,R4*%
X67945000Y11435000D03*
X67945000Y13335000D03*
%TD*%
D19*
%TO.C,R5*%
X41610200Y15494000D03*
X43510200Y15494000D03*
%TD*%
D18*
%TO.C,R6*%
X73025000Y31745000D03*
X73025000Y29845000D03*
%TD*%
D22*
%TO.C,SW1*%
X72263000Y6477000D03*
X72288400Y11303000D03*
%TD*%
D26*
%TO.C,P11*%
X49784000Y36957000D03*
D27*
X44704000Y36957000D03*
D26*
X54864000Y36957000D03*
%TD*%
D19*
%TO.C,R2*%
X47630000Y31750000D03*
X49530000Y31750000D03*
%TD*%
%TO.C,R3*%
X45720000Y31750000D03*
X43820000Y31750000D03*
%TD*%
D18*
%TO.C,R8*%
X45720000Y28575000D03*
X45720000Y26675000D03*
%TD*%
%TO.C,R9*%
X53340000Y31745000D03*
X53340000Y29845000D03*
%TD*%
%TO.C,R10*%
X53340000Y26040000D03*
X53340000Y27940000D03*
%TD*%
D19*
%TO.C,R11*%
X46985000Y23495000D03*
X45085000Y23495000D03*
%TD*%
D18*
%TO.C,C2*%
X41910000Y22860000D03*
X41910000Y20960000D03*
%TD*%
D19*
%TO.C,C3*%
X46985000Y20955000D03*
X45085000Y20955000D03*
%TD*%
D26*
%TO.C,P8*%
X70104000Y36957000D03*
D27*
X59944000Y36957000D03*
D26*
X65024000Y36957000D03*
%TD*%
D28*
%TO.C,U1*%
X64135000Y27620000D03*
X64135000Y26670000D03*
X64135000Y25720000D03*
X61435000Y27620000D03*
X61435000Y25720000D03*
%TD*%
%TO.C,U2*%
X48260000Y26675000D03*
X48260000Y28575000D03*
X50960000Y26675000D03*
X50960000Y27625000D03*
X50960000Y28575000D03*
%TD*%
D29*
%TO.C,P4*%
X46355000Y15240000D03*
X46355000Y12700000D03*
X48895000Y15240000D03*
X48895000Y12700000D03*
X51435000Y15240000D03*
X51435000Y12700000D03*
%TD*%
D30*
%TO.C,D4*%
X42230000Y28670000D03*
D31*
X43180000Y26670000D03*
X41280000Y26670000D03*
%TD*%
D30*
%TO.C,D1*%
X63180000Y31884620D03*
D31*
X64130000Y29884620D03*
X62230000Y29884620D03*
%TD*%
%TO.C,D3*%
X57150000Y29884620D03*
X59050000Y29884620D03*
D30*
X58100000Y31884620D03*
%TD*%
M02*
