<?xml version="1.0" standalone="no"?>
 <!DOCTYPE svg PUBLIC "-//W3C//DTD SVG 1.1//EN" 
 "http://www.w3.org/Graphics/SVG/1.1/DTD/svg11.dtd"> 
<svg
  xmlns:svg="http://www.w3.org/2000/svg"
  xmlns="http://www.w3.org/2000/svg"
  xmlns:xlink="http://www.w3.org/1999/xlink"
  version="1.1"
  width="297.002200mm" height="210.007200mm" viewBox="0.000000 0.000000 297.002200 210.007200">
<title>SVG Image created as WindSensorATMEGA328_PCB-B_Cu.svg date 2024/11/20 10:17:24 </title>
  <desc>Image generated by PCBNEW </desc>
<g style="fill:#000000; fill-opacity:1.000000;stroke:#000000; stroke-opacity:1.000000;
stroke-linecap:round; stroke-linejoin:round;"
 transform="translate(0 0) scale(1 1)">
<path style="fill:#4D7FC4; fill-opacity:1.000000; stroke:none;fill-rule:evenodd;"
d="M 48.514000,-4.699000
48.514000,-6.731000
50.546000,-6.731000
50.546000,-4.699000
Z" /> 
<path style="fill:#4D7FC4; fill-opacity:1.000000; stroke:none;fill-rule:evenodd;"
d="M 53.400000,-7.076000
53.400000,-8.576000
54.900000,-8.576000
54.900000,-7.076000
Z" /> 
</g>
<g style="fill:#4D7FC4; fill-opacity:1.000000; stroke:none;">
<circle cx="54.610000" cy="-5.715000" r="1.016000" /> 
</g>
<g style="fill:#4D7FC4; fill-opacity:1.000000; stroke:none;">
<circle cx="56.150000" cy="-7.826000" r="0.750000" /> 
</g>
<g style="fill:#4D7FC4; fill-opacity:1.000000; stroke:none;">
<circle cx="58.150000" cy="-7.826000" r="0.750000" /> 
</g>
<g style="fill:#4D7FC4; fill-opacity:1.000000; stroke:none;">
<circle cx="59.690000" cy="-5.715000" r="1.016000" /> 
</g>
<g style="fill:#4D7FC4; fill-opacity:1.000000; stroke:none;">
<circle cx="60.150000" cy="-7.826000" r="0.750000" /> 
</g>
<g style="fill:#4D7FC4; fill-opacity:1.000000; stroke:none;">
<circle cx="64.770000" cy="-5.715000" r="1.016000" /> 
<path style="fill:#4D7FC4; fill-opacity:1.000000; stroke:none;fill-rule:evenodd;"
d="M 36.033710,-22.640290
38.134290,-22.640290
38.134290,-20.539710
36.033710,-20.539710
Z" /> 
</g>
<g style="fill:#4D7FC4; fill-opacity:1.000000; stroke:none;">
<circle cx="36.830000" cy="-19.050000" r="1.099820" /> 
</g>
<g style="fill:#4D7FC4; fill-opacity:1.000000; stroke:none;">
<circle cx="37.084000" cy="-16.510000" r="1.099820" /> 
</g>
<g style="fill:#4D7FC4; fill-opacity:1.000000; stroke:none;">
<circle cx="36.830000" cy="-13.970000" r="1.099820" /> 
</g>
<g style="fill:#4D7FC4; fill-opacity:1.000000; stroke:none;">
<circle cx="37.084000" cy="-11.430000" r="1.099820" /> 
</g>
<g style="fill:#4D7FC4; fill-opacity:1.000000; stroke:none;">
<circle cx="36.830000" cy="-8.890000" r="1.099820" /> 
<path style="fill:#4D7FC4; fill-opacity:1.000000; stroke:none;fill-rule:evenodd;"
d="M 36.921000,-33.849000
38.421000,-33.849000
38.421000,-32.349000
36.921000,-32.349000
Z" /> 
</g>
<g style="fill:#4D7FC4; fill-opacity:1.000000; stroke:none;">
<circle cx="37.671000" cy="-31.099000" r="0.750000" /> 
</g>
<g style="fill:#4D7FC4; fill-opacity:1.000000; stroke:none;">
<circle cx="37.671000" cy="-29.099000" r="0.750000" /> 
</g>
<g style="fill:#4D7FC4; fill-opacity:1.000000; stroke:none;">
<circle cx="37.671000" cy="-27.099000" r="0.750000" /> 
<path style="fill:#4D7FC4; fill-opacity:1.000000; stroke:none;fill-rule:evenodd;"
d="M 43.454320,-36.088320
43.454320,-38.587680
45.953680,-38.587680
45.953680,-36.088320
Z" /> 
</g>
<g style="fill:#4D7FC4; fill-opacity:1.000000; stroke:none;">
<circle cx="49.784000" cy="-37.338000" r="1.249680" /> 
</g>
<g style="fill:#4D7FC4; fill-opacity:1.000000; stroke:none;">
<circle cx="54.864000" cy="-37.338000" r="1.249680" /> 
<path style="fill:#4D7FC4; fill-opacity:1.000000; stroke:none;fill-rule:evenodd;"
d="M 58.694320,-36.088320
58.694320,-38.587680
61.193680,-38.587680
61.193680,-36.088320
Z" /> 
</g>
<g style="fill:#4D7FC4; fill-opacity:1.000000; stroke:none;">
<circle cx="65.024000" cy="-37.338000" r="1.249680" /> 
</g>
<g style="fill:#4D7FC4; fill-opacity:1.000000; stroke:none;">
<circle cx="70.104000" cy="-37.338000" r="1.249680" /> 
</g>
<g style="fill:#4D7FC4; fill-opacity:1.000000; stroke:none;">
<circle cx="51.435000" cy="-15.240000" r="0.800100" /> 
</g>
<g style="fill:#4D7FC4; fill-opacity:1.000000; stroke:none;">
<circle cx="51.435000" cy="-12.700000" r="0.800100" /> 
</g>
<g style="fill:#4D7FC4; fill-opacity:1.000000; stroke:none;">
<circle cx="48.895000" cy="-15.240000" r="0.800100" /> 
</g>
<g style="fill:#4D7FC4; fill-opacity:1.000000; stroke:none;">
<circle cx="48.895000" cy="-12.700000" r="0.800100" /> 
</g>
<g style="fill:#4D7FC4; fill-opacity:1.000000; stroke:none;">
<circle cx="46.355000" cy="-15.240000" r="0.800100" /> 
</g>
<g style="fill:#4D7FC4; fill-opacity:1.000000; stroke:none;">
<circle cx="46.355000" cy="-12.700000" r="0.800100" /> 
</g>
<g style="fill:#ECECEC; fill-opacity:1.000000; stroke:none;">
<circle cx="56.134000" cy="-28.067000" r="0.300000" /> 
</g>
<g style="fill:#ECECEC; fill-opacity:1.000000; stroke:none;">
<circle cx="48.387000" cy="-34.798000" r="0.300000" /> 
</g>
<g style="fill:#ECECEC; fill-opacity:1.000000; stroke:none;">
<circle cx="48.735000" cy="-18.542000" r="0.300000" /> 
</g>
<g style="fill:#ECECEC; fill-opacity:1.000000; stroke:none;">
<circle cx="75.438000" cy="-28.956000" r="0.300000" /> 
</g>
<g style="fill:#ECECEC; fill-opacity:1.000000; stroke:none;">
<circle cx="64.516000" cy="-28.321000" r="0.300000" /> 
</g>
<g style="fill:#ECECEC; fill-opacity:1.000000; stroke:none;">
<circle cx="74.803000" cy="-17.399000" r="0.300000" /> 
</g>
<g style="fill:#ECECEC; fill-opacity:1.000000; stroke:none;">
<circle cx="77.216000" cy="-26.289000" r="0.300000" /> 
</g>
<g style="fill:#ECECEC; fill-opacity:1.000000; stroke:none;">
<circle cx="54.483000" cy="-19.050000" r="0.300000" /> 
</g>
<g style="fill:#ECECEC; fill-opacity:1.000000; stroke:none;">
<circle cx="55.240000" cy="-26.040000" r="0.300000" /> 
</g>
<g style="fill:#ECECEC; fill-opacity:1.000000; stroke:none;">
<circle cx="61.849000" cy="-28.934618" r="0.300000" /> 
</g>
<g style="fill:#ECECEC; fill-opacity:1.000000; stroke:none;">
<circle cx="78.867000" cy="-36.576000" r="0.300000" /> 
</g>
<g style="fill:#ECECEC; fill-opacity:1.000000; stroke:none;">
<circle cx="76.835000" cy="-20.066000" r="0.300000" /> 
</g>
<g style="fill:#ECECEC; fill-opacity:1.000000; stroke:none;">
<circle cx="78.740000" cy="-20.066000" r="0.300000" /> 
</g>
<g style="fill:#ECECEC; fill-opacity:1.000000; stroke:none;">
<circle cx="77.851000" cy="-28.448000" r="0.300000" /> 
</g>
<g style="fill:#ECECEC; fill-opacity:1.000000; stroke:none;">
<circle cx="62.738000" cy="-19.050000" r="0.300000" /> 
</g>
<g style="fill:#ECECEC; fill-opacity:1.000000; stroke:none;">
<circle cx="70.115792" cy="-27.355903" r="0.300000" /> 
</g>
<g style="fill:#ECECEC; fill-opacity:1.000000; stroke:none;">
<circle cx="69.342000" cy="-27.559000" r="0.300000" /> 
</g>
<g style="fill:#ECECEC; fill-opacity:1.000000; stroke:none;">
<circle cx="68.453000" cy="-28.702000" r="0.300000" /> 
</g>
<g style="fill:#ECECEC; fill-opacity:1.000000; stroke:none;">
<circle cx="71.628000" cy="-28.067000" r="0.300000" /> 
</g>
<g style="fill:#ECECEC; fill-opacity:1.000000; stroke:none;">
<circle cx="68.453000" cy="-31.496000" r="0.300000" /> 
</g>
<g style="fill:#ECECEC; fill-opacity:1.000000; stroke:none;">
<circle cx="76.301600" cy="-29.108400" r="0.300000" /> 
</g>
<g style="fill:#ECECEC; fill-opacity:1.000000; stroke:none;">
<circle cx="75.819000" cy="-25.654000" r="0.300000" /> 
</g>
<g style="fill:#ECECEC; fill-opacity:1.000000; stroke:none;">
<circle cx="65.778899" cy="-15.882101" r="0.300000" /> 
</g>
<g style="fill:#ECECEC; fill-opacity:1.000000; stroke:none;">
<circle cx="76.581000" cy="-18.415000" r="0.300000" /> 
</g>
<g style="fill:#ECECEC; fill-opacity:1.000000; stroke:none;">
<circle cx="73.660000" cy="-13.589000" r="0.300000" /> 
</g>
<g style="fill:#ECECEC; fill-opacity:1.000000; stroke:none;">
<circle cx="55.626000" cy="-13.208000" r="0.300000" /> 
</g>
<g style="fill:#ECECEC; fill-opacity:1.000000; stroke:none;">
<circle cx="73.406000" cy="-14.986000" r="0.300000" /> 
</g>
<g style="fill:#ECECEC; fill-opacity:1.000000; stroke:none;">
<circle cx="66.421000" cy="-14.986000" r="0.300000" /> 
</g>
<g style="fill:#ECECEC; fill-opacity:1.000000; stroke:none;">
<circle cx="78.471000" cy="-30.226000" r="0.300000" /> 
</g>
<g style="fill:#ECECEC; fill-opacity:1.000000; stroke:none;">
<circle cx="78.486000" cy="-33.147000" r="0.300000" /> 
</g>
<g style="fill:#ECECEC; fill-opacity:1.000000; stroke:none;">
<circle cx="67.691000" cy="-29.591000" r="0.300000" /> 
</g>
<g style="fill:#ECECEC; fill-opacity:1.000000; stroke:none;">
<circle cx="51.816000" cy="-25.146000" r="0.300000" /> 
</g>
<g style="fill:#ECECEC; fill-opacity:1.000000; stroke:none;">
<circle cx="74.168000" cy="-27.813000" r="0.300000" /> 
</g>
<g style="fill:#ECECEC; fill-opacity:1.000000; stroke:none;">
<circle cx="64.262000" cy="-24.257000" r="0.300000" /> 
</g>
<g style="fill:none; 
stroke:#4D7FC4; stroke-width:0.300000; stroke-opacity:1; 
stroke-linecap:round; stroke-linejoin:round;">
<path d="M64.262000 -28.067000
L64.516000 -28.321000
" />
</g>
<g style="fill:none; 
stroke:#4D7FC4; stroke-width:0.500000; stroke-opacity:1; 
stroke-linecap:round; stroke-linejoin:round;">
<path d="M45.339000 -17.780000
L48.260000 -17.780000
" />
</g>
<g style="fill:none; 
stroke:#4D7FC4; stroke-width:0.300000; stroke-opacity:1; 
stroke-linecap:round; stroke-linejoin:round;">
<path d="M61.849000 -28.067000
L64.262000 -28.067000
" />
</g>
<g style="fill:none; 
stroke:#4D7FC4; stroke-width:0.500000; stroke-opacity:1; 
stroke-linecap:round; stroke-linejoin:round;">
<path d="M49.911000 -19.050000
L54.483000 -19.050000
" />
<path d="M77.101000 -29.833000
L77.101000 -26.404000
" />
<path d="M68.707000 -34.798000
L72.136000 -34.798000
" />
<path d="M49.530000 -19.050000
L49.911000 -19.050000
" />
<path d="M48.260000 -17.780000
L49.530000 -19.050000
" />
</g>
<g style="fill:none; 
stroke:#4D7FC4; stroke-width:0.300000; stroke-opacity:1; 
stroke-linecap:round; stroke-linejoin:round;">
<path d="M77.216000 -22.479000
L77.216000 -26.289000
" />
</g>
<g style="fill:none; 
stroke:#4D7FC4; stroke-width:0.500000; stroke-opacity:1; 
stroke-linecap:round; stroke-linejoin:round;">
<path d="M49.911000 -19.050000
L50.292000 -19.050000
" />
<path d="M54.483000 -34.798000
L54.864000 -35.179000
" />
<path d="M52.959000 -34.798000
L54.483000 -34.798000
" />
</g>
<g style="fill:none; 
stroke:#4D7FC4; stroke-width:0.300000; stroke-opacity:1; 
stroke-linecap:round; stroke-linejoin:round;">
<path d="M74.803000 -20.066000
L77.216000 -22.479000
" />
<path d="M57.267000 -28.067000
L61.468000 -28.067000
" />
</g>
<g style="fill:none; 
stroke:#4D7FC4; stroke-width:0.500000; stroke-opacity:1; 
stroke-linecap:round; stroke-linejoin:round;">
<path d="M77.101000 -26.404000
L77.216000 -26.289000
" />
</g>
<g style="fill:none; 
stroke:#4D7FC4; stroke-width:0.300000; stroke-opacity:1; 
stroke-linecap:round; stroke-linejoin:round;">
<path d="M77.216000 -26.289000
L77.201000 -26.304000
" />
<path d="M54.483000 -19.050000
L50.292000 -19.050000
" />
</g>
<g style="fill:none; 
stroke:#4D7FC4; stroke-width:0.500000; stroke-opacity:1; 
stroke-linecap:round; stroke-linejoin:round;">
<path d="M54.864000 -35.179000
L54.864000 -36.957000
" />
</g>
<g style="fill:none; 
stroke:#4D7FC4; stroke-width:0.300000; stroke-opacity:1; 
stroke-linecap:round; stroke-linejoin:round;">
<path d="M74.803000 -17.399000
L74.803000 -20.066000
" />
<path d="M56.134000 -28.067000
L61.849000 -28.067000
" />
</g>
<g style="fill:none; 
stroke:#4D7FC4; stroke-width:0.500000; stroke-opacity:1; 
stroke-linecap:round; stroke-linejoin:round;">
<path d="M70.104000 -35.433000
L70.104000 -36.957000
" />
</g>
<g style="fill:none; 
stroke:#4D7FC4; stroke-width:0.300000; stroke-opacity:1; 
stroke-linecap:round; stroke-linejoin:round;">
<path d="M61.849000 -28.067000
L61.849000 -28.934618
" />
<path d="M49.243000 -19.050000
L48.735000 -18.542000
" />
</g>
<g style="fill:none; 
stroke:#4D7FC4; stroke-width:0.500000; stroke-opacity:1; 
stroke-linecap:round; stroke-linejoin:round;">
<path d="M76.136500 -30.797500
L77.101000 -29.833000
" />
</g>
<g style="fill:none; 
stroke:#4D7FC4; stroke-width:0.300000; stroke-opacity:1; 
stroke-linecap:round; stroke-linejoin:round;">
<path d="M75.438000 -30.099000
L76.136500 -30.797500
" />
</g>
<g style="fill:none; 
stroke:#4D7FC4; stroke-width:0.500000; stroke-opacity:1; 
stroke-linecap:round; stroke-linejoin:round;">
<path d="M72.136000 -34.798000
L76.136500 -30.797500
" />
<path d="M45.212000 -12.700000
L44.323000 -13.589000
" />
<path d="M44.323000 -16.764000
L45.339000 -17.780000
" />
<path d="M52.959000 -34.798000
L68.707000 -34.798000
" />
</g>
<g style="fill:none; 
stroke:#4D7FC4; stroke-width:0.300000; stroke-opacity:1; 
stroke-linecap:round; stroke-linejoin:round;">
<path d="M55.240000 -27.173000
L56.134000 -28.067000
" />
</g>
<g style="fill:none; 
stroke:#4D7FC4; stroke-width:0.500000; stroke-opacity:1; 
stroke-linecap:round; stroke-linejoin:round;">
<path d="M69.469000 -34.798000
L70.104000 -35.433000
" />
</g>
<g style="fill:none; 
stroke:#4D7FC4; stroke-width:0.300000; stroke-opacity:1; 
stroke-linecap:round; stroke-linejoin:round;">
<path d="M50.292000 -19.050000
L49.243000 -19.050000
" />
</g>
<g style="fill:none; 
stroke:#4D7FC4; stroke-width:0.500000; stroke-opacity:1; 
stroke-linecap:round; stroke-linejoin:round;">
<path d="M44.323000 -13.589000
L44.323000 -16.764000
" />
</g>
<g style="fill:none; 
stroke:#4D7FC4; stroke-width:0.300000; stroke-opacity:1; 
stroke-linecap:round; stroke-linejoin:round;">
<path d="M55.240000 -26.040000
L55.240000 -27.173000
" />
</g>
<g style="fill:none; 
stroke:#4D7FC4; stroke-width:0.500000; stroke-opacity:1; 
stroke-linecap:round; stroke-linejoin:round;">
<path d="M68.707000 -34.798000
L69.469000 -34.798000
" />
<path d="M48.387000 -34.798000
L52.959000 -34.798000
" />
<path d="M46.355000 -12.700000
L45.212000 -12.700000
" />
</g>
<g style="fill:none; 
stroke:#4D7FC4; stroke-width:0.300000; stroke-opacity:1; 
stroke-linecap:round; stroke-linejoin:round;">
<path d="M75.438000 -28.956000
L75.438000 -30.099000
" />
</g>
<g style="fill:none; 
stroke:#4D7FC4; stroke-width:0.500000; stroke-opacity:1; 
stroke-linecap:round; stroke-linejoin:round;">
<path d="M78.740000 -27.559000
L77.851000 -28.448000
" />
<path d="M39.481000 -29.099000
L37.671000 -29.099000
" />
<path d="M58.150000 -6.366000
L58.150000 -7.826000
" />
<path d="M43.116500 -16.510000
L37.084000 -16.510000
" />
<path d="M74.422000 -3.810000
L78.740000 -8.128000
" />
<path d="M51.435000 -12.700000
L48.514000 -9.779000
" />
<path d="M44.450000 -40.005000
L59.055000 -40.005000
" />
</g>
<g style="fill:none; 
stroke:#4D7FC4; stroke-width:0.300000; stroke-opacity:1; 
stroke-linecap:round; stroke-linejoin:round;">
<path d="M78.867000 -36.576000
L79.136000 -36.307000
" />
</g>
<g style="fill:none; 
stroke:#4D7FC4; stroke-width:0.500000; stroke-opacity:1; 
stroke-linecap:round; stroke-linejoin:round;">
<path d="M44.704000 -39.751000
L44.450000 -40.005000
" />
<path d="M45.593000 -9.779000
L43.116500 -12.255500
" />
<path d="M59.690000 -5.715000
L61.595000 -3.810000
" />
<path d="M48.514000 -9.779000
L45.593000 -9.779000
" />
<path d="M43.116500 -16.510000
L43.116500 -25.463500
" />
</g>
<g style="fill:none; 
stroke:#4D7FC4; stroke-width:0.300000; stroke-opacity:1; 
stroke-linecap:round; stroke-linejoin:round;">
<path d="M79.136000 -36.307000
L79.136000 -27.955000
" />
</g>
<g style="fill:none; 
stroke:#4D7FC4; stroke-width:0.500000; stroke-opacity:1; 
stroke-linecap:round; stroke-linejoin:round;">
<path d="M37.671000 -29.099000
L36.306000 -29.099000
" />
<path d="M58.801000 -5.715000
L58.150000 -6.366000
" />
</g>
<g style="fill:none; 
stroke:#4D7FC4; stroke-width:0.300000; stroke-opacity:1; 
stroke-linecap:round; stroke-linejoin:round;">
<path d="M79.136000 -27.955000
L78.740000 -27.559000
" />
</g>
<g style="fill:none; 
stroke:#4D7FC4; stroke-width:0.500000; stroke-opacity:1; 
stroke-linecap:round; stroke-linejoin:round;">
<path d="M44.704000 -36.957000
L44.704000 -39.751000
" />
<path d="M36.306000 -29.099000
L35.941000 -29.464000
" />
<path d="M59.944000 -39.116000
L59.944000 -36.957000
" />
<path d="M38.862000 -35.179000
L43.688000 -40.005000
" />
<path d="M35.941000 -33.679002
L37.440998 -35.179000
" />
<path d="M61.595000 -3.810000
L74.422000 -3.810000
" />
<path d="M78.740000 -8.128000
L78.740000 -14.351000
" />
<path d="M43.116500 -12.255500
L43.116500 -16.510000
" />
<path d="M59.690000 -5.715000
L58.801000 -5.715000
" />
<path d="M76.835000 -20.066000
L78.740000 -20.066000
" />
<path d="M43.116500 -25.463500
L39.481000 -29.099000
" />
<path d="M78.740000 -14.351000
L78.740000 -20.447000
" />
<path d="M35.941000 -29.464000
L35.941000 -33.679002
" />
<path d="M43.688000 -40.005000
L44.450000 -40.005000
" />
<path d="M78.740000 -27.559000
L78.740000 -20.447000
" />
<path d="M59.055000 -40.005000
L59.944000 -39.116000
" />
<path d="M78.740000 -20.066000
L78.740000 -20.447000
" />
<path d="M37.440998 -35.179000
L38.862000 -35.179000
" />
</g>
<g style="fill:none; 
stroke:#4D7FC4; stroke-width:0.300000; stroke-opacity:1; 
stroke-linecap:round; stroke-linejoin:round;">
<path d="M70.104000 -27.358998
L70.112697 -27.358998
" />
<path d="M70.112697 -27.358998
L70.115792 -27.355903
" />
<path d="M62.738000 -19.050000
L62.738000 -23.667239
" />
<path d="M65.831260 -26.760499
L69.505501 -26.760499
" />
<path d="M69.505501 -26.760499
L70.104000 -27.358998
" />
<path d="M62.738000 -23.667239
L65.831260 -26.760499
" />
</g>
<g style="fill:none; 
stroke:#4D7FC4; stroke-width:0.500000; stroke-opacity:1; 
stroke-linecap:round; stroke-linejoin:round;">
<path d="M40.005000 -12.700000
L38.735000 -13.970000
" />
<path d="M40.005000 -8.636000
L40.005000 -12.700000
" />
<path d="M51.054000 -7.747000
L40.894000 -7.747000
" />
</g>
<g style="fill:none; 
stroke:#4D7FC4; stroke-width:0.300000; stroke-opacity:1; 
stroke-linecap:round; stroke-linejoin:round;">
<path d="M54.737000 -16.373344
L65.922655 -27.559000
" />
<path d="M65.922655 -27.559000
L69.342000 -27.559000
" />
<path d="M54.737000 -10.287000
L54.737000 -16.373344
" />
<path d="M56.150000 -8.874000
L54.737000 -10.287000
" />
<path d="M56.150000 -7.826000
L56.150000 -8.874000
" />
</g>
<g style="fill:none; 
stroke:#4D7FC4; stroke-width:0.500000; stroke-opacity:1; 
stroke-linecap:round; stroke-linejoin:round;">
<path d="M55.499000 -5.715000
L56.150000 -6.366000
" />
<path d="M40.894000 -7.747000
L40.005000 -8.636000
" />
<path d="M54.610000 -5.715000
L55.499000 -5.715000
" />
<path d="M38.735000 -13.970000
L36.830000 -13.970000
" />
<path d="M54.610000 -5.715000
L53.086000 -5.715000
" />
<path d="M53.086000 -5.715000
L51.054000 -7.747000
" />
<path d="M56.150000 -6.366000
L56.150000 -7.826000
" />
<path d="M49.530000 -5.715000
L40.767000 -5.715000
" />
<path d="M39.116000 -9.398000
L37.084000 -11.430000
" />
</g>
<g style="fill:none; 
stroke:#4D7FC4; stroke-width:0.300000; stroke-opacity:1; 
stroke-linecap:round; stroke-linejoin:round;">
<path d="M54.150000 -7.826000
L54.150000 -16.493452
" />
</g>
<g style="fill:none; 
stroke:#4D7FC4; stroke-width:0.500000; stroke-opacity:1; 
stroke-linecap:round; stroke-linejoin:round;">
<path d="M39.116000 -7.366000
L39.116000 -9.398000
" />
</g>
<g style="fill:none; 
stroke:#4D7FC4; stroke-width:0.300000; stroke-opacity:1; 
stroke-linecap:round; stroke-linejoin:round;">
<path d="M65.715548 -28.059000
L67.818000 -28.059000
" />
<path d="M54.150000 -16.493452
L65.715548 -28.059000
" />
<path d="M67.818000 -28.067000
L68.453000 -28.702000
" />
<path d="M67.818000 -28.059000
L67.818000 -28.067000
" />
</g>
<g style="fill:none; 
stroke:#4D7FC4; stroke-width:0.500000; stroke-opacity:1; 
stroke-linecap:round; stroke-linejoin:round;">
<path d="M40.767000 -5.715000
L39.116000 -7.366000
" />
</g>
<g style="fill:none; 
stroke:#4D7FC4; stroke-width:0.300000; stroke-opacity:1; 
stroke-linecap:round; stroke-linejoin:round;">
<path d="M39.909000 -31.099000
L40.767000 -30.241000
" />
<path d="M40.767000 -30.241000
L69.454000 -30.241000
" />
<path d="M37.671000 -31.099000
L39.909000 -31.099000
" />
<path d="M69.454000 -30.241000
L71.628000 -28.067000
" />
<path d="M37.671000 -33.099000
L38.862000 -33.099000
" />
<path d="M67.310000 -30.861000
L41.100000 -30.861000
" />
<path d="M68.453000 -31.496000
L67.945000 -31.496000
" />
<path d="M41.100000 -30.861000
L38.862000 -33.099000
" />
<path d="M67.945000 -31.496000
L67.310000 -30.861000
" />
<path d="M75.819000 -28.219400
L76.301600 -28.702000
" />
<path d="M75.819000 -25.654000
L75.819000 -28.219400
" />
<path d="M76.301600 -28.702000
L76.301600 -29.108400
" />
<path d="M75.191101 -15.882101
L76.581000 -17.272000
" />
<path d="M65.778899 -15.882101
L75.191101 -15.882101
" />
<path d="M76.581000 -17.272000
L76.581000 -18.415000
" />
<path d="M55.626000 -13.208000
L73.279000 -13.208000
" />
<path d="M73.279000 -13.208000
L73.660000 -13.589000
" />
<path d="M66.421000 -14.986000
L73.406000 -14.986000
" />
<path d="M78.471000 -33.132000
L78.486000 -33.147000
" />
<path d="M78.471000 -30.226000
L78.471000 -33.132000
" />
<path d="M56.007000 -29.591000
L67.691000 -29.591000
" />
<path d="M51.816000 -25.146000
L51.816000 -25.400000
" />
<path d="M51.816000 -25.400000
L56.007000 -29.591000
" />
<path d="M74.168000 -25.146000
L74.168000 -27.813000
" />
<path d="M64.262000 -24.257000
L64.643000 -23.876000
" />
<path d="M64.643000 -23.876000
L72.898000 -23.876000
" />
<path d="M72.898000 -23.876000
L74.168000 -25.146000
" />
<path style="fill:#4D7FC4; fill-opacity:1.000000; stroke:none;fill-rule:evenodd;"
d="M 76.434656,-42.748588
76.612904,-42.746090
76.625239,-42.745311
76.980323,-42.705302
76.994225,-42.702940
77.341745,-42.623621
77.355306,-42.619714
77.691744,-42.501989
77.704781,-42.496589
78.025928,-42.341933
78.038283,-42.335104
78.340087,-42.145468
78.351600,-42.137300
78.630284,-41.915057
78.640819,-41.905641
78.892840,-41.653620
78.902256,-41.643085
79.124495,-41.364407
79.132671,-41.352883
79.322300,-41.051090
79.329135,-41.038723
79.474309,-40.737265
79.483784,-40.717591
79.489191,-40.704537
79.606910,-40.368115
79.610822,-40.354538
79.690136,-40.007042
79.692503,-39.993111
79.732509,-39.638042
79.733289,-39.625701
79.735786,-39.447546
79.735798,-39.445619
79.732875,-37.154809
79.712786,-37.086714
79.659071,-37.040290
79.588784,-37.030275
79.524241,-37.059851
79.508353,-37.078404
79.507527,-37.077745
79.503111,-37.083282
79.374281,-37.212112
79.374279,-37.212113
79.220018,-37.309042
79.220015,-37.309043
79.048050,-37.369216
79.048049,-37.369217
79.048047,-37.369217
78.867000,-37.389616
78.685953,-37.369217
78.685950,-37.369217
78.685949,-37.369216
78.513984,-37.309043
78.513981,-37.309042
78.359720,-37.212113
78.359718,-37.212112
78.230888,-37.083282
78.230887,-37.083280
78.133958,-36.929019
78.133957,-36.929016
78.095223,-36.818318
78.073783,-36.757047
78.053384,-36.576000
78.073783,-36.394953
78.073783,-36.394951
78.073784,-36.394950
78.133957,-36.222985
78.133958,-36.222982
78.230887,-36.068721
78.230888,-36.068719
78.359716,-35.939891
78.359718,-35.939890
78.359719,-35.939889
78.409396,-35.908675
78.418535,-35.902933
78.465573,-35.849754
78.477500,-35.796245
78.477500,-34.072259
78.457498,-34.004138
78.403842,-33.957645
78.365612,-33.947052
78.304953,-33.940217
78.304950,-33.940217
78.304949,-33.940216
78.132984,-33.880043
78.132981,-33.880042
77.978720,-33.783113
77.978718,-33.783112
77.849888,-33.654282
77.849887,-33.654280
77.752958,-33.500019
77.752957,-33.500016
77.752957,-33.500015
77.692783,-33.328047
77.672384,-33.147000
77.692783,-32.965953
77.692783,-32.965951
77.692784,-32.965950
77.752956,-32.793986
77.752957,-32.793985
77.793187,-32.729960
77.812500,-32.662924
77.812500,-30.733950
77.793188,-30.666916
77.746500,-30.592612
77.737955,-30.579012
77.677784,-30.407051
77.677783,-30.407047
77.657384,-30.226000
77.677783,-30.044953
77.677783,-30.044951
77.677784,-30.044950
77.737957,-29.872985
77.737958,-29.872982
77.834887,-29.718721
77.834888,-29.718719
77.963718,-29.589889
77.963720,-29.589888
78.117981,-29.492959
78.117982,-29.492959
78.117985,-29.492957
78.289953,-29.432783
78.365610,-29.424259
78.431060,-29.396757
78.471253,-29.338233
78.477500,-29.299052
78.477500,-29.237182
78.457498,-29.169061
78.403842,-29.122568
78.333568,-29.112464
78.284465,-29.130494
78.204015,-29.181043
78.032050,-29.241216
78.032049,-29.241217
78.032047,-29.241217
77.851000,-29.261616
77.669953,-29.241217
77.669950,-29.241217
77.669949,-29.241216
77.497984,-29.181043
77.497981,-29.181042
77.343721,-29.084114
77.325821,-29.066214
77.263508,-29.032190
77.192692,-29.037256
77.135857,-29.079804
77.111520,-29.141201
77.094817,-29.289447
77.034643,-29.461415
77.034641,-29.461418
77.034641,-29.461419
76.937712,-29.615680
76.937711,-29.615682
76.808881,-29.744512
76.808879,-29.744513
76.654618,-29.841442
76.654615,-29.841443
76.482650,-29.901616
76.482649,-29.901617
76.482647,-29.901617
76.301600,-29.922016
76.120553,-29.901617
76.120550,-29.901617
76.120549,-29.901616
75.948584,-29.841443
75.948581,-29.841442
75.794320,-29.744513
75.794318,-29.744512
75.665488,-29.615682
75.665487,-29.615680
75.568558,-29.461419
75.568557,-29.461416
75.525412,-29.338112
75.508383,-29.289447
75.496169,-29.181043
75.487984,-29.108400
75.508383,-28.927346
75.509111,-28.924158
75.508981,-28.922041
75.509175,-28.920321
75.508873,-28.920288
75.504768,-28.853295
75.475366,-28.807028
75.307508,-28.639169
75.245287,-28.546046
75.245285,-28.546044
75.235446,-28.531320
75.185807,-28.411481
75.185806,-28.411478
75.160500,-28.284261
75.160500,-28.166112
75.140498,-28.097991
75.086842,-28.051498
75.016568,-28.041394
74.951988,-28.070888
74.915571,-28.124497
74.905976,-28.151917
74.901043,-28.166015
74.901041,-28.166018
74.901041,-28.166019
74.804112,-28.320280
74.804111,-28.320282
74.675281,-28.449112
74.675279,-28.449113
74.521018,-28.546042
74.521015,-28.546043
74.349050,-28.606216
74.349049,-28.606217
74.349047,-28.606217
74.168000,-28.626616
73.986953,-28.606217
73.986950,-28.606217
73.986949,-28.606216
73.814984,-28.546043
73.814981,-28.546042
73.660720,-28.449113
73.660718,-28.449112
73.531888,-28.320282
73.531887,-28.320280
73.434958,-28.166019
73.434957,-28.166016
73.378597,-28.004946
73.374783,-27.994047
73.354384,-27.813000
73.374783,-27.631953
73.374783,-27.631951
73.374784,-27.631950
73.434956,-27.459986
73.444643,-27.444570
73.490187,-27.372086
73.509500,-27.305052
73.509500,-25.470950
73.489498,-25.402829
73.472595,-25.381855
72.662145,-24.571405
72.599833,-24.537379
72.573050,-24.534500
65.110580,-24.534500
65.042459,-24.554502
64.997056,-24.605834
64.995044,-24.610011
64.995043,-24.610015
64.995039,-24.610022
64.900708,-24.760150
64.881402,-24.828471
64.902098,-24.896385
64.918295,-24.916276
66.067114,-26.065094
66.129426,-26.099120
66.156209,-26.101999
69.570358,-26.101999
69.697578,-26.127305
69.817418,-26.176944
69.925270,-26.249008
70.200421,-26.524161
70.262731,-26.558184
70.275408,-26.560272
70.296839,-26.562686
70.468807,-26.622860
70.623073,-26.719792
70.751903,-26.848622
70.848835,-27.002888
70.909009,-27.174856
70.927495,-27.338928
70.954997,-27.404377
71.013521,-27.444570
71.084485,-27.446743
71.119738,-27.431504
71.274981,-27.333959
71.274982,-27.333959
71.274985,-27.333957
71.446953,-27.273783
71.628000,-27.253384
71.809047,-27.273783
71.981015,-27.333957
72.135281,-27.430889
72.264111,-27.559719
72.361043,-27.713985
72.421217,-27.885953
72.441616,-28.067000
72.421217,-28.248047
72.361043,-28.420015
72.361041,-28.420018
72.361041,-28.420019
72.264112,-28.574280
72.264111,-28.574282
72.135281,-28.703112
72.135279,-28.703113
71.981018,-28.800042
71.981015,-28.800043
71.809049,-28.860217
71.809043,-28.860218
71.804389,-28.860742
71.738937,-28.888247
71.729405,-28.896854
70.805028,-29.821231
69.873769,-30.752491
69.765917,-30.824555
69.646080,-30.874193
69.646077,-30.874194
69.518860,-30.899500
69.518857,-30.899500
69.261031,-30.899500
69.192910,-30.919502
69.146417,-30.973158
69.136313,-31.043432
69.154344,-31.092537
69.186043,-31.142985
69.246217,-31.314953
69.266616,-31.496000
69.246217,-31.677047
69.186043,-31.849015
69.186041,-31.849018
69.186041,-31.849019
69.089112,-32.003280
69.089111,-32.003282
68.960281,-32.132112
68.960279,-32.132113
68.806018,-32.229042
68.806015,-32.229043
68.634050,-32.289216
68.634049,-32.289217
68.634047,-32.289217
68.453000,-32.309616
68.271953,-32.289217
68.271950,-32.289217
68.271949,-32.289216
68.099985,-32.229044
68.038057,-32.190132
68.012086,-32.173813
67.945051,-32.154500
67.880136,-32.154500
67.859036,-32.150303
67.859036,-32.150302
67.823337,-32.143202
67.752916,-32.129194
67.633087,-32.079558
67.633083,-32.079556
67.525232,-32.007492
67.525226,-32.007487
67.074145,-31.556405
67.011833,-31.522379
66.985050,-31.519500
41.424950,-31.519500
41.356829,-31.539502
41.335855,-31.556405
39.281773,-33.610487
39.281769,-33.610491
39.173917,-33.682555
39.054080,-33.732193
39.054072,-33.732196
39.030915,-33.736802
38.968007,-33.769711
38.932876,-33.831407
38.929500,-33.860380
38.929500,-33.897633
38.929499,-33.897650
38.922990,-33.958197
38.922988,-33.958205
38.871889,-34.095203
38.871887,-34.095208
38.779223,-34.218991
38.754412,-34.285511
38.769503,-34.354885
38.819705,-34.405087
38.880091,-34.420500
38.936706,-34.420500
39.022180,-34.437502
39.083247,-34.449649
39.221284,-34.506826
39.345515,-34.589834
42.730725,-37.975044
42.793037,-38.009070
42.863852,-38.004005
42.920688,-37.961458
42.945499,-37.894938
42.945820,-37.885949
42.945820,-36.039671
42.952329,-35.979124
42.952331,-35.979116
43.003430,-35.842118
43.003432,-35.842113
43.091058,-35.725059
43.208112,-35.637433
43.208114,-35.637432
43.208116,-35.637431
43.255965,-35.619584
43.345115,-35.586332
43.345123,-35.586330
43.405670,-35.579821
43.405675,-35.579821
43.405682,-35.579820
43.405688,-35.579820
46.002312,-35.579820
46.002318,-35.579820
46.002325,-35.579821
46.002329,-35.579821
46.062876,-35.586330
46.062879,-35.586331
46.062881,-35.586331
46.199884,-35.637431
46.279144,-35.696764
46.316941,-35.725059
46.404567,-35.842113
46.404567,-35.842114
46.404569,-35.842116
46.455669,-35.979119
46.462180,-36.039682
46.462180,-38.636318
46.462179,-38.636330
46.455670,-38.696877
46.455668,-38.696885
46.404569,-38.833883
46.404567,-38.833888
46.316941,-38.950942
46.225182,-39.019632
46.182635,-39.076468
46.177571,-39.147284
46.211596,-39.209596
46.273908,-39.243621
46.300691,-39.246500
49.170366,-39.246500
49.238487,-39.226498
49.284980,-39.172842
49.295084,-39.102568
49.265590,-39.037988
49.207505,-39.000098
49.139872,-38.979237
49.139859,-38.979232
48.902442,-38.864897
48.902435,-38.864893
48.684725,-38.716460
48.684720,-38.716456
48.491550,-38.537220
48.327247,-38.331192
48.195491,-38.102983
48.195489,-38.102979
48.099219,-37.857683
48.040582,-37.600782
48.020890,-37.338000
48.040582,-37.075219
48.073953,-36.929015
48.099220,-36.818314
48.123264,-36.757051
48.195489,-36.573022
48.195491,-36.573018
48.327247,-36.344809
48.327249,-36.344806
48.327250,-36.344805
48.491549,-36.138781
48.684719,-35.959545
48.684725,-35.959541
48.902435,-35.811108
48.902442,-35.811104
48.902445,-35.811102
48.991611,-35.768162
49.139859,-35.696769
49.139872,-35.696764
49.391660,-35.619098
49.391662,-35.619098
49.391671,-35.619095
49.652243,-35.579820
49.652248,-35.579820
49.915752,-35.579820
49.915757,-35.579820
50.176329,-35.619095
50.176339,-35.619098
50.428127,-35.696764
50.428129,-35.696766
50.428136,-35.696767
50.665555,-35.811102
50.666195,-35.811538
50.800246,-35.902933
50.883281,-35.959545
51.076451,-36.138781
51.240750,-36.344805
51.372507,-36.573015
51.468780,-36.818314
51.527418,-37.075222
51.547110,-37.338000
51.527418,-37.600778
51.468780,-37.857686
51.372591,-38.102772
51.372510,-38.102979
51.372508,-38.102983
51.362531,-38.120263
51.251422,-38.312711
51.240752,-38.331192
51.240750,-38.331195
51.076451,-38.537219
50.883281,-38.716455
50.883274,-38.716460
50.665564,-38.864893
50.665557,-38.864897
50.428140,-38.979232
50.428127,-38.979237
50.360495,-39.000098
50.301296,-39.039290
50.272684,-39.104266
50.283743,-39.174396
50.330961,-39.227414
50.397634,-39.246500
54.252065,-39.246500
54.320186,-39.226498
54.366679,-39.172842
54.376783,-39.102568
54.347289,-39.037988
54.289205,-39.000098
54.220038,-38.978763
53.982701,-38.864468
53.982693,-38.864463
53.812668,-38.748543
53.812668,-38.748541
54.738740,-37.822469
54.670860,-37.804280
54.556759,-37.738404
54.463596,-37.645241
54.397720,-37.531140
54.379531,-37.463260
53.453900,-38.388891
53.453898,-38.388891
53.407661,-38.330910
53.275945,-38.102772
53.275942,-38.102764
53.179700,-37.857542
53.179699,-37.857540
53.121078,-37.600707
53.101391,-37.338000
53.121078,-37.075294
53.179699,-36.818461
53.179700,-36.818459
53.275942,-36.573237
53.275945,-36.573229
53.407661,-36.345091
53.453899,-36.287111
53.453900,-36.287111
54.379531,-37.212742
54.397720,-37.144860
54.463596,-37.030759
54.556759,-36.937596
54.670860,-36.871720
54.738740,-36.853532
53.812668,-35.927461
53.812668,-35.927459
53.982693,-35.811538
53.982701,-35.811533
54.220038,-35.697238
54.471776,-35.619585
54.471784,-35.619584
54.732284,-35.580320
54.995716,-35.580320
55.256215,-35.619584
55.256223,-35.619585
55.507961,-35.697238
55.745299,-35.811533
55.745300,-35.811534
55.915331,-35.927460
54.989259,-36.853532
55.057140,-36.871720
55.171241,-36.937596
55.264404,-37.030759
55.330280,-37.144860
55.348468,-37.212741
56.274099,-36.287110
56.274100,-36.287111
56.320333,-36.345083
56.320338,-36.345091
56.452054,-36.573229
56.452057,-36.573237
56.548299,-36.818459
56.548300,-36.818461
56.606921,-37.075294
56.626608,-37.338000
56.606921,-37.600707
56.548300,-37.857540
56.548299,-37.857542
56.452057,-38.102764
56.452054,-38.102772
56.320338,-38.330910
56.320333,-38.330918
56.274100,-38.388891
56.274098,-38.388891
55.348468,-37.463261
55.330280,-37.531140
55.264404,-37.645241
55.171241,-37.738404
55.057140,-37.804280
54.989259,-37.822469
55.915330,-38.748541
55.915330,-38.748543
55.745307,-38.864463
55.745299,-38.864468
55.507961,-38.978763
55.438795,-39.000098
55.379597,-39.039291
55.350985,-39.104267
55.362044,-39.174397
55.409262,-39.227415
55.475935,-39.246500
58.347309,-39.246500
58.415430,-39.226498
58.461923,-39.172842
58.472027,-39.102568
58.442533,-39.037988
58.422818,-39.019632
58.331058,-38.950942
58.243432,-38.833888
58.243430,-38.833883
58.192331,-38.696885
58.192329,-38.696877
58.185820,-38.636330
58.185820,-36.039671
58.192329,-35.979124
58.192331,-35.979116
58.243430,-35.842118
58.243432,-35.842113
58.331058,-35.725059
58.448112,-35.637433
58.448114,-35.637432
58.448116,-35.637431
58.495965,-35.619584
58.585115,-35.586332
58.585123,-35.586330
58.645670,-35.579821
58.645675,-35.579821
58.645682,-35.579820
58.645688,-35.579820
61.242312,-35.579820
61.242318,-35.579820
61.242325,-35.579821
61.242329,-35.579821
61.302876,-35.586330
61.302879,-35.586331
61.302881,-35.586331
61.439884,-35.637431
61.519144,-35.696764
61.556941,-35.725059
61.644567,-35.842113
61.644567,-35.842114
61.644569,-35.842116
61.695669,-35.979119
61.702180,-36.039682
61.702180,-37.338000
63.260890,-37.338000
63.280582,-37.075219
63.313953,-36.929015
63.339220,-36.818314
63.363264,-36.757051
63.435489,-36.573022
63.435491,-36.573018
63.567247,-36.344809
63.567249,-36.344806
63.567250,-36.344805
63.731549,-36.138781
63.924719,-35.959545
63.924725,-35.959541
64.142435,-35.811108
64.142442,-35.811104
64.142445,-35.811102
64.231611,-35.768162
64.379859,-35.696769
64.379872,-35.696764
64.631660,-35.619098
64.631662,-35.619098
64.631671,-35.619095
64.892243,-35.579820
64.892248,-35.579820
65.155752,-35.579820
65.155757,-35.579820
65.416329,-35.619095
65.416339,-35.619098
65.668127,-35.696764
65.668129,-35.696766
65.668136,-35.696767
65.905555,-35.811102
65.906195,-35.811538
66.040246,-35.902933
66.123281,-35.959545
66.316451,-36.138781
66.480750,-36.344805
66.612507,-36.573015
66.708780,-36.818314
66.767418,-37.075222
66.787110,-37.338000
68.341391,-37.338000
68.361078,-37.075294
68.419699,-36.818461
68.419700,-36.818459
68.515942,-36.573237
68.515945,-36.573229
68.647661,-36.345091
68.693899,-36.287111
68.693900,-36.287111
69.619531,-37.212742
69.637720,-37.144860
69.703596,-37.030759
69.796759,-36.937596
69.910860,-36.871720
69.978740,-36.853532
69.052668,-35.927461
69.052668,-35.927459
69.222693,-35.811538
69.222701,-35.811533
69.460038,-35.697238
69.711776,-35.619585
69.711784,-35.619584
69.972284,-35.580320
70.235716,-35.580320
70.496215,-35.619584
70.496223,-35.619585
70.747961,-35.697238
70.985299,-35.811533
70.985300,-35.811534
71.155331,-35.927460
70.229259,-36.853532
70.297140,-36.871720
70.411241,-36.937596
70.504404,-37.030759
70.570280,-37.144860
70.588468,-37.212741
71.514099,-36.287110
71.514100,-36.287111
71.560333,-36.345083
71.560338,-36.345091
71.692054,-36.573229
71.692057,-36.573237
71.788299,-36.818459
71.788300,-36.818461
71.846921,-37.075294
71.866608,-37.338000
71.846921,-37.600707
71.788300,-37.857540
71.788299,-37.857542
71.692057,-38.102764
71.692054,-38.102772
71.560338,-38.330910
71.560333,-38.330918
71.514100,-38.388891
71.514098,-38.388891
70.588468,-37.463261
70.570280,-37.531140
70.504404,-37.645241
70.411241,-37.738404
70.297140,-37.804280
70.229259,-37.822469
71.155330,-38.748541
71.155330,-38.748543
70.985307,-38.864463
70.985299,-38.864468
70.747961,-38.978763
70.496223,-39.056416
70.496215,-39.056417
70.235716,-39.095680
69.972284,-39.095680
69.711784,-39.056417
69.711776,-39.056416
69.460038,-38.978763
69.222701,-38.864468
69.222693,-38.864463
69.052668,-38.748543
69.052668,-38.748541
69.978740,-37.822469
69.910860,-37.804280
69.796759,-37.738404
69.703596,-37.645241
69.637720,-37.531140
69.619531,-37.463260
68.693900,-38.388891
68.693898,-38.388891
68.647661,-38.330910
68.515945,-38.102772
68.515942,-38.102764
68.419700,-37.857542
68.419699,-37.857540
68.361078,-37.600707
68.341391,-37.338000
66.787110,-37.338000
66.767418,-37.600778
66.708780,-37.857686
66.612591,-38.102772
66.612510,-38.102979
66.612508,-38.102983
66.602531,-38.120263
66.491422,-38.312711
66.480752,-38.331192
66.480750,-38.331195
66.316451,-38.537219
66.123281,-38.716455
66.123274,-38.716460
65.905564,-38.864893
65.905557,-38.864897
65.668140,-38.979232
65.668127,-38.979237
65.416339,-39.056903
65.416331,-39.056905
65.416329,-39.056905
65.155757,-39.096180
64.892243,-39.096180
64.631671,-39.056905
64.631669,-39.056905
64.631660,-39.056903
64.379872,-38.979237
64.379859,-38.979232
64.142442,-38.864897
64.142435,-38.864893
63.924725,-38.716460
63.924720,-38.716456
63.731550,-38.537220
63.567247,-38.331192
63.435491,-38.102983
63.435489,-38.102979
63.339219,-37.857683
63.280582,-37.600782
63.260890,-37.338000
61.702180,-37.338000
61.702180,-38.636318
61.702179,-38.636330
61.695670,-38.696877
61.695668,-38.696885
61.644569,-38.833883
61.644567,-38.833888
61.556941,-38.950942
61.439887,-39.038568
61.439882,-39.038570
61.302884,-39.089669
61.302876,-39.089671
61.242329,-39.096180
61.242318,-39.096180
60.824708,-39.096180
60.756587,-39.116182
60.710094,-39.169838
60.701129,-39.197598
60.691974,-39.243621
60.673351,-39.337246
60.662148,-39.364291
74.476500,-39.364291
74.476500,-39.121710
74.508160,-38.881218
74.570944,-38.646905
74.570945,-38.646903
74.570946,-38.646900
74.663776,-38.422788
74.663777,-38.422787
74.663782,-38.422776
74.785061,-38.212715
74.785063,-38.212712
74.785064,-38.212711
74.932735,-38.020262
74.932739,-38.020258
74.932744,-38.020252
75.104251,-37.848745
75.104256,-37.848741
75.104262,-37.848735
75.296711,-37.701064
75.296714,-37.701062
75.506775,-37.579783
75.506779,-37.579782
75.506788,-37.579776
75.730900,-37.486946
75.965211,-37.424162
75.965215,-37.424162
75.965217,-37.424161
76.027202,-37.416001
76.205712,-37.392500
76.205719,-37.392500
76.448281,-37.392500
76.448288,-37.392500
76.665637,-37.421115
76.688782,-37.424161
76.688782,-37.424162
76.688789,-37.424162
76.923100,-37.486946
77.147212,-37.579776
77.357289,-37.701064
77.549738,-37.848735
77.721265,-38.020262
77.868936,-38.212711
77.990224,-38.422788
78.083054,-38.646900
78.145838,-38.881211
78.177500,-39.121712
78.177500,-39.364288
78.153999,-39.542798
78.145839,-39.604783
78.145838,-39.604785
78.145838,-39.604789
78.083054,-39.839100
77.990224,-40.063212
77.990218,-40.063221
77.990217,-40.063225
77.868938,-40.273286
77.868936,-40.273289
77.721265,-40.465738
77.721259,-40.465744
77.721255,-40.465749
77.549748,-40.637256
77.549742,-40.637261
77.549738,-40.637265
77.357289,-40.784936
77.357288,-40.784937
77.357285,-40.784939
77.147224,-40.906218
77.147216,-40.906222
77.147212,-40.906224
76.923100,-40.999054
76.923097,-40.999055
76.923095,-40.999056
76.688782,-41.061840
76.448290,-41.093500
76.448288,-41.093500
76.205712,-41.093500
76.205709,-41.093500
75.965217,-41.061840
75.730904,-40.999056
75.730900,-40.999054
75.506786,-40.906223
75.506775,-40.906218
75.296714,-40.784939
75.104262,-40.637265
75.104251,-40.637256
74.932744,-40.465749
74.932735,-40.465738
74.785061,-40.273286
74.663782,-40.063225
74.663777,-40.063214
74.570946,-39.839100
74.570944,-39.839096
74.508160,-39.604783
74.476500,-39.364291
60.662148,-39.364291
60.657856,-39.374653
60.640809,-39.415810
60.640797,-39.415837
60.628461,-39.445619
60.616174,-39.475284
60.533166,-39.599515
59.538515,-40.594166
59.414284,-40.677174
59.276247,-40.734351
59.202976,-40.748926
59.202975,-40.748927
59.129711,-40.763500
59.129706,-40.763500
44.524706,-40.763500
43.613294,-40.763500
43.613290,-40.763500
43.466753,-40.734351
43.466750,-40.734350
43.328716,-40.677174
43.204486,-40.594167
43.204480,-40.594162
38.584724,-35.974405
38.522412,-35.940379
38.495629,-35.937500
37.366288,-35.937500
37.221381,-35.908675
37.220824,-35.908565
37.219750,-35.908351
37.081714,-35.851174
36.957484,-35.768167
36.957478,-35.768162
35.351838,-34.162522
35.351833,-34.162516
35.268828,-34.038290
35.268826,-34.038288
35.268826,-34.038286
35.228205,-33.940217
35.228204,-33.940218
35.211650,-33.900253
35.211649,-33.900248
35.182500,-33.753712
35.182500,-29.389293
35.192681,-29.338112
35.211649,-29.242753
35.268826,-29.104716
35.351834,-28.980485
35.822485,-28.509834
35.946716,-28.426826
36.084753,-28.369649
36.158022,-28.355076
36.158023,-28.355075
36.172391,-28.352217
36.231294,-28.340500
36.231295,-28.340500
36.380705,-28.340500
36.600172,-28.340500
36.668293,-28.320498
36.699224,-28.290768
36.699713,-28.291178
36.703254,-28.286958
36.858957,-28.131255
36.858961,-28.131252
36.858962,-28.131251
37.039346,-28.004944
37.178328,-27.940136
37.214172,-27.915037
37.630209,-27.499000
37.618339,-27.499000
37.516606,-27.471741
37.425394,-27.419080
37.350920,-27.344606
37.298259,-27.253394
37.271000,-27.151661
37.271000,-27.139791
36.619801,-27.790990
36.577378,-27.730402
36.484352,-27.530908
36.484350,-27.530904
36.427380,-27.318288
36.408195,-27.099000
36.427380,-26.879713
36.484350,-26.667097
36.484352,-26.667093
36.577379,-26.467597
36.619800,-26.407013
37.271000,-27.058212
37.271000,-27.046339
37.298259,-26.944606
37.350920,-26.853394
37.425394,-26.778920
37.516606,-26.726259
37.618339,-26.699000
37.630210,-26.699000
36.979011,-26.047803
36.979011,-26.047802
37.039597,-26.005379
37.239092,-25.912353
37.239096,-25.912351
37.451712,-25.855381
37.671000,-25.836196
37.890287,-25.855381
38.102903,-25.912351
38.102907,-25.912353
38.302399,-26.005378
38.362987,-26.047803
38.362987,-26.047804
37.711791,-26.699000
37.723661,-26.699000
37.825394,-26.726259
37.916606,-26.778920
37.991080,-26.853394
38.043741,-26.944606
38.071000,-27.046339
38.071000,-27.058209
38.722196,-26.407013
38.722197,-26.407013
38.764622,-26.467601
38.857647,-26.667093
38.857649,-26.667097
38.914619,-26.879713
38.933804,-27.099000
38.914619,-27.318288
38.857649,-27.530904
38.857647,-27.530908
38.764619,-27.730406
38.722199,-27.790989
38.722197,-27.790989
38.071000,-27.139792
38.071000,-27.151661
38.043741,-27.253394
37.991080,-27.344606
37.916606,-27.419080
37.825394,-27.471741
37.723661,-27.499000
37.711790,-27.499000
38.127826,-27.915038
38.163667,-27.940134
38.302654,-28.004944
38.483038,-28.131251
38.638749,-28.286962
38.638752,-28.286967
38.642287,-28.291178
38.643186,-28.290423
38.694065,-28.331096
38.741828,-28.340500
39.114629,-28.340500
39.182750,-28.320498
39.203724,-28.303595
42.321095,-25.186224
42.355121,-25.123912
42.358000,-25.097129
42.358000,-17.394500
42.337998,-17.326379
42.284342,-17.279886
42.232000,-17.268500
38.576036,-17.268500
38.507915,-17.288502
38.468604,-17.328664
38.389181,-17.458270
38.389178,-17.458274
38.224770,-17.650771
38.045695,-17.803715
38.006885,-17.863165
38.006378,-17.934160
38.031714,-17.981357
38.134776,-18.102027
38.267008,-18.317810
38.363856,-18.551622
38.422935,-18.797705
38.442791,-19.050000
38.422935,-19.302296
38.363856,-19.548379
38.267008,-19.782191
38.214838,-19.867325
38.196300,-19.935859
38.217757,-20.003536
38.272396,-20.048869
38.278239,-20.051216
38.380255,-20.089266
38.497194,-20.176806
38.584734,-20.293745
38.584734,-20.293746
38.635784,-20.430617
38.642289,-20.491113
38.642290,-20.491125
38.642290,-21.336000
37.514703,-21.336000
37.549925,-21.397007
37.584000,-21.524174
37.584000,-21.655826
37.549925,-21.782993
37.514703,-21.844000
38.642290,-21.844000
38.642290,-22.688876
38.642289,-22.688888
38.635784,-22.749384
38.584734,-22.886255
38.584734,-22.886256
38.497194,-23.003195
38.380255,-23.090735
38.243383,-23.141785
38.182887,-23.148290
37.338000,-23.148290
37.338000,-22.020703
37.276993,-22.055925
37.149826,-22.090000
37.018174,-22.090000
36.891007,-22.055925
36.830000,-22.020703
36.830000,-23.148290
35.985112,-23.148290
35.924616,-23.141785
35.787745,-23.090735
35.787744,-23.090735
35.670805,-23.003195
35.583265,-22.886256
35.583265,-22.886255
35.532215,-22.749384
35.525710,-22.688888
35.525710,-21.844000
36.653297,-21.844000
36.618075,-21.782993
36.584000,-21.655826
36.584000,-21.524174
36.618075,-21.397007
36.653297,-21.336000
35.525710,-21.336000
35.525710,-20.491113
35.532215,-20.430617
35.583265,-20.293746
35.583265,-20.293745
35.613740,-20.253036
35.638551,-20.186516
35.623460,-20.117142
35.608684,-20.095698
35.525229,-19.997984
35.525227,-19.997980
35.392991,-19.782191
35.296143,-19.548379
35.237064,-19.302296
35.217208,-19.050000
35.237064,-18.797705
35.296143,-18.551622
35.392991,-18.317810
35.524308,-18.103520
35.524309,-18.103520
36.345841,-18.925053
36.364075,-18.857007
36.429901,-18.742993
36.522993,-18.649901
36.637007,-18.584075
36.705050,-18.565843
35.883518,-17.744311
35.885808,-17.724961
35.896999,-17.712592
35.908609,-17.642551
35.880508,-17.577353
35.879346,-17.575973
35.778821,-17.458274
35.778820,-17.458272
35.646544,-17.242419
35.549666,-17.008534
35.500892,-16.805374
35.490569,-16.762375
35.470707,-16.510000
35.490569,-16.257625
35.495972,-16.235120
35.549666,-16.011467
35.597163,-15.896800
35.646545,-15.777580
35.778819,-15.561730
35.881905,-15.441032
35.910936,-15.376243
35.900331,-15.306043
35.867925,-15.263391
35.689227,-15.110768
35.524821,-14.918274
35.524820,-14.918272
35.392544,-14.702419
35.295666,-14.468534
35.243912,-14.252959
35.236569,-14.222375
35.216707,-13.970000
35.236569,-13.717625
35.255239,-13.639858
35.295666,-13.471467
35.381194,-13.264985
35.392545,-13.237580
35.488057,-13.081719
35.524820,-13.021729
35.524821,-13.021727
35.689226,-12.829233
35.734784,-12.790323
35.840538,-12.700000
35.867925,-12.676610
35.906734,-12.617159
35.907240,-12.546165
35.881905,-12.498969
35.778821,-12.378274
35.778820,-12.378272
35.646544,-12.162419
35.549666,-11.928534
35.493295,-11.693729
35.490569,-11.682375
35.470707,-11.430000
35.475882,-11.364238
35.490569,-11.177626
35.549666,-10.931467
35.558015,-10.911312
35.646545,-10.697580
35.778819,-10.481730
35.881905,-10.361032
35.910936,-10.296243
35.900331,-10.226043
35.867925,-10.183391
35.689227,-10.030768
35.524821,-9.838274
35.524820,-9.838272
35.392544,-9.622419
35.295666,-9.388534
35.236570,-9.142379
35.236569,-9.142375
35.216707,-8.890000
35.236536,-8.638038
35.236569,-8.637626
35.295666,-8.391467
35.375496,-8.198741
35.392545,-8.157580
35.524454,-7.942325
35.524820,-7.941729
35.524821,-7.941727
35.689229,-7.749230
35.881726,-7.584822
35.881730,-7.584819
36.097580,-7.452545
36.331465,-7.355667
36.577625,-7.296569
36.830000,-7.276707
37.082375,-7.296569
37.328535,-7.355667
37.562420,-7.452545
37.778270,-7.584819
37.970770,-7.749230
38.135181,-7.941730
38.135181,-7.941731
38.135689,-7.942325
38.195139,-7.981135
38.266134,-7.981642
38.326133,-7.943685
38.356086,-7.879317
38.357500,-7.860495
38.357500,-7.291293
38.376784,-7.194346
38.386649,-7.144753
38.443826,-7.006716
38.526834,-6.882485
40.283485,-5.125834
40.407716,-5.042826
40.545754,-4.985649
40.692294,-4.956500
40.692295,-4.956500
40.841705,-4.956500
47.879500,-4.956500
47.947621,-4.936498
47.994114,-4.882842
48.005500,-4.830500
48.005500,-4.650351
48.012009,-4.589804
48.012011,-4.589796
48.063110,-4.452798
48.063112,-4.452793
48.150738,-4.335739
48.267792,-4.248113
48.267794,-4.248112
48.267796,-4.248111
48.325557,-4.226567
48.404795,-4.197012
48.404803,-4.197010
48.465350,-4.190501
48.465355,-4.190501
48.465362,-4.190500
48.465368,-4.190500
50.594632,-4.190500
50.594638,-4.190500
50.594645,-4.190501
50.594649,-4.190501
50.655196,-4.197010
50.655199,-4.197011
50.655201,-4.197011
50.792204,-4.248111
50.909261,-4.335739
50.996889,-4.452796
51.047989,-4.589799
51.054500,-4.650362
51.054500,-6.369629
51.074502,-6.437750
51.128158,-6.484243
51.198432,-6.494347
51.263012,-6.464853
51.269595,-6.458724
52.602485,-5.125834
52.726716,-5.042826
52.864753,-4.985649
52.938022,-4.971076
52.938023,-4.971075
52.952598,-4.968176
53.011294,-4.956500
53.011295,-4.956500
53.160705,-4.956500
53.216270,-4.956500
53.284391,-4.936498
53.323702,-4.896335
53.372834,-4.816159
53.372836,-4.816157
53.372840,-4.816151
53.528682,-4.633682
53.711151,-4.477840
53.915751,-4.352460
54.137447,-4.260631
54.370778,-4.204613
54.610000,-4.185786
54.849222,-4.204613
55.082553,-4.260631
55.304249,-4.352460
55.508849,-4.477840
55.691318,-4.633682
55.847160,-4.816151
55.972540,-5.020751
56.030200,-5.159958
56.057509,-5.200830
56.739166,-5.882485
56.822174,-6.006715
56.879351,-6.144753
56.908500,-6.291295
56.908500,-6.440705
56.908500,-6.755173
56.928502,-6.823294
56.958238,-6.854230
56.957828,-6.854719
56.962029,-6.858246
56.962038,-6.858251
57.010319,-6.906532
57.060905,-6.957117
57.123217,-6.991143
57.194032,-6.986078
57.239095,-6.957117
57.337954,-6.858258
57.342172,-6.854719
57.341416,-6.853819
57.382094,-6.802942
57.391500,-6.755173
57.391500,-6.291293
57.413383,-6.181280
57.420649,-6.144753
57.477826,-6.006716
57.560834,-5.882485
57.560838,-5.882481
58.242485,-5.200834
58.269799,-5.159957
58.327460,-5.020751
58.452840,-4.816151
58.608682,-4.633682
58.791151,-4.477840
58.995751,-4.352460
59.217447,-4.260631
59.450778,-4.204613
59.690000,-4.185786
59.929222,-4.204613
60.020665,-4.226567
60.091573,-4.223021
60.139175,-4.193144
61.111485,-3.220834
61.235716,-3.137826
61.373753,-3.080649
61.447022,-3.066076
61.447023,-3.066075
61.461598,-3.063176
61.520294,-3.051500
61.520295,-3.051500
61.520299,-3.051500
74.496701,-3.051500
74.496705,-3.051500
74.496706,-3.051500
74.569976,-3.066075
74.643247,-3.080649
74.781284,-3.137826
74.905515,-3.220834
79.213140,-7.528462
79.213145,-7.528465
79.223514,-7.538835
79.223516,-7.538835
79.329165,-7.644484
79.412174,-7.768716
79.453043,-7.867383
79.497590,-7.922663
79.564953,-7.945084
79.633744,-7.927526
79.682123,-7.875564
79.695451,-7.819003
79.686934,-1.142293
79.686922,-1.140686
79.684420,-0.962367
79.683640,-0.950027
79.643631,-0.594958
79.641264,-0.581028
79.561949,-0.233537
79.558037,-0.219959
79.440315,0.116463
79.434908,0.129517
79.280256,0.450652
79.273421,0.463019
79.083793,0.764807
79.075617,0.776330
78.853379,1.055008
78.843963,1.065543
78.591943,1.317563
78.581408,1.326979
78.302730,1.549217
78.291207,1.557393
77.989419,1.747021
77.977052,1.753856
77.655917,1.908508
77.642863,1.913915
77.306441,2.031637
77.292863,2.035549
76.945372,2.114864
76.931442,2.117231
76.576373,2.157240
76.564032,2.158020
76.385807,2.160520
76.384004,2.160532
69.803364,2.158636
69.735249,2.138614
69.688771,2.084945
69.677400,2.032636
69.677400,-1.364291
74.476500,-1.364291
74.476500,-1.121710
74.508160,-0.881218
74.570944,-0.646905
74.570945,-0.646903
74.570946,-0.646900
74.663776,-0.422788
74.663777,-0.422787
74.663782,-0.422776
74.785061,-0.212715
74.785063,-0.212712
74.785064,-0.212711
74.932735,-0.020262
74.932739,-0.020258
74.932744,-0.020252
75.104251,0.151255
75.104256,0.151259
75.104262,0.151265
75.296711,0.298936
75.296714,0.298938
75.506775,0.420217
75.506779,0.420218
75.506788,0.420224
75.730900,0.513054
75.965211,0.575838
75.965215,0.575838
75.965217,0.575839
76.027202,0.583999
76.205712,0.607500
76.205719,0.607500
76.448281,0.607500
76.448288,0.607500
76.665637,0.578885
76.688782,0.575839
76.688782,0.575838
76.688789,0.575838
76.923100,0.513054
77.147212,0.420224
77.357289,0.298936
77.549738,0.151265
77.721265,-0.020262
77.868936,-0.212711
77.990224,-0.422788
78.083054,-0.646900
78.145838,-0.881211
78.177500,-1.121712
78.177500,-1.364288
78.145838,-1.604789
78.083054,-1.839100
77.990224,-2.063212
77.990218,-2.063221
77.990217,-2.063225
77.868938,-2.273286
77.868936,-2.273289
77.721265,-2.465738
77.721259,-2.465744
77.721255,-2.465749
77.549748,-2.637256
77.549742,-2.637261
77.549738,-2.637265
77.357289,-2.784936
77.357288,-2.784937
77.357285,-2.784939
77.147224,-2.906218
77.147216,-2.906222
77.147212,-2.906224
76.923100,-2.999054
76.923097,-2.999055
76.923095,-2.999056
76.688782,-3.061840
76.448290,-3.093500
76.448288,-3.093500
76.205712,-3.093500
76.205709,-3.093500
75.965217,-3.061840
75.730904,-2.999056
75.730900,-2.999054
75.506786,-2.906223
75.506775,-2.906218
75.296714,-2.784939
75.104262,-2.637265
75.104251,-2.637256
74.932744,-2.465749
74.932735,-2.465738
74.785061,-2.273286
74.663782,-2.063225
74.663777,-2.063214
74.570946,-1.839100
74.570944,-1.839096
74.508160,-1.604783
74.476500,-1.364291
69.677400,-1.364291
69.677400,-2.769000
44.836200,-2.769000
44.836200,2.032600
44.816198,2.100721
44.762542,2.147214
44.710200,2.158600
38.131510,2.158600
38.129744,2.158588
37.951499,2.156089
37.939158,2.155309
37.584089,2.115303
37.570158,2.112936
37.222662,2.033622
37.209085,2.029710
36.872663,1.911991
36.859609,1.906584
36.538477,1.751935
36.526110,1.745100
36.224317,1.555471
36.212793,1.547295
35.934115,1.325056
35.923580,1.315640
35.671559,1.063619
35.662143,1.053084
35.439900,0.774400
35.431728,0.762882
35.334095,0.607500
35.242096,0.461083
35.235264,0.448722
35.080611,0.127581
35.075211,0.114544
34.957486,-0.221894
34.953577,-0.235463
34.935945,-0.312715
34.874260,-0.582975
34.871898,-0.596877
34.831889,-0.951961
34.831110,-0.964300
34.828612,-1.142544
34.828600,-1.144310
34.828600,-1.464291
36.476500,-1.464291
36.476500,-1.221710
36.508160,-0.981218
36.570944,-0.746905
36.570945,-0.746903
36.570946,-0.746900
36.663776,-0.522788
36.663777,-0.522787
36.663782,-0.522776
36.785061,-0.312715
36.785063,-0.312712
36.785064,-0.312711
36.932735,-0.120262
36.932739,-0.120258
36.932744,-0.120252
37.104251,0.051255
37.104256,0.051259
37.104262,0.051265
37.234572,0.151255
37.296714,0.198938
37.506775,0.320217
37.506779,0.320218
37.506788,0.320224
37.730900,0.413054
37.965211,0.475838
37.965215,0.475838
37.965217,0.475839
38.027202,0.483999
38.205712,0.507500
38.205719,0.507500
38.448281,0.507500
38.448288,0.507500
38.665637,0.478885
38.688782,0.475839
38.688782,0.475838
38.688789,0.475838
38.923100,0.413054
39.147212,0.320224
39.357289,0.198936
39.549738,0.051265
39.721265,-0.120262
39.868936,-0.312711
39.990224,-0.522788
40.083054,-0.746900
40.145838,-0.981211
40.177500,-1.221712
40.177500,-1.464288
40.145838,-1.704789
40.083054,-1.939100
39.990224,-2.163212
39.990218,-2.163221
39.990217,-2.163225
39.868938,-2.373286
39.868936,-2.373289
39.721265,-2.565738
39.721259,-2.565744
39.721255,-2.565749
39.549748,-2.737256
39.549742,-2.737261
39.549738,-2.737265
39.357289,-2.884936
39.357288,-2.884937
39.357285,-2.884939
39.147224,-3.006218
39.147216,-3.006222
39.147212,-3.006224
38.923100,-3.099054
38.923097,-3.099055
38.923095,-3.099056
38.688782,-3.161840
38.448290,-3.193500
38.448288,-3.193500
38.205712,-3.193500
38.205709,-3.193500
37.965217,-3.161840
37.730904,-3.099056
37.730900,-3.099054
37.641053,-3.061838
37.506786,-3.006223
37.506775,-3.006218
37.296714,-2.884939
37.104262,-2.737265
37.104251,-2.737256
36.932744,-2.565749
36.932735,-2.565738
36.785061,-2.373286
36.663782,-2.163225
36.663777,-2.163214
36.570946,-1.939100
36.570944,-1.939096
36.508160,-1.704783
36.476500,-1.464291
34.828600,-1.464291
34.828600,-39.445691
34.828612,-39.447457
34.828848,-39.464291
36.476500,-39.464291
36.476500,-39.221710
36.508160,-38.981218
36.570944,-38.746905
36.570945,-38.746903
36.570946,-38.746900
36.663776,-38.522788
36.663777,-38.522787
36.663782,-38.522776
36.785061,-38.312715
36.785063,-38.312712
36.785064,-38.312711
36.932735,-38.120262
36.932739,-38.120258
36.932744,-38.120252
37.104251,-37.948745
37.104256,-37.948741
37.104262,-37.948735
37.234572,-37.848745
37.296714,-37.801062
37.506775,-37.679783
37.506779,-37.679782
37.506788,-37.679776
37.730900,-37.586946
37.965211,-37.524162
37.965215,-37.524162
37.965217,-37.524161
38.027202,-37.516001
38.205712,-37.492500
38.205719,-37.492500
38.448281,-37.492500
38.448288,-37.492500
38.665637,-37.521115
38.688782,-37.524161
38.688782,-37.524162
38.688789,-37.524162
38.923100,-37.586946
39.147212,-37.679776
39.357289,-37.801064
39.549738,-37.948735
39.721265,-38.120262
39.868936,-38.312711
39.990224,-38.522788
40.083054,-38.746900
40.145838,-38.981211
40.177500,-39.221712
40.177500,-39.464288
40.145838,-39.704789
40.083054,-39.939100
39.990224,-40.163212
39.990218,-40.163221
39.990217,-40.163225
39.868938,-40.373286
39.868936,-40.373289
39.721265,-40.565738
39.721259,-40.565744
39.721255,-40.565749
39.549748,-40.737256
39.549742,-40.737261
39.549738,-40.737265
39.357289,-40.884936
39.357288,-40.884937
39.357285,-40.884939
39.147224,-41.006218
39.147216,-41.006222
39.147212,-41.006224
38.923100,-41.099054
38.923097,-41.099055
38.923095,-41.099056
38.688782,-41.161840
38.448290,-41.193500
38.448288,-41.193500
38.205712,-41.193500
38.205709,-41.193500
37.965217,-41.161840
37.730904,-41.099056
37.730900,-41.099054
37.615105,-41.051090
37.506786,-41.006223
37.506775,-41.006218
37.296714,-40.884939
37.104262,-40.737265
37.104251,-40.737256
36.932744,-40.565749
36.932735,-40.565738
36.785061,-40.373286
36.663782,-40.163225
36.663777,-40.163214
36.570946,-39.939100
36.570944,-39.939096
36.508160,-39.704783
36.476500,-39.464291
34.828848,-39.464291
34.831110,-39.625701
34.831890,-39.638042
34.839410,-39.704783
34.871898,-39.993127
34.874259,-40.007024
34.953580,-40.354551
34.957485,-40.368102
35.075213,-40.704552
35.080608,-40.717576
35.235271,-41.038737
35.242091,-41.051077
35.431737,-41.352897
35.439894,-41.364393
35.662151,-41.643095
35.671550,-41.653611
35.923589,-41.905650
35.934105,-41.915049
36.212807,-42.137306
36.224303,-42.145463
36.526123,-42.335109
36.538463,-42.341929
36.859624,-42.496592
36.872648,-42.501987
37.209098,-42.619715
37.222649,-42.623620
37.570176,-42.702941
37.584073,-42.705302
37.939161,-42.745311
37.951493,-42.746090
38.129744,-42.748588
38.131510,-42.748600
76.432890,-42.748600
Z" /> 
<path style="fill:#4D7FC4; fill-opacity:1.000000; stroke:none;fill-rule:evenodd;"
d="M 77.923621,-19.287498
77.970114,-19.233842
77.981500,-19.181500
77.981500,-8.494371
77.961498,-8.426250
77.944595,-8.405276
74.144724,-4.605405
74.082412,-4.571379
74.055629,-4.568500
66.068305,-4.568500
66.000184,-4.588502
65.953691,-4.642158
65.943587,-4.712432
65.972494,-4.776330
66.006752,-4.816442
66.006753,-4.816444
66.132093,-5.020981
66.223892,-5.242604
66.279891,-5.475857
66.298712,-5.715000
66.279891,-5.954144
66.223892,-6.187397
66.132091,-6.409025
66.014737,-6.600528
66.014735,-6.600528
65.254468,-5.840261
65.236280,-5.908140
65.170404,-6.022241
65.077241,-6.115404
64.963140,-6.181280
64.895258,-6.199469
65.655526,-6.959738
65.655526,-6.959739
65.464019,-7.077094
65.242396,-7.168893
65.009142,-7.224892
65.009144,-7.224892
64.770000,-7.243713
64.530856,-7.224892
64.297603,-7.168893
64.075977,-7.077092
63.884472,-6.959739
63.884472,-6.959737
64.644740,-6.199469
64.576860,-6.181280
64.462759,-6.115404
64.369596,-6.022241
64.303720,-5.908140
64.285531,-5.840259
63.525263,-6.600528
63.525261,-6.600528
63.407908,-6.409023
63.316107,-6.187397
63.260108,-5.954144
63.241287,-5.715000
63.260108,-5.475857
63.316107,-5.242604
63.407906,-5.020981
63.533246,-4.816444
63.533247,-4.816442
63.567506,-4.776330
63.596537,-4.711540
63.585932,-4.641340
63.539057,-4.588018
63.471695,-4.568500
61.961371,-4.568500
61.893250,-4.588502
61.872276,-4.605405
61.211856,-5.265825
61.177830,-5.328137
61.178433,-5.384335
61.200385,-5.475770
61.200384,-5.475770
61.200387,-5.475778
61.219214,-5.715000
61.200387,-5.954222
61.144369,-6.187553
61.052540,-6.409249
60.927160,-6.613849
60.871443,-6.679086
60.842412,-6.743876
60.841733,-6.771898
60.841987,-6.774803
60.190789,-7.426000
60.202661,-7.426000
60.304394,-7.453259
60.395606,-7.505920
60.470080,-7.580394
60.522741,-7.671606
60.550000,-7.773339
60.550000,-7.785209
61.201196,-7.134013
61.201197,-7.134013
61.243622,-7.194601
61.336647,-7.394093
61.336649,-7.394097
61.393619,-7.606713
61.412804,-7.826000
61.393619,-8.045288
61.336649,-8.257904
61.336647,-8.257908
61.243619,-8.457406
61.201199,-8.517989
61.201197,-8.517989
60.550000,-7.866792
60.550000,-7.878661
60.522741,-7.980394
60.470080,-8.071606
60.395606,-8.146080
60.304394,-8.198741
60.202661,-8.226000
60.190790,-8.226000
60.841987,-8.877200
60.781403,-8.919621
60.581907,-9.012648
60.581903,-9.012650
60.369287,-9.069620
60.150000,-9.088805
59.930712,-9.069620
59.718096,-9.012650
59.718092,-9.012648
59.518598,-8.919622
59.458010,-8.877199
60.109209,-8.226000
60.097339,-8.226000
59.995606,-8.198741
59.904394,-8.146080
59.829920,-8.071606
59.777259,-7.980394
59.750000,-7.878661
59.750000,-7.866790
59.333963,-8.282827
59.308863,-8.318673
59.244057,-8.457652
59.117751,-8.638035
59.117749,-8.638038
58.962038,-8.793749
58.962035,-8.793751
58.858625,-8.866160
58.781654,-8.920056
58.781650,-8.920058
58.582079,-9.013119
58.582073,-9.013121
58.445746,-9.049650
58.369371,-9.070115
58.150000,-9.089307
57.930629,-9.070115
57.717926,-9.013121
57.717920,-9.013119
57.518346,-8.920056
57.337965,-8.793752
57.239095,-8.694882
57.176783,-8.660857
57.105967,-8.665923
57.060905,-8.694883
56.962044,-8.793744
56.962036,-8.793751
56.858627,-8.866160
56.814299,-8.921617
56.807320,-8.944790
56.795866,-9.002371
56.783194,-9.066077
56.733555,-9.185917
56.730937,-9.189835
56.661491,-9.293769
56.661489,-9.293771
56.661484,-9.293777
55.432405,-10.522856
55.398379,-10.585168
55.395500,-10.611951
55.395500,-12.279362
55.415502,-12.347483
55.469158,-12.393976
55.535603,-12.404570
55.626000,-12.394384
55.807047,-12.414783
55.979015,-12.474957
56.066913,-12.530188
56.133949,-12.549500
73.343857,-12.549500
73.471077,-12.574806
73.590917,-12.624445
73.626703,-12.648357
73.698764,-12.696505
73.698765,-12.696507
73.698769,-12.696509
73.761405,-12.759147
73.823717,-12.793171
73.836398,-12.795259
73.838055,-12.795447
73.841047,-12.795783
74.013015,-12.855957
74.167281,-12.952889
74.296111,-13.081719
74.393043,-13.235985
74.453217,-13.407953
74.473616,-13.589000
74.453217,-13.770047
74.393043,-13.942015
74.393041,-13.942018
74.393041,-13.942019
74.296112,-14.096280
74.296111,-14.096282
74.167281,-14.225112
74.167279,-14.225113
74.068447,-14.287214
74.021409,-14.340393
74.010589,-14.410560
74.038231,-14.472760
74.037698,-14.473185
74.039330,-14.475233
74.039422,-14.475438
74.039959,-14.476021
74.042106,-14.478715
74.042111,-14.478719
74.139043,-14.632985
74.199217,-14.804953
74.219616,-14.986000
74.208631,-15.083495
74.220881,-15.153426
74.268993,-15.205634
74.333839,-15.223601
75.255958,-15.223601
75.383178,-15.248907
75.503018,-15.298546
75.610870,-15.370610
77.092491,-16.852231
77.164555,-16.960083
77.214194,-17.079923
77.239500,-17.207143
77.239500,-17.336857
77.239500,-17.907052
77.258812,-17.974086
77.314043,-18.061985
77.374217,-18.233953
77.394616,-18.415000
77.374217,-18.596047
77.314043,-18.768015
77.314041,-18.768018
77.314041,-18.768019
77.217112,-18.922280
77.217111,-18.922282
77.088282,-19.051111
77.057382,-19.070527
77.010345,-19.123706
76.999525,-19.193874
77.028359,-19.258752
77.082806,-19.296144
77.095065,-19.300433
77.136670,-19.307500
77.855500,-19.307500
Z" /> 
<path style="fill:#4D7FC4; fill-opacity:1.000000; stroke:none;fill-rule:evenodd;"
d="M 39.652170,-30.420498
39.673144,-30.403596
40.255510,-29.821231
40.347231,-29.729510
40.455083,-29.657445
40.574923,-29.607806
40.702143,-29.582500
54.763050,-29.582500
54.831171,-29.562498
54.877664,-29.508842
54.887768,-29.438568
54.858274,-29.373988
54.852145,-29.367405
51.304511,-25.819772
51.304506,-25.819765
51.244231,-25.729559
51.244232,-25.729558
51.244230,-25.729555
51.232445,-25.711917
51.232444,-25.711915
51.229010,-25.706775
51.228287,-25.707258
51.212251,-25.685645
51.179888,-25.653281
51.082958,-25.499018
51.082957,-25.499016
51.028192,-25.342504
51.022783,-25.327047
51.002384,-25.146000
51.022783,-24.964953
51.022783,-24.964951
51.022784,-24.964950
51.082957,-24.792985
51.082958,-24.792982
51.179887,-24.638721
51.179888,-24.638719
51.308718,-24.509889
51.308720,-24.509888
51.462981,-24.412959
51.462982,-24.412959
51.462985,-24.412957
51.634953,-24.352783
51.816000,-24.332384
51.997047,-24.352783
52.169015,-24.412957
52.323281,-24.509889
52.452111,-24.638719
52.549043,-24.792985
52.609217,-24.964953
52.629616,-25.146000
52.622601,-25.208256
52.634850,-25.278185
52.658711,-25.311453
56.242855,-28.895595
56.305167,-28.929621
56.331950,-28.932500
65.470176,-28.932500
65.538297,-28.912498
65.584790,-28.858842
65.594894,-28.788568
65.565400,-28.723988
65.518394,-28.690091
65.403630,-28.642555
65.295780,-28.570492
65.295774,-28.570487
53.638513,-16.913226
53.638508,-16.913220
53.597757,-16.852231
53.597756,-16.852232
53.566447,-16.805374
53.566445,-16.805370
53.516807,-16.685533
53.516806,-16.685530
53.491500,-16.558313
53.491500,-9.210500
53.471498,-9.142379
53.417842,-9.095886
53.365500,-9.084500
53.351350,-9.084500
53.290803,-9.077991
53.290795,-9.077989
53.153797,-9.026890
53.153792,-9.026888
53.036738,-8.939262
52.949112,-8.822208
52.949110,-8.822203
52.898011,-8.685205
52.898009,-8.685197
52.891500,-8.624650
52.891500,-7.286371
52.871498,-7.218250
52.817842,-7.171757
52.747568,-7.161653
52.682988,-7.191147
52.676405,-7.197276
51.537519,-8.336162
51.537515,-8.336166
51.413284,-8.419174
51.275247,-8.476351
51.201976,-8.490926
51.201975,-8.490927
51.128711,-8.505500
51.128706,-8.505500
41.260371,-8.505500
41.192250,-8.525502
41.171276,-8.542405
40.800405,-8.913276
40.766379,-8.975588
40.763500,-9.002371
40.763500,-12.774705
40.763499,-12.774709
40.761881,-12.782842
40.745051,-12.867455
40.734351,-12.921247
40.695931,-13.014000
40.695931,-13.014001
40.695931,-13.014002
40.677174,-13.059284
40.662182,-13.081721
40.594165,-13.183516
40.488516,-13.289165
40.488515,-13.289166
39.218515,-14.559166
39.094284,-14.642174
38.956247,-14.699351
38.882976,-14.713926
38.882975,-14.713927
38.809711,-14.728500
38.809706,-14.728500
38.322036,-14.728500
38.253915,-14.748502
38.214604,-14.788664
38.135181,-14.918270
38.032093,-15.038971
38.003063,-15.103758
38.013668,-15.173958
38.046075,-15.216610
38.054261,-15.223601
38.224770,-15.369230
38.389181,-15.561730
38.468604,-15.691337
38.521251,-15.738966
38.576036,-15.751500
42.232000,-15.751500
42.300121,-15.731498
42.346614,-15.677842
42.358000,-15.625500
42.358000,-12.330205
42.358000,-12.180795
42.387149,-12.034253
42.444326,-11.896216
42.527334,-11.771985
45.109485,-9.189834
45.233716,-9.106826
45.371753,-9.049649
45.426722,-9.038715
45.518294,-9.020500
48.588706,-9.020500
48.680278,-9.038715
48.735247,-9.049649
48.873284,-9.106826
48.997515,-9.189834
51.171919,-11.364240
51.234229,-11.398263
51.271994,-11.400663
51.435000,-11.386401
51.663104,-11.406358
51.884277,-11.465621
52.091800,-11.562390
52.279365,-11.693725
52.441275,-11.855635
52.572610,-12.043200
52.669379,-12.250723
52.728642,-12.471896
52.748599,-12.700000
52.728642,-12.928104
52.669379,-13.149277
52.572610,-13.356799
52.441275,-13.544365
52.279365,-13.706275
52.263156,-13.717625
52.091798,-13.837612
52.052781,-13.855805
51.999495,-13.902722
51.980034,-13.970999
52.000575,-14.038959
52.052781,-14.084195
52.091798,-14.102389
52.091798,-14.102390
52.091800,-14.102390
52.279365,-14.233725
52.441275,-14.395635
52.572610,-14.583200
52.669379,-14.790723
52.728642,-15.011896
52.748599,-15.240000
52.728642,-15.468104
52.669379,-15.689277
52.572610,-15.896799
52.441275,-16.084365
52.279365,-16.246275
52.263154,-16.257626
52.091800,-16.377610
51.884280,-16.474378
51.884275,-16.474380
51.751337,-16.510000
51.663104,-16.533642
51.435000,-16.553599
51.206896,-16.533642
51.149318,-16.518214
50.985724,-16.474380
50.985719,-16.474378
50.778200,-16.377610
50.590638,-16.246278
50.590632,-16.246273
50.428727,-16.084368
50.428722,-16.084362
50.297390,-15.896800
50.279195,-15.857780
50.232277,-15.804495
50.164000,-15.785034
50.096040,-15.805576
50.050805,-15.857780
50.039464,-15.882101
50.032610,-15.896799
49.901275,-16.084365
49.739365,-16.246275
49.723154,-16.257626
49.551800,-16.377610
49.344280,-16.474378
49.344275,-16.474380
49.211337,-16.510000
49.123104,-16.533642
48.895000,-16.553599
48.666896,-16.533642
48.609318,-16.518214
48.445724,-16.474380
48.445719,-16.474378
48.238200,-16.377610
48.050638,-16.246278
48.050632,-16.246273
47.888727,-16.084368
47.888722,-16.084362
47.757390,-15.896800
47.739195,-15.857780
47.692277,-15.804495
47.624000,-15.785034
47.556040,-15.805576
47.510805,-15.857780
47.499464,-15.882101
47.492610,-15.896799
47.361275,-16.084365
47.199365,-16.246275
47.183154,-16.257626
47.011800,-16.377610
46.804280,-16.474378
46.804275,-16.474380
46.671337,-16.510000
46.583104,-16.533642
46.355000,-16.553599
46.126896,-16.533642
46.069318,-16.518214
45.905724,-16.474380
45.905719,-16.474378
45.698200,-16.377610
45.510638,-16.246278
45.510632,-16.246273
45.348727,-16.084368
45.348722,-16.084362
45.217390,-15.896800
45.120622,-15.689281
45.120620,-15.689276
45.103532,-15.625500
45.061358,-15.468104
45.041401,-15.240000
45.061358,-15.011896
45.086445,-14.918270
45.120620,-14.790725
45.120622,-14.790720
45.217390,-14.583200
45.348725,-14.395635
45.348728,-14.395631
45.510630,-14.233729
45.510634,-14.233726
45.510635,-14.233725
45.698200,-14.102390
45.727209,-14.088863
45.737811,-14.083919
45.791096,-14.037002
45.810557,-13.968724
45.790015,-13.900764
45.737812,-13.855530
45.698454,-13.837177
45.627037,-13.787172
46.229740,-13.184469
46.161860,-13.166280
46.047759,-13.100404
45.954596,-13.007241
45.888720,-12.893140
45.870531,-12.825260
45.267828,-13.427963
45.217824,-13.356548
45.121093,-13.149109
45.121091,-13.149105
45.061852,-12.928021
45.041903,-12.700000
45.061852,-12.471980
45.121091,-12.250896
45.121093,-12.250892
45.217826,-12.043448
45.267827,-11.972040
45.870531,-12.574743
45.888720,-12.506860
45.954596,-12.392759
46.047759,-12.299596
46.161860,-12.233720
46.229741,-12.215532
45.627038,-11.612830
45.698455,-11.562823
45.905891,-11.466094
45.905895,-11.466092
46.126979,-11.406853
46.355000,-11.386904
46.583020,-11.406853
46.804104,-11.466092
46.804108,-11.466094
47.011548,-11.562825
47.082960,-11.612829
47.082960,-11.612831
46.480259,-12.215532
46.548140,-12.233720
46.662241,-12.299596
46.755404,-12.392759
46.821280,-12.506860
46.839468,-12.574741
47.442169,-11.972040
47.442171,-11.972040
47.492175,-12.043453
47.492177,-12.043456
47.510529,-12.082811
47.557446,-12.136097
47.625723,-12.155558
47.693683,-12.135017
47.738919,-12.082811
47.757390,-12.043200
47.860309,-11.896217
47.888725,-11.855635
47.888728,-11.855631
48.050630,-11.693729
48.050634,-11.693726
48.050635,-11.693725
48.238200,-11.562390
48.445723,-11.465621
48.666896,-11.406358
48.767176,-11.397585
48.833290,-11.371723
48.874930,-11.314219
48.878871,-11.243332
48.845287,-11.182970
48.236724,-10.574405
48.174411,-10.540380
48.147628,-10.537500
45.959371,-10.537500
45.891250,-10.557502
45.870276,-10.574405
43.911905,-12.532776
43.877879,-12.595088
43.875000,-12.621871
43.875000,-25.538207
43.874999,-25.538210
43.845851,-25.684746
43.834596,-25.711917
43.822167,-25.741924
43.788675,-25.822782
43.788674,-25.822784
43.766893,-25.855381
43.705665,-25.947016
43.600016,-26.052665
39.964515,-29.688166
39.840284,-29.771174
39.753239,-29.807230
39.702250,-29.828350
39.702247,-29.828351
39.636429,-29.841443
39.568852,-29.854885
39.555706,-29.857500
39.555704,-29.857500
38.741828,-29.857500
38.673707,-29.877502
38.642775,-29.907233
38.642287,-29.906822
38.638745,-29.911043
38.539883,-30.009905
38.505857,-30.072217
38.510922,-30.143032
38.539883,-30.188095
38.638745,-30.286958
38.638749,-30.286962
38.708636,-30.386772
38.764093,-30.431099
38.811849,-30.440500
39.584049,-30.440500
Z" /> 
<path style="fill:#4D7FC4; fill-opacity:1.000000; stroke:none;fill-rule:evenodd;"
d="M 47.693959,-14.674425
47.739195,-14.622219
47.757388,-14.583202
47.888725,-14.395635
47.888728,-14.395631
48.050630,-14.233729
48.050634,-14.233726
48.050635,-14.233725
48.238200,-14.102390
48.264854,-14.089961
48.277219,-14.084195
48.330504,-14.037277
48.349965,-13.969000
48.329423,-13.901040
48.277220,-13.855806
48.238202,-13.837612
48.050638,-13.706278
48.050632,-13.706273
47.888727,-13.544368
47.888722,-13.544362
47.757388,-13.356798
47.738918,-13.317188
47.692001,-13.263903
47.623723,-13.244443
47.555763,-13.264985
47.510530,-13.317188
47.492176,-13.356548
47.492173,-13.356552
47.442172,-13.427962
47.442170,-13.427962
46.839468,-12.825260
46.821280,-12.893140
46.755404,-13.007241
46.662241,-13.100404
46.548140,-13.166280
46.480258,-13.184469
47.082960,-13.787173
47.082960,-13.787174
47.011552,-13.837174
47.011547,-13.837177
46.972187,-13.855531
46.918902,-13.902449
46.899442,-13.970726
46.919985,-14.038686
46.972188,-14.083920
47.011800,-14.102390
47.199365,-14.233725
47.361275,-14.395635
47.492610,-14.583200
47.510805,-14.622219
47.557722,-14.675505
47.625999,-14.694966
Z" /> 
<path style="fill:#4D7FC4; fill-opacity:1.000000; stroke:none;fill-rule:evenodd;"
d="M 77.019327,-28.331826
77.055307,-28.273584
77.055446,-28.273632
77.055666,-28.273004
77.056641,-28.271425
77.057714,-28.267150
77.117957,-28.094985
77.117958,-28.094982
77.214887,-27.940721
77.214888,-27.940719
77.343718,-27.811889
77.343720,-27.811888
77.473398,-27.730406
77.497985,-27.714957
77.497989,-27.714956
77.504365,-27.711885
77.503328,-27.709734
77.538899,-27.687420
77.944595,-27.281724
77.978621,-27.219412
77.981500,-27.192629
77.981500,-20.950500
77.961498,-20.882379
77.907842,-20.835886
77.855500,-20.824500
77.136670,-20.824500
77.095055,-20.831571
77.082723,-20.835886
77.016047,-20.859217
76.835000,-20.879616
76.653953,-20.859217
76.653950,-20.859217
76.653949,-20.859216
76.481984,-20.799043
76.481981,-20.799042
76.327720,-20.702113
76.327718,-20.702112
76.198888,-20.573282
76.198887,-20.573280
76.101958,-20.419019
76.101957,-20.419016
76.043879,-20.253036
76.041783,-20.247047
76.021384,-20.066000
76.041783,-19.884953
76.041783,-19.884951
76.041784,-19.884950
76.101957,-19.712985
76.101958,-19.712982
76.198887,-19.558721
76.198888,-19.558719
76.327718,-19.429889
76.327720,-19.429888
76.358616,-19.410474
76.405654,-19.357295
76.416474,-19.287128
76.387641,-19.222250
76.333195,-19.184858
76.227984,-19.148043
76.227981,-19.148042
76.073720,-19.051113
76.073718,-19.051112
75.944888,-18.922282
75.944887,-18.922280
75.847958,-18.768019
75.847957,-18.768016
75.823102,-18.696982
75.787783,-18.596047
75.767384,-18.415000
75.787783,-18.233953
75.787783,-18.233951
75.787784,-18.233950
75.847956,-18.061986
75.862418,-18.038971
75.903187,-17.974086
75.922500,-17.907052
75.922500,-17.596950
75.902498,-17.528829
75.885595,-17.507855
74.955246,-16.577506
74.892934,-16.543480
74.866151,-16.540601
66.286848,-16.540601
66.219812,-16.559914
66.131916,-16.615143
66.131913,-16.615145
65.959949,-16.675317
65.959948,-16.675318
65.959946,-16.675318
65.778899,-16.695717
65.597852,-16.675318
65.597849,-16.675318
65.597848,-16.675317
65.425883,-16.615144
65.425880,-16.615143
65.271619,-16.518214
65.271617,-16.518213
65.142787,-16.389383
65.142786,-16.389381
65.045857,-16.235120
65.045856,-16.235117
64.998782,-16.100585
64.985682,-16.063148
64.965283,-15.882101
64.985682,-15.701054
64.985682,-15.701052
64.985683,-15.701051
65.045856,-15.529086
65.045857,-15.529083
65.142786,-15.374822
65.142787,-15.374820
65.271617,-15.245990
65.271619,-15.245989
65.425880,-15.149060
65.425881,-15.149060
65.425884,-15.149058
65.523331,-15.114960
65.581023,-15.073582
65.607185,-15.007582
65.607039,-14.993076
65.607384,-14.993076
65.607384,-14.986003
65.607384,-14.986000
65.627783,-14.804953
65.627783,-14.804951
65.627784,-14.804950
65.687957,-14.632985
65.687958,-14.632982
65.784887,-14.478721
65.784888,-14.478719
65.913718,-14.349889
65.913720,-14.349888
66.067981,-14.252959
66.067982,-14.252959
66.067985,-14.252957
66.239953,-14.192783
66.421000,-14.172384
66.602047,-14.192783
66.774015,-14.252957
66.861913,-14.308188
66.928949,-14.327500
72.898051,-14.327500
72.965085,-14.308188
72.965087,-14.308187
72.997551,-14.287789
73.044590,-14.234611
73.055411,-14.164444
73.027767,-14.102240
73.028301,-14.101814
73.026668,-14.099767
73.026579,-14.099566
73.026051,-14.098993
73.023888,-14.096281
72.926960,-13.942022
72.924944,-13.937834
72.877368,-13.885137
72.811420,-13.866500
56.133949,-13.866500
56.066913,-13.885813
55.989621,-13.934379
55.979014,-13.941044
55.807050,-14.001216
55.807049,-14.001217
55.807047,-14.001217
55.626000,-14.021616
55.625998,-14.021616
55.535606,-14.011432
55.465674,-14.023682
55.413467,-14.071795
55.395500,-14.136640
55.395500,-16.048395
55.415502,-16.116516
55.432405,-16.137490
61.864405,-22.569490
61.926717,-22.603516
61.997532,-22.598451
62.054368,-22.555904
62.079179,-22.489384
62.079500,-22.480395
62.079500,-19.557950
62.060188,-19.490916
62.034542,-19.450099
62.004955,-19.403012
61.954477,-19.258752
61.944783,-19.231047
61.924384,-19.050000
61.944783,-18.868953
61.944783,-18.868951
61.944784,-18.868950
62.004957,-18.696985
62.004958,-18.696982
62.101887,-18.542721
62.101888,-18.542719
62.230718,-18.413889
62.230720,-18.413888
62.384981,-18.316959
62.384982,-18.316959
62.384985,-18.316957
62.556953,-18.256783
62.738000,-18.236384
62.919047,-18.256783
63.091015,-18.316957
63.245281,-18.413889
63.374111,-18.542719
63.471043,-18.696985
63.531217,-18.868953
63.551616,-19.050000
63.531217,-19.231047
63.471043,-19.403015
63.415811,-19.490916
63.396500,-19.557950
63.396500,-23.342290
63.416502,-23.410411
63.433399,-23.431380
63.602722,-23.600703
63.665030,-23.634725
63.735846,-23.629661
63.758850,-23.618292
63.908981,-23.523959
63.908982,-23.523959
63.908985,-23.523957
64.080953,-23.463783
64.080954,-23.463783
64.080957,-23.463782
64.085601,-23.463259
64.151056,-23.435759
64.160585,-23.427156
64.223231,-23.364510
64.331083,-23.292445
64.450923,-23.242806
64.578143,-23.217500
72.962857,-23.217500
73.090077,-23.242806
73.209917,-23.292445
73.317769,-23.364509
74.679490,-24.726231
74.751555,-24.834083
74.801194,-24.953923
74.809464,-24.995500
74.826500,-25.081143
74.826500,-25.300889
74.846502,-25.369010
74.900158,-25.415503
74.970432,-25.425607
75.035012,-25.396113
75.071429,-25.342504
75.085957,-25.300985
75.085958,-25.300982
75.182887,-25.146721
75.182888,-25.146719
75.311718,-25.017889
75.311720,-25.017888
75.465981,-24.920959
75.465982,-24.920959
75.465985,-24.920957
75.637953,-24.860783
75.819000,-24.840384
76.000047,-24.860783
76.172015,-24.920957
76.326281,-25.017889
76.455111,-25.146719
76.552043,-25.300985
76.612217,-25.472953
76.632616,-25.654000
76.612217,-25.835047
76.552043,-26.007015
76.496811,-26.094916
76.477500,-26.161950
76.477500,-27.894451
76.497502,-27.962572
76.514400,-27.983542
76.813090,-28.282231
76.830367,-28.308090
76.884840,-28.353615
76.955283,-28.362465
Z" /> 
</g>
<g style="fill:none; 
stroke:#D0D2CD; stroke-width:0.120000; stroke-opacity:1; 
stroke-linecap:round; stroke-linejoin:round;">
<path d="M34.828600 -1.143400
L34.828600 -39.446600
" />
<path d="M38.130600 2.158600
L44.836200 2.158600
" />
<path d="M44.836200 -2.769000
L69.677400 -2.769000
" />
<path d="M44.836200 2.158600
L44.836200 -2.769000
" />
<path d="M69.677400 -2.769000
L69.677400 2.158600
" />
<path d="M69.677400 2.158600
L76.384933 2.160590
" />
<path d="M76.433800 -42.748600
L38.130600 -42.748600
" />
<path d="M79.686933 -1.141467
L79.735800 -39.446600
" />
<path d="M38.130600 -42.748600 A3.302000 3.302000 0.0 0 0 34.828600 -39.446600" />
<path d="M34.828600 -1.143400 A3.302000 3.302000 0.0 0 0 38.130600 2.158600" />
<path d="M79.735800 -39.446600 A3.302000 3.302000 0.0 0 0 76.433800 -42.748600" />
<path d="M76.384933 2.160533 A3.301993 3.301993 0.0 0 0 79.686933 -1.141467" />
</g> 
</svg>
