<?xml version="1.0" standalone="no"?>
 <!DOCTYPE svg PUBLIC "-//W3C//DTD SVG 1.1//EN" 
 "http://www.w3.org/Graphics/SVG/1.1/DTD/svg11.dtd"> 
<svg
  xmlns:svg="http://www.w3.org/2000/svg"
  xmlns="http://www.w3.org/2000/svg"
  xmlns:xlink="http://www.w3.org/1999/xlink"
  version="1.1"
  width="29.700220cm" height="21.000720cm" viewBox="0 0 116930 82680">
<title>SVG Picture created as WindSensorATMEGA328_PCB-F_SilkS.svg date 2021/10/26 20:19:15 </title>
  <desc>Picture generated by PCBNEW </desc>
<g style="fill:#000000; fill-opacity:1;stroke:#000000; stroke-opacity:1;
stroke-linecap:round; stroke-linejoin:round;"
 transform="translate(0 0) scale(1 1)">
</g>
<g style="fill:#000000; fill-opacity:0.0; 
stroke:#000000; stroke-width:-0.000393701; stroke-opacity:1; 
stroke-linecap:round; stroke-linejoin:round;">
</g>
<g style="fill:#000000; fill-opacity:0.0; 
stroke:#000000; stroke-width:39.3701; stroke-opacity:1; 
stroke-linecap:round; stroke-linejoin:round;">
</g>
<g style="fill:#000000; fill-opacity:0.0; 
stroke:#000000; stroke-width:59.0551; stroke-opacity:1; 
stroke-linecap:round; stroke-linejoin:round;">
<rect x="69685.9" y="65357.2" width="42519.7" height="12598.4" rx="0" />
</g>
<g style="fill:#000000; fill-opacity:0.0; 
stroke:#000000; stroke-width:39.3701; stroke-opacity:1; 
stroke-linecap:round; stroke-linejoin:round;">
</g>
<g style="fill:#000000; fill-opacity:0.0; 
stroke:#000000; stroke-width:59.0551; stroke-opacity:1; 
stroke-linecap:round; stroke-linejoin:round;">
<rect x="3937.01" y="3937.01" width="109056" height="74806" rx="0" />
</g>
<g style="fill:#000000; fill-opacity:0.0; 
stroke:#000000; stroke-width:39.3701; stroke-opacity:1; 
stroke-linecap:round; stroke-linejoin:round;">
</g>
<g style="fill:#000000; fill-opacity:0.0; 
stroke:#000000; stroke-width:59.0551; stroke-opacity:1; 
stroke-linecap:round; stroke-linejoin:round;">
<rect x="4724.41" y="4724.41" width="107481" height="73231.2" rx="0" />
</g>
<g style="fill:#000000; fill-opacity:0.0; 
stroke:#000000; stroke-width:39.3701; stroke-opacity:1; 
stroke-linecap:round; stroke-linejoin:round;">
</g>
<g style="fill:#000000; fill-opacity:0.0; 
stroke:#000000; stroke-width:59.0551; stroke-opacity:1; 
stroke-linecap:round; stroke-linejoin:round;">
<path d="M23622 4724
L23622 3937
" />
</g>
<g style="fill:#000000; fill-opacity:0.0; 
stroke:#000000; stroke-width:39.3701; stroke-opacity:1; 
stroke-linecap:round; stroke-linejoin:round;">
</g>
<g style="fill:#000000; fill-opacity:0.0; 
stroke:#000000; stroke-width:59.0551; stroke-opacity:1; 
stroke-linecap:round; stroke-linejoin:round;">
<path d="M43307 4724
L43307 3937
" />
</g>
<g style="fill:#000000; fill-opacity:0.0; 
stroke:#000000; stroke-width:39.3701; stroke-opacity:1; 
stroke-linecap:round; stroke-linejoin:round;">
</g>
<g style="fill:#000000; fill-opacity:0.0; 
stroke:#000000; stroke-width:59.0551; stroke-opacity:1; 
stroke-linecap:round; stroke-linejoin:round;">
<path d="M62992 4724
L62992 3937
" />
</g>
<g style="fill:#000000; fill-opacity:0.0; 
stroke:#000000; stroke-width:39.3701; stroke-opacity:1; 
stroke-linecap:round; stroke-linejoin:round;">
</g>
<g style="fill:#000000; fill-opacity:0.0; 
stroke:#000000; stroke-width:59.0551; stroke-opacity:1; 
stroke-linecap:round; stroke-linejoin:round;">
<path d="M82677 4724
L82677 3937
" />
</g>
<g style="fill:#000000; fill-opacity:0.0; 
stroke:#000000; stroke-width:39.3701; stroke-opacity:1; 
stroke-linecap:round; stroke-linejoin:round;">
</g>
<g style="fill:#000000; fill-opacity:0.0; 
stroke:#000000; stroke-width:59.0551; stroke-opacity:1; 
stroke-linecap:round; stroke-linejoin:round;">
<path d="M102362 4724
L102362 3937
" />
</g>
<g style="fill:#000000; fill-opacity:0.0; 
stroke:#000000; stroke-width:39.3701; stroke-opacity:1; 
stroke-linecap:round; stroke-linejoin:round;">
</g>
<g style="fill:#000000; fill-opacity:0.0; 
stroke:#000000; stroke-width:59.0551; stroke-opacity:1; 
stroke-linecap:round; stroke-linejoin:round;">
<text x="13779.5" y="4586.61"
textLength="546.494" font-size="682.415" lengthAdjust="spacingAndGlyphs"
text-anchor="start" opacity="0">1</text>
<path d="M14199 4562
L13906 4562
" />
<path d="M14052 4562
L14052 4050
L14004 4123
L13955 4172
L13906 4196
" />
</g>
<g style="fill:#000000; fill-opacity:0.0; 
stroke:#000000; stroke-width:39.3701; stroke-opacity:1; 
stroke-linecap:round; stroke-linejoin:round;">
</g>
<g style="fill:#000000; fill-opacity:0.0; 
stroke:#000000; stroke-width:59.0551; stroke-opacity:1; 
stroke-linecap:round; stroke-linejoin:round;">
<text x="33464.6" y="4586.61"
textLength="546.494" font-size="682.415" lengthAdjust="spacingAndGlyphs"
text-anchor="start" opacity="0">2</text>
<path d="M33591 4099
L33615 4074
L33664 4050
L33786 4050
L33835 4074
L33859 4099
L33884 4147
L33884 4196
L33859 4269
L33567 4562
L33884 4562
" />
</g>
<g style="fill:#000000; fill-opacity:0.0; 
stroke:#000000; stroke-width:39.3701; stroke-opacity:1; 
stroke-linecap:round; stroke-linejoin:round;">
</g>
<g style="fill:#000000; fill-opacity:0.0; 
stroke:#000000; stroke-width:59.0551; stroke-opacity:1; 
stroke-linecap:round; stroke-linejoin:round;">
<text x="53149.6" y="4586.61"
textLength="546.494" font-size="682.415" lengthAdjust="spacingAndGlyphs"
text-anchor="start" opacity="0">3</text>
<path d="M53252 4050
L53569 4050
L53398 4245
L53471 4245
L53520 4269
L53544 4294
L53569 4342
L53569 4464
L53544 4513
L53520 4537
L53471 4562
L53325 4562
L53276 4537
L53252 4513
" />
</g>
<g style="fill:#000000; fill-opacity:0.0; 
stroke:#000000; stroke-width:39.3701; stroke-opacity:1; 
stroke-linecap:round; stroke-linejoin:round;">
</g>
<g style="fill:#000000; fill-opacity:0.0; 
stroke:#000000; stroke-width:59.0551; stroke-opacity:1; 
stroke-linecap:round; stroke-linejoin:round;">
<text x="72834.6" y="4586.61"
textLength="546.494" font-size="682.415" lengthAdjust="spacingAndGlyphs"
text-anchor="start" opacity="0">4</text>
<path d="M73205 4221
L73205 4562
" />
<path d="M73083 4026
L72961 4391
L73278 4391
" />
</g>
<g style="fill:#000000; fill-opacity:0.0; 
stroke:#000000; stroke-width:39.3701; stroke-opacity:1; 
stroke-linecap:round; stroke-linejoin:round;">
</g>
<g style="fill:#000000; fill-opacity:0.0; 
stroke:#000000; stroke-width:59.0551; stroke-opacity:1; 
stroke-linecap:round; stroke-linejoin:round;">
<text x="92519.7" y="4586.61"
textLength="546.494" font-size="682.415" lengthAdjust="spacingAndGlyphs"
text-anchor="start" opacity="0">5</text>
<path d="M92914 4050
L92671 4050
L92646 4294
L92671 4269
L92719 4245
L92841 4245
L92890 4269
L92914 4294
L92939 4342
L92939 4464
L92914 4513
L92890 4537
L92841 4562
L92719 4562
L92671 4537
L92646 4513
" />
</g>
<g style="fill:#000000; fill-opacity:0.0; 
stroke:#000000; stroke-width:39.3701; stroke-opacity:1; 
stroke-linecap:round; stroke-linejoin:round;">
</g>
<g style="fill:#000000; fill-opacity:0.0; 
stroke:#000000; stroke-width:59.0551; stroke-opacity:1; 
stroke-linecap:round; stroke-linejoin:round;">
<text x="112205" y="4586.61"
textLength="546.494" font-size="682.415" lengthAdjust="spacingAndGlyphs"
text-anchor="start" opacity="0">6</text>
<path d="M112575 4050
L112477 4050
L112429 4074
L112404 4099
L112356 4172
L112331 4269
L112331 4464
L112356 4513
L112380 4537
L112429 4562
L112526 4562
L112575 4537
L112599 4513
L112624 4464
L112624 4342
L112599 4294
L112575 4269
L112526 4245
L112429 4245
L112380 4269
L112356 4294
L112331 4342
" />
</g>
<g style="fill:#000000; fill-opacity:0.0; 
stroke:#000000; stroke-width:39.3701; stroke-opacity:1; 
stroke-linecap:round; stroke-linejoin:round;">
</g>
<g style="fill:#000000; fill-opacity:0.0; 
stroke:#000000; stroke-width:59.0551; stroke-opacity:1; 
stroke-linecap:round; stroke-linejoin:round;">
<path d="M23622 77955
L23622 78742
" />
</g>
<g style="fill:#000000; fill-opacity:0.0; 
stroke:#000000; stroke-width:39.3701; stroke-opacity:1; 
stroke-linecap:round; stroke-linejoin:round;">
</g>
<g style="fill:#000000; fill-opacity:0.0; 
stroke:#000000; stroke-width:59.0551; stroke-opacity:1; 
stroke-linecap:round; stroke-linejoin:round;">
<path d="M43307 77955
L43307 78742
" />
</g>
<g style="fill:#000000; fill-opacity:0.0; 
stroke:#000000; stroke-width:39.3701; stroke-opacity:1; 
stroke-linecap:round; stroke-linejoin:round;">
</g>
<g style="fill:#000000; fill-opacity:0.0; 
stroke:#000000; stroke-width:59.0551; stroke-opacity:1; 
stroke-linecap:round; stroke-linejoin:round;">
<path d="M62992 77955
L62992 78742
" />
</g>
<g style="fill:#000000; fill-opacity:0.0; 
stroke:#000000; stroke-width:39.3701; stroke-opacity:1; 
stroke-linecap:round; stroke-linejoin:round;">
</g>
<g style="fill:#000000; fill-opacity:0.0; 
stroke:#000000; stroke-width:59.0551; stroke-opacity:1; 
stroke-linecap:round; stroke-linejoin:round;">
<path d="M82677 77955
L82677 78742
" />
</g>
<g style="fill:#000000; fill-opacity:0.0; 
stroke:#000000; stroke-width:39.3701; stroke-opacity:1; 
stroke-linecap:round; stroke-linejoin:round;">
</g>
<g style="fill:#000000; fill-opacity:0.0; 
stroke:#000000; stroke-width:59.0551; stroke-opacity:1; 
stroke-linecap:round; stroke-linejoin:round;">
<path d="M102362 77955
L102362 78742
" />
</g>
<g style="fill:#000000; fill-opacity:0.0; 
stroke:#000000; stroke-width:39.3701; stroke-opacity:1; 
stroke-linecap:round; stroke-linejoin:round;">
</g>
<g style="fill:#000000; fill-opacity:0.0; 
stroke:#000000; stroke-width:59.0551; stroke-opacity:1; 
stroke-linecap:round; stroke-linejoin:round;">
<text x="13779.5" y="78605.2"
textLength="546.494" font-size="682.415" lengthAdjust="spacingAndGlyphs"
text-anchor="start" opacity="0">1</text>
<path d="M14199 78580
L13906 78580
" />
<path d="M14052 78580
L14052 78069
L14004 78142
L13955 78190
L13906 78215
" />
</g>
<g style="fill:#000000; fill-opacity:0.0; 
stroke:#000000; stroke-width:39.3701; stroke-opacity:1; 
stroke-linecap:round; stroke-linejoin:round;">
</g>
<g style="fill:#000000; fill-opacity:0.0; 
stroke:#000000; stroke-width:59.0551; stroke-opacity:1; 
stroke-linecap:round; stroke-linejoin:round;">
<text x="33464.6" y="78605.2"
textLength="546.494" font-size="682.415" lengthAdjust="spacingAndGlyphs"
text-anchor="start" opacity="0">2</text>
<path d="M33591 78117
L33615 78093
L33664 78069
L33786 78069
L33835 78093
L33859 78117
L33884 78166
L33884 78215
L33859 78288
L33567 78580
L33884 78580
" />
</g>
<g style="fill:#000000; fill-opacity:0.0; 
stroke:#000000; stroke-width:39.3701; stroke-opacity:1; 
stroke-linecap:round; stroke-linejoin:round;">
</g>
<g style="fill:#000000; fill-opacity:0.0; 
stroke:#000000; stroke-width:59.0551; stroke-opacity:1; 
stroke-linecap:round; stroke-linejoin:round;">
<text x="53149.6" y="78605.2"
textLength="546.494" font-size="682.415" lengthAdjust="spacingAndGlyphs"
text-anchor="start" opacity="0">3</text>
<path d="M53252 78069
L53569 78069
L53398 78263
L53471 78263
L53520 78288
L53544 78312
L53569 78361
L53569 78483
L53544 78532
L53520 78556
L53471 78580
L53325 78580
L53276 78556
L53252 78532
" />
</g>
<g style="fill:#000000; fill-opacity:0.0; 
stroke:#000000; stroke-width:39.3701; stroke-opacity:1; 
stroke-linecap:round; stroke-linejoin:round;">
</g>
<g style="fill:#000000; fill-opacity:0.0; 
stroke:#000000; stroke-width:59.0551; stroke-opacity:1; 
stroke-linecap:round; stroke-linejoin:round;">
<text x="72834.6" y="78605.2"
textLength="546.494" font-size="682.415" lengthAdjust="spacingAndGlyphs"
text-anchor="start" opacity="0">4</text>
<path d="M73205 78239
L73205 78580
" />
<path d="M73083 78044
L72961 78410
L73278 78410
" />
</g>
<g style="fill:#000000; fill-opacity:0.0; 
stroke:#000000; stroke-width:39.3701; stroke-opacity:1; 
stroke-linecap:round; stroke-linejoin:round;">
</g>
<g style="fill:#000000; fill-opacity:0.0; 
stroke:#000000; stroke-width:59.0551; stroke-opacity:1; 
stroke-linecap:round; stroke-linejoin:round;">
<text x="92519.7" y="78605.2"
textLength="546.494" font-size="682.415" lengthAdjust="spacingAndGlyphs"
text-anchor="start" opacity="0">5</text>
<path d="M92914 78069
L92671 78069
L92646 78312
L92671 78288
L92719 78263
L92841 78263
L92890 78288
L92914 78312
L92939 78361
L92939 78483
L92914 78532
L92890 78556
L92841 78580
L92719 78580
L92671 78556
L92646 78532
" />
</g>
<g style="fill:#000000; fill-opacity:0.0; 
stroke:#000000; stroke-width:39.3701; stroke-opacity:1; 
stroke-linecap:round; stroke-linejoin:round;">
</g>
<g style="fill:#000000; fill-opacity:0.0; 
stroke:#000000; stroke-width:59.0551; stroke-opacity:1; 
stroke-linecap:round; stroke-linejoin:round;">
<text x="112205" y="78605.2"
textLength="546.494" font-size="682.415" lengthAdjust="spacingAndGlyphs"
text-anchor="start" opacity="0">6</text>
<path d="M112575 78069
L112477 78069
L112429 78093
L112404 78117
L112356 78190
L112331 78288
L112331 78483
L112356 78532
L112380 78556
L112429 78580
L112526 78580
L112575 78556
L112599 78532
L112624 78483
L112624 78361
L112599 78312
L112575 78288
L112526 78263
L112429 78263
L112380 78288
L112356 78312
L112331 78361
" />
</g>
<g style="fill:#000000; fill-opacity:0.0; 
stroke:#000000; stroke-width:39.3701; stroke-opacity:1; 
stroke-linecap:round; stroke-linejoin:round;">
</g>
<g style="fill:#000000; fill-opacity:0.0; 
stroke:#000000; stroke-width:59.0551; stroke-opacity:1; 
stroke-linecap:round; stroke-linejoin:round;">
<path d="M3937 23622
L4724 23622
" />
</g>
<g style="fill:#000000; fill-opacity:0.0; 
stroke:#000000; stroke-width:39.3701; stroke-opacity:1; 
stroke-linecap:round; stroke-linejoin:round;">
</g>
<g style="fill:#000000; fill-opacity:0.0; 
stroke:#000000; stroke-width:59.0551; stroke-opacity:1; 
stroke-linecap:round; stroke-linejoin:round;">
<path d="M3937 43307
L4724 43307
" />
</g>
<g style="fill:#000000; fill-opacity:0.0; 
stroke:#000000; stroke-width:39.3701; stroke-opacity:1; 
stroke-linecap:round; stroke-linejoin:round;">
</g>
<g style="fill:#000000; fill-opacity:0.0; 
stroke:#000000; stroke-width:59.0551; stroke-opacity:1; 
stroke-linecap:round; stroke-linejoin:round;">
<path d="M3937 62992
L4724 62992
" />
</g>
<g style="fill:#000000; fill-opacity:0.0; 
stroke:#000000; stroke-width:39.3701; stroke-opacity:1; 
stroke-linecap:round; stroke-linejoin:round;">
</g>
<g style="fill:#000000; fill-opacity:0.0; 
stroke:#000000; stroke-width:59.0551; stroke-opacity:1; 
stroke-linecap:round; stroke-linejoin:round;">
<text x="4330.71" y="14035.4"
textLength="497.75" font-size="682.415" lengthAdjust="spacingAndGlyphs"
text-anchor="middle" opacity="0">A</text>
<path d="M4208 13864
L4452 13864
" />
<path d="M4160 14011
L4330 13499
L4501 14011
" />
</g>
<g style="fill:#000000; fill-opacity:0.0; 
stroke:#000000; stroke-width:39.3701; stroke-opacity:1; 
stroke-linecap:round; stroke-linejoin:round;">
</g>
<g style="fill:#000000; fill-opacity:0.0; 
stroke:#000000; stroke-width:59.0551; stroke-opacity:1; 
stroke-linecap:round; stroke-linejoin:round;">
<text x="4330.71" y="33720.5"
textLength="570.866" font-size="682.415" lengthAdjust="spacingAndGlyphs"
text-anchor="middle" opacity="0">B</text>
<path d="M4367 33428
L4440 33452
L4464 33476
L4489 33525
L4489 33598
L4464 33647
L4440 33671
L4391 33696
L4196 33696
L4196 33184
L4367 33184
L4416 33208
L4440 33233
L4464 33281
L4464 33330
L4440 33379
L4416 33403
L4367 33428
L4196 33428
" />
</g>
<g style="fill:#000000; fill-opacity:0.0; 
stroke:#000000; stroke-width:39.3701; stroke-opacity:1; 
stroke-linecap:round; stroke-linejoin:round;">
</g>
<g style="fill:#000000; fill-opacity:0.0; 
stroke:#000000; stroke-width:59.0551; stroke-opacity:1; 
stroke-linecap:round; stroke-linejoin:round;">
<text x="4330.71" y="53405.5"
textLength="570.866" font-size="682.415" lengthAdjust="spacingAndGlyphs"
text-anchor="middle" opacity="0">C</text>
<path d="M4489 53332
L4464 53356
L4391 53381
L4342 53381
L4269 53356
L4221 53308
L4196 53259
L4172 53161
L4172 53088
L4196 52991
L4221 52942
L4269 52893
L4342 52869
L4391 52869
L4464 52893
L4489 52918
" />
</g>
<g style="fill:#000000; fill-opacity:0.0; 
stroke:#000000; stroke-width:39.3701; stroke-opacity:1; 
stroke-linecap:round; stroke-linejoin:round;">
</g>
<g style="fill:#000000; fill-opacity:0.0; 
stroke:#000000; stroke-width:59.0551; stroke-opacity:1; 
stroke-linecap:round; stroke-linejoin:round;">
<text x="4330.71" y="73090.6"
textLength="570.866" font-size="682.415" lengthAdjust="spacingAndGlyphs"
text-anchor="middle" opacity="0">D</text>
<path d="M4196 73066
L4196 72554
L4318 72554
L4391 72578
L4440 72627
L4464 72676
L4489 72773
L4489 72846
L4464 72944
L4440 72993
L4391 73041
L4318 73066
L4196 73066
" />
</g>
<g style="fill:#000000; fill-opacity:0.0; 
stroke:#000000; stroke-width:39.3701; stroke-opacity:1; 
stroke-linecap:round; stroke-linejoin:round;">
</g>
<g style="fill:#000000; fill-opacity:0.0; 
stroke:#000000; stroke-width:59.0551; stroke-opacity:1; 
stroke-linecap:round; stroke-linejoin:round;">
<path d="M112992 23622
L112205 23622
" />
</g>
<g style="fill:#000000; fill-opacity:0.0; 
stroke:#000000; stroke-width:39.3701; stroke-opacity:1; 
stroke-linecap:round; stroke-linejoin:round;">
</g>
<g style="fill:#000000; fill-opacity:0.0; 
stroke:#000000; stroke-width:59.0551; stroke-opacity:1; 
stroke-linecap:round; stroke-linejoin:round;">
<path d="M112992 43307
L112205 43307
" />
</g>
<g style="fill:#000000; fill-opacity:0.0; 
stroke:#000000; stroke-width:39.3701; stroke-opacity:1; 
stroke-linecap:round; stroke-linejoin:round;">
</g>
<g style="fill:#000000; fill-opacity:0.0; 
stroke:#000000; stroke-width:59.0551; stroke-opacity:1; 
stroke-linecap:round; stroke-linejoin:round;">
<path d="M112992 62992
L112205 62992
" />
</g>
<g style="fill:#000000; fill-opacity:0.0; 
stroke:#000000; stroke-width:39.3701; stroke-opacity:1; 
stroke-linecap:round; stroke-linejoin:round;">
</g>
<g style="fill:#000000; fill-opacity:0.0; 
stroke:#000000; stroke-width:59.0551; stroke-opacity:1; 
stroke-linecap:round; stroke-linejoin:round;">
<text x="112599" y="14035.4"
textLength="497.75" font-size="682.415" lengthAdjust="spacingAndGlyphs"
text-anchor="middle" opacity="0">A</text>
<path d="M112477 13864
L112721 13864
" />
<path d="M112428 14011
L112599 13499
L112769 14011
" />
</g>
<g style="fill:#000000; fill-opacity:0.0; 
stroke:#000000; stroke-width:39.3701; stroke-opacity:1; 
stroke-linecap:round; stroke-linejoin:round;">
</g>
<g style="fill:#000000; fill-opacity:0.0; 
stroke:#000000; stroke-width:59.0551; stroke-opacity:1; 
stroke-linecap:round; stroke-linejoin:round;">
<text x="112599" y="33720.5"
textLength="570.866" font-size="682.415" lengthAdjust="spacingAndGlyphs"
text-anchor="middle" opacity="0">B</text>
<path d="M112635 33428
L112708 33452
L112733 33476
L112757 33525
L112757 33598
L112733 33647
L112708 33671
L112660 33696
L112465 33696
L112465 33184
L112635 33184
L112684 33208
L112708 33233
L112733 33281
L112733 33330
L112708 33379
L112684 33403
L112635 33428
L112465 33428
" />
</g>
<g style="fill:#000000; fill-opacity:0.0; 
stroke:#000000; stroke-width:39.3701; stroke-opacity:1; 
stroke-linecap:round; stroke-linejoin:round;">
</g>
<g style="fill:#000000; fill-opacity:0.0; 
stroke:#000000; stroke-width:59.0551; stroke-opacity:1; 
stroke-linecap:round; stroke-linejoin:round;">
<text x="112599" y="53405.5"
textLength="570.866" font-size="682.415" lengthAdjust="spacingAndGlyphs"
text-anchor="middle" opacity="0">C</text>
<path d="M112757 53332
L112733 53356
L112660 53381
L112611 53381
L112538 53356
L112489 53308
L112465 53259
L112440 53161
L112440 53088
L112465 52991
L112489 52942
L112538 52893
L112611 52869
L112660 52869
L112733 52893
L112757 52918
" />
</g>
<g style="fill:#000000; fill-opacity:0.0; 
stroke:#000000; stroke-width:39.3701; stroke-opacity:1; 
stroke-linecap:round; stroke-linejoin:round;">
</g>
<g style="fill:#000000; fill-opacity:0.0; 
stroke:#000000; stroke-width:59.0551; stroke-opacity:1; 
stroke-linecap:round; stroke-linejoin:round;">
<text x="112599" y="73090.6"
textLength="570.866" font-size="682.415" lengthAdjust="spacingAndGlyphs"
text-anchor="middle" opacity="0">D</text>
<path d="M112465 73066
L112465 72554
L112587 72554
L112660 72578
L112708 72627
L112733 72676
L112757 72773
L112757 72846
L112733 72944
L112708 72993
L112660 73041
L112587 73066
L112465 73066
" />
</g>
<g style="fill:#000000; fill-opacity:0.0; 
stroke:#000000; stroke-width:39.3701; stroke-opacity:1; 
stroke-linecap:round; stroke-linejoin:round;">
</g>
<g style="fill:#000000; fill-opacity:0.0; 
stroke:#000000; stroke-width:59.0551; stroke-opacity:1; 
stroke-linecap:round; stroke-linejoin:round;">
<text x="78741" y="76321.7"
textLength="2758.72" font-size="787.402" lengthAdjust="spacingAndGlyphs"
text-anchor="start" opacity="0">Date: </text>
<path d="M78911 76293
L78911 75703
L79051 75703
L79136 75731
L79192 75787
L79220 75843
L79248 75956
L79248 76040
L79220 76153
L79192 76209
L79136 76265
L79051 76293
L78911 76293
" />
<path d="M79754 76293
L79754 75984
L79726 75928
L79670 75899
L79557 75899
L79501 75928
" />
<path d="M79754 76265
L79698 76293
L79557 76293
L79501 76265
L79473 76209
L79473 76153
L79501 76096
L79557 76068
L79698 76068
L79754 76040
" />
<path d="M79951 75899
L80176 75899
" />
<path d="M80036 75703
L80036 76209
L80064 76265
L80120 76293
L80176 76293
" />
<path d="M80598 76265
L80542 76293
L80429 76293
L80373 76265
L80345 76209
L80345 75984
L80373 75928
L80429 75899
L80542 75899
L80598 75928
L80626 75984
L80626 76040
L80345 76096
" />
<path d="M80879 76237
L80907 76265
L80879 76293
L80851 76265
L80879 76237
L80879 76293
" />
<path d="M80879 75928
L80907 75956
L80879 75984
L80851 75956
L80879 75928
L80879 75984
" />
</g>
<g style="fill:#000000; fill-opacity:0.0; 
stroke:#000000; stroke-width:39.3701; stroke-opacity:1; 
stroke-linecap:round; stroke-linejoin:round;">
</g>
<g style="fill:#000000; fill-opacity:0.0; 
stroke:#000000; stroke-width:59.0551; stroke-opacity:1; 
stroke-linecap:round; stroke-linejoin:round;">
<path d="M69685 76577
L112205 76577
" />
</g>
<g style="fill:#000000; fill-opacity:0.0; 
stroke:#000000; stroke-width:39.3701; stroke-opacity:1; 
stroke-linecap:round; stroke-linejoin:round;">
</g>
<g style="fill:#000000; fill-opacity:0.0; 
stroke:#000000; stroke-width:59.0551; stroke-opacity:1; 
stroke-linecap:round; stroke-linejoin:round;">
<text x="70079.6" y="77424.1"
textLength="14091.7" font-size="787.402" lengthAdjust="spacingAndGlyphs"
text-anchor="start" opacity="0">KiCad E.D.A.  kicad (5.1.10)-1</text>
<path d="M70249 77395
L70249 76805
" />
<path d="M70587 77395
L70334 77058
" />
<path d="M70587 76805
L70249 77142
" />
<path d="M70840 77395
L70840 77002
" />
<path d="M70840 76805
L70812 76833
L70840 76861
L70868 76833
L70840 76805
L70840 76861
" />
<path d="M71458 77339
L71430 77367
L71346 77395
L71290 77395
L71205 77367
L71149 77311
L71121 77255
L71093 77142
L71093 77058
L71121 76946
L71149 76889
L71205 76833
L71290 76805
L71346 76805
L71430 76833
L71458 76861
" />
<path d="M71965 77395
L71965 77086
L71937 77030
L71880 77002
L71768 77002
L71712 77030
" />
<path d="M71965 77367
L71908 77395
L71768 77395
L71712 77367
L71683 77311
L71683 77255
L71712 77199
L71768 77171
L71908 77171
L71965 77142
" />
<path d="M72499 77395
L72499 76805
" />
<path d="M72499 77367
L72443 77395
L72330 77395
L72274 77367
L72246 77339
L72218 77283
L72218 77114
L72246 77058
L72274 77030
L72330 77002
L72443 77002
L72499 77030
" />
<path d="M73230 77086
L73427 77086
" />
<path d="M73511 77395
L73230 77395
L73230 76805
L73511 76805
" />
<path d="M73764 77339
L73793 77367
L73764 77395
L73736 77367
L73764 77339
L73764 77395
" />
<path d="M74046 77395
L74046 76805
L74186 76805
L74271 76833
L74327 76889
L74355 76946
L74383 77058
L74383 77142
L74355 77255
L74327 77311
L74271 77367
L74186 77395
L74046 77395
" />
<path d="M74636 77339
L74664 77367
L74636 77395
L74608 77367
L74636 77339
L74636 77395
" />
<path d="M74889 77227
L75171 77227
" />
<path d="M74833 77395
L75030 76805
L75227 77395
" />
<path d="M75424 77339
L75452 77367
L75424 77395
L75395 77367
L75424 77339
L75424 77395
" />
<path d="M76605 77395
L76605 76805
" />
<path d="M76661 77171
L76830 77395
" />
<path d="M76830 77002
L76605 77227
" />
<path d="M77083 77395
L77083 77002
" />
<path d="M77083 76805
L77055 76833
L77083 76861
L77111 76833
L77083 76805
L77083 76861
" />
<path d="M77617 77367
L77561 77395
L77448 77395
L77392 77367
L77364 77339
L77336 77283
L77336 77114
L77364 77058
L77392 77030
L77448 77002
L77561 77002
L77617 77030
" />
<path d="M78123 77395
L78123 77086
L78095 77030
L78039 77002
L77926 77002
L77870 77030
" />
<path d="M78123 77367
L78067 77395
L77926 77395
L77870 77367
L77842 77311
L77842 77255
L77870 77199
L77926 77171
L78067 77171
L78123 77142
" />
<path d="M78658 77395
L78658 76805
" />
<path d="M78658 77367
L78601 77395
L78489 77395
L78433 77367
L78404 77339
L78376 77283
L78376 77114
L78404 77058
L78433 77030
L78489 77002
L78601 77002
L78658 77030
" />
<path d="M79557 77620
L79529 77592
L79473 77508
L79445 77452
L79417 77367
L79389 77227
L79389 77114
L79417 76974
L79445 76889
L79473 76833
L79529 76749
L79557 76721
" />
<path d="M80064 76805
L79782 76805
L79754 77086
L79782 77058
L79839 77030
L79979 77030
L80036 77058
L80064 77086
L80092 77142
L80092 77283
L80064 77339
L80036 77367
L79979 77395
L79839 77395
L79782 77367
L79754 77339
" />
<path d="M80345 77339
L80373 77367
L80345 77395
L80317 77367
L80345 77339
L80345 77395
" />
<path d="M80935 77395
L80598 77395
" />
<path d="M80767 77395
L80767 76805
L80710 76889
L80654 76946
L80598 76974
" />
<path d="M81188 77339
L81217 77367
L81188 77395
L81160 77367
L81188 77339
L81188 77395
" />
<path d="M81779 77395
L81442 77395
" />
<path d="M81610 77395
L81610 76805
L81554 76889
L81498 76946
L81442 76974
" />
<path d="M82145 76805
L82201 76805
L82257 76833
L82285 76861
L82313 76917
L82341 77030
L82341 77171
L82313 77283
L82285 77339
L82257 77367
L82201 77395
L82145 77395
L82088 77367
L82060 77339
L82032 77283
L82004 77171
L82004 77030
L82032 76917
L82060 76861
L82088 76833
L82145 76805
" />
<path d="M82538 77620
L82566 77592
L82623 77508
L82651 77452
L82679 77367
L82707 77227
L82707 77114
L82679 76974
L82651 76889
L82623 76833
L82566 76749
L82538 76721
" />
<path d="M82988 77171
L83438 77171
" />
<path d="M84029 77395
L83691 77395
" />
<path d="M83860 77395
L83860 76805
L83804 76889
L83748 76946
L83691 76974
" />
</g>
<g style="fill:#000000; fill-opacity:0.0; 
stroke:#000000; stroke-width:39.3701; stroke-opacity:1; 
stroke-linecap:round; stroke-linejoin:round;">
</g>
<g style="fill:#000000; fill-opacity:0.0; 
stroke:#000000; stroke-width:59.0551; stroke-opacity:1; 
stroke-linecap:round; stroke-linejoin:round;">
<path d="M69685 75396
L112205 75396
" />
</g>
<g style="fill:#000000; fill-opacity:0.0; 
stroke:#000000; stroke-width:39.3701; stroke-opacity:1; 
stroke-linecap:round; stroke-linejoin:round;">
</g>
<g style="fill:#000000; fill-opacity:0.0; 
stroke:#000000; stroke-width:118.11; stroke-opacity:1; 
stroke-linecap:round; stroke-linejoin:round;">
<text x="103544" y="76321.7"
textLength="2336.9" font-size="787.402" lengthAdjust="spacingAndGlyphs"
text-anchor="start" opacity="0">Rev: </text>
<path d="M104099 76293
L103902 76012
" />
<path d="M103761 76293
L103761 75703
L103986 75703
L104042 75731
L104070 75759
L104099 75815
L104099 75899
L104070 75956
L104042 75984
L103986 76012
L103761 76012
" />
<path d="M104577 76265
L104520 76293
L104408 76293
L104352 76265
L104323 76209
L104323 75984
L104352 75928
L104408 75899
L104520 75899
L104577 75928
L104605 75984
L104605 76040
L104323 76096
" />
<path d="M104802 75899
L104942 76293
L105083 75899
" />
<path d="M105308 76237
L105336 76265
L105308 76293
L105280 76265
L105308 76237
L105308 76293
" />
<path d="M105308 75928
L105336 75956
L105308 75984
L105280 75956
L105308 75928
L105308 75984
" />
</g>
<g style="fill:#000000; fill-opacity:0.0; 
stroke:#000000; stroke-width:39.3701; stroke-opacity:1; 
stroke-linecap:round; stroke-linejoin:round;">
</g>
<g style="fill:#000000; fill-opacity:0.0; 
stroke:#000000; stroke-width:59.0551; stroke-opacity:1; 
stroke-linecap:round; stroke-linejoin:round;">
<text x="70079.6" y="76321.7"
textLength="3781.21" font-size="787.402" lengthAdjust="spacingAndGlyphs"
text-anchor="start" opacity="0">Size: A4</text>
<path d="M70221 76265
L70305 76293
L70446 76293
L70502 76265
L70530 76237
L70559 76181
L70559 76124
L70530 76068
L70502 76040
L70446 76012
L70334 75984
L70277 75956
L70249 75928
L70221 75871
L70221 75815
L70249 75759
L70277 75731
L70334 75703
L70474 75703
L70559 75731
" />
<path d="M70812 76293
L70812 75899
" />
<path d="M70812 75703
L70784 75731
L70812 75759
L70840 75731
L70812 75703
L70812 75759
" />
<path d="M71037 75899
L71346 75899
L71037 76293
L71346 76293
" />
<path d="M71796 76265
L71740 76293
L71627 76293
L71571 76265
L71543 76209
L71543 75984
L71571 75928
L71627 75899
L71740 75899
L71796 75928
L71824 75984
L71824 76040
L71543 76096
" />
<path d="M72077 76237
L72105 76265
L72077 76293
L72049 76265
L72077 76237
L72077 76293
" />
<path d="M72077 75928
L72105 75956
L72077 75984
L72049 75956
L72077 75928
L72077 75984
" />
<path d="M72780 76124
L73061 76124
" />
<path d="M72724 76293
L72921 75703
L73118 76293
" />
<path d="M73568 75899
L73568 76293
" />
<path d="M73427 75674
L73286 76096
L73652 76096
" />
</g>
<g style="fill:#000000; fill-opacity:0.0; 
stroke:#000000; stroke-width:39.3701; stroke-opacity:1; 
stroke-linecap:round; stroke-linejoin:round;">
</g>
<g style="fill:#000000; fill-opacity:0.0; 
stroke:#000000; stroke-width:59.0551; stroke-opacity:1; 
stroke-linecap:round; stroke-linejoin:round;">
<text x="103544" y="77424.1"
textLength="3349.27" font-size="787.402" lengthAdjust="spacingAndGlyphs"
text-anchor="start" opacity="0">Id: 1/1</text>
<path d="M103714 77395
L103714 76805
" />
<path d="M104248 77395
L104248 76805
" />
<path d="M104248 77367
L104192 77395
L104079 77395
L104023 77367
L103995 77339
L103967 77283
L103967 77114
L103995 77058
L104023 77030
L104079 77002
L104192 77002
L104248 77030
" />
<path d="M104529 77339
L104557 77367
L104529 77395
L104501 77367
L104529 77339
L104529 77395
" />
<path d="M104529 77030
L104557 77058
L104529 77086
L104501 77058
L104529 77030
L104529 77086
" />
<path d="M105570 77395
L105232 77395
" />
<path d="M105401 77395
L105401 76805
L105345 76889
L105289 76946
L105232 76974
" />
<path d="M106245 76777
L105739 77536
" />
<path d="M106751 77395
L106413 77395
" />
<path d="M106582 77395
L106582 76805
L106526 76889
L106470 76946
L106413 76974
" />
</g>
<g style="fill:#000000; fill-opacity:0.0; 
stroke:#000000; stroke-width:39.3701; stroke-opacity:1; 
stroke-linecap:round; stroke-linejoin:round;">
</g>
<g style="fill:#000000; fill-opacity:0.0; 
stroke:#000000; stroke-width:59.0551; stroke-opacity:1; 
stroke-linecap:round; stroke-linejoin:round;">
<path d="M69685 73821
L112205 73821
" />
</g>
<g style="fill:#000000; fill-opacity:0.0; 
stroke:#000000; stroke-width:39.3701; stroke-opacity:1; 
stroke-linecap:round; stroke-linejoin:round;">
</g>
<g style="fill:#000000; fill-opacity:0.0; 
stroke:#000000; stroke-width:157.48; stroke-opacity:1; 
stroke-linecap:round; stroke-linejoin:round;">
<text x="70079.6" y="74924.1"
textLength="3701.14" font-size="1049.87" lengthAdjust="spacingAndGlyphs"
text-anchor="start" opacity="0">Title: </text>
<path d="M70360 74099
L70810 74099
" />
<path d="M70486 74886
L70585 74099
" />
<path d="M70974 74886
L71039 74361
" />
<path d="M71072 74099
L71030 74136
L71063 74174
L71105 74136
L71072 74099
L71063 74174
" />
<path d="M71302 74361
L71602 74361
" />
<path d="M71447 74099
L71363 74774
L71391 74849
L71461 74886
L71536 74886
" />
<path d="M71911 74886
L71841 74849
L71813 74774
L71897 74099
" />
<path d="M72516 74849
L72436 74886
L72286 74886
L72216 74849
L72187 74774
L72225 74474
L72272 74399
L72352 74361
L72501 74361
L72572 74399
L72600 74474
L72591 74549
L72206 74624
" />
<path d="M72895 74811
L72928 74849
L72886 74886
L72853 74849
L72895 74811
L72886 74886
" />
<path d="M72947 74399
L72980 74436
L72937 74474
L72905 74436
L72947 74399
L72937 74474
" />
</g>
<g style="fill:#000000; fill-opacity:0.0; 
stroke:#000000; stroke-width:39.3701; stroke-opacity:1; 
stroke-linecap:round; stroke-linejoin:round;">
</g>
<g style="fill:#000000; fill-opacity:0.0; 
stroke:#000000; stroke-width:59.0551; stroke-opacity:1; 
stroke-linecap:round; stroke-linejoin:round;">
<text x="70079.6" y="73408.3"
textLength="19355.5" font-size="787.402" lengthAdjust="spacingAndGlyphs"
text-anchor="start" opacity="0">File: WindSensorATMEGA328_PCB.kicad_pcb</text>
<path d="M70446 73070
L70249 73070
" />
<path d="M70249 73380
L70249 72789
L70530 72789
" />
<path d="M70755 73380
L70755 72986
" />
<path d="M70755 72789
L70727 72817
L70755 72845
L70784 72817
L70755 72789
L70755 72845
" />
<path d="M71121 73380
L71065 73352
L71037 73295
L71037 72789
" />
<path d="M71571 73352
L71515 73380
L71402 73380
L71346 73352
L71318 73295
L71318 73070
L71346 73014
L71402 72986
L71515 72986
L71571 73014
L71599 73070
L71599 73127
L71318 73183
" />
<path d="M71852 73323
L71880 73352
L71852 73380
L71824 73352
L71852 73323
L71852 73380
" />
<path d="M71852 73014
L71880 73042
L71852 73070
L71824 73042
L71852 73014
L71852 73070
" />
<path d="M72527 72789
L72668 73380
L72780 72958
L72893 73380
L73033 72789
" />
<path d="M73258 73380
L73258 72986
" />
<path d="M73258 72789
L73230 72817
L73258 72845
L73286 72817
L73258 72789
L73258 72845
" />
<path d="M73539 72986
L73539 73380
" />
<path d="M73539 73042
L73568 73014
L73624 72986
L73708 72986
L73764 73014
L73793 73070
L73793 73380
" />
<path d="M74327 73380
L74327 72789
" />
<path d="M74327 73352
L74271 73380
L74158 73380
L74102 73352
L74074 73323
L74046 73267
L74046 73099
L74074 73042
L74102 73014
L74158 72986
L74271 72986
L74327 73014
" />
<path d="M74580 73352
L74664 73380
L74805 73380
L74861 73352
L74889 73323
L74917 73267
L74917 73211
L74889 73155
L74861 73127
L74805 73099
L74692 73070
L74636 73042
L74608 73014
L74580 72958
L74580 72902
L74608 72845
L74636 72817
L74692 72789
L74833 72789
L74917 72817
" />
<path d="M75395 73352
L75339 73380
L75227 73380
L75171 73352
L75142 73295
L75142 73070
L75171 73014
L75227 72986
L75339 72986
L75395 73014
L75424 73070
L75424 73127
L75142 73183
" />
<path d="M75677 72986
L75677 73380
" />
<path d="M75677 73042
L75705 73014
L75761 72986
L75845 72986
L75902 73014
L75930 73070
L75930 73380
" />
<path d="M76183 73352
L76239 73380
L76352 73380
L76408 73352
L76436 73295
L76436 73267
L76408 73211
L76352 73183
L76267 73183
L76211 73155
L76183 73099
L76183 73070
L76211 73014
L76267 72986
L76352 72986
L76408 73014
" />
<path d="M76773 73380
L76717 73352
L76689 73323
L76661 73267
L76661 73099
L76689 73042
L76717 73014
L76773 72986
L76858 72986
L76914 73014
L76942 73042
L76970 73099
L76970 73267
L76942 73323
L76914 73352
L76858 73380
L76773 73380
" />
<path d="M77223 73380
L77223 72986
" />
<path d="M77223 73099
L77251 73042
L77280 73014
L77336 72986
L77392 72986
" />
<path d="M77561 73211
L77842 73211
" />
<path d="M77505 73380
L77701 72789
L77898 73380
" />
<path d="M78011 72789
L78348 72789
" />
<path d="M78180 73380
L78180 72789
" />
<path d="M78545 73380
L78545 72789
L78742 73211
L78939 72789
L78939 73380
" />
<path d="M79220 73070
L79417 73070
" />
<path d="M79501 73380
L79220 73380
L79220 72789
L79501 72789
" />
<path d="M80064 72817
L80007 72789
L79923 72789
L79839 72817
L79782 72874
L79754 72930
L79726 73042
L79726 73127
L79754 73239
L79782 73295
L79839 73352
L79923 73380
L79979 73380
L80064 73352
L80092 73323
L80092 73127
L79979 73127
" />
<path d="M80317 73211
L80598 73211
" />
<path d="M80260 73380
L80457 72789
L80654 73380
" />
<path d="M80795 72789
L81160 72789
L80964 73014
L81048 73014
L81104 73042
L81132 73070
L81160 73127
L81160 73267
L81132 73323
L81104 73352
L81048 73380
L80879 73380
L80823 73352
L80795 73323
" />
<path d="M81385 72845
L81413 72817
L81470 72789
L81610 72789
L81667 72817
L81695 72845
L81723 72902
L81723 72958
L81695 73042
L81357 73380
L81723 73380
" />
<path d="M82060 73042
L82004 73014
L81976 72986
L81948 72930
L81948 72902
L81976 72845
L82004 72817
L82060 72789
L82173 72789
L82229 72817
L82257 72845
L82285 72902
L82285 72930
L82257 72986
L82229 73014
L82173 73042
L82060 73042
L82004 73070
L81976 73099
L81948 73155
L81948 73267
L81976 73323
L82004 73352
L82060 73380
L82173 73380
L82229 73352
L82257 73323
L82285 73267
L82285 73155
L82257 73099
L82229 73070
L82173 73042
" />
<path d="M82398 73436
L82848 73436
" />
<path d="M82988 73380
L82988 72789
L83213 72789
L83269 72817
L83298 72845
L83326 72902
L83326 72986
L83298 73042
L83269 73070
L83213 73099
L82988 73099
" />
<path d="M83916 73323
L83888 73352
L83804 73380
L83748 73380
L83663 73352
L83607 73295
L83579 73239
L83551 73127
L83551 73042
L83579 72930
L83607 72874
L83663 72817
L83748 72789
L83804 72789
L83888 72817
L83916 72845
" />
<path d="M84366 73070
L84451 73099
L84479 73127
L84507 73183
L84507 73267
L84479 73323
L84451 73352
L84394 73380
L84169 73380
L84169 72789
L84366 72789
L84422 72817
L84451 72845
L84479 72902
L84479 72958
L84451 73014
L84422 73042
L84366 73070
L84169 73070
" />
<path d="M84760 73323
L84788 73352
L84760 73380
L84732 73352
L84760 73323
L84760 73380
" />
<path d="M85041 73380
L85041 72789
" />
<path d="M85097 73155
L85266 73380
" />
<path d="M85266 72986
L85041 73211
" />
<path d="M85519 73380
L85519 72986
" />
<path d="M85519 72789
L85491 72817
L85519 72845
L85547 72817
L85519 72789
L85519 72845
" />
<path d="M86054 73352
L85997 73380
L85885 73380
L85829 73352
L85800 73323
L85772 73267
L85772 73099
L85800 73042
L85829 73014
L85885 72986
L85997 72986
L86054 73014
" />
<path d="M86560 73380
L86560 73070
L86532 73014
L86475 72986
L86363 72986
L86307 73014
" />
<path d="M86560 73352
L86503 73380
L86363 73380
L86307 73352
L86278 73295
L86278 73239
L86307 73183
L86363 73155
L86503 73155
L86560 73127
" />
<path d="M87094 73380
L87094 72789
" />
<path d="M87094 73352
L87038 73380
L86925 73380
L86869 73352
L86841 73323
L86813 73267
L86813 73099
L86841 73042
L86869 73014
L86925 72986
L87038 72986
L87094 73014
" />
<path d="M87235 73436
L87685 73436
" />
<path d="M87825 72986
L87825 73577
" />
<path d="M87825 73014
L87881 72986
L87994 72986
L88050 73014
L88078 73042
L88106 73099
L88106 73267
L88078 73323
L88050 73352
L87994 73380
L87881 73380
L87825 73352
" />
<path d="M88613 73352
L88556 73380
L88444 73380
L88388 73352
L88359 73323
L88331 73267
L88331 73099
L88359 73042
L88388 73014
L88444 72986
L88556 72986
L88613 73014
" />
<path d="M88866 73380
L88866 72789
" />
<path d="M88866 73014
L88922 72986
L89034 72986
L89091 73014
L89119 73042
L89147 73099
L89147 73267
L89119 73323
L89091 73352
L89034 73380
L88922 73380
L88866 73352
" />
</g>
<g style="fill:#000000; fill-opacity:0.0; 
stroke:#000000; stroke-width:39.3701; stroke-opacity:1; 
stroke-linecap:round; stroke-linejoin:round;">
</g>
<g style="fill:#000000; fill-opacity:0.0; 
stroke:#000000; stroke-width:59.0551; stroke-opacity:1; 
stroke-linecap:round; stroke-linejoin:round;">
<path d="M69685 71459
L112205 71459
" />
</g>
<g style="fill:#000000; fill-opacity:0.0; 
stroke:#000000; stroke-width:39.3701; stroke-opacity:1; 
stroke-linecap:round; stroke-linejoin:round;">
</g>
<g style="fill:#000000; fill-opacity:0.0; 
stroke:#000000; stroke-width:59.0551; stroke-opacity:1; 
stroke-linecap:round; stroke-linejoin:round;">
<text x="70079.6" y="72345.4"
textLength="3236.78" font-size="787.402" lengthAdjust="spacingAndGlyphs"
text-anchor="start" opacity="0">Sheet: </text>
<path d="M70221 72289
L70305 72317
L70446 72317
L70502 72289
L70530 72260
L70559 72204
L70559 72148
L70530 72092
L70502 72064
L70446 72036
L70334 72007
L70277 71979
L70249 71951
L70221 71895
L70221 71839
L70249 71782
L70277 71754
L70334 71726
L70474 71726
L70559 71754
" />
<path d="M70812 72317
L70812 71726
" />
<path d="M71065 72317
L71065 72007
L71037 71951
L70980 71923
L70896 71923
L70840 71951
L70812 71979
" />
<path d="M71571 72289
L71515 72317
L71402 72317
L71346 72289
L71318 72232
L71318 72007
L71346 71951
L71402 71923
L71515 71923
L71571 71951
L71599 72007
L71599 72064
L71318 72120
" />
<path d="M72077 72289
L72021 72317
L71908 72317
L71852 72289
L71824 72232
L71824 72007
L71852 71951
L71908 71923
L72021 71923
L72077 71951
L72105 72007
L72105 72064
L71824 72120
" />
<path d="M72274 71923
L72499 71923
" />
<path d="M72358 71726
L72358 72232
L72386 72289
L72443 72317
L72499 72317
" />
<path d="M72696 72260
L72724 72289
L72696 72317
L72668 72289
L72696 72260
L72696 72317
" />
<path d="M72696 71951
L72724 71979
L72696 72007
L72668 71979
L72696 71951
L72696 72007
" />
</g>
<g style="fill:#000000; fill-opacity:0.0; 
stroke:#000000; stroke-width:39.3701; stroke-opacity:1; 
stroke-linecap:round; stroke-linejoin:round;">
</g>
<g style="fill:#000000; fill-opacity:0.0; 
stroke:#000000; stroke-width:59.0551; stroke-opacity:1; 
stroke-linecap:round; stroke-linejoin:round;">
<path d="M77559 75396
L77559 76577
" />
</g>
<g style="fill:#000000; fill-opacity:0.0; 
stroke:#000000; stroke-width:39.3701; stroke-opacity:1; 
stroke-linecap:round; stroke-linejoin:round;">
</g>
<g style="fill:#000000; fill-opacity:0.0; 
stroke:#000000; stroke-width:59.0551; stroke-opacity:1; 
stroke-linecap:round; stroke-linejoin:round;">
<path d="M102756 75396
L102756 77955
" />
</g>
<g style="fill:#008484; fill-opacity:0.0; 
stroke:#008484; stroke-width:59.0551; stroke-opacity:1; 
stroke-linecap:round; stroke-linejoin:round;">
<text x="66950" y="38596.9"
textLength="628.984" font-size="419.947" lengthAdjust="spacingAndGlyphs"
text-anchor="middle" opacity="0">A2</text>
<path d="M66725 38465
L66875 38465
" />
<path d="M66695 38578
L66800 38184
L66905 38578
" />
<path d="M66994 38221
L67009 38203
L67039 38184
L67114 38184
L67144 38203
L67159 38221
L67174 38259
L67174 38296
L67159 38353
L66979 38578
L67174 38578
" />
<text x="66950" y="39196.9"
textLength="646.7" font-size="419.947" lengthAdjust="spacingAndGlyphs"
text-anchor="middle" opacity="0">A1</text>
<path d="M66725 39065
L66875 39065
" />
<path d="M66695 39178
L66800 38784
L66905 39178
" />
<path d="M67174 39178
L66994 39178
" />
<path d="M67084 39178
L67084 38784
L67054 38840
L67024 38878
L66994 38896
" />
<text x="66950" y="39746.9"
textLength="646.7" font-size="419.947" lengthAdjust="spacingAndGlyphs"
text-anchor="middle" opacity="0">A0</text>
<path d="M66725 39615
L66875 39615
" />
<path d="M66695 39728
L66800 39334
L66905 39728
" />
<path d="M67069 39334
L67099 39334
L67129 39353
L67144 39371
L67159 39409
L67174 39484
L67174 39578
L67159 39653
L67144 39690
L67129 39709
L67099 39728
L67069 39728
L67039 39709
L67024 39690
L67009 39653
L66994 39578
L66994 39484
L67009 39409
L67024 39371
L67039 39353
L67069 39334
" />
</g>
<g style="fill:#008484; fill-opacity:0.0; 
stroke:#008484; stroke-width:78.7402; stroke-opacity:1; 
stroke-linecap:round; stroke-linejoin:round;">
<text x="66250" y="46677.6"
textLength="811.68" font-size="419.947" lengthAdjust="spacingAndGlyphs"
text-anchor="middle" opacity="0">DIY</text>
<path d="M65957 46658
L65957 46265
L66032 46265
L66077 46283
L66107 46321
L66122 46358
L66137 46433
L66137 46490
L66122 46565
L66107 46602
L66077 46640
L66032 46658
L65957 46658
" />
<path d="M66272 46658
L66272 46265
" />
<path d="M66482 46471
L66482 46658
" />
<path d="M66377 46265
L66482 46471
L66587 46265
" />
<text x="66250" y="47346.9"
textLength="1257.22" font-size="419.947" lengthAdjust="spacingAndGlyphs"
text-anchor="middle" opacity="0">WIND</text>
<path d="M65717 46934
L65792 47328
L65852 47046
L65912 47328
L65987 46934
" />
<path d="M66107 47328
L66107 46934
" />
<path d="M66257 47328
L66257 46934
L66437 47328
L66437 46934
" />
<path d="M66587 47328
L66587 46934
L66662 46934
L66707 46953
L66737 46990
L66752 47028
L66767 47103
L66767 47159
L66752 47234
L66737 47271
L66707 47309
L66662 47328
L66587 47328
" />
<text x="66250" y="48016.1"
textLength="1962.13" font-size="419.947" lengthAdjust="spacingAndGlyphs"
text-anchor="middle" opacity="0">SENSOR</text>
<path d="M65380 47978
L65425 47997
L65500 47997
L65530 47978
L65545 47959
L65560 47922
L65560 47884
L65545 47847
L65530 47828
L65500 47809
L65440 47791
L65410 47772
L65395 47753
L65380 47716
L65380 47678
L65395 47641
L65410 47622
L65440 47603
L65515 47603
L65560 47622
" />
<path d="M65695 47791
L65800 47791
" />
<path d="M65845 47997
L65695 47997
L65695 47603
L65845 47603
" />
<path d="M65980 47997
L65980 47603
L66160 47997
L66160 47603
" />
<path d="M66294 47978
L66339 47997
L66414 47997
L66444 47978
L66459 47959
L66474 47922
L66474 47884
L66459 47847
L66444 47828
L66414 47809
L66354 47791
L66324 47772
L66309 47753
L66294 47716
L66294 47678
L66309 47641
L66324 47622
L66354 47603
L66429 47603
L66474 47622
" />
<path d="M66669 47603
L66729 47603
L66759 47622
L66789 47659
L66804 47734
L66804 47866
L66789 47941
L66759 47978
L66729 47997
L66669 47997
L66639 47978
L66609 47941
L66594 47866
L66594 47734
L66609 47659
L66639 47622
L66669 47603
" />
<path d="M67119 47997
L67014 47809
" />
<path d="M66939 47997
L66939 47603
L67059 47603
L67089 47622
L67104 47641
L67119 47678
L67119 47734
L67104 47772
L67089 47791
L67059 47809
L66939 47809
" />
<g transform="rotate(-90 62050 47700)">
<text x="62050" y="47896.9"
textLength="1062.24" font-size="419.947" lengthAdjust="spacingAndGlyphs"
text-anchor="middle" opacity="0">GND</text>
</g>
<path d="M61853 47939
L61834 47969
L61834 48014
L61853 48059
L61890 48089
L61928 48104
L62003 48119
L62059 48119
L62134 48104
L62171 48089
L62209 48059
L62228 48014
L62228 47984
L62209 47939
L62190 47924
L62059 47924
L62059 47984
" />
<path d="M62228 47789
L61834 47789
L62228 47610
L61834 47610
" />
<path d="M62228 47460
L61834 47460
L61834 47385
L61853 47340
L61890 47310
L61928 47295
L62003 47280
L62059 47280
L62134 47295
L62171 47310
L62209 47340
L62228 47385
L62228 47460
" />
<text x="58850" y="48145.3"
textLength="833.521" font-size="787.402" lengthAdjust="spacingAndGlyphs"
text-anchor="middle" opacity="0">+</text>
<path d="M58625 47892
L59074 47892
" />
<path d="M58850 48117
L58850 47667
" />
<text x="57550" y="48046.9"
textLength="672.291" font-size="419.947" lengthAdjust="spacingAndGlyphs"
text-anchor="middle" opacity="0">Rx</text>
<path d="M57520 48028
L57415 47840
" />
<path d="M57340 48028
L57340 47634
L57460 47634
L57490 47653
L57505 47671
L57520 47709
L57520 47765
L57505 47803
L57490 47821
L57460 47840
L57340 47840
" />
<path d="M57624 48028
L57789 47765
" />
<path d="M57624 47765
L57789 48028
" />
<text x="55550" y="48096.9"
textLength="597.3" font-size="419.947" lengthAdjust="spacingAndGlyphs"
text-anchor="middle" opacity="0">Tx</text>
<path d="M55332 47684
L55512 47684
" />
<path d="M55422 48078
L55422 47684
" />
<path d="M55587 48078
L55752 47815
" />
<path d="M55587 47815
L55752 48078
" />
<path d="M51130 49000
L49980 49000
" />
<path d="M51130 44000
L50000 44000
" />
<path d="M51130 43000
L49980 43000
" />
<circle cx="50550" cy="42700" r="100" /> 
<path d="M51120 43000
L51120 49000
" />
<path d="M49970 49000
L49970 43000
" />
</g>
<g style="fill:#008484; fill-opacity:1.0; 
stroke:#008484; stroke-width:3.93701; stroke-opacity:1; 
stroke-linecap:round; stroke-linejoin:round;">
<path style="fill:#008484; fill-opacity:1.0; 
stroke:#008484; stroke-width:3.93701; stroke-opacity:1; 
stroke-linecap:round; stroke-linejoin:round;fill-rule:evenodd;"
d="M 51176.1,50299.6
51308.5,50322.1
51438,50359.5
51563.2,50412
51682.7,50479.6
51691.9,50485.6
51804.8,50569.9
51905.8,50665.5
51994.4,50771.8
52070,50888.1
52132.3,51013.6
52180.6,51147.6
52204.6,51240.1
52214.7,51301.7
52221.1,51374.6
52223.8,51454
52222.9,51535.2
52218.2,51613.2
52209.8,51683.2
52203.7,51716.3
52166,51853.4
52114,51982.6
52048.4,52103.1
51970.1,52214.2
51879.8,52315.1
51778.3,52405
51666.3,52483.1
51544.7,52548.7
51414.3,52600.9
51295.4,52634.5
51251.3,52642.2
51195.1,52648.3
51130.9,52652.7
51063.2,52655.2
50996.1,52655.7
50934,52654.2
50881.1,52650.5
50852.6,52646.6
50713,52613.8
50580.9,52566.5
50457.2,52505.5
50342.7,52431.7
50238.1,52345.7
50144.2,52248.3
50061.9,52140.2
49991.9,52022.4
49935,51895.4
49892.1,51760
49881.7,51716.7
49873.6,51667.6
49867.6,51606.7
49863.9,51538.6
49863.6,51527.5
49929.1,51527.5
49942.8,51661.3
49962,51753.6
50002.3,51879.3
50057,51998.2
50125.1,52109.1
50205.5,52211.1
50297,52303.2
50398.6,52384.5
50509.1,52454
50627.5,52510.6
50752.6,52553.4
50883.4,52581.3
50890.3,52582.4
50939.3,52587.3
50998.8,52589.9
51062.5,52590.2
51124.5,52588.2
51178.6,52583.7
51183.5,52583.2
51313.6,52558.6
51438.5,52519
51557.1,52465.1
51668.3,52398.1
51771,52318.9
51864,52228.6
51946.2,52128
52016.6,52018.3
52074,51900.4
52117.2,51775.3
52126.1,51741.5
52140.8,51668.7
52151.6,51590.1
52157.7,51511.9
52158.6,51440.3
52157.2,51412.8
52138.9,51272.7
52105.7,51139.9
52057.6,51014.4
51994.6,50896.5
51917,50786.4
51828.7,50688.1
51727.9,50598.2
51620.5,50522.9
51505.3,50461.6
51380.9,50413.6
51261,50381.3
51195.5,50370.7
51119.3,50364.5
51037.6,50362.8
50955.8,50365.4
50879.2,50372.5
50821.5,50382.1
50689.8,50418.3
50565.3,50468.9
50448.8,50533.1
50341.4,50609.8
50244.2,50698.2
50158,50797.5
50083.9,50906.6
50023,51024.9
49983,51129.2
49949.3,51259.3
49931.2,51392.8
49929.1,51527.5
49863.6,51527.5
49862.4,51468
49863.5,51399.7
49867,51338.2
49872.1,51295.5
49901.8,51159.7
49946.5,51029.3
50005.4,50905.6
50077.6,50789.8
50162.3,50683.2
50258.7,50587.2
50365.8,50503
50398.5,50481.3
50519.1,50413.3
50645.2,50360.5
50775.3,50322.7
50908.1,50299.9
51042.2,50292.3
Z" /> 
<path style="fill:#008484; fill-opacity:1.0; 
stroke:#008484; stroke-width:3.93701; stroke-opacity:1; 
stroke-linecap:round; stroke-linejoin:round;fill-rule:evenodd;"
d="M 66172.8,50303.6
66305.6,50330.5
66436.1,50373
66547.4,50423.2
66666.5,50493.4
66775.5,50576.4
66873.5,50671.1
66959.8,50776.2
67033.6,50890.7
67094.2,51013.5
67140.6,51143.6
67172.2,51279.7
67174.8,51295.5
67180.6,51347.5
67183.8,51410.4
67184.4,51479.5
67182.6,51550
67178.5,51617.2
67172.1,51676.5
67165.2,51716.7
67127.1,51852.8
67074.8,51981.6
67009.1,52102.1
66930.8,52213.4
66840.9,52314.5
66740.2,52404.6
66629.6,52482.6
66509.8,52547.8
66381.8,52599.1
66336.2,52613.4
66241.6,52636.7
66147.3,52650.9
66047,52656.8
65998.5,52657.1
65953.8,52656.4
65913.2,52655.4
65880.5,52654.2
65859.6,52652.9
65856.8,52652.6
65721.4,52626.9
65590.7,52585.9
65466,52530.6
65348.7,52461.8
65239.9,52380.5
65141,52287.5
65053.5,52183.7
64978.4,52070
64965,52046
64923.7,51961
64886.7,51867
64856.7,51771.6
64843.3,51716.7
64832.9,51652.8
64826.2,51578.4
64823.2,51499.4
64890.9,51499.4
64894.2,51578.6
64901.8,51650.9
64909.3,51693.4
64946.9,51829
64998.4,51956
65063.1,52073.9
65140.5,52181.7
65230,52278.9
65330.8,52364.8
65442.4,52438.6
65564.2,52499.6
65664.6,52537.5
65775.6,52566.9
65892.7,52585
66010.6,52591.5
66124.2,52585.8
66149.6,52582.7
66283.2,52556
66410.3,52514.5
66529.9,52459.2
66641.1,52391
66743.1,52310.7
66834.8,52219.2
66915.5,52117.6
66984.3,52006.7
67040.1,51887.3
67082.2,51760.5
67109.5,51627.1
67111.6,51612.5
67116.3,51557.5
67117.8,51492.7
67116.4,51423.6
67112.2,51355.9
67105.4,51295
67099,51258.3
67062.2,51124.5
67011.2,50998.3
66946.6,50880.7
66869.1,50772.6
66779.5,50674.9
66678.3,50588.4
66566.2,50514
66513.5,50485.3
66418,50440.5
66327.6,50407.1
66237.5,50384.1
66143,50370.1
66039.4,50364.3
66002.6,50363.9
65920,50365.6
65848.1,50371.3
65781.5,50382
65714.4,50398.5
65641.4,50421.9
65631.8,50425.2
65509.1,50477.1
65394.6,50542.9
65289.3,50621.5
65194,50711.7
65109.7,50812.6
65037.4,50922.8
64978.1,51041.3
64932.6,51167.1
64906.4,51275
64896.9,51342.1
64891.8,51418.7
64890.9,51499.4
64823.2,51499.4
64823.1,51498.1
64823.8,51417
64828.3,51339.9
64836.4,51271.5
64842.3,51240.1
64880.3,51101.9
64931.2,50973.8
64995.5,50855
65073.8,50744.4
65166.6,50640.9
65180.4,50627.2
65285.7,50536.2
65398.8,50459.2
65518.7,50396.5
65643.9,50348.3
65773.2,50314.7
65905.3,50295.9
66039,50292.2
Z" /> 
<path style="fill:#008484; fill-opacity:1.0; 
stroke:#008484; stroke-width:3.93701; stroke-opacity:1; 
stroke-linecap:round; stroke-linejoin:round;fill-rule:evenodd;"
d="M 51164.9,35338.6
51281,35354.7
51391.6,35382.5
51500.6,35423
51549.6,35445.3
51675.3,35514.4
51789.5,35595.3
51891.8,35687.7
51981.7,35790.8
52058.8,35904.2
52122.7,36027.1
52172.8,36159.1
52204.2,36277.6
52214.3,36339.8
52220.8,36412.8
52223.7,36491.9
52223.1,36572.1
52218.9,36648.7
52211,36716.7
52204.6,36751.5
52165.5,36892
52112,37024.6
52044.7,37148.5
52017.5,37190.2
51987.3,37230
51947.4,37276.4
51900.9,37326
51851.3,37375.6
51801.9,37421.8
51756,37461.1
51719.3,37488.8
51610.8,37554
51492.3,37609.3
51368.6,37652.6
51261,37679
51213.2,37686.1
51154,37691.5
51088.7,37695
51022.4,37696.5
50960.4,37695.8
50907.8,37692.7
50894.3,37691.2
50759.7,37666.2
50630.6,37626.2
50508,37572.1
50393,37504.9
50286.5,37425.5
50189.4,37335.1
50102.9,37234.5
50027.8,37124.7
49965.2,37006.7
49916.1,36881.5
49881.4,36750
49869.1,36677.2
49863.9,36619.3
49861.9,36549.8
49930.1,36549.8
49930.1,36550
49938.1,36661.3
49955,36763
49981.9,36860.2
50020.4,36958.1
50046,37012.5
50112.4,37128
50192,37234.2
50283.4,37329.9
50385.3,37414.2
50496.6,37486
50615.9,37544.3
50742,37588.2
50787.4,37600
50915.3,37622.3
51044.9,37630
51172.7,37622.9
51244.6,37612
51372.9,37580.5
51492.2,37536.1
51604,37477.8
51709.9,37405
51811.4,37316.6
51828.2,37300.2
51917.7,37201.6
51992,37098.8
52052.2,36989.6
52099.3,36872.1
52134.4,36744.2
52141.2,36711.4
52149.4,36654
52154.4,36585.8
52156,36512.2
52154.4,36438.7
52149.5,36370.8
52141.4,36314.4
52106.9,36180.7
52058,36054.4
51995.4,35936.4
51920.1,35827.7
51832.9,35729
51734.5,35641.2
51625.8,35565.2
51507.8,35501.8
51381.1,35451.8
51267.2,35420.6
51216.4,35412.2
51154.2,35406.2
51085.7,35402.8
51016,35402
50950.1,35404.1
50893.3,35409.1
50877.5,35411.4
50752.4,35439.1
50630.6,35480
50515.6,35532.7
50410.5,35596
50377,35620
50272.2,35709.1
50180.4,35807.9
50102.1,35915.6
50037.8,36031.1
49987.9,36153.2
49953,36281.1
49933.6,36413.7
49930.1,36549.8
49861.9,36549.8
49861.9,36547.5
49863.2,36464.7
49870.9,36354.5
49887.2,36253.4
49913.2,36155.6
49943.7,36070.7
50001.6,35947.7
50073.6,35832.7
50158.3,35726.8
50254.7,35631
50361.5,35546.5
50477.6,35474.3
50601.8,35415.6
50686,35385.2
50781.2,35359.2
50876.5,35342.6
50977.6,35334.5
51039.5,35333.4
Z" /> 
<path style="fill:#008484; fill-opacity:1.0; 
stroke:#008484; stroke-width:3.93701; stroke-opacity:1; 
stroke-linecap:round; stroke-linejoin:round;fill-rule:evenodd;"
d="M 66084,35335.9
66147.3,35339.7
66195.7,35345.6
66333.6,35376.7
66464.6,35422.9
66588,35483.9
66703.7,35559.6
66811,35649.7
66836.6,35674.5
66924.5,35770.2
66997.8,35868.3
67058.2,35971.8
67107.5,36083.5
67147.4,36206.6
67154.5,36233.2
67164.7,36275.6
67172.1,36313.7
67177.2,36352.4
67180.8,36396.7
67183.3,36451.7
67183.7,36464.7
67183.5,36587.3
67173.6,36699.6
67153.3,36805.2
67121.8,36907.8
67078.5,37011.2
67069.9,37029.2
67000.5,37152.8
66918.8,37265.9
66825.8,37367.5
66722.3,37457
66609.2,37533.7
66487.4,37596.9
66357.7,37645.8
66286,37665.7
66182.1,37685.5
66072.2,37696.6
65962.5,37698.5
65861,37690.9
65724,37665.1
65590,37623.7
65461.5,37567.7
65341.2,37497.9
65327.6,37488.8
65288.2,37458.9
65242,37419.1
65192.5,37372.6
65143,37323
65096.9,37273.4
65057.4,37227.3
65029.4,37190.2
64957.2,37069.6
64898.8,36940
64854.5,36802.2
64842.3,36751.5
64832.3,36690.9
64825.9,36618.9
64823.1,36540.3
64823.4,36514.3
64890.9,36514.3
64892.7,36588.1
64897.8,36656.5
64905.8,36712.2
64939.8,36846.7
64987.1,36971.6
65048.4,37087.9
65124,37196.5
65197.4,37280.9
65298.8,37375.6
65408.6,37456.1
65526.2,37522
65650.7,37573
65781.6,37608.7
65876.3,37624.4
65936.5,37628.9
66006.8,37629.3
66081.2,37625.9
66153.9,37618.9
66216.3,37609.2
66347.2,37575.5
66471.1,37527.2
66587.1,37465.1
66694.2,37390.3
66791.6,37303.4
66878.4,37205.5
66953.7,37097.4
67016.7,36980
67066.3,36854.2
67099.1,36733.3
67107.9,36679.4
67113.9,36614.5
67117,36543.8
67117.2,36472.7
67114.3,36406.7
67108.1,36351.2
67107.9,36349.9
67077.6,36212.9
67033,36084.4
66974,35964.4
66900.6,35852.6
66813.9,35750.2
66717.9,35659.1
66616.6,35582.5
66507.8,35519.4
66389.6,35468.4
66269.4,35430.9
66234.3,35422
66204.8,35415.4
66177.1,35410.8
66147.4,35407.9
66111.9,35406.2
66066.9,35405.3
66015.1,35404.9
65950.2,35405.1
65898.5,35406.3
65856.9,35408.8
65821.8,35412.8
65790,35418.6
65788.8,35418.9
65654.5,35456
65528.2,35507.3
65410.7,35571.8
65302.8,35648.8
65205.4,35737.5
65119.2,35837.1
65045.1,35946.6
64983.8,36065.4
64936.2,36192.5
64905.5,36314.4
64897.3,36372
64892.4,36440.4
64890.9,36514.3
64823.4,36514.3
64823.9,36460
64828.3,36382.7
64836.3,36313.4
64842.8,36277.6
64880.6,36140.3
64932.7,36010.8
64998.3,35889.9
65076.6,35778.3
65166.7,35677
65267.9,35586.8
65379.3,35508.4
65500.1,35442.8
65629.5,35390.6
65761,35354.1
65811,35345.8
65873,35339.7
65942.3,35336
66014.2,35334.7
Z" /> 
</g>
<g style="fill:#008484; fill-opacity:1.0; 
stroke:#008484; stroke-width:118.11; stroke-opacity:1; 
stroke-linecap:round; stroke-linejoin:round;">
</g>
<g style="fill:#008484; fill-opacity:0.0; 
stroke:#008484; stroke-width:118.11; stroke-opacity:1; 
stroke-linecap:round; stroke-linejoin:round;">
<path d="M50000 38900
L50250 38900
" />
<path d="M50250 38900
L50250 41400
" />
<path d="M50250 41400
L50000 41400
" />
<circle cx="51500" cy="38150" r="250" /> 
<path d="M51500 42150
L50000 42150
" />
<path d="M51500 38150
L50000 38150
" />
<path d="M51500 38150
L51500 42150
" />
<path d="M50000 42150
L50000 38150
" />
</g>
<g style="fill:#008484; fill-opacity:0.0; 
stroke:#008484; stroke-width:78.7402; stroke-opacity:1; 
stroke-linecap:round; stroke-linejoin:round;">
<circle cx="62800" cy="42270" r="98.9949" /> 
<circle cx="62184.6" cy="41624.6" r="141.951" /> 
<path d="M62500 44500
L65000 44500
" />
<path d="M62500 42300
L62500 44500
" />
<path d="M62700 42050
L62500 42300
" />
<path d="M65000 42050
L62700 42050
" />
<path d="M65000 44500
L65000 42050
" />
</g>
<g style="fill:#008484; fill-opacity:0.0; 
stroke:#008484; stroke-width:59.0551; stroke-opacity:1; 
stroke-linecap:round; stroke-linejoin:round;">
<path d="M67154 42696
L67154 42303
" />
<path d="M66345 42303
L66345 42696
" />
<path d="M53404 51074
L53404 50681
" />
<path d="M52595 50681
L52595 51074
" />
<path d="M56303 45154
L56696 45154
" />
<path d="M56696 44345
L56303 44345
" />
<path d="M58173 45154
L58566 45154
" />
<path d="M58566 44345
L58173 44345
" />
</g>
<g style="fill:#008484; fill-opacity:0.0; 
stroke:#008484; stroke-width:118.11; stroke-opacity:1; 
stroke-linecap:round; stroke-linejoin:round;">
<path d="M54500 50750
L54500 48250
" />
<path d="M62500 50750
L54500 50750
" />
<path d="M62500 48250
L62500 50750
" />
<path d="M54500 48250
L62500 48250
" />
<path d="M56500 48250
L56500 50750
" />
<path d="M58500 49750
L58500 50750
" />
<path d="M60500 48250
L60500 50750
" />
<circle cx="54500" cy="48250" r="500" /> 
<path d="M59750 50500
L59750 50750
" />
<path d="M57250 50500
L59750 50500
" />
<path d="M57250 50750
L57250 50500
" />
</g>
<g style="fill:#008484; fill-opacity:0.0; 
stroke:#008484; stroke-width:78.7402; stroke-opacity:1; 
stroke-linecap:round; stroke-linejoin:round;">
<path d="M63330 39700
L63330 40050
" />
<path d="M64170 39720
L64170 40070
" />
<path d="M53490 49700
L53240 49700
" />
<path d="M53490 46900
L53490 49700
" />
<path d="M53240 46900
L53490 46900
" />
<path d="M51990 49700
L52240 49700
" />
<path d="M51990 46900
L51990 49700
" />
<path d="M52240 46900
L51990 46900
" />
</g>
<g style="fill:#008484; fill-opacity:0.0; 
stroke:#008484; stroke-width:20; stroke-opacity:1; 
stroke-linecap:round; stroke-linejoin:round;">
<path d="M58400 43250
L58550 43250
" />
</g>
<g style="fill:#008484; fill-opacity:0.0; 
stroke:#008484; stroke-width:60; stroke-opacity:1; 
stroke-linecap:round; stroke-linejoin:round;">
<path d="M58400 43250
L58400 43500
" />
<path d="M58400 43000
L58400 43250
" />
</g>
<g style="fill:#008484; fill-opacity:0.0; 
stroke:#008484; stroke-width:20; stroke-opacity:1; 
stroke-linecap:round; stroke-linejoin:round;">
<path d="M57900 43250
L57750 43250
" />
</g>
<g style="fill:#008484; fill-opacity:0.0; 
stroke:#008484; stroke-width:60; stroke-opacity:1; 
stroke-linecap:round; stroke-linejoin:round;">
<path d="M57900 43250
L57900 43500
" />
<path d="M57900 43000
L57900 43250
" />
<path d="M58250 43000
L58050 43000
" />
<path d="M58250 43500
L58250 43000
" />
<path d="M58050 43500
L58250 43500
" />
<path d="M58050 43000
L58050 43500
" />
<path d="M60300 42300
L56000 42300
" />
</g>
<g style="fill:#008484; fill-opacity:0.0; 
stroke:#008484; stroke-width:20; stroke-opacity:1; 
stroke-linecap:round; stroke-linejoin:round;">
<path d="M56800 42450
L59500 42450
" />
</g>
<g style="fill:#008484; fill-opacity:0.0; 
stroke:#008484; stroke-width:60; stroke-opacity:1; 
stroke-linecap:round; stroke-linejoin:round;">
<path d="M55900 44100
L55900 43700
" />
<path d="M60400 44100
L60400 43700
" />
<path d="M60300 44200
L56000 44200
" />
</g>
<g style="fill:#008484; fill-opacity:0.0; 
stroke:#008484; stroke-width:20; stroke-opacity:1; 
stroke-linecap:round; stroke-linejoin:round;">
<path d="M56800 42750
L59500 42750
" />
<path d="M59500 44050
L56800 44050
" />
<path d="M59500 43750
L56800 43750
" />
</g>
<g style="fill:#008484; fill-opacity:0.0; 
stroke:#008484; stroke-width:60; stroke-opacity:1; 
stroke-linecap:round; stroke-linejoin:round;">
<path d="M60400 42800
L60400 42400
" />
<path d="M55900 42800
L55900 42400
" />
</g>
<g style="fill:#008484; fill-opacity:0.0; 
stroke:#008484; stroke-width:20; stroke-opacity:1; 
stroke-linecap:round; stroke-linejoin:round;">
<path d="M56799.7 42449.5 A800.465 800.465 0.0 0 0 56139 42800" />
<path d="M60160.9 42799.2 A800 800 0.0 0 0 59500 42450" />
</g>
<g style="fill:#008484; fill-opacity:0.0; 
stroke:#008484; stroke-width:60; stroke-opacity:1; 
stroke-linecap:round; stroke-linejoin:round;">
<path d="M60300 44200 A100 100 0.0 0 0 60400 44100" />
</g>
<g style="fill:#008484; fill-opacity:0.0; 
stroke:#008484; stroke-width:20; stroke-opacity:1; 
stroke-linecap:round; stroke-linejoin:round;">
<path d="M59499.5 43749.6 A499.589 499.589 0.0 0 0 59717 43700" />
<path d="M59717.6 42799.8 A500 500 0.0 0 0 59500 42750" />
<path d="M59501.1 44049.9 A799.903 799.903 0.0 0 0 60161 43699" />
<path d="M56139.1 43700.8 A800 800 0.0 0 0 56800 44050" />
<path d="M56582.4 43700.2 A500 500 0.0 0 0 56800 43750" />
<path d="M56800.5 42750.4 A499.589 499.589 0.0 0 0 56583 42800" />
</g>
<g style="fill:#008484; fill-opacity:0.0; 
stroke:#008484; stroke-width:60; stroke-opacity:1; 
stroke-linecap:round; stroke-linejoin:round;">
<path d="M55900 44100 A100 100 0.0 0 0 56000 44200" />
<path d="M60400 42400 A100 100 0.0 0 0 60300 42300" />
<path d="M56000 42300 A100 100 0.0 0 0 55900 42400" />
</g>
<g style="fill:#008484; fill-opacity:0.0; 
stroke:#008484; stroke-width:59.0551; stroke-opacity:1; 
stroke-linecap:round; stroke-linejoin:round;">
<path d="M59654 41568
L59654 41175
" />
<path d="M58845 41175
L58845 41568
" />
<path d="M66053 46154
L66446 46154
" />
<path d="M66446 45345
L66053 45345
" />
</g>
<g style="fill:#008484; fill-opacity:0.0; 
stroke:#008484; stroke-width:50; stroke-opacity:1; 
stroke-linecap:round; stroke-linejoin:round;">
<path d="M59265 47860
L61565 47860
" />
<path d="M58965 47560
L59265 47860
" />
<path d="M59265 45130
L58965 45430
" />
<path d="M61565 45130
L59265 45130
" />
</g>
<g style="fill:#008484; fill-opacity:0.0; 
stroke:#008484; stroke-width:59.0551; stroke-opacity:1; 
stroke-linecap:round; stroke-linejoin:round;">
<path d="M58966 47544
L58966 46914
" />
<path d="M59281 47859
L58966 47544
" />
<path d="M61564 47859
L59281 47859
" />
<path d="M61564 46914
L61564 47859
" />
<path d="M58966 46075
L58966 45445
" />
<path d="M61564 45130
L61564 46075
" />
<path d="M59281 45130
L61564 45130
" />
<path d="M58966 45445
L59281 45130
" />
<circle cx="61565" cy="47386.8" r="196.85" /> 
<path d="M61446.9 46075.7 A1233.11 1233.11 0.0 0 0 59911.4 45248.9" />
<path d="M60620.1 45248.9 A1233.11 1233.11 0.0 0 0 59084.6 46075.7" />
<path d="M59084.6 46914.3 A1233.11 1233.11 0.0 0 0 60620.1 47741.1" />
<path d="M59911.4 47741.1 A1233.11 1233.11 0.0 0 0 61446.9 46914.3" />
</g>
<g style="fill:#008484; fill-opacity:0.0; 
stroke:#008484; stroke-width:26; stroke-opacity:1; 
stroke-linecap:round; stroke-linejoin:round;">
<path d="M66659 48837
L66659 48955
" />
<path d="M66659 48955
L66541 48955
" />
<path d="M66541 48837
L66541 48955
" />
<path d="M66659 48837
L66541 48837
" />
</g>
<g style="fill:#008484; fill-opacity:0.0; 
stroke:#008484; stroke-width:59.0551; stroke-opacity:1; 
stroke-linecap:round; stroke-linejoin:round;">
<path d="M66600 48955
L66363 48718
" />
<path d="M66836 48718
L66600 48955
" />
<path d="M66600 48955
L66836 48718
" />
<circle cx="66954.3" cy="48994.5" r="55.6776" /> 
</g>
<g style="fill:#008484; fill-opacity:0.0; 
stroke:#008484; stroke-width:78.7402; stroke-opacity:1; 
stroke-linecap:round; stroke-linejoin:round;">
<path d="M66914 48128
L66914 49545
" />
<path d="M66285 48128
L66914 48128
" />
<path d="M66285 48167
L66285 48128
" />
<path d="M66285 49545
L66285 48167
" />
<path d="M66914 49545
L66285 49545
" />
<path d="M62330 46948
L62330 47298
" />
<path d="M63170 46968
L63170 47318
" />
<path d="M52600 45480
L52950 45480
" />
<path d="M52580 46320
L52930 46320
" />
<path d="M65170 39720
L65170 40070
" />
<path d="M64330 39700
L64330 40050
" />
<path d="M63950 47100
L63700 47100
" />
<path d="M63700 47100
L63700 49900
" />
<path d="M63700 49900
L63950 49900
" />
<path d="M64950 47100
L65200 47100
" />
<path d="M65200 47100
L65200 49900
" />
<path d="M65200 49900
L64950 49900
" />
</g>
<g style="fill:#008484; fill-opacity:0.0; 
stroke:#008484; stroke-width:118.11; stroke-opacity:1; 
stroke-linecap:round; stroke-linejoin:round;">
<path d="M52600 38950
L52600 35950
" />
<path d="M54600 35950
L54600 38950
" />
<path d="M56600 38950
L56600 35950
" />
<path d="M52600 35950
L56600 35950
" />
<path d="M52600 38950
L56600 38950
" />
<path d="M58600 38950
L56600 38950
" />
<path d="M58600 35950
L58600 38950
" />
<path d="M56600 35950
L58600 35950
" />
</g>
<g style="fill:#008484; fill-opacity:0.0; 
stroke:#008484; stroke-width:78.7402; stroke-opacity:1; 
stroke-linecap:round; stroke-linejoin:round;">
<path d="M54950 39920
L55300 39920
" />
<path d="M54970 39080
L55320 39080
" />
<path d="M53470 39080
L53820 39080
" />
<path d="M53450 39920
L53800 39920
" />
<path d="M53580 41280
L53580 40930
" />
<path d="M54420 41300
L54420 40950
" />
<path d="M56580 39700
L56580 40050
" />
<path d="M57420 39720
L57420 40070
" />
<path d="M57420 41550
L57420 41200
" />
<path d="M56580 41530
L56580 41180
" />
<path d="M53968 42330
L54318 42330
" />
<path d="M53948 43170
L54298 43170
" />
</g>
<g style="fill:#008484; fill-opacity:0.0; 
stroke:#008484; stroke-width:59.0551; stroke-opacity:1; 
stroke-linecap:round; stroke-linejoin:round;">
<path d="M52904 43566
L52904 43173
" />
<path d="M52095 43173
L52095 43566
" />
<path d="M53923 44154
L54316 44154
" />
<path d="M54316 43345
L53923 43345
" />
</g>
<g style="fill:#008484; fill-opacity:0.0; 
stroke:#008484; stroke-width:118.11; stroke-opacity:1; 
stroke-linecap:round; stroke-linejoin:round;">
<path d="M62600 35950
L64600 35950
" />
<path d="M64600 35950
L64600 38950
" />
<path d="M64600 38950
L62600 38950
" />
<path d="M58600 38950
L62600 38950
" />
<path d="M58600 35950
L62600 35950
" />
<path d="M62600 38950
L62600 35950
" />
<path d="M60600 35950
L60600 38950
" />
<path d="M58600 38950
L58600 35950
" />
</g>
<g style="fill:#008484; fill-opacity:0.0; 
stroke:#008484; stroke-width:78.7402; stroke-opacity:1; 
stroke-linecap:round; stroke-linejoin:round;">
<path d="M60935 42129
L60462 42129
" />
<path d="M60935 40870
L60935 42129
" />
<path d="M60462 40870
L60935 40870
" />
<path d="M60462 42129
L60462 40870
" />
<circle cx="61013.8" cy="42208.7" r="111.356" /> 
<path d="M60620 42051
L60620 42129
" />
<path d="M60777 42051
L60620 42051
" />
<path d="M60777 42129
L60777 42051
" />
<path d="M55590 41753
L55590 41675
" />
<path d="M55590 41675
L55433 41675
" />
<path d="M55433 41675
L55433 41753
" />
<circle cx="55826.8" cy="41832.7" r="111.356" /> 
<path d="M55275 41753
L55275 40494
" />
<path d="M55275 40494
L55748 40494
" />
<path d="M55748 40494
L55748 41753
" />
<path d="M55748 41753
L55275 41753
" />
</g>
<g style="fill:#008484; fill-opacity:0.0; 
stroke:#008484; stroke-width:150; stroke-opacity:1; 
stroke-linecap:round; stroke-linejoin:round;">
<path d="M56750 45500
L56750 47500
" />
<path d="M53750 45500
L56750 45500
" />
<path d="M53750 47500
L53750 45500
" />
<path d="M56750 47500
L53750 47500
" />
</g>
<g style="fill:#008484; fill-opacity:0.0; 
stroke:#008484; stroke-width:118.11; stroke-opacity:1; 
stroke-linecap:round; stroke-linejoin:round;">
<circle cx="56750" cy="45531.5" r="250" /> 
</g>
<g style="fill:#008484; fill-opacity:0.0; 
stroke:#008484; stroke-width:78.7402; stroke-opacity:1; 
stroke-linecap:round; stroke-linejoin:round;">
<path d="M52100 41076
L53125 41076
" />
<path d="M53125 41146
L52100 41146
" />
<circle cx="51855.4" cy="41325" r="88.0343" /> 
<path d="M53125 41076
L53125 41136
" />
<path d="M52095 41076
L52095 41136
" />
<path d="M60349 39810
L61374 39810
" />
<path d="M61374 39880
L60349 39880
" />
<circle cx="60103.5" cy="40059.4" r="88.0343" /> 
<path d="M61374 39810
L61374 39870
" />
<path d="M60344 39810
L60344 39870
" />
<path d="M58344 39810
L58344 39870
" />
<path d="M59374 39810
L59374 39870
" />
<circle cx="58103.5" cy="40059.4" r="88.0343" /> 
<path d="M59374 39880
L58349 39880
" />
<path d="M58349 39810
L59374 39810
" />
</g>
<g style="fill:#008484; fill-opacity:0.0; 
stroke:#008484; stroke-width:39.3701; stroke-opacity:1; 
stroke-linecap:round; stroke-linejoin:round;">
<text x="50550" y="49457.5"
textLength="1058.49" font-size="314.961" lengthAdjust="spacingAndGlyphs"
text-anchor="middle" opacity="0">PROG</text>
<path d="M50128 49442
L50128 49127
L50218 49127
L50240 49142
L50251 49157
L50263 49187
L50263 49232
L50251 49262
L50240 49277
L50218 49292
L50128 49292
" />
<path d="M50499 49442
L50420 49292
" />
<path d="M50364 49442
L50364 49127
L50454 49127
L50476 49142
L50488 49157
L50499 49187
L50499 49232
L50488 49262
L50476 49277
L50454 49292
L50364 49292
" />
<path d="M50645 49127
L50690 49127
L50713 49142
L50735 49172
L50746 49232
L50746 49337
L50735 49397
L50713 49427
L50690 49442
L50645 49442
L50623 49427
L50600 49397
L50589 49337
L50589 49232
L50600 49172
L50623 49142
L50645 49127
" />
<path d="M50971 49142
L50949 49127
L50915 49127
L50881 49142
L50859 49172
L50848 49202
L50836 49262
L50836 49307
L50848 49367
L50859 49397
L50881 49427
L50915 49442
L50938 49442
L50971 49427
L50983 49412
L50983 49307
L50938 49307
" />
<text x="50300" y="38007.5"
textLength="624.859" font-size="314.961" lengthAdjust="spacingAndGlyphs"
text-anchor="middle" opacity="0">I2C</text>
<path d="M50069 37992
L50069 37677
" />
<path d="M50170 37707
L50181 37692
L50204 37677
L50260 37677
L50283 37692
L50294 37707
L50305 37737
L50305 37767
L50294 37812
L50159 37992
L50305 37992
" />
<path d="M50541 37962
L50530 37977
L50496 37992
L50474 37992
L50440 37977
L50418 37947
L50406 37917
L50395 37857
L50395 37812
L50406 37752
L50418 37722
L50440 37692
L50474 37677
L50496 37677
L50530 37692
L50541 37707
" />
<g transform="rotate(-90 65600 40050)">
<text x="65600" y="40207.5"
textLength="399.887" font-size="314.961" lengthAdjust="spacingAndGlyphs"
text-anchor="middle" opacity="0">ID</text>
</g>
<path d="M65742 40168
L65427 40168
" />
<path d="M65742 40055
L65427 40055
L65427 39999
L65442 39965
L65472 39943
L65502 39931
L65562 39920
L65607 39920
L65667 39931
L65697 39943
L65727 39965
L65742 39999
L65742 40055
" />
<text x="65250" y="41757.5"
textLength="523.622" font-size="314.961" lengthAdjust="spacingAndGlyphs"
text-anchor="middle" opacity="0">U4</text>
<path d="M65070 41427
L65070 41682
L65081 41712
L65092 41727
L65115 41742
L65160 41742
L65182 41727
L65193 41712
L65205 41682
L65205 41427
" />
<path d="M65418 41532
L65418 41742
" />
<path d="M65362 41412
L65306 41637
L65452 41637
" />
<g transform="rotate(-90 66700 43500)">
<text x="66700" y="43657.5"
textLength="512.374" font-size="314.961" lengthAdjust="spacingAndGlyphs"
text-anchor="middle" opacity="0">C7</text>
</g>
<path d="M66812 43539
L66827 43550
L66842 43584
L66842 43606
L66827 43640
L66797 43663
L66767 43674
L66707 43685
L66662 43685
L66602 43674
L66572 43663
L66542 43640
L66527 43606
L66527 43584
L66542 43550
L66557 43539
" />
<path d="M66527 43460
L66527 43303
L66842 43404
" />
<g transform="rotate(-90 52950 51950)">
<text x="52950" y="52107.5"
textLength="512.374" font-size="314.961" lengthAdjust="spacingAndGlyphs"
text-anchor="middle" opacity="0">C8</text>
</g>
<path d="M53062 51989
L53077 52000
L53092 52034
L53092 52056
L53077 52090
L53047 52113
L53017 52124
L52957 52135
L52912 52135
L52852 52124
L52822 52113
L52792 52090
L52777 52056
L52777 52034
L52792 52000
L52807 51989
" />
<path d="M52912 51854
L52897 51876
L52882 51888
L52852 51899
L52837 51899
L52807 51888
L52792 51876
L52777 51854
L52777 51809
L52792 51786
L52807 51775
L52837 51764
L52852 51764
L52882 51775
L52897 51786
L52912 51809
L52912 51854
L52927 51876
L52942 51888
L52972 51899
L53032 51899
L53062 51888
L53077 51876
L53092 51854
L53092 51809
L53077 51786
L53062 51775
L53032 51764
L52972 51764
L52942 51775
L52927 51786
L52912 51809
" />
<g transform="rotate(-90 55550 44850)">
<text x="55550" y="45007.5"
textLength="512.374" font-size="314.961" lengthAdjust="spacingAndGlyphs"
text-anchor="middle" opacity="0">C9</text>
</g>
<path d="M55662 44889
L55677 44900
L55692 44934
L55692 44956
L55677 44990
L55647 45013
L55617 45024
L55557 45035
L55512 45035
L55452 45024
L55422 45013
L55392 44990
L55377 44956
L55377 44934
L55392 44900
L55407 44889
" />
<path d="M55692 44776
L55692 44731
L55677 44709
L55662 44698
L55617 44675
L55557 44664
L55437 44664
L55407 44675
L55392 44686
L55377 44709
L55377 44754
L55392 44776
L55407 44788
L55437 44799
L55512 44799
L55542 44788
L55557 44776
L55572 44754
L55572 44709
L55557 44686
L55542 44675
L55512 44664
" />
<text x="59500" y="44757.5"
textLength="737.345" font-size="314.961" lengthAdjust="spacingAndGlyphs"
text-anchor="middle" opacity="0">C10</text>
<path d="M59348 44712
L59336 44727
L59303 44742
L59280 44742
L59246 44727
L59224 44697
L59213 44667
L59201 44607
L59201 44562
L59213 44502
L59224 44472
L59246 44442
L59280 44427
L59303 44427
L59336 44442
L59348 44457
" />
<path d="M59573 44742
L59438 44742
" />
<path d="M59505 44742
L59505 44427
L59483 44472
L59460 44502
L59438 44517
" />
<path d="M59719 44427
L59741 44427
L59764 44442
L59775 44457
L59786 44487
L59798 44547
L59798 44622
L59786 44682
L59775 44712
L59764 44727
L59741 44742
L59719 44742
L59696 44727
L59685 44712
L59674 44682
L59663 44622
L59663 44547
L59674 44487
L59685 44457
L59696 44442
L59719 44427
" />
</g>
<g style="fill:#008484; fill-opacity:0.0; 
stroke:#008484; stroke-width:98.4252; stroke-opacity:1; 
stroke-linecap:round; stroke-linejoin:round;">
<g transform="rotate(-90 54100 49800)">
<text x="54100" y="50036.2"
textLength="2019.69" font-size="524.934" lengthAdjust="spacingAndGlyphs"
text-anchor="middle" opacity="0">SERIAL</text>
</g>
<path d="M54291 50709
L54313 50653
L54313 50559
L54291 50521
L54268 50503
L54223 50484
L54178 50484
L54133 50503
L54111 50521
L54088 50559
L54066 50634
L54043 50671
L54021 50690
L53976 50709
L53931 50709
L53886 50690
L53863 50671
L53841 50634
L53841 50540
L53863 50484
" />
<path d="M54066 50315
L54066 50184
" />
<path d="M54313 50128
L54313 50315
L53841 50315
L53841 50128
" />
<path d="M54313 49734
L54088 49865
" />
<path d="M54313 49959
L53841 49959
L53841 49809
L53863 49771
L53886 49753
L53931 49734
L53998 49734
L54043 49753
L54066 49771
L54088 49809
L54088 49959
" />
<path d="M54313 49565
L53841 49565
" />
<path d="M54178 49396
L54178 49209
" />
<path d="M54313 49434
L53841 49303
L54313 49171
" />
<path d="M54313 48853
L54313 49040
L53841 49040
" />
</g>
<g style="fill:#008484; fill-opacity:0.0; 
stroke:#008484; stroke-width:39.3701; stroke-opacity:1; 
stroke-linecap:round; stroke-linejoin:round;">
<text x="63050" y="40057.5"
textLength="589.145" font-size="314.961" lengthAdjust="spacingAndGlyphs"
text-anchor="middle" opacity="0">R7</text>
<path d="M63010 40042
L62931 39892
" />
<path d="M62875 40042
L62875 39727
L62965 39727
L62988 39742
L62999 39757
L63010 39787
L63010 39832
L62999 39862
L62988 39877
L62965 39892
L62875 39892
" />
<path d="M63089 39727
L63246 39727
L63145 40042
" />
<g transform="rotate(-90 51650 49250)">
<text x="51650" y="49407.5"
textLength="692.351" font-size="314.961" lengthAdjust="spacingAndGlyphs"
text-anchor="middle" opacity="0">RST</text>
</g>
<path d="M51792 49379
L51642 49458
" />
<path d="M51792 49514
L51477 49514
L51477 49424
L51492 49401
L51507 49390
L51537 49379
L51582 49379
L51612 49390
L51627 49401
L51642 49424
L51642 49514
" />
<path d="M51777 49289
L51792 49255
L51792 49199
L51777 49176
L51762 49165
L51732 49154
L51702 49154
L51672 49165
L51657 49176
L51642 49199
L51627 49244
L51612 49266
L51597 49278
L51567 49289
L51537 49289
L51507 49278
L51492 49266
L51477 49244
L51477 49188
L51492 49154
" />
<path d="M51477 49086
L51477 48951
" />
<path d="M51792 49019
L51477 49019
" />
<text x="60750" y="44157.5"
textLength="478.628" font-size="314.961" lengthAdjust="spacingAndGlyphs"
text-anchor="middle" opacity="0">Y1</text>
<path d="M60637 43992
L60637 44142
" />
<path d="M60558 43827
L60637 43992
L60716 43827
" />
<path d="M60918 44142
L60783 44142
" />
<path d="M60851 44142
L60851 43827
L60828 43872
L60806 43902
L60783 43917
" />
<text x="58550" y="41557.5"
textLength="512.374" font-size="314.961" lengthAdjust="spacingAndGlyphs"
text-anchor="middle" opacity="0">C4</text>
<path d="M58510 41512
L58499 41527
L58465 41542
L58443 41542
L58409 41527
L58386 41497
L58375 41467
L58364 41407
L58364 41362
L58375 41302
L58386 41272
L58409 41242
L58443 41227
L58465 41227
L58499 41242
L58510 41257
" />
<path d="M58713 41332
L58713 41542
" />
<path d="M58656 41212
L58600 41437
L58746 41437
" />
<text x="65200" y="45957.5"
textLength="512.374" font-size="314.961" lengthAdjust="spacingAndGlyphs"
text-anchor="middle" opacity="0">C5</text>
<path d="M65160 45912
L65149 45927
L65115 45942
L65093 45942
L65059 45927
L65036 45897
L65025 45867
L65014 45807
L65014 45762
L65025 45702
L65036 45672
L65059 45642
L65093 45627
L65115 45627
L65149 45642
L65160 45657
" />
<path d="M65374 45627
L65261 45627
L65250 45777
L65261 45762
L65284 45747
L65340 45747
L65363 45762
L65374 45777
L65385 45807
L65385 45882
L65374 45912
L65363 45927
L65340 45942
L65284 45942
L65261 45927
L65250 45912
" />
<text x="61850" y="45307.5"
textLength="512.374" font-size="314.961" lengthAdjust="spacingAndGlyphs"
text-anchor="middle" opacity="0">C6</text>
<path d="M61810 45262
L61799 45277
L61765 45292
L61743 45292
L61709 45277
L61686 45247
L61675 45217
L61664 45157
L61664 45112
L61675 45052
L61686 45022
L61709 44992
L61743 44977
L61765 44977
L61799 44992
L61810 45007
" />
<path d="M62013 44977
L61968 44977
L61945 44992
L61934 45007
L61911 45052
L61900 45112
L61900 45232
L61911 45262
L61923 45277
L61945 45292
L61990 45292
L62013 45277
L62024 45262
L62035 45232
L62035 45157
L62024 45127
L62013 45112
L61990 45097
L61945 45097
L61923 45112
L61911 45127
L61900 45157
" />
<g transform="rotate(-90 65950 48800)">
<text x="65950" y="48957.5"
textLength="917.323" font-size="314.961" lengthAdjust="spacingAndGlyphs"
text-anchor="middle" opacity="0">LED0</text>
</g>
<path d="M66092 49064
L66092 49176
L65777 49176
" />
<path d="M65927 48985
L65927 48906
" />
<path d="M66092 48873
L66092 48985
L65777 48985
L65777 48873
" />
<path d="M66092 48771
L65777 48771
L65777 48715
L65792 48681
L65822 48659
L65852 48648
L65912 48636
L65957 48636
L66017 48648
L66047 48659
L66077 48681
L66092 48715
L66092 48771
" />
<path d="M65777 48490
L65777 48468
L65792 48445
L65807 48434
L65837 48423
L65897 48411
L65972 48411
L66032 48423
L66062 48434
L66077 48445
L66092 48468
L66092 48490
L66077 48513
L66062 48524
L66032 48535
L65972 48546
L65897 48546
L65837 48535
L65807 48524
L65792 48513
L65777 48490
" />
<g transform="rotate(-90 62750 46200)">
<text x="62750" y="46357.5"
textLength="512.374" font-size="314.961" lengthAdjust="spacingAndGlyphs"
text-anchor="middle" opacity="0">R4</text>
</g>
<path d="M62892 46239
L62742 46318
" />
<path d="M62892 46374
L62577 46374
L62577 46284
L62592 46261
L62607 46250
L62637 46239
L62682 46239
L62712 46250
L62727 46261
L62742 46284
L62742 46374
" />
<path d="M62682 46036
L62892 46036
" />
<path d="M62562 46093
L62787 46149
L62787 46003
" />
<text x="51700" y="46057.5"
textLength="512.374" font-size="314.961" lengthAdjust="spacingAndGlyphs"
text-anchor="middle" opacity="0">R5</text>
<path d="M51660 46042
L51581 45892
" />
<path d="M51525 46042
L51525 45727
L51615 45727
L51638 45742
L51649 45757
L51660 45787
L51660 45832
L51649 45862
L51638 45877
L51615 45892
L51525 45892
" />
<path d="M51874 45727
L51761 45727
L51750 45877
L51761 45862
L51784 45847
L51840 45847
L51863 45862
L51874 45877
L51885 45907
L51885 45982
L51874 46012
L51863 46027
L51840 46042
L51784 46042
L51761 46027
L51750 46012
" />
<text x="64800" y="40957.5"
textLength="512.374" font-size="314.961" lengthAdjust="spacingAndGlyphs"
text-anchor="middle" opacity="0">R6</text>
<path d="M64760 40942
L64681 40792
" />
<path d="M64625 40942
L64625 40627
L64715 40627
L64738 40642
L64749 40657
L64760 40687
L64760 40732
L64749 40762
L64738 40777
L64715 40792
L64625 40792
" />
<path d="M64963 40627
L64918 40627
L64895 40642
L64884 40657
L64861 40702
L64850 40762
L64850 40882
L64861 40912
L64873 40927
L64895 40942
L64940 40942
L64963 40927
L64974 40912
L64985 40882
L64985 40807
L64974 40777
L64963 40762
L64940 40747
L64895 40747
L64873 40762
L64861 40777
L64850 40807
" />
<g transform="rotate(-90 63350 48750)">
<text x="63350" y="48907.5"
textLength="748.594" font-size="314.961" lengthAdjust="spacingAndGlyphs"
text-anchor="middle" opacity="0">SWA</text>
</g>
<path d="M63477 49053
L63492 49019
L63492 48963
L63477 48941
L63462 48929
L63432 48918
L63402 48918
L63372 48929
L63357 48941
L63342 48963
L63327 49008
L63312 49031
L63297 49042
L63267 49053
L63237 49053
L63207 49042
L63192 49031
L63177 49008
L63177 48952
L63192 48918
" />
<path d="M63177 48839
L63492 48783
L63267 48738
L63492 48693
L63177 48637
" />
<path d="M63402 48558
L63402 48446
" />
<path d="M63492 48581
L63177 48502
L63492 48423
" />
<g transform="rotate(-90 52300 38050)">
<text x="52300" y="38207.5"
textLength="1299.78" font-size="314.961" lengthAdjust="spacingAndGlyphs"
text-anchor="middle" opacity="0">WIND_A</text>
</g>
<path d="M52127 38640
L52442 38584
L52217 38539
L52442 38494
L52127 38438
" />
<path d="M52442 38348
L52127 38348
" />
<path d="M52442 38235
L52127 38235
L52442 38100
L52127 38100
" />
<path d="M52442 37988
L52127 37988
L52127 37931
L52142 37898
L52172 37875
L52202 37864
L52262 37853
L52307 37853
L52367 37864
L52397 37875
L52427 37898
L52442 37931
L52442 37988
" />
<path d="M52472 37808
L52472 37628
" />
<path d="M52352 37583
L52352 37470
" />
<path d="M52442 37605
L52127 37526
L52442 37448
" />
</g>
<g style="fill:#008484; fill-opacity:0.0; 
stroke:#008484; stroke-width:120; stroke-opacity:1; 
stroke-linecap:round; stroke-linejoin:round;">
<text x="53600" y="35800"
textLength="794.038" font-size="800" lengthAdjust="spacingAndGlyphs"
text-anchor="middle" opacity="0">+</text>
<path d="M53371 35542
L53828 35542
" />
<path d="M53600 35771
L53600 35314
" />
</g>
<g style="fill:#008484; fill-opacity:0.0; 
stroke:#008484; stroke-width:98.4252; stroke-opacity:1; 
stroke-linecap:round; stroke-linejoin:round;">
<text x="57600" y="35746.9"
textLength="1355.85" font-size="524.934" lengthAdjust="spacingAndGlyphs"
text-anchor="middle" opacity="0">GND</text>
<path d="M57300 35353
L57262 35334
L57206 35334
L57150 35353
L57112 35390
L57093 35428
L57075 35503
L57075 35559
L57093 35634
L57112 35671
L57150 35709
L57206 35728
L57243 35728
L57300 35709
L57318 35690
L57318 35559
L57243 35559
" />
<path d="M57487 35728
L57487 35334
L57712 35728
L57712 35334
" />
<path d="M57899 35728
L57899 35334
L57993 35334
L58049 35353
L58087 35390
L58106 35428
L58124 35503
L58124 35559
L58106 35634
L58087 35671
L58049 35709
L57993 35728
L57899 35728
" />
<text x="55600" y="35696.9"
textLength="2208.94" font-size="524.934" lengthAdjust="spacingAndGlyphs"
text-anchor="middle" opacity="0">WIND_A</text>
<path d="M54615 35284
L54709 35678
L54784 35396
L54859 35678
L54953 35284
" />
<path d="M55103 35678
L55103 35284
" />
<path d="M55290 35678
L55290 35284
L55515 35678
L55515 35284
" />
<path d="M55703 35678
L55703 35284
L55796 35284
L55853 35303
L55890 35340
L55909 35378
L55928 35453
L55928 35509
L55909 35584
L55890 35621
L55853 35659
L55796 35678
L55703 35678
" />
<path d="M56003 35715
L56303 35715
" />
<path d="M56378 35565
L56565 35565
" />
<path d="M56340 35678
L56471 35284
L56602 35678
" />
</g>
<g style="fill:#008484; fill-opacity:0.0; 
stroke:#008484; stroke-width:39.3701; stroke-opacity:1; 
stroke-linecap:round; stroke-linejoin:round;">
<text x="56050" y="39657.5"
textLength="589.145" font-size="314.961" lengthAdjust="spacingAndGlyphs"
text-anchor="middle" opacity="0">R2</text>
<path d="M56010 39642
L55931 39492
" />
<path d="M55875 39642
L55875 39327
L55965 39327
L55988 39342
L55999 39357
L56010 39387
L56010 39432
L55999 39462
L55988 39477
L55965 39492
L55875 39492
" />
<path d="M56100 39357
L56111 39342
L56134 39327
L56190 39327
L56213 39342
L56224 39357
L56235 39387
L56235 39417
L56224 39462
L56089 39642
L56235 39642
" />
<text x="52650" y="39707.5"
textLength="512.374" font-size="314.961" lengthAdjust="spacingAndGlyphs"
text-anchor="middle" opacity="0">R3</text>
<path d="M52610 39692
L52531 39542
" />
<path d="M52475 39692
L52475 39377
L52565 39377
L52588 39392
L52599 39407
L52610 39437
L52610 39482
L52599 39512
L52588 39527
L52565 39542
L52475 39542
" />
<path d="M52689 39377
L52835 39377
L52756 39497
L52790 39497
L52813 39512
L52824 39527
L52835 39557
L52835 39632
L52824 39662
L52813 39677
L52790 39692
L52723 39692
L52700 39677
L52689 39662
" />
<text x="54000" y="40407.5"
textLength="512.374" font-size="314.961" lengthAdjust="spacingAndGlyphs"
text-anchor="middle" opacity="0">R8</text>
<path d="M53960 40392
L53881 40242
" />
<path d="M53825 40392
L53825 40077
L53915 40077
L53938 40092
L53949 40107
L53960 40137
L53960 40182
L53949 40212
L53938 40227
L53915 40242
L53825 40242
" />
<path d="M54095 40212
L54073 40197
L54061 40182
L54050 40152
L54050 40137
L54061 40107
L54073 40092
L54095 40077
L54140 40077
L54163 40092
L54174 40107
L54185 40137
L54185 40152
L54174 40182
L54163 40197
L54140 40212
L54095 40212
L54073 40227
L54061 40242
L54050 40272
L54050 40332
L54061 40362
L54073 40377
L54095 40392
L54140 40392
L54163 40377
L54174 40362
L54185 40332
L54185 40272
L54174 40242
L54163 40227
L54140 40212
" />
<g transform="rotate(-90 57700 39650)">
<text x="57700" y="39807.5"
textLength="512.374" font-size="314.961" lengthAdjust="spacingAndGlyphs"
text-anchor="middle" opacity="0">R9</text>
</g>
<path d="M57842 39689
L57692 39768
" />
<path d="M57842 39824
L57527 39824
L57527 39734
L57542 39711
L57557 39700
L57587 39689
L57632 39689
L57662 39700
L57677 39711
L57692 39734
L57692 39824
" />
<path d="M57842 39576
L57842 39531
L57827 39509
L57812 39498
L57767 39475
L57707 39464
L57587 39464
L57557 39475
L57542 39486
L57527 39509
L57527 39554
L57542 39576
L57557 39588
L57587 39599
L57662 39599
L57692 39588
L57707 39576
L57722 39554
L57722 39509
L57707 39486
L57692 39475
L57662 39464
" />
<g transform="rotate(-90 57700 41150)">
<text x="57700" y="41307.5"
textLength="737.345" font-size="314.961" lengthAdjust="spacingAndGlyphs"
text-anchor="middle" opacity="0">R10</text>
</g>
<path d="M57842 41301
L57692 41380
" />
<path d="M57842 41436
L57527 41436
L57527 41346
L57542 41324
L57557 41313
L57587 41301
L57632 41301
L57662 41313
L57677 41324
L57692 41346
L57692 41436
" />
<path d="M57842 41076
L57842 41211
" />
<path d="M57842 41144
L57527 41144
L57572 41166
L57602 41189
L57617 41211
" />
<path d="M57527 40930
L57527 40908
L57542 40885
L57557 40874
L57587 40863
L57647 40851
L57722 40851
L57782 40863
L57812 40874
L57827 40885
L57842 40908
L57842 40930
L57827 40953
L57812 40964
L57782 40975
L57722 40986
L57647 40986
L57587 40975
L57557 40964
L57542 40953
L57527 40930
" />
<text x="54100" y="42207.5"
textLength="737.345" font-size="314.961" lengthAdjust="spacingAndGlyphs"
text-anchor="middle" opacity="0">R11</text>
<path d="M53948 42192
L53869 42042
" />
<path d="M53813 42192
L53813 41877
L53903 41877
L53925 41892
L53936 41907
L53948 41937
L53948 41982
L53936 42012
L53925 42027
L53903 42042
L53813 42042
" />
<path d="M54173 42192
L54038 42192
" />
<path d="M54105 42192
L54105 41877
L54083 41922
L54060 41952
L54038 41967
" />
<path d="M54398 42192
L54263 42192
" />
<path d="M54330 42192
L54330 41877
L54308 41922
L54285 41952
L54263 41967
" />
<g transform="rotate(-90 52500 42400)">
<text x="52500" y="42557.5"
textLength="512.374" font-size="314.961" lengthAdjust="spacingAndGlyphs"
text-anchor="middle" opacity="0">C2</text>
</g>
<path d="M52612 42439
L52627 42450
L52642 42484
L52642 42506
L52627 42540
L52597 42563
L52567 42574
L52507 42585
L52462 42585
L52402 42574
L52372 42563
L52342 42540
L52327 42506
L52327 42484
L52342 42450
L52357 42439
" />
<path d="M52357 42349
L52342 42338
L52327 42315
L52327 42259
L52342 42236
L52357 42225
L52387 42214
L52417 42214
L52462 42225
L52642 42360
L52642 42214
" />
<text x="53600" y="44557.5"
textLength="512.374" font-size="314.961" lengthAdjust="spacingAndGlyphs"
text-anchor="middle" opacity="0">C3</text>
<path d="M53560 44512
L53549 44527
L53515 44542
L53493 44542
L53459 44527
L53436 44497
L53425 44467
L53414 44407
L53414 44362
L53425 44302
L53436 44272
L53459 44242
L53493 44227
L53515 44227
L53549 44242
L53560 44257
" />
<path d="M53639 44227
L53785 44227
L53706 44347
L53740 44347
L53763 44362
L53774 44377
L53785 44407
L53785 44482
L53774 44512
L53763 44527
L53740 44542
L53673 44542
L53650 44527
L53639 44512
" />
<g transform="rotate(-90 64950 38000)">
<text x="64950" y="38157.5"
textLength="917.323" font-size="314.961" lengthAdjust="spacingAndGlyphs"
text-anchor="middle" opacity="0">VANE</text>
</g>
<path d="M64777 38410
L65092 38331
L64777 38253
" />
<path d="M65002 38185
L65002 38073
" />
<path d="M65092 38208
L64777 38129
L65092 38050
" />
<path d="M65092 37971
L64777 37971
L65092 37836
L64777 37836
" />
<path d="M64927 37724
L64927 37645
" />
<path d="M65092 37611
L65092 37724
L64777 37724
L64777 37611
" />
</g>
<g style="fill:#008484; fill-opacity:0.0; 
stroke:#008484; stroke-width:98.4252; stroke-opacity:1; 
stroke-linecap:round; stroke-linejoin:round;">
<text x="61600" y="35746.9"
textLength="1494.75" font-size="524.934" lengthAdjust="spacingAndGlyphs"
text-anchor="middle" opacity="0">VANE</text>
<path d="M60915 35334
L61046 35728
L61178 35334
" />
<path d="M61290 35615
L61478 35615
" />
<path d="M61253 35728
L61384 35334
L61515 35728
" />
<path d="M61646 35728
L61646 35334
L61871 35728
L61871 35334
" />
<path d="M62059 35521
L62190 35521
" />
<path d="M62246 35728
L62059 35728
L62059 35334
L62246 35334
" />
<text x="63600" y="35746.9"
textLength="1327.8" font-size="524.934" lengthAdjust="spacingAndGlyphs"
text-anchor="middle" opacity="0">GND</text>
<path d="M63300 35353
L63262 35334
L63206 35334
L63150 35353
L63112 35390
L63093 35428
L63075 35503
L63075 35559
L63093 35634
L63112 35671
L63150 35709
L63206 35728
L63243 35728
L63300 35709
L63318 35690
L63318 35559
L63243 35559
" />
<path d="M63487 35728
L63487 35334
L63712 35728
L63712 35334
" />
<path d="M63899 35728
L63899 35334
L63993 35334
L64049 35353
L64087 35390
L64106 35428
L64124 35503
L64124 35559
L64106 35634
L64087 35671
L64049 35709
L63993 35728
L63899 35728
" />
</g>
<g style="fill:#008484; fill-opacity:0.0; 
stroke:#008484; stroke-width:120; stroke-opacity:1; 
stroke-linecap:round; stroke-linejoin:round;">
<text x="59550" y="35800"
textLength="870.81" font-size="800" lengthAdjust="spacingAndGlyphs"
text-anchor="middle" opacity="0">+</text>
<path d="M59321 35542
L59778 35542
" />
<path d="M59550 35771
L59550 35314
" />
</g>
<g style="fill:#008484; fill-opacity:0.0; 
stroke:#008484; stroke-width:39.3701; stroke-opacity:1; 
stroke-linecap:round; stroke-linejoin:round;">
<text x="60750" y="42607.5"
textLength="628.441" font-size="314.961" lengthAdjust="spacingAndGlyphs"
text-anchor="middle" opacity="0">U1</text>
<path d="M60570 42277
L60570 42532
L60581 42562
L60592 42577
L60615 42592
L60660 42592
L60682 42577
L60693 42562
L60705 42532
L60705 42277
" />
<path d="M60941 42592
L60806 42592
" />
<path d="M60873 42592
L60873 42277
L60851 42322
L60828 42352
L60806 42367
" />
<text x="55513" y="42207.5"
textLength="523.622" font-size="314.961" lengthAdjust="spacingAndGlyphs"
text-anchor="middle" opacity="0">U2</text>
<path d="M55333 41877
L55333 42132
L55344 42162
L55355 42177
L55378 42192
L55423 42192
L55445 42177
L55456 42162
L55467 42132
L55467 41877
" />
<path d="M55569 41907
L55580 41892
L55602 41877
L55659 41877
L55681 41892
L55692 41907
L55704 41937
L55704 41967
L55692 42012
L55557 42192
L55704 42192
" />
<text x="52100" y="40857.5"
textLength="512.374" font-size="314.961" lengthAdjust="spacingAndGlyphs"
text-anchor="middle" opacity="0">D4</text>
<path d="M51925 40842
L51925 40527
L51981 40527
L52015 40542
L52038 40572
L52049 40602
L52060 40662
L52060 40707
L52049 40767
L52038 40797
L52015 40827
L51981 40842
L51925 40842
" />
<path d="M52263 40632
L52263 40842
" />
<path d="M52206 40512
L52150 40737
L52296 40737
" />
<text x="60348" y="39591.9"
textLength="512.374" font-size="314.961" lengthAdjust="spacingAndGlyphs"
text-anchor="middle" opacity="0">D1</text>
<path d="M60173 39576
L60173 39261
L60229 39261
L60263 39276
L60286 39306
L60297 39336
L60308 39396
L60308 39441
L60297 39501
L60286 39531
L60263 39561
L60229 39576
L60173 39576
" />
<path d="M60533 39576
L60398 39576
" />
<path d="M60466 39576
L60466 39261
L60443 39306
L60421 39336
L60398 39351
" />
<text x="58348" y="39591.9"
textLength="512.374" font-size="314.961" lengthAdjust="spacingAndGlyphs"
text-anchor="middle" opacity="0">D3</text>
<path d="M58173 39576
L58173 39261
L58229 39261
L58263 39276
L58286 39306
L58297 39336
L58308 39396
L58308 39441
L58297 39501
L58286 39531
L58263 39561
L58229 39576
L58173 39576
" />
<path d="M58387 39261
L58533 39261
L58454 39381
L58488 39381
L58511 39396
L58522 39411
L58533 39441
L58533 39516
L58522 39546
L58511 39561
L58488 39576
L58421 39576
L58398 39561
L58387 39546
" />
<g >
</g>
</g>
<g style="fill:#000000; fill-opacity:0.0; 
stroke:#000000; stroke-width:39.3701; stroke-opacity:1; 
stroke-linecap:round; stroke-linejoin:round;">
</g>
<g style="fill:#C2C200; fill-opacity:0.0; 
stroke:#C2C200; stroke-width:39.3701; stroke-opacity:1; 
stroke-linecap:round; stroke-linejoin:round;">
<path d="M50911 35153
L50785 35159
" />
<path d="M50785 35159
L50663 35178
" />
<path d="M50663 35178
L50545 35208
" />
<path d="M50545 35208
L50431 35249
" />
<path d="M50431 35249
L50324 35301
" />
<path d="M50324 35301
L50222 35362
" />
<path d="M50222 35362
L50127 35433
" />
<path d="M50127 35433
L50040 35512
" />
<path d="M50040 35512
L49961 35600
" />
<path d="M49961 35600
L49890 35695
" />
<path d="M49890 35695
L49828 35796
" />
<path d="M49828 35796
L49777 35904
" />
<path d="M49777 35904
L49735 36017
" />
<path d="M49735 36017
L49705 36135
" />
<path d="M49705 36135
L49686 36258
" />
<path d="M49686 36258
L49680 36384
" />
<path d="M49680 36384
L49680 51599
" />
<path d="M49680 51599
L49686 51725
" />
<path d="M49686 51725
L49705 51847
" />
<path d="M49705 51847
L49735 51966
" />
<path d="M49735 51966
L49777 52079
" />
<path d="M49777 52079
L49828 52186
" />
<path d="M49828 52186
L49890 52288
" />
<path d="M49890 52288
L49961 52383
" />
<path d="M49961 52383
L50040 52470
" />
<path d="M50040 52470
L50127 52549
" />
<path d="M50127 52549
L50222 52620
" />
<path d="M50222 52620
L50324 52682
" />
<path d="M50324 52682
L50431 52733
" />
<path d="M50431 52733
L50545 52775
" />
<path d="M50545 52775
L50663 52805
" />
<path d="M50663 52805
L50785 52823
" />
<path d="M50785 52823
L50911 52830
" />
<path d="M50911 52830
L53617 52830
" />
<path d="M53617 52830
L53617 50901
" />
<path d="M53617 50901
L63420 50901
" />
<path d="M63420 50901
L63420 52830
" />
<path d="M63420 52830
L66126 52830
" />
<path d="M66126 52830
L66252 52823
" />
<path d="M66252 52823
L66375 52805
" />
<path d="M66375 52805
L66493 52775
" />
<path d="M66493 52775
L66606 52733
" />
<path d="M66606 52733
L66714 52682
" />
<path d="M66714 52682
L66815 52620
" />
<path d="M66815 52620
L66910 52549
" />
<path d="M66910 52549
L66998 52470
" />
<path d="M66998 52470
L67077 52383
" />
<path d="M67077 52383
L67148 52288
" />
<path d="M67148 52288
L67209 52186
" />
<path d="M67209 52186
L67261 52079
" />
<path d="M67261 52079
L67302 51966
" />
<path d="M67302 51966
L67332 51847
" />
<path d="M67332 51847
L67351 51725
" />
<path d="M67351 51725
L67357 51599
" />
<path d="M67357 51599
L67357 36384
" />
<path d="M67357 36384
L67351 36258
" />
<path d="M67351 36258
L67332 36135
" />
<path d="M67332 36135
L67302 36017
" />
<path d="M67302 36017
L67261 35904
" />
<path d="M67261 35904
L67209 35796
" />
<path d="M67209 35796
L67148 35695
" />
<path d="M67148 35695
L67077 35600
" />
<path d="M67077 35600
L66998 35512
" />
<path d="M66998 35512
L66910 35433
" />
<path d="M66910 35433
L66815 35362
" />
<path d="M66815 35362
L66714 35301
" />
<path d="M66714 35301
L66606 35249
" />
<path d="M66606 35249
L66493 35208
" />
<path d="M66493 35208
L66375 35178
" />
<path d="M66375 35178
L66252 35159
" />
<path d="M66252 35159
L66126 35153
" />
<path d="M66126 35153
L50911 35153
" />
</g>
<g style="fill:#C2C200; fill-opacity:1.0; 
stroke:#C2C200; stroke-width:0; stroke-opacity:1; 
stroke-linecap:round; stroke-linejoin:round;">
<circle cx="50911.9" cy="35153.1" r="19.685" /> 
<g >
</g>
<g >
</g>
<g >
</g>
<g >
</g>
<g >
</g>
<g >
</g>
<g >
</g>
<g >
</g>
<g >
</g>
<g >
</g>
<g >
</g>
<g >
</g>
<g >
</g>
<g >
</g>
<g >
</g>
<g >
</g>
<g >
</g>
<g >
</g>
<g >
</g>
<g >
</g>
<g >
</g>
<g >
</g>
<g >
</g>
<g >
</g>
<g >
</g>
<g >
</g>
<g >
</g>
<g >
</g>
<g >
</g>
<g >
</g>
<g >
</g>
<g >
</g>
<g >
</g>
<g >
</g>
<g >
</g>
<g >
</g>
<g >
</g>
<g >
</g>
<g >
</g>
</g> 
</svg>
